<svg width="83" height="73" viewBox="0 0 83 73" fill="none" xmlns="http://www.w3.org/2000/svg">
<mask id="path-1-outside-1_612_5389" maskUnits="userSpaceOnUse" x="-0.400024" y="19.0645" width="72" height="54" fill="black">
<rect fill="white" x="-0.400024" y="19.0645" width="72" height="54"/>
<path fill-rule="evenodd" clip-rule="evenodd" d="M4.8 21.0645C3.03269 21.0645 1.6 22.4972 1.6 24.2645V32.2519C1.59998 32.2561 1.59998 32.2603 1.59998 32.2645V67.4645C1.59998 69.2318 3.03266 70.6645 4.79997 70.6645H66.4C68.1673 70.6645 69.6 69.2318 69.6 67.4645V32.2645C69.6 30.4972 68.1673 29.0645 66.4 29.0645H40.7434L36.8756 22.6181C36.2973 21.6543 35.2557 21.0645 34.1316 21.0645H4.8Z"/>
</mask>
<path fill-rule="evenodd" clip-rule="evenodd" d="M4.8 21.0645C3.03269 21.0645 1.6 22.4972 1.6 24.2645V32.2519C1.59998 32.2561 1.59998 32.2603 1.59998 32.2645V67.4645C1.59998 69.2318 3.03266 70.6645 4.79997 70.6645H66.4C68.1673 70.6645 69.6 69.2318 69.6 67.4645V32.2645C69.6 30.4972 68.1673 29.0645 66.4 29.0645H40.7434L36.8756 22.6181C36.2973 21.6543 35.2557 21.0645 34.1316 21.0645H4.8Z" fill="#FFFBF2"/>
<path d="M1.6 32.2519L3.1 32.2577V32.2519H1.6ZM40.7434 29.0645L39.4572 29.8363L39.8941 30.5645H40.7434V29.0645ZM36.8756 22.6181L35.5894 23.3899L35.5894 23.3899L36.8756 22.6181ZM3.1 24.2645C3.1 23.3256 3.86111 22.5645 4.8 22.5645V19.5645C2.20426 19.5645 0.1 21.6688 0.1 24.2645H3.1ZM3.1 32.2519V24.2645H0.1V32.2519H3.1ZM3.09998 32.2645C3.09998 32.2622 3.09998 32.26 3.09999 32.2577L0.100011 32.2461C0.0999875 32.2522 0.0999756 32.2584 0.0999756 32.2645H3.09998ZM3.09998 67.4645V32.2645H0.0999756V67.4645H3.09998ZM4.79997 69.1645C3.86109 69.1645 3.09998 68.4034 3.09998 67.4645H0.0999756C0.0999756 70.0602 2.20423 72.1645 4.79997 72.1645V69.1645ZM66.4 69.1645H4.79997V72.1645H66.4V69.1645ZM68.1 67.4645C68.1 68.4034 67.3389 69.1645 66.4 69.1645V72.1645C68.9957 72.1645 71.1 70.0602 71.1 67.4645H68.1ZM68.1 32.2645V67.4645H71.1V32.2645H68.1ZM66.4 30.5645C67.3389 30.5645 68.1 31.3256 68.1 32.2645H71.1C71.1 29.6688 68.9957 27.5645 66.4 27.5645V30.5645ZM40.7434 30.5645H66.4V27.5645H40.7434V30.5645ZM35.5894 23.3899L39.4572 29.8363L42.0297 28.2928L38.1618 21.8464L35.5894 23.3899ZM34.1316 22.5645C34.7288 22.5645 35.2821 22.8778 35.5894 23.3899L38.1618 21.8464C37.3124 20.4307 35.7826 19.5645 34.1316 19.5645V22.5645ZM4.8 22.5645H34.1316V19.5645H4.8V22.5645Z" fill="black" mask="url(#path-1-outside-1_612_5389)"/>
<g clip-path="url(#clip0_612_5389)">
<path d="M30.463 71.3608C36.2402 71.3608 40.9236 70.3828 40.9236 69.1763C40.9236 67.9698 36.2402 66.9918 30.463 66.9918C24.6857 66.9918 20.0023 67.9698 20.0023 69.1763C20.0023 70.3828 24.6857 71.3608 30.463 71.3608Z" fill="black"/>
<path d="M30.463 71.6568C26.1384 71.6568 19.7034 70.9967 19.7034 69.1763C19.7034 67.3559 26.1384 66.6958 30.463 66.6958C34.7875 66.6958 41.2226 67.3559 41.2226 69.1763C41.2226 70.9967 34.7875 71.6568 30.463 71.6568ZM30.463 67.2908C24.2588 67.2908 20.2983 68.4096 20.2983 69.1792C20.2983 69.9488 24.2588 71.0677 30.463 71.0677C36.6671 71.0677 40.6276 69.9488 40.6276 69.1792C40.6276 68.4096 36.6671 67.2908 30.463 67.2908Z" fill="black"/>
<path d="M46.9383 71.3608C52.7156 71.3608 57.3989 70.3828 57.3989 69.1763C57.3989 67.9698 52.7156 66.9918 46.9383 66.9918C41.161 66.9918 36.4777 67.9698 36.4777 69.1763C36.4777 70.3828 41.161 71.3608 46.9383 71.3608Z" fill="black"/>
<path d="M46.9383 71.6568C42.6138 71.6568 36.1787 70.9967 36.1787 69.1763C36.1787 67.3559 42.6138 66.6958 46.9383 66.6958C51.2629 66.6958 57.6979 67.3559 57.6979 69.1763C57.6979 70.9967 51.2629 71.6568 46.9383 71.6568ZM46.9383 67.2908C40.7342 67.2908 36.7737 68.4096 36.7737 69.1792C36.7737 69.9488 40.7342 71.0677 46.9383 71.0677C53.1425 71.0677 57.1029 69.9488 57.1029 69.1792C57.1029 68.4096 53.1425 67.2908 46.9383 67.2908Z" fill="black"/>
<path d="M71.6485 26.4724C70.9588 27.2302 69.6445 28.426 67.6791 28.9529C64.4882 29.8054 60.9155 28.5326 58.3581 25.7561C58.3344 27.4966 58.3077 29.2371 58.2841 30.9775C58.6156 31.1788 64.7813 34.7811 70.4408 31.6495C73.0545 30.202 74.3805 27.9731 74.9429 26.8395C73.8448 26.7181 72.7466 26.5967 71.6485 26.4754V26.4724Z" fill="#A19085"/>
<path d="M65.3702 33.2153C61.4808 33.2153 58.3195 31.3357 58.1331 31.2232L57.991 31.1374L58.0798 25.019L58.5741 25.5578C61.096 28.2928 64.5563 29.4857 67.6051 28.6717C69.4047 28.1922 70.6805 27.1029 71.4353 26.277L71.5359 26.1675L75.3928 26.5938L75.2063 26.9667C74.4604 28.4645 73.0544 30.5335 70.5828 31.901C68.8275 32.8719 67.0308 33.2153 65.3702 33.2153ZM58.5771 30.8088C59.5568 31.3623 65.1364 34.2483 70.2986 31.3919C72.4387 30.2079 73.7382 28.4586 74.4871 27.0792L71.7609 26.7773C70.6213 27.9879 69.239 28.8345 67.7531 29.2311C64.6895 30.051 61.2558 28.9914 58.6362 26.4576L58.5741 30.8058L58.5771 30.8088Z" fill="black"/>
<path d="M70.9084 26.1054C71.2458 27.2183 72.8768 27.461 73.229 27.5114C73.5191 27.5558 75.23 27.8103 75.7569 26.8868C75.9315 26.579 75.9226 26.2386 75.8782 25.984C76.5235 25.685 77.3967 25.1641 78.0479 24.2287C78.4416 23.6663 78.3705 23.5006 78.7257 22.8227C79.8357 20.7004 81.5881 20.2742 81.4608 19.253C81.4312 19.0191 81.295 18.6669 80.709 18.2791C80.7504 18.211 81.0197 17.7582 80.8421 17.249C80.6734 16.7636 80.1643 16.4291 79.5841 16.4469C79.6256 16.3255 79.9216 15.405 79.4539 14.9254C79.1105 14.5732 78.5363 14.6472 78.2403 14.6827C76.3134 14.9225 73.7381 17.2254 73.0011 17.9032C73.4599 15.9259 73.1757 14.2298 72.2877 13.7C71.5773 13.2767 70.9587 13.4662 70.9587 13.4662C70.8788 13.4898 70.4259 13.629 70.2039 14.0404C70.0352 14.3542 70.0737 14.6946 70.568 16.3078C70.8758 17.3142 70.9735 17.551 70.8877 17.9298C70.7752 18.4271 70.4733 18.6047 70.1773 18.9925C69.2478 20.215 69.5705 21.9643 69.6829 22.5622C69.9227 23.8646 70.5621 24.7586 70.9202 25.1937C70.8551 25.4186 70.7989 25.7502 70.9084 26.1054Z" fill="#FFFAF0"/>
<path d="M74.0549 27.8755C73.7352 27.8755 73.4303 27.8429 73.1817 27.8074C71.7638 27.5972 70.8788 27.0378 70.6213 26.1912C70.5325 25.9011 70.5236 25.5903 70.5946 25.2647C69.9819 24.4863 69.5645 23.5716 69.3899 22.6155C69.2774 22.0028 68.9311 20.138 69.9405 18.8119C70.0322 18.6906 70.124 18.5899 70.2128 18.4923C70.3993 18.288 70.5354 18.14 70.5976 17.8618C70.6538 17.6102 70.6065 17.4415 70.3756 16.6896L70.2838 16.3936C69.7954 14.7982 69.7037 14.3394 69.9405 13.8983C70.1921 13.4307 70.6745 13.2412 70.8699 13.182C70.8995 13.1731 71.6217 12.96 72.4357 13.4455C73.3119 13.9664 73.6819 15.3576 73.4481 17.107C74.7445 15.9911 76.6508 14.5821 78.2018 14.3897C78.5333 14.3483 79.2201 14.2624 79.6641 14.7183C80.0725 15.1386 80.0429 15.7631 79.9571 16.1835C80.4958 16.293 80.9457 16.6571 81.1174 17.1514C81.2595 17.5599 81.1766 17.9387 81.0819 18.1844C81.4815 18.4982 81.7065 18.8445 81.7538 19.2175C81.8337 19.8835 81.3335 20.3304 80.7504 20.8484C80.1998 21.3398 79.5161 21.9495 78.9833 22.9619C78.8412 23.2342 78.7731 23.4147 78.708 23.5864C78.6192 23.8232 78.5333 24.0452 78.2877 24.4004C77.7815 25.1286 77.077 25.7206 76.192 26.1616C76.2127 26.4902 76.1505 26.7832 76.0085 27.0348C75.6266 27.7038 74.7978 27.8755 74.0519 27.8755H74.0549ZM71.3169 13.7207C71.1541 13.7207 71.0534 13.7474 71.0445 13.7503C70.9202 13.7888 70.6153 13.9072 70.4673 14.1795C70.3519 14.3897 70.3933 14.7153 70.8551 16.219L70.9469 16.512C71.1925 17.3083 71.2754 17.5747 71.1807 17.992C71.083 18.4212 70.8669 18.658 70.6568 18.8889C70.5798 18.9747 70.4969 19.0635 70.417 19.1671C69.5675 20.2831 69.8753 21.9555 69.976 22.5031C70.1861 23.6486 70.7308 24.4922 71.1511 24.9983L71.2517 25.1197L71.2073 25.2707C71.1304 25.54 71.1245 25.7916 71.1925 26.0136C71.3761 26.6145 72.1131 27.0407 73.2705 27.2124C74.3982 27.3811 75.23 27.2006 75.4964 26.7329C75.6029 26.5464 75.6325 26.3096 75.5852 26.0255L75.5467 25.8005L75.7539 25.7058C76.633 25.3003 77.3227 24.7438 77.8052 24.0511C78.0094 23.7581 78.0716 23.5953 78.1574 23.3674C78.2255 23.1868 78.3025 22.9826 78.4623 22.6777C79.0425 21.5677 79.8032 20.8899 80.3597 20.3955C80.9191 19.8983 81.2092 19.62 81.1677 19.2796C81.1381 19.0251 80.928 18.7705 80.5461 18.5189L80.3064 18.362L80.4573 18.1163C80.4988 18.0512 80.6912 17.7049 80.5639 17.3408C80.4366 16.9738 80.0489 16.7251 79.593 16.737L79.1668 16.7488L79.3029 16.3463C79.4095 16.0266 79.519 15.4109 79.2437 15.1297C79.004 14.884 78.5333 14.9432 78.2788 14.9728C76.5442 15.1889 74.1525 17.2431 73.2053 18.1163L72.4979 18.7705L72.7169 17.8322C73.1432 16.0029 72.9064 14.4075 72.1397 13.9516C71.8171 13.7592 71.5211 13.7178 71.3198 13.7178L71.3169 13.7207Z" fill="black"/>
<path d="M72.3883 18.1252C72.5008 18.1519 73.6433 18.442 74.0725 19.5283C74.4425 20.4636 74.1229 21.5944 73.2615 22.29" fill="#FFFAF0"/>
<path d="M73.4481 22.5179L73.0751 22.0561C73.824 21.4523 74.12 20.4577 73.7944 19.6348C73.4244 18.6995 72.4298 18.439 72.3203 18.4123L72.4565 17.8351C72.5986 17.8677 73.8684 18.1992 74.3479 19.4187C74.7682 20.4784 74.3953 21.7542 73.4481 22.5208V22.5179Z" fill="black"/>
<path d="M74.8865 19.0281C75.2091 19.2027 75.665 19.4987 76.1001 19.9842C76.6418 20.585 76.9052 21.1978 77.0354 21.5766" fill="#FFFAF0"/>
<path d="M76.7542 21.6713C76.5648 21.1149 76.2688 20.6146 75.881 20.1825C75.5554 19.8213 75.1736 19.5224 74.7473 19.2885L75.0315 18.7676C75.5199 19.031 75.955 19.3744 76.325 19.7858C76.769 20.2772 77.1035 20.8485 77.3196 21.4789L76.7572 21.6713H76.7542Z" fill="black"/>
<path d="M79.5842 16.4439C79.084 16.6037 78.5038 16.8346 77.8911 17.178C76.6834 17.8558 75.8576 18.6905 75.3425 19.3121" fill="#FFFAF0"/>
<path d="M75.5705 19.5016L75.1146 19.1227C75.8605 18.2229 76.7456 17.4829 77.7461 16.9205C78.2966 16.6097 78.8857 16.3551 79.4954 16.1627L79.676 16.7281C79.1047 16.9086 78.5541 17.1484 78.0391 17.4385C77.1008 17.9654 76.272 18.661 75.5734 19.5016H75.5705Z" fill="black"/>
<path d="M80.7089 18.2762C80.1495 18.5515 79.5486 18.8771 78.924 19.2678C78.0716 19.8006 77.3404 20.3482 76.7218 20.8662" fill="#FFFAF0"/>
<path d="M76.9142 21.0941L76.5323 20.6382C77.2368 20.0492 77.9887 19.5046 78.7672 19.0162C79.3503 18.6521 79.96 18.3146 80.5787 18.0098L80.8392 18.5426C80.2383 18.8356 79.6463 19.1642 79.0809 19.5194C78.3261 19.99 77.595 20.5198 76.9112 21.0941H76.9142Z" fill="black"/>
<path d="M48.8032 60.1069C49.0133 60.1513 49.8392 60.3289 50.7834 60.5479C52.4114 60.9209 53.2254 61.1103 53.4711 61.2198C55.2796 62.0338 56.5791 65.3697 55.5993 67.2849C54.5041 69.422 50.8515 69.2325 45.8698 68.9602C44.3454 68.8773 37.6232 68.4097 37.1348 66.1097C37.1112 66.0002 37.1348 65.5089 37.1792 64.5261C37.2651 62.7146 37.3065 61.8089 37.3657 61.649C38.3573 59.0383 46.4056 59.6125 48.8032 60.1098V60.1069Z" fill="#FFFAF0"/>
<path d="M50.1558 69.4161C48.8771 69.4161 47.4326 69.3362 45.849 69.2503C43.3093 69.1112 37.3479 68.531 36.8447 66.169C36.8151 66.0269 36.8269 65.7102 36.8832 64.5114C36.9838 62.321 37.0164 61.7408 37.0874 61.5454C37.564 60.2904 39.3992 59.577 42.5368 59.4231C44.8337 59.3106 47.5066 59.5445 48.8564 59.8257C49.0429 59.8642 49.8628 60.0418 50.8425 60.2667C52.5386 60.6574 53.3112 60.835 53.5835 60.9564C54.5425 61.3886 55.398 62.4601 55.8775 63.8217C56.3452 65.1626 56.3363 66.4738 55.8509 67.4181C55.028 69.0194 53.0093 69.4161 50.1499 69.4161H50.1558ZM43.8066 59.9737C43.3981 59.9737 42.9837 59.9826 42.5693 60.0033C39.7633 60.1424 38.0109 60.764 37.635 61.7526C37.5906 61.9095 37.5403 62.9544 37.4663 64.538C37.4278 65.355 37.4012 65.947 37.416 66.0535C37.7564 67.6549 42.0129 68.457 45.8786 68.6672C50.5939 68.9277 54.3176 69.1319 55.3329 67.1517C55.7384 66.3584 55.7384 65.1862 55.3269 64.0141C54.9066 62.8182 54.1489 61.8503 53.3437 61.4862C53.1247 61.3886 52.216 61.1784 50.7093 60.8321C49.7355 60.6071 48.9215 60.4325 48.735 60.394C47.8589 60.2134 45.8934 59.9737 43.8007 59.9737H43.8066Z" fill="black"/>
<path d="M47.7906 55.0364C48.5306 56.2264 47.7432 57.7626 48.8029 58.5559C49.318 58.9407 49.7116 58.7335 50.7832 58.9969C51.4225 59.1479 52.6095 59.5268 53.6869 60.5361C55.0574 61.8208 56.2947 64.174 55.5991 65.7339C54.6341 67.8917 50.3569 67.6549 45.8696 67.4092C44.3452 67.3264 37.623 66.8587 37.1346 64.5588C37.1109 64.4492 37.1346 63.9579 37.179 62.9752C37.2352 61.7882 37.3181 60.545 37.3655 60.098C37.4395 59.3847 37.7444 56.4069 39.7424 54.776C42.2051 52.7602 46.648 53.1953 47.7936 55.0394L47.7906 55.0364Z" fill="#FFDC50"/>
<path d="M49.9632 67.8591C48.6786 67.8591 47.2785 67.7822 45.8518 67.7022C43.3091 67.5631 37.3447 66.9829 36.8415 64.6149C36.8119 64.4729 36.8238 64.1532 36.88 62.9544C36.9363 61.7319 37.0221 60.5005 37.0665 60.0595C37.398 56.9012 38.5998 55.3146 39.5499 54.5391C41.2105 53.1834 43.4986 52.9822 45.0851 53.2456C46.4615 53.4765 47.539 54.0685 48.0392 54.8766C48.4151 55.4804 48.4388 56.1523 48.4625 56.7443C48.4891 57.4251 48.5099 57.9638 48.9775 58.3161C49.2114 58.4907 49.4097 58.5085 49.7678 58.5381C50.0431 58.5617 50.3865 58.5913 50.8512 58.7038C52.0056 58.9791 53.0564 59.5356 53.8882 60.3141C55.4303 61.7615 56.5936 64.2272 55.8684 65.8493C55.1432 67.4684 52.8403 67.8532 49.9632 67.8532V67.8591ZM43.8478 53.7429C42.3708 53.7429 40.9145 54.1987 39.9288 55.0038C39.0645 55.7113 37.9693 57.1706 37.6615 60.1187C37.6141 60.5598 37.5312 61.7763 37.475 62.9869C37.4365 63.8039 37.4099 64.3929 37.4247 64.4995C37.7651 66.0979 42.0156 66.8971 45.8843 67.1102C50.0964 67.3411 54.4446 67.5809 55.3267 65.6125C55.9365 64.2509 54.8443 62.0279 53.4827 60.7522C52.7279 60.0447 51.7688 59.5356 50.715 59.284C50.2918 59.1804 49.9899 59.1538 49.7205 59.133C49.315 59.0975 48.9953 59.0709 48.6253 58.7926C47.9297 58.2717 47.9031 57.508 47.8735 56.768C47.8527 56.2234 47.832 55.6609 47.539 55.1903C47.1275 54.5302 46.201 54.033 44.9904 53.8317C44.6115 53.7695 44.2297 53.7369 43.8449 53.7369L43.8478 53.7429Z" fill="black"/>
<path d="M45.461 56.4868C46.2869 56.3211 49.1107 55.7054 49.1551 54.7286C49.1995 53.7932 46.6983 52.8224 44.6233 52.6181C41.2164 52.2807 37.6999 53.8909 37.8035 54.8174C37.8509 55.2318 38.6412 55.6906 41.5864 56.0044" fill="#FFDC50"/>
<path d="M45.5173 56.7799L45.4019 56.1967C47.764 55.7231 48.8414 55.1104 48.8592 54.7138C48.8858 54.1129 46.8256 53.1331 44.5968 52.9111C41.9061 52.6447 39.1089 53.6423 38.289 54.477C38.144 54.625 38.0966 54.7345 38.1025 54.7819C38.1025 54.8055 38.2061 55.3443 41.622 55.7083L41.5598 56.3003C38.0966 55.9333 37.5697 55.362 37.5135 54.8499C37.4839 54.5924 37.6023 54.329 37.8657 54.0596C38.8899 53.0207 41.9268 52.0527 44.656 52.3221C46.654 52.5204 49.5133 53.4943 49.4541 54.7434C49.4156 55.5781 48.0925 56.2648 45.5203 56.7799H45.5173Z" fill="black"/>
<path d="M49.4927 58.8104C48.7735 58.8963 47.622 59.1212 46.3847 59.8079C44.8248 60.6723 43.9161 61.8267 43.478 62.4719" fill="#FFDC50"/>
<path d="M43.7267 62.6377L43.2354 62.3061C44.0079 61.1636 45.0469 60.2105 46.2427 59.5504C47.2373 58.9998 48.3206 58.6505 49.4602 58.5173L49.5283 59.1064C48.4657 59.2307 47.4593 59.5533 46.5298 60.0684C45.4169 60.6841 44.446 61.5721 43.7267 62.6377Z" fill="black"/>
<path d="M46.154 24.7349L40.7638 28.3135V54.2046C41.3588 54.4592 42.3415 54.7937 43.5965 54.8262C45.0617 54.8647 46.2013 54.474 46.8259 54.2046C46.6009 44.3804 46.376 34.5591 46.151 24.7349H46.154Z" fill="#A19085"/>
<path d="M43.7918 55.1193C43.7237 55.1193 43.6586 55.1193 43.5905 55.1193C42.5753 55.0926 41.5866 54.8765 40.6483 54.474L40.4707 54.397V28.1566L46.4321 24.1991L47.1218 54.3941L46.9413 54.471C45.9497 54.8973 44.8633 55.1193 43.7889 55.1193H43.7918ZM41.0568 54.0093C41.8737 54.3349 42.7292 54.5125 43.6083 54.5332C44.6029 54.5598 45.6063 54.3793 46.5357 54.0093L45.8786 25.2706L41.0597 28.4674V54.0093H41.0568Z" fill="black"/>
<path d="M42.3354 60.0507C42.886 59.6037 43.7444 59.0147 44.9077 58.5884C46.3403 58.0615 47.6072 58.0112 48.3827 58.0408" fill="#FFDC50"/>
<path d="M42.5249 60.2815L42.152 59.8197C42.9512 59.1715 43.8451 58.6624 44.8071 58.3101C45.9585 57.8869 47.1662 57.6945 48.3946 57.7448L48.3709 58.3368C47.2195 58.2953 46.0888 58.47 45.0113 58.8666C44.1115 59.1981 43.2738 59.6747 42.5249 60.2815Z" fill="black"/>
<path d="M33.1447 60.1069C33.3549 60.1513 34.1807 60.3289 35.1249 60.5479C36.7529 60.9209 37.5669 61.1103 37.8126 61.2198C39.6212 62.0338 40.9206 65.3697 39.9409 67.2849C38.8457 69.422 35.193 69.2325 30.2113 68.9602C28.6869 68.8773 21.9648 68.4097 21.4764 66.1097C21.4527 66.0002 21.4764 65.5089 21.5208 64.5261C21.6066 62.7146 21.6481 61.8089 21.7073 61.649C22.6989 59.0383 30.7471 59.6125 33.1447 60.1098V60.1069Z" fill="#FFFAF0"/>
<path d="M34.5004 69.4161C33.2217 69.4161 31.7772 69.3362 30.1936 69.2503C27.6539 69.1112 21.6925 68.531 21.1893 66.169C21.1597 66.0269 21.1715 65.7102 21.2278 64.5114C21.3284 62.321 21.361 61.7408 21.432 61.5454C21.9086 60.2904 23.7438 59.577 26.8814 59.4231C29.1784 59.3106 31.8512 59.5445 33.201 59.8257C33.3875 59.8642 34.2074 60.0418 35.1871 60.2667C36.8832 60.6574 37.6558 60.835 37.9281 60.9564C38.8871 61.3886 39.7455 62.4601 40.2221 63.8217C40.6898 65.1626 40.6809 66.4738 40.1955 67.4181C39.3726 69.0194 37.3539 69.4161 34.4945 69.4161H34.5004ZM28.1483 59.9737C27.7398 59.9737 27.3254 59.9826 26.911 60.0033C24.1049 60.1424 22.3526 60.764 21.9767 61.7526C21.9323 61.9095 21.879 63.0136 21.8079 64.538C21.7695 65.3579 21.7428 65.947 21.7576 66.0535C22.098 67.6549 26.3516 68.4541 30.2203 68.6672C34.9355 68.9277 38.6592 69.1319 39.6745 67.1517C40.083 66.3584 40.08 65.1862 39.6686 64.0141C39.2483 62.8182 38.4905 61.8503 37.6854 61.4862C37.4664 61.3886 36.5576 61.1784 35.051 60.8321C34.0771 60.6101 33.2631 60.4325 33.0767 60.394C32.2005 60.2134 30.2351 59.9737 28.1423 59.9737H28.1483Z" fill="black"/>
<path d="M32.1321 55.0364C32.8721 56.2264 32.0848 57.7626 33.1445 58.5559C33.6595 58.9407 34.0532 58.7335 35.1247 58.9969C35.7641 59.1479 36.951 59.5268 38.0285 60.5361C39.3989 61.8208 40.6362 64.174 39.9406 65.7339C38.9757 67.8917 34.6985 67.6549 30.2111 67.4092C28.6867 67.3264 21.9645 66.8587 21.4761 64.5588C21.4525 64.4492 21.4761 63.9579 21.5205 62.9752C21.5768 61.7882 21.6597 60.545 21.707 60.098C21.781 59.3847 22.0859 56.4069 24.0839 54.776C26.5466 52.7602 30.9896 53.1953 32.1351 55.0394L32.1321 55.0364Z" fill="#FFDC50"/>
<path d="M34.3049 67.8591C33.0202 67.8591 31.6202 67.7822 30.1934 67.7022C27.6508 67.5631 21.6864 66.9829 21.1832 64.6149C21.1536 64.4729 21.1654 64.1532 21.2217 62.9544C21.2779 61.7349 21.3638 60.5035 21.4111 60.0595C21.7426 56.9012 22.9444 55.3146 23.8946 54.5391C25.5551 53.1834 27.8402 52.9822 29.4298 53.2456C30.8062 53.4735 31.8836 54.0685 32.3838 54.8766C32.7598 55.4804 32.7834 56.1523 32.8071 56.7443C32.8338 57.4251 32.8545 57.9638 33.3222 58.3161C33.556 58.4907 33.7543 58.5085 34.1125 58.5381C34.3878 58.5617 34.7311 58.5913 35.1958 58.7038C36.3502 58.9791 37.401 59.5356 38.2328 60.3141C39.775 61.7615 40.9382 64.2272 40.213 65.8493C39.4878 67.4684 37.185 67.8532 34.3078 67.8532L34.3049 67.8591ZM28.1895 53.7429C26.7125 53.7429 25.2562 54.1987 24.2705 55.0038C23.4062 55.7113 22.311 57.1706 22.0031 60.1187C21.9558 60.5627 21.8729 61.7793 21.8166 62.9869C21.7782 63.8039 21.7515 64.3959 21.7663 64.5025C22.1067 66.1009 26.3573 66.9001 30.226 67.1132C34.4381 67.3441 38.7893 67.5838 39.6684 65.6154C40.2782 64.2538 39.1859 62.0309 37.8243 60.7551C37.0695 60.0477 36.1105 59.5385 35.0567 59.2869C34.6334 59.1833 34.3315 59.1567 34.0622 59.136C33.6566 59.1005 33.337 59.0738 32.967 58.7956C32.2714 58.2746 32.2418 57.5109 32.2151 56.7709C32.1944 56.2263 32.1737 55.6639 31.8806 55.1933C31.4692 54.5332 30.5427 54.0359 29.3321 53.8346C28.9532 53.7725 28.5714 53.7399 28.1866 53.7399L28.1895 53.7429Z" fill="black"/>
<path d="M29.8027 56.4868C30.6285 56.3211 33.4524 55.7054 33.4968 54.7286C33.5412 53.7932 31.04 52.8224 28.965 52.6181C25.5581 52.2807 22.0416 53.8909 22.1452 54.8174C22.1925 55.2318 22.9829 55.6906 25.9281 56.0044" fill="#FFDC50"/>
<path d="M29.8589 56.7799L29.7434 56.1967C32.1055 55.7231 33.183 55.1104 33.2007 54.7138C33.2274 54.1129 31.1672 53.1331 28.9383 52.9111C26.2477 52.6447 23.4505 53.6423 22.6305 54.477C22.4855 54.625 22.4381 54.7345 22.4441 54.7819C22.4441 54.8055 22.5477 55.3443 25.9635 55.7083L25.9013 56.3003C22.4381 55.9333 21.9113 55.362 21.855 54.8499C21.8254 54.5924 21.9438 54.329 22.2073 54.0596C23.2314 53.0207 26.2684 52.0527 28.9975 52.3221C30.9955 52.5204 33.8549 53.4943 33.7957 54.7434C33.7572 55.5781 32.4341 56.2648 29.8618 56.7799H29.8589Z" fill="black"/>
<path d="M33.8344 58.8104C33.1151 58.8963 31.9637 59.1212 30.7264 59.8079C29.1665 60.6723 28.2578 61.8267 27.8197 62.4719" fill="#FFDC50"/>
<path d="M28.0684 62.6377L27.577 62.3061C28.3496 61.1636 29.3885 60.2105 30.5844 59.5504C31.5789 58.9998 32.6623 58.6505 33.8019 58.5173L33.87 59.1064C32.8073 59.2307 31.8009 59.5533 30.8715 60.0684C29.7585 60.6841 28.7877 61.5721 28.0684 62.6377Z" fill="black"/>
<path d="M30.4956 24.7349L25.1055 28.3135V54.2046C25.7004 54.4592 26.6831 54.7937 27.9382 54.8262C29.4034 54.8647 30.543 54.474 31.1675 54.2046C30.9426 44.3804 30.7176 34.5591 30.4927 24.7349H30.4956Z" fill="#A19085"/>
<path d="M28.1335 55.1193C28.0654 55.1193 28.0003 55.1193 27.9322 55.1193C26.9169 55.0926 25.9283 54.8765 24.99 54.474L24.8124 54.397V28.1566L30.7738 24.1991L31.4635 54.3941L31.2829 54.471C30.2913 54.8973 29.205 55.1193 28.1305 55.1193H28.1335ZM25.3985 54.0093C26.2154 54.3349 27.0709 54.5125 27.947 54.5332C28.9386 54.5598 29.945 54.3793 30.8745 54.0093L30.2173 25.2706L25.3985 28.4674V54.0093Z" fill="black"/>
<path d="M26.6771 60.0507C27.2277 59.6037 28.0861 59.0147 29.2494 58.5884C30.682 58.0615 31.9489 58.0112 32.7244 58.0408" fill="#FFDC50"/>
<path d="M26.8666 60.2815L26.4937 59.8197C27.2929 59.1715 28.1868 58.6624 29.1488 58.3101C30.3002 57.8869 31.5079 57.6945 32.7363 57.7448L32.7126 58.3368C31.5582 58.2953 30.4305 58.47 29.353 58.8666C28.4532 59.1981 27.6155 59.6747 26.8666 60.2815Z" fill="black"/>
<path d="M62.2297 23.1365L21.3876 42.1752L7.79829 32.9045C7.04053 32.3865 6.59949 31.5192 6.62909 30.6016L7.02277 18.3058C7.06717 16.9383 8.13277 15.8223 9.49437 15.7158L46.6986 12.7943C47.3291 12.7439 47.9566 12.9186 48.4716 13.2886L62.2327 23.1365H62.2297Z" fill="#D3C0B1"/>
<path d="M21.3609 42.5097L21.2248 42.415L7.63542 33.1443C6.79182 32.5671 6.30638 31.6139 6.33894 30.5927L6.73262 18.2969C6.77998 16.7784 7.95806 15.5441 9.47358 15.4257L46.6778 12.5042C47.3734 12.4479 48.072 12.6433 48.6433 13.0518L62.8098 23.1898L21.3669 42.5097H21.3609ZM46.9057 13.0784C46.8436 13.0784 46.7814 13.0784 46.7193 13.0843L9.51502 16.0059C8.29846 16.1006 7.35126 17.0922 7.31278 18.3147L6.9191 30.6105C6.89246 31.4334 7.28318 32.2 7.96102 32.6618L21.4142 41.8407L61.6525 23.0803L48.2969 13.5224C47.8885 13.2323 47.4001 13.0755 46.9028 13.0755L46.9057 13.0784Z" fill="black"/>
<path d="M61.1227 39.0554L22.0152 42.1249C21.1095 42.1959 20.3428 41.4648 20.3724 40.5561L20.7927 27.4522C20.8164 26.6766 21.4232 26.0432 22.1958 25.981L61.3033 22.9115C62.2091 22.8405 62.9757 23.5716 62.9461 24.4803L62.5258 37.5842C62.5021 38.3598 61.8953 38.9932 61.1227 39.0554Z" fill="#D3C0B1"/>
<path d="M21.8968 42.4209C21.4321 42.4209 20.9822 42.2433 20.6418 41.9177C20.2688 41.5625 20.0646 41.0622 20.0794 40.5472L20.4997 27.4433C20.5293 26.5168 21.2486 25.762 22.1721 25.691L61.2796 22.6214C61.7946 22.58 62.3038 22.7635 62.6767 23.1187C63.0497 23.4739 63.2539 23.9741 63.2391 24.4892L62.8188 37.5931C62.7892 38.5196 62.0699 39.2744 61.1464 39.3454L22.0389 42.4149C21.9915 42.4179 21.9442 42.4209 21.8968 42.4209ZM61.4217 23.1986C61.3891 23.1986 61.3566 23.1986 61.324 23.2016L22.2165 26.2711C21.589 26.3214 21.1006 26.8305 21.0798 27.461L20.6595 40.5649C20.6477 40.9142 20.7868 41.2546 21.0414 41.4974C21.2959 41.7401 21.6422 41.8644 21.9886 41.8348L61.0961 38.7653C61.7236 38.715 62.212 38.2058 62.2327 37.5754L62.653 24.4714C62.6649 24.1221 62.5258 23.7817 62.2712 23.539C62.0403 23.32 61.7354 23.1986 61.4187 23.1986H61.4217Z" fill="black"/>
<path d="M60.1311 39.0435L22.6782 41.9857L23.0837 29.2785C23.1015 28.7368 23.5248 28.2928 24.0665 28.2484L59.3822 25.4749C60.0157 25.4245 60.5514 25.9366 60.5307 26.573L60.1311 39.0465V39.0435Z" fill="#D3C0B1"/>
<path d="M22.3733 42.2995L22.7906 29.2666C22.8143 28.574 23.3501 28.0116 24.0427 27.9554L59.3585 25.1818C59.7403 25.1522 60.1222 25.2884 60.4034 25.5518C60.6846 25.8153 60.8355 26.1912 60.8237 26.576L60.4152 39.3099L22.3763 42.2966L22.3733 42.2995ZM59.4651 25.762C59.4443 25.762 59.4236 25.762 59.4029 25.762L24.0871 28.5355C23.6935 28.5681 23.3856 28.8878 23.3738 29.2814L22.9771 41.6631L59.8469 38.7682L60.2376 26.5582C60.2435 26.3362 60.1606 26.1261 59.9978 25.9722C59.8528 25.833 59.6634 25.759 59.4651 25.759V25.762Z" fill="black"/>
<path d="M25.9845 32.6054C26.8525 32.6054 27.5562 31.9017 27.5562 31.0337C27.5562 30.1656 26.8525 29.4619 25.9845 29.4619C25.1164 29.4619 24.4127 30.1656 24.4127 31.0337C24.4127 31.9017 25.1164 32.6054 25.9845 32.6054Z" fill="#FF3C18"/>
<path d="M25.9845 32.9015C25.9637 32.9015 25.943 32.9015 25.9223 32.9015C24.8922 32.8689 24.0812 32.0046 24.1137 30.9745C24.1285 30.4743 24.3387 30.0125 24.7028 29.6721C25.0669 29.3317 25.5375 29.1541 26.0407 29.166C26.5409 29.1808 27.0027 29.3909 27.3431 29.755C27.6835 30.1191 27.8641 30.5956 27.8493 31.0929C27.8345 31.5902 27.6243 32.0549 27.2602 32.3953C26.9109 32.7239 26.4581 32.9015 25.9815 32.9015H25.9845ZM25.9815 29.758C25.6559 29.758 25.3481 29.8793 25.1113 30.1043C24.8626 30.3381 24.7205 30.6519 24.7087 30.9923C24.685 31.6938 25.2385 32.2858 25.943 32.3065C26.2805 32.3184 26.609 32.194 26.8547 31.9632C27.1033 31.7293 27.2454 31.4156 27.2573 31.0752C27.2691 30.7348 27.1448 30.4092 26.9139 30.1635C26.6801 29.9148 26.3663 29.7728 26.0259 29.7609C26.0111 29.7609 25.9993 29.7609 25.9845 29.7609L25.9815 29.758Z" fill="black"/>
<path d="M34.8496 42.6045C38.6145 42.6045 41.6665 39.5524 41.6665 35.7876C41.6665 32.0227 38.6145 28.9707 34.8496 28.9707C31.0847 28.9707 28.0327 32.0227 28.0327 35.7876C28.0327 39.5524 31.0847 42.6045 34.8496 42.6045Z" fill="#A19085"/>
<path d="M34.8585 42.8945C34.7816 42.8945 34.7017 42.8945 34.6247 42.8916C30.7086 42.7672 27.6243 39.4787 27.7486 35.5596C27.8108 33.6623 28.6041 31.9011 29.9893 30.6016C31.3746 29.3022 33.1802 28.6244 35.0776 28.6806C36.9749 28.7428 38.7361 29.536 40.0356 30.9213C41.335 32.3066 42.0158 34.1122 41.9566 36.0096C41.8945 37.9069 41.0982 39.6681 39.7159 40.9676C38.3869 42.2137 36.6701 42.8916 34.8585 42.8916V42.8945ZM34.8467 29.2637C33.1832 29.2637 31.6085 29.8853 30.3889 31.0279C29.1191 32.2208 28.388 33.8369 28.3317 35.5774C28.2163 39.1738 31.049 42.193 34.6425 42.3055C36.3859 42.3617 38.0435 41.7342 39.3133 40.5443C40.5832 39.3514 41.3143 37.7352 41.3705 35.9948C41.4268 34.2543 40.7993 32.5937 39.6093 31.3239C38.4165 30.054 36.8003 29.3229 35.0598 29.2667C34.9888 29.2667 34.9177 29.2637 34.8467 29.2637Z" fill="black"/>
<path d="M35.9508 42.8087C39.7157 42.8087 42.7677 39.7567 42.7677 35.9918C42.7677 32.2269 39.7157 29.1749 35.9508 29.1749C32.1859 29.1749 29.1339 32.2269 29.1339 35.9918C29.1339 39.7567 32.1859 42.8087 35.9508 42.8087Z" fill="#D3C0B1"/>
<path d="M35.9568 43.0987C35.8798 43.0987 35.8029 43.0987 35.7229 43.0958C33.8256 43.0336 32.0644 42.2403 30.7649 40.855C29.4655 39.4698 28.7847 37.6642 28.8439 35.7668C28.9031 33.8694 29.6993 32.1082 31.0846 30.8088C32.4699 29.5094 34.2814 28.8315 36.1729 28.8878C40.0889 29.0121 43.1733 32.3006 43.0489 36.2197C42.9868 38.117 42.1935 39.8782 40.8082 41.1777C39.4792 42.4238 37.7624 43.1017 35.9509 43.1017L35.9568 43.0987ZM35.9449 29.4679C34.2814 29.4679 32.7067 30.0895 31.4872 31.2321C30.2173 32.425 29.4862 34.0411 29.43 35.7816C29.3737 37.5221 30.0013 39.1826 31.1912 40.4525C32.3811 41.7223 34.0002 42.4534 35.7407 42.5097C37.4841 42.5659 39.1417 41.9384 40.4116 40.7485C41.6814 39.5556 42.4125 37.9394 42.4688 36.199C42.5842 32.6026 39.7515 29.5834 36.1581 29.4709C36.087 29.4709 36.016 29.4679 35.9449 29.4679Z" fill="black"/>
<path d="M35.9508 40.7603C38.5844 40.7603 40.7194 38.6253 40.7194 35.9917C40.7194 33.3581 38.5844 31.2231 35.9508 31.2231C33.3172 31.2231 31.1823 33.3581 31.1823 35.9917C31.1823 38.6253 33.3172 40.7603 35.9508 40.7603Z" fill="black"/>
<path d="M58.5727 28.2602L44.5348 29.2369L44.5753 29.8187L58.6132 28.842L58.5727 28.2602Z" fill="black"/>
<path d="M58.5261 29.6918L44.8828 30.6674L44.9244 31.249L58.5677 30.2734L58.5261 29.6918Z" fill="black"/>
<path d="M58.4805 31.3058L45.1338 32.1946L45.1725 32.7764L58.5192 31.8876L58.4805 31.3058Z" fill="black"/>
<path d="M58.4292 32.8628L49.9161 33.4551L49.9566 34.0368L58.4697 33.4445L58.4292 32.8628Z" fill="black"/>
<path d="M58.3777 34.4209L50.1345 34.8702L50.1663 35.4525L58.4095 35.0032L58.3777 34.4209Z" fill="black"/>
<path d="M58.3291 35.9754L50.0859 36.4247L50.1177 37.0069L58.3609 36.5576L58.3291 35.9754Z" fill="black"/>
<path d="M8.10861 16.2909L7.76135 16.7593L21.0846 26.636L21.4319 26.1676L8.10861 16.2909Z" fill="black"/>
<path d="M30.6701 16.2071C30.5605 15.4227 29.6045 8.26242 31.0519 6.96002C31.5788 6.48642 32.0879 6.48938 32.0879 6.48938C32.8279 6.4953 33.3696 7.23234 33.6064 7.55794C35.0479 9.5293 34.5654 15.8874 34.5033 16.6363" fill="#FFFAF0"/>
<path d="M34.7934 16.6629L34.2132 16.6156C34.2695 15.9022 34.7371 9.60038 33.3696 7.73262C33.1624 7.44846 32.6799 6.78838 32.085 6.78246C32.0731 6.78246 31.6735 6.7943 31.2473 7.1791C30.1699 8.14702 30.5606 13.2856 30.9602 16.1686L30.383 16.2485C30.1195 14.3541 29.3795 8.07598 30.8595 6.74398C31.4634 6.19934 32.0702 6.19934 32.0939 6.19934C32.9819 6.20526 33.5857 7.03406 33.8462 7.38926C35.3055 9.38726 34.897 15.4671 34.7993 16.6629H34.7934Z" fill="black"/>
<path d="M33.3519 16.1835L33.2098 14.9995C33.1891 14.813 33.044 14.665 32.8605 14.6324C32.4639 14.5673 32.0672 14.5022 31.6735 14.4371C31.5255 14.4134 31.493 14.218 31.6232 14.144C32.899 13.407 33.3015 11.927 32.7954 11.039C32.3869 10.3256 31.3539 9.93786 30.2823 10.151L30.7441 16.1598C31.1023 16.0828 31.567 16.0207 32.1057 16.0295C32.5971 16.0384 33.0203 16.1035 33.3548 16.1805L33.3519 16.1835Z" fill="black"/>
<path d="M38.0376 16.2486C37.9281 15.4642 36.972 8.30392 38.4195 7.00152C38.9463 6.52792 39.4555 6.53088 39.4555 6.53088C40.1955 6.5368 40.7371 7.27384 40.9739 7.59944C42.4155 9.5708 41.933 15.9289 41.8708 16.6778" fill="#FFFAF0"/>
<path d="M42.1639 16.7044L41.5837 16.657C41.6399 15.9437 42.1076 9.64182 40.7401 7.77406C40.5329 7.4899 40.0504 6.82982 39.4555 6.8239C39.4436 6.8239 39.044 6.83574 38.6178 7.22054C37.5403 8.18846 37.9311 13.327 38.3307 16.2101L37.7535 16.29C37.49 14.3956 36.75 8.11742 38.23 6.78542C38.8339 6.24078 39.4407 6.24078 39.4614 6.24078C40.3494 6.2467 40.9532 7.0755 41.2137 7.42774C42.673 9.42574 42.2645 15.5056 42.1668 16.7044H42.1639Z" fill="black"/>
<path d="M40.7194 16.2249L40.5773 15.0409C40.5566 14.8544 40.4116 14.7064 40.2281 14.6739C39.8314 14.6087 39.4348 14.5436 39.0411 14.4785C38.8931 14.4548 38.8605 14.2595 38.9908 14.1855C40.2665 13.4484 40.6691 11.9684 40.1629 11.0804C39.7545 10.3671 38.7214 9.9793 37.6499 10.1924L38.1117 16.2012C38.4698 16.1243 38.9345 16.0621 39.4733 16.071C39.9646 16.0799 40.3879 16.145 40.7224 16.2219L40.7194 16.2249Z" fill="black"/>
<path d="M35.0775 17.1247C34.5891 16.7488 33.5235 16.0591 32.0317 16.0798C31.1318 16.0916 30.3889 16.358 29.8916 16.5919" fill="#D3C0B1"/>
<path d="M34.9 17.3556C34.3021 16.8968 33.3223 16.3462 32.0347 16.3699C31.3598 16.3788 30.679 16.5416 30.016 16.8524L29.7673 16.3225C30.5073 15.9762 31.2681 15.7957 32.0258 15.7838C32.0495 15.7838 32.0732 15.7838 32.0969 15.7838C33.5147 15.7838 34.5951 16.3817 35.2552 16.8909L34.9 17.3526V17.3556Z" fill="black"/>
<path d="M42.448 17.1662C41.9596 16.7903 40.894 16.1006 39.4022 16.1213C38.5023 16.1331 37.7594 16.3995 37.2621 16.6334" fill="#D3C0B1"/>
<path d="M42.2703 17.3971C41.6724 16.9383 40.6956 16.3877 39.4051 16.4114C38.7302 16.4203 38.0494 16.5831 37.3863 16.8939L37.1377 16.364C37.8777 16.0177 38.6384 15.8371 39.3962 15.8253C40.8436 15.8135 41.9536 16.4173 42.6255 16.9323L42.2703 17.3941V17.3971Z" fill="black"/>
<path d="M35.6843 15.55C35.7435 15.4967 36.2793 15.0291 37.0222 15.1771C37.0755 15.1889 37.7622 15.3339 38.0819 15.9644C38.4401 16.6689 38.1648 17.6309 37.4692 18.0631C36.7262 18.5219 35.8945 18.1371 35.8323 18.1075" fill="#D3C0B1"/>
<path d="M36.6553 18.581C36.1609 18.581 35.7702 18.4034 35.7051 18.3709L35.9597 17.847C35.9893 17.8618 36.6997 18.1992 37.3153 17.8174C37.8718 17.471 38.1086 16.6689 37.8215 16.1006C37.561 15.5885 36.9897 15.4701 36.9661 15.4671C36.3681 15.3487 35.9271 15.7276 35.8797 15.769L35.489 15.3369C35.6045 15.2333 36.2201 14.7242 37.0815 14.8958C37.1703 14.9136 37.9636 15.0912 38.3425 15.8401C38.7657 16.6778 38.4372 17.8114 37.6232 18.3176C37.2946 18.5218 36.9572 18.587 36.6553 18.587V18.581Z" fill="black"/>
<path d="M29.9628 20.6738C30.7353 21.177 33.3993 22.7694 36.8477 22.2426C38.5438 21.985 39.8196 21.3072 40.598 20.801" fill="#D3C0B1"/>
<path d="M35.4476 22.6422C32.8842 22.6422 30.8655 21.6091 29.8029 20.9194L30.1196 20.431C31.3036 21.2006 33.7456 22.4231 36.8003 21.9554C38.0879 21.7601 39.3104 21.2894 40.4381 20.5554L40.7549 21.0438C39.559 21.8222 38.2596 22.3225 36.8891 22.5297C36.3918 22.6066 35.9093 22.6392 35.4446 22.6392L35.4476 22.6422Z" fill="black"/>
<path d="M26.6387 17.7375C26.7926 17.6457 28.1986 16.8347 29.6579 17.4859C29.8592 17.5747 30.8212 18.0039 31.1941 19.0635C31.6085 20.2357 30.981 21.2747 30.83 21.5263C29.9746 22.9441 28.3407 23.1513 28.1187 23.175" fill="#D3C0B1"/>
<path d="M28.1513 23.4621L28.0862 22.8819C28.3703 22.8494 29.8207 22.6303 30.5814 21.3723C31.1646 20.4044 31.0876 19.6348 30.9189 19.1582C30.7058 18.5485 30.2144 18.0482 29.5395 17.7493C28.2253 17.1662 26.9318 17.9002 26.7897 17.9861L26.4907 17.4858C26.769 17.3201 28.2312 16.5268 29.7763 17.2165C30.5992 17.5835 31.2001 18.2022 31.4694 18.9629C31.6796 19.5578 31.7802 20.511 31.0787 21.6713C30.1789 23.1631 28.4798 23.4236 28.1483 23.4591L28.1513 23.4621Z" fill="black"/>
<path d="M38.9434 2.80423C38.905 2.74799 38.529 2.15007 38.7954 1.46927C38.9938 0.966067 39.4733 0.613827 40.0268 0.560547C40.6543 0.900947 41.3884 1.36567 42.1432 2.00207C43.1407 2.83975 43.857 3.70407 44.3514 4.40263C44.3158 4.60983 44.2093 5.05975 43.8482 5.48599C43.4042 6.00695 42.8566 6.16975 42.6582 6.22007C42.3445 5.67247 41.8235 4.90879 41.0066 4.16879C40.2458 3.48207 39.494 3.05879 38.9434 2.80127V2.80423Z" fill="#A19085"/>
<path d="M42.516 6.56048L42.4065 6.37104C41.9803 5.63104 41.4445 4.96504 40.8111 4.39376C40.2161 3.858 39.5472 3.414 38.819 3.0736L38.745 3.03808L38.7006 2.97C38.6503 2.89008 38.2063 2.17968 38.526 1.36864C38.7657 0.758877 39.3311 0.341517 40 0.276397L40.0888 0.267517L40.1658 0.308957C40.9354 0.726317 41.6636 1.2236 42.3325 1.78304C43.185 2.49936 43.9457 3.3252 44.591 4.23688L44.662 4.33456L44.6413 4.45296C44.588 4.76968 44.443 5.23736 44.073 5.67544C43.6083 6.22304 43.0311 6.43024 42.7292 6.50424L42.516 6.55752V6.56048ZM39.1476 2.57928C39.8964 2.93744 40.5861 3.40216 41.2018 3.95568C41.8234 4.51808 42.3592 5.16336 42.7943 5.87672C43.037 5.78792 43.3567 5.6192 43.629 5.29952C43.8747 5.0124 43.9901 4.70456 44.0434 4.47072C43.4425 3.63896 42.741 2.88416 41.9596 2.22704C41.3439 1.712 40.6779 1.2532 39.9734 0.862477C39.562 0.930557 39.2216 1.19696 39.0706 1.57584C38.896 2.01688 39.0676 2.41944 39.1505 2.57632L39.1476 2.57928Z" fill="black"/>
<path d="M28.1926 3.53532C27.793 3.90532 27.6479 4.4766 27.8255 4.98868C27.9972 5.48892 28.4501 5.84708 28.9799 5.90332C29.5986 5.62804 30.2883 5.35868 31.0519 5.113C32.156 4.76076 33.1772 4.53284 34.08 4.3878C34.1274 4.3286 34.5329 3.81356 34.3731 3.1298C34.2103 2.42532 33.5946 2.14412 33.5295 2.11452C32.8516 2.10564 31.9547 2.16188 30.9395 2.41348C29.7555 2.70652 28.829 3.1594 28.1896 3.53532H28.1926Z" fill="#A19085"/>
<path d="M29.0274 6.19933L28.9504 6.19045C28.3081 6.12237 27.7605 5.68725 27.5503 5.08045C27.3343 4.45885 27.5119 3.76621 27.9943 3.31925L28.0447 3.28077C28.9267 2.75981 29.8799 2.37205 30.8715 2.12637C31.7417 1.91029 32.6445 1.80965 33.5355 1.82149H33.5947L33.6479 1.84517C33.7841 1.90437 34.4708 2.23885 34.6603 3.06173C34.8438 3.86093 34.3998 4.45885 34.308 4.57133L34.237 4.65717L34.1275 4.67493C33.1181 4.83773 32.1117 5.07749 31.1408 5.38829C30.4482 5.61029 29.7615 5.87077 29.0984 6.16677L29.0274 6.19933ZM28.3703 3.76917C28.0713 4.06221 27.9647 4.49733 28.1009 4.89101C28.2282 5.26101 28.5538 5.53333 28.9386 5.60141C29.5957 5.31133 30.2765 5.05381 30.9632 4.83477C31.9252 4.52693 32.9168 4.28717 33.9143 4.11845C34.015 3.96453 34.1867 3.61821 34.089 3.19493C33.9765 2.71541 33.6035 2.47861 33.4615 2.40461C32.6356 2.39573 31.8098 2.49637 31.0106 2.69469C30.0841 2.92261 29.1961 3.28373 28.3703 3.76917Z" fill="black"/>
<path d="M9.73697 39.8073C10.0596 39.6978 10.7611 39.4107 11.2525 38.7032C11.7527 37.984 11.7823 37.2055 11.7912 36.8266C11.8208 35.6604 11.3324 35.314 11.6106 34.7457C11.8859 34.1863 12.6851 33.8488 13.3067 33.9998C14.2598 34.2277 14.7305 35.5804 14.618 36.5454C14.5055 37.4896 13.8691 37.7383 14.0023 38.5256C14.1326 39.31 14.9051 39.8902 15.0294 39.8103C15.1242 39.7511 14.7749 39.3515 14.9022 39.014C15.213 38.1823 18.3328 37.8951 19.4014 39.3485C19.6441 39.6771 19.9134 40.278 19.9401 40.941C19.9638 41.5004 19.795 41.5685 19.8631 42.0451C19.9815 42.8946 20.5558 43.0041 20.5321 43.6642C20.5173 44.0668 20.2864 44.5196 19.9401 44.7683C19.5938 45.0199 19.2593 44.9725 19.2208 45.1531C19.1764 45.3662 19.6234 45.4905 19.8631 45.9493C20.0674 46.343 20.017 46.787 19.9667 46.9528C19.6766 47.9148 16.8469 48.193 14.621 47.7756C13.6027 47.5832 11.6994 47.0564 9.68665 45.3336" fill="#FFFAF0"/>
<path d="M16.7226 48.261C15.9737 48.261 15.213 48.19 14.5648 48.0686C12.7681 47.7312 11.0128 46.8639 9.49133 45.5586L9.87613 45.1086C11.3177 46.343 12.9782 47.1658 14.6743 47.4855C17.0245 47.9295 19.4873 47.5122 19.6826 46.8698C19.7122 46.7692 19.7655 46.4051 19.5997 46.0914C19.508 45.9108 19.3659 45.7924 19.2416 45.6888C19.0758 45.5497 18.8716 45.375 18.9308 45.0968C18.987 44.8334 19.2209 44.7564 19.3955 44.7031C19.5109 44.6676 19.6412 44.6232 19.7685 44.5314C20.0319 44.339 20.2243 43.9809 20.2361 43.6553C20.245 43.4244 20.1562 43.3001 20.0082 43.0958C19.8425 42.8679 19.6382 42.5808 19.5701 42.0865C19.5287 41.7875 19.5642 41.6129 19.5997 41.4442C19.6293 41.311 19.653 41.1837 19.6441 40.9528C19.6175 40.346 19.3689 39.8014 19.1617 39.5231C18.5815 38.7328 17.2495 38.5226 16.2549 38.6588C15.5564 38.7565 15.2278 38.9844 15.1805 39.1176C15.1449 39.2094 15.213 39.3692 15.2633 39.4846C15.3196 39.6208 15.4409 39.899 15.1923 40.0589C15.1153 40.1092 14.9821 40.1506 14.7897 40.0618C14.476 39.9227 13.8366 39.3426 13.7093 38.57C13.6205 38.0431 13.8129 37.7057 13.9965 37.3801C14.1356 37.1344 14.2777 36.8828 14.3221 36.5069C14.4257 35.6248 13.9757 34.4615 13.2357 34.2869C12.7325 34.1655 12.0843 34.4467 11.8741 34.8759C11.7794 35.0683 11.812 35.2074 11.9037 35.533C11.9866 35.832 12.0991 36.2375 12.0843 36.8325C12.0754 37.2025 12.0517 38.0668 11.4923 38.8719C10.998 39.5794 10.3142 39.9227 9.82877 40.0885L9.63933 39.5261C10.0419 39.3899 10.6073 39.1058 11.0069 38.5315C11.4657 37.8714 11.4864 37.1344 11.4923 36.8177C11.5041 36.3115 11.4124 35.98 11.3325 35.6899C11.2348 35.3436 11.146 35.0121 11.3413 34.6125C11.6729 33.9376 12.6023 33.5232 13.3749 33.7097C14.5648 33.9968 15.0325 35.5597 14.9111 36.5779C14.8519 37.0752 14.6625 37.4067 14.5115 37.6761C14.3487 37.9662 14.2392 38.1556 14.2925 38.4753C14.3339 38.718 14.4493 38.9311 14.5766 39.1058C14.5825 39.0406 14.5944 38.9755 14.621 38.9104C14.843 38.3184 15.7784 38.126 16.1691 38.0727C17.3709 37.907 18.9071 38.1822 19.6353 39.1738C19.9017 39.5379 20.2006 40.1891 20.2332 40.9291C20.245 41.234 20.2065 41.4205 20.1769 41.5685C20.1473 41.7135 20.1266 41.8082 20.1533 42.0066C20.2036 42.3558 20.3397 42.5482 20.4848 42.7525C20.6505 42.9834 20.84 43.2468 20.8222 43.679C20.8045 44.1822 20.5173 44.7179 20.1089 45.0139C19.9342 45.1412 19.7655 45.2034 19.6323 45.2478C19.7803 45.3721 19.9786 45.5438 20.1207 45.819C20.3664 46.2926 20.3161 46.8106 20.245 47.0445C19.9786 47.9236 18.3713 48.264 16.7167 48.264L16.7226 48.261Z" fill="black"/>
<path d="M10.4948 41.228C10.1959 39.2063 9.8673 38.7535 9.61274 38.7387C9.07994 38.7031 8.44058 40.5739 8.27778 42.1871C8.03802 44.5728 8.7721 47.2072 9.53578 47.2427C9.7193 47.2516 9.85842 47.1066 10.0212 46.9379C10.9743 45.9463 10.5629 44.2561 10.4919 43.9867" fill="#FFFAF0"/>
<path d="M9.5536 47.5387C9.5536 47.5387 9.53288 47.5387 9.524 47.5387C9.31088 47.5298 9.11256 47.4144 8.92904 47.2042C8.22456 46.3873 7.7924 44.0755 7.9848 42.1574C8.1032 40.9823 8.67152 38.4426 9.60096 38.4426C9.6128 38.4426 9.62464 38.4426 9.63352 38.4426C10.0272 38.4693 10.4357 38.8185 10.7879 41.1865L10.2018 41.2724C9.93544 39.4727 9.66904 39.1116 9.59208 39.0435C9.32568 39.1974 8.7396 40.5709 8.5768 42.2166C8.3844 44.1554 8.84616 46.1978 9.37896 46.8165C9.45888 46.9112 9.524 46.9438 9.5536 46.9467C9.60392 46.9467 9.72232 46.8224 9.80816 46.7336C10.6251 45.8841 10.2847 44.3597 10.2078 44.0637L10.782 43.9157C10.9093 44.407 11.2467 46.0942 10.2374 47.145C10.0598 47.3315 9.85552 47.5417 9.5536 47.5417V47.5387Z" fill="black"/>
<path d="M13.582 30.9686C13.2209 30.9745 7.86628 31.1166 6.02812 34.6923C5.85644 35.0238 5.06316 36.6873 5.55156 38.4485C5.66404 38.8541 5.86532 39.5763 6.50468 40.0884C6.9694 40.4613 7.57916 40.6537 7.80412 40.7218C8.405 40.9083 8.49084 40.8106 8.775 40.9675C9.5298 41.3849 9.65116 42.4919 9.66892 42.705C9.77548 43.9512 8.9378 44.8421 8.775 45.0079C5.24668 43.7706 2.41396 41.1984 1.95812 38.1821C1.26548 33.6237 5.95708 27.7955 13.582 27.3456C13.7389 27.6949 13.9787 28.3401 13.9728 29.1837C13.9668 29.9948 13.7389 30.6193 13.582 30.9657V30.9686Z" fill="#A19085"/>
<path d="M8.85493 45.3454L8.68029 45.2832C4.87077 43.9483 2.11797 41.1777 1.67101 38.2266C1.35725 36.1575 2.10317 33.828 3.71933 31.83C5.98669 29.0299 9.57421 27.2894 13.5643 27.0555L13.7656 27.0437L13.8485 27.2272C14.1237 27.8399 14.2688 28.5178 14.2629 29.1867C14.2599 29.835 14.1149 30.4921 13.8485 31.0871L13.7715 31.2558H13.585C13.3601 31.2617 8.06461 31.3683 6.28565 34.8255C6.12877 35.1275 5.37397 36.7229 5.83277 38.3687C5.93933 38.7564 6.11989 39.4047 6.68525 39.8605C7.10853 40.1979 7.67389 40.3755 7.88701 40.4436C8.15637 40.5295 8.31029 40.5502 8.43461 40.565C8.58261 40.5857 8.72173 40.6035 8.91413 40.71C9.76661 41.1807 9.92645 42.3351 9.95605 42.6784C10.0656 43.9867 9.23677 44.9458 8.98221 45.2092L8.85197 45.3424L8.85493 45.3454ZM13.3956 27.6535C9.65117 27.9258 6.30045 29.5745 4.17517 32.2C2.66261 34.0707 1.95813 36.2345 2.24821 38.1407C2.65669 40.8343 5.17861 43.3829 8.69213 44.6705C8.97037 44.3449 9.45581 43.6345 9.37885 42.7317C9.36405 42.5393 9.25157 41.5655 8.63589 41.2251C8.53821 41.1718 8.48493 41.1629 8.36061 41.1451C8.22445 41.1274 8.03501 41.1007 7.71829 41.0031C7.47261 40.9261 6.83029 40.7248 6.32117 40.3163C5.60781 39.7451 5.38877 38.9518 5.27037 38.5255C4.77013 36.717 5.52493 35.0327 5.76765 34.5591C7.52885 31.1374 12.3448 30.7319 13.3867 30.6815C13.5761 30.2079 13.6768 29.6929 13.6797 29.1838C13.6827 28.6628 13.585 28.1389 13.3926 27.6535H13.3956Z" fill="black"/>
<path d="M16.9209 39.7451C16.6959 39.8428 16.2904 39.9819 15.7783 39.9582C15.4705 39.9434 15.2159 39.8754 15.0294 39.8102" fill="#FFFAF0"/>
<path d="M15.8908 40.2572C15.8494 40.2572 15.8079 40.2572 15.7665 40.2572C15.4823 40.2453 15.2041 40.1891 14.9318 40.0914L15.133 39.532C15.3462 39.6089 15.5682 39.6533 15.7931 39.6622C16.1335 39.677 16.4828 39.6119 16.8025 39.4728L17.0393 40.0174C16.6752 40.1743 16.2815 40.2572 15.8908 40.2572Z" fill="black"/>
</g>
<path d="M16.5812 39.5145C15.0281 39.5145 13.6192 40.4246 12.9806 41.8402L2.15352 65.8402C0.974168 68.4544 2.88614 71.4145 5.75409 71.4145H66.6187C68.1717 71.4145 69.5806 70.5045 70.2193 69.0888L81.0463 45.0888C82.2257 42.4746 80.3137 39.5145 77.4458 39.5145H16.5812Z" fill="#FFFBF2" stroke="black" stroke-width="1.5"/>
<mask id="path-92-outside-2_612_5389" maskUnits="userSpaceOnUse" x="0.55188" y="59.8645" width="75" height="13" fill="black">
<rect fill="white" x="0.55188" y="59.8645" width="75" height="13"/>
<path fill-rule="evenodd" clip-rule="evenodd" d="M72.657 61.8645L69.5371 68.7804C69.0197 69.9273 67.8783 70.6645 66.6201 70.6645H5.75555C3.43215 70.6645 1.88321 68.2665 2.83863 66.1486L4.77131 61.8645H72.657Z"/>
</mask>
<path fill-rule="evenodd" clip-rule="evenodd" d="M72.657 61.8645L69.5371 68.7804C69.0197 69.9273 67.8783 70.6645 66.6201 70.6645H5.75555C3.43215 70.6645 1.88321 68.2665 2.83863 66.1486L4.77131 61.8645H72.657Z" fill="#CBDF00"/>
<path d="M72.657 61.8645L74.0243 62.4813L74.9793 60.3645H72.657V61.8645ZM69.5371 68.7804L68.1698 68.1636V68.1636L69.5371 68.7804ZM2.83863 66.1486L4.20594 66.7654L2.83863 66.1486ZM4.77131 61.8645V60.3645H3.80243L3.404 61.2477L4.77131 61.8645ZM71.2897 61.2477L68.1698 68.1636L70.9044 69.3972L74.0243 62.4813L71.2897 61.2477ZM68.1698 68.1636C67.8949 68.7728 67.2885 69.1645 66.6201 69.1645V72.1645C68.468 72.1645 70.1445 71.0817 70.9044 69.3972L68.1698 68.1636ZM66.6201 69.1645H5.75555V72.1645H66.6201V69.1645ZM5.75555 69.1645C4.52124 69.1645 3.69837 67.8905 4.20594 66.7654L1.47133 65.5318C0.0680451 68.6424 2.34305 72.1645 5.75555 72.1645V69.1645ZM4.20594 66.7654L6.13861 62.4813L3.404 61.2477L1.47133 65.5318L4.20594 66.7654ZM4.77131 63.3645H72.657V60.3645H4.77131V63.3645Z" fill="black" mask="url(#path-92-outside-2_612_5389)"/>
<defs>
<clipPath id="clip0_612_5389">
<rect width="80.1657" height="71.3922" fill="white" transform="translate(1.59998 0.264526)"/>
</clipPath>
</defs>
</svg>
