<?xml version="1.0" encoding="UTF-8"?>
<svg id="Capa_2" xmlns="http://www.w3.org/2000/svg" viewBox="0 0 190.62 165.69">
  <defs>
    <style>
      .cls-1 {
        fill: #8adfff;
      }

      .cls-2 {
        fill: #1d1d1b;
      }

      .cls-3 {
        fill: #fffaf0;
      }

      .cls-4 {
        fill: #ff2c00;
      }

      .cls-5 {
        fill: #d3c0b1;
      }

      .cls-6 {
        fill: #c4e000;
      }

      .cls-7 {
        fill: #ad82ff;
      }

      .cls-8 {
        fill: #ff3c18;
      }

      .cls-9 {
        fill: #a19085;
      }

      .cls-10 {
        fill: #716c6c;
      }

      .cls-11 {
        fill: #ffdc50;
      }

      .cls-12 {
        fill: #ff63ff;
      }
    </style>
  </defs>
  <g id="Capa_1-2" data-name="Capa_1">
    <g>
      <g>
        <rect class="cls-5" x="1.46" y="109.61" width="187.69" height="16.91"/>
        <path d="M190.16,127.53H.46v-18.92h189.7v18.92ZM2.47,125.52h185.68v-14.91H2.47v14.91Z"/>
      </g>
      <g>
        <path class="cls-10" d="M1.46,126.52h187.69v26.38c0,6.5-5.28,11.78-11.78,11.78H13.25c-6.5,0-11.78-5.28-11.78-11.78v-26.38h0Z"/>
        <path d="M177.37,165.69H13.25c-7.05,0-12.79-5.74-12.79-12.79v-27.38h189.7v27.38c0,7.05-5.74,12.79-12.79,12.79ZM2.47,127.53v25.38c0,5.94,4.84,10.78,10.78,10.78h164.12c5.95,0,10.78-4.84,10.78-10.78v-25.38H2.47Z"/>
      </g>
      <g>
        <rect class="cls-10" x="17.31" y="141.69" width="156" height="10.87" rx="5.18" ry="5.18"/>
        <path d="M168.12,153.56H22.49c-3.41,0-6.19-2.78-6.19-6.19v-.5c0-3.41,2.77-6.19,6.19-6.19h145.63c3.41,0,6.19,2.78,6.19,6.19v.5c0,3.41-2.77,6.19-6.19,6.19ZM22.49,142.69c-2.3,0-4.18,1.88-4.18,4.18v.5c0,2.3,1.88,4.18,4.18,4.18h145.63c2.3,0,4.18-1.88,4.18-4.18v-.5c0-2.3-1.88-4.18-4.18-4.18H22.49Z"/>
      </g>
      <g>
        <path class="cls-5" d="M28.07,11.92h134.3c10.17,0,18.42,8.26,18.42,18.42v57.73H9.64V30.35c0-10.17,8.26-18.42,18.42-18.42Z"/>
        <path d="M181.79,89.08H8.64V30.35c0-10.71,8.71-19.43,19.43-19.43h134.3c10.71,0,19.43,8.72,19.43,19.43v58.74ZM10.64,87.08h169.14V30.35c0-9.61-7.82-17.42-17.42-17.42H28.07c-9.61,0-17.42,7.81-17.42,17.42v56.73Z"/>
      </g>
      <g>
        <polygon class="cls-5" points="189.15 109.61 1.46 109.61 9.83 88.06 180.79 88.06 189.15 109.61"/>
        <path d="M190.62,110.62H0l9.14-23.56h172.34l9.14,23.56ZM2.93,108.61h184.76l-7.58-19.55H10.51l-7.58,19.55Z"/>
      </g>
      <g>
        <rect class="cls-10" x="141.57" y="21.43" width="30.45" height="30.45" rx="14.69" ry="14.69"/>
        <path d="M157.34,52.89h-1.08c-8.65,0-15.69-7.04-15.69-15.69v-1.08c0-8.65,7.04-15.69,15.69-15.69h1.08c8.65,0,15.69,7.04,15.69,15.69v1.08c0,8.65-7.04,15.69-15.69,15.69ZM156.26,22.44c-7.55,0-13.68,6.14-13.68,13.68v1.08c0,7.54,6.14,13.68,13.68,13.68h1.08c7.54,0,13.68-6.14,13.68-13.68v-1.08c0-7.55-6.14-13.68-13.68-13.68h-1.08Z"/>
      </g>
      <g>
        <rect class="cls-10" x="18.66" y="21.77" width="31.84" height="13.15" rx="6.57" ry="6.57"/>
        <path d="M43.92,35.92h-18.69c-4.18,0-7.58-3.4-7.58-7.58s3.4-7.58,7.58-7.58h18.69c4.18,0,7.58,3.4,7.58,7.58s-3.4,7.58-7.58,7.58ZM25.23,22.77c-3.07,0-5.57,2.5-5.57,5.57s2.5,5.57,5.57,5.57h18.69c3.07,0,5.57-2.5,5.57-5.57s-2.5-5.57-5.57-5.57h-18.69Z"/>
      </g>
      <g>
        <rect class="cls-3" x="24.22" y="25.82" width="20.72" height="4.95" rx="2.47" ry="2.47"/>
        <path d="M42.46,31.77h-15.77c-1.92,0-3.48-1.56-3.48-3.48s1.56-3.48,3.48-3.48h15.77c1.92,0,3.48,1.56,3.48,3.48s-1.56,3.48-3.48,3.48ZM26.69,26.82c-.81,0-1.47.66-1.47,1.47s.66,1.47,1.47,1.47h15.77c.81,0,1.47-.66,1.47-1.47s-.66-1.47-1.47-1.47h-15.77Z"/>
      </g>
      <g>
        <path class="cls-10" d="M137.28,11.92H54.98l2.48-6.38c1.06-2.74,3.7-4.54,6.64-4.54h63.8c2.85,0,5.42,1.69,6.54,4.31l2.84,6.61Z"/>
        <path d="M138.81,12.93H53.52l3.01-7.75c1.22-3.15,4.2-5.18,7.57-5.18h63.8c3.25,0,6.18,1.93,7.46,4.92l3.44,8.01ZM56.45,10.92h79.31l-2.24-5.21c-.97-2.25-3.17-3.7-5.62-3.7h-63.8c-2.54,0-4.78,1.53-5.7,3.9l-1.95,5.01Z"/>
      </g>
      <g>
        <circle class="cls-9" cx="96.37" cy="55.68" r="33.91"/>
        <path d="M96.37,90.59c-19.25,0-34.92-15.66-34.92-34.92s15.66-34.92,34.92-34.92,34.92,15.66,34.92,34.92-15.66,34.92-34.92,34.92ZM96.37,22.77c-18.15,0-32.91,14.76-32.91,32.91s14.76,32.91,32.91,32.91,32.91-14.76,32.91-32.91-14.76-32.91-32.91-32.91Z"/>
      </g>
      <g>
        <circle class="cls-10" cx="96.37" cy="55.68" r="23.7"/>
        <path d="M96.37,80.38c-13.62,0-24.7-11.08-24.7-24.7s11.08-24.7,24.7-24.7,24.7,11.08,24.7,24.7-11.08,24.7-24.7,24.7ZM96.37,32.98c-12.51,0-22.69,10.18-22.69,22.69s10.18,22.69,22.69,22.69,22.69-10.18,22.69-22.69-10.18-22.69-22.69-22.69Z"/>
      </g>
      <g>
        <circle cx="96.37" cy="55.68" r="10.9"/>
        <path d="M96.37,67.58c-6.56,0-11.9-5.34-11.9-11.9s5.34-11.9,11.9-11.9,11.9,5.34,11.9,11.9-5.34,11.9-11.9,11.9ZM96.37,45.78c-5.46,0-9.9,4.44-9.9,9.9s4.44,9.9,9.9,9.9,9.9-4.44,9.9-9.9-4.44-9.9-9.9-9.9Z"/>
      </g>
      <g>
        <circle class="cls-3" cx="90.29" cy="50.96" r="7.58"/>
        <path d="M90.29,59.54c-4.73,0-8.59-3.85-8.59-8.59s3.85-8.59,8.59-8.59,8.59,3.85,8.59,8.59-3.85,8.59-8.59,8.59ZM90.29,44.38c-3.63,0-6.58,2.95-6.58,6.58s2.95,6.58,6.58,6.58,6.58-2.95,6.58-6.58-2.95-6.58-6.58-6.58Z"/>
      </g>
      <g>
        <circle class="cls-9" cx="156.8" cy="36.66" r="9.43"/>
        <path d="M156.8,47.09c-5.75,0-10.43-4.68-10.43-10.43s4.68-10.43,10.43-10.43,10.43,4.68,10.43,10.43-4.68,10.43-10.43,10.43ZM156.8,28.23c-4.65,0-8.43,3.78-8.43,8.43s3.78,8.43,8.43,8.43,8.43-3.78,8.43-8.43-3.78-8.43-8.43-8.43Z"/>
      </g>
      <g>
        <circle class="cls-3" cx="156.8" cy="36.66" r="5.21"/>
        <path d="M156.8,42.87c-3.43,0-6.22-2.79-6.22-6.22s2.79-6.22,6.22-6.22,6.22,2.79,6.22,6.22-2.79,6.22-6.22,6.22ZM156.8,32.45c-2.32,0-4.21,1.89-4.21,4.21s1.89,4.21,4.21,4.21,4.21-1.89,4.21-4.21-1.89-4.21-4.21-4.21Z"/>
      </g>
      <g>
        <circle class="cls-3" cx="32.79" cy="63.75" r="14.42"/>
        <path d="M32.79,79.17c-8.5,0-15.42-6.92-15.42-15.42s6.92-15.42,15.42-15.42,15.42,6.92,15.42,15.42-6.92,15.42-15.42,15.42ZM32.79,50.34c-7.4,0-13.42,6.02-13.42,13.42s6.02,13.42,13.42,13.42,13.42-6.02,13.42-13.42-6.02-13.42-13.42-13.42Z"/>
      </g>
      <g>
        <circle class="cls-8" cx="32.79" cy="63.75" r="9.48"/>
        <path d="M32.79,74.23c-5.78,0-10.48-4.7-10.48-10.48s4.7-10.48,10.48-10.48,10.48,4.7,10.48,10.48-4.7,10.48-10.48,10.48ZM32.79,55.28c-4.67,0-8.48,3.8-8.48,8.48s3.8,8.48,8.48,8.48,8.48-3.8,8.48-8.48-3.8-8.48-8.48-8.48Z"/>
      </g>
      <g>
        <rect class="cls-12" x="78.58" y="98.83" width="5.91" height="27.69"/>
        <path class="cls-2" d="M85.5,127.53h-7.92v-29.7h7.92v29.7ZM79.58,125.52h3.91v-25.68h-3.91v25.68Z"/>
      </g>
      <g>
        <rect class="cls-4" x="84.53" y="98.83" width="5.91" height="27.69"/>
        <path class="cls-2" d="M91.44,127.53h-7.92v-29.7h7.92v29.7ZM85.53,125.52h3.91v-25.68h-3.91v25.68Z"/>
      </g>
      <g>
        <rect class="cls-11" x="90.44" y="98.83" width="5.91" height="27.69"/>
        <path class="cls-2" d="M97.36,127.53h-7.92v-29.7h7.92v29.7ZM91.44,125.52h3.91v-25.68h-3.91v25.68Z"/>
      </g>
      <g>
        <rect class="cls-6" x="96.38" y="98.83" width="5.91" height="27.69"/>
        <path class="cls-2" d="M103.3,127.53h-7.92v-29.7h7.92v29.7ZM97.39,125.52h3.91v-25.68h-3.91v25.68Z"/>
      </g>
      <g>
        <rect class="cls-1" x="102.3" y="98.83" width="5.91" height="27.69"/>
        <path class="cls-2" d="M109.21,127.53h-7.92v-29.7h7.92v29.7ZM103.3,125.52h3.91v-25.68h-3.91v25.68Z"/>
      </g>
      <g>
        <rect class="cls-7" x="108.24" y="98.83" width="5.91" height="27.69"/>
        <path class="cls-2" d="M115.16,127.53h-7.92v-29.7h7.92v29.7ZM109.24,125.52h3.91v-25.68h-3.91v25.68Z"/>
      </g>
    </g>
  </g>
</svg>