<?xml version="1.0" encoding="UTF-8"?>
<svg id="Capa_2" xmlns="http://www.w3.org/2000/svg" viewBox="0 0 314.55 291.05">
  <defs>
    <style>
      .cls-1 {
        fill: #ff25ff;
      }

      .cls-2 {
        fill: #1d1d1b;
      }

      .cls-3 {
        fill: #fffaf0;
      }

      .cls-4 {
        fill: #00b155;
      }

      .cls-5 {
        fill: #d3c0b1;
      }

      .cls-6 {
        fill: #0077fb;
      }

      .cls-7 {
        fill: #a19085;
      }

      .cls-8 {
        fill: #ffdc50;
      }
    </style>
  </defs>
  <g id="Capa_1-2" data-name="Capa_1">
    <g>
      <g>
        <ellipse cx="188.05" cy="282.66" rx="35.34" ry="7.38"/>
        <path d="M188.05,291.05c-14.61,0-36.35-2.23-36.35-8.38s21.74-8.38,36.35-8.38,36.35,2.23,36.35,8.38-21.74,8.38-36.35,8.38ZM188.05,276.29c-20.96,0-34.34,3.78-34.34,6.38s13.38,6.38,34.34,6.38,34.34-3.78,34.34-6.38-13.38-6.38-34.34-6.38Z"/>
      </g>
      <g>
        <ellipse cx="132.39" cy="282.66" rx="35.34" ry="7.38"/>
        <path d="M132.39,291.05c-14.61,0-36.35-2.23-36.35-8.38s21.74-8.38,36.35-8.38,36.35,2.23,36.35,8.38-21.74,8.38-36.35,8.38ZM132.39,276.29c-20.96,0-34.34,3.78-34.34,6.38s13.38,6.38,34.34,6.38,34.34-3.78,34.34-6.38-13.38-6.38-34.34-6.38Z"/>
      </g>
      <g>
        <g>
          <path class="cls-3" d="M117.17,252.21c-.71.15-3.5.75-6.69,1.49-5.5,1.26-8.25,1.9-9.08,2.27-6.11,2.75-10.5,14.02-7.19,20.49,3.7,7.22,16.04,6.58,32.87,5.66,5.15-.28,27.86-1.86,29.51-9.63.08-.37,0-2.03-.15-5.35-.29-6.12-.43-9.18-.63-9.72-3.35-8.82-30.54-6.88-38.64-5.2Z"/>
          <path d="M112.59,283.66c-9.66,0-16.48-1.34-19.25-6.75-1.64-3.2-1.67-7.63-.09-12.15,1.61-4.6,4.51-8.22,7.75-9.68.92-.41,3.52-1.01,9.22-2.32,3.15-.72,5.99-1.34,6.75-1.5,4.56-.94,13.59-1.74,21.35-1.36,10.61.53,16.8,2.94,18.41,7.17.25.66.35,2.62.7,10.02.19,4.05.23,5.13.13,5.6-1.69,7.98-21.84,9.94-30.42,10.41-5.34.29-10.23.56-14.55.56ZM134.04,251.76c-7.08,0-13.71.8-16.68,1.42h0c-.76.16-3.58.77-6.67,1.48-5.1,1.17-8.16,1.88-8.9,2.21-2.72,1.22-5.28,4.49-6.7,8.54-1.39,3.96-1.39,7.92-.02,10.6,3.43,6.69,16.01,6,31.94,5.12,13.07-.72,27.45-3.42,28.6-8.85.05-.34-.04-2.34-.17-5.1-.25-5.35-.41-8.88-.58-9.43-1.26-3.32-7.18-5.42-16.66-5.89-1.39-.07-2.79-.1-4.18-.1Z"/>
        </g>
        <g>
          <path class="cls-1" d="M120.58,235.08c-2.5,4.02.16,9.21-3.42,11.89-1.74,1.3-3.07.6-6.69,1.49-2.16.51-6.17,1.79-9.81,5.2-4.63,4.34-8.81,12.29-6.46,17.56,3.26,7.29,17.71,6.49,32.87,5.66,5.15-.28,27.86-1.86,29.51-9.63.08-.37,0-2.03-.15-5.35-.19-4.01-.47-8.21-.63-9.72-.25-2.41-1.28-12.47-8.03-17.98-8.32-6.81-23.33-5.34-27.2.89Z"/>
          <path d="M113.25,278.38c-9.71,0-17.49-1.3-19.94-6.76-2.45-5.47,1.48-13.8,6.68-18.68,2.81-2.63,6.35-4.51,10.25-5.44,1.57-.38,2.72-.48,3.65-.56,1.21-.1,1.88-.16,2.68-.76,1.59-1.19,1.66-3.01,1.75-5.32.08-2,.16-4.26,1.43-6.3h0c1.69-2.72,5.32-4.73,9.97-5.5,5.36-.89,13.09-.21,18.69,4.36,3.21,2.62,7.27,7.98,8.38,18.62.16,1.5.45,5.66.64,9.8.19,4.05.23,5.12.13,5.6-1.69,7.97-21.83,9.94-30.42,10.41-4.81.26-9.54.52-13.89.52ZM121.42,235.6c-.99,1.59-1.06,3.5-1.13,5.33-.1,2.49-.19,5.07-2.53,6.82-1.25.93-2.32,1.03-3.69,1.14-.91.08-1.93.17-3.36.51-3.57.85-6.81,2.57-9.37,4.96-4.6,4.32-8.29,11.83-6.23,16.44,2.98,6.67,17.69,5.86,31.92,5.08,13.07-.72,27.45-3.43,28.6-8.85.05-.34-.04-2.34-.17-5.1-.19-4.1-.47-8.21-.63-9.66-1.04-10-4.75-14.93-7.67-17.32-4.2-3.43-10.92-4.98-17.12-3.95-4.09.68-7.23,2.35-8.62,4.59h0Z"/>
        </g>
        <g>
          <path class="cls-1" d="M128.46,239.98c-2.79-.56-12.33-2.64-12.48-5.94-.15-3.16,8.3-6.44,15.31-7.13,11.51-1.14,23.39,4.3,23.04,7.43-.16,1.4-2.83,2.95-12.78,4.01"/>
          <path d="M128.27,240.95c-8.68-1.74-13.14-4.05-13.27-6.87-.2-4.21,9.45-7.49,16.19-8.16,9.2-.91,19.47,2.36,22.92,5.87.89.9,1.29,1.79,1.19,2.65-.2,1.72-1.97,3.64-13.66,4.88l-.21-1.96c11.36-1.21,11.88-2.95,11.91-3.15.02-.17-.14-.54-.63-1.05-2.77-2.81-12.23-6.19-21.33-5.29-7.54.74-14.51,4.07-14.42,6.11.06,1.34,3.7,3.42,11.69,5.02l-.39,1.93Z"/>
        </g>
        <g>
          <path class="cls-1" d="M114.84,247.83c2.43.29,6.32,1.05,10.5,3.37,5.27,2.92,8.34,6.82,9.82,9"/>
          <path d="M134.33,260.75c-2.44-3.6-5.71-6.6-9.48-8.69-3.14-1.74-6.55-2.83-10.13-3.25l.23-1.96c3.84.45,7.5,1.62,10.86,3.48,4.03,2.23,7.54,5.45,10.15,9.31l-1.63,1.11Z"/>
        </g>
        <g>
          <path class="cls-7" d="M126.11,132.71l18.21,12.09v87.47c-2.01.86-5.33,1.99-9.57,2.1-4.95.13-8.8-1.19-10.91-2.1.76-33.19,1.52-66.37,2.28-99.56Z"/>
          <path d="M134.1,235.36c-3.63,0-7.3-.75-10.65-2.19l-.61-.26,2.33-102.01,20.14,13.37v88.65l-.6.26c-3.16,1.36-6.51,2.09-9.94,2.18-.22,0-.45,0-.67,0ZM124.84,231.61c3.13,1.24,6.55,1.86,9.89,1.77,2.96-.08,5.86-.67,8.62-1.77v-86.29l-16.28-10.8-2.22,97.09Z"/>
        </g>
        <g>
          <path class="cls-1" d="M139.01,252.02c-1.86-1.51-4.76-3.5-8.69-4.94-4.84-1.78-9.12-1.95-11.74-1.85"/>
          <path d="M138.39,252.79c-2.54-2.05-5.36-3.66-8.41-4.78-3.64-1.34-7.46-1.93-11.36-1.79l-.08-1.97c4.16-.17,8.24.48,12.12,1.91,3.25,1.19,6.26,2.91,8.97,5.1l-1.24,1.53Z"/>
        </g>
        <g>
          <path class="cls-3" d="M170.06,252.21c-.71.15-3.5.75-6.69,1.49-5.5,1.26-8.25,1.9-9.08,2.27-6.11,2.75-10.5,14.02-7.19,20.49,3.7,7.22,16.04,6.58,32.87,5.66,5.15-.28,27.86-1.86,29.51-9.63.08-.37,0-2.03-.15-5.35-.29-6.12-.43-9.18-.63-9.72-3.35-8.82-30.54-6.88-38.64-5.2Z"/>
          <path d="M165.49,283.66c-9.66,0-16.48-1.34-19.25-6.75-1.64-3.2-1.67-7.63-.09-12.15,1.61-4.6,4.51-8.22,7.75-9.68.92-.41,3.51-1.01,9.2-2.32,3.43-.79,6.16-1.38,6.77-1.5h0c4.56-.94,13.6-1.74,21.35-1.36,10.61.53,16.8,2.94,18.41,7.17.25.66.35,2.61.69,9.97.19,4.1.24,5.18.14,5.65-1.69,7.98-21.84,9.94-30.42,10.41-5.34.29-10.23.56-14.55.56ZM170.26,253.18c-.77.16-3.6.78-6.67,1.48-5.11,1.18-8.16,1.88-8.9,2.21-2.72,1.22-5.28,4.49-6.7,8.54-1.39,3.96-1.39,7.92-.02,10.6,3.43,6.69,16.01,6,31.94,5.12,13.07-.72,27.44-3.42,28.6-8.85.05-.34-.04-2.33-.17-5.1-.25-5.37-.42-8.89-.58-9.43-1.26-3.32-7.18-5.42-16.66-5.88-8.52-.42-17.31.58-20.85,1.32h0Z"/>
        </g>
        <g>
          <path class="cls-1" d="M173.48,235.08c-2.5,4.02.16,9.21-3.42,11.89-1.74,1.3-3.07.6-6.69,1.49-2.16.51-6.17,1.79-9.81,5.2-4.63,4.34-8.81,12.29-6.46,17.56,3.26,7.29,17.71,6.49,32.87,5.66,5.15-.28,27.86-1.86,29.51-9.63.08-.37,0-2.03-.15-5.35-.19-4.01-.47-8.21-.63-9.72-.25-2.41-1.28-12.47-8.03-17.98-8.32-6.81-23.33-5.34-27.2.89Z"/>
          <path d="M166.15,278.38c-9.71,0-17.49-1.3-19.94-6.76-2.45-5.47,1.48-13.8,6.68-18.68,2.81-2.63,6.35-4.51,10.25-5.44,1.56-.38,2.72-.48,3.65-.56,1.21-.1,1.88-.16,2.67-.76,1.59-1.19,1.66-3.01,1.75-5.32.08-2,.16-4.26,1.43-6.3h0c1.69-2.72,5.32-4.73,9.97-5.5,5.36-.89,13.09-.22,18.69,4.36,3.21,2.62,7.26,7.98,8.38,18.61.16,1.51.45,5.67.64,9.81.19,4.05.23,5.12.13,5.6-1.69,7.98-21.84,9.94-30.42,10.41-4.81.26-9.54.52-13.89.52ZM174.32,235.6c-.99,1.59-1.06,3.49-1.13,5.33-.09,2.49-.19,5.07-2.53,6.83-1.25.93-2.32,1.03-3.69,1.14-.91.08-1.93.17-3.36.51-3.57.85-6.81,2.57-9.37,4.96-4.6,4.32-8.29,11.83-6.23,16.44,2.98,6.67,17.69,5.86,31.92,5.08,13.07-.72,27.45-3.43,28.6-8.85.05-.34-.04-2.33-.17-5.09-.19-4.1-.47-8.21-.63-9.67-1.05-10-4.75-14.93-7.67-17.32-4.2-3.43-10.92-4.98-17.12-3.95-4.09.68-7.23,2.36-8.62,4.59h0Z"/>
        </g>
        <g>
          <path class="cls-1" d="M181.36,239.98c-2.79-.56-12.33-2.64-12.48-5.94-.15-3.16,8.3-6.44,15.31-7.13,11.51-1.14,23.39,4.3,23.04,7.43-.16,1.4-2.83,2.95-12.78,4.01"/>
          <path d="M181.17,240.95c-8.68-1.74-13.14-4.05-13.27-6.87-.2-4.21,9.45-7.49,16.19-8.16,9.2-.91,19.47,2.36,22.92,5.87.89.9,1.29,1.79,1.19,2.65-.2,1.72-1.97,3.64-13.66,4.88l-.21-1.96c11.36-1.21,11.88-2.95,11.91-3.15.02-.17-.14-.54-.63-1.05-2.77-2.81-12.23-6.19-21.33-5.29-7.54.74-14.51,4.07-14.42,6.11.06,1.34,3.7,3.42,11.69,5.02l-.39,1.93Z"/>
        </g>
        <g>
          <path class="cls-1" d="M167.74,247.83c2.43.29,6.32,1.05,10.5,3.37,5.27,2.92,8.34,6.82,9.82,9"/>
          <path d="M187.23,260.75c-2.44-3.6-5.71-6.6-9.48-8.69-3.14-1.74-6.55-2.83-10.13-3.25l.23-1.96c3.84.45,7.5,1.62,10.86,3.48,4.03,2.23,7.54,5.45,10.15,9.31l-1.63,1.11Z"/>
        </g>
        <g>
          <path class="cls-7" d="M179.01,132.71l18.21,12.09v87.47c-2.01.86-5.33,1.99-9.57,2.1-4.95.13-8.8-1.19-10.91-2.1.76-33.19,1.52-66.37,2.28-99.56Z"/>
          <path d="M187,235.36c-3.63,0-7.3-.75-10.65-2.19l-.61-.26,2.33-102.01,20.14,13.37v88.65l-.6.26c-3.16,1.36-6.51,2.09-9.94,2.18-.22,0-.45,0-.67,0ZM177.74,231.61c3.13,1.24,6.54,1.86,9.89,1.77,2.96-.08,5.86-.67,8.62-1.77v-86.29l-16.28-10.8-2.22,97.09Z"/>
        </g>
        <g>
          <path class="cls-1" d="M191.91,252.02c-1.86-1.51-4.76-3.5-8.69-4.94-4.84-1.78-9.12-1.95-11.74-1.85"/>
          <path d="M191.29,252.79c-2.53-2.05-5.36-3.66-8.4-4.78-3.64-1.34-7.46-1.94-11.36-1.79l-.08-1.97c4.16-.17,8.24.48,12.12,1.91,3.25,1.19,6.26,2.91,8.96,5.1l-1.24,1.53Z"/>
        </g>
        <g>
          <path class="cls-7" d="M39.41,96.35c.42.72,5.43,8.95,15.53,9.7,10.17.76,16.35-6.73,16.86-7.37.11,5.95.22,11.9.33,17.85-7.79,6.57-18.55,8.41-28,4.75-9.82-3.8-16.66-12.94-17.62-23.5,4.3-.48,8.6-.95,12.89-1.43Z"/>
          <path d="M54.11,124.12c-3.48,0-6.98-.63-10.33-1.93-10.1-3.91-17.26-13.46-18.25-24.33l-.09-.96,14.49-1.6.32.55c.51.87,5.24,8.51,14.76,9.22,9.6.72,15.39-6.21,16.02-7l1.71-2.14.39,21.06-.36.3c-5.33,4.49-11.96,6.84-18.66,6.84ZM27.6,98.64c1.24,9.73,7.78,18.19,16.89,21.71,8.98,3.48,19.14,1.83,26.65-4.29l-.27-14.95c-2.65,2.5-8.19,6.49-16,5.91-9.39-.7-14.57-7.5-15.97-9.64l-11.3,1.25Z"/>
        </g>
        <g>
          <path class="cls-5" d="M66.82,28.44c1,42.66-.53,85.7.47,128.36,63.03-.51,128.6-1.4,191.63-1.91-.03-42.98-.06-85.96-.09-128.93l-192.02,2.48Z"/>
          <path d="M66.33,157.8l-.02-.97c-.5-21.34-.37-43.14-.24-64.21.13-21.06.27-42.84-.24-64.15l-.02-1,194.01-2.5.09,130.91h-.98c-31.51.26-64.2.62-95.81.96s-64.3.7-95.82.95h-.97ZM67.82,29.41c.48,21.03.34,42.47.21,63.22-.13,20.74-.26,42.18.21,63.18,31.21-.25,63.56-.61,94.84-.95,31.29-.34,63.62-.69,94.84-.95l-.08-126.96-190.03,2.45Z"/>
        </g>
        <g>
          <polygon class="cls-6" points="78.19 40.05 78.65 144.29 247.04 142.71 246.69 39.2 78.19 40.05"/>
          <path d="M77.68,145.28l-.47-106.2,170.45-.86.36,105.46-170.34,1.6ZM79.17,41.02l.45,102.29,166.44-1.56-.34-101.57-166.54.84Z"/>
        </g>
        <g>
          <path class="cls-4" d="M246.29,116.95c-2.84-.94-7.1-2.52-11.96-5.11-13.07-6.95-15.78-13.32-21.94-17.02-17.34-10.44-35.65,16.08-58.07,8.8-16.72-5.43-15.01-22.93-36.14-34.89-13.91-7.88-28.76-8.28-39.32-7.31-.07,27.63-.14,55.25-.22,82.88l168.39-1.58-.74-25.76Z"/>
          <path class="cls-2" d="M77.66,145.29l.22-84.78.89-.08c15.3-1.4,28.72,1.1,39.89,7.44,10.79,6.11,15.73,13.63,20.08,20.25,4.22,6.42,7.86,11.96,15.87,14.56,10.72,3.48,20.47-1.03,29.9-5.39,9.85-4.56,19.16-8.86,28.37-3.31,2.48,1.49,4.38,3.36,6.58,5.51,3.31,3.25,7.43,7.29,15.32,11.48,3.77,2,7.74,3.7,11.81,5.04l.66.22.79,27.46-170.39,1.6ZM79.85,62.31l-.21,80.98,166.38-1.56-.69-24.07c-3.94-1.34-7.79-3.01-11.46-4.95-8.14-4.33-12.37-8.48-15.77-11.82-2.11-2.07-3.93-3.86-6.21-5.23-8.32-5.01-17.17-.92-26.53,3.41-9.32,4.31-19.89,9.19-31.34,5.48-8.67-2.82-12.49-8.63-16.91-15.35-4.23-6.44-9.03-13.74-19.41-19.62-10.61-6.01-23.33-8.45-37.85-7.27Z"/>
        </g>
        <g>
          <polygon class="cls-8" points="86.76 100.26 100.53 100.46 100.06 112.44 86.4 112.22 86.76 100.26"/>
          <path d="M101,113.44l-15.62-.25.42-13.93,15.75.23-.55,13.95ZM87.41,111.25l11.7.19.4-10.01-11.79-.17-.3,10Z"/>
        </g>
        <g>
          <polygon class="cls-8" points="87.63 77.72 101.4 77.92 100.93 89.9 87.27 89.68 87.63 77.72"/>
          <path d="M101.87,90.9l-15.62-.25.42-13.93,15.75.23-.55,13.95ZM88.28,88.71l11.7.19.4-10.01-11.79-.17-.3,10Z"/>
        </g>
        <g>
          <polygon class="cls-8" points="88.18 54.5 101.96 54.7 101.48 66.69 87.82 66.47 88.18 54.5"/>
          <path d="M102.43,67.69l-15.62-.25.42-13.93,15.75.23-.55,13.95ZM88.84,65.5l11.7.19.4-10.01-11.79-.17-.3,10Z"/>
        </g>
        <g>
          <path class="cls-5" d="M150.02,156.31l-.07,9.96c-6.48.99-15.13,2.57-25.24,5.16-8.64,2.21-9.09,2.78-9.09,3.16.05,2.62,23.27,5,44.52,4.6,19.4-.36,41-3.11,40.98-5.54,0-.68-1.7-1.16-8.64-2.7-10.61-2.35-19.6-4.1-26.39-5.34-.34-3.14-.68-6.28-1.03-9.41l-15.04.12Z"/>
          <path d="M155.47,180.21c-17.7,0-37.48-1.75-40.29-4.46-.44-.42-.54-.86-.54-1.15-.02-1.14.35-1.71,9.83-4.13,8.1-2.07,16.34-3.77,24.51-5.05l.07-10.09,16.9-.14,1.04,9.57c8.48,1.56,17.13,3.32,25.7,5.22,7.91,1.75,9.39,2.13,9.41,3.65,0,.93.03,2.67-14.06,4.53-8.16,1.08-18.58,1.83-27.88,2-1.54.03-3.1.04-4.69.04ZM117.08,174.69c3.65,1.77,22.56,3.89,43.04,3.51,19.41-.36,36.16-2.81,39.55-4.46-1.41-.5-4.8-1.25-7.4-1.83-8.8-1.95-17.66-3.74-26.35-5.34l-.72-.13-1.01-9.26-13.18.11-.07,9.83-.83.13c-8.37,1.28-16.83,3.01-25.15,5.14-4.86,1.24-6.96,1.93-7.88,2.31Z"/>
        </g>
        <g>
          <path class="cls-3" d="M283.45,172.58c.05.02-.66,1.58-1.18,3.23-.77,2.45-1.21,3.81-.67,5.06.74,1.72,3.05,2.52,4.8,2.68,3.03.27,4.19-1.94,6.58-1.12,1.28.44,1.37,1.22,3.01,1.67,1.6.44,2.98.12,3.46,0,1.79-.43,2.95-1.44,3.52-1.94,1.85-1.64,1.67-2.74,2.95-3.19,1.54-.54,2.53.9,3.79.56,3.23-.86,3.76-8.54,3.79-9.04.39-6.36-1.81-18.59-11.82-22.19-6.9-2.48-13.12.71-13.85,1.1-1,.87-2.51,2.18-4.36,3.75-4.26,3.62-4,3.29-4.43,3.73-3.9,4.05-4.17,9.6-4.35,13.53-.18,3.85.52,5.11,1.24,5.83.95.95,2.58,1.52,3.97,1.09,2.55-.79,3.45-4.78,3.53-4.75Z"/>
          <path d="M297.69,185.32c-.58,0-1.25-.07-1.96-.26-1.09-.3-1.65-.75-2.1-1.11-.32-.25-.55-.44-.97-.58-.85-.29-1.43-.07-2.47.38-.97.42-2.19.94-3.89.79-2.02-.18-4.7-1.15-5.62-3.27-.42-.97-.39-1.93-.13-3.13-.12.05-.24.09-.36.13-1.63.51-3.67-.04-4.96-1.33-.87-.87-1.73-2.34-1.53-6.57.19-3.92.47-9.85,4.63-14.17.21-.22.28-.28.7-.62.47-.38,1.43-1.17,3.8-3.18,1.85-1.57,3.35-2.87,4.36-3.74l.18-.13c1.2-.64,7.56-3.7,14.65-1.15,10.74,3.86,12.85,16.85,12.47,23.18-.09,1.48-.72,8.92-4.52,9.93-.91.24-1.68-.08-2.3-.34-.61-.26-.98-.4-1.42-.24-.34.12-.46.29-.81.84-.35.55-.83,1.29-1.81,2.16-.56.5-1.88,1.66-3.94,2.16-.32.08-1.05.26-2,.26ZM291.93,181.27c.43,0,.88.07,1.37.24.74.25,1.18.6,1.56.91.39.31.69.55,1.4.75,1.37.38,2.57.09,2.96,0,1.59-.39,2.61-1.29,3.1-1.73.78-.69,1.14-1.25,1.46-1.75.41-.63.82-1.28,1.81-1.63,1.19-.42,2.15-.02,2.85.28.47.2.78.32,1.02.25,1.91-.51,2.89-5.27,3.07-8.15.35-5.82-1.53-17.74-11.17-21.2-6.14-2.21-11.67.32-12.96.99-1.01.87-2.48,2.15-4.29,3.68-2.38,2.03-3.36,2.82-3.83,3.2-.32.26-.37.29-.53.46-3.65,3.78-3.9,9.05-4.08,12.89-.19,3.94.62,4.74.96,5.09.65.65,1.92,1.17,2.97.84,1.09-.34,2.03-1.63,2.78-3.84.12-.36.24-.69.65-.87l.4-.17.4.18h0c.88.4.55,1.22.26,1.94-.02.05-.04.1-.06.16-.05.14-.11.3-.18.46-.21.54-.46,1.2-.67,1.87-.76,2.4-1.08,3.5-.7,4.37.53,1.24,2.44,1.95,3.98,2.09,1.2.11,2.04-.25,2.93-.64.74-.32,1.55-.67,2.51-.67Z"/>
        </g>
        <g>
          <path class="cls-3" d="M295.99,173.07c.1.82.36,3.75-1.54,6.46-1.03,1.47-2.29,2.3-3.07,2.73"/>
          <path d="M291.86,183.13l-.95-1.73c1.1-.6,2.04-1.44,2.73-2.43,1.59-2.28,1.49-4.8,1.37-5.78l1.96-.24c.18,1.49.21,4.41-1.71,7.15-.87,1.24-2.04,2.29-3.4,3.03Z"/>
        </g>
        <g>
          <path class="cls-3" d="M305.87,172.75c.23.35,1.07,1.7.85,3.56-.22,1.86-1.34,2.98-1.65,3.27"/>
          <path d="M305.74,180.3l-1.35-1.44c.35-.33,1.18-1.24,1.34-2.66.17-1.42-.43-2.51-.69-2.9l1.64-1.09c.38.58,1.25,2.15,1,4.22-.24,2.07-1.45,3.4-1.96,3.87Z"/>
        </g>
        <g>
          <path class="cls-3" d="M301.47,155.78c.54-.19,3.7-1.36,4.8-4.48.53-1.52.57-3.49-.22-4.91-3-5.38-19.03-4.91-22.27,1.54-.06.12-1.28,2.65-.15,5.08,1.27,2.73,5.01,4.27,9.48,3.77"/>
          <path d="M291.42,157.85c-4.08,0-7.39-1.65-8.69-4.43-1.35-2.89.11-5.81.17-5.94,2.06-4.1,8.19-5.67,12.81-5.77,4.22-.09,9.4.96,11.2,4.2,1.04,1.86.83,4.17.29,5.72-1.18,3.37-4.43,4.75-5.4,5.09l-.65-1.86c.76-.27,3.3-1.34,4.2-3.88.49-1.41.43-3.06-.15-4.1-1.12-2-4.9-3.28-9.44-3.19-4.39.09-9.53,1.58-11.09,4.69-.01.02-1.08,2.2-.14,4.22,1.1,2.36,4.5,3.65,8.47,3.2l.22,1.96c-.61.07-1.21.1-1.79.1Z"/>
        </g>
        <g>
          <path class="cls-7" d="M254.65,121.44c3.62.11,10.84.85,18.12,5.5,12.54,8,15.48,21.32,16.02,24.03.69.41,3.27,1.8,6.64,1.22,3.79-.65,5.84-3.31,6.26-3.89-.58-4.16-3.22-19.38-16.69-31.37-11.56-10.29-24.37-12.21-28.92-12.68-.96,1.12-2.41,3.14-3.11,6.01-1.36,5.51,1.02,10.03,1.68,11.19Z"/>
          <path d="M293.82,153.31c-2.64,0-4.67-.99-5.52-1.49l-.38-.22-.09-.43c-.92-4.63-4.29-16.18-15.58-23.39-6.54-4.17-13.19-5.21-17.62-5.35l-.55-.02-.27-.48c-.99-1.74-3.14-6.39-1.78-11.91.57-2.32,1.72-4.54,3.32-6.41l.33-.39.51.05c6.32.65,18.55,3.2,29.48,12.93,12.92,11.51,16.2,26.19,17.01,31.97l.06.4-.24.32c-.78,1.06-3.02,3.61-6.89,4.27-.62.11-1.22.15-1.79.15ZM289.67,150.33c1.04.53,3.1,1.32,5.6.89,2.83-.49,4.59-2.21,5.39-3.19-.87-5.82-4.16-19.55-16.31-30.36-10.22-9.1-21.63-11.67-27.85-12.38-1.25,1.57-2.11,3.31-2.58,5.21-1.09,4.4.39,8.18,1.32,9.99,4.67.21,11.41,1.4,18.06,5.63,11.58,7.39,15.27,19.07,16.36,24.22Z"/>
        </g>
        <path d="M283.47,175.32l-1.78-.84c.4-.84.64-1.72.73-2.63.18-1.79-.29-3.28-.72-4.22l1.79-.82c.76,1.66,1.07,3.47.89,5.23-.11,1.13-.42,2.23-.91,3.27Z"/>
        <g>
          <path class="cls-3" d="M42.31,94.91c-1.33,4.35-7.7,5.3-9.08,5.51-1.13.17-7.83,1.17-9.89-2.45-.68-1.2-.65-2.54-.48-3.53-2.53-1.17-5.95-3.21-8.49-6.87-1.54-2.2-1.26-2.85-2.65-5.51-4.35-8.31-11.2-9.97-10.71-13.97.11-.91.65-2.29,2.95-3.81-.16-.26-1.22-2.04-.52-4.03.66-1.9,2.65-3.2,4.92-3.14-.16-.47-1.33-4.07.5-5.95,1.34-1.38,3.59-1.09,4.75-.95,7.54.94,17.61,9.95,20.5,12.6-1.8-7.74-.68-14.38,2.8-16.45,2.79-1.65,5.2-.92,5.2-.92.31.09,2.09.64,2.96,2.24.67,1.23.51,2.56-1.43,8.87-1.21,3.94-1.59,4.86-1.25,6.34.45,1.95,1.63,2.64,2.78,4.16,3.64,4.78,2.37,11.62,1.94,13.97-.94,5.09-3.44,8.6-4.84,10.3.25.87.47,2.18.05,3.57Z"/>
          <path d="M29.99,101.66c-2.87,0-6.05-.65-7.5-3.2-.56-.98-.79-2.14-.69-3.44-3.48-1.72-6.25-4.03-8.24-6.89-.95-1.37-1.26-2.19-1.62-3.15-.25-.65-.53-1.39-1.09-2.47-2.09-3.99-4.78-6.39-6.95-8.32-2.33-2.08-4.17-3.71-3.86-6.23.18-1.45,1.07-2.79,2.67-4-.39-.93-.76-2.42-.19-4.04.67-1.93,2.47-3.34,4.59-3.71-.35-1.6-.54-4.11,1.06-5.75,1.69-1.73,4.31-1.4,5.58-1.24,6.17.77,13.81,6.51,18.86,10.9-1.04-6.99.36-12.57,3.81-14.61,3.12-1.85,5.88-1.05,5.99-1.01.74.23,2.58.94,3.54,2.72.86,1.59.64,3.12-1.35,9.63l-.36,1.17c-.92,2.97-1.11,3.64-.87,4.67.26,1.13.8,1.72,1.55,2.55.32.36.69.76,1.05,1.24,3.9,5.13,2.56,12.37,2.12,14.75-.86,4.65-2.99,8.14-4.74,10.35.29,1.28.26,2.49-.08,3.62h0c-.99,3.24-4.4,5.38-9.87,6.19-.96.14-2.15.27-3.39.27ZM8.21,58.09c-1.76,0-3.33,1.01-3.84,2.48-.53,1.51.27,2.92.43,3.19l.5.81-.8.52c-1.54,1.01-2.38,2.06-2.51,3.1-.17,1.42.98,2.53,3.22,4.52,2.16,1.93,5.13,4.57,7.38,8.88.62,1.19.92,1.98,1.19,2.69.34.9.59,1.55,1.4,2.72,1.91,2.74,4.63,4.94,8.1,6.54l.68.32-.12.74c-.19,1.15-.07,2.12.36,2.88,1.6,2.81,7.21,2.21,8.89,1.96,4.6-.69,7.54-2.4,8.28-4.82h0c.28-.91.26-1.92-.06-3.01l-.14-.5.33-.4c1.65-2,3.8-5.33,4.63-9.85.4-2.17,1.62-8.76-1.75-13.19-.31-.41-.63-.76-.94-1.1-.81-.89-1.64-1.8-2.01-3.43-.36-1.58-.04-2.62.91-5.69l.36-1.16c1.84-5.99,1.98-7.23,1.5-8.11-.61-1.13-1.87-1.61-2.38-1.77-.08-.02-2.07-.57-4.41.82-3.06,1.82-4.02,8.14-2.34,15.38l.72,3.12-2.35-2.17c-3.72-3.43-13.11-11.49-19.95-12.35-1.02-.13-2.92-.37-3.92.66-1.41,1.44-.4,4.59-.28,4.95l.45,1.34-1.41-.04s-.08,0-.12,0Z"/>
        </g>
        <g>
          <path class="cls-3" d="M36.52,63.68c-.43.1-4.91,1.24-6.59,5.49-1.45,3.66-.2,8.08,3.17,10.8"/>
          <path d="M32.48,80.74c-3.65-2.95-5.08-7.85-3.47-11.93,1.85-4.68,6.73-5.96,7.28-6.09l.46,1.92c-.45.11-4.42,1.15-5.9,4.89-1.3,3.28-.12,7.26,2.87,9.67l-1.24,1.53Z"/>
        </g>
        <g>
          <path class="cls-3" d="M26.74,67.22c-1.26.68-3.04,1.85-4.75,3.74-2.12,2.35-3.15,4.75-3.66,6.23"/>
          <path d="M19.27,77.51l-1.87-.64c.84-2.45,2.14-4.66,3.86-6.57,1.43-1.59,3.12-2.91,5.01-3.94l.94,1.73c-1.69.92-3.2,2.11-4.49,3.53-1.54,1.71-2.71,3.69-3.46,5.89Z"/>
        </g>
        <g>
          <path class="cls-3" d="M8.36,57.11c1.96.62,4.23,1.53,6.63,2.87,4.73,2.66,7.96,5.92,9.98,8.35"/>
          <path d="M24.2,68.96c-2.75-3.31-6.02-6.05-9.7-8.12-2.04-1.14-4.2-2.08-6.44-2.79l.6-1.88c2.37.75,4.66,1.74,6.81,2.95,3.9,2.19,7.35,5.07,10.25,8.58l-1.52,1.26Z"/>
        </g>
        <g>
          <path class="cls-3" d="M3.96,64.28c2.19,1.07,4.54,2.35,6.98,3.88,3.33,2.08,6.2,4.23,8.61,6.25"/>
          <path d="M18.92,75.17c-2.69-2.25-5.55-4.32-8.51-6.17-2.22-1.39-4.53-2.67-6.89-3.83l.87-1.77c2.42,1.18,4.79,2.5,7.07,3.93,3.04,1.9,5.97,4.03,8.72,6.33l-1.26,1.51Z"/>
        </g>
        <g>
          <path class="cls-3" d="M180.6,53.86c.37-2.65,3.6-26.84-1.29-31.24-1.78-1.6-3.5-1.59-3.5-1.59-2.5.02-4.33,2.51-5.13,3.61-4.87,6.66-3.24,28.14-3.03,30.67"/>
          <path d="M166.67,55.4c-.33-4.05-1.71-24.59,3.22-31.33.87-1.2,2.92-3.99,5.92-4.02.07,0,2.12,0,4.17,1.84,5,4.5,2.49,25.71,1.61,32.11l-1.95-.27c1.35-9.74,2.67-27.1-.97-30.37-1.45-1.3-2.79-1.34-2.84-1.34-2,.01-3.63,2.25-4.33,3.21-4.62,6.32-3.04,27.61-2.85,30.01l-1.96.16Z"/>
        </g>
        <path d="M171.54,53.78l.48-4c.07-.63.56-1.13,1.18-1.24,1.34-.22,2.68-.44,4.01-.66.5-.08.61-.74.17-.99-4.31-2.49-5.67-7.49-3.96-10.49,1.38-2.41,4.87-3.72,8.49-3l-1.56,20.3c-1.21-.26-2.78-.47-4.6-.44-1.66.03-3.09.25-4.22.51Z"/>
        <g>
          <path class="cls-3" d="M155.71,54c.37-2.65,3.6-26.84-1.29-31.24-1.78-1.6-3.5-1.59-3.5-1.59-2.5.02-4.33,2.51-5.13,3.61-4.87,6.66-3.24,28.14-3.03,30.67"/>
          <path d="M141.78,55.54c-.33-4.05-1.71-24.59,3.22-31.33.87-1.2,2.92-3.99,5.92-4.02.08,0,2.12,0,4.16,1.84,5,4.5,2.49,25.71,1.61,32.11l-1.95-.27c1.35-9.74,2.67-27.1-.97-30.37-1.45-1.3-2.79-1.34-2.84-1.34-2,.01-3.63,2.25-4.33,3.21-4.62,6.32-3.04,27.61-2.85,30.01l-1.96.16Z"/>
        </g>
        <path d="M146.65,53.92l.48-4c.07-.63.56-1.13,1.18-1.24,1.34-.22,2.68-.44,4.01-.66.5-.08.61-.74.17-.99-4.31-2.49-5.67-7.49-3.96-10.49,1.38-2.41,4.87-3.72,8.49-3l-1.56,20.3c-1.21-.26-2.78-.47-4.6-.44-1.66.03-3.09.25-4.22.51Z"/>
        <g>
          <path class="cls-6" d="M165.71,56.96c1.65-1.27,5.25-3.6,10.29-3.53,3.04.04,5.55.94,7.23,1.73"/>
          <path d="M166.3,57.73l-1.19-1.55c2.26-1.74,5.99-3.82,10.9-3.73,2.56.04,5.13.65,7.63,1.82l-.83,1.77c-2.24-1.05-4.54-1.6-6.83-1.63-4.33-.08-7.66,1.78-9.68,3.33Z"/>
        </g>
        <g>
          <path class="cls-6" d="M140.81,57.1c1.65-1.27,5.25-3.6,10.29-3.53,3.04.04,5.55.94,7.23,1.73"/>
          <path d="M141.41,57.87l-1.19-1.55c2.26-1.74,5.96-3.8,10.9-3.73,2.56.04,5.13.65,7.63,1.82l-.83,1.77c-2.24-1.05-4.54-1.6-6.83-1.63-4.35-.06-7.67,1.78-9.68,3.33Z"/>
        </g>
        <g>
          <path class="cls-6" d="M163.67,51.64c-.2-.18-2.01-1.76-4.52-1.26-.18.04-2.5.53-3.58,2.66-1.21,2.38-.28,5.63,2.07,7.09,2.51,1.55,5.32.25,5.53.15"/>
          <path d="M160.38,61.87c-1.01,0-2.15-.22-3.26-.91-2.75-1.7-3.86-5.53-2.42-8.35,1.28-2.53,3.96-3.12,4.26-3.18,2.9-.58,4.98,1.14,5.37,1.49l-1.31,1.45c-.16-.15-1.65-1.43-3.68-1.03-.08.02-2.02.42-2.9,2.15-.98,1.93-.18,4.64,1.71,5.81,2.08,1.29,4.49.15,4.59.1l.85,1.75c-.22.11-1.54.71-3.21.71Z"/>
        </g>
        <g>
          <path class="cls-6" d="M182.99,68.95c-2.61,1.7-11.61,7.08-23.26,5.3-5.73-.87-10.04-3.16-12.67-4.87"/>
          <path d="M164.46,75.59c-1.57,0-3.19-.11-4.88-.37-4.63-.71-9.02-2.4-13.06-5.02l1.06-1.64c3.8,2.47,7.94,4.06,12.29,4.73,10.32,1.57,18.58-2.55,22.58-5.15l1.06,1.64c-3.59,2.33-10.41,5.82-19.06,5.82Z"/>
        </g>
        <g>
          <path class="cls-6" d="M194.22,59.03c-.52-.31-5.27-3.05-10.2-.85-.68.3-3.93,1.75-5.19,5.33-1.4,3.96.72,7.47,1.23,8.32,2.89,4.79,8.41,5.49,9.16,5.57"/>
          <path d="M189.12,78.36c-1.12-.12-6.85-.99-9.89-6.04-2.37-3.92-2.02-7.14-1.31-9.14.9-2.56,2.93-4.66,5.71-5.9,5.22-2.33,10.16.35,11.1.91l-1,1.67c-.48-.29-4.86-2.78-9.3-.8-2.29,1.02-3.94,2.71-4.67,4.76-.57,1.61-.83,4.22,1.14,7.49,2.57,4.26,7.48,5,8.44,5.1l-.21,1.94Z"/>
        </g>
        <g>
          <path class="cls-7" d="M152.66,8.58c.13-.19,1.4-2.21.5-4.51-.67-1.7-2.29-2.89-4.16-3.07-2.12,1.15-4.6,2.72-7.15,4.87-3.37,2.83-5.79,5.75-7.46,8.11.12.7.48,2.22,1.7,3.66,1.5,1.76,3.35,2.31,4.02,2.48,1.06-1.85,2.82-4.43,5.58-6.93,2.57-2.32,5.11-3.75,6.97-4.62Z"/>
          <path d="M140.59,21.27l-.72-.18c-1.02-.25-2.97-.95-4.54-2.8-1.26-1.48-1.74-3.07-1.92-4.13l-.07-.4.24-.33c2.18-3.08,4.75-5.87,7.63-8.29,2.26-1.9,4.72-3.57,7.32-4.98l.26-.14.3.03c2.26.22,4.17,1.63,4.98,3.69,1.08,2.74-.41,5.14-.59,5.41l-.15.23-.25.12c-2.46,1.15-4.72,2.65-6.73,4.46-2.14,1.93-3.95,4.18-5.39,6.69l-.37.64ZM135.43,14.22c.19.79.58,1.83,1.4,2.8.91,1.08,2,1.65,2.82,1.95,1.47-2.41,3.28-4.59,5.38-6.49,2.08-1.88,4.41-3.44,6.94-4.65.29-.53.86-1.89.27-3.38-.51-1.28-1.66-2.18-3.05-2.41-2.38,1.31-4.63,2.86-6.71,4.61-2.65,2.22-5.01,4.77-7.04,7.58Z"/>
        </g>
        <g>
          <path class="cls-7" d="M188.97,11.05c1.35,1.25,1.84,3.18,1.24,4.91-.58,1.69-2.11,2.9-3.9,3.09-2.09-.93-4.42-1.84-7-2.67-3.73-1.19-7.18-1.96-10.23-2.45-.16-.2-1.53-1.94-.99-4.25.55-2.38,2.63-3.33,2.85-3.43,2.29-.03,5.32.16,8.75,1.01,4,.99,7.13,2.52,9.29,3.79Z"/>
          <path d="M186.16,20.05l-.24-.11c-2.24-.99-4.56-1.88-6.9-2.63-3.28-1.05-6.68-1.86-10.09-2.41l-.37-.06-.24-.29c-.31-.38-1.81-2.4-1.19-5.1.64-2.77,2.96-3.91,3.42-4.11l.18-.08h.2c3.01-.03,6.06.31,9,1.03,3.35.83,6.56,2.14,9.55,3.9l.17.13c1.64,1.52,2.23,3.85,1.5,5.95-.71,2.05-2.56,3.52-4.73,3.75l-.26.03ZM169.64,13.03c3.38.56,6.73,1.38,9.97,2.42,2.32.74,4.62,1.61,6.84,2.59,1.3-.23,2.39-1.14,2.83-2.4.46-1.33.1-2.81-.91-3.79-2.79-1.63-5.79-2.85-8.92-3.63-2.71-.67-5.51-1-8.28-.98-.48.25-1.74,1.05-2.12,2.67-.33,1.43.26,2.6.59,3.12Z"/>
        </g>
        <g>
          <path class="cls-6" d="M132.77,76.35c.58.18,5.84,1.7,10.11-1.6.59-.46,3.4-2.63,3.77-6.41.41-4.18-2.48-7.08-3.17-7.78-3.95-3.96-9.47-3.33-10.23-3.23"/>
          <path d="M136.4,77.84c-1.92,0-3.42-.4-3.91-.56l.57-1.87c.54.17,5.38,1.54,9.22-1.44,1.98-1.53,3.19-3.57,3.4-5.74.17-1.7-.2-4.29-2.89-7-3.51-3.52-8.45-3.08-9.41-2.95l-.25-1.93c1.12-.15,6.89-.67,11.04,3.51,3.23,3.25,3.66,6.45,3.45,8.57-.27,2.71-1.74,5.22-4.15,7.09-2.37,1.83-4.98,2.32-7.08,2.32Z"/>
        </g>
      </g>
    </g>
  </g>
</svg>