<?xml version="1.0" encoding="UTF-8"?>
<svg id="Capa_2" xmlns="http://www.w3.org/2000/svg" viewBox="0 0 146.67 143.57">
  <defs>
    <style>
      .cls-1 {
        fill: #fffaf0;
      }

      .cls-2 {
        fill: #0f55cb;
      }

      .cls-3 {
        fill: #d3c0b1;
      }

      .cls-4 {
        fill: #0077fb;
      }
    </style>
  </defs>
  <g id="Capa_1-2" data-name="Capa_1">
    <g>
      <g>
        <path class="cls-2" d="M27.92,58.77c5.41-18.73,10.83-37.46,16.24-56.19l92.04,4.84,9.43,20.34c-2.02,11.47-3.83,23.41-5.37,35.8-3.4,27.35-5,55.17-5.38,78.98-40.85-1.11-82.72-2.21-123.57-3.32l-10.23-9.8c.21-2.57,3.1-4.22,3.76-4.64,5.14-3.25,12.53-18.35,23.07-66Z"/>
        <path d="M135.87,143.57l-1.01-.03c-20.41-.55-41.08-1.11-61.75-1.66-20.69-.55-41.38-1.11-61.81-1.66h-.39S.04,129.81.04,129.81l.04-.48c.24-2.94,3.15-4.74,4.11-5.33l.12-.07c6.3-3.99,13.92-25.98,22.63-65.37l.02-.06L43.42,1.54l93.44,4.92,9.81,21.17-.05.31c-2.08,11.83-3.89,23.86-5.37,35.75-3.9,31.34-5.07,60.19-5.37,78.87l-.02,1.01ZM11.73,138.23c20.31.55,40.87,1.1,61.43,1.65,20.33.54,40.66,1.09,60.74,1.63.33-18.75,1.53-47.21,5.37-78.07,1.47-11.82,3.26-23.77,5.33-35.54l-9.04-19.51L44.9,3.63l-16.01,55.39c-8.95,40.47-16.64,62.26-23.51,66.6l-.13.08c-.69.43-2.66,1.65-3.09,3.35l9.57,9.17Z"/>
      </g>
      <g>
        <path class="cls-4" d="M15.13,1.05l18.09.96,92.39,4.88,8.3,18.93c-2.08,10.15-3.95,20.81-5.5,31.98-3.78,27.17-5.02,52.35-4.79,74.95-40.85-1.11-81.69-2.21-122.54-3.32,2.13-27.18,4.85-55.13,8.26-83.81,1.8-15.1,3.73-29.96,5.79-44.56Z"/>
        <path d="M124.63,133.77L0,130.39l.08-1.05c2.18-27.88,4.96-56.09,8.27-83.85,1.76-14.81,3.71-29.81,5.79-44.58l.13-.91,19.01,1,93,4.91,8.68,19.79-.06.31c-2.16,10.54-4.01,21.28-5.49,31.92-3.43,24.64-5.04,49.81-4.78,74.8v1.04ZM2.17,128.44l120.44,3.26c-.2-24.75,1.42-49.66,4.81-74.06,1.47-10.58,3.3-21.25,5.45-31.73l-7.92-18.07L16,2.1c-2.03,14.46-3.93,29.13-5.66,43.62-3.26,27.39-6.01,55.21-8.18,82.72Z"/>
      </g>
      <g>
        <polygon class="cls-3" points="29.03 35.81 113.39 41.29 116.24 6.39 33.22 2 29.03 35.81"/>
        <path d="M114.31,42.35l-86.41-5.61L32.34.95l84.98,4.49-3,36.91ZM30.16,34.88l82.32,5.34,2.68-32.89L34.1,3.06l-3.94,31.82Z"/>
      </g>
      <g>
        <polygon class="cls-2" points="89 10.17 109.01 11.49 107.26 34.5 87.32 33 89 10.17"/>
        <path d="M108.18,35.57l-21.94-1.65,1.83-24.82,22.02,1.45-1.91,25.02ZM88.39,32.07l17.94,1.35,1.6-21-18.01-1.18-1.53,20.83Z"/>
      </g>
      <g>
        <path class="cls-1" d="M26.78,44.44l86.67,5.67c-1.24,9.48-2.33,19.29-3.22,29.42-1.63,18.5-2.44,36.13-2.65,52.77-29.93-.81-59.86-1.62-89.79-2.43.1-13.46.82-28.26,2.54-44.15,1.62-14.95,3.88-28.75,6.46-41.28Z"/>
        <path d="M108.56,133.33l-91.79-2.49v-.98c.12-14.73.97-29.61,2.55-44.25,1.5-13.83,3.67-27.75,6.47-41.37l.18-.86.87.06,87.73,5.74-.14,1.06c-1.27,9.72-2.36,19.6-3.22,29.37-1.54,17.44-2.43,35.17-2.64,52.7v1.02ZM18.79,128.89l87.79,2.38c.24-17.24,1.12-34.68,2.64-51.83.83-9.45,1.87-18.99,3.09-28.4l-84.73-5.55c-2.7,13.29-4.81,26.85-6.27,40.33-1.54,14.24-2.39,28.73-2.53,43.07Z"/>
      </g>
      <g>
        <rect class="cls-3" x="112.97" y="117.96" width="5.63" height="6.79" transform="translate(5.16 -4.72) rotate(2.39)"/>
        <path d="M119.42,125.91l-7.63-.32.37-8.79,7.63.32-.37,8.79ZM113.87,123.67l3.62.15.2-4.78-3.62-.15-.2,4.78Z"/>
      </g>
      <g>
        <rect class="cls-3" x="6.92" y="116.92" width="5.63" height="6.79" transform="translate(5.02 -.3) rotate(2.39)"/>
        <path d="M13.37,124.86l-7.63-.32.37-8.79,7.63.32-.37,8.79ZM7.83,122.62l3.62.15.2-4.78-3.62-.15-.2,4.78Z"/>
      </g>
      <g>
        <polygon class="cls-2" points="33.22 2 54.1 3.11 50.98 37.24 29.03 35.81 33.22 2"/>
        <path d="M51.89,38.3l-23.98-1.56L32.34.95l22.85,1.21-3.3,36.14ZM30.16,34.88l19.91,1.29,2.94-32.12-18.9-1-3.94,31.82Z"/>
      </g>
      <g>
        <polygon class="cls-3" points="29.03 139.7 113.44 141.96 107.57 132.3 17.78 129.87 29.03 139.7"/>
        <path d="M115.26,143.02l-86.61-2.32-13.62-11.9,93.12,2.52,7.11,11.7ZM29.42,138.71l82.21,2.21-4.63-7.62-86.46-2.34,8.88,7.76Z"/>
      </g>
    </g>
  </g>
</svg>