<svg width="98" height="78" viewBox="0 0 98 78" fill="none" xmlns="http://www.w3.org/2000/svg">
<mask id="path-1-outside-1_612_5174" maskUnits="userSpaceOnUse" x="10.6" y="24.5968" width="72" height="54" fill="black">
<rect fill="white" x="10.6" y="24.5968" width="72" height="54"/>
<path fill-rule="evenodd" clip-rule="evenodd" d="M15.8 26.5968C14.0327 26.5968 12.6 28.0295 12.6 29.7968V37.7842C12.6 37.7884 12.6 37.7926 12.6 37.7968V72.9968C12.6 74.7641 14.0326 76.1968 15.7999 76.1968H77.4C79.1673 76.1968 80.6 74.7641 80.6 72.9968V37.7968C80.6 36.0295 79.1673 34.5968 77.4 34.5968H51.7434L47.8756 28.1504C47.2973 27.1866 46.2556 26.5968 45.1316 26.5968H15.8Z"/>
</mask>
<path fill-rule="evenodd" clip-rule="evenodd" d="M15.8 26.5968C14.0327 26.5968 12.6 28.0295 12.6 29.7968V37.7842C12.6 37.7884 12.6 37.7926 12.6 37.7968V72.9968C12.6 74.7641 14.0326 76.1968 15.7999 76.1968H77.4C79.1673 76.1968 80.6 74.7641 80.6 72.9968V37.7968C80.6 36.0295 79.1673 34.5968 77.4 34.5968H51.7434L47.8756 28.1504C47.2973 27.1866 46.2556 26.5968 45.1316 26.5968H15.8Z" fill="#FFFBF2"/>
<path d="M12.6 37.7842L14.1 37.79V37.7842H12.6ZM51.7434 34.5968L50.4572 35.3685L50.8941 36.0968H51.7434V34.5968ZM47.8756 28.1504L46.5893 28.9222V28.9222L47.8756 28.1504ZM14.1 29.7968C14.1 28.8579 14.8611 28.0968 15.8 28.0968V25.0968C13.2042 25.0968 11.1 27.2011 11.1 29.7968H14.1ZM14.1 37.7842V29.7968H11.1V37.7842H14.1ZM14.1 37.7968C14.1 37.7945 14.1 37.7922 14.1 37.79L11.1 37.7784C11.1 37.7845 11.1 37.7907 11.1 37.7968H14.1ZM14.1 72.9968V37.7968H11.1V72.9968H14.1ZM15.7999 74.6968C14.8611 74.6968 14.1 73.9357 14.1 72.9968H11.1C11.1 75.5925 13.2042 77.6968 15.7999 77.6968V74.6968ZM77.4 74.6968H15.7999V77.6968H77.4V74.6968ZM79.1 72.9968C79.1 73.9357 78.3388 74.6968 77.4 74.6968V77.6968C79.9957 77.6968 82.1 75.5925 82.1 72.9968H79.1ZM79.1 37.7968V72.9968H82.1V37.7968H79.1ZM77.4 36.0968C78.3388 36.0968 79.1 36.8579 79.1 37.7968H82.1C82.1 35.2011 79.9957 33.0968 77.4 33.0968V36.0968ZM51.7434 36.0968H77.4V33.0968H51.7434V36.0968ZM46.5893 28.9222L50.4572 35.3685L53.0296 33.8251L49.1618 27.3787L46.5893 28.9222ZM45.1316 28.0968C45.7287 28.0968 46.2821 28.4101 46.5893 28.9222L49.1618 27.3787C48.3124 25.963 46.7825 25.0968 45.1316 25.0968V28.0968ZM15.8 28.0968H45.1316V25.0968H15.8V28.0968Z" fill="black" mask="url(#path-1-outside-1_612_5174)"/>
<g clip-path="url(#clip0_612_5174)">
<path d="M85.2389 34.0006C85.1016 34.237 83.4723 36.9109 80.1882 37.1569C76.8817 37.4029 74.8691 34.9686 74.703 34.7609C74.6678 36.6969 74.6327 38.6297 74.5975 40.5656C77.1309 42.7028 80.6322 43.3002 83.7023 42.1086C86.8938 40.8723 89.1204 37.9013 89.4335 34.4638C88.0342 34.3105 86.6382 34.154 85.2389 34.0006Z" fill="#AD82FF"/>
<path d="M80.4596 43.0352C78.2777 43.0352 76.1213 42.2717 74.3898 40.8085L74.2716 40.7095L74.3962 33.8633L74.9521 34.5598C75.1565 34.8185 77.0446 37.0676 80.1625 36.8344C83.2614 36.6043 84.7948 34.1189 84.9609 33.8378L85.0663 33.6589L89.7784 34.1796L89.7497 34.4927C89.4302 38.0292 87.1013 41.1344 83.814 42.4058C82.7247 42.8275 81.5874 43.032 80.4565 43.032L80.4596 43.0352ZM74.9169 40.4156C77.3576 42.4058 80.6641 42.9393 83.584 41.8084C86.5455 40.6616 88.6731 37.911 89.0788 34.7482L85.405 34.3425C84.9481 35.039 83.2677 37.2497 80.2105 37.4765C77.6771 37.6618 75.8721 36.3647 75.0096 35.5533L74.9201 40.4156H74.9169Z" fill="black"/>
<path d="M84.2931 33.5343C84.7244 34.9496 86.7977 35.2594 87.245 35.3265C87.6123 35.3808 89.7911 35.7067 90.462 34.5311C90.6856 34.1413 90.6728 33.7036 90.6185 33.381C91.4395 33.0008 92.5513 32.3363 93.3819 31.1479C93.8802 30.4323 93.7908 30.2215 94.2444 29.3557C95.6597 26.6562 97.8863 26.1131 97.7266 24.8129C97.6915 24.5158 97.5158 24.0654 96.7682 23.5734C96.8193 23.4871 97.1644 22.9089 96.9375 22.2636C96.7203 21.647 96.075 21.2221 95.337 21.2413C95.3881 21.088 95.7683 19.9155 95.1741 19.3053C94.7364 18.8581 94.0048 18.9507 93.6279 18.9955C91.1744 19.3021 87.8999 22.2284 86.9606 23.0942C87.5452 20.5768 87.1811 18.4172 86.0502 17.7463C85.1429 17.2096 84.3602 17.4492 84.3602 17.4492C84.2611 17.4812 83.6797 17.6569 83.3986 18.1776C83.1814 18.577 83.2325 19.0082 83.8618 21.0624C84.2548 22.3435 84.3793 22.6438 84.2675 23.1261C84.1238 23.7619 83.7372 23.9855 83.3634 24.4807C82.1814 26.0333 82.5935 28.2599 82.7341 29.0235C83.0408 30.6815 83.8522 31.8188 84.3091 32.3715C84.226 32.6558 84.1557 33.0807 84.2931 33.5343Z" fill="#FFFAF0"/>
<path d="M88.3024 35.729C87.8967 35.729 87.5133 35.6907 87.2003 35.6428C85.4208 35.3776 84.3091 34.6812 83.9896 33.6269C83.8778 33.2596 83.8682 32.8634 83.9641 32.4481C83.3954 31.7293 82.7022 30.5952 82.4243 29.0809C82.2805 28.3046 81.846 25.9502 83.1143 24.2858C83.2325 24.1292 83.3507 23.9983 83.4561 23.8832C83.6989 23.6149 83.8746 23.4232 83.9609 23.0558C84.0376 22.7204 83.9769 22.5032 83.6766 21.5384L83.5584 21.1582C82.9098 19.0402 82.8396 18.545 83.1175 18.0275C83.4178 17.4716 83.9673 17.2352 84.2676 17.1425C84.3059 17.1298 85.2004 16.8678 86.2163 17.4716C87.3376 18.1361 87.7913 19.9506 87.4558 22.2252C89.1011 20.7972 91.5833 18.9315 93.5896 18.6792C94.0017 18.628 94.8547 18.5226 95.4041 19.0817C95.9249 19.6152 95.8642 20.433 95.7492 20.9506C96.4392 21.072 97.0238 21.5288 97.2411 22.1581C97.4263 22.6884 97.305 23.1708 97.1772 23.4711C97.6947 23.8673 97.9854 24.3017 98.0429 24.7746C98.142 25.5924 97.5446 26.1259 96.7874 26.8C96.0846 27.4261 95.2061 28.2056 94.5288 29.5058C94.3435 29.8572 94.2541 30.0968 94.1742 30.3077C94.056 30.6176 93.9538 30.8859 93.6471 31.33C92.9986 32.2596 92.1009 33.0104 90.9668 33.5694C90.9987 33.9911 90.9252 34.3681 90.7431 34.6876C90.2703 35.5182 89.2353 35.729 88.3024 35.729ZM84.8139 17.7176C84.5998 17.7176 84.4625 17.7559 84.4497 17.7591C84.2867 17.8102 83.8778 17.9668 83.6798 18.3341C83.5232 18.6217 83.5711 19.0242 84.1685 20.9729L84.2867 21.3499C84.5966 22.3498 84.6989 22.6853 84.5838 23.1996C84.4625 23.7299 84.1909 24.027 83.9289 24.3177C83.8267 24.4295 83.7245 24.5445 83.6223 24.6755C82.5265 26.1163 82.9226 28.2599 83.0504 28.9659C83.322 30.4387 84.0216 31.5185 84.5583 32.1702L84.6669 32.3012L84.619 32.4641C84.5168 32.8187 84.5104 33.1477 84.5998 33.4448C84.8394 34.2307 85.7946 34.7898 87.2929 35.0134C88.7529 35.2307 89.8327 34.9911 90.1841 34.3745C90.3246 34.1253 90.3662 33.8122 90.3023 33.4385L90.2607 33.1957L90.4844 33.0934C91.6121 32.5727 92.497 31.8603 93.1168 30.969C93.3819 30.5888 93.4618 30.378 93.5704 30.0873C93.6567 29.8572 93.7557 29.5985 93.957 29.2151C94.6917 27.8127 95.6533 26.9533 96.3593 26.3272C97.0845 25.6786 97.4615 25.3208 97.4072 24.8576C97.3656 24.5158 97.0909 24.1772 96.5893 23.8481L96.3306 23.6788L96.4935 23.4136C96.5478 23.3274 96.8066 22.8673 96.6341 22.3754C96.4616 21.8834 95.9344 21.5448 95.3434 21.5671L94.8834 21.5799L95.0304 21.1454C95.0687 21.0304 95.3977 20.0049 94.9409 19.5385C94.6151 19.2063 93.9985 19.2829 93.6662 19.3245C91.4396 19.6024 88.3855 22.2252 87.1779 23.3402L86.4144 24.0462L86.6508 23.0335C87.1971 20.679 86.884 18.6249 85.8905 18.0338C85.4688 17.7847 85.0822 17.7272 84.8171 17.7272L84.8139 17.7176Z" fill="black"/>
<path d="M86.178 23.3785C86.3185 23.4104 87.7753 23.781 88.3184 25.1643C88.788 26.3559 88.3823 27.7935 87.2865 28.6784" fill="#FFFAF0"/>
<path d="M87.4907 28.9275L87.0882 28.4292C88.0594 27.6465 88.4459 26.3526 88.0242 25.2824C87.5418 24.0653 86.2512 23.7266 86.1074 23.6915L86.2544 23.0685C86.4333 23.1101 88.021 23.5286 88.6216 25.046C89.1455 26.3718 88.6823 27.9691 87.4939 28.9275H87.4907Z" fill="black"/>
<path d="M89.3595 24.5318C89.7684 24.7554 90.3498 25.1324 90.9025 25.7458C91.5926 26.5093 91.928 27.2888 92.0909 27.7712" fill="#FFFAF0"/>
<path d="M91.7908 27.8766C91.548 27.161 91.1678 26.5189 90.6663 25.963C90.2478 25.4998 89.7558 25.1132 89.2063 24.8161L89.513 24.2538C90.1264 24.5861 90.6758 25.0174 91.1423 25.5349C91.7013 26.1547 92.1262 26.8735 92.3978 27.6721L91.7908 27.8798V27.8766Z" fill="black"/>
<path d="M95.3369 21.2413C94.7011 21.4426 93.96 21.7365 93.1805 22.1774C91.6438 23.0399 90.5928 24.1005 89.9347 24.8928" fill="#FFFAF0"/>
<path d="M90.184 25.0972L89.692 24.6883C90.6376 23.551 91.759 22.6117 93.0272 21.8993C93.7269 21.5064 94.4712 21.1837 95.2411 20.9377L95.436 21.5479C94.7076 21.7779 94.0016 22.0846 93.3403 22.4552C92.1423 23.1293 91.0817 24.0174 90.184 25.094V25.0972Z" fill="black"/>
<path d="M96.7685 23.5734C96.0561 23.9216 95.2926 24.3369 94.4971 24.8353C93.4142 25.5126 92.4813 26.209 91.6954 26.8671" fill="#FFFAF0"/>
<path d="M91.9028 27.113L91.4907 26.621C92.3852 25.8735 93.3404 25.1803 94.3276 24.5637C95.0687 24.1005 95.8418 23.6724 96.6245 23.2858L96.9057 23.8609C96.1421 24.2346 95.3882 24.6531 94.6662 25.1068C93.7014 25.7074 92.7718 26.3846 91.8996 27.113H91.9028Z" fill="black"/>
<path d="M23.1603 4.93575L24.3742 66.9823L42.178 77.2339L42.7179 57.0022L33.5461 47.2905L30.5783 22.6054L33.8144 12.7595L32.3321 0.485596L23.1603 4.93575Z" fill="#ED9AFF"/>
<path d="M42.4845 77.7802L24.0578 67.1708V66.9887L22.8342 4.73767L32.5939 0L34.1401 12.7914L34.1177 12.8585L30.9039 22.6373L33.8494 47.1467L43.0404 56.8776L42.4813 77.7802H42.4845ZM24.6903 66.797L41.8712 76.6908L42.3919 57.1268L33.2392 47.4342L33.2264 47.3288L30.249 22.5734L33.4852 12.7275L32.0668 0.96798L23.4827 5.13381L24.6903 66.7938V66.797Z" fill="black"/>
<path d="M44.4686 76.6556L42.178 77.2339L42.7179 57.0021L33.5461 47.2904L30.5782 22.6053L33.8144 12.7594L32.3321 0.485535H34.8399L36.3414 12.8456L32.9391 22.5542L35.4725 46.3576L45.0213 56.1779L44.4686 76.6556Z" fill="#ED9AFF"/>
<path d="M41.846 77.6492L42.3923 57.1268L33.2396 47.4342L33.2268 47.3288L30.2494 22.5734L33.4856 12.7275L31.9713 0.162903H35.1276L36.6706 12.8808L36.6451 12.9511L33.2683 22.5926L35.7825 46.2138L45.3505 56.0502L44.7883 76.9049L41.8492 77.6492H41.846ZM33.8498 47.1467L43.0408 56.8776L42.5073 76.8186L44.1525 76.4033L44.6956 56.3025L35.1628 46.5013L35.15 46.3927L32.607 22.5159L32.6326 22.4488L36.0093 12.8105L34.5526 0.805028H32.6901L34.1405 12.7914L34.1181 12.8585L30.9043 22.6373L33.8498 47.1467Z" fill="black"/>
<path d="M75.8243 0.485535H34.9679L36.3416 12.8456L32.9393 22.5542L35.4727 46.3575L45.0215 56.1779L44.5008 76.6556L85.6958 68.9629V51.6607L76.361 40.2845L74.0002 20.4297L77.2172 11.6285L75.8243 0.485535Z" fill="#ED9AFF"/>
<path d="M44.1716 77.0422L44.6987 56.3025L35.1658 46.5013L35.1531 46.3927L32.6101 22.5159L32.6357 22.4488L36.0124 12.8105L34.61 0.162903H76.1053L77.5461 11.6637L74.3259 20.4649L76.6676 40.1504L86.0183 51.5425V69.2249L85.7563 69.2728L44.1716 77.039V77.0422ZM35.7792 46.2138L45.3472 56.0501L44.8328 76.2659L85.3762 68.6946V51.7725L76.051 40.4123L76.0414 40.3197L73.671 20.3882L76.8912 11.5902L75.5398 0.805028H35.3256L36.6673 12.884L36.6418 12.9543L33.265 22.5958L35.7792 46.217V46.2138Z" fill="black"/>
<path d="M85.6954 68.9629L87.8837 68.5668L88.0498 50.7023L78.9067 40.0481L76.1466 20.4521L79.4978 11.6381L78.0538 0.485535H75.6194L75.8239 1.53977L77.2168 11.6285L73.9998 20.4298L76.3606 40.2845L85.6954 51.6607V68.9629Z" fill="#ED9AFF"/>
<path d="M85.3762 69.3463V51.7757L76.051 40.4155L76.0415 40.3229L73.671 20.3914L76.888 11.5934L75.5048 1.58452L75.23 0.162903H78.332L79.8239 11.6764L76.4695 20.4873L79.2074 39.9108L88.3664 50.5841V50.7055L88.2003 68.8352L85.373 69.3463H85.3762ZM76.6676 40.1536L86.0184 51.5457V68.5796L87.5678 68.3017L87.7275 50.8205L78.6036 40.1887L75.8178 20.417L79.1722 11.603L77.773 0.808223H76.0095L76.1405 1.48229L77.5493 11.6668L74.3291 20.4713L76.6708 40.1568L76.6676 40.1536Z" fill="black"/>
<path d="M72.6327 40.4028L35.2872 44.6294L35.4725 46.3577L45.0213 56.178V57.2738L82.4627 51.549L72.6327 40.4028Z" fill="#ED9AFF"/>
<path d="M44.702 57.6476V56.309L35.1659 46.5046L34.9359 44.3482L72.7606 40.0674L83.0889 51.779L44.702 57.6508V57.6476ZM35.7793 46.2139L45.3441 56.047V56.9L81.8334 51.3189L72.5018 40.7383L35.6419 44.9105L35.7793 46.2107V46.2139Z" fill="black"/>
<path d="M69.4606 17.3981L72.6329 40.4028L35.2874 44.6293L32.9393 22.5542L34.4312 18.2958L69.4606 17.3981Z" fill="#ED9AFF"/>
<path d="M35.0029 44.9839L32.6101 22.5159L34.1978 17.9795L69.7352 17.069L72.9873 40.6839L34.9965 44.9839H35.0029ZM33.265 22.5926L35.5716 44.2747L72.2685 40.1216L69.1825 17.7239L34.6579 18.6089L33.2618 22.5894L33.265 22.5926Z" fill="black"/>
<path d="M36.2903 21.1773L38.2167 41.6167L67.1378 38.3996C67.4861 35.911 67.7065 32.6397 67.3263 28.8412C66.9589 25.1642 66.1411 22.6308 65.3393 20.3019C60.8348 20.4425 56.3335 20.5831 51.8323 20.7172C46.6505 20.8738 41.4688 21.0271 36.2903 21.1773Z" fill="#8ADFFF"/>
<path d="M37.9258 41.9713L35.9387 20.8674L36.2805 20.8579C41.4591 20.7077 46.6408 20.5544 51.8225 20.3978C56.3238 20.2605 60.8251 20.1231 65.3295 19.9825L65.5659 19.9761L65.6426 20.1998C66.4924 22.6692 67.2847 25.1866 67.6456 28.8125C67.9651 32.0168 67.9012 35.2562 67.454 38.4444L67.4188 38.6904L37.9258 41.9713ZM36.6415 21.4872L38.504 41.2621L66.8534 38.109C67.2623 35.0485 67.3134 31.9433 67.0067 28.8732C66.6617 25.423 65.9205 22.9887 65.1123 20.6278C60.6877 20.7684 56.2631 20.9026 51.8417 21.0368C46.775 21.1901 41.7083 21.3403 36.6415 21.4872Z" fill="black"/>
<path d="M47.8996 52.1846C50.2674 52.1846 52.1869 51.1162 52.1869 49.7982C52.1869 48.4802 50.2674 47.4118 47.8996 47.4118C45.5319 47.4118 43.6124 48.4802 43.6124 49.7982C43.6124 51.1162 45.5319 52.1846 47.8996 52.1846Z" fill="#AE8F81"/>
<path d="M47.8997 52.5073C45.3152 52.5073 43.293 51.3189 43.293 49.7982C43.293 48.2776 45.3184 47.0892 47.8997 47.0892C50.4809 47.0892 52.5063 48.2776 52.5063 49.7982C52.5063 51.3189 50.4841 52.5073 47.8997 52.5073ZM47.8997 47.7313C45.7497 47.7313 43.9319 48.6769 43.9319 49.7982C43.9319 50.9196 45.7497 51.8652 47.8997 51.8652C50.0497 51.8652 51.8674 50.9196 51.8674 49.7982C51.8674 48.6769 50.0497 47.7313 47.8997 47.7313Z" fill="black"/>
<path d="M47.8996 51.306C50.2674 51.306 52.1869 50.2376 52.1869 48.9196C52.1869 47.6016 50.2674 46.5332 47.8996 46.5332C45.5319 46.5332 43.6124 47.6016 43.6124 48.9196C43.6124 50.2376 45.5319 51.306 47.8996 51.306Z" fill="#D3C0B1"/>
<path d="M47.8997 51.6288C45.3152 51.6288 43.293 50.4404 43.293 48.9197C43.293 47.399 45.3184 46.2106 47.8997 46.2106C50.4809 46.2106 52.5063 47.399 52.5063 48.9197C52.5063 50.4404 50.4841 51.6288 47.8997 51.6288ZM47.8997 46.8528C45.7497 46.8528 43.9319 47.7984 43.9319 48.9197C43.9319 50.041 45.7497 50.9866 47.8997 50.9866C50.0497 50.9866 51.8674 50.041 51.8674 48.9197C51.8674 47.7984 50.0497 46.8528 47.8997 46.8528Z" fill="black"/>
<path d="M66.7259 49.9324C66.3458 50.9227 64.7165 50.9227 64.4513 50.9227C64.1926 50.9227 62.5921 50.9227 62.1767 49.9324C62.0298 49.5841 61.9978 49.041 62.2886 48.7344C62.6432 48.3542 63.1511 48.6769 64.4929 48.6257C65.6973 48.5778 66.0902 48.2871 66.4672 48.6002C66.8218 48.8973 66.8921 49.5075 66.7259 49.9356V49.9324Z" fill="#AE8F81"/>
<path d="M64.4514 51.2423C63.1352 51.2423 62.196 50.811 61.8797 50.0538C61.6912 49.6034 61.6625 48.9261 62.0554 48.5108C62.3781 48.169 62.7742 48.2073 63.2726 48.2553C63.5825 48.284 63.969 48.3223 64.4833 48.3C64.9242 48.2808 65.2501 48.2297 65.5152 48.1882C65.9721 48.1147 66.3331 48.0604 66.6749 48.3479C67.1701 48.76 67.2244 49.5299 67.0263 50.0443C66.7324 50.8046 65.7963 51.2391 64.4514 51.2391V51.2423ZM62.7966 48.8654C62.6496 48.8654 62.5793 48.891 62.5218 48.9517C62.3429 49.1402 62.3557 49.5363 62.4707 49.8079C62.7806 50.5458 64.0648 50.6033 64.4514 50.6033C64.8443 50.6033 66.1478 50.5458 66.4289 49.8174C66.5471 49.5108 66.5088 49.0475 66.2628 48.8431C66.1542 48.7504 66.0487 48.7568 65.6111 48.8239C65.3459 48.8654 64.9849 48.9229 64.5057 48.9421C63.9498 48.9645 63.5218 48.9229 63.2087 48.8942C63.0234 48.875 62.8924 48.8654 62.7934 48.8654H62.7966Z" fill="black"/>
<path d="M64.4512 50.4692C65.7074 50.4692 66.7258 49.9056 66.7258 49.2105C66.7258 48.5153 65.7074 47.9518 64.4512 47.9518C63.195 47.9518 62.1766 48.5153 62.1766 49.2105C62.1766 49.9056 63.195 50.4692 64.4512 50.4692Z" fill="#0077FB"/>
<path d="M64.4511 50.7886C62.9944 50.7886 61.8571 50.0953 61.8571 49.2072C61.8571 48.3191 62.9975 47.6259 64.4511 47.6259C65.9047 47.6259 67.0452 48.3191 67.0452 49.2072C67.0452 50.0953 65.9047 50.7886 64.4511 50.7886ZM64.4511 48.2712C63.2978 48.2712 62.496 48.7663 62.496 49.2104C62.496 49.6545 63.2978 50.1496 64.4511 50.1496C65.6044 50.1496 66.4062 49.6545 66.4062 49.2104C66.4062 48.7663 65.6044 48.2712 64.4511 48.2712Z" fill="black"/>
<path d="M68.3166 45.1181C67.9365 46.1085 66.3072 46.1085 66.042 46.1085C65.7833 46.1085 64.1827 46.1085 63.7674 45.1181C63.6205 44.7699 63.5885 44.2268 63.8793 43.9202C64.2339 43.54 64.7418 43.8627 66.0836 43.8115C67.2879 43.7636 67.6809 43.4729 68.0579 43.786C68.4125 44.0831 68.4827 44.6933 68.3166 45.1213V45.1181Z" fill="#AE8F81"/>
<path d="M66.039 46.4279C65.4129 46.4279 63.921 46.3129 63.4705 45.2395C63.282 44.7891 63.2533 44.1118 63.6462 43.6965C63.9689 43.3547 64.3618 43.393 64.8634 43.4409C65.1733 43.4697 65.5598 43.508 66.071 43.4856C66.5118 43.4697 66.8377 43.4154 67.1028 43.3738C67.5597 43.3036 67.9175 43.246 68.2625 43.5336C68.7577 43.9457 68.812 44.7156 68.6139 45.2299C68.32 45.9903 67.384 46.4247 66.039 46.4247V46.4279ZM64.3874 44.0511C64.2404 44.0511 64.1702 44.0767 64.1127 44.1374C63.9369 44.3258 63.9465 44.722 64.0615 44.9935C64.3714 45.7315 65.6493 45.789 66.039 45.789C66.432 45.789 67.7354 45.7315 68.0165 45.0031C68.1347 44.6964 68.0964 44.2332 67.8504 44.0287C67.7386 43.9361 67.6364 43.9425 67.1987 44.0096C66.9335 44.0511 66.5725 44.1086 66.0933 44.1278C65.5343 44.1501 65.1094 44.1086 64.7963 44.0798C64.611 44.0607 64.48 44.0511 64.381 44.0511H64.3874Z" fill="black"/>
<path d="M74.0608 48.2137C73.6806 49.204 72.0513 49.204 71.7862 49.204C71.5274 49.204 69.9269 49.204 69.5116 48.2137C69.3646 47.8655 69.3327 47.3224 69.6234 47.0157C69.978 46.6355 70.486 46.9582 71.8277 46.9071C73.0321 46.8591 73.425 46.5684 73.802 46.8815C74.1566 47.1786 74.2269 47.7888 74.0608 48.2169V48.2137Z" fill="#AE8F81"/>
<path d="M71.7828 49.5235C71.1566 49.5235 69.6647 49.4085 69.2143 48.3351C69.0258 47.8846 68.9971 47.2074 69.39 46.7921C69.7127 46.4502 70.1056 46.4886 70.6072 46.5365C70.917 46.5653 71.3036 46.6036 71.8179 46.5812C72.2588 46.5653 72.5847 46.5109 72.8498 46.4694C73.3067 46.3991 73.6644 46.3416 74.0095 46.6291C74.5046 47.0413 74.559 47.8112 74.3609 48.3255C74.067 49.0858 73.1309 49.5203 71.786 49.5203L71.7828 49.5235ZM70.1312 47.1467C69.9842 47.1467 69.9139 47.1722 69.8564 47.2329C69.6807 47.4214 69.6903 47.8176 69.8053 48.0891C70.1152 48.8271 71.393 48.8846 71.7828 48.8846C72.1757 48.8846 73.4792 48.8271 73.7603 48.0987C73.8785 47.792 73.8402 47.3288 73.5942 47.1243C73.4824 47.0317 73.3801 47.0381 72.9425 47.1051C72.6773 47.1467 72.3163 47.2042 71.8371 47.2234C71.2812 47.2457 70.8532 47.2042 70.5401 47.1754C70.3548 47.1563 70.2238 47.1467 70.1248 47.1467H70.1312Z" fill="black"/>
<path d="M48.315 44.4696L46.7848 48.7856C46.8359 48.8623 47.2257 49.4118 47.954 49.4756C48.6217 49.5363 49.0754 49.1434 49.152 49.0763C49.3469 47.6451 49.5418 46.2171 49.7366 44.7859L48.315 44.4664V44.4696Z" fill="#D3C0B1"/>
<path d="M48.0914 49.8047C48.0371 49.8047 47.9828 49.8047 47.9253 49.7983C47.0723 49.7216 46.6027 49.0923 46.5196 48.9677L46.427 48.8335L48.1074 44.0958L50.0945 44.5399L49.4523 49.2392L49.3629 49.3191C49.2287 49.4405 48.7623 49.8047 48.0914 49.8047ZM47.1458 48.7249C47.2864 48.8814 47.5675 49.121 47.9828 49.1562C48.3853 49.1913 48.6952 49.022 48.8517 48.907L49.3821 45.0351L48.5227 44.8434L47.1458 48.7249Z" fill="black"/>
<path d="M77.0307 11.6596L36.3339 12.5334L36.3476 13.1754L77.0445 12.3016L77.0307 11.6596Z" fill="black"/>
<path d="M66.0291 45.6644C67.2853 45.6644 68.3037 45.1008 68.3037 44.4057C68.3037 43.7105 67.2853 43.147 66.0291 43.147C64.7729 43.147 63.7545 43.7105 63.7545 44.4057C63.7545 45.1008 64.7729 45.6644 66.0291 45.6644Z" fill="#FF2C00"/>
<path d="M66.0292 45.987C64.5725 45.987 63.4352 45.2938 63.4352 44.4057C63.4352 43.5176 64.5757 42.8243 66.0292 42.8243C67.4828 42.8243 68.6233 43.5176 68.6233 44.4057C68.6233 45.2938 67.4828 45.987 66.0292 45.987ZM66.0292 43.4665C64.876 43.4665 64.0741 43.9616 64.0741 44.4057C64.0741 44.8497 64.876 45.3449 66.0292 45.3449C67.1825 45.3449 67.9844 44.8497 67.9844 44.4057C67.9844 43.9616 67.1825 43.4665 66.0292 43.4665Z" fill="black"/>
<path d="M71.7732 48.597C73.0295 48.597 74.0478 48.0335 74.0478 47.3383C74.0478 46.6432 73.0295 46.0797 71.7732 46.0797C70.517 46.0797 69.4987 46.6432 69.4987 47.3383C69.4987 48.0335 70.517 48.597 71.7732 48.597Z" fill="#C4E000"/>
<path d="M71.7733 48.9197C70.3165 48.9197 69.1792 48.2264 69.1792 47.3383C69.1792 46.4502 70.3197 45.757 71.7733 45.757C73.2268 45.757 74.3673 46.4502 74.3673 47.3383C74.3673 48.2264 73.2268 48.9197 71.7733 48.9197ZM71.7733 46.3991C70.62 46.3991 69.8181 46.8943 69.8181 47.3383C69.8181 47.7824 70.62 48.2775 71.7733 48.2775C72.9265 48.2775 73.7284 47.7824 73.7284 47.3383C73.7284 46.8943 72.9265 46.3991 71.7733 46.3991Z" fill="black"/>
<path d="M56.2537 28.0267C56.3655 28.0203 58.7615 27.9468 59.9371 29.739C61.0073 31.3683 60.6112 33.8409 58.787 35.3552" fill="#8ADFFF"/>
<path d="M58.9949 35.6012L58.586 35.1093C60.2184 33.7547 60.6944 31.4738 59.6721 29.9148C58.586 28.2599 56.2922 28.3494 56.2698 28.3494L56.2411 27.7104C56.3497 27.7041 58.9214 27.6082 60.2088 29.5665C61.4068 31.3939 60.8765 34.0454 58.9949 35.6076V35.6012Z" fill="black"/>
<path d="M47.8995 29.4163C47.6886 28.7231 45.7974 22.3817 46.9219 20.9952C47.3308 20.4905 47.7909 20.4202 47.7909 20.4202C48.4617 20.318 49.0559 20.909 49.3179 21.1709C50.9025 22.7491 51.3753 28.5698 51.4296 29.2566" fill="#FFFAF0"/>
<path d="M47.5929 29.509C47.0817 27.8254 45.51 22.2284 46.6728 20.794C47.1456 20.2094 47.6823 20.1135 47.743 20.1039C48.5704 19.9793 49.2541 20.6534 49.5448 20.9441C51.1645 22.5574 51.6661 28.1321 51.7491 29.2343L51.1102 29.2822C50.8866 26.3495 50.2253 22.5255 49.0912 21.3978C48.8707 21.1773 48.3564 20.6598 47.8389 20.7365C47.8293 20.7365 47.4875 20.8036 47.1712 21.1965C46.4556 22.0782 47.2063 26.0268 48.2062 29.3237L47.5929 29.509Z" fill="black"/>
<path d="M50.3213 29.0075L50.0242 27.9564C49.9763 27.7903 49.8261 27.6753 49.6568 27.6753C49.2894 27.6753 48.922 27.6721 48.5547 27.6689C48.4173 27.6689 48.3598 27.4964 48.4684 27.4101C49.5163 26.5604 49.6696 25.1643 49.085 24.4327C48.6122 23.8449 47.6218 23.6436 46.6858 23.9887L47.9605 29.3589C48.2735 29.2375 48.6856 29.1161 49.1744 29.0458C49.6185 28.9819 50.0114 28.9819 50.3245 29.0043L50.3213 29.0075Z" fill="black"/>
<path d="M54.5732 28.4005C54.3623 27.7072 52.4711 21.3658 53.5956 19.9794C54.0045 19.4746 54.4646 19.4043 54.4646 19.4043C55.1354 19.3021 55.7297 19.8931 55.9916 20.1551C57.5762 21.7332 58.049 27.5539 58.1033 28.2407" fill="#FFFAF0"/>
<path d="M54.2666 28.4931C53.7554 26.8095 52.1837 21.2125 53.3465 19.7781C53.8193 19.1934 54.3592 19.0976 54.4167 19.088C55.2441 18.9634 55.9246 19.6375 56.2153 19.9282C57.835 21.5415 58.3366 27.1162 58.4196 28.2183L57.7807 28.2662C57.5571 25.3336 56.8958 21.5096 55.7617 20.3818C55.5381 20.1614 55.0141 19.6471 54.5094 19.7205C54.4998 19.7205 54.158 19.7876 53.8417 20.1806C53.1261 21.0623 53.8768 25.0109 54.8768 28.3078L54.2634 28.4931H54.2666Z" fill="black"/>
<path d="M56.9949 27.9915L56.6978 26.9405C56.6499 26.7744 56.4997 26.6594 56.3304 26.6594C55.963 26.6594 55.5956 26.6562 55.2282 26.653C55.0909 26.653 55.0334 26.4805 55.142 26.3942C56.1898 25.5444 56.3432 24.1484 55.7586 23.4168C55.2858 22.829 54.2954 22.6277 53.3594 22.9727L54.634 28.343C54.9471 28.2216 55.3592 28.1002 55.848 28.0299C56.2921 27.966 56.685 27.966 56.9981 27.9883L56.9949 27.9915Z" fill="black"/>
<path d="M52.0176 29.6144C51.5225 29.3429 50.4587 28.8732 49.1137 29.1033C48.3023 29.2438 47.6665 29.5888 47.2512 29.87" fill="#8ADFFF"/>
<path d="M47.4302 30.1351L47.0724 29.6048C47.6985 29.1799 48.3662 28.9052 49.0595 28.787C50.3852 28.557 51.4842 28.9563 52.1711 29.3333L51.8644 29.8955C51.267 29.5697 50.3118 29.2214 49.1681 29.4195C48.5643 29.5217 47.9797 29.7645 47.4302 30.1383V30.1351Z" fill="black"/>
<path d="M58.6912 28.5954C58.1961 28.3239 57.1322 27.8543 55.7873 28.0843C54.9758 28.2248 54.3401 28.5699 53.9248 28.851" fill="#8ADFFF"/>
<path d="M54.1036 29.1192L53.7458 28.5889C54.372 28.164 55.0397 27.8893 55.7329 27.7711C57.0587 27.5411 58.1577 27.9404 58.8477 28.3174L58.541 28.8796C57.9436 28.5538 56.9884 28.2056 55.8447 28.4036C55.2409 28.5059 54.6563 28.7487 54.1068 29.1224L54.1036 29.1192Z" fill="black"/>
<path d="M52.6597 27.7839C52.7044 27.7296 53.1229 27.2281 53.8193 27.2568C53.8704 27.2568 54.5094 27.2951 54.8895 27.8191C55.3144 28.4069 55.2026 29.3142 54.6372 29.8029C54.0334 30.3269 53.2219 30.0969 53.1612 30.0777" fill="#8ADFFF"/>
<path d="M53.6596 30.4642C53.3497 30.4642 53.1165 30.4003 53.0686 30.3843L53.2539 29.7709C53.2827 29.7805 53.9472 29.9754 54.4263 29.5601C54.8608 29.1831 54.9567 28.4579 54.6308 28.0043C54.3401 27.6017 53.8289 27.5762 53.8066 27.573C53.2763 27.5506 52.944 27.9404 52.9089 27.9819L52.4105 27.5794C52.5032 27.4644 53.0079 26.8989 53.8289 26.9341C53.9152 26.9373 54.6819 26.9852 55.1451 27.6273C55.6659 28.3461 55.5253 29.4515 54.8417 30.0425C54.4551 30.3779 54.0078 30.461 53.6564 30.461L53.6596 30.4642Z" fill="black"/>
<path d="M49.7237 31.4546C50.5287 31.6399 51.7203 31.8156 53.1228 31.6335C55.7744 31.2884 56.8893 29.9563 57.3909 30.3748C58.2311 31.0712 56.9404 36.336 53.4103 37.042C51.0623 37.5116 49.0784 35.6971 48.7972 35.4319C49.0177 35.2434 49.7397 34.5853 49.9537 33.4576C50.1358 32.5024 49.8515 31.7421 49.7269 31.4578L49.7237 31.4546Z" fill="black"/>
<path d="M52.6307 37.4349C50.5733 37.4349 48.9185 35.9845 48.5735 35.6619L48.3115 35.4159L48.5831 35.1827C48.8993 34.9143 49.4552 34.3265 49.6309 33.3905C49.7843 32.579 49.567 31.905 49.4265 31.5759L49.1741 30.9945L49.7906 31.135C50.8992 31.3906 52.0045 31.4481 53.0747 31.3108C54.4676 31.1287 55.4037 30.675 56.0905 30.3396C56.7358 30.0265 57.2022 29.7997 57.5888 30.1191C58.199 30.6239 57.8795 32.1062 57.7677 32.5471C57.2853 34.4607 55.8669 36.8663 53.4645 37.3455C53.1802 37.403 52.899 37.4285 52.6243 37.4285L52.6307 37.4349ZM49.2699 35.4223C49.928 35.9686 51.5413 37.0867 53.3463 36.7257C55.4548 36.304 56.7167 34.1316 57.1543 32.3969C57.4355 31.282 57.2949 30.7102 57.1863 30.6207C57.116 30.5632 56.6719 30.7804 56.378 30.9242C55.6944 31.2564 54.6593 31.758 53.1642 31.9529C52.1962 32.0775 51.2059 32.0551 50.206 31.8794C50.3178 32.3075 50.3849 32.8761 50.2635 33.5151C50.0941 34.4064 49.6405 35.0389 49.2699 35.4223Z" fill="black"/>
<path d="M54.0046 34.1764C53.5509 33.5982 52.8162 33.2499 52.0782 33.2627C51.8354 33.2659 51.5894 33.3106 51.3466 33.3011C50.9856 33.2883 50.6278 33.1637 50.27 33.2116C50.2093 33.2212 50.1454 33.234 50.0975 33.2723C50.0272 33.3298 50.0017 33.4224 49.9729 33.5087C49.7461 34.1987 49.1072 34.6779 48.7941 35.3328C48.7845 35.3552 48.7685 35.4798 48.7685 35.4798C48.7685 35.4798 48.7653 35.368 48.7941 35.3328C48.9538 35.1412 50.3435 36.4414 52.0814 36.7704C52.0814 36.7704 52.7459 36.9334 53.5382 36.78C53.8257 36.7257 54.1036 36.6203 54.3752 36.5085C54.4646 36.4701 54.5572 36.4286 54.6084 36.3487C54.6627 36.2689 54.6627 36.1635 54.6595 36.0644C54.6467 35.812 54.3113 34.9687 53.8193 33.8633" fill="#FF2C00"/>
<path d="M55.8671 32.2724C55.2505 32.5599 54.3912 32.8794 53.3305 33.0519C51.9441 33.2755 50.7748 33.1477 50.0017 33.004C50.0145 32.7707 50.0049 32.4641 49.9314 32.119C49.8771 31.8571 49.7973 31.6335 49.7206 31.4546C50.4681 31.6079 51.5575 31.7453 52.8545 31.6079C54.0493 31.4833 55.0173 31.167 55.6946 30.8891C55.7521 31.3523 55.8096 31.8124 55.8639 32.2756L55.8671 32.2724Z" fill="#FFFAF0"/>
<path d="M51.8068 33.4928C51.1838 33.4928 50.5609 33.4353 49.9411 33.3171L49.6664 33.266L49.6792 32.988C49.6919 32.7165 49.6728 32.4481 49.6153 32.183C49.5737 31.9785 49.5098 31.7741 49.4236 31.5824L49.1808 31.0169L49.7814 31.1415C50.7813 31.346 51.8036 31.3971 52.8195 31.2885C53.7651 31.1894 54.6916 30.9562 55.5701 30.592L55.9598 30.4323L56.209 32.4673L55.9982 32.5663C55.1644 32.9561 54.2826 33.2244 53.3754 33.3714C52.8546 33.4545 52.3275 33.496 51.8036 33.496L51.8068 33.4928ZM50.3245 32.7357C51.3052 32.8922 52.2988 32.8954 53.2795 32.7357C54.0494 32.6111 54.8034 32.3906 55.5222 32.0776L55.4295 31.3364C54.6117 31.6367 53.7587 31.8348 52.893 31.9242C51.9953 32.0201 51.0944 31.9977 50.2031 31.8635C50.219 31.9242 50.235 31.9881 50.2478 32.052C50.2957 32.2756 50.3213 32.5056 50.3277 32.7357H50.3245Z" fill="black"/>
<path d="M45.5961 28.7678C45.7079 28.7614 48.1039 28.6879 49.2795 30.4801C50.3497 32.1094 49.9536 34.5821 48.1294 36.0963" fill="#8ADFFF"/>
<path d="M48.334 36.3424L47.9251 35.8504C49.5575 34.4958 50.0335 32.2149 49.0113 30.6559C47.9251 29.001 45.6345 29.0905 45.609 29.0873L45.5802 28.4484C45.6888 28.442 48.2605 28.3461 49.548 30.3045C50.746 32.1318 50.2156 34.7834 48.334 36.3455V36.3424Z" fill="black"/>
<path d="M54.9788 36.5915L54.3398 36.5277C54.3718 36.205 54.3846 35.3648 53.8191 34.5725C53.2792 33.8186 52.5253 33.5502 52.225 33.4672L52.3911 32.8474C52.8447 32.9688 53.7041 33.3106 54.3398 34.1988C55.0299 35.1667 55.0139 36.1922 54.9756 36.5883L54.9788 36.5915Z" fill="black"/>
<path d="M51.9472 35.2242C51.9472 35.0165 51.8993 34.614 51.6341 34.2243C51.2731 33.6971 50.7332 33.5278 50.516 33.4799L50.6566 32.8538C50.9473 32.9177 51.6725 33.1477 52.1612 33.8633C52.5063 34.3648 52.5829 34.876 52.5861 35.2146L51.944 35.2242H51.9472Z" fill="black"/>
<path d="M47.8838 15.2449C47.5835 15.4461 47.2289 15.7305 46.8966 16.1266C46.0533 17.1329 45.8552 18.2446 45.7977 18.7782C45.6731 18.8325 45.36 18.9539 44.9639 18.8836C44.4048 18.7813 44.1045 18.3692 44.0438 18.283C44.1876 17.5354 44.4495 16.5611 44.9575 15.4972C45.4079 14.5516 45.9223 13.8041 46.3631 13.2514C46.5037 13.2802 47.1075 13.4207 47.5292 14.0021C47.9125 14.5325 47.8966 15.0883 47.887 15.2449H47.8838Z" fill="#AD82FF"/>
<path d="M45.2097 19.2286C45.1138 19.2286 45.0116 19.219 44.9062 19.203C44.2672 19.088 43.9062 18.6504 43.7785 18.4683L43.7018 18.3565L43.7273 18.2223C43.919 17.2319 44.2321 16.2703 44.6666 15.3599C45.0563 14.5388 45.5419 13.7625 46.1106 13.0501L46.2319 12.8968L46.4236 12.9351C46.6792 12.9894 47.3277 13.1779 47.7845 13.8105C48.1935 14.3727 48.2222 14.9605 48.203 15.2608L48.1935 15.4174L48.0625 15.5068C47.7143 15.74 47.4044 16.0148 47.1424 16.331C46.4204 17.1904 46.1872 18.152 46.1169 18.8101L46.0978 18.9922L45.9285 19.0689C45.7559 19.1455 45.5068 19.2254 45.2097 19.2254V19.2286ZM44.3854 18.2031C44.4973 18.3309 44.7113 18.5162 45.0212 18.5705C45.2065 18.6024 45.3726 18.5833 45.5036 18.5449C45.609 17.8134 45.8965 16.823 46.6504 15.9221C46.9156 15.6059 47.2223 15.3215 47.5641 15.0755C47.5577 14.8583 47.5002 14.5165 47.2638 14.1906C47.021 13.8552 46.7016 13.6923 46.4779 13.6188C45.9955 14.2449 45.5802 14.9222 45.2416 15.6378C44.8519 16.4556 44.5643 17.315 44.3822 18.2031H44.3854Z" fill="black"/>
<path d="M53.6594 14.8743C53.4805 15.0148 53.1547 15.3119 52.9311 15.7975C52.7394 16.2128 52.7042 16.5866 52.701 16.807C53.2729 16.839 54.2505 16.9732 55.2664 17.5578C55.7775 17.8517 56.1673 18.1839 56.4516 18.4683C56.5123 18.4683 57.0554 18.4331 57.3812 17.9603C57.6687 17.5418 57.5761 17.0946 57.5569 17.0211C57.263 16.6441 56.7295 16.0659 55.9021 15.5931C54.9916 15.0755 54.145 14.9254 53.6563 14.8775L53.6594 14.8743Z" fill="#AD82FF"/>
<path d="M56.3273 18.7942L56.2282 18.6952C55.896 18.3597 55.519 18.069 55.1101 17.8358C54.3849 17.4173 53.5479 17.1745 52.6854 17.1266L52.3755 17.1106L52.3819 16.8007C52.3883 16.411 52.4777 16.018 52.6406 15.6634C52.8259 15.2609 53.1103 14.8999 53.4617 14.622L53.5639 14.5421L53.6917 14.5549C54.5223 14.638 55.3433 14.8999 56.0653 15.312C56.7426 15.6986 57.3304 16.2065 57.8128 16.8231L57.8575 16.8806L57.8735 16.9509C57.9086 17.1042 57.9949 17.6409 57.6467 18.1457C57.2441 18.7303 56.5924 18.7878 56.4678 18.791L56.3273 18.7974V18.7942ZM53.0496 16.51C53.8929 16.5995 54.7108 16.8646 55.4296 17.2767C55.8417 17.5131 56.2219 17.8007 56.5669 18.1297C56.7138 18.0978 56.9566 18.0147 57.1195 17.7783C57.2825 17.5387 57.2761 17.2799 57.2601 17.1553C56.8384 16.6314 56.3305 16.2001 55.7458 15.8679C55.1389 15.5229 54.4552 15.2961 53.7588 15.2066C53.532 15.4079 53.3467 15.657 53.2221 15.9286C53.139 16.1107 53.0783 16.3088 53.0496 16.51Z" fill="black"/>
<path d="M49.7367 44.789C51.5769 44.789 53.0687 43.2972 53.0687 41.457C53.0687 39.6168 51.5769 38.125 49.7367 38.125C47.8965 38.125 46.4047 39.6168 46.4047 41.457C46.4047 43.2972 47.8965 44.789 49.7367 44.789Z" fill="#FF2C00"/>
<path d="M49.7364 45.1085C47.7206 45.1085 46.085 43.4697 46.085 41.457C46.085 39.4444 47.7238 37.8055 49.7364 37.8055C51.7491 37.8055 53.3879 39.4444 53.3879 41.457C53.3879 43.4697 51.7491 45.1085 49.7364 45.1085ZM49.7364 38.4445C48.0752 38.4445 46.7239 39.7958 46.7239 41.457C46.7239 43.1183 48.0752 44.4696 49.7364 44.4696C51.3977 44.4696 52.749 43.1183 52.749 41.457C52.749 39.7958 51.3977 38.4445 49.7364 38.4445Z" fill="black"/>
<path d="M27.0992 50.5746C27.3899 50.7951 31.3034 53.8523 30.7603 58.0086C30.6996 58.4622 30.3929 60.8039 28.4569 62.0977C27.1311 62.9827 24.8725 63.4842 23.8981 62.4268C23.5212 62.0179 23.4285 61.4716 23.4158 61.0627C23.2273 61.0403 22.7832 60.9541 22.4414 60.5931C21.9686 60.0915 21.8855 59.2641 22.2529 58.5229C22.0868 58.4143 21.4638 57.983 21.2562 57.1524C21.1348 56.6636 21.2082 56.2483 21.2658 56.0311C21.0517 55.8746 20.5725 55.4784 20.3074 54.7788C20.1285 54.306 20.1221 53.8843 20.138 53.6351C20.2403 52.0729 22.304 48.1818 24.7831 48.6131C25.0291 48.6546 26.1536 48.8942 27.096 50.5682L27.0992 50.5746Z" fill="#FFFAF0"/>
<path d="M25.5307 63.334C24.7959 63.334 24.1219 63.1359 23.665 62.6408C23.3583 62.3085 23.1731 61.8677 23.1188 61.331C22.7641 61.2415 22.4479 61.0626 22.2147 60.8134C21.7003 60.2703 21.5725 59.4206 21.8633 58.6315C21.5566 58.3823 21.1253 57.9255 20.9496 57.2322C20.8633 56.8872 20.8505 56.5198 20.9144 56.162C20.6014 55.9001 20.2372 55.4879 20.0135 54.8969C19.8602 54.4944 19.7963 54.0535 19.8251 53.6191C19.8985 52.5009 20.924 50.2168 22.4287 49.0315C23.2242 48.4086 24.0356 48.1626 24.8439 48.3032C25.2879 48.3798 26.4124 48.7376 27.3485 50.3605C27.6072 50.565 28.6072 51.386 29.5049 52.6287C30.7699 54.3826 31.3162 56.2547 31.0798 58.0501C30.9361 59.1458 30.4281 61.1648 28.6359 62.3628C27.8277 62.9027 26.6169 63.3372 25.5307 63.3372V63.334ZM24.403 48.9038C23.8855 48.9038 23.3552 49.1146 22.8216 49.5331C21.4735 50.5937 20.5247 52.683 20.4608 53.6574C20.4384 54.0024 20.4896 54.3506 20.6109 54.6701C20.8218 55.226 21.1892 55.5774 21.4575 55.7755L21.6332 55.9032L21.5789 56.1141C21.5214 56.3377 21.4703 56.6827 21.5693 57.0757C21.7355 57.7434 22.2274 58.1235 22.4319 58.2545L22.6715 58.411L22.5469 58.6666C22.2434 59.28 22.2977 59.9668 22.6811 60.3726C22.9239 60.6281 23.2401 60.7144 23.4638 60.7431L23.7353 60.7783L23.7449 61.053C23.7609 61.5514 23.8951 61.9379 24.141 62.2095C24.9429 63.0816 26.9683 62.7111 28.2845 61.8325C29.8659 60.7751 30.3195 58.9605 30.4473 57.9702C30.9712 53.9609 27.0769 50.9579 26.9108 50.8333L26.8565 50.7918L26.8245 50.7343C26.0163 49.2999 25.0962 48.9996 24.7352 48.9357C24.6266 48.9165 24.518 48.907 24.4062 48.907L24.403 48.9038Z" fill="black"/>
<path d="M29.3805 41.7254C29.6648 42.3388 29.9939 43.2365 30.1312 44.3546C30.3133 45.8369 30.0833 47.0541 29.8821 47.7984C26.5213 46.6068 23.6812 46.4758 22.8698 47.6738C22.7069 47.9134 22.4417 48.4757 22.5567 49.1146C22.7676 50.2966 24.1093 50.8174 24.2467 50.8685C24.2243 51.1752 24.1093 52.239 23.2436 53.1239C22.6334 53.7469 21.9434 53.9769 21.6143 54.0631C17.7424 51.8876 15.9406 47.8272 16.8862 44.9648C18.0746 41.3548 23.9176 38.7767 29.3805 41.7254Z" fill="#AD82FF"/>
<path d="M21.5724 54.4049L21.4606 54.341C17.6749 52.2134 15.5345 48.0508 16.5824 44.8625C17.1478 43.147 18.726 41.6295 20.8025 40.8021C23.5659 39.7032 26.7445 39.9364 29.5335 41.441L29.6261 41.4922L29.6708 41.588C30.0702 42.4537 30.3321 43.3706 30.4503 44.313C30.5973 45.5078 30.511 46.709 30.1916 47.8815L30.0989 48.2137L29.7731 48.0987C26.4922 46.9326 23.8246 46.8336 23.1314 47.8527C23.0931 47.9102 22.7576 48.4277 22.8694 49.0571C23.0483 50.0538 24.224 50.517 24.3549 50.565L24.5818 50.648L24.5658 50.8876C24.5275 51.4275 24.3358 52.4658 23.4732 53.3443C22.863 53.9673 22.1698 54.2452 21.697 54.3698L21.5724 54.4017V54.4049ZM24.4124 40.7606C23.256 40.7606 22.1123 40.9714 21.0389 41.3995C19.1349 42.1566 17.6973 43.5271 17.1925 45.0638C16.3619 47.5876 17.8091 51.4914 21.6587 53.7149C22.0452 53.5967 22.5595 53.3635 23.0164 52.8971C23.6361 52.2645 23.8374 51.5106 23.9013 51.0697C23.4285 50.8461 22.435 50.2551 22.2401 49.1721C22.0867 48.3095 22.5148 47.6227 22.6043 47.4949C23.4636 46.233 26.1503 46.1979 29.6581 47.3831C29.8849 46.3991 29.9392 45.396 29.8146 44.3961C29.7092 43.5559 29.4824 42.7349 29.1341 41.9586C27.6295 41.1663 26.0066 40.7638 24.4124 40.7638V40.7606Z" fill="black"/>
<path d="M26.8629 50.188C26.9619 50.4212 27.1344 50.9259 27.0514 51.5617C26.9396 52.4179 26.4412 52.9578 26.2687 53.1271" fill="#FFFAF0"/>
<path d="M26.4956 53.3539L26.0452 52.8971C26.2656 52.6798 26.6458 52.2134 26.7352 51.5202C26.8023 51.0058 26.6809 50.5809 26.5691 50.3126L27.1601 50.0634C27.3039 50.4052 27.454 50.9483 27.3709 51.6032C27.2559 52.4882 26.7735 53.0792 26.4956 53.3539Z" fill="black"/>
</g>
<path d="M27.5812 45.0468C26.0281 45.0468 24.6192 45.9569 23.9806 47.3725L13.1535 71.3725C11.9742 73.9867 13.8861 76.9468 16.7541 76.9468H77.6187C79.1717 76.9468 80.5806 76.0368 81.2193 74.6211L92.0463 50.6211C93.2257 48.0069 91.3137 45.0468 88.4458 45.0468H27.5812Z" fill="#FFFBF2" stroke="black" stroke-width="1.5"/>
<mask id="path-84-outside-2_612_5174" maskUnits="userSpaceOnUse" x="11.5519" y="65.3969" width="75" height="13" fill="black">
<rect fill="white" x="11.5519" y="65.3969" width="75" height="13"/>
<path fill-rule="evenodd" clip-rule="evenodd" d="M83.6571 67.3969L80.5371 74.3128C80.0197 75.4596 78.8783 76.1968 77.6202 76.1968H16.7556C14.4322 76.1968 12.8832 73.7988 13.8387 71.6809L15.7713 67.3969H83.6571Z"/>
</mask>
<path fill-rule="evenodd" clip-rule="evenodd" d="M83.6571 67.3969L80.5371 74.3128C80.0197 75.4596 78.8783 76.1968 77.6202 76.1968H16.7556C14.4322 76.1968 12.8832 73.7988 13.8387 71.6809L15.7713 67.3969H83.6571Z" fill="#FF73FF"/>
<path d="M83.6571 67.3969L85.0244 68.0137L85.9793 65.8969H83.6571V67.3969ZM80.5371 74.3128L79.1698 73.6959V73.6959L80.5371 74.3128ZM13.8387 71.6809L12.4714 71.0641L12.4714 71.0641L13.8387 71.6809ZM15.7713 67.3969V65.8969H14.8025L14.404 66.78L15.7713 67.3969ZM82.2897 66.78L79.1698 73.6959L81.9044 74.9296L85.0244 68.0137L82.2897 66.78ZM79.1698 73.6959C78.8949 74.3052 78.2886 74.6968 77.6202 74.6968V77.6968C79.4681 77.6968 81.1445 76.614 81.9044 74.9296L79.1698 73.6959ZM77.6202 74.6968H16.7556V77.6968H77.6202V74.6968ZM16.7556 74.6968C15.5213 74.6968 14.6984 73.4229 15.206 72.2978L12.4714 71.0641C11.0681 74.1747 13.3431 77.6968 16.7556 77.6968V74.6968ZM15.206 72.2978L17.1386 68.0137L14.404 66.78L12.4714 71.0641L15.206 72.2978ZM15.7713 68.8969H83.6571V65.8969H15.7713V68.8969Z" fill="black" mask="url(#path-84-outside-2_612_5174)"/>
<defs>
<clipPath id="clip0_612_5174">
<rect width="84" height="53" fill="white" transform="translate(13.1)"/>
</clipPath>
</defs>
</svg>
