<?xml version="1.0" encoding="UTF-8"?>
<svg id="Capa_2" xmlns="http://www.w3.org/2000/svg" viewBox="0 0 135.48 219.56">
  <defs>
    <style>
      .cls-1 {
        fill: #1d1d1b;
      }

      .cls-2 {
        fill: #d3c0b1;
      }

      .cls-3 {
        fill: #c4e000;
      }

      .cls-4 {
        fill: #ff3c18;
      }

      .cls-5 {
        fill: #a19085;
      }
    </style>
  </defs>
  <g id="Capa_1-2" data-name="Capa_1">
    <g>
      <g>
        <path class="cls-5" d="M13.54,109.01L.96,29.57c-.68-4.29,2.25-8.32,6.54-9L90.6,7.41c4.29-.68,8.32,2.25,9,6.54l12.58,79.44-98.64,15.62Z"/>
        <path d="M12.83,110L.11,29.71c-.36-2.3.19-4.61,1.56-6.5,1.37-1.89,3.39-3.13,5.7-3.49L90.46,6.56c4.75-.75,9.24,2.5,9.99,7.26l12.72,80.29-100.34,15.89ZM91.83,8.17c-.36,0-.73.03-1.1.09L7.64,21.42c-1.85.29-3.47,1.29-4.57,2.8-1.1,1.51-1.54,3.37-1.25,5.21l12.45,78.58,96.93-15.35-12.45-78.58c-.55-3.45-3.53-5.91-6.92-5.91Z"/>
      </g>
      <g>
        <rect class="cls-5" x="8.95" y="100.97" width="113.58" height="36.86" rx="6.21" ry="6.21" transform="translate(-17.87 11.75) rotate(-9)"/>
        <path d="M17.69,146.46c-3.42,0-6.43-2.49-6.98-5.96l-3.82-24.15c-.61-3.85,2.03-7.48,5.88-8.09l99.92-15.83c1.87-.29,3.73.15,5.26,1.26,1.53,1.11,2.53,2.75,2.83,4.61l3.82,24.14c.61,3.85-2.03,7.48-5.88,8.09l-99.92,15.83c-.37.06-.74.09-1.11.09ZM113.8,94.07c-.28,0-.56.02-.84.07l-99.92,15.83c-2.91.46-4.9,3.2-4.44,6.12l3.82,24.14c.46,2.91,3.2,4.9,6.12,4.44l99.92-15.83c2.91-.46,4.9-3.2,4.44-6.12l-3.82-24.14c-.42-2.63-2.69-4.51-5.28-4.51Z"/>
      </g>
      <g>
        <path class="cls-5" d="M24.8,137.13h99.65v59.79c0,9.32-7.57,16.89-16.89,16.89H41.69c-9.32,0-16.89-7.57-16.89-16.89v-59.79h0Z" transform="translate(-26.53 13.83) rotate(-9)"/>
        <path d="M45.42,219.56c-3.72,0-7.33-1.17-10.4-3.39-3.84-2.79-6.36-6.9-7.1-11.59l-9.49-59.9,100.13-15.86,9.49,59.9c1.53,9.67-5.09,18.78-14.76,20.31l-65.05,10.3c-.94.15-1.88.22-2.82.22ZM20.4,146.11l9.22,58.2c.67,4.23,2.95,7.94,6.41,10.46s7.7,3.53,11.93,2.86l65.05-10.3c8.73-1.38,14.71-9.61,13.32-18.34l-9.22-58.2-96.72,15.32Z"/>
      </g>
      <g>
        <path class="cls-2" d="M20.76,102.56L8.18,23.12c-.68-4.29,2.25-8.32,6.54-9L97.81.96c4.29-.68,8.32,2.25,9,6.54l12.58,79.44-98.64,15.62Z"/>
        <path d="M20.04,103.55L7.33,23.26c-.75-4.75,2.5-9.24,7.26-9.99L97.68.11c4.75-.75,9.24,2.5,9.99,7.26l12.72,80.29-100.34,15.89ZM99.05,1.73c-.36,0-.73.03-1.1.09L14.85,14.97c-3.81.6-6.43,4.2-5.82,8.02l12.45,78.58,96.93-15.35L105.96,7.64c-.55-3.45-3.53-5.91-6.92-5.91Z"/>
      </g>
      <g>
        <rect class="cls-2" x="16.17" y="94.52" width="113.58" height="36.86" rx="6.21" ry="6.21" transform="translate(-16.77 12.8) rotate(-9)"/>
        <path d="M24.9,140.01c-1.48,0-2.92-.46-4.14-1.35-1.53-1.11-2.53-2.75-2.83-4.61l-3.82-24.14c-.29-1.87.15-3.73,1.26-5.26,1.11-1.53,2.75-2.53,4.61-2.83l99.92-15.83c3.85-.6,7.48,2.03,8.09,5.88l3.82,24.14c.3,1.87-.15,3.73-1.26,5.26-1.11,1.53-2.75,2.53-4.61,2.83l-99.92,15.83c-.37.06-.75.09-1.12.09ZM121.01,87.62c-.28,0-.56.02-.84.07l-99.92,15.83c-2.91.46-4.9,3.2-4.44,6.12l3.82,24.14c.22,1.41.98,2.65,2.14,3.49,1.15.84,2.57,1.18,3.98.95l99.92-15.83c1.41-.22,2.65-.98,3.49-2.14.84-1.15,1.18-2.57.95-3.98l-3.82-24.14c-.42-2.63-2.69-4.51-5.28-4.51Z"/>
      </g>
      <g>
        <path class="cls-2" d="M32.02,130.68h99.65v59.79c0,9.32-7.57,16.89-16.89,16.89H48.91c-9.32,0-16.89-7.57-16.89-16.89v-59.79h0Z" transform="translate(-25.43 14.88) rotate(-9)"/>
        <path d="M52.66,213.11c-8.58,0-16.14-6.25-17.53-14.98l-9.49-59.9,100.13-15.86,9.49,59.9c1.53,9.67-5.09,18.78-14.76,20.31l-65.05,10.3c-.94.15-1.87.22-2.79.22ZM27.62,139.67l9.22,58.2c1.38,8.73,9.61,14.71,18.34,13.32l65.05-10.3.13.85-.13-.85c8.73-1.38,14.71-9.61,13.32-18.34l-9.22-58.2-96.72,15.32Z"/>
      </g>
      <g>
        <rect class="cls-3" x="25.89" y="23.25" width="75.44" height="61.29" rx="12.01" ry="12.01" transform="translate(-7.65 10.61) rotate(-9)"/>
        <path d="M86.1,19.46c5.8,0,10.91,4.22,11.85,10.13l5.83,36.82c1.04,6.55-3.43,12.7-9.98,13.74l-50.79,8.04c-.64.1-1.27.15-1.89.15-5.8,0-10.91-4.22-11.85-10.13l-5.83-36.82c-1.04-6.55,3.43-12.7,9.98-13.74l50.79-8.04c.64-.1,1.27-.15,1.89-.15M86.1,17.73h0c-.72,0-1.45.06-2.16.17l-50.79,8.04c-7.48,1.18-12.6,8.23-11.42,15.71l5.83,36.82c1.06,6.71,6.76,11.59,13.55,11.59.72,0,1.45-.06,2.16-.17l50.79-8.04c7.48-1.18,12.6-8.23,11.42-15.71l-5.83-36.82c-1.06-6.71-6.76-11.59-13.55-11.59h0Z"/>
      </g>
      <g>
        <line class="cls-2" x1="31.47" y1="127.01" x2="116.98" y2="113.47"/>
        <rect x="30.93" y="119.37" width="86.58" height="1.73" transform="translate(-17.86 13.06) rotate(-8.98)"/>
      </g>
      <g>
        <line class="cls-2" x1="29.94" y1="20.39" x2="85.27" y2="11.63"/>
        <rect x="29.6" y="15.14" width="56.02" height="1.73" transform="translate(-1.79 9.19) rotate(-8.98)"/>
      </g>
      <g>
        <circle class="cls-4" cx="93.17" cy="148.42" r="6.46"/>
        <path class="cls-1" d="M93.17,155.75c-3.54,0-6.66-2.58-7.23-6.18-.63-3.99,2.1-7.75,6.09-8.38,4-.63,7.75,2.1,8.38,6.09h0c.63,3.99-2.1,7.75-6.09,8.38-.39.06-.77.09-1.15.09ZM93.18,142.82c-.29,0-.58.02-.88.07-3.05.48-5.14,3.36-4.65,6.41.48,3.05,3.35,5.14,6.41,4.65,1.48-.23,2.77-1.03,3.65-2.24.88-1.21,1.23-2.69,1-4.17-.44-2.75-2.82-4.72-5.53-4.72Z"/>
      </g>
      <g>
        <circle cx="43.26" cy="160.34" r="5.34"/>
        <path d="M43.25,166.55c-1.3,0-2.56-.41-3.63-1.19-1.34-.97-2.22-2.41-2.48-4.05-.53-3.38,1.78-6.56,5.16-7.1,3.38-.54,6.56,1.78,7.1,5.16h0c.26,1.64-.13,3.28-1.11,4.62-.97,1.34-2.41,2.22-4.05,2.48-.33.05-.66.08-.98.08ZM43.26,155.86c-.23,0-.47.02-.7.06-2.44.39-4.11,2.69-3.72,5.13.19,1.18.82,2.22,1.79,2.92.97.7,2.15.99,3.33.8,1.18-.19,2.22-.82,2.92-1.79.7-.97.99-2.15.8-3.33-.35-2.2-2.26-3.78-4.42-3.78Z"/>
      </g>
      <g>
        <circle cx="65.33" cy="156.84" r="5.34"/>
        <path d="M65.33,163.05c-3,0-5.64-2.18-6.13-5.23-.53-3.38,1.78-6.57,5.16-7.1,1.64-.26,3.28.14,4.62,1.11,1.34.97,2.22,2.41,2.48,4.05.26,1.64-.13,3.28-1.11,4.62-.97,1.34-2.41,2.22-4.05,2.48-.33.05-.65.08-.97.08ZM65.34,152.36c-.24,0-.47.02-.71.06-2.44.39-4.11,2.69-3.72,5.13.39,2.44,2.69,4.11,5.13,3.72,1.18-.19,2.22-.82,2.92-1.79.7-.97.99-2.15.8-3.33h0c-.19-1.18-.82-2.22-1.79-2.92-.77-.56-1.69-.86-2.62-.86Z"/>
      </g>
      <g>
        <circle cx="56.04" cy="169.63" r="5.34"/>
        <path d="M56.04,175.83c-3,0-5.64-2.18-6.13-5.23-.26-1.64.13-3.28,1.11-4.62.97-1.34,2.41-2.22,4.05-2.48h0c1.64-.26,3.28.13,4.62,1.11,1.34.97,2.22,2.41,2.48,4.05.26,1.64-.13,3.28-1.11,4.62-.97,1.34-2.41,2.22-4.05,2.48-.33.05-.65.08-.97.08ZM56.05,165.15c-.24,0-.47.02-.71.06h0c-1.18.19-2.22.82-2.92,1.79-.7.97-.99,2.15-.8,3.33.39,2.44,2.69,4.11,5.12,3.72,1.18-.19,2.22-.82,2.92-1.79.7-.97.99-2.15.8-3.33-.19-1.18-.82-2.22-1.79-2.92-.77-.56-1.69-.86-2.62-.86Z"/>
      </g>
      <g>
        <circle cx="52.55" cy="147.56" r="5.34"/>
        <path d="M52.54,153.76c-3,0-5.64-2.18-6.13-5.24-.26-1.64.13-3.28,1.11-4.62.97-1.34,2.41-2.22,4.05-2.48h0c3.38-.53,6.56,1.78,7.1,5.16.53,3.38-1.78,6.56-5.16,7.1-.33.05-.65.08-.97.08ZM51.85,143.13h0c-1.18.19-2.22.82-2.92,1.79-.7.97-.99,2.15-.8,3.33.39,2.44,2.69,4.11,5.13,3.72,2.44-.39,4.11-2.69,3.72-5.13-.39-2.44-2.68-4.11-5.13-3.72Z"/>
      </g>
      <g>
        <circle class="cls-4" cx="112.14" cy="160.48" r="9.14"/>
        <path class="cls-1" d="M112.13,170.49c-4.83,0-9.1-3.52-9.88-8.44-.42-2.64.22-5.28,1.79-7.45,1.57-2.16,3.89-3.58,6.53-4,5.45-.86,10.58,2.87,11.45,8.32h0c.86,5.45-2.87,10.58-8.32,11.45-.53.08-1.05.12-1.57.12ZM112.15,152.2c-.44,0-.87.03-1.31.1-2.18.35-4.1,1.52-5.4,3.31s-1.83,3.98-1.48,6.16c.71,4.51,4.96,7.59,9.47,6.88,4.51-.71,7.59-4.96,6.88-9.47h0c-.35-2.18-1.52-4.1-3.31-5.4-1.43-1.04-3.11-1.58-4.85-1.58Z"/>
      </g>
    </g>
  </g>
</svg>