<svg width="89" height="73" viewBox="0 0 89 73" fill="none" xmlns="http://www.w3.org/2000/svg">
<mask id="path-1-outside-1_612_4523" maskUnits="userSpaceOnUse" x="6.09998" y="18.9323" width="72" height="54" fill="black">
<rect fill="white" x="6.09998" y="18.9323" width="72" height="54"/>
<path fill-rule="evenodd" clip-rule="evenodd" d="M11.3 20.9323C9.53266 20.9323 8.09998 22.3649 8.09998 24.1322V32.1196C8.09996 32.1238 8.09995 32.128 8.09995 32.1322V67.3322C8.09995 69.0996 9.53264 70.5322 11.2999 70.5322H72.9C74.6673 70.5322 76.1 69.0996 76.1 67.3322V32.1322C76.1 30.3649 74.6673 28.9322 72.9 28.9322H47.2434L43.3756 22.4859C42.7973 21.522 41.7556 20.9323 40.6316 20.9323H11.3Z"/>
</mask>
<path fill-rule="evenodd" clip-rule="evenodd" d="M11.3 20.9323C9.53266 20.9323 8.09998 22.3649 8.09998 24.1322V32.1196C8.09996 32.1238 8.09995 32.128 8.09995 32.1322V67.3322C8.09995 69.0996 9.53264 70.5322 11.2999 70.5322H72.9C74.6673 70.5322 76.1 69.0996 76.1 67.3322V32.1322C76.1 30.3649 74.6673 28.9322 72.9 28.9322H47.2434L43.3756 22.4859C42.7973 21.522 41.7556 20.9323 40.6316 20.9323H11.3Z" fill="#FFFBF2"/>
<path d="M8.09998 32.1196L9.59998 32.1254V32.1196H8.09998ZM47.2434 28.9322L45.9572 29.704L46.3941 30.4322H47.2434V28.9322ZM43.3756 22.4859L42.0893 23.2576V23.2576L43.3756 22.4859ZM9.59998 24.1322C9.59998 23.1934 10.3611 22.4323 11.3 22.4323V19.4323C8.70424 19.4323 6.59998 21.5365 6.59998 24.1322H9.59998ZM9.59998 32.1196V24.1322H6.59998V32.1196H9.59998ZM9.59995 32.1322C9.59995 32.13 9.59996 32.1277 9.59996 32.1254L6.59999 32.1138C6.59996 32.12 6.59995 32.1261 6.59995 32.1322H9.59995ZM9.59995 67.3322V32.1322H6.59995V67.3322H9.59995ZM11.2999 69.0322C10.3611 69.0322 9.59995 68.2711 9.59995 67.3322H6.59995C6.59995 69.928 8.70421 72.0322 11.2999 72.0322V69.0322ZM72.9 69.0322H11.2999V72.0322H72.9V69.0322ZM74.6 67.3322C74.6 68.2711 73.8388 69.0322 72.9 69.0322V72.0322C75.4957 72.0322 77.6 69.928 77.6 67.3322H74.6ZM74.6 32.1322V67.3322H77.6V32.1322H74.6ZM72.9 30.4322C73.8388 30.4322 74.6 31.1934 74.6 32.1322H77.6C77.6 29.5365 75.4957 27.4322 72.9 27.4322V30.4322ZM47.2434 30.4322H72.9V27.4322H47.2434V30.4322ZM42.0893 23.2576L45.9572 29.704L48.5296 28.1605L44.6618 21.7141L42.0893 23.2576ZM40.6316 22.4323C41.2287 22.4323 41.7821 22.7456 42.0893 23.2576L44.6618 21.7141C43.8124 20.2985 42.2825 19.4323 40.6316 19.4323V22.4323ZM11.3 22.4323H40.6316V19.4323H11.3V22.4323Z" fill="black" mask="url(#path-1-outside-1_612_4523)"/>
<g clip-path="url(#clip0_612_4523)">
<path d="M46.1237 58.8599C62.3105 58.8599 75.4325 45.7379 75.4325 29.551C75.4325 13.3642 62.3105 0.242188 46.1237 0.242188C29.9368 0.242188 16.8148 13.3642 16.8148 29.551C16.8148 45.7379 29.9368 58.8599 46.1237 58.8599Z" fill="#8ADFFF"/>
<path d="M46.1237 59.1021C29.8297 59.1021 16.5726 45.845 16.5726 29.551C16.5726 13.257 29.8272 0 46.1237 0C62.4201 0 75.6747 13.257 75.6747 29.551C75.6747 45.845 62.4177 59.1021 46.1237 59.1021ZM46.1237 0.486785C30.0961 0.486785 17.057 13.5259 17.057 29.5534C17.057 45.581 30.0961 58.6201 46.1237 58.6201C62.1513 58.6201 75.1903 45.581 75.1903 29.5534C75.1903 13.5259 62.1488 0.486785 46.1237 0.486785Z" fill="#1D1D1B"/>
<path d="M34.6393 2.62036C34.2058 3.06598 34.7797 3.84096 35.3973 3.9233C36.0149 4.00322 36.6276 3.72471 37.25 3.74408C38.7055 3.78526 39.6355 5.81474 38.7176 6.94331C38.2938 7.464 37.6399 7.7304 37.0563 8.06461C35.0001 9.24161 33.6366 11.5448 33.5931 13.9133C33.5713 15.0201 34.0847 16.3763 35.1866 16.4611C36.2692 16.5434 36.9763 15.3349 37.204 14.2717C37.4316 13.211 37.5261 11.9855 38.3786 11.3123C39.1826 10.6753 40.4153 10.8279 41.229 11.4503C42.0428 12.0727 42.5005 13.0584 42.7645 14.0489C43.181 15.611 43.0696 17.5339 41.7788 18.5075C40.4686 19.498 38.5602 19.079 37.0563 19.7402C35.407 20.4643 34.5594 22.3897 34.5666 24.1891C34.5739 25.9885 35.2738 27.7056 35.9567 29.3693C36.1214 29.7714 36.2885 30.2121 36.165 30.6287C35.9567 31.3237 35.0728 31.549 34.3511 31.4787C33.5374 31.3988 32.7503 31.0913 32.0964 30.5996C31.6265 30.246 31.2124 29.7907 30.6602 29.5873C29.5099 29.1659 28.1537 30.171 28.0326 31.3891C27.9115 32.6073 28.8414 33.7795 30.0063 34.1549C31.1325 34.5157 32.3482 34.2445 33.5277 34.1863C34.7071 34.1282 36.0706 34.3995 36.6542 35.4263C37.1023 36.211 36.9691 37.2402 37.4704 37.991C37.9693 38.7394 38.9646 38.9936 39.8631 38.9549C40.7616 38.9161 41.6383 38.6497 42.5368 38.6086C43.8543 38.5505 45.1379 38.984 46.3875 39.4126C48.2305 40.0447 50.2552 40.8294 51.1125 42.5804C51.9529 44.2926 51.3934 46.4214 52.1563 48.1699C52.6092 49.2089 53.4907 50.0153 53.9315 51.0591C54.5151 52.4444 54.1059 53.8394 53.699 56.0747C53.4326 57.5399 53.2413 57.8015 53.1468 57.9177C52.5171 58.6976 51.2287 58.7508 48.6761 58.8283C45.1766 58.9325 43.3966 58.9761 41.8515 58.5523C41.0692 58.3367 40.1247 57.9977 39.2698 57.196C38.7297 56.6875 38.0734 56.1837 38.1291 55.4547C38.209 54.3746 39.4853 53.5124 39.1947 52.4711C39.0736 52.0376 38.7079 51.7276 38.3592 51.4442C37.4462 50.7031 36.5331 49.9621 35.6201 49.221C35.0655 48.7705 34.4698 48.2498 34.3826 47.5402C34.3002 46.8718 34.695 46.2543 34.9735 45.6415C35.7 44.0456 35.6637 42.1202 34.8742 40.5533C34.0847 38.9864 32.5589 37.8118 30.8443 37.4461C30.0354 37.2742 29.1975 37.2742 28.3934 37.0828C25.308 36.3466 23.5401 33.0868 20.772 31.5393C18.9968 30.5463 18.4664 30.5488 17.8343 29.6188C16.977 28.3619 16.9963 26.7877 17.4541 24.4191C18.401 19.5295 20.2997 16.0275 20.5613 15.5504C23.2422 10.6971 26.4971 7.83938 27.6112 6.9094C29.5704 5.27467 31.428 4.16064 32.8399 3.42198C33.4405 3.15558 34.0435 2.88918 34.6441 2.62278L34.6393 2.62036Z" fill="#C4E000"/>
<path d="M34.6393 2.62041C34.2058 3.06603 34.7798 3.84101 35.3973 3.92335C35.4748 3.93304 35.5548 3.93788 35.6323 3.93788C36.1529 3.93788 36.6688 3.74171 37.1943 3.74171C37.2137 3.74171 37.2331 3.74171 37.25 3.74171C38.7055 3.78288 39.6355 5.81237 38.7177 6.94093C38.2938 7.46163 37.6399 7.72803 37.0563 8.06224C35.0002 9.23924 33.6367 11.5424 33.5931 13.9109C33.5713 15.0177 34.0847 16.3739 35.1866 16.4587C35.2205 16.4611 35.2569 16.4635 35.2908 16.4635C36.3152 16.4635 36.9861 15.2986 37.204 14.2718C37.4317 13.211 37.5261 11.9856 38.3786 11.3123C38.7346 11.0314 39.1754 10.903 39.6258 10.903C40.1925 10.903 40.7762 11.104 41.2291 11.4504C42.0428 12.0728 42.5005 13.0584 42.7645 14.049C43.1811 15.611 43.0697 17.534 41.7788 18.5075C40.4686 19.4981 38.5602 19.0791 37.0563 19.7402C35.407 20.4644 34.5594 22.3897 34.5667 24.1891C34.5763 25.9885 35.2738 27.7056 35.9568 29.3694C36.1215 29.7714 36.2886 30.2122 36.1651 30.6287C35.981 31.2439 35.2666 31.4909 34.6054 31.4909C34.5182 31.4909 34.4335 31.4861 34.3511 31.4788C33.5374 31.3989 32.7503 31.0913 32.0964 30.5997C31.6266 30.2461 31.2124 29.7908 30.6603 29.5874C30.4786 29.5195 30.2897 29.4905 30.1032 29.4905C29.1103 29.4905 28.1343 30.3648 28.0302 31.3892C27.9091 32.6074 28.8391 33.7795 30.004 34.1549C30.435 34.2929 30.8806 34.339 31.3311 34.339C32.0552 34.339 32.7987 34.2227 33.5253 34.1864C33.6246 34.1815 33.7239 34.1791 33.8232 34.1791C34.9275 34.1791 36.1166 34.4867 36.6518 35.4264C37.0999 36.211 36.9667 37.2403 37.468 37.9911C37.9354 38.691 38.8363 38.9574 39.6864 38.9574C39.7445 38.9574 39.8026 38.9574 39.8608 38.9525C40.7592 38.9138 41.6359 38.6474 42.5344 38.6062C42.6144 38.6038 42.6943 38.6014 42.7742 38.6014C44.0069 38.6014 45.213 39.0082 46.3851 39.4102C48.2281 40.0423 50.2528 40.827 51.1101 42.578C51.9505 44.2902 51.391 46.419 52.1539 48.1675C52.6068 49.2065 53.4883 50.013 53.9291 51.0568C54.5128 52.4421 54.1035 53.837 53.6966 56.0724C53.4302 57.5376 53.2389 57.7991 53.1444 57.9154C52.5148 58.6952 51.2263 58.7485 48.6737 58.826C47.3466 58.8647 46.2665 58.8962 45.3534 58.8962C43.8568 58.8962 42.8081 58.8139 41.8491 58.5499C41.0668 58.3343 40.1223 57.9953 39.2674 57.1937C38.7273 56.6851 38.071 56.1813 38.1267 55.4524C38.2066 54.3722 39.4829 53.5101 39.1923 52.4687C39.0712 52.0352 38.7055 51.7252 38.3568 51.4418C37.4438 50.7008 36.5308 49.9597 35.6177 49.2186C35.0631 48.7682 34.4674 48.2475 34.3802 47.5379C34.2978 46.8694 34.6926 46.2519 34.9711 45.6392C35.6976 44.0432 35.6613 42.1178 34.8718 40.5509C34.0823 38.984 32.5565 37.8094 30.8419 37.4437C30.033 37.2718 29.1951 37.2718 28.391 37.0805C25.3056 36.3442 23.5377 33.0845 20.7696 31.5369C18.9944 30.544 18.464 30.5464 17.8319 29.6164C16.9746 28.3595 16.9939 26.7853 17.4517 24.4168C18.3986 19.5271 20.2973 16.0252 20.5589 15.5481C23.2398 10.6948 26.4947 7.83701 27.6088 6.90703C29.568 5.2723 31.4256 4.15827 32.8375 3.41961C33.4381 3.15321 34.0411 2.88681 34.6417 2.62041M34.6393 2.13605C34.5739 2.13605 34.5061 2.15058 34.4431 2.17722L33.1935 2.73181L32.6389 2.97642C32.6389 2.97642 32.6195 2.98611 32.6122 2.99095C30.7184 3.97905 28.9311 5.17059 27.2964 6.53407C24.5282 8.84448 21.9829 11.9638 20.1326 15.3132C19.7693 15.9719 17.907 19.5029 16.9746 24.3247C16.3619 27.4901 16.713 28.839 17.4299 29.8901C17.9457 30.6457 18.4373 30.8903 19.2535 31.2947C19.5901 31.4618 20.0091 31.6701 20.5322 31.9607C21.622 32.571 22.5859 33.4937 23.5183 34.3874C24.906 35.717 26.3397 37.0901 28.2796 37.5551C28.7349 37.6641 29.1902 37.715 29.6334 37.7634C30.0209 37.807 30.3866 37.8457 30.745 37.9232C32.3071 38.255 33.7239 39.3473 34.4431 40.7737C35.1624 42.2002 35.1963 43.9875 34.5352 45.4406C34.4867 45.5496 34.4335 45.6585 34.3802 45.7675C34.1186 46.3052 33.8207 46.913 33.9055 47.6008C34.0121 48.4727 34.6635 49.066 35.3198 49.5988L36.6906 50.7105L38.0613 51.8221C38.3859 52.0836 38.6595 52.3234 38.7346 52.6019C38.8387 52.9797 38.5869 53.389 38.2914 53.8612C38.0129 54.3117 37.6956 54.8227 37.6521 55.4185C37.5867 56.3024 38.2406 56.903 38.7661 57.385C38.8266 57.4407 38.8848 57.494 38.9453 57.5497C39.885 58.4312 40.9264 58.7993 41.7304 59.0197C42.6725 59.2788 43.7236 59.3854 45.3655 59.3854C46.264 59.3854 47.3151 59.3563 48.7004 59.3152C51.3135 59.2377 52.7545 59.1941 53.5368 58.2254C53.7087 58.0122 53.9146 57.6586 54.1882 56.1644C54.2464 55.8471 54.3045 55.5492 54.3578 55.2635C54.7017 53.4834 54.9487 52.1974 54.3917 50.8727C54.1471 50.2939 53.7886 49.795 53.4423 49.3106C53.1202 48.8626 52.8175 48.4412 52.614 47.9762C52.2774 47.2061 52.2241 46.3367 52.166 45.4139C52.103 44.3919 52.0352 43.3336 51.5606 42.3673C50.6378 40.4855 48.5841 39.65 46.5571 38.9549C45.4164 38.5626 44.1207 38.1194 42.7887 38.1194C42.7015 38.1194 42.6144 38.1194 42.5272 38.1243C42.0477 38.1461 41.5827 38.226 41.1322 38.3035C40.6914 38.381 40.2725 38.4512 39.8535 38.4706C39.8026 38.4706 39.7518 38.473 39.7009 38.473C39.3062 38.473 38.3374 38.4003 37.8845 37.7222C37.6763 37.4122 37.5988 37.003 37.5164 36.5695C37.4292 36.1093 37.3396 35.6322 37.0853 35.1866C36.5356 34.2227 35.3828 33.6923 33.8328 33.6923C33.7239 33.6923 33.6173 33.6948 33.5107 33.6996C33.2008 33.7141 32.8908 33.7432 32.588 33.7723C32.1545 33.8134 31.7452 33.8522 31.3384 33.8522C30.8758 33.8522 30.5004 33.8013 30.1589 33.6923C29.1466 33.3678 28.4249 32.3773 28.5194 31.4376C28.5969 30.6723 29.3525 29.9748 30.1081 29.9748C30.2437 29.9748 30.3745 29.9966 30.498 30.0427C30.8128 30.1565 31.0938 30.3962 31.3941 30.6481C31.5273 30.7595 31.6629 30.8758 31.8082 30.9847C32.5372 31.5345 33.3993 31.8711 34.3075 31.9607C34.4068 31.9704 34.5085 31.9753 34.6102 31.9753C35.6371 31.9753 36.4121 31.5127 36.6349 30.7668C36.8141 30.1662 36.5719 29.5752 36.4121 29.1853C35.7509 27.5748 35.068 25.9086 35.0583 24.1867C35.051 22.6779 35.7291 20.8543 37.2573 20.1834C37.841 19.9267 38.507 19.8516 39.2141 19.7693C40.2047 19.6555 41.2267 19.5368 42.0767 18.895C43.6025 17.7422 43.6775 15.5699 43.2392 13.923C42.8953 12.6298 42.3189 11.6683 41.5294 11.0629C40.9917 10.6512 40.2991 10.4162 39.6307 10.4162C39.0422 10.4162 38.507 10.593 38.0831 10.9297C37.2258 11.6078 37.0175 12.7 36.8359 13.6615C36.8044 13.8334 36.7705 14.003 36.7366 14.1676C36.5453 15.0661 35.9883 15.9767 35.298 15.9767C35.2763 15.9767 35.2545 15.9767 35.2302 15.9743C34.4141 15.9138 34.0702 14.7368 34.0847 13.9206C34.1259 11.7143 35.3901 9.58072 37.3033 8.48605C37.4268 8.41582 37.5528 8.34801 37.6811 8.2802C38.1849 8.01138 38.7055 7.73287 39.1003 7.25093C39.6428 6.58493 39.7276 5.61862 39.3207 4.73224C38.9138 3.84585 38.1292 3.28157 37.2694 3.25735C37.2452 3.25735 37.2234 3.25735 37.1992 3.25735C36.8916 3.25735 36.6034 3.31063 36.3249 3.36391C36.0803 3.40992 35.8502 3.45352 35.6371 3.45352C35.5766 3.45352 35.5184 3.45109 35.4652 3.44383C35.2762 3.41961 35.0534 3.23797 34.9905 3.05634C34.9663 2.98853 34.9808 2.974 34.9905 2.96189C35.1527 2.79478 35.1745 2.53565 35.0413 2.34432C34.9469 2.21112 34.7967 2.13605 34.6417 2.13605H34.6393Z" fill="#1D1D1B"/>
<path d="M48.9063 4.08563C47.2256 4.22125 45.5884 4.86304 44.2637 5.90684C43.8932 6.19988 43.5347 6.53651 43.341 6.9676C43.1472 7.39868 43.1472 7.94601 43.45 8.30928C43.9852 8.95833 45.1404 8.75248 45.6756 9.3991C46.143 9.96339 45.8694 10.7989 45.8742 11.5327C45.879 12.3416 46.2835 13.1408 46.9325 13.6228C47.5816 14.1071 48.4631 14.2621 49.2405 14.0345C50.1075 13.7802 50.7978 13.0754 51.1828 12.2568C51.5679 11.4383 51.672 10.5131 51.643 9.6098C51.5776 7.56821 51.7108 6.12238 50.7009 5.06889C50.4006 4.75648 49.8557 4.31571 48.9087 4.08563H48.9063Z" fill="#C4E000"/>
<path d="M48.9063 4.08562C49.8508 4.31812 50.3982 4.75647 50.6985 5.06888C51.7084 6.12237 51.5776 7.5682 51.6406 9.60979C51.6696 10.5131 51.5655 11.4383 51.1804 12.2568C50.7953 13.0754 50.1051 13.7777 49.2381 14.0345C49.0032 14.1047 48.7562 14.1386 48.5116 14.1386C47.9473 14.1386 47.383 13.9594 46.9301 13.6227C46.2811 13.1384 45.8766 12.3416 45.8718 11.5327C45.8669 10.7989 46.1406 9.96338 45.6732 9.39909C45.1356 8.75247 43.9828 8.95832 43.4475 8.30927C43.1472 7.94358 43.1448 7.39867 43.3386 6.96759C43.5323 6.5365 43.8883 6.19987 44.2613 5.90683C45.586 4.86303 47.2232 4.22125 48.9039 4.08562M48.9063 3.59884C48.8942 3.59884 48.8797 3.59884 48.8676 3.59884C47.0996 3.74172 45.3559 4.42468 43.9634 5.52176C43.5977 5.80996 43.1472 6.20956 42.8978 6.76415C42.6072 7.40836 42.6774 8.1349 43.0746 8.61442C43.4427 9.06004 43.9731 9.19808 44.4405 9.32159C44.7965 9.41605 45.1331 9.50323 45.3027 9.70666C45.5134 9.96095 45.4746 10.3824 45.4286 10.8691C45.4092 11.0847 45.3874 11.3075 45.3874 11.5327C45.3923 12.4893 45.8742 13.4387 46.6419 14.0102C47.1723 14.405 47.8359 14.6205 48.5116 14.6205C48.807 14.6205 49.0976 14.5794 49.3762 14.497C50.3279 14.2161 51.1465 13.475 51.6212 12.4603C51.9966 11.6586 52.1637 10.719 52.1273 9.59042C52.1177 9.30948 52.1128 9.03824 52.108 8.77911C52.0765 7.09837 52.0498 5.77363 51.0496 4.72741C50.5314 4.18734 49.8508 3.80954 49.0226 3.60852C48.9838 3.59884 48.9451 3.59399 48.9063 3.59399V3.59884Z" fill="#1D1D1B"/>
<path d="M56.7651 2.69305C55.6196 3.84584 54.7211 5.24323 54.1447 6.76413C53.8226 7.61661 53.7161 8.80088 54.5201 9.23196C55.484 9.74781 56.6247 8.58049 57.6878 8.82994C58.5912 9.04306 58.9569 10.1862 58.7777 11.0968C58.5984 12.0074 58.0511 12.8017 57.7726 13.6881C57.4941 14.5745 57.5789 15.7127 58.3684 16.202C58.5766 16.3303 58.8479 16.4005 59.0659 16.2891C59.2451 16.1995 59.3468 16.0106 59.4388 15.8338C59.9014 14.9353 60.3252 14.0054 60.9549 13.2183C61.587 12.4288 62.4661 11.7797 63.4711 11.6756C65.1591 11.4988 66.7188 13.0197 66.9295 14.7053C67.0046 15.301 66.9295 15.9428 66.5759 16.4272C65.9801 17.2385 64.837 17.3475 63.9192 17.764C62.5 18.4058 61.5773 19.8516 61.1825 21.358C60.7878 22.8644 60.8507 24.4458 60.9137 26.0031C60.9549 26.9766 60.9985 27.9768 61.386 28.8729C61.4925 29.1199 61.6378 29.367 61.8752 29.4953C62.1682 29.6527 62.5266 29.5849 62.8487 29.5026C64.0039 29.2095 65.1228 28.7857 66.1812 28.2384C66.7018 27.9696 67.2395 27.662 67.8256 27.679C69.0994 27.7104 69.8211 29.195 69.9059 30.4665C70.1118 33.5349 68.3753 36.6082 69.1115 39.5967C69.3562 40.5945 69.8793 41.5221 70.6034 42.251C70.739 42.3891 70.8892 42.5223 71.0756 42.5756C71.652 42.7427 72.1146 42.1033 72.3737 41.5608C73.1657 39.9043 73.885 38.5602 74.0157 38.1243C74.4105 36.7995 74.6309 36.0609 74.8803 34.6029C75.0208 33.7819 75.464 31.0235 75.4083 28.4394C75.2654 21.978 71.9935 16.2746 70.8649 14.4486C69.8429 12.7969 67.8086 9.57586 63.9385 6.62124C61.2285 4.55301 58.6202 3.37601 56.7651 2.70032V2.69305Z" fill="#C4E000"/>
<path d="M56.7651 2.69305C58.6202 3.36873 61.2309 4.54574 63.9385 6.61397C67.8062 9.56859 69.8429 12.7872 70.8649 14.4413C71.9959 16.2673 75.2678 21.9707 75.4083 28.4321C75.464 31.0162 75.0208 33.7747 74.8803 34.5957C74.6309 36.0536 74.4105 36.7922 74.0157 38.117C73.8849 38.5529 73.1657 39.897 72.3737 41.5535C72.1437 42.0355 71.7513 42.5949 71.2621 42.5949C71.2016 42.5949 71.1386 42.5852 71.0756 42.5683C70.8892 42.515 70.739 42.3794 70.6034 42.2438C69.8793 41.5148 69.3586 40.5872 69.1115 39.5894C68.3753 36.6033 70.1117 33.5301 69.9059 30.4592C69.8211 29.1877 69.0994 27.7056 67.8256 27.6717C67.811 27.6717 67.7965 27.6717 67.7844 27.6717C67.2153 27.6717 66.6897 27.9696 66.1811 28.2335C65.1228 28.7809 64.0015 29.2047 62.8487 29.4977C62.6695 29.5437 62.4758 29.5849 62.2917 29.5849C62.1464 29.5849 62.0059 29.5583 61.8752 29.4905C61.6378 29.3645 61.4925 29.1151 61.3859 28.8681C60.9984 27.9744 60.9524 26.9742 60.9137 25.9982C60.8507 24.4434 60.7878 22.8595 61.1825 21.3532C61.5773 19.8468 62.5 18.401 63.9192 17.7592C64.837 17.345 65.9777 17.2336 66.5759 16.4223C66.9319 15.938 67.0046 15.2962 66.9295 14.7004C66.7285 13.1044 65.3214 11.6562 63.7399 11.6562C63.6503 11.6562 63.5607 11.661 63.4711 11.6707C62.4661 11.7749 61.5869 12.4239 60.9549 13.2134C60.3228 14.0029 59.8989 14.9329 59.4388 15.829C59.3468 16.0058 59.2426 16.1947 59.0658 16.2843C58.9908 16.323 58.9084 16.34 58.8237 16.34C58.6662 16.34 58.504 16.2819 58.3684 16.1971C57.5788 15.7079 57.4941 14.5696 57.7726 13.6833C58.0511 12.7969 58.596 12.0025 58.7776 11.0919C58.9593 10.1813 58.5936 9.03821 57.6878 8.82509C57.5837 8.80087 57.4771 8.78876 57.3706 8.78876C56.598 8.78876 55.8012 9.36031 55.0698 9.36031C54.8809 9.36031 54.6969 9.32156 54.5201 9.22711C53.716 8.79845 53.8226 7.61176 54.1447 6.75928C54.7187 5.23838 55.6196 3.84099 56.7651 2.6882M56.7651 2.20626C56.6368 2.20626 56.5132 2.25712 56.4212 2.34915C55.2321 3.54552 54.2876 5.01315 53.6918 6.58975C53.2922 7.64324 53.2123 9.07938 54.2924 9.65819C54.5274 9.78413 54.7913 9.84952 55.0723 9.84952C55.5203 9.84952 55.9465 9.6921 56.3607 9.53952C56.7264 9.40632 57.0703 9.27797 57.373 9.27797C57.4456 9.27797 57.5135 9.28523 57.5788 9.29977C58.177 9.44023 58.4386 10.3072 58.303 10.9975C58.2109 11.4649 58.0027 11.9105 57.7847 12.3827C57.6152 12.7509 57.4384 13.1311 57.3124 13.5355C56.845 15.0225 57.3778 16.1511 58.1165 16.6064C58.2763 16.7057 58.5282 16.8219 58.8285 16.8219C58.9932 16.8219 59.1506 16.7856 59.2911 16.713C59.6204 16.5458 59.7803 16.2334 59.8772 16.0445C59.9522 15.8992 60.0249 15.7539 60.1 15.6086C60.4826 14.8506 60.8435 14.1337 61.3423 13.5113C61.7129 13.0487 62.4879 12.2568 63.5292 12.1478C63.6019 12.1406 63.6746 12.1357 63.7472 12.1357C65.038 12.1357 66.278 13.3345 66.4548 14.7537C66.496 15.0782 66.5153 15.6885 66.1908 16.1269C65.8663 16.5676 65.2705 16.7638 64.6409 16.9697C64.3381 17.069 64.0257 17.1731 63.7254 17.3063C62.2965 17.9529 61.1995 19.3794 60.7199 21.22C60.3034 22.8087 60.3712 24.4337 60.4366 26.0079C60.4753 26.9694 60.5214 28.0616 60.95 29.0497C61.0663 29.3185 61.2649 29.6987 61.6548 29.907C61.8437 30.0063 62.0592 30.0572 62.299 30.0572C62.5387 30.0572 62.7761 30.0063 62.9747 29.9555C64.1638 29.6551 65.3214 29.2168 66.4112 28.6525L66.5323 28.5895C66.9707 28.3619 67.3848 28.1464 67.7917 28.1464H67.8207C68.8233 28.173 69.3658 29.5268 69.4288 30.481C69.516 31.7694 69.2302 33.1111 68.9541 34.4092C68.5884 36.1335 68.2082 37.9184 68.6466 39.6936C68.9154 40.7834 69.4748 41.7788 70.2643 42.5755C70.4387 42.7499 70.6542 42.9412 70.9449 43.026C71.0514 43.0575 71.1604 43.072 71.2694 43.072C71.8627 43.072 72.4125 42.6046 72.8193 41.7521C73.1172 41.1297 73.4006 40.5557 73.6524 40.0496C74.0981 39.1511 74.3935 38.5553 74.488 38.2453C74.89 36.8964 75.1104 36.1553 75.3671 34.6683C75.5463 33.6245 75.9556 30.9266 75.8999 28.4128C75.7594 22.07 72.6256 16.3448 71.2839 14.1773C70.3781 12.7145 68.2591 9.29008 64.2388 6.22163C62.0277 4.53363 59.5696 3.18952 56.9371 2.23048C56.8838 2.2111 56.8257 2.20142 56.77 2.20142L56.7651 2.20626Z" fill="#1D1D1B"/>
<path d="M7.36984 22.9685C6.54642 23.1066 6.12502 23.172 5.56801 23.0509C5.32582 22.9976 4.19483 22.7506 4.05195 22.1088C3.91632 21.4985 4.78576 21.0359 4.58475 20.554C4.4467 20.2198 4.00593 20.3869 3.64266 19.9389C3.31087 19.532 3.31329 18.9459 3.31571 18.5463C3.31571 18.0038 3.44407 17.9578 3.35688 17.7277C3.16556 17.2216 2.5262 17.362 1.92317 16.8268C1.28865 16.2625 1.21115 15.4004 1.18694 15.1073C1.15061 14.7126 1.07069 13.802 1.55505 13.4702C2.27191 12.981 3.61602 14.1773 3.9696 13.7971C4.14155 13.6131 3.92601 13.228 3.56032 12.2011C3.56032 12.2011 3.17767 11.1259 2.94518 10.1959C2.61581 8.87841 2.32519 7.71351 2.94518 6.96033C3.33267 6.48807 4.05437 6.20714 4.6235 6.38636C5.31371 6.60432 5.57527 7.43016 5.89253 8.43279C6.05479 8.9438 6.08627 9.25864 6.30182 10.9297C6.53189 12.6976 6.58275 13.0682 6.63603 13.0657C6.75227 13.0609 6.83946 11.3148 6.91454 9.78417C6.97024 8.68224 6.98477 8.03804 7.36499 7.2461C7.59022 6.77385 7.89537 6.15871 8.51051 6.01824C9.02394 5.89957 9.61971 6.1466 9.94423 6.55104C10.2252 6.90221 10.2179 7.2679 9.94423 9.3773C9.78681 10.5931 9.89337 11.833 9.72869 13.0464C9.70447 13.2207 9.6633 13.5041 9.83041 13.7148C10.1719 14.1483 10.9372 13.7002 11.7848 14.003C12.4581 14.2427 13.049 14.9039 13.1774 15.599C13.3953 16.7832 12.2328 17.844 11.8672 18.1782C10.7773 19.1736 9.61002 19.3334 9.65603 19.733C9.70205 20.135 10.8839 20.0599 11.0486 20.6339C11.2375 21.2926 9.89822 22.179 9.82072 22.2299C9.14745 22.6682 8.53473 22.7724 7.36499 22.9661L7.36984 22.9685Z" fill="#FFFAF0"/>
<path d="M6.15403 23.3512C5.94575 23.3512 5.7399 23.3318 5.51951 23.281C4.52415 23.063 3.93807 22.6755 3.82182 22.1572C3.72979 21.748 3.96471 21.4089 4.15603 21.1352C4.31829 20.9003 4.41274 20.7502 4.36915 20.6412C4.34735 20.5879 4.30376 20.5685 4.14634 20.5177C3.95502 20.4571 3.69346 20.3724 3.46339 20.0866C3.07832 19.6143 3.08074 18.9701 3.08316 18.5439C3.08316 18.2654 3.11707 18.1007 3.13645 17.9917C3.15824 17.8803 3.16066 17.8682 3.13645 17.8101C3.07348 17.6454 2.93543 17.5897 2.65208 17.488C2.39537 17.3959 2.07811 17.2797 1.76812 17.0036C1.06337 16.3764 0.978605 15.4367 0.951965 15.1267C0.913216 14.6932 0.823609 13.6809 1.42422 13.2716C1.92554 12.9301 2.59396 13.2062 3.1316 13.4266C3.34957 13.5162 3.71526 13.6688 3.80487 13.6276C3.81698 13.5598 3.69346 13.2353 3.56511 12.8914C3.49972 12.717 3.42464 12.5136 3.33988 12.2786C3.32535 12.2351 2.95239 11.1816 2.71989 10.2492C2.38568 8.91232 2.07085 7.65055 2.76591 6.80533C3.23574 6.23621 4.06642 5.95527 4.70094 6.15629C5.50983 6.41058 5.7956 7.31391 6.12497 8.35772C6.27997 8.8445 6.31871 9.15934 6.49066 10.4889L6.54394 10.8982C6.56332 11.0508 6.58269 11.1937 6.59965 11.3317C6.63113 10.8062 6.66019 10.2419 6.68199 9.77206L6.68925 9.6316C6.74011 8.61685 6.77159 7.94359 7.15666 7.14439C7.38189 6.67213 7.72579 5.95527 8.46445 5.78575C9.05052 5.65255 9.73832 5.90442 10.1379 6.40089C10.4891 6.83924 10.4673 7.25821 10.1888 9.40637C10.1113 9.99487 10.0992 10.6076 10.0871 11.1985C10.0725 11.8137 10.0604 12.4506 9.97566 13.0778C9.95386 13.2353 9.92722 13.4387 10.0289 13.567C10.1282 13.693 10.3292 13.6881 10.678 13.6663C11.0146 13.647 11.4312 13.6203 11.8768 13.7777C12.6445 14.0514 13.2814 14.7828 13.4243 15.5554C13.6665 16.8704 12.4435 17.9869 12.039 18.355C11.4651 18.8805 10.8742 19.1784 10.4431 19.3988C10.2372 19.5029 9.98293 19.6313 9.91511 19.7088C9.9805 19.7621 10.1912 19.8299 10.3196 19.871C10.6974 19.9897 11.1648 20.1399 11.2883 20.5709C11.5159 21.3726 10.2227 22.2638 9.96113 22.4333C9.24427 22.8983 8.59522 23.0073 7.41338 23.2059C6.90479 23.2907 6.52457 23.3536 6.15645 23.3536L6.15403 23.3512ZM1.98366 13.5888C1.87226 13.5888 1.77296 13.6106 1.69062 13.6663C1.3225 13.9182 1.39758 14.7659 1.42422 15.0855C1.44844 15.3471 1.51867 16.1463 2.08295 16.6476C2.32514 16.8631 2.57216 16.9528 2.81192 17.0399C3.11949 17.1513 3.43675 17.2652 3.57964 17.643C3.64987 17.8294 3.62565 17.953 3.59901 18.0837C3.57964 18.1855 3.553 18.3138 3.553 18.5463C3.553 18.9265 3.55058 19.4448 3.82666 19.7863C3.96955 19.9631 4.12455 20.0115 4.28681 20.0648C4.46845 20.1229 4.69367 20.1956 4.80266 20.4595C4.95281 20.818 4.73484 21.1328 4.5411 21.4089C4.38368 21.6341 4.23595 21.8497 4.28197 22.0555C4.34978 22.3631 4.84867 22.6489 5.61397 22.816C6.11528 22.9274 6.50035 22.8693 7.32619 22.7312C8.4814 22.5375 9.06021 22.4406 9.69231 22.0289C10.2203 21.685 10.9202 21.0456 10.8209 20.6969C10.7676 20.5128 10.4479 20.4111 10.167 20.3215C9.82066 20.2101 9.45981 20.0987 9.42106 19.7596C9.37747 19.3964 9.73106 19.2172 10.2178 18.9701C10.6247 18.7643 11.1817 18.4809 11.7097 17.999C12.0633 17.6769 13.141 16.6936 12.9472 15.6401C12.8358 15.0347 12.3151 14.4389 11.7097 14.2258C11.3585 14.0998 11.0098 14.1216 10.6998 14.141C10.3074 14.1652 9.90301 14.1895 9.64629 13.8601C9.42106 13.5719 9.4695 13.211 9.49614 13.0197C9.57848 12.4118 9.59059 11.7894 9.60512 11.1864C9.61723 10.5834 9.63176 9.95854 9.71168 9.3434C9.97566 7.31876 9.9805 6.97244 9.76254 6.69877C9.48403 6.35003 8.9706 6.15629 8.56858 6.25074C8.09149 6.35972 7.83235 6.83197 7.58532 7.35024C7.24385 8.06468 7.21479 8.66287 7.16393 9.65581L7.15666 9.7987C6.98229 13.2958 6.94354 13.2982 6.64808 13.3079C6.46402 13.316 6.27109 12.5345 6.06927 10.9636L6.01599 10.5543C5.84888 9.26106 5.81013 8.95349 5.66967 8.50787C5.36694 7.55125 5.12718 6.79565 4.55563 6.61643C4.10517 6.47597 3.48034 6.69151 3.13402 7.1129C2.59154 7.77406 2.8652 8.86872 3.18004 10.1378C3.40769 11.0484 3.78307 12.1115 3.78791 12.1212C3.87026 12.3537 3.94533 12.5547 4.01072 12.7267C4.25775 13.383 4.38126 13.7099 4.14634 13.9594C3.87268 14.25 3.42464 14.0659 2.94754 13.8698C2.6206 13.7342 2.26459 13.5888 1.98366 13.5888Z" fill="black"/>
<path d="M6.41062 18.5923C6.49296 18.2726 6.6528 17.8803 6.98459 17.5606C7.74504 16.8244 8.96322 16.9116 8.95595 16.805C8.95111 16.713 8.05503 16.8849 7.21466 16.4151C6.99428 16.2916 6.43484 15.9792 6.32101 15.3834C6.22172 14.8651 6.51476 14.4341 6.6189 14.2839C6.70608 14.1556 7.02334 13.693 7.62637 13.5743C8.10105 13.4823 8.28026 13.8407 9.02376 14.0102C9.43789 14.1047 9.79632 14.0999 10.0312 14.0781" fill="#FFFAF0"/>
<path d="M6.64311 18.6529L6.18055 18.5318C6.30164 18.0644 6.51718 17.6817 6.81991 17.3887C7.07904 17.1392 7.38419 16.9745 7.67965 16.8656C7.49075 16.8098 7.29458 16.7324 7.09842 16.6234C6.85866 16.4877 6.22172 16.1317 6.0861 15.4294C5.96743 14.8118 6.3089 14.313 6.42273 14.1483C6.72788 13.7027 7.11779 13.429 7.58278 13.3394C7.9291 13.2716 8.15917 13.3902 8.4062 13.5162C8.58299 13.6058 8.78158 13.7075 9.08188 13.7777C9.38461 13.848 9.69945 13.8698 10.0167 13.8407L10.0579 14.3154C9.68976 14.3469 9.32649 14.3202 8.97532 14.2403C8.6169 14.158 8.37956 14.0369 8.18823 13.94C7.96058 13.8237 7.8516 13.7729 7.67481 13.8068C7.33818 13.8722 7.04756 14.078 6.81748 14.4171C6.72303 14.5527 6.47601 14.916 6.55593 15.3374C6.65038 15.8242 7.12748 16.0906 7.33091 16.2044C7.85887 16.4999 8.42315 16.5168 8.72588 16.5265C8.939 16.5338 9.17876 16.541 9.19329 16.7856C9.21024 17.0375 8.96079 17.0738 8.72346 17.1077C8.34323 17.161 7.63364 17.2627 7.14927 17.7301C6.91194 17.9602 6.73999 18.2702 6.64069 18.6504L6.64311 18.6529Z" fill="black"/>
<path d="M4.43909 15.0153C5.42719 15.3664 5.78804 16.4587 5.42477 17.1247C5.07603 17.7616 4.03222 18.0571 3.20154 17.5" fill="#FFFAF0"/>
<path d="M4.16304 18.0329C3.78039 18.0329 3.39775 17.9166 3.0708 17.6987L3.3372 17.3039C3.6811 17.5364 4.1025 17.6139 4.49725 17.517C4.81693 17.4395 5.08575 17.2506 5.21653 17.0109C5.35458 16.759 5.36184 16.4151 5.23833 16.0906C5.08818 15.6958 4.7685 15.3858 4.36163 15.2429L4.52147 14.7925C5.06154 14.9838 5.48535 15.3955 5.68636 15.921C5.86316 16.3812 5.84378 16.8631 5.63793 17.2409C5.44176 17.6018 5.06638 17.8706 4.61108 17.982C4.46335 18.0183 4.31319 18.0353 4.16546 18.0353L4.16304 18.0329Z" fill="black"/>
<path d="M18.9414 33.7142C17.7208 33.581 13.2888 32.9513 9.74573 29.1636C7.01876 26.2477 6.268 23.0073 6.03308 21.6535C6.2244 21.4695 6.75236 21.0093 7.58305 20.8665C8.32412 20.7381 8.91262 20.9294 9.16207 21.0263C9.23473 21.7286 9.61253 24.6203 12.124 26.9089C14.7565 29.3089 17.8516 29.3234 18.5176 29.3138C19.4306 29.6649 20.0578 30.5126 20.1135 31.474C20.1668 32.3725 19.7139 33.2323 18.939 33.7142H18.9414Z" fill="#8ADFFF"/>
<path d="M18.9994 33.966L18.917 33.9563C17.2363 33.7747 12.9642 32.9585 9.57121 29.3307C7.08401 26.6691 6.14676 23.712 5.7956 21.6971L5.7738 21.5687L5.86583 21.4791C6.13223 21.2248 6.70136 20.7744 7.54173 20.6291C8.26585 20.5031 8.87131 20.6533 9.25153 20.8034L9.38958 20.8567L9.40411 21.0044C9.51067 22.0337 10.0047 24.6493 12.2885 26.732C14.6691 28.902 17.4349 29.0909 18.515 29.0715H18.561L18.6046 29.0885C19.6072 29.4735 20.295 30.4035 20.358 31.4619C20.4161 32.45 19.9221 33.392 19.0696 33.9224L18.9994 33.966ZM6.29692 21.7431C6.65292 23.6878 7.57321 26.4826 9.9248 28.9964C13.1507 32.4451 17.2024 33.2685 18.8831 33.4623C19.5418 33.0191 19.9196 32.2707 19.8736 31.4885C19.8252 30.636 19.2779 29.8828 18.4738 29.5559C17.3017 29.5728 14.4366 29.3452 11.9615 27.0881C9.6584 24.9908 9.08201 22.3776 8.93912 21.203C8.61702 21.0965 8.15929 21.0117 7.62407 21.1037C6.99924 21.2127 6.54879 21.5203 6.29692 21.7407V21.7431Z" fill="#1D1D1B"/>
<path d="M84.6619 42.7039C84.7927 42.6578 85.5579 42.3745 85.8243 41.6189C85.9527 41.2508 85.9624 40.7737 85.7711 40.4298C85.0445 39.1268 81.1624 39.2407 80.3777 40.8027C80.3632 40.8318 80.0677 41.4445 80.3414 42.033C80.6489 42.6942 81.5547 43.0671 82.6372 42.946" fill="#FFFAF0"/>
<path d="M82.228 43.2052C81.2399 43.2052 80.4383 42.8056 80.1234 42.1323C79.8013 41.4373 80.1476 40.7253 80.1646 40.6962C80.6659 39.7008 82.1481 39.3206 83.2669 39.2964C84.2938 39.2698 85.5435 39.5289 85.9794 40.3136C86.2312 40.7664 86.1804 41.3259 86.0496 41.6988C85.7638 42.515 84.9767 42.8492 84.7418 42.9315L84.5844 42.4811C84.7685 42.4157 85.3836 42.159 85.6016 41.5414C85.7202 41.1999 85.7057 40.8003 85.5652 40.5461C85.294 40.0617 84.3713 39.7493 83.279 39.7735C82.2159 39.7953 80.9711 40.1561 80.5932 40.9093C80.5932 40.9142 80.3317 41.4445 80.5593 41.9313C80.8257 42.5029 81.6516 42.8153 82.6106 42.7063L82.6639 43.181C82.5162 43.1979 82.3709 43.2052 82.2304 43.2052H82.228Z" fill="black"/>
<path d="M73.3255 34.3898C74.2022 34.4164 75.9507 34.5956 77.7138 35.7218C80.7507 37.6592 81.4628 40.8851 81.5935 41.5414C81.7606 41.6407 82.3855 41.9773 83.2016 41.8369C84.1195 41.6795 84.616 41.0353 84.7177 40.8948C84.5772 39.8873 83.9379 36.2013 80.6757 33.2976C77.876 30.8055 74.7737 30.3405 73.6718 30.2267C73.4393 30.4979 73.0881 30.9871 72.9186 31.6822C72.5892 33.0166 73.1656 34.1113 73.3255 34.3922V34.3898Z" fill="#8ADFFF"/>
<path d="M82.8117 42.1105C82.1699 42.1105 81.6783 41.8684 81.4724 41.7497L81.378 41.694L81.3562 41.5874C81.1334 40.4661 80.3196 37.6689 77.5854 35.9252C76.0015 34.9153 74.391 34.6635 73.3182 34.632L73.1826 34.6271L73.1147 34.5085C72.875 34.0871 72.3519 32.9585 72.6837 31.6217C72.8217 31.0598 73.1002 30.5221 73.4901 30.0668L73.5725 29.97L73.6984 29.9821C75.229 30.1395 78.1909 30.7571 80.8403 33.1135C83.9718 35.901 84.7661 39.4587 84.9598 40.8585L84.9744 40.9578L84.9163 41.0377C84.7249 41.2944 84.1824 41.912 83.2452 42.0742C83.0951 42.1009 82.9497 42.1105 82.8117 42.1105ZM81.8091 41.3816C82.0609 41.5099 82.555 41.6988 83.1604 41.5947C83.841 41.476 84.2696 41.0619 84.4634 40.8246C84.2503 39.4126 83.4535 36.0923 80.5158 33.4768C78.0407 31.2753 75.2823 30.6529 73.7759 30.4786C73.478 30.8539 73.2649 31.285 73.1535 31.7355C72.8919 32.7962 73.2455 33.7117 73.4707 34.15C74.6017 34.2033 76.234 34.4891 77.8421 35.5135C80.6466 37.3032 81.5402 40.1319 81.8066 41.3792L81.8091 41.3816Z" fill="#1D1D1B"/>
<path d="M40.9023 26.7611C40.786 26.6667 39.7204 25.8239 38.4345 26.1823C38.2577 26.2308 37.4076 26.4681 36.9693 27.3012C36.4825 28.2215 36.8748 29.1563 36.9693 29.384C37.5045 30.6627 38.8292 31.0332 39.0133 31.0792" fill="#8ADFFF"/>
<path d="M38.9526 31.3117C38.6837 31.2415 37.3106 30.8177 36.7463 29.4736C36.3079 28.4273 36.5089 27.6499 36.756 27.1849C37.0708 26.5892 37.6448 26.1484 38.3713 25.9474C39.7348 25.5672 40.8488 26.4003 41.0571 26.5722L40.7495 26.9476C40.6406 26.8604 39.6597 26.0927 38.5021 26.4148C37.9063 26.5819 37.4389 26.9355 37.187 27.4126C36.9909 27.7856 36.831 28.4152 37.1967 29.2871C37.6714 30.4205 38.846 30.7813 39.0785 30.8419L38.955 31.3117H38.9526Z" fill="#1D1D1B"/>
<path d="M49.1605 29.4518C49.4245 28.8439 51.8197 23.2955 50.9478 21.9175C50.6306 21.4162 50.2213 21.3023 50.2213 21.3023C49.6231 21.1376 49.0201 21.6123 48.7561 21.8182C47.1504 23.0799 46.0969 28.3087 45.9758 28.9262" fill="#FFFAF0"/>
<path d="M49.3785 29.5462L48.9402 29.3549C50.248 26.3615 51.3111 22.9419 50.7444 22.0434C50.4853 21.6341 50.1681 21.5348 50.1535 21.5324C49.674 21.4016 49.1339 21.8254 48.9014 22.0071C47.3757 23.2059 46.3222 28.3861 46.2084 28.9722L45.741 28.8802C45.9347 27.8945 46.9809 22.908 48.6084 21.6293C48.8966 21.404 49.5699 20.8737 50.2843 21.0698C50.3037 21.0747 50.788 21.2127 51.1513 21.7867C52.0377 23.1889 50.0203 28.0786 49.381 29.5438L49.3785 29.5462Z" fill="black"/>
<path d="M47.0051 28.822L47.3878 27.8993C47.4483 27.754 47.596 27.6668 47.7535 27.6838C48.0877 27.7201 48.4219 27.7589 48.7537 27.7952C48.8772 27.8097 48.9474 27.6596 48.8602 27.57C48.0005 26.686 48.0126 25.4024 48.6205 24.8042C49.1121 24.3223 50.03 24.2448 50.8461 24.6589L49.1145 29.3936C48.8433 29.2507 48.4849 29.0957 48.0465 28.9795C47.6493 28.8753 47.2933 28.8317 47.0075 28.8172L47.0051 28.822Z" fill="black"/>
<path d="M43.215 27.8146C43.4789 27.2067 45.8741 21.6583 45.0023 20.2803C44.685 19.779 44.2757 19.6652 44.2757 19.6652C43.6775 19.5005 43.0745 19.9752 42.8105 20.181C41.2049 21.4428 40.1514 26.6715 40.0303 27.2891" fill="#61C5FF"/>
<path d="M43.4379 27.9115L42.9923 27.7177C44.2977 24.7268 45.3633 21.3072 44.7965 20.4111C44.5398 20.0042 44.2202 19.9049 44.208 19.9001C43.7309 19.7693 43.1909 20.1931 42.9608 20.3748C41.4351 21.5711 40.384 26.7514 40.2677 27.3375L39.7906 27.2455C39.9844 26.2574 41.0306 21.2708 42.6581 19.9921C42.9463 19.7669 43.622 19.2365 44.3364 19.4327C44.3558 19.4375 44.8401 19.5756 45.2034 20.152C46.0922 21.5566 44.0724 26.4463 43.4331 27.9115H43.4379Z" fill="#1D1D1B"/>
<path d="M45.4019 29.1902C45.8814 28.9988 46.8937 28.684 48.0925 29.0376C48.8142 29.2507 49.3543 29.6333 49.7006 29.9337" fill="#8ADFFF"/>
<path d="M49.5407 30.1177C49.0757 29.7157 48.5672 29.4323 48.0223 29.2701C46.9906 28.9649 46.0775 29.1805 45.4915 29.4154L45.3098 28.9649C45.9661 28.7009 46.993 28.4612 48.1603 28.8051C48.7706 28.9867 49.3397 29.304 49.858 29.7496L49.5407 30.1177Z" fill="#1D1D1B"/>
<path d="M39.4587 27.553C39.9383 27.3617 40.9506 27.0468 42.1494 27.4004C42.8711 27.6136 43.4111 27.9962 43.7575 28.2965" fill="#8ADFFF"/>
<path d="M43.5976 28.4806C43.1326 28.0785 42.624 27.7952 42.0791 27.6329C41.0474 27.3278 40.1344 27.5433 39.5483 27.7782L39.3667 27.3278C40.023 27.0638 41.0499 26.824 42.2172 27.1679C42.8275 27.3496 43.3966 27.6668 43.9149 28.1124L43.5976 28.4806Z" fill="#1D1D1B"/>
<path d="M45.2979 27.5603C45.2567 27.5095 44.8693 27.0566 44.2347 27.0881C44.1887 27.0881 43.6051 27.1292 43.2636 27.6112C42.8809 28.1512 42.9923 28.9795 43.513 29.4227C44.0701 29.8949 44.8063 29.677 44.862 29.66" fill="#8ADFFF"/>
<path d="M44.392 29.9676C44.0844 29.9676 43.6945 29.8949 43.3579 29.6091C42.7476 29.0933 42.612 28.1149 43.0673 27.4731C43.4741 26.8991 44.1498 26.8507 44.2273 26.8483C44.9563 26.8095 45.4068 27.3084 45.4891 27.4077L45.1137 27.7177C45.0798 27.6765 44.7626 27.3084 44.2515 27.3351C44.2467 27.3351 43.743 27.3641 43.4645 27.7565C43.1569 28.1924 43.2538 28.8874 43.6727 29.241C44.1329 29.6285 44.7674 29.4396 44.794 29.4324L44.9369 29.8973C44.8933 29.9119 44.6778 29.9724 44.3944 29.9724L44.392 29.9676Z" fill="#1D1D1B"/>
<path d="M43.2608 22.5519C43.4352 22.6076 43.8251 22.7626 44.1206 23.1501C44.6558 23.8549 44.4112 24.7074 44.3821 24.8042C44.0431 24.5499 43.5248 24.2206 42.8297 23.9808C42.0693 23.7193 41.4009 23.6732 40.9601 23.6781" fill="#61C5FF"/>
<path d="M44.5131 25.2063L44.2346 24.998C43.7841 24.659 43.2828 24.395 42.75 24.2109C42.1736 24.0123 41.5706 23.9251 40.9603 23.9203L40.9554 23.4335C41.6214 23.4238 42.2778 23.5352 42.9074 23.7508C43.3676 23.9082 43.8035 24.1213 44.2104 24.3877C44.2346 24.0947 44.2079 23.6684 43.9246 23.2979C43.6945 22.9976 43.3942 22.8523 43.1835 22.7845L43.3337 22.3219C43.6122 22.4115 44.0069 22.6028 44.3121 23.0049C44.9054 23.7823 44.6681 24.7001 44.6124 24.8769L44.5107 25.2087L44.5131 25.2063Z" fill="#1D1D1B"/>
<path d="M40.4033 29.8102C40.8634 29.4711 41.6892 30.4108 43.6001 31.0961C45.6368 31.8275 47.5476 31.7839 48.9329 31.5999C48.9741 32.1787 49.0152 32.7575 49.0564 33.3363C47.2473 35.4506 44.5664 36.1335 42.6822 35.1745C40.304 33.9612 39.6598 30.3575 40.4033 29.8102Z" fill="#FFFAF0"/>
<path d="M44.5252 35.8405C43.8374 35.8405 43.1714 35.6952 42.5732 35.3876C40.8973 34.5327 40.006 32.5517 39.885 31.0744C39.8511 30.6602 39.8559 29.9192 40.2628 29.6189C40.6406 29.3403 41.0813 29.5849 41.7473 29.9579C42.239 30.2316 42.8493 30.5731 43.6799 30.8709C45.2783 31.4449 47.0366 31.6096 48.9014 31.3626L49.1533 31.3287L49.301 33.4163L49.238 33.4913C47.9496 34.9977 46.1744 35.8381 44.5276 35.8381L44.5252 35.8405ZM40.6333 29.9797C40.597 29.9797 40.5679 29.987 40.5461 30.0039C40.4202 30.096 40.3136 30.452 40.3621 31.0356C40.4541 32.1642 41.1782 34.1404 42.7911 34.9638C44.6075 35.8914 47.1262 35.1721 48.8118 33.2564L48.7149 31.8687C46.8671 32.0794 45.1209 31.8954 43.5225 31.3214C42.6555 31.009 41.9968 30.6433 41.5173 30.3745C41.1298 30.1565 40.8077 29.9773 40.6357 29.9773L40.6333 29.9797Z" fill="black"/>
<path d="M40.0376 30.6941C40.2701 31.0065 40.5147 31.2777 40.7641 31.5127C43.4669 34.0556 47.7341 33.3968 49.0637 33.1377" fill="#FFFAF0"/>
<path d="M46.3124 33.6487C44.4113 33.6487 42.2365 33.2249 40.5994 31.6846C40.3257 31.4279 40.0714 31.1397 39.8438 30.8346L40.2264 30.5512C40.4371 30.8346 40.672 31.0985 40.9239 31.3383C43.3263 33.5979 47.0244 33.2879 49.0152 32.9028L49.1072 33.3726C48.3589 33.5179 47.378 33.6511 46.3124 33.6511V33.6487Z" fill="black"/>
<path d="M52.9605 29.4275C52.8443 29.3331 51.7787 28.4903 50.4927 28.8487C50.3159 28.8971 49.4658 29.1345 49.0275 29.9676C48.5407 30.8879 48.933 31.8227 49.0275 32.0503C49.5627 33.3291 50.8874 33.6996 51.0715 33.7456" fill="#8ADFFF"/>
<path d="M51.0085 33.9805C50.7396 33.9103 49.3665 33.4865 48.8022 32.1424C48.3638 31.0962 48.5648 30.3188 48.8119 29.8538C49.1267 29.258 49.7007 28.8172 50.4272 28.6162C51.7907 28.236 52.9047 29.0691 53.113 29.241L52.8055 29.6164C52.6965 29.5292 51.7156 28.7615 50.558 29.0836C49.9622 29.2507 49.4948 29.6043 49.243 30.0814C49.0468 30.4544 48.887 31.084 49.2526 31.9559C49.7273 33.0893 50.9019 33.4502 51.1344 33.5107L51.0109 33.9805H51.0085Z" fill="#1D1D1B"/>
<path d="M48.9257 35.6031C48.5528 35.947 47.6446 36.6929 46.2472 36.9763C44.9733 37.2354 43.9392 36.9811 43.4548 36.8285" fill="#8ADFFF"/>
<path d="M45.1404 37.3299C44.426 37.3299 43.8181 37.1991 43.3798 37.061L43.5251 36.5985C44.1281 36.7874 45.0823 36.9666 46.1963 36.7389C47.4048 36.4943 48.2573 35.8889 48.7586 35.4239L49.088 35.7799C48.5407 36.2861 47.6107 36.9448 46.2932 37.2136C45.8863 37.296 45.4989 37.3299 45.138 37.3299H45.1404Z" fill="#1D1D1B"/>
<path d="M53.5585 16.2504C53.3914 16.2238 52.7375 16.139 52.0885 16.5435C51.3474 17.006 51.1658 17.7616 51.1367 17.9021C51.5387 18.2121 52.1781 18.7885 52.677 19.7015C53.3018 20.8494 53.3745 21.9247 53.3745 22.4575C53.5634 22.5132 53.9751 22.6077 54.4764 22.4939C55.014 22.3728 55.3628 22.0797 55.5057 21.9417C55.4282 21.1522 55.2562 20.152 54.8809 19.0379C54.4885 17.873 53.992 16.9382 53.5585 16.2456V16.2504Z" fill="#61C5FF"/>
<path d="M53.9993 22.7942C53.7208 22.7942 53.4811 22.7457 53.3067 22.6949L53.1323 22.644V22.4624C53.1323 21.8182 53.0161 20.8373 52.4639 19.8226C52.0982 19.1493 51.6017 18.5705 50.989 18.0983L50.8679 18.0038L50.9018 17.8536C50.9527 17.6236 51.1779 16.8292 51.9626 16.34C52.6407 15.9162 53.3333 15.9695 53.5997 16.0131L53.7087 16.03L53.7668 16.1245C54.3263 17.0157 54.7792 17.9723 55.1134 18.9677C55.4355 19.9243 55.6486 20.9197 55.7503 21.9247L55.7624 22.0434L55.6777 22.1257C55.4548 22.3389 55.077 22.6149 54.5346 22.7385C54.3457 22.782 54.1664 22.7966 54.0018 22.7966L53.9993 22.7942ZM53.6167 22.271C53.8298 22.3122 54.1107 22.3316 54.4256 22.2614C54.7961 22.179 55.0698 22.0046 55.2538 21.8496C55.1521 20.9221 54.9511 20.0066 54.6532 19.1227C54.3432 18.2 53.9267 17.3087 53.4157 16.4781C53.159 16.4538 52.6843 16.4611 52.2193 16.7517C51.7107 17.069 51.4976 17.5485 51.4128 17.8125C52.0207 18.3065 52.5172 18.9023 52.8901 19.5877C53.4399 20.5951 53.5925 21.5736 53.6143 22.2686L53.6167 22.271Z" fill="#1D1D1B"/>
<path d="M47.5501 20.6605C47.5573 20.6969 47.6494 21.2999 47.2013 21.6898C46.8889 21.961 46.516 21.9514 46.4288 21.9465C46.0728 21.4428 45.6054 20.8664 45.0023 20.2803C44.283 19.5828 43.5734 19.0767 42.9801 18.711C42.9874 18.5753 43.0261 18.0886 43.4136 17.6817C43.9343 17.1392 44.6439 17.1949 44.7359 17.2046C45.1961 17.6236 45.6998 18.1346 46.206 18.7473C46.7654 19.4254 47.2038 20.0793 47.5452 20.6581L47.5501 20.6605Z" fill="#61C5FF"/>
<path d="M46.482 22.1911C46.4578 22.1911 46.436 22.1911 46.4166 22.1911L46.2979 22.1839L46.2301 22.087C45.816 21.5009 45.3462 20.9536 44.8327 20.4547C44.2321 19.8735 43.5661 19.3576 42.8541 18.9193L42.733 18.8442L42.7403 18.7013C42.75 18.493 42.8178 17.9578 43.2416 17.5146C43.8253 16.9043 44.6124 16.9479 44.7625 16.9624L44.8424 16.9697L44.903 17.023C45.4358 17.5073 45.9395 18.0353 46.3972 18.5923C46.8986 19.2002 47.3587 19.8541 47.7583 20.5346L47.7801 20.5734L47.7874 20.617C47.8358 20.9003 47.8019 21.4864 47.3587 21.869C47.0414 22.1451 46.6733 22.1863 46.4796 22.1863L46.482 22.1911ZM43.2392 18.5875C43.9343 19.0258 44.5833 19.5368 45.1718 20.1084C45.6755 20.5976 46.1405 21.1328 46.5547 21.7044C46.6854 21.6947 46.8768 21.6535 47.0439 21.5082C47.3345 21.2563 47.3272 20.8664 47.3175 20.7429C46.9349 20.1011 46.499 19.4836 46.0243 18.9072C45.598 18.3913 45.1331 17.8997 44.6414 17.4468C44.4404 17.442 43.9609 17.4734 43.5952 17.8561C43.3554 18.108 43.2707 18.401 43.2416 18.5899L43.2392 18.5875Z" fill="#1D1D1B"/>
</g>
<path d="M23.0812 39.3823C21.5281 39.3823 20.1192 40.2923 19.4806 41.7079L8.65352 65.7079C7.47417 68.3222 9.38614 71.2823 12.2541 71.2823H73.1187C74.6717 71.2823 76.0806 70.3722 76.7193 68.9566L87.5463 44.9566C88.7257 42.3423 86.8137 39.3823 83.9458 39.3823H23.0812Z" fill="#FFFBF2" stroke="black" stroke-width="1.5"/>
<mask id="path-51-outside-2_612_4523" maskUnits="userSpaceOnUse" x="7.05188" y="59.7323" width="75" height="13" fill="black">
<rect fill="white" x="7.05188" y="59.7323" width="75" height="13"/>
<path fill-rule="evenodd" clip-rule="evenodd" d="M79.1571 61.7323L76.0371 68.6482C75.5197 69.7951 74.3783 70.5323 73.1202 70.5323H12.2556C9.93218 70.5323 8.38324 68.1343 9.33866 66.0164L11.2713 61.7323H79.1571Z"/>
</mask>
<path fill-rule="evenodd" clip-rule="evenodd" d="M79.1571 61.7323L76.0371 68.6482C75.5197 69.7951 74.3783 70.5323 73.1202 70.5323H12.2556C9.93218 70.5323 8.38324 68.1343 9.33866 66.0164L11.2713 61.7323H79.1571Z" fill="#D1C1B4"/>
<path d="M79.1571 61.7323L80.5244 62.3491L81.4793 60.2323H79.1571V61.7323ZM76.0371 68.6482L74.6698 68.0314V68.0314L76.0371 68.6482ZM9.33866 66.0164L7.97136 65.3996L7.97136 65.3996L9.33866 66.0164ZM11.2713 61.7323V60.2323H10.3025L9.90404 61.1155L11.2713 61.7323ZM77.7897 61.1155L74.6698 68.0314L77.4044 69.265L80.5244 62.3491L77.7897 61.1155ZM74.6698 68.0314C74.3949 68.6406 73.7886 69.0323 73.1202 69.0323V72.0323C74.9681 72.0323 76.6445 70.9495 77.4044 69.265L74.6698 68.0314ZM73.1202 69.0323H12.2556V72.0323H73.1202V69.0323ZM12.2556 69.0323C11.0213 69.0323 10.1984 67.7583 10.706 66.6332L7.97136 65.3996C6.56808 68.5102 8.84309 72.0323 12.2556 72.0323V69.0323ZM10.706 66.6332L12.6386 62.3491L9.90404 61.1155L7.97136 65.3996L10.706 66.6332ZM11.2713 63.2323H79.1571V60.2323H11.2713V63.2323Z" fill="black" mask="url(#path-51-outside-2_612_4523)"/>
<defs>
<clipPath id="clip0_612_4523">
<rect width="84" height="40" fill="white" transform="translate(0.899902)"/>
</clipPath>
</defs>
</svg>
