<?xml version="1.0" encoding="UTF-8"?>
<svg id="Capa_2" xmlns="http://www.w3.org/2000/svg" viewBox="0 0 217.83 281.42">
  <defs>
    <style>
      .cls-1 {
        fill: #fffaf0;
      }

      .cls-2 {
        fill: #d3c0b1;
      }

      .cls-3 {
        fill: #ad82ff;
      }

      .cls-4 {
        fill: #ffbf00;
      }

      .cls-5 {
        fill: #ff3c18;
      }

      .cls-6 {
        fill: #ffdc50;
      }
    </style>
  </defs>
  <g id="Capa_1-2" data-name="Capa_1">
    <g>
      <g>
        <ellipse cx="156.23" cy="273.68" rx="31.28" ry="7.43"/>
        <path d="M156.23,281.42c-17.71,0-31.59-3.4-31.59-7.74s13.88-7.75,31.59-7.75,31.59,3.4,31.59,7.75-13.88,7.74-31.59,7.74ZM156.23,266.56c-18.52,0-30.96,3.68-30.96,7.12s12.44,7.12,30.96,7.12,30.96-3.68,30.96-7.12-12.44-7.12-30.96-7.12Z"/>
      </g>
      <g>
        <ellipse cx="62.75" cy="268" rx="31.28" ry="7.43"/>
        <path d="M62.75,275.74c-17.71,0-31.59-3.4-31.59-7.75s13.88-7.74,31.59-7.74,31.59,3.4,31.59,7.74-13.88,7.75-31.59,7.75ZM62.75,260.88c-18.52,0-30.96,3.68-30.96,7.12s12.44,7.12,30.96,7.12,30.96-3.68,30.96-7.12-12.44-7.12-30.96-7.12Z"/>
      </g>
      <g>
        <g>
          <path class="cls-4" d="M146.01,86.78c8.37-2.29,19.9-6.77,30.84-16.03,2.97-2.51,5.54-5.08,7.75-7.57,3.61,2.64,7.21,5.29,10.82,7.93-3.18,4.25-7.31,8.9-12.62,13.34-16.6,13.87-34.94,17.47-44.6,18.58,2.6-5.42,5.21-10.83,7.81-16.25Z"/>
          <path d="M136.51,104.24l8.8-18.3.44-.12c11.53-3.15,21.77-8.48,30.45-15.83,2.71-2.29,5.28-4.81,7.65-7.47l.61-.68,12.37,9.07-.61.81c-3.75,5.01-8.05,9.55-12.78,13.51-15.62,13.05-33.17,17.44-45.13,18.81l-1.81.21ZM146.72,87.63l-6.82,14.18c11.61-1.57,27.78-6.04,42.26-18.13,4.36-3.64,8.34-7.8,11.85-12.37l-9.26-6.79c-2.26,2.48-4.69,4.83-7.24,6.99-8.8,7.45-19.15,12.87-30.78,16.12Z"/>
        </g>
        <g>
          <path class="cls-1" d="M100.83,260.91c.4,4.29-5.22,8.34-8.33,9.94-1.49.77-4.15,1.88-8.96,2.1-12.24.57-21.69-5.35-23.79-6.72-6.94-4.53-10.7-9.92-12.96-13.22-5.39-7.87-7.08-15.1-8.68-21.27-1.79-6.86-2.5-10.41-1.13-14.48,1.52-4.5,5.64-10.11,11.63-10.79,4.59-.52,8.21,2.11,9.77,3.23,8.48,6.13,10.37,18.92,10.82,20.39.22.72.42,2.9,1.51,5.54.12.29,1.42,3.37,3.78,6.17,3.51,4.17,7.2,5.3,14.22,9.31,7.9,4.52,11.85,6.83,12.13,9.78Z"/>
          <path d="M81.88,273.99c-10.87,0-19.4-4.78-22.67-6.92-7.25-4.74-11.15-10.43-13.24-13.49-5.21-7.6-7-14.51-8.57-20.6l-.26-.99c-1.88-7.2-2.55-10.8-1.11-15.05,1.75-5.21,6.29-10.77,12.46-11.46,4.97-.55,8.83,2.23,10.47,3.42,7.78,5.63,10.19,16.46,10.99,20.01.09.43.16.73.21.89.07.22.14.57.23,1.02.2,1.04.5,2.61,1.25,4.43.05.13,1.32,3.18,3.62,5.91,2.46,2.92,5.07,4.31,9.02,6.4,1.44.76,3.07,1.63,4.93,2.69,7.93,4.53,12.3,7.03,12.63,10.55h0c.45,4.78-5.36,9.12-8.87,10.93-2.54,1.31-5.61,2.04-9.37,2.21-.58.03-1.15.04-1.71.04ZM49.77,207.42c-.35,0-.7.02-1.06.06-5.3.6-9.24,5.51-10.79,10.11-1.26,3.74-.62,7.11,1.15,13.9l.26.99c1.54,5.93,3.28,12.66,8.28,19.97,2.02,2.94,5.77,8.43,12.69,12.94,3.28,2.14,12.11,7.07,23.19,6.55,5.16-.24,7.71-1.56,8.54-1.99,2.85-1.47,8.14-5.23,7.79-8.96h0c-.22-2.38-3.93-4.6-11.62-9-1.83-1.05-3.45-1.9-4.88-2.66-4.16-2.2-6.9-3.66-9.62-6.88-2.45-2.91-3.79-6.08-3.94-6.43-.83-2-1.17-3.76-1.37-4.82-.07-.35-.12-.63-.17-.8-.06-.19-.14-.55-.25-1.05-.75-3.38-3.04-13.64-10.2-18.82-1.33-.96-4.3-3.11-8.01-3.11Z"/>
        </g>
        <g>
          <path class="cls-5" d="M100.08,263.47c-1.51,2.53-4.99,2.93-9.68,3.39-4.34.43-15.34,1.35-26.45-5.66-6.89-4.34-10.54-9.67-12.96-13.22-5.39-7.87-7.08-15.1-8.68-21.27-1.88-7.23-2.79-10.91-1.13-14.48,3.29-7.06,14.5-10.95,21.4-7.55,5.3,2.61,7.35,9.19,10.82,20.39.22.72.42,2.9,1.51,5.54.12.29,1.42,3.37,3.78,6.17,4.57,5.43,9.12,5.07,14.22,9.31,5.62,4.68,9.71,13.12,7.17,17.37Z"/>
          <path d="M85.12,268.16c-5.46,0-13.58-.99-21.69-6.1-7.06-4.46-10.79-9.9-13.26-13.5-5.21-7.6-7-14.51-8.57-20.6l-.26-.99c-1.88-7.22-2.92-11.19-1.07-15.15,1.67-3.59,5.28-6.59,9.9-8.21,4.56-1.6,9.36-1.54,12.85.19,5.69,2.8,7.82,9.65,11.34,20.99.07.22.14.57.23,1.02.2,1.04.5,2.61,1.25,4.43.13.32,1.38,3.25,3.62,5.91,2.47,2.93,4.94,4.08,7.56,5.3,2.08.97,4.24,1.98,6.53,3.89,5.84,4.86,10.24,13.88,7.39,18.65h0c-1.8,3.02-5.8,3.42-10.44,3.87-1.15.11-3.02.3-5.39.3ZM56.74,204.45c-1.9,0-3.93.35-5.91,1.05-4.05,1.43-7.32,4.11-8.75,7.17-1.48,3.17-.7,6.52,1.19,13.8l.26.99c1.54,5.93,3.28,12.66,8.28,19.97,2.38,3.47,5.96,8.7,12.67,12.94,11.04,6.97,22.16,5.87,25.81,5.51,4.73-.47,7.7-.86,8.92-2.91h0c2.07-3.47-1.38-11.44-6.96-16.09-2.09-1.74-4.13-2.69-6.1-3.61-2.7-1.26-5.5-2.56-8.25-5.83-2.43-2.89-3.79-6.08-3.94-6.43-.83-2-1.17-3.77-1.37-4.82-.07-.35-.12-.63-.17-.8-3.36-10.83-5.39-17.37-10.31-19.79-1.54-.76-3.4-1.14-5.39-1.14Z"/>
        </g>
        <g>
          <path class="cls-5" d="M82.75,228.74c-2.81,5.28-6.08,6.23-7.18,6.46-7.02,1.48-14.5-7.89-16.69-15.97-1.14-4.21-2.32-13.53,2.69-16.15,3.92-2.05,9.22,1.26,10.05,1.79,3.71,7.95,7.42,15.91,11.12,23.86Z"/>
          <path d="M74.09,236.36c-3.09,0-6.36-1.68-9.4-4.86-3.08-3.23-5.61-7.72-6.77-12-1.38-5.08-2.25-14.45,3.2-17.3,4.19-2.19,9.52.85,11.05,1.84.16.1.29.25.37.42l11.12,23.86c.13.29.12.62-.02.9-2.78,5.21-6.11,6.6-7.85,6.97-.56.12-1.12.17-1.69.17ZM64.45,203.43c-.84,0-1.66.16-2.41.55-4.01,2.1-3.51,10.12-2.19,15,2.19,8.1,9.44,16.53,15.51,15.25,1.35-.29,3.92-1.38,6.26-5.51l-10.78-23.13c-1.01-.62-3.77-2.15-6.39-2.15Z"/>
        </g>
        <g>
          <path class="cls-2" d="M145.58,156.04c.8,7,1.36,21.29-6.34,35.87-16.75,31.69-56.21,33.78-58.43,33.86-4.63-.68-8.46-3.88-9.83-8.21-1.84-5.83,1.76-10.59,2.09-11,26.33-3.14,46.94-16.04,51.76-33.86.96-3.56,1.56-8.29.61-14.18.02-14.63,3.82-25.11,7.78-25.48,3.93-.37,9.54,9.07,12.36,23Z"/>
          <path d="M80.75,226.78h-.09c-4.99-.75-9.17-4.24-10.64-8.92-1.98-6.27,1.81-11.36,2.25-11.92l.26-.33.41-.05c26.34-3.14,46.32-16.14,50.91-33.12,1.17-4.31,1.36-8.94.59-13.76v-.16c0-14.63,3.74-26.02,8.68-26.48,4.81-.45,10.59,9.78,13.44,23.8v.08c1.05,9.09.78,22.8-6.44,36.46-17.16,32.46-57.56,34.33-59.28,34.39h-.09ZM73.61,207.5c-.83,1.18-3.15,5.09-1.68,9.76,1.24,3.92,4.74,6.85,8.93,7.51,2.67-.12,41.1-2.31,57.48-33.32,6.97-13.18,7.24-26.43,6.24-35.25-2.98-14.67-8.54-22.4-11.27-22.16-2.79.26-6.84,9.1-6.87,24.41.8,5.07.58,9.96-.65,14.52-4.78,17.68-25.24,31.21-52.18,34.54Z"/>
        </g>
        <g>
          <path class="cls-5" d="M89.66,243.89c-2.12-.87-8.6-3.21-16.39-1.06-10.47,2.89-15.13,11.63-15.9,13.13"/>
          <path d="M58.27,256.41l-1.79-.91c1.27-2.48,6.21-10.79,16.52-13.64,7.47-2.07,13.88-.2,17.04,1.1l-.76,1.86c-2.92-1.2-8.85-2.92-15.74-1.02-9.52,2.63-14.09,10.32-15.27,12.62Z"/>
        </g>
        <g>
          <path class="cls-2" d="M132.3,174.53c-3.95,1.2-9.33,2.4-15.78,2.57-5.02.13-9.37-.38-12.82-1.05-.26-.13-2.98-1.52-3.5-4.7-.49-3.01,1.4-5.12,1.63-5.36,10.2-.66,20.4-1.32,30.61-1.98,1.98,1.6,2.96,4.06,2.53,6.41-.44,2.44-2.23,3.8-2.67,4.11Z"/>
          <path d="M114.93,178.12c-3.83,0-7.66-.36-11.42-1.08l-.25-.08c-.35-.17-3.45-1.8-4.04-5.44-.55-3.38,1.47-5.77,1.89-6.21l.27-.29,31.4-2.04.3.25c2.27,1.84,3.38,4.66,2.89,7.37-.48,2.64-2.31,4.2-3.08,4.75l-.13.1-.16.05c-5.21,1.59-10.61,2.47-16.04,2.61-.54.01-1.08.02-1.62.02ZM104.03,175.09c4.11.78,8.31,1.11,12.46,1,5.2-.14,10.36-.97,15.35-2.48.62-.47,1.82-1.59,2.14-3.38.34-1.87-.38-3.83-1.89-5.2l-29.77,1.93c-.49.64-1.46,2.2-1.13,4.23.39,2.42,2.31,3.61,2.84,3.9Z"/>
        </g>
        <g>
          <path class="cls-2" d="M134.77,163.99c-4.67,1.78-11.08,3.68-18.85,4.42-6.05.58-11.35.32-15.58-.19-.33-.13-3.73-1.59-4.62-5.39-.84-3.59,1.26-6.3,1.52-6.62,12.27-1.65,24.54-3.3,36.81-4.95,2.52,1.76,3.92,4.65,3.59,7.53-.33,2.99-2.38,4.78-2.89,5.19Z"/>
          <path d="M109.03,169.75c-2.94,0-5.88-.18-8.8-.53l-.26-.07c-.43-.17-4.22-1.83-5.21-6.09-.92-3.94,1.27-6.92,1.72-7.48l.25-.31,37.6-5.06.32.22c2.84,1.99,4.38,5.23,4.02,8.47-.35,3.15-2.39,5.14-3.24,5.85l-.13.11-.16.06c-6.15,2.35-12.58,3.86-19.11,4.49-2.32.22-4.66.33-6.99.33ZM100.61,167.25c5.05.6,10.17.66,15.22.17,6.3-.61,12.5-2.05,18.43-4.3.72-.63,2.15-2.14,2.41-4.43.27-2.39-.83-4.8-2.87-6.37l-35.99,4.84c-.56.82-1.7,2.87-1.1,5.45.71,3.03,3.26,4.35,3.9,4.64Z"/>
        </g>
        <g>
          <path class="cls-2" d="M137.98,151.29c-6.05,2.31-14.33,4.76-24.39,5.72-7.83.75-14.68.41-20.16-.25-.43-.17-4.82-2.06-5.97-6.97-1.09-4.65,1.64-8.15,1.97-8.56,15.88-2.14,31.75-4.27,47.63-6.41,3.26,2.28,5.07,6.02,4.65,9.75-.43,3.86-3.08,6.18-3.73,6.72Z"/>
          <path d="M104.67,158.44c-3.79,0-7.59-.23-11.35-.68l-.26-.07c-.54-.22-5.31-2.32-6.57-7.67-1.17-4.97,1.6-8.72,2.17-9.42l.25-.31.4-.05,48.02-6.46.32.23c3.58,2.51,5.53,6.6,5.07,10.68-.44,3.98-3.01,6.49-4.09,7.38l-.13.1-.15.06c-7.93,3.03-16.23,4.97-24.65,5.79-2.99.29-6,.43-9.02.43ZM93.7,155.79c6.57.78,13.23.86,19.8.23,8.19-.79,16.25-2.67,23.97-5.6.95-.82,2.9-2.84,3.25-5.95.36-3.23-1.13-6.49-3.92-8.59l-46.82,6.3c-.72,1.01-2.38,3.82-1.54,7.39.96,4.1,4.47,5.87,5.26,6.22Z"/>
        </g>
        <g>
          <path class="cls-6" d="M141.44,131.97c.57-6.07,1.82-15.15,4.89-25.77,7.62-26.35,17.36-30.66,18.66-46.66,1.41-17.34-8.18-35.05-21.33-45.77C123.92-2.33,100.77,1.08,96.12,1.77c-21.61,3.18-42.65,17.78-50.66,39.55-1.53,4.17-6.16,17.24-2.22,31.99,4.66,17.47,17.32,22.35,32.29,48.71,4.1,7.22,6.89,13.44,8.59,17.5,5.31,1.98,16.96,5.51,31.55,3.11,12.43-2.04,21.26-7.44,25.77-10.66Z"/>
          <path d="M105.78,144.44c-9.1,0-16.71-2-22.01-3.98l-.41-.15-.17-.4c-2.48-5.93-5.35-11.78-8.54-17.39-6.83-12.01-13.3-19.69-18.5-25.86-6.32-7.5-11.31-13.42-13.89-23.09-2.72-10.19-1.96-21.16,2.25-32.6C52.23,20.02,72.43,4.24,95.97.77c18.22-2.68,35.38,1.66,48.33,12.21,14.52,11.84,23.04,30.14,21.7,46.63-.68,8.37-3.6,13.59-7.29,20.21-3.43,6.16-7.71,13.82-11.41,26.64-2.41,8.32-4.04,16.93-4.85,25.59l-.04.46-.37.27c-7.77,5.55-16.83,9.3-26.19,10.84-3.51.58-6.87.82-10.06.82ZM84.87,138.73c6.94,2.54,17.77,5.02,30.63,2.91,8.91-1.46,17.54-5,24.98-10.23.84-8.63,2.48-17.21,4.88-25.5,3.77-13.04,8.11-20.82,11.59-27.06,3.57-6.41,6.39-11.47,7.04-19.4,1.29-15.85-6.94-33.48-20.96-44.91C130.52,4.35,113.91.16,96.26,2.76c-22.83,3.36-42.4,18.63-49.86,38.9-4.06,11.04-4.8,21.6-2.19,31.39,2.46,9.24,7.33,15.01,13.48,22.31,5.25,6.23,11.79,13.99,18.71,26.16,3.16,5.56,6.01,11.34,8.48,17.21Z"/>
        </g>
        <path d="M104.31,143.45l-2.01-.05c.3-11.29-.86-22.62-3.45-33.68-1.63-6.97-3.75-14.39-6.13-20.78-9.59-1.25-18.22-4.22-19.35-9.2-.43-1.91.24-4.24,1.79-6.23,1.6-2.04,3.76-3.29,5.78-3.34.04,0,.08,0,.11,0,5.14,0,9.67,7.89,13.18,17.02,4.44.5,9.41.62,14.61.23,5.12-.39,10.47-1.34,15.06-2.68,3.1-13.52,6.22-15.21,8.31-15.28,1.25-.04,2.62.66,3.77,1.92,1.5,1.65,2.29,3.84,2.05,5.72-.54,4.29-6.12,7.27-12.47,9.23-1.04,4.7-2,10.49-2.75,17.34-1.34,12.28-.85,24.9,1.45,37.51l-1.97.36c-2.34-12.8-2.83-25.62-1.47-38.09.16-1.49,1.03-9.01,2.59-16.5-5.44,1.46-11.1,2.23-14.42,2.48-4.25.32-9.18.26-14.01-.23,2.65,7.3,4.65,15.07,5.82,20.06,2.63,11.24,3.8,22.74,3.5,34.2ZM81.08,72.17s-.05,0-.07,0c-1.41.03-3.03,1.01-4.25,2.57-1.17,1.49-1.71,3.24-1.41,4.55.71,3.16,7.27,6.22,16.61,7.6-3.37-8.5-7.19-14.72-10.87-14.72ZM132.33,71.46s-.03,0-.04,0c-1.83.06-4.14,4.34-6.18,12.58,5.57-1.9,9.6-4.41,9.95-7.2.16-1.29-.44-2.91-1.54-4.11-.71-.78-1.55-1.26-2.18-1.26Z"/>
        <g>
          <path class="cls-1" d="M200.72,68.27c-.49.5-1.2,1.12-2.16,1.67-1.22.7-2.35,1.01-3.14,1.16-1.52-.55-3.47-1.44-5.52-2.87-2.49-1.74-4.2-3.63-5.29-5.06-.14-.75-.29-2.14.17-3.78.37-1.33.99-2.29,1.43-2.85-3.27-7.81-2.12-15.48,2.28-18.84.92-.7,2.74-1.79,5.78-1.93.62-1.28,1.4-3.25,1.76-5.73,1.02-7.1-2.42-11.88.24-14.67.12-.12,1.06-1.08,2.42-1.18,3.49-.25,6.3,5.46,6.9,6.66,3.41,6.92,1.18,14.56-.01,17.83.74.32,2.07,1.01,3.25,2.38,1.41,1.64,1.86,3.36,2.02,4.18,2.46,1.27,3.25,2.85,3.52,3.54,1.46,3.7-1.15,9.22-7.07,12.71-.13.76-.55,2.55-2.04,4.2-1.72,1.9-3.79,2.43-4.52,2.58Z"/>
          <path d="M195.34,72.15l-.26-.09c-2.04-.75-3.98-1.75-5.75-2.99-2.1-1.46-3.95-3.24-5.52-5.27l-.15-.19-.04-.24c-.26-1.4-.19-2.86.19-4.23.27-.97.69-1.88,1.26-2.72-3.12-7.88-1.99-15.84,2.82-19.5,1.57-1.19,3.49-1.89,5.73-2.09.71-1.59,1.19-3.25,1.43-4.92.44-3.09,0-5.7-.39-8-.48-2.87-.9-5.34.89-7.22.3-.32,1.43-1.37,3.07-1.49,2.71-.2,5.44,2.3,7.87,7.22,3.18,6.45,1.72,13.6.33,17.77,1.05.58,2,1.34,2.77,2.24,1.26,1.46,1.86,3.01,2.14,4.17,2.18,1.24,3.14,2.75,3.57,3.83,1.7,4.31-1.34,10.14-7.11,13.71-.27,1.19-.87,2.77-2.2,4.24-1.64,1.81-3.58,2.53-4.76,2.82-.65.63-1.38,1.18-2.16,1.63-1.07.61-2.23,1.04-3.45,1.28l-.27.05ZM185.55,62.76c1.41,1.79,3.06,3.36,4.92,4.66,1.56,1.09,3.25,1.98,5.03,2.65.9-.2,1.76-.53,2.56-.99.71-.41,1.37-.92,1.95-1.51l.21-.22.3-.06c.88-.18,2.58-.73,3.98-2.27,1.18-1.3,1.63-2.73,1.8-3.7l.08-.46.4-.23c5.68-3.34,7.84-8.46,6.65-11.47-.33-.83-1.12-2.02-3.05-3.02l-.43-.22-.09-.48c-.18-.96-.65-2.38-1.79-3.72-.78-.91-1.78-1.64-2.89-2.12l-.87-.38.32-.89c1.34-3.68,3.13-10.79.05-17.04-1.98-4-4.12-6.26-5.93-6.1-.97.07-1.68.79-1.76.87-1.05,1.1-.83,2.73-.36,5.5.39,2.33.88,5.22.39,8.62-.29,2.06-.92,4.09-1.85,6.03l-.26.54-.6.03c-2.09.09-3.84.67-5.22,1.72-4.18,3.18-4.99,10.44-1.97,17.65l.23.54-.35.46c-.58.76-1,1.6-1.26,2.51-.28,1-.34,2.06-.19,3.09Z"/>
        </g>
        <g>
          <path class="cls-1" d="M210.84,45.25c-.03,2.27-.48,5.76-2.73,8.9-1.01,1.41-2.45,3.42-4.6,3.42-1.75,0-3-1.34-3.12-1.47-1.17-1.29-1.18-2.79-1.18-3.12"/>
          <path d="M203.51,58.57h0c-2.12,0-3.59-1.5-3.87-1.8-1.33-1.46-1.45-3.15-1.44-3.81l2.01.03c0,.42.07,1.5.92,2.43.04.05,1.05,1.15,2.38,1.15h0c1.63,0,2.87-1.73,3.78-3,2.05-2.86,2.51-6.11,2.54-8.33l2.01.03c-.05,3.6-1.05,6.88-2.92,9.47-1.09,1.53-2.75,3.84-5.41,3.84Z"/>
        </g>
        <g>
          <path class="cls-1" d="M207.29,61.5c-1.07-.31-2.33-.86-2.6-1.86-.39-1.46,1.55-2.92,2.95-4.66,1.48-1.84,3-4.8,3.2-9.73"/>
          <path d="M207.01,62.46c-1.87-.54-2.97-1.41-3.28-2.56-.44-1.62.83-2.99,2.05-4.32.36-.4.74-.8,1.08-1.23,1.82-2.27,2.83-5.34,2.98-9.14l2,.08c-.17,4.24-1.32,7.71-3.42,10.31-.37.46-.78.91-1.17,1.33-.81.88-1.73,1.88-1.58,2.43.05.2.35.71,1.91,1.16l-.56,1.93Z"/>
        </g>
        <g>
          <path class="cls-1" d="M194.27,35.78c.78,0,4.98.08,7.77,3.34,2.41,2.82,3.59,7.79,1.12,10.49-1.97,2.15-5.29,1.79-5.89,1.71-3.79-.5-5.71-3.65-5.95-4.07"/>
          <path d="M198.42,52.4c-.56,0-1.01-.04-1.28-.08-4.14-.55-6.3-3.89-6.69-4.55l1.73-1.02c.31.52,2,3.16,5.22,3.58.56.07,3.42.35,5.02-1.39,2.04-2.23,1.04-6.62-1.14-9.16-2.38-2.77-5.96-2.99-7.01-2.99v-2.01c1.26,0,5.6.27,8.53,3.69,2.78,3.25,3.89,8.77,1.1,11.82-1.62,1.77-3.95,2.11-5.48,2.11Z"/>
        </g>
        <g>
          <line class="cls-3" x1="205.57" y1="38.69" x2="204" y2="42.65"/>
          <rect x="202.65" y="39.67" width="4.26" height="2.01" transform="translate(91.6 216.11) rotate(-68.41)"/>
        </g>
        <g>
          <line class="cls-3" x1="186.2" y1="56.55" x2="189.25" y2="61.5"/>
          <rect x="186.72" y="56.12" width="2.01" height="5.81" transform="translate(-3.05 107.28) rotate(-31.65)"/>
        </g>
        <g>
          <path class="cls-3" d="M202.62,67.63c-.73.2-1.76.4-3,.37-1.53-.04-2.75-.4-3.54-.71"/>
          <path d="M199.87,69.01c-.09,0-.18,0-.27,0-1.33-.03-2.63-.29-3.88-.77l.73-1.87c1.03.4,2.1.61,3.2.64.91.02,1.83-.09,2.71-.33l.53,1.93c-.98.27-2,.41-3.02.41Z"/>
        </g>
        <g>
          <path class="cls-1" d="M199.54,61.17c.29-.82,1.17-3.66-.1-6.73-.62-1.49-1.53-2.51-2.17-3.11"/>
          <path d="M200.48,61.5l-1.89-.67c.41-1.17.95-3.52-.08-6.01-.43-1.04-1.08-1.97-1.93-2.76l1.37-1.46c1.06.99,1.87,2.15,2.41,3.46,1.29,3.11.63,6,.12,7.45Z"/>
        </g>
        <g>
          <path class="cls-3" d="M197.27,51.32c-.35.38-1.36,1.37-3.02,1.74-1.66.37-2.99-.08-3.47-.27"/>
          <path d="M192.97,54.21c-1.13,0-2.04-.28-2.56-.48l.74-1.87c.52.21,1.59.52,2.88.23,1.28-.29,2.12-1.03,2.5-1.44l1.47,1.36c-.54.59-1.72,1.63-3.54,2.04-.53.12-1.03.17-1.5.17Z"/>
        </g>
        <g>
          <path class="cls-2" d="M101.92,157.37c6.91,11.12,9.4,17.2,13.87,24.27,10.7,16.92,21.95,31.09,32.51,42.75-2.68,7.15-5.36,14.31-8.04,21.46-13.2-13.54-23.77-25.69-31.7-35.29-1.41-1.71-17.15-20.98-28.58-46.44-2.9-6.45-6.61-15.72-2.47-21.09,1.48-1.93,4.01-3.39,6.63-3.5,5.58-.23,10.25,5.71,17.8,17.85Z"/>
          <path d="M140.63,247.68l-1.1-1.13c-11.08-11.36-21.76-23.26-31.76-35.35-1.74-2.1-17.33-21.28-28.73-46.66-3.53-7.86-6.57-16.64-2.35-22.12,1.76-2.29,4.59-3.78,7.39-3.89,6.03-.3,10.85,5.71,18.69,18.32h0c3.76,6.04,6.21,10.61,8.38,14.64,1.85,3.44,3.45,6.41,5.48,9.62,9.51,15.03,20.41,29.37,32.4,42.61l.41.45-8.81,23.51ZM84.42,140.52c-.09,0-.17,0-.26,0-2.19.09-4.5,1.31-5.88,3.11-3.57,4.64-.69,12.75,2.59,20.07,11.29,25.14,26.72,44.12,28.44,46.21,9.63,11.65,19.9,23.11,30.55,34.09l7.27-19.41c-11.91-13.2-22.74-27.48-32.2-42.43-2.07-3.27-3.68-6.27-5.55-9.74-2.15-4-4.59-8.54-8.32-14.53-7.14-11.49-11.72-17.38-16.65-17.38Z"/>
        </g>
        <g>
          <path class="cls-5" d="M159.4,224.3c.42-.62,1.19-1.57,2.44-2.37.95-.61,1.84-.91,2.48-1.07-7.09-15.77.53-33.56,14.37-38.89,11.46-4.41,25.73.28,33.39,11.94-7.95,8.76-17.76,21.32-26.35,37.93-8.84,17.1-13.44,32.81-15.96,44.58-.95.13-13.92,1.69-21.28-7.51-2.89-3.62-3.82-7.52-4.15-9.91-1.8.97-2.8.8-3.34.55-2.3-1.07-2.59-6.5-.76-13.71,2.68-7.15,5.36-14.31,8.04-21.46,1.89-3,5.21-4.29,7.81-3.35,2.1.75,3.06,2.72,3.3,3.27Z"/>
          <path d="M166.56,277.62c-4.74,0-13.25-1.08-18.84-8.07-2.05-2.56-3.47-5.69-4.14-9.1-1.15.4-2.15.4-2.99.01-2.84-1.32-3.33-6.88-1.31-14.86,0-.04.02-.07.03-.11l8.04-21.46c.02-.06.05-.12.09-.18,2.08-3.31,5.86-4.89,8.99-3.76,1.47.53,2.47,1.55,3.1,2.45.53-.55,1.12-1.04,1.76-1.45.53-.34,1.08-.62,1.67-.85-3.09-7.59-3.11-16.16-.01-23.68,2.98-7.25,8.59-12.91,15.38-15.53,12.25-4.71,26.8.47,34.59,12.33.25.38.21.89-.1,1.22-10.33,11.38-19.15,24.07-26.2,37.72-7.24,14-12.57,28.91-15.87,44.33-.09.41-.43.73-.85.78-.39.05-1.62.2-3.36.2ZM144.35,258c.16,0,.31.04.45.11.29.15.5.43.54.76.49,3.56,1.86,6.82,3.94,9.42,6.22,7.77,16.83,7.45,19.67,7.21,3.34-15.34,8.69-30.18,15.89-44.12,7.01-13.56,15.75-26.2,25.97-37.56-7.37-10.62-20.6-15.21-31.76-10.92-6.28,2.42-11.47,7.67-14.25,14.42-3.03,7.36-2.87,15.79.43,23.12.12.27.12.58-.01.85-.13.27-.37.46-.66.54-.78.2-1.52.52-2.19.95-.85.54-1.58,1.25-2.16,2.09-.2.3-.55.47-.92.43-.36-.03-.68-.26-.83-.59-.28-.63-1.11-2.16-2.73-2.74-2.23-.8-4.97.4-6.56,2.86l-7.99,21.31c-1.84,7.28-1.28,11.8.23,12.5.51.24,1.38.05,2.44-.52.15-.08.31-.12.48-.12Z"/>
        </g>
        <g>
          <path class="cls-1" d="M216.43,203.8c1.36,10.42-7.3,14.83-18.03,31.86-7.75,12.3-20.67,37.08-27.9,39.84-2.45.93-4.41.36-4.41.36-2.79-.83-4.2-3.71-4.71-4.75-5.5-11.28,11.46-49.26,11.46-49.26,6.78-15.19,11.09-21.74,15.9-25.71,1.27-1.05,2.68-2.08,4.4-2.95,1.09-.55,9.78-4.96,16.4-1.24,5.54,3.11,6.68,10.27,6.89,11.87Z"/>
          <path d="M167.65,277.03c-1.08,0-1.79-.2-1.84-.22-3.22-.95-4.8-4.2-5.33-5.27-5.64-11.57,10.74-48.54,11.44-50.11,6.56-14.69,10.94-21.76,16.18-26.07,1.11-.91,2.62-2.08,4.58-3.08,2.41-1.22,10.77-4.91,17.34-1.22,5.75,3.23,7.11,10.47,7.39,12.61h0c.94,7.2-2.65,11.73-8.09,18.59-2.84,3.58-6.37,8.03-10.09,13.94-1.77,2.82-3.84,6.32-6.02,10.03-7.72,13.11-16.48,27.96-22.37,30.21-1.22.46-2.34.6-3.21.6ZM203.46,191.46c-4.27,0-8.36,1.84-9.87,2.61-1.78.9-3.19,1.99-4.21,2.83-4.91,4.04-9.29,11.15-15.62,25.34-.04.09-4.26,9.59-7.76,20.32-4.56,14.01-5.84,23.72-3.71,28.1.47.96,1.72,3.53,4.09,4.23.01,0,1.7.46,3.77-.33,5.24-2,14.55-17.81,21.35-29.35,2.19-3.72,4.26-7.24,6.05-10.08,3.78-6,7.35-10.5,10.21-14.11,5.3-6.69,8.5-10.72,7.67-17.08h0c-.25-1.91-1.45-8.34-6.39-11.12-1.76-.99-3.69-1.35-5.59-1.35Z"/>
        </g>
        <g>
          <path class="cls-1" d="M215.13,201.63c5.97,8.28-5.11,27.56-12.38,39.96-9.1,15.52-21.72,37.04-32.97,34.84-.76-.15-1.85-.37-2.91-1.22-7.08-5.61,1.85-26.47,10.73-47.22,5-11.69,10.72-23.06,19.98-28.2,2.16-1.2,7.22-4.01,12.23-2.25,0,0,3.17,1.11,5.33,4.1Z"/>
          <path d="M171.39,277.58c-.6,0-1.2-.06-1.8-.17-.77-.15-2.06-.4-3.34-1.42-7.68-6.08,1.12-26.64,10.43-48.4,4.71-11.01,10.56-23.21,20.41-28.69,2.28-1.27,7.61-4.23,13.05-2.32.14.05,3.5,1.25,5.81,4.46h0c6.48,8.97-5.3,29.05-12.33,41.05-8.85,15.1-20.81,35.49-32.23,35.49ZM206.42,197.97c-3.52,0-6.77,1.8-8.36,2.69-9.29,5.17-14.96,17.02-19.54,27.72-8.21,19.18-17.51,40.91-11.03,46.04.9.71,1.81.89,2.48,1.02.47.09.94.14,1.42.14,10.27,0,22.36-20.63,30.49-34.49,6.35-10.82,18.15-30.96,12.44-38.87h0c-1.93-2.68-4.82-3.73-4.85-3.74-1.02-.36-2.04-.5-3.05-.5Z"/>
        </g>
        <g>
          <path class="cls-5" d="M152.92,241.9c-.71,2.64-1.83,5.87-3.61,9.36-1.62,3.16-3.38,5.73-4.96,7.74"/>
          <path d="M145.14,259.62l-1.58-1.24c1.85-2.36,3.49-4.91,4.85-7.58,1.5-2.92,2.69-6,3.54-9.17l1.94.52c-.89,3.3-2.13,6.51-3.69,9.56-1.42,2.78-3.13,5.44-5.06,7.91Z"/>
        </g>
        <g>
          <path class="cls-5" d="M159.4,224.3c-.03,1.19-.14,2.52-.4,3.96-.59,3.36-1.73,6.07-2.78,8.03"/>
          <path d="M157.11,236.77l-1.77-.94c1.3-2.45,2.2-5.05,2.67-7.74.22-1.25.35-2.53.38-3.81l2.01.05c-.04,1.38-.17,2.76-.41,4.11-.51,2.89-1.48,5.69-2.88,8.33Z"/>
        </g>
        <g>
          <path class="cls-5" d="M164,220.29c.24.61.61,1.39,1.2,2.2.73,1,1.51,1.69,2.1,2.12"/>
          <path d="M166.71,225.42c-.89-.66-1.67-1.45-2.32-2.34-.54-.75-.99-1.57-1.32-2.43l1.87-.72c.27.7.63,1.37,1.07,1.98.53.73,1.16,1.37,1.89,1.9l-1.19,1.61Z"/>
        </g>
        <g>
          <path class="cls-1" d="M92.28,71.78c-.63-2.15-6.28-21.84-2.76-26.09,1.28-1.55,2.71-1.75,2.71-1.75,2.08-.29,3.9,1.56,4.7,2.37,4.86,4.93,6.14,22.96,6.28,25.09"/>
          <path d="M91.32,72.06c-1.53-5.22-6.23-22.6-2.57-27.01,1.49-1.8,3.16-2.08,3.34-2.1,2.58-.37,4.66,1.75,5.55,2.66,4.96,5.04,6.34,22.32,6.57,25.73l-2,.13c-.6-9.08-2.54-20.94-6-24.45-.68-.69-2.27-2.29-3.85-2.08-.03,0-1.08.2-2.08,1.4-2.24,2.7-.04,14.94,2.95,25.17l-1.93.56Z"/>
        </g>
        <path d="M99.79,70.59l-.89-3.26c-.14-.51-.6-.87-1.13-.88-1.14-.02-2.28-.04-3.41-.05-.42,0-.6-.54-.26-.8,3.27-2.6,3.79-6.92,2-9.19-1.44-1.83-4.5-2.49-7.41-1.45l3.78,16.66c.98-.36,2.25-.73,3.77-.93,1.38-.18,2.59-.17,3.56-.09Z"/>
        <g>
          <path class="cls-1" d="M112.96,68.84c-.63-2.15-6.28-21.84-2.76-26.09,1.28-1.55,2.71-1.75,2.71-1.75,2.08-.29,3.9,1.56,4.7,2.37,4.86,4.93,6.14,22.96,6.28,25.09"/>
          <path d="M112,69.12c-1.53-5.22-6.22-22.61-2.57-27.01,1.49-1.8,3.16-2.08,3.34-2.1,2.58-.37,4.66,1.75,5.55,2.66,4.97,5.05,6.34,22.32,6.57,25.73l-2,.13c-.6-9.08-2.53-20.93-6-24.45-.68-.69-2.27-2.29-3.85-2.08-.03,0-1.08.2-2.08,1.4-2.23,2.7-.04,14.94,2.95,25.17l-1.93.56Z"/>
        </g>
        <path d="M120.47,67.65l-.89-3.26c-.14-.51-.6-.87-1.13-.88-1.14-.02-2.28-.04-3.41-.05-.42,0-.6-.54-.26-.8,3.27-2.6,3.79-6.92,2-9.19-1.44-1.83-4.5-2.49-7.41-1.45l3.78,16.66c.98-.36,2.25-.73,3.77-.93,1.38-.18,2.59-.17,3.56-.09Z"/>
        <g>
          <path class="cls-6" d="M105.02,72.51c-1.53-.85-4.8-2.35-8.98-1.67-2.52.41-4.49,1.46-5.79,2.32"/>
          <path d="M90.82,74l-1.11-1.67c1.95-1.29,4.03-2.12,6.18-2.47,4.12-.67,7.51.6,9.62,1.78l-.98,1.75c-1.84-1.03-4.77-2.13-8.33-1.55-1.87.3-3.68,1.03-5.39,2.16Z"/>
        </g>
        <g>
          <path class="cls-6" d="M125.7,69.58c-1.53-.85-4.8-2.35-8.98-1.67-2.52.41-4.49,1.46-5.79,2.32"/>
          <path d="M111.49,71.06l-1.11-1.67c1.95-1.29,4.03-2.12,6.18-2.47,4.12-.67,7.51.6,9.62,1.78l-.98,1.75c-1.84-1.03-4.77-2.13-8.33-1.55-1.87.3-3.68,1.03-5.39,2.17Z"/>
        </g>
        <g>
          <path class="cls-6" d="M106.07,67.86c.14-.17,1.46-1.71,3.6-1.6.16,0,2.14.14,3.29,1.77,1.29,1.83.92,4.64-.85,6.13-1.89,1.6-4.39.86-4.57.8"/>
          <path d="M109.14,76.19c-.99,0-1.74-.22-1.9-.27l.6-1.91c.09.03,2.13.65,3.62-.61,1.35-1.15,1.67-3.38.68-4.79-.89-1.26-2.5-1.35-2.52-1.35-1.67-.08-2.67,1.1-2.79,1.24l-1.54-1.28c.29-.35,1.85-2.09,4.42-1.96.26.01,2.63.17,4.06,2.19,1.59,2.25,1.12,5.67-1.02,7.48-1.19,1-2.54,1.26-3.62,1.26Z"/>
        </g>
        <g>
          <path class="cls-4" d="M109.92,30.76c-.13-.14-1.44-1.66-.96-3.68.35-1.5,1.54-2.68,3.08-3.06,1.9.69,4.15,1.7,6.54,3.17,3.15,1.94,5.51,4.06,7.19,5.82-.01.6-.13,1.9-.96,3.25-1.02,1.65-2.5,2.33-3.03,2.55-1.11-1.41-2.88-3.33-5.48-5.06-2.42-1.61-4.7-2.49-6.35-2.98Z"/>
          <path d="M121.44,40.02l-.47-.59c-1.49-1.89-3.25-3.52-5.25-4.85-1.88-1.25-3.92-2.21-6.08-2.86l-.27-.08-.19-.21c-.18-.21-1.77-2.08-1.19-4.58.44-1.87,1.9-3.33,3.81-3.8l.3-.07.29.1c2.34.85,4.6,1.95,6.72,3.25,2.7,1.66,5.19,3.67,7.39,5.98l.29.3v.42c-.03.93-.24,2.34-1.12,3.76-1.1,1.77-2.67,2.61-3.5,2.95l-.7.29ZM110.52,29.9c2.24.7,4.36,1.71,6.32,3.01,1.95,1.3,3.7,2.86,5.2,4.65.6-.35,1.34-.92,1.91-1.83.53-.84.72-1.69.79-2.34-2.01-2.05-4.25-3.84-6.69-5.34-1.91-1.18-3.95-2.17-6.05-2.96-1.03.35-1.82,1.2-2.06,2.23-.28,1.19.29,2.17.58,2.58Z"/>
        </g>
        <g>
          <path class="cls-4" d="M80.08,37.27c-.97,1.2-1.14,2.86-.43,4.23.69,1.33,2.11,2.15,3.62,2.08,1.62-1.02,3.45-2.07,5.48-3.07,2.95-1.45,5.72-2.51,8.19-3.29.11-.19,1.03-1.79.3-3.65-.75-1.91-2.59-2.44-2.79-2.49-1.91.26-4.39.78-7.14,1.91-3.2,1.31-5.61,2.97-7.24,4.29Z"/>
          <path d="M83.1,44.58c-1.81,0-3.5-1.01-4.34-2.63-.89-1.72-.68-3.81.54-5.32l.15-.15c2.27-1.84,4.79-3.33,7.49-4.43,2.36-.97,4.85-1.63,7.39-1.97l.2-.03.2.05c.42.11,2.55.8,3.46,3.1.88,2.24-.16,4.17-.38,4.53l-.2.33-.36.11c-2.76.87-5.47,1.96-8.05,3.23-1.84.91-3.65,1.92-5.39,3.02l-.23.14h-.27c-.07.01-.14.02-.21.02ZM80.8,37.97c-.67.88-.77,2.07-.26,3.06.47.91,1.41,1.5,2.43,1.54,1.72-1.08,3.51-2.07,5.33-2.97,2.55-1.25,5.22-2.33,7.93-3.21.2-.48.48-1.42.08-2.46-.47-1.19-1.51-1.68-1.94-1.84-2.29.33-4.53.94-6.67,1.81-2.48,1.02-4.81,2.39-6.9,4.07Z"/>
        </g>
        <g>
          <path class="cls-1" d="M31.66,152.67c-.05.02.67,1.61,1.2,3.29.79,2.49,1.23,3.88.68,5.15-.75,1.75-3.11,2.57-4.89,2.73-3.08.28-4.26-1.97-6.7-1.14-1.31.45-1.4,1.24-3.07,1.7-1.63.45-3.03.12-3.52,0-1.82-.44-3-1.46-3.59-1.98-1.89-1.67-1.7-2.79-3-3.25-1.56-.55-2.57.91-3.86.57-3.29-.88-3.83-8.69-3.86-9.2-.39-6.47,1.84-18.92,12.03-22.59,7.02-2.52,13.36.72,14.1,1.12,1.02.89,2.56,2.22,4.44,3.82,4.34,3.69,4.07,3.35,4.51,3.8,3.97,4.12,4.24,9.77,4.43,13.77.19,3.92-.53,5.2-1.27,5.94-.97.97-2.63,1.55-4.04,1.11-2.59-.81-3.52-4.87-3.6-4.83Z"/>
          <path d="M17.16,165.64c-.97,0-1.71-.18-2.03-.26-2.09-.51-3.44-1.7-4.01-2.2-1-.88-1.49-1.64-1.85-2.2-.36-.56-.48-.73-.83-.86-.46-.16-.83-.02-1.45.24-.63.27-1.41.6-2.34.35-3.86-1.03-4.51-8.6-4.6-10.11-.39-6.44,1.76-19.66,12.69-23.59,7.22-2.59,13.69.52,14.91,1.17l.19.13c1.02.89,2.55,2.21,4.44,3.81,2.41,2.05,3.39,2.85,3.87,3.24.43.35.49.4.71.63,4.23,4.39,4.52,10.42,4.71,14.42.21,4.32-.67,5.81-1.56,6.69-1.31,1.32-3.39,1.87-5.04,1.36-.13-.04-.25-.08-.37-.13.27,1.22.3,2.2-.13,3.18-.93,2.16-3.66,3.14-5.72,3.33-1.74.15-2.97-.38-3.96-.8-1.06-.45-1.65-.68-2.51-.38-.43.15-.66.33-.99.59-.46.37-1.03.82-2.14,1.13-.72.2-1.4.27-1.99.27ZM8.05,158.05c.33,0,.68.05,1.05.18,1.01.36,1.43,1.02,1.85,1.66.33.51.7,1.08,1.49,1.78.5.44,1.55,1.36,3.16,1.76.4.1,1.62.4,3.02,0,.72-.2,1.03-.45,1.42-.76.39-.31.83-.66,1.59-.92,1.63-.56,2.87-.03,3.95.44.91.39,1.76.76,2.99.65,1.57-.14,3.51-.87,4.05-2.12.38-.89.06-2.01-.71-4.45-.22-.69-.47-1.36-.68-1.91-.07-.16-.13-.32-.18-.46-.02-.06-.04-.11-.07-.17-.29-.74-.62-1.57.27-1.98l.4-.18.41.18c.42.18.54.53.67.89.77,2.25,1.72,3.56,2.83,3.91,1.07.34,2.36-.19,3.03-.86.35-.35,1.17-1.17.97-5.18-.19-3.92-.44-9.28-4.15-13.12-.16-.17-.21-.21-.53-.47-.48-.39-1.47-1.2-3.9-3.26-1.83-1.56-3.34-2.86-4.36-3.75-1.31-.68-6.94-3.26-13.19-1.01-9.82,3.53-11.73,15.66-11.37,21.58.18,2.93,1.18,7.78,3.12,8.29.25.06.56-.05,1.04-.26.49-.21,1.11-.47,1.85-.47Z"/>
        </g>
        <g>
          <path class="cls-1" d="M18.89,153.17c-.1.84-.36,3.82,1.56,6.58,1.05,1.5,2.33,2.35,3.12,2.78"/>
          <path d="M23.1,163.41c-1.39-.76-2.58-1.82-3.46-3.09-2.02-2.89-1.89-6.05-1.74-7.28l1.99.25c-.12.99-.23,3.56,1.39,5.88.71,1.01,1.67,1.87,2.78,2.47l-.96,1.76Z"/>
        </g>
        <g>
          <path class="cls-1" d="M8.84,152.84c-.24.36-1.09,1.73-.86,3.63.22,1.89,1.37,3.03,1.68,3.33"/>
          <path d="M8.97,160.52c-.52-.48-1.74-1.83-1.99-3.94-.25-2.11.63-3.71,1.02-4.3l1.67,1.11c-.27.4-.88,1.5-.7,2.96.17,1.45,1.01,2.38,1.37,2.71l-1.37,1.47Z"/>
        </g>
        <g>
          <path class="cls-1" d="M13.31,135.56c-.55-.19-3.77-1.38-4.88-4.56-.54-1.55-.58-3.55.23-5,3.06-5.48,19.37-5,22.67,1.57.06.13,1.31,2.7.16,5.17-1.29,2.78-5.1,4.34-9.65,3.83"/>
          <path d="M23.55,137.67c-.59,0-1.2-.04-1.83-.1l.22-1.99c4.04.46,7.51-.86,8.63-3.26.95-2.05-.13-4.27-.14-4.29-1.59-3.17-6.82-4.68-11.29-4.78-4.63-.08-8.47,1.21-9.61,3.25-.59,1.07-.66,2.75-.16,4.18.91,2.59,3.5,3.68,4.27,3.95l-.67,1.89c-.99-.35-4.3-1.75-5.5-5.18-.55-1.57-.76-3.92.3-5.82,1.84-3.29,7.08-4.35,11.4-4.28,4.7.1,10.94,1.7,13.04,5.88.06.12,1.54,3.1.17,6.04-1.32,2.83-4.69,4.51-8.85,4.51Z"/>
        </g>
        <g>
          <path class="cls-4" d="M61.32,95.56c-4.63,1.53-11.77,4.56-18.8,10.65-10.3,8.91-14.6,19.38-16.31,24.46-.7.41-3.32,1.83-6.76,1.24-3.85-.66-5.94-3.37-6.37-3.96.59-4.24,3.28-19.73,16.99-31.94,11.77-10.48,24.81-12.43,29.44-12.91.58.53,2.74,2.62,3.17,6.12.4,3.23-.93,5.63-1.36,6.34Z"/>
          <path d="M21.13,133.06c-.59,0-1.21-.05-1.85-.16-3.94-.68-6.21-3.27-7.01-4.35l-.24-.33.06-.4c.82-5.88,4.16-20.83,17.31-32.55,11.13-9.91,23.58-12.5,30.01-13.16l.45-.05.33.3c.9.82,3.04,3.12,3.49,6.73.4,3.25-.76,5.77-1.5,6.98l-.19.32-.35.12c-6.85,2.27-13.06,5.79-18.46,10.45-9.26,8.01-13.82,17.49-16.01,24.02l-.12.36-.33.19c-1.06.62-3.04,1.52-5.59,1.52ZM14.13,127.67c.81,1,2.61,2.75,5.49,3.25,2.61.44,4.73-.4,5.77-.94,2.32-6.76,7.05-16.37,16.48-24.53,5.5-4.76,11.82-8.36,18.78-10.72.59-1.08,1.34-2.99,1.04-5.39-.32-2.58-1.7-4.34-2.53-5.19-6.31.71-17.97,3.31-28.42,12.61-12.36,11-15.71,24.98-16.6,30.91Z"/>
        </g>
        <path d="M31.64,155.46c-.5-1.06-.81-2.18-.93-3.33-.23-2.28.37-4.15.91-5.33l1.82.84c-.44.95-.92,2.46-.74,4.29.09.92.34,1.82.75,2.67l-1.81.86Z"/>
      </g>
    </g>
  </g>
</svg>