<?xml version="1.0" encoding="UTF-8"?>
<svg id="Capa_2" xmlns="http://www.w3.org/2000/svg" viewBox="0 0 356.46 338.07">
  <defs>
    <style>
      .cls-1 {
        fill: #0077fb;
      }

      .cls-2 {
        fill: #c4e000;
      }
    </style>
  </defs>
  <g id="Capa_1-2" data-name="Capa_1">
    <g>
      <g>
        <path d="M153.03,26.99c-19.48,3.48-27.29-9.57-39.65-3.42-13.05,6.49-6.83,22.29-21.88,35.55-15.33,13.51-30.55,4.86-38.97,17.09-8.38,12.18,4.98,23.27-2.05,41.7-7.46,19.54-27.1,19.16-28.71,34.18-1.5,13.93,15.08,17.02,17.77,36.23,2.82,20.11-13.7,28.5-8.2,42.39,5.13,12.96,20.55,8.24,32.13,23.93,12.09,16.38,1.58,30.07,12.99,41.02,11.66,11.19,25.37-.47,43.75,10.94,17.03,10.57,14.08,26.05,27.35,29.4,14.44,3.64,20.7-14.03,41.02-13.67,18.38.32,22.6,14.94,36.92,12.31,14.18-2.61,12.72-17.47,30.76-26.66,19.37-9.87,31.55,1.92,43.07-8.2,11.93-10.49,1.42-25.38,14.36-41.7,11.47-14.47,25.42-9.95,30.76-22.56,5.16-12.18-7-18.45-5.47-37.6,1.71-21.35,17.76-25.18,15.72-41.02-1.97-15.3-17.31-14.68-23.93-33.5-7.27-20.7,7.32-32.73-1.37-45.12-8.5-12.11-24.06-2.9-39.65-16.41-15.36-13.31-9.29-30.07-22.56-36.23-12.17-5.65-19.54,7.39-37.6,4.1-20.24-3.69-21.96-22.09-38.28-22.56-15.55-.45-17.64,16.14-38.28,19.83Z"/>
        <path d="M151.42,338.07c-1.35,0-2.76-.17-4.25-.54-7.32-1.85-10.22-7.18-13.29-12.82-2.99-5.49-6.37-11.72-14.5-16.76-8.86-5.5-16.4-5.4-23.69-5.31-7.23.1-14.07.18-20.33-5.83-6.11-5.86-6.4-12.41-6.71-19.34-.31-6.88-.63-13.99-6.45-21.88-5.54-7.51-12.08-10.15-17.86-12.48-6-2.42-11.67-4.71-14.47-11.8-2.98-7.54-.04-13.59,3.08-19.99,3.14-6.44,6.38-13.11,5.03-22.76-1.29-9.22-6.02-14.62-10.19-19.4-4.33-4.95-8.41-9.63-7.6-17.22.88-8.17,6.62-12.18,12.69-16.42,5.87-4.11,12.53-8.76,16.12-18.15,3.35-8.78,1.88-15.65.45-22.3-1.44-6.73-2.8-13.09,1.77-19.74,4.58-6.65,11.03-7.65,17.86-8.72,6.57-1.02,14.01-2.18,21.37-8.66,7.18-6.33,9.32-13.36,11.21-19.56,1.99-6.51,3.86-12.66,11.01-16.22,6.8-3.38,12.46-1.42,18.46.66,5.78,2,12.33,4.27,21.62,2.62h0c9.96-1.78,15.27-6.56,20.39-11.19,5.07-4.58,9.87-8.91,18.21-8.66,8.7.25,13.5,5.16,18.57,10.36,5.01,5.13,10.2,10.44,19.95,12.22,8.57,1.56,14.71-.77,20.12-2.84,5.74-2.19,11.16-4.25,17.86-1.14,7.29,3.38,9.27,9.73,11.36,16.46,1.99,6.41,4.25,13.67,11.57,20.02,7.52,6.52,15.15,7.51,21.88,8.38,6.91.9,13.43,1.75,18.03,8.31,4.7,6.7,3.15,13.39,1.51,20.47-1.63,7.03-3.47,15,.05,25.03,3.14,8.94,8.22,13.19,13.13,17.3,5.04,4.22,9.8,8.21,10.87,16.52,1.09,8.51-2.69,13.85-6.7,19.5-3.84,5.42-8.19,11.56-9.02,21.84-.72,9,1.7,15.03,3.84,20.35,2.36,5.86,4.39,10.92,1.51,17.74-2.96,7-8.42,9.2-14.2,11.53-5.34,2.15-11.39,4.59-16.78,11.39-6.25,7.88-6.75,15.29-7.23,22.44-.48,7.13-.94,13.86-7.32,19.46-6.22,5.46-12.72,5.04-19.61,4.59-6.76-.44-14.42-.94-23.78,3.83-8.53,4.34-12.54,10.03-16.08,15.05-3.74,5.31-7.28,10.32-15.12,11.76-7.82,1.44-12.85-1.85-18.18-5.34-5.1-3.34-10.37-6.79-19.05-6.94-9.77-.19-16,3.95-22.01,7.94-4.81,3.19-9.4,6.23-15.12,6.23ZM98.48,299.45c6.68,0,14.13.58,22.57,5.81,8.84,5.49,12.59,12.39,15.61,17.93,2.97,5.46,5.31,9.76,11.29,11.27,6.46,1.63,11.05-1.41,16.85-5.26,6.12-4.05,13.04-8.64,23.81-8.46,9.59.17,15.5,4.04,20.72,7.46,4.99,3.27,9.3,6.09,15.88,4.88,6.58-1.21,9.46-5.3,13.11-10.48,3.75-5.32,8-11.34,17.22-16.04,10.13-5.16,18.25-4.63,25.42-4.17,6.75.44,12.09.78,17.33-3.81,5.4-4.75,5.8-10.57,6.25-17.31.49-7.28,1.05-15.54,7.91-24.19,5.91-7.45,12.37-10.06,18.07-12.36,5.6-2.26,10.02-4.04,12.48-9.84,2.38-5.62.66-9.91-1.53-15.33-2.16-5.36-4.84-12.03-4.06-21.78.89-11.14,5.51-17.66,9.59-23.41,3.96-5.58,7.08-9.99,6.14-17.28-.91-7.09-4.82-10.36-9.77-14.5-4.99-4.18-10.65-8.92-14.08-18.67-3.83-10.89-1.87-19.33-.15-26.78,1.6-6.93,2.87-12.4-1.02-17.95-3.81-5.42-9.12-6.12-15.86-6.99-7.17-.93-15.3-1.99-23.53-9.13-8-6.93-10.4-14.65-12.52-21.46-2.04-6.56-3.65-11.74-9.67-14.53-5.5-2.55-9.87-.88-15.41,1.23-5.8,2.21-12.37,4.71-21.81,2.99-10.74-1.96-16.53-7.89-21.64-13.12-4.82-4.94-8.98-9.2-16.41-9.41-7.1-.19-11.02,3.35-16.01,7.85-5.2,4.69-11.1,10.02-21.95,11.95-10.1,1.8-17.36-.72-23.2-2.74-5.81-2.02-10.41-3.61-16.02-.81-5.93,2.95-7.46,7.97-9.39,14.32-2.01,6.6-4.3,14.09-12.14,21.01-8.04,7.09-15.97,8.32-22.97,9.41-6.67,1.04-11.94,1.86-15.75,7.39-3.81,5.53-2.7,10.72-1.29,17.29,1.45,6.76,3.09,14.43-.59,24.08-3.93,10.3-11.01,15.25-17.26,19.61-5.94,4.15-10.64,7.43-11.36,14.17-.67,6.22,2.64,10.01,6.84,14.81,4.46,5.1,9.51,10.88,10.93,21.03,1.48,10.6-2.13,18.03-5.32,24.57-3.05,6.26-5.45,11.21-2.98,17.45,2.31,5.84,6.9,7.69,12.72,10.04,6.16,2.49,13.14,5.31,19.21,13.53,6.39,8.65,6.75,16.6,7.06,23.61.3,6.56.55,12.22,5.75,17.21,5.33,5.11,10.97,5.04,18.11,4.95.92-.01,1.86-.02,2.82-.02Z"/>
      </g>
      <g>
        <path class="cls-1" d="M146.43,21.41c-19.48,3.48-27.29-9.57-39.65-3.42-13.05,6.49-6.83,22.29-21.88,35.55-15.33,13.51-30.55,4.86-38.97,17.09-8.38,12.18,4.98,23.27-2.05,41.7-7.46,19.54-27.1,19.16-28.71,34.18-1.5,13.93,15.08,17.02,17.77,36.23,2.82,20.11-13.7,28.5-8.2,42.39,5.13,12.96,20.55,8.24,32.13,23.93,12.09,16.38,1.58,30.07,12.99,41.02,11.66,11.19,25.37-.47,43.75,10.94,17.03,10.57,14.08,26.05,27.35,29.4,14.44,3.64,20.7-14.03,41.02-13.67,18.38.32,22.6,14.94,36.92,12.31,14.18-2.61,12.72-17.47,30.76-26.66,19.37-9.87,31.55,1.92,43.07-8.2,11.93-10.49,1.42-25.38,14.36-41.7,11.47-14.47,25.42-9.95,30.76-22.56,5.16-12.18-7-18.45-5.47-37.6,1.71-21.35,17.76-25.18,15.72-41.02-1.97-15.3-17.31-14.68-23.93-33.5-7.27-20.7,7.32-32.73-1.37-45.12-8.5-12.11-24.06-2.9-39.65-16.41-15.36-13.31-9.29-30.07-22.56-36.23-12.17-5.65-19.54,7.39-37.6,4.1-20.24-3.69-21.96-22.09-38.28-22.56-15.55-.45-17.64,16.14-38.28,19.83Z"/>
        <path d="M144.82,332.49c-1.35,0-2.76-.17-4.25-.54-7.32-1.85-10.22-7.18-13.29-12.82-2.99-5.49-6.37-11.72-14.5-16.76-8.86-5.5-16.4-5.4-23.69-5.31-7.23.09-14.07.18-20.33-5.83-6.11-5.86-6.4-12.41-6.71-19.34-.31-6.88-.63-14-6.45-21.88-5.54-7.51-12.08-10.15-17.86-12.48-6-2.42-11.67-4.71-14.47-11.8-2.98-7.54-.04-13.59,3.08-19.99,3.14-6.44,6.38-13.11,5.03-22.76-1.29-9.22-6.02-14.63-10.18-19.4-4.33-4.95-8.41-9.63-7.6-17.22.88-8.17,6.62-12.18,12.69-16.42,5.87-4.11,12.53-8.76,16.12-18.15,3.35-8.78,1.88-15.65.45-22.3-1.44-6.73-2.8-13.09,1.77-19.74,4.57-6.65,11.03-7.65,17.86-8.72,6.57-1.02,14.01-2.18,21.37-8.66,7.18-6.33,9.32-13.36,11.21-19.56,1.99-6.51,3.86-12.66,11-16.22,6.8-3.38,12.46-1.42,18.46.66,5.78,2,12.33,4.27,21.62,2.62,9.96-1.78,15.27-6.56,20.39-11.19C171.62,4.09,176.42-.24,184.76.01c8.7.25,13.5,5.16,18.57,10.36,5.01,5.13,10.2,10.44,19.95,12.22,8.57,1.56,14.71-.78,20.12-2.84,5.74-2.19,11.16-4.25,17.86-1.14,7.29,3.38,9.26,9.73,11.36,16.46,1.99,6.41,4.25,13.67,11.57,20.02,7.52,6.52,15.15,7.51,21.88,8.38,6.91.9,13.43,1.75,18.03,8.31,4.7,6.7,3.15,13.39,1.51,20.47-1.63,7.03-3.47,15,.05,25.03,3.14,8.94,8.22,13.19,13.13,17.3,5.04,4.22,9.8,8.21,10.87,16.52,1.09,8.51-2.69,13.85-6.7,19.5-3.84,5.42-8.19,11.56-9.02,21.84-.72,9,1.7,15.03,3.84,20.35,2.36,5.86,4.39,10.92,1.51,17.74-2.96,7-8.42,9.2-14.2,11.53-5.34,2.15-11.39,4.59-16.78,11.39-6.25,7.88-6.75,15.28-7.23,22.44-.48,7.13-.94,13.86-7.32,19.46-6.22,5.46-12.72,5.04-19.61,4.59-6.76-.44-14.42-.94-23.78,3.83-8.53,4.34-12.54,10.03-16.08,15.05-3.74,5.31-7.28,10.32-15.12,11.76-7.82,1.44-12.85-1.85-18.18-5.34-5.1-3.34-10.37-6.79-19.05-6.94-9.82-.17-16,3.95-22.01,7.94-4.81,3.19-9.4,6.23-15.12,6.23ZM91.88,293.87c6.68,0,14.13.58,22.57,5.81,8.84,5.49,12.59,12.39,15.61,17.93,2.97,5.46,5.31,9.76,11.29,11.27,6.46,1.63,11.05-1.41,16.85-5.26,6.12-4.05,13.06-8.6,23.81-8.46,9.59.17,15.5,4.04,20.72,7.46,4.99,3.27,9.3,6.09,15.88,4.88,6.58-1.21,9.46-5.3,13.11-10.48,3.75-5.32,8-11.34,17.22-16.04,10.13-5.16,18.25-4.64,25.42-4.17,6.76.44,12.09.79,17.33-3.82,5.4-4.75,5.8-10.57,6.25-17.31.49-7.28,1.05-15.54,7.91-24.19,5.91-7.45,12.37-10.06,18.07-12.36,5.6-2.26,10.02-4.04,12.48-9.84,2.38-5.62.65-9.91-1.53-15.33-2.16-5.36-4.84-12.03-4.06-21.78.89-11.14,5.51-17.66,9.59-23.41,3.96-5.58,7.08-9.99,6.14-17.28-.91-7.09-4.82-10.36-9.77-14.5-4.99-4.18-10.65-8.92-14.08-18.67-3.83-10.89-1.87-19.33-.15-26.78,1.6-6.93,2.87-12.4-1.02-17.95-3.81-5.42-9.12-6.12-15.86-6.99-7.17-.93-15.3-1.99-23.53-9.13-8-6.93-10.4-14.65-12.52-21.46-2.04-6.56-3.65-11.74-9.67-14.53-5.5-2.55-9.87-.88-15.41,1.23-5.8,2.21-12.37,4.71-21.81,2.99-10.74-1.96-16.53-7.89-21.64-13.12-4.82-4.94-8.98-9.2-16.41-9.42-7.09-.19-11.02,3.35-16.01,7.85-5.2,4.69-11.1,10.02-21.95,11.95h0c-10.1,1.8-17.36-.72-23.2-2.74-5.81-2.02-10.41-3.61-16.02-.81-5.93,2.95-7.46,7.97-9.39,14.32-2.01,6.6-4.3,14.09-12.14,21.01-8.04,7.09-15.97,8.32-22.97,9.41-6.67,1.04-11.94,1.86-15.75,7.39-3.81,5.53-2.7,10.72-1.29,17.29,1.45,6.76,3.09,14.43-.59,24.08-3.93,10.3-11.01,15.25-17.26,19.61-5.94,4.15-10.64,7.43-11.36,14.17-.67,6.22,2.64,10.01,6.84,14.81,4.46,5.1,9.51,10.88,10.93,21.03,1.49,10.6-2.13,18.03-5.31,24.57-3.05,6.26-5.45,11.21-2.98,17.45,2.31,5.83,6.9,7.69,12.72,10.04,6.16,2.49,13.14,5.31,19.21,13.53,6.39,8.66,6.75,16.6,7.06,23.61.3,6.56.55,12.22,5.75,17.21,5.33,5.11,10.96,5.04,18.1,4.95.93-.01,1.87-.02,2.82-.02Z"/>
      </g>
      <g>
        <path d="M285.65,215.15c-5.3-5.66-14.5-8.93-22.39-6.98-10.32,2.56-11.44,12.35-21.81,13.69-8.52,1.1-15.06-4.57-15.45-4.92-6.65-5.95-6.96-15.49-6.98-21.07-.17-35.24,9.97-74.47,11.18-79.14,2.59-10.01,6.72-26.23,11.69-46.75l-4.91-6.87s-22.24.27-30.06-1.63c-2.27,4.31-5.78,10.9-10.16,18.87-14.82,27-37.54,66.09-70.67,108.38-14.03,17.91-32.15,39.23-51.03,39.36-1.94.01-8.01.06-13.87-3.66-11.49-7.27-12.21-22.62-12.34-25.33-.11-2.41-1-21.31,12.75-29.52,1.2-.71,9.39-5.44,18.26-2.83,9.47,2.79,9.46,10.95,17.62,13.51,8.96,2.82,20.57-3.37,26.42-11.4,8.66-11.88,5.19-28.39-1.15-38.08-11.94-18.23-38.95-19.83-55.79-15.91-35.93,8.38-49.57,47.56-51.93,54.94-1.08,3.38-16.48,53.78,12.71,77.86,19.07,15.73,45.41,10.52,51.35,9.35,24.9-4.92,41.04-23.71,66.26-52.32,8.97-10.18,15.81-19.14,20.38-25.45,8.44,3.01,16.89,6.01,25.33,9.02-.78,5.71-3.87,32.84,14.48,55.19,3.68,4.48,14.66,17.5,33.53,21.33,2.9.59,33.27,6.33,46.43-13.01,6.75-9.91,9.35-26.83.14-36.65ZM195.99,139.11c-.39,1.82-.65,3.01-.79,3.65-.16.71-.44,1.72-.7,3.17-.8,3.9-1.1,6.35-1.31,10.54l-.62,11.45-14.19-4.86,6.52-9.43c2.12-3.28,4.2-6.91,5.21-8.94.48-.94,1.26-2.55,2.34-4.82.99-2.21,1.79-3.9,2.32-4.99l1.99.68c-.14.63-.39,1.82-.76,3.57Z"/>
        <path d="M252.31,267.62c-6.86,0-12.21-.99-13.54-1.26-13.11-2.66-24.7-10.02-34.43-21.88-16.73-20.37-16.24-44.48-14.98-55.13l-23.03-8.2c-6.18,8.45-12.83,16.72-19.78,24.61l-1.52,1.72c-24.51,27.8-40.7,46.17-65.62,51.1-21.59,4.27-39.8.92-52.66-9.68-30.26-24.96-13.92-77.34-13.21-79.55,3.54-11.06,17.84-47.78,53.07-56,19.48-4.54,45.76-1.29,57.46,16.58,3.54,5.41,5.89,12.32,6.46,18.95.67,7.96-1.18,15.2-5.35,20.92-6.08,8.33-18.27,15.1-28.17,11.97-4.36-1.37-6.61-4.15-8.79-6.84-2.23-2.75-4.34-5.35-8.8-6.67-7.98-2.36-15.56,1.81-17,2.67-12.01,7.17-12.21,23.32-11.98,28.09.24,5.18,1.86,17.91,11.6,24.07,5.47,3.46,11.14,3.43,13.02,3.41,17.17-.12,34.08-18.7,49.8-38.76,33.41-42.64,56.25-82.16,70.53-108.17,3.42-6.23,6.83-12.57,10.14-18.85l.57-1.09,1.19.29c7.54,1.83,29.45,1.59,29.67,1.58h.82s5.81,8.12,5.81,8.12l-.17.7c-3.84,15.87-7.78,31.61-11.7,46.78-2.66,10.28-11.29,46.27-11.13,78.74.02,4.6.07,14.19,6.46,19.91.25.23,6.3,5.55,14.19,4.54,4.83-.62,7.37-3.23,10.31-6.25,2.77-2.84,5.91-6.07,11.32-7.41,8.1-2.01,17.93,1.04,23.92,7.43h0c5.75,6.13,6.62,13.96,6.34,19.45-.35,6.79-2.65,13.77-6.33,19.17-8.41,12.35-23.43,14.93-34.51,14.93ZM165.16,177.39l27.65,9.84-.17,1.27c-1.3,9.48-2.51,33.71,14.13,53.98,9.26,11.28,20.24,18.27,32.62,20.79,3.27.67,32.35,5.96,44.82-12.35,6.64-9.75,8.64-25.79.3-34.69-5.16-5.5-13.93-8.24-20.86-6.52-4.53,1.12-7.1,3.76-9.82,6.55-3.07,3.15-6.25,6.41-12.17,7.18-9.31,1.19-16.4-5.05-16.7-5.31-7.43-6.65-7.48-17.18-7.51-22.24-.16-32.84,8.55-69.17,11.22-79.52,3.86-14.95,7.74-30.43,11.52-46.05l-4.02-5.62c-3.95.03-20.6.06-28.42-1.42-3.15,5.95-6.38,11.95-9.61,17.84-14.33,26.11-37.27,65.77-70.81,108.6-16.2,20.68-33.75,39.84-52.25,39.97-2.1.01-8.48.05-14.73-3.9-10.99-6.96-12.8-20.91-13.07-26.59-.25-5.22,0-22.88,13.52-30.95,2.3-1.37,10.51-5.65,19.51-2.99,5.41,1.59,8.04,4.84,10.36,7.71,2.06,2.54,3.83,4.73,7.29,5.82,8.43,2.65,19.37-3.55,24.67-10.83,7.8-10.7,5.31-26.36-1.2-36.29-10.87-16.6-35.67-19.54-54.11-15.23-8.5,1.98-37.28,11.73-50.79,53.89-.68,2.13-16.42,52.54,12.21,76.16,12.1,9.98,29.4,13.1,50.04,9.02,23.88-4.72,39.79-22.77,63.87-50.09l1.52-1.72c7.15-8.11,13.98-16.63,20.29-25.33l.69-.96ZM194.03,170.08l-18.13-6.21,7.71-11.15c1.93-2.99,4.03-6.6,5.09-8.74.48-.95,1.26-2.55,2.33-4.8.94-2.11,1.74-3.78,2.32-5l.61-1.26,4.64,1.59-.3,1.37c-.14.63-.39,1.82-.76,3.56h0s-.41,1.89-.41,1.89c-.17.8-.3,1.39-.38,1.77l-.13.55c-.16.66-.36,1.48-.56,2.56-.78,3.82-1.08,6.23-1.28,10.33l-.74,13.54ZM180.86,162.24l10.25,3.51.51-9.37c.21-4.28.52-6.8,1.34-10.77.21-1.13.43-2.04.59-2.7l.12-.51c.08-.36.2-.94.38-1.73l.22-1.02c-.12.27-.25.56-.38.85-1.11,2.32-1.89,3.94-2.37,4.89-1.09,2.23-3.27,5.97-5.29,9.09l-5.36,7.76Z"/>
      </g>
      <g>
        <path class="cls-2" d="M278.78,205.33c-5.3-5.66-14.5-8.93-22.39-6.98-10.32,2.56-11.44,12.35-21.81,13.69-8.52,1.1-15.06-4.57-15.45-4.92-6.65-5.95-6.96-15.49-6.98-21.07-.17-35.24,9.97-74.47,11.18-79.14,2.59-10.01,6.72-26.23,11.69-46.75-11.66-2.83-23.31-5.67-34.97-8.5-2.27,4.31-5.78,10.9-10.16,18.87-14.82,27-37.54,66.09-70.67,108.38-14.03,17.91-32.15,39.23-51.03,39.36-1.94.01-8.01.06-13.87-3.66-11.49-7.27-12.21-22.62-12.34-25.33-.11-2.41-1-21.31,12.75-29.52,1.2-.71,9.39-5.44,18.26-2.83,9.47,2.79,9.46,10.95,17.62,13.51,8.96,2.82,20.57-3.37,26.42-11.4,8.66-11.88,5.19-28.39-1.15-38.08-11.94-18.23-38.95-19.83-55.79-15.91-35.93,8.38-49.57,47.56-51.93,54.94-1.08,3.38-16.48,53.78,12.71,77.86,19.07,15.73,45.41,10.52,51.35,9.35,24.9-4.92,41.04-23.71,66.26-52.32,8.97-10.18,15.81-19.14,20.38-25.45,8.44,3.01,16.89,6.01,25.33,9.02-.78,5.71-3.87,32.84,14.48,55.19,3.68,4.48,14.66,17.5,33.53,21.33,2.9.59,33.27,6.33,46.43-13.01,6.75-9.91,9.35-26.83.14-36.65ZM189.12,129.29c-.39,1.82-.65,3.01-.79,3.65-.16.71-.44,1.72-.7,3.17-.8,3.9-1.1,6.35-1.31,10.54l-.62,11.45-14.19-4.86,6.52-9.43c2.12-3.28,4.2-6.91,5.21-8.94.48-.94,1.26-2.55,2.34-4.82.99-2.21,1.79-3.9,2.32-4.99l1.99.68c-.14.63-.39,1.82-.76,3.57Z"/>
        <path d="M200.06,51.66c11.66,2.83,23.31,5.67,34.97,8.5-4.97,20.53-9.11,36.75-11.69,46.76-1.21,4.67-11.35,43.89-11.18,79.14.03,5.59.33,15.12,6.98,21.07.36.32,5.82,5.07,13.24,5.07.72,0,1.45-.04,2.2-.14,10.37-1.34,11.49-11.13,21.81-13.69,1.56-.39,3.17-.57,4.79-.57,6.58,0,13.34,3.01,17.6,7.54,9.21,9.82,6.61,26.74-.14,36.65-8.02,11.78-22.43,14.25-33.12,14.25-6.85,0-12.18-1.02-13.31-1.25-18.86-3.83-29.85-16.85-33.53-21.33-18.35-22.35-15.26-49.48-14.48-55.19-8.44-3.01-16.89-6.01-25.33-9.02-4.57,6.31-11.41,15.27-20.38,25.45-25.22,28.61-41.36,47.39-66.26,52.32-2.56.51-8.93,1.76-16.87,1.76-10.45,0-23.64-2.18-34.47-11.12-29.19-24.08-13.79-74.48-12.71-77.86,2.37-7.38,16-46.56,51.93-54.94,4.68-1.09,10.14-1.76,15.84-1.76,14.84,0,31.32,4.49,39.94,17.66,6.35,9.69,9.81,26.2,1.15,38.08-4.87,6.68-13.73,12.09-21.73,12.09-1.61,0-3.19-.22-4.69-.69-8.16-2.57-8.15-10.72-17.62-13.51-1.89-.56-3.75-.78-5.52-.78-6.53,0-11.8,3.05-12.74,3.61-13.75,8.21-12.86,27.11-12.75,29.52.13,2.71.85,18.06,12.34,25.33,5.47,3.46,11.11,3.66,13.43,3.66.17,0,.32,0,.45,0,18.87-.13,36.99-21.45,51.03-39.36,33.13-42.29,55.85-81.39,70.67-108.38,4.37-7.97,7.88-14.56,10.16-18.87M185.7,158.09l.62-11.45c.21-4.19.51-6.64,1.31-10.54.26-1.44.53-2.46.7-3.17.14-.63.39-1.82.79-3.65.37-1.75.62-2.94.76-3.57l-1.99-.68c-.53,1.1-1.33,2.78-2.32,4.99-1.08,2.27-1.86,3.88-2.34,4.82-1,2.04-3.09,5.67-5.21,8.94l-6.52,9.43,14.19,4.86M200.06,48.5c-1.15,0-2.23.63-2.79,1.68-3.3,6.25-6.7,12.58-10.13,18.83-14.25,25.96-37.06,65.4-70.39,107.96-15.47,19.75-32.07,38.04-48.57,38.15h-.43c-4.47,0-8.42-1.06-11.74-3.17-9.12-5.77-10.64-17.88-10.87-22.81-.21-4.56-.04-19.95,11.22-26.67,1.24-.74,5.72-3.16,11.13-3.16,1.6,0,3.16.22,4.62.65,4,1.18,5.86,3.48,8.02,6.15,2.22,2.73,4.73,5.83,9.54,7.35,1.77.56,3.67.84,5.64.84,8.54,0,18.52-5.51,24.27-13.39,4.4-6.04,6.35-13.64,5.65-21.99-.58-6.89-3.03-14.06-6.71-19.68-7.94-12.13-23.46-19.09-42.58-19.09-5.68,0-11.41.64-16.56,1.84-15.96,3.72-29.56,13.52-40.42,29.11-7.8,11.2-11.99,22.31-13.79,27.94-.49,1.53-4.8,15.42-5.15,32.06-.45,21.63,6.07,38.64,18.85,49.19,9.52,7.85,21.8,11.84,36.48,11.84,8.25,0,14.96-1.33,17.48-1.82,25.45-5.03,41.78-23.56,66.5-51.6l1.52-1.72c6.72-7.63,13.17-15.62,19.17-23.78l10.45,3.72,10.3,3.67c-1.16,11.42-1.01,35,15.47,55.07,9.97,12.14,21.86,19.68,35.33,22.42,1.51.31,6.99,1.31,13.94,1.31,11.44,0,26.93-2.71,35.73-15.63,7.83-11.51,9.92-29.83-.16-40.58-4.94-5.27-12.56-8.54-19.9-8.54-1.91,0-3.78.22-5.55.66-5.84,1.45-9.15,4.84-12.07,7.84-2.85,2.92-5.1,5.23-9.39,5.79-.59.08-1.2.12-1.8.12-6.31,0-11.09-4.22-11.14-4.26-5.87-5.25-5.91-14.36-5.93-18.74-.16-32.28,8.44-68.11,11.07-78.32,3.94-15.24,7.88-30.99,11.71-46.82.41-1.69-.63-3.39-2.32-3.8l-16.9-4.11-18.07-4.39c-.25-.06-.5-.09-.75-.09h0ZM176.47,151.6l4.15-6.01s.04-.05.05-.08c1-1.55,2.05-3.26,2.98-4.87-.23,1.76-.37,3.56-.48,5.84l-.4,7.28-6.31-2.16h0Z"/>
      </g>
    </g>
  </g>
</svg>