<?xml version="1.0" encoding="UTF-8"?>
<svg id="Capa_2" xmlns="http://www.w3.org/2000/svg" viewBox="0 0 704.54 340.57">
  <defs>
    <style>
      .cls-1 {
        fill: #fffaf0;
      }

      .cls-2 {
        fill: #0077fb;
      }

      .cls-3 {
        fill: #c4e000;
      }

      .cls-4 {
        fill: #ff63ff;
      }
    </style>
  </defs>
  <g id="Capa_1-2" data-name="Capa_1">
    <g>
      <g>
        <path d="M656.2,165.9c2.02,17.98-24.46,21.61-35.81,54.05-8.43,24.08,1.05,36.68-9.99,46.44-13.03,11.52-29.62-3.09-47.98,8.69-16.97,10.88-11.76,29.09-27.62,35.67-14.03,5.81-21.55-7.01-39.24-1.82-16.38,4.8-15.45,17.43-31.32,21.98-15.76,4.52-20.36-6.86-41.88-6.75-25.02.13-27.88,15.55-50.86,14.82-20.61-.66-21.26-13.17-44.28-15.22-24.23-2.16-29.5,11.16-48.46,6.15-18.45-4.88-18.23-18.75-36.06-21.86-18.45-3.22-24.96,10.52-38.54,5.73-16.31-5.76-11.42-27.19-30.43-38.48-16.26-9.66-27.83,1.28-40.13-8.9-11.14-9.23-4.31-20.41-13.63-43.66-11.98-29.88-31.25-31.33-30.72-49.08.46-15.37,14.95-15.67,29.35-42.12,14.78-27.15,6.35-39.41,20.05-50.62,15.35-12.56,28.93.38,49.73-12.54,18.99-11.81,14.85-27.06,31.93-33.83,17.26-6.83,25.33,7.23,45.09,1.02,19.86-6.23,20.51-23.2,36.56-24.21,14.76-.93,17.91,13.2,34.35,13.3,17.12.11,19.19-15.17,37.22-17.33,20.08-2.41,24.41,18.24,49.39,19.66,22.4,1.27,28.77-15.26,44.35-9.58,15.43,5.62,13.16,20.8,28.87,26.35,16.64,5.88,25.37-8.95,40.68-3.17,16,6.04,11.53,24.15,30.31,35.18,15.88,9.32,25.73.28,37.23,10.18,10.89,9.38,4.8,19.88,13.92,38.43,13.27,27.01,36.06,24.88,37.92,41.52Z"/>
        <path d="M373.04,340.57c-.52,0-1.06,0-1.6-.03-10.71-.34-16.18-3.72-21.98-7.3-5.52-3.41-11.23-6.93-22.39-7.93-11.51-1.02-18.43,1.48-25.11,3.91-6.92,2.51-13.46,4.88-23.61,2.2-9.45-2.5-14.15-7.19-18.7-11.73-4.43-4.42-8.62-8.6-17.23-10.11-8.88-1.55-14.74.99-20.41,3.44-5.71,2.47-11.09,4.8-18.38,2.23-8.76-3.09-11.83-10.28-15.07-17.9-3.21-7.52-6.52-15.3-15.64-20.71-7.66-4.55-14.19-4.29-20.51-4.04-6.76.27-13.15.52-19.82-5-6.64-5.5-7.38-11.82-8.32-19.83-.75-6.35-1.67-14.26-5.77-24.46-5.83-14.54-13.45-22.24-19.58-28.43-6.45-6.52-11.54-11.67-11.26-21.28.26-8.66,4.62-12.86,10.65-18.69,5.4-5.21,12.12-11.7,18.89-24.14,6.95-12.77,8.68-22.21,10.07-29.79,1.55-8.43,2.77-15.08,10.36-21.3,8.06-6.59,15.63-6.54,23.64-6.49,7.94.05,16.16.1,26.25-6.17,8.98-5.58,12.52-11.85,15.95-17.9,3.61-6.38,7.02-12.4,16.23-16.05,9.11-3.61,15.96-1.66,22.58.21,6.47,1.84,13.17,3.74,22.62.77,9.37-2.94,14.16-8.25,18.8-13.38,4.81-5.32,9.35-10.35,18.13-10.9,7.92-.5,12.8,3.07,17.52,6.52,4.73,3.46,9.2,6.73,16.94,6.78,8.25.07,12.59-3.58,17.66-7.79,4.75-3.95,10.14-8.42,19.36-9.53,10.69-1.28,17.17,3.58,24.04,8.73,6.71,5.03,13.65,10.24,25.64,10.92,10.58.61,17.5-2.96,23.6-6.1,6.5-3.35,12.64-6.51,21.21-3.38,8.16,2.98,11.66,8.44,15.05,13.73,3.3,5.15,6.41,10.01,13.81,12.62,7.89,2.79,13.78.65,20.01-1.62,6.19-2.26,12.6-4.59,20.7-1.53,8.54,3.22,11.63,9.61,14.91,16.37,3.24,6.69,6.6,13.61,15.64,18.92,7.44,4.37,13.41,4.51,19.17,4.65,6.18.15,12.01.29,18.29,5.7,6.45,5.55,7.38,11.62,8.45,18.65.88,5.71,1.87,12.17,5.85,20.28,6.74,13.71,16.13,19.79,23.68,24.67,7.2,4.66,13.42,8.68,14.4,17.38h0c1.07,9.56-5.05,15.22-12.81,22.4-7.75,7.17-17.39,16.09-23.08,32.35-3.83,10.95-3.88,19.57-3.92,26.5-.05,8.33-.08,14.91-6.51,20.6-6.93,6.13-14.66,5.42-22.84,4.67-8.1-.74-16.48-1.51-25.34,4.17-7.96,5.1-10.78,11.89-13.51,18.46-2.94,7.08-5.72,13.76-14.36,17.34-7.46,3.09-13.12,1.32-19.11-.56-5.8-1.82-11.8-3.7-20.29-1.2-7.8,2.29-11.38,6.37-15.18,10.69-3.84,4.38-7.82,8.9-16.15,11.29-8.84,2.54-14.37.36-20.77-2.15-5.42-2.13-11.55-4.54-21.24-4.54-.1,0-.2,0-.29,0-12.17.06-18.96,3.89-25.54,7.59-6.34,3.57-12.89,7.25-23.78,7.25ZM321.99,321.93c1.68,0,3.46.08,5.36.25,11.91,1.06,18.21,4.95,23.77,8.38,5.43,3.35,10.56,6.52,20.43,6.83,11,.36,17.18-3.13,23.73-6.82,6.92-3.9,14.08-7.93,27.07-7.99,10.48-.06,16.97,2.5,22.7,4.76,6.11,2.4,10.94,4.3,18.75,2.06,7.45-2.14,10.95-6.12,14.66-10.34,3.92-4.47,7.98-9.09,16.66-11.63,9.41-2.76,16.16-.64,22.12,1.22,5.67,1.77,10.56,3.31,16.96.66,7.43-3.08,9.85-8.9,12.66-15.64,2.78-6.69,5.93-14.27,14.72-19.9,9.77-6.26,19.1-5.41,27.33-4.65,7.81.72,14.55,1.33,20.46-3.89,5.38-4.75,5.41-10.12,5.45-18.25.04-7.16.09-16.08,4.09-27.52,5.95-17,15.91-26.22,23.92-33.63,7.38-6.83,12.71-11.76,11.81-19.73-.81-7.21-5.91-10.51-12.98-15.08-7.88-5.09-17.68-11.43-24.8-25.93-4.2-8.54-5.27-15.56-6.14-21.19-1.06-6.93-1.83-11.94-7.4-16.73-5.43-4.67-10.47-4.8-16.31-4.94-5.88-.14-12.55-.3-20.69-5.08-9.86-5.79-13.59-13.48-16.88-20.27-3.13-6.45-5.83-12.02-13.19-14.8-7.01-2.65-12.6-.61-18.51,1.54-6.48,2.36-13.18,4.8-22.14,1.64-8.42-2.98-11.98-8.53-15.41-13.89-3.25-5.07-6.31-9.85-13.47-12.46-7.28-2.65-12.31-.06-18.69,3.22-6.46,3.33-13.78,7.1-25.22,6.45-12.94-.74-20.59-6.48-27.35-11.54-6.62-4.96-12.33-9.25-21.77-8.12-8.3,1-13.09,4.98-17.72,8.82-5.08,4.22-10.28,8.58-19.69,8.52-8.76-.06-14.08-3.95-18.78-7.38-4.66-3.41-8.68-6.35-15.46-5.92-7.51.47-11.25,4.62-15.99,9.87-4.69,5.19-10.01,11.08-20.2,14.27-10.35,3.25-17.83,1.13-24.42-.75-6.68-1.89-12.44-3.53-20.56-.32-8.18,3.24-11.18,8.54-14.65,14.67-3.45,6.1-7.37,13.02-17.03,19.03-10.87,6.75-19.93,6.69-27.93,6.65-7.75-.05-14.45-.09-21.63,5.78-6.7,5.48-7.72,11.03-9.26,19.43-1.43,7.8-3.22,17.52-10.4,30.73-7,12.87-13.92,19.54-19.47,24.9-5.7,5.5-9.46,9.14-9.68,16.51-.25,8.26,4.2,12.75,10.35,18.97,6.32,6.39,14.19,14.35,20.26,29.48,4.25,10.6,5.2,18.73,5.97,25.27.92,7.87,1.54,13.07,7.2,17.77,5.74,4.75,11.27,4.53,17.68,4.28,6.46-.26,13.79-.54,22.25,4.48,10.01,5.94,13.69,14.57,16.93,22.19,3.09,7.26,5.77,13.53,13.22,16.16,6.12,2.16,10.74.16,16.08-2.15,5.81-2.51,12.4-5.36,22.2-3.65,9.59,1.68,14.33,6.41,18.91,10.98,4.25,4.24,8.65,8.63,17.28,10.91,9.2,2.43,15,.33,21.73-2.11,5.65-2.05,11.93-4.33,21.11-4.33Z"/>
      </g>
      <g>
        <path class="cls-2" d="M652.67,160.35c2.02,17.98-24.46,21.61-35.81,54.05-8.43,24.08,1.05,36.68-9.99,46.44-13.03,11.52-29.62-3.09-47.98,8.69-16.97,10.88-11.76,29.09-27.62,35.67-14.03,5.81-21.55-7.01-39.24-1.82-16.38,4.8-15.45,17.43-31.32,21.98-15.76,4.52-20.36-6.86-41.88-6.75-25.02.13-27.88,15.55-50.86,14.82-20.61-.66-21.26-13.17-44.28-15.22-24.23-2.16-29.5,11.16-48.46,6.15-18.45-4.88-18.23-18.75-36.06-21.86-18.45-3.22-24.96,10.52-38.54,5.73-16.31-5.76-11.42-27.19-30.43-38.48-16.26-9.66-27.83,1.28-40.13-8.9-11.14-9.23-4.31-20.41-13.63-43.66-11.98-29.88-31.25-31.33-30.72-49.08.46-15.37,14.95-15.67,29.35-42.12,14.78-27.15,6.35-39.41,20.05-50.62,15.35-12.56,28.93.38,49.73-12.54,18.99-11.81,14.85-27.06,31.93-33.83,17.26-6.83,25.33,7.23,45.09,1.02,19.86-6.23,20.51-23.2,36.56-24.21,14.76-.93,17.91,13.2,34.35,13.3,17.12.11,19.19-15.17,37.22-17.33,20.08-2.41,24.41,18.24,49.39,19.66,22.4,1.27,28.77-15.26,44.35-9.58,15.43,5.62,13.16,20.8,28.87,26.35,16.64,5.88,25.37-8.95,40.68-3.17,16,6.04,11.53,24.15,30.31,35.18,15.88,9.32,25.73.28,37.23,10.18,10.89,9.38,4.8,19.88,13.92,38.43,13.27,27.01,36.06,24.88,37.92,41.52Z"/>
        <path d="M369.52,335.03c-.52,0-1.06,0-1.6-.03-10.71-.34-16.18-3.72-21.98-7.3-5.52-3.41-11.23-6.93-22.39-7.93-11.52-1.02-18.43,1.48-25.11,3.91-6.92,2.51-13.46,4.88-23.61,2.2-9.45-2.5-14.15-7.19-18.7-11.73-4.43-4.42-8.62-8.6-17.23-10.11-8.87-1.55-14.74.98-20.4,3.44-5.71,2.47-11.09,4.8-18.38,2.23-8.76-3.09-11.83-10.28-15.07-17.9-3.21-7.52-6.52-15.3-15.64-20.71-7.66-4.55-14.19-4.29-20.51-4.04-6.76.27-13.15.52-19.82-5-6.64-5.5-7.38-11.82-8.32-19.83-.75-6.35-1.67-14.26-5.77-24.46-5.83-14.54-13.45-22.24-19.58-28.43-6.45-6.52-11.54-11.67-11.26-21.28.26-8.66,4.62-12.86,10.65-18.69,5.4-5.21,12.12-11.7,18.89-24.14,6.95-12.77,8.68-22.21,10.07-29.79,1.55-8.43,2.77-15.08,10.36-21.3,8.06-6.59,15.63-6.54,23.64-6.49,7.95.05,16.16.1,26.25-6.17,8.98-5.58,12.52-11.85,15.95-17.9,3.61-6.38,7.02-12.4,16.23-16.05,9.11-3.61,15.96-1.66,22.58.21,6.47,1.84,13.17,3.74,22.62.77,9.37-2.94,14.16-8.25,18.8-13.38,4.81-5.32,9.35-10.35,18.13-10.9,7.92-.49,12.8,3.07,17.52,6.52,4.73,3.46,9.2,6.73,16.94,6.78.06,0,.12,0,.17,0,8.11,0,12.46-3.61,17.48-7.79,4.75-3.95,10.14-8.42,19.37-9.53,10.69-1.28,17.17,3.58,24.04,8.73,6.71,5.03,13.65,10.24,25.64,10.92,10.58.61,17.5-2.96,23.6-6.1,6.5-3.35,12.63-6.51,21.21-3.38,8.16,2.98,11.66,8.44,15.05,13.73,3.3,5.15,6.41,10,13.81,12.62,7.89,2.79,13.78.65,20.01-1.62,6.19-2.26,12.6-4.59,20.7-1.53,8.54,3.22,11.63,9.61,14.91,16.37,3.24,6.69,6.6,13.61,15.64,18.92,7.44,4.37,13.41,4.51,19.17,4.65,6.18.15,12.01.29,18.29,5.7,6.45,5.55,7.38,11.62,8.45,18.65.88,5.71,1.87,12.17,5.85,20.28,6.74,13.71,16.13,19.79,23.68,24.67,7.2,4.66,13.42,8.68,14.4,17.37,1.07,9.56-5.05,15.22-12.81,22.4-7.75,7.17-17.39,16.09-23.08,32.35-3.83,10.95-3.88,19.57-3.92,26.5-.05,8.33-.08,14.91-6.51,20.6-6.93,6.13-14.66,5.42-22.84,4.67-8.1-.74-16.48-1.51-25.34,4.17-7.96,5.1-10.78,11.89-13.51,18.46-2.94,7.08-5.72,13.76-14.36,17.34-7.46,3.09-13.12,1.32-19.11-.56-5.8-1.82-11.8-3.7-20.29-1.2-7.8,2.29-11.39,6.37-15.18,10.69-3.84,4.38-7.82,8.9-16.15,11.29-8.84,2.53-14.37.36-20.77-2.15-5.42-2.13-11.55-4.54-21.24-4.54-.1,0-.19,0-.29,0-12.17.06-18.96,3.89-25.54,7.59-6.34,3.57-12.89,7.25-23.78,7.25ZM318.47,316.39c1.68,0,3.46.08,5.36.25,11.91,1.06,18.21,4.95,23.77,8.38,5.43,3.35,10.56,6.52,20.42,6.83,11,.36,17.18-3.13,23.73-6.82,6.92-3.9,14.08-7.93,27.07-7.99,10.44-.06,16.96,2.5,22.7,4.76,6.11,2.4,10.94,4.3,18.75,2.06,7.45-2.14,10.95-6.12,14.65-10.34,3.92-4.47,7.98-9.09,16.66-11.63,9.41-2.76,16.16-.65,22.12,1.22,5.67,1.77,10.56,3.31,16.96.65,7.43-3.08,9.85-8.9,12.66-15.64,2.78-6.69,5.93-14.27,14.72-19.9,9.77-6.26,19.1-5.41,27.33-4.65,7.8.72,14.55,1.33,20.46-3.89,5.38-4.75,5.4-10.12,5.45-18.25.04-7.16.09-16.08,4.09-27.52,5.95-17,15.91-26.22,23.92-33.63,7.38-6.83,12.71-11.76,11.81-19.73-.81-7.21-5.91-10.51-12.98-15.08-7.87-5.09-17.68-11.43-24.8-25.93-4.2-8.54-5.27-15.56-6.14-21.19-1.06-6.93-1.83-11.94-7.4-16.73-5.43-4.67-10.47-4.8-16.31-4.94-5.88-.14-12.55-.3-20.69-5.08-9.86-5.79-13.59-13.48-16.88-20.27-3.13-6.45-5.83-12.02-13.19-14.8-7.01-2.65-12.6-.61-18.51,1.54-6.48,2.36-13.18,4.8-22.14,1.64-8.42-2.98-11.98-8.53-15.41-13.89-3.25-5.07-6.31-9.85-13.47-12.46-7.28-2.65-12.31-.06-18.69,3.22-6.46,3.33-13.78,7.1-25.22,6.45-12.94-.74-20.59-6.48-27.35-11.54-6.62-4.96-12.34-9.26-21.77-8.12-8.3,1-13.09,4.98-17.73,8.82-5.08,4.22-10.3,8.62-19.69,8.52-8.76-.06-14.08-3.95-18.78-7.38-4.66-3.41-8.68-6.34-15.46-5.92-7.5.47-11.25,4.62-15.99,9.87-4.69,5.19-10.01,11.08-20.2,14.27-10.35,3.25-17.83,1.13-24.42-.75-6.68-1.9-12.44-3.53-20.56-.32-8.18,3.24-11.18,8.54-14.65,14.67-3.45,6.1-7.37,13.02-17.03,19.03-10.87,6.75-19.93,6.69-27.93,6.65-7.75-.05-14.45-.09-21.63,5.78-6.7,5.48-7.72,11.03-9.26,19.43-1.43,7.8-3.22,17.52-10.4,30.73-7,12.87-13.92,19.54-19.47,24.9-5.7,5.5-9.46,9.14-9.68,16.51-.25,8.26,4.2,12.75,10.35,18.97,6.32,6.39,14.2,14.35,20.26,29.48,4.25,10.6,5.2,18.73,5.97,25.27.92,7.87,1.53,13.07,7.2,17.77,5.74,4.75,11.27,4.54,17.68,4.28,6.46-.26,13.79-.54,22.25,4.48,10.01,5.94,13.69,14.57,16.93,22.19,3.09,7.26,5.77,13.53,13.22,16.16,6.12,2.16,10.74.16,16.08-2.15,5.81-2.51,12.4-5.36,22.2-3.65,9.59,1.68,14.33,6.41,18.91,10.98,4.25,4.24,8.65,8.63,17.28,10.91,9.2,2.43,15.01.32,21.73-2.11,5.65-2.05,11.93-4.33,21.11-4.33Z"/>
      </g>
      <g>
        <g>
          <path d="M242.06,72.42l23.03-6.72,2.31,7.92-14.33,4.18,4.5,15.43,11.24-3.28,2.31,7.92-11.24,3.28,7.04,24.14-8.71,2.54-16.16-55.4Z"/>
          <path d="M265.1,65.7l2.31,7.92-14.33,4.18,4.5,15.43,11.24-3.28,2.31,7.92-11.24,3.28,7.04,24.14-8.71,2.54-16.16-55.4,23.03-6.72M267.28,61.72l-3.08.9-23.03,6.72-3.08.9.9,3.08,16.16,55.4.9,3.08,3.08-.9,8.71-2.54,3.08-.9-.9-3.08-6.14-21.06,8.16-2.38,3.08-.9-.9-3.08-2.31-7.92-.9-3.08-3.08.9-8.16,2.38-2.71-9.28,11.25-3.28,3.08-.9-.9-3.08-2.31-7.92-.9-3.08h0Z"/>
        </g>
        <g>
          <path d="M274.36,63.46l24.22-5.01,1.67,8.07-15.34,3.17,3.09,14.94,12.19-2.52,1.67,8.07-12.19,2.52,3.59,17.36,15.34-3.17,1.67,8.07-24.22,5.01-11.68-56.52Z"/>
          <path d="M298.58,58.45l1.67,8.07-15.34,3.17,3.09,14.94,12.19-2.52,1.67,8.07-12.19,2.52,3.59,17.36,15.34-3.17,1.67,8.07-24.22,5.01-11.68-56.52,24.22-5.01M301.07,54.67l-3.14.65-24.22,5.01-3.14.65.65,3.14,11.68,56.52.65,3.14,3.14-.65,24.22-5.01,3.14-.65-.65-3.14-1.67-8.07-.65-3.14-3.14.65-12.2,2.52-2.29-11.08,9.05-1.87,3.14-.65-.65-3.14-1.67-8.07-.65-3.14-3.14.65-9.05,1.87-1.79-8.66,12.2-2.52,3.14-.65-.65-3.14-1.67-8.07-.65-3.14h0Z"/>
        </g>
        <g>
          <path d="M321.15,110.96c-2.54-2.21-4.08-5.64-4.64-10.28l-.39-3.27,8.51-1.03.47,3.93c.45,3.71,2.23,5.38,5.34,5,1.53-.18,2.63-.77,3.32-1.77.68-1,.9-2.5.66-4.52-.29-2.4-1.09-4.45-2.4-6.15-1.31-1.7-3.6-3.65-6.85-5.86-4.11-2.83-7.05-5.47-8.85-7.94-1.79-2.47-2.89-5.37-3.29-8.7-.55-4.53.18-8.17,2.17-10.93,1.99-2.76,5.17-4.4,9.54-4.93,4.31-.52,7.72.33,10.23,2.55,2.51,2.22,4.04,5.64,4.6,10.28l.29,2.37-8.51,1.03-.36-2.95c-.24-1.96-.79-3.35-1.66-4.16-.87-.81-2.05-1.12-3.52-.95-3,.36-4.28,2.37-3.84,6.03.25,2.07,1.04,3.94,2.38,5.61,1.33,1.67,3.63,3.6,6.89,5.81,4.16,2.82,7.11,5.48,8.85,7.99,1.74,2.5,2.83,5.56,3.26,9.16.57,4.69-.16,8.44-2.18,11.22-2.02,2.79-5.24,4.45-9.66,4.98-4.37.53-7.82-.32-10.35-2.53Z"/>
          <path d="M327.09,54.37c3.22,0,5.84.9,7.87,2.69,2.51,2.22,4.04,5.64,4.6,10.28l.29,2.37-8.51,1.03-.36-2.95c-.24-1.96-.79-3.35-1.66-4.16-.72-.66-1.63-.99-2.75-.99-.25,0-.5.02-.77.05-3,.36-4.28,2.37-3.84,6.03.25,2.07,1.04,3.94,2.38,5.61,1.33,1.67,3.63,3.6,6.89,5.81,4.16,2.82,7.11,5.48,8.85,7.99,1.74,2.5,2.83,5.56,3.26,9.16.57,4.69-.16,8.44-2.18,11.22-2.02,2.79-5.24,4.45-9.66,4.98-.84.1-1.64.15-2.42.15-3.24,0-5.89-.89-7.94-2.68-2.54-2.21-4.08-5.64-4.64-10.28l-.39-3.27,8.51-1.03.47,3.93c.41,3.37,1.91,5.06,4.51,5.06.26,0,.54-.02.82-.05,1.53-.18,2.63-.77,3.32-1.77.68-1,.9-2.5.66-4.52-.29-2.4-1.09-4.45-2.4-6.15-1.31-1.7-3.6-3.65-6.85-5.86-4.11-2.83-7.05-5.47-8.85-7.94-1.79-2.47-2.89-5.37-3.29-8.7-.55-4.53.18-8.17,2.17-10.93,1.99-2.76,5.17-4.4,9.54-4.93.82-.1,1.6-.15,2.36-.15M327.09,51.16c-.88,0-1.8.06-2.74.17-5.27.63-9.22,2.73-11.75,6.23-2.47,3.42-3.4,7.86-2.76,13.19.47,3.86,1.77,7.29,3.88,10.2,2.03,2.79,5.17,5.64,9.62,8.7,3.7,2.51,5.38,4.2,6.13,5.18.96,1.24,1.53,2.74,1.75,4.57.22,1.81-.12,2.32-.12,2.33-.18.26-.74.36-1.05.4-.16.02-.3.03-.44.03-.5,0-1.06,0-1.33-2.23l-.47-3.93-.38-3.18-3.18.38-8.51,1.03-3.18.38.38,3.18.39,3.27c.65,5.43,2.58,9.57,5.72,12.31,2.64,2.3,6.02,3.47,10.05,3.47.9,0,1.84-.06,2.8-.17,5.32-.64,9.32-2.76,11.87-6.29,2.49-3.45,3.42-7.99,2.76-13.49-.5-4.11-1.78-7.68-3.81-10.6-1.99-2.86-5.16-5.74-9.68-8.81-1.89-1.28-3.25-2.34-4.24-3.21l2.94-.35,8.51-1.03,3.18-.38-.38-3.18-.29-2.37c-.65-5.42-2.56-9.56-5.66-12.3-2.63-2.32-5.99-3.5-9.99-3.5h0ZM328.5,74.03c-.8-.72-1.32-1.28-1.66-1.71-.96-1.2-1.52-2.51-1.7-3.99-.28-2.3.25-2.36,1.04-2.46.14-.02.26-.02.38-.02.42,0,.53.1.58.14,0,0,.45.43.66,2.19l.36,2.95.35,2.91h0Z"/>
        </g>
        <g>
          <path d="M355.94,60.97l-9.47.35-.31-8.24,28.01-1.03.31,8.24-9.48.35,1.83,49.43-9.06.33-1.82-49.43Z"/>
          <path d="M374.17,52.05l.31,8.24-9.48.35,1.83,49.43-9.06.33-1.82-49.43-9.47.35-.31-8.24,28.01-1.03M377.25,48.73l-3.2.12-28.01,1.03-3.2.12.12,3.2.31,8.24.12,3.2,3.2-.12,6.27-.23,1.71,46.23.12,3.2,3.2-.12,9.06-.33,3.2-.12-.12-3.2-1.71-46.23,6.27-.23,3.2-.12-.12-3.2-.31-8.24-.12-3.2h0Z"/>
        </g>
        <g>
          <path d="M382.96,52.3l9.07.24-1.51,57.69-9.07-.24,1.51-57.69Z"/>
          <path d="M382.96,52.3l9.07.24-1.51,57.69-9.07-.24,1.51-57.69M379.84,49.01l-.08,3.21-1.51,57.69-.08,3.21,3.21.08,9.07.24,3.21.08.08-3.21,1.51-57.69.08-3.21-3.21-.08-9.07-.24-3.21-.08h0Z"/>
        </g>
        <g>
          <path d="M401.86,52.73l9.11.84,1.8,45.12.16.02,10.03-44.03,8.29.77-14.01,56.66-11.99-1.11-3.4-58.27Z"/>
          <path d="M401.86,52.73l9.11.84,1.8,45.12.16.02,10.03-44.03,8.29.77-14.01,56.66-11.99-1.11-3.4-58.27M398.44,49.19l.22,3.72,3.4,58.27.16,2.75,2.75.25,11.99,1.11,2.75.25.66-2.68,14.01-56.66.89-3.62-3.71-.34-8.29-.77-2.8-.26-.62,2.74-4.8,21.07-.86-21.59-.11-2.81-2.8-.26-9.11-.84-3.71-.34h0Z"/>
        </g>
        <g>
          <path d="M446.34,58.62l12.1,2.14-.79,58.47-8.93-1.58.37-11.57-.03.16-10.15-1.79-3.59,10.84-8.28-1.46,19.3-55.2ZM449.37,98.34l.98-28.79-.16-.03-8.86,27.4,8.04,1.42Z"/>
          <path d="M446.34,58.62l12.1,2.14-.79,58.47-8.93-1.58.37-11.57-.03.16-10.15-1.79-3.59,10.84-8.28-1.46,19.3-55.2M449.37,98.34l.98-28.79-.16-.03-8.86,27.4,8.04,1.42M444.22,54.99l-.9,2.57-19.3,55.2-1.24,3.56,3.71.66,8.28,1.46,2.73.48.87-2.63,2.72-8.2,4.71.83-.28,8.63-.09,2.78,2.74.48,8.93,1.58,3.71.66.05-3.77.79-58.47.04-2.73-2.68-.47-12.1-2.14-2.68-.47h0ZM445.52,94.4l.87-2.7-.1,2.84-.78-.14h0Z"/>
        </g>
        <g>
          <path d="M480.83,65.6l8.77,2.33-12.68,47.81,14.42,3.83-2.11,7.97-23.19-6.15,14.79-55.78Z"/>
          <path d="M480.83,65.6l8.77,2.33-12.68,47.81,14.42,3.83-2.11,7.97-23.19-6.15,14.79-55.78M478.55,61.68l-.82,3.1-14.79,55.78-.82,3.1,3.1.82,23.19,6.15,3.1.82.82-3.1,2.11-7.97.82-3.1-3.1-.82-11.32-3,11.86-44.71.82-3.1-3.1-.82-8.77-2.33-3.1-.82h0Z"/>
        </g>
      </g>
      <g>
        <g>
          <path class="cls-4" d="M238.23,67.35l23.03-6.72,2.31,7.92-14.33,4.18,4.5,15.43,11.24-3.28,2.31,7.92-11.24,3.28,7.04,24.14-8.71,2.54-16.16-55.4Z"/>
          <path d="M261.26,60.63l2.31,7.92-14.33,4.18,4.5,15.43,11.24-3.28,2.31,7.92-11.24,3.28,7.04,24.14-8.71,2.54-16.16-55.4,23.03-6.72M262.82,57.79l-2.2.64-23.03,6.72-2.2.64.64,2.2,16.16,55.4.64,2.2,2.2-.64,8.71-2.54,2.2-.64-.64-2.2-6.4-21.94,9.04-2.64,2.2-.64-.64-2.2-2.31-7.92-.64-2.2-2.2.64-9.04,2.64-3.22-11.04,12.13-3.54,2.2-.64-.64-2.2-2.31-7.92-.64-2.2h0Z"/>
        </g>
        <g>
          <path class="cls-4" d="M270.52,58.39l24.22-5.01,1.67,8.07-15.34,3.17,3.09,14.94,12.19-2.52,1.67,8.07-12.19,2.52,3.59,17.36,15.34-3.17,1.67,8.07-24.22,5.01-11.68-56.52Z"/>
          <path d="M294.74,53.39l1.67,8.07-15.34,3.17,3.09,14.94,12.19-2.52,1.67,8.07-12.19,2.52,3.59,17.36,15.34-3.17,1.67,8.07-24.22,5.01-11.68-56.52,24.22-5.01M296.52,50.68l-2.24.46-24.22,5.01-2.24.46.46,2.24,11.68,56.52.46,2.24,2.24-.46,24.22-5.01,2.24-.46-.46-2.24-1.67-8.07-.46-2.24-2.24.46-13.1,2.71-2.66-12.87,9.95-2.06,2.24-.46-.46-2.24-1.67-8.07-.46-2.24-2.24.46-9.95,2.06-2.16-10.45,13.1-2.71,2.24-.46-.46-2.24-1.67-8.07-.46-2.24h0Z"/>
        </g>
        <g>
          <path class="cls-4" d="M317.31,105.89c-2.54-2.21-4.08-5.64-4.64-10.28l-.39-3.27,8.51-1.03.47,3.93c.45,3.71,2.23,5.38,5.34,5,1.53-.18,2.63-.77,3.32-1.77.68-1,.9-2.5.66-4.52-.29-2.4-1.09-4.45-2.4-6.15-1.31-1.7-3.6-3.65-6.85-5.86-4.11-2.83-7.05-5.47-8.85-7.94-1.79-2.47-2.89-5.37-3.29-8.7-.55-4.53.18-8.17,2.17-10.93,1.99-2.76,5.17-4.4,9.54-4.93,4.31-.52,7.72.33,10.23,2.55,2.51,2.22,4.04,5.64,4.6,10.28l.29,2.37-8.51,1.03-.36-2.95c-.24-1.96-.79-3.35-1.66-4.16-.87-.81-2.05-1.12-3.52-.95-3,.36-4.28,2.37-3.84,6.03.25,2.07,1.04,3.94,2.38,5.61,1.33,1.67,3.63,3.6,6.89,5.81,4.16,2.82,7.11,5.48,8.85,7.99,1.74,2.5,2.83,5.56,3.26,9.16.57,4.69-.16,8.44-2.18,11.22-2.02,2.79-5.24,4.45-9.66,4.98-4.37.53-7.82-.32-10.35-2.53Z"/>
          <path d="M323.25,49.3c3.22,0,5.84.9,7.87,2.69,2.51,2.22,4.04,5.64,4.6,10.28l.29,2.37-8.51,1.03-.36-2.95c-.24-1.96-.79-3.35-1.66-4.16-.72-.66-1.63-.99-2.75-.99-.25,0-.5.02-.77.05-3,.36-4.28,2.37-3.84,6.03.25,2.07,1.04,3.94,2.38,5.61,1.33,1.67,3.63,3.6,6.89,5.81,4.16,2.82,7.11,5.48,8.85,7.99,1.74,2.5,2.83,5.56,3.26,9.16.57,4.69-.16,8.44-2.18,11.22-2.02,2.79-5.24,4.45-9.66,4.98-.84.1-1.64.15-2.42.15-3.24,0-5.89-.89-7.94-2.68-2.54-2.21-4.08-5.64-4.64-10.28l-.39-3.27,8.51-1.03.47,3.93c.41,3.37,1.91,5.06,4.51,5.06.26,0,.54-.02.82-.05,1.53-.18,2.63-.77,3.32-1.77.68-1,.9-2.5.66-4.52-.29-2.4-1.09-4.45-2.4-6.15-1.31-1.7-3.6-3.65-6.85-5.86-4.11-2.83-7.05-5.47-8.85-7.94-1.79-2.47-2.89-5.37-3.29-8.7-.55-4.53.18-8.17,2.17-10.93,1.99-2.76,5.17-4.4,9.54-4.93.82-.1,1.6-.15,2.36-.15M323.25,47.01c-.84,0-1.73.06-2.63.16-5.01.6-8.75,2.57-11.12,5.86-2.33,3.23-3.2,7.45-2.59,12.55.45,3.71,1.7,6.99,3.71,9.77,1.96,2.71,5.04,5.48,9.4,8.49,3.05,2.07,5.18,3.88,6.34,5.37,1.06,1.38,1.7,3.02,1.94,5.02.24,1.96-.11,2.72-.28,2.95-.11.16-.44.64-1.7.79-.19.02-.38.04-.55.04-.7,0-1.87,0-2.24-3.04l-.47-3.93-.27-2.27-2.27.27-8.51,1.03-2.27.27.27,2.27.39,3.27c.63,5.2,2.45,9.14,5.41,11.73,2.47,2.15,5.64,3.25,9.44,3.25.86,0,1.76-.06,2.69-.17,5.06-.61,8.84-2.6,11.24-5.91,2.36-3.26,3.23-7.58,2.59-12.84-.48-3.96-1.71-7.39-3.66-10.19-1.92-2.76-5.01-5.57-9.45-8.57-3.05-2.07-5.2-3.87-6.38-5.35-1.07-1.34-1.69-2.79-1.89-4.45-.39-3.21.85-3.36,1.84-3.48.17-.02.34-.03.49-.03.69,0,1,.21,1.2.39.21.19.72.85.95,2.75l.36,2.95.27,2.27,2.27-.27,8.51-1.03,2.27-.27-.27-2.27-.29-2.37c-.63-5.19-2.43-9.13-5.36-11.72-2.45-2.17-5.61-3.27-9.39-3.27h0Z"/>
        </g>
        <g>
          <path class="cls-4" d="M352.1,55.91l-9.47.35-.31-8.24,28.01-1.03.31,8.24-9.48.35,1.83,49.43-9.06.33-1.82-49.43Z"/>
          <path d="M370.33,46.98l.31,8.24-9.48.35,1.83,49.43-9.06.33-1.82-49.43-9.47.35-.31-8.24,28.01-1.03M372.53,44.61l-2.29.08-28.01,1.03-2.29.08.08,2.29.31,8.24.08,2.29,2.29-.08,7.19-.27,1.74,47.14.08,2.29,2.29-.08,9.06-.33,2.29-.08-.08-2.29-1.74-47.14,7.19-.27,2.29-.08-.08-2.29-.31-8.24-.08-2.29h0Z"/>
        </g>
        <g>
          <path class="cls-4" d="M379.13,47.23l9.07.24-1.51,57.69-9.07-.24,1.51-57.69Z"/>
          <path d="M379.13,47.23l9.07.24-1.51,57.69-9.07-.24,1.51-57.69M376.9,44.88l-.06,2.29-1.51,57.69-.06,2.29,2.29.06,9.07.24,2.29.06.06-2.29,1.51-57.69.06-2.29-2.29-.06-9.07-.24-2.29-.06h0Z"/>
        </g>
        <g>
          <path class="cls-4" d="M398.02,47.66l9.11.84,1.8,45.12.16.02,10.03-44.03,8.29.77-14.01,56.66-11.99-1.11-3.4-58.27Z"/>
          <path d="M398.02,47.66l9.11.84,1.8,45.12.16.02,10.03-44.03,8.29.77-14.01,56.66-11.99-1.11-3.4-58.27M395.58,45.14l.15,2.66,3.4,58.27.11,1.97,1.96.18,11.99,1.11,1.96.18.47-1.91,14.01-56.66.64-2.59-2.65-.24-8.29-.77-2-.18-.45,1.96-6.33,27.81-1.13-28.49-.08-2.01-2-.18-9.11-.84-2.65-.24h0Z"/>
        </g>
        <g>
          <path class="cls-4" d="M442.51,53.55l12.1,2.14-.79,58.47-8.93-1.58.37-11.57-.03.16-10.15-1.79-3.59,10.84-8.28-1.46,19.3-55.2ZM445.54,93.27l.98-28.79-.16-.03-8.86,27.4,8.04,1.42Z"/>
          <path d="M442.51,53.55l12.1,2.14-.79,58.47-8.93-1.58.37-11.57-.03.16-10.15-1.79-3.59,10.84-8.28-1.46,19.3-55.2M445.54,93.27l.98-28.79-.16-.03-8.86,27.4,8.04,1.42M440.99,50.96l-.64,1.84-19.3,55.2-.89,2.54,2.65.47,8.28,1.46,1.95.34.62-1.88,2.97-8.96,6.27,1.11-.3,9.42-.06,1.98,1.95.35,8.93,1.58,2.65.47.04-2.69.79-58.47.03-1.95-1.92-.34-12.1-2.14-1.92-.34h0ZM440.49,90.05l3.21-9.92-.36,10.42-2.85-.5h0Z"/>
        </g>
        <g>
          <path class="cls-4" d="M476.99,60.54l8.77,2.33-12.68,47.81,14.42,3.83-2.11,7.97-23.19-6.15,14.79-55.78Z"/>
          <path d="M476.99,60.54l8.77,2.33-12.68,47.81,14.42,3.83-2.11,7.97-23.19-6.15,14.79-55.78M475.36,57.74l-.59,2.21-14.79,55.78-.59,2.21,2.21.59,23.19,6.15,2.21.59.59-2.21,2.11-7.97.59-2.21-2.21-.59-12.21-3.24,12.09-45.6.59-2.21-2.21-.59-8.77-2.33-2.21-.59h0Z"/>
        </g>
      </g>
      <g>
        <g>
          <path d="M252.82,214c-2.21-3.32-3.8-7.54-4.92-11.55-1.67-5.9-3.53-11.16-8.18-11.16-.35,0-.81.13-1.4.39v.6c0,4.52.19,9.18.58,14.04.39,4.87.89,8.83,1.55,11.98h-26.05l-3.66-7.33c.22-1.82,5.04-2.48,5.22-4.65.39-4.87.58-9.52.58-14.04v-9.69c0-4.52-.19-9.22-.58-14.09-.39-4.87-.89-12.99-1.55-16.14h35.89c2.06-.07,8.96-.06,14.89,4.79,3.65,2.98,5.38,6.52,5.98,7.79.89,1.87,2,4.22,2,7.47,0,11.24-10,15.9-22.48,15.9h-.23v.52h.08c.97,0,2.67.43,5.16,1.25,2.48.86,4.65,1.29,6.51,1.29,3.22,0,1.31-8.32,3.48-10.34,2.17-2.02,8.42,2.72,9.54-.51v31.97c-.77,1.94-2.21,3.62-4.34,5.04s-4.34,2.11-6.63,2.11c-5.27,0-9.26-2.33-11.43-5.64ZM238.32,184.9h7.99c2.91,0,4.77-1.29,4.77-3.7s-1.86-3.7-4.77-3.7h-7.99v7.41Z"/>
          <path d="M264.25,221.93c-5.7,0-10.57-2.43-13.35-6.67-2.06-3.1-3.82-7.2-5.22-12.19-1.5-5.32-2.87-8.65-5.07-9.35.04,4.01.22,8.09.57,12.43.39,4.87.88,8.69,1.51,11.69l.58,2.76h-30.28l-4.61-9.21.08-.69c.25-2.05,2.13-3.04,3.64-3.84.49-.26,1.28-.67,1.58-.95.37-4.77.56-9.23.56-13.63v-9.69c0-4.44-.19-9.11-.57-13.91-.08-.95-.16-2.03-.24-3.17-.34-4.59-.77-10.3-1.27-12.68l-.58-2.76h38.71c3.48-.12,10.33.4,16.34,5.31,2.74,2.24,4.96,5.13,6.6,8.59.94,1.97,2.22,4.67,2.22,8.45,0,.27,0,.53-.02.79l2.06-5.66v45.37s-.15.41-.15.41c-.95,2.38-2.7,4.43-5.2,6.1-2.48,1.66-5.14,2.5-7.9,2.5ZM239.72,189.01c6.76,0,8.94,7.72,10.38,12.82,1.27,4.54,2.83,8.2,4.62,10.9v.02c1.93,2.93,5.4,4.61,9.53,4.61,1.86,0,3.62-.56,5.36-1.73,1.59-1.06,2.68-2.24,3.32-3.61v-28.08c-.57-.04-1.14-.13-1.67-.25-1.28,1.37-2.84,2.56-4.65,3.54-.25,2.85-.88,6.44-4.41,6.44-2.11,0-4.55-.48-7.26-1.42-2.96-.98-4.03-1.12-4.4-1.12h-2.29l-.08-4.11c-.58.11-1.2.16-1.86.16h-10.27v-11.99h10.27c4.29,0,7.06,2.35,7.06,5.99,0,2.12-.94,3.8-2.57,4.84,4.9,0,8.63-.69,11.47-1.77.21-1.92.61-3.74,1.86-4.9,1.49-1.39,3.45-1.27,5.28-.87,1.16-2.1,1.48-4.3,1.48-6.07,0-2.74-.94-4.73-1.78-6.49-.5-1.06-2.03-4.28-5.36-7-4.85-3.96-10.45-4.38-13.36-4.28h-33.3c.36,2.93.65,6.9.92,10.52.08,1.13.16,2.2.24,3.14.39,4.91.59,9.71.59,14.27v9.69c0,4.59-.19,9.24-.59,14.23-.19,2.4-2.39,3.55-3.99,4.4-.23.12-.51.27-.77.42l2.34,4.69h21.88c-.43-2.67-.79-5.8-1.08-9.5-.4-4.98-.59-9.63-.59-14.23v-2.09l1.36-.6c.9-.4,1.64-.58,2.33-.58ZM240.61,182.61h5.69c2.48,0,2.48-1.03,2.48-1.41,0-.42,0-1.41-2.48-1.41h-5.69v2.83Z"/>
        </g>
        <g>
          <path d="M291.03,218.31l-3.66-7.33s5.8-14.17,5.8-18.69v-11.37h-5.7c-4.42,0-8.37,1.16-11.82,3.53l-4.58-7.33,52.64-26.08,4.58,5.5,3.57,27.92c-3.45-2.37-7.36-3.53-11.74-3.53h-5.19v11.37c0,4.48.19,9.13.58,14,.39,4.87.93,8.88,1.59,12.02h-26.05Z"/>
          <path d="M319.89,220.6h-30.28l-4.76-9.52.39-.96c2.18-5.32,5.63-14.86,5.63-17.82v-9.08h-3.41c-3.96,0-7.5,1.05-10.53,3.13l-1.97,1.35-7.19-11.5,56.52-28.01,6.17,7.4,4.3,33.65-4.22-2.9c-3.07-2.11-6.48-3.13-10.45-3.13h-2.9v9.08c0,4.39.19,9.04.57,13.82.37,4.66.89,8.6,1.55,11.73l.58,2.76ZM292.44,216.02h21.88c-.46-2.76-.83-5.96-1.12-9.55-.39-4.9-.59-9.67-.59-14.18v-13.66h7.48c3.18,0,6.16.57,8.91,1.7l-2.92-22.84-3-3.6-48.75,24.16,2.04,3.27c3.31-1.79,7.03-2.69,11.08-2.69h7.99v13.66c0,4.27-4.18,15.1-5.58,18.59l2.57,5.14Z"/>
        </g>
        <g>
          <path d="M332.42,218.31l-3.66-7.33s5.8-14.17,5.8-18.69v-9.69c0-4.52-.19-9.22-.58-14.09-.39-4.87,19-18.39,19.92-18.39l4.58,6.41c-.66,3.14-1.16,7.11-1.55,11.98-.39,4.87-.58,9.56-.58,14.09v9.69c0,4.52.19,9.18.58,14.04.39,4.87.89,8.83,1.55,11.98h-26.05Z"/>
          <path d="M361.29,220.6h-30.28l-4.76-9.52.39-.96c2.18-5.32,5.63-14.86,5.63-17.82v-9.69c0-4.44-.19-9.12-.57-13.91-.15-1.88.95-3.99,3.57-6.83,4.35-4.71,16.4-14.03,18.63-14.03h1.18l5.85,8.19-.21.98c-.63,3-1.12,6.82-1.51,11.69-.38,4.79-.57,9.47-.57,13.91v9.69c0,4.47.19,9,.57,13.86.39,4.87.88,8.69,1.51,11.69l.58,2.76ZM333.83,216.02h21.88c-.43-2.67-.79-5.8-1.08-9.5-.4-4.98-.59-9.63-.59-14.23v-9.69c0-4.56.2-9.36.59-14.27.36-4.55.82-8.25,1.39-11.27l-2.83-3.97c-4.83,3.06-16.69,12.53-16.94,15.29.39,4.86.59,9.66.59,14.22v9.69c0,4.27-4.18,15.1-5.58,18.59l2.57,5.14Z"/>
        </g>
        <g>
          <path d="M361.33,218.31l-4.58-7.33c.39-4.87,6.71-14.17,6.71-18.69v-9.69c0-4.52-.19-9.22-.58-14.09-.39-4.87,23.6-17.91,23.6-17.91l4.62,5.93,7.33,21.2c.7,1.94,1.24,3.62,1.59,5,.35,1.42.81,3.49,1.32,6.2h.97c.47-3.49,1.01-5.94,1.43-7.32.19-.69.62-1.98,1.28-3.88l32.09-26.69,4.58,5.5c-.66,3.14-1.2,7.15-1.59,12.02-.39,4.87-.58,9.56-.58,14.04v9.69c0,4.48.19,9.13.58,14,.39,4.87.93,8.88,1.59,12.02h-26.05l-4.58-7.33c.39-4.87,6.71-14.17,6.71-18.69v-6.89h-1.01l-12.48,32.91h-5.85l-12.4-32.91h-.78v6.89c0,4.52.19,9.18.58,14.04.39,4.87.89,8.83,1.55,11.98h-26.05Z"/>
          <path d="M444.5,220.6h-30.14l-5.29-8.47-3.21,8.47h-9.02l-9.26-24.58c.08,3.27.25,6.61.53,10.13.39,4.87.88,8.69,1.51,11.69l.58,2.76h-30.14l-5.65-9.05.06-.75c.22-2.78,1.85-6.27,3.57-9.96,1.47-3.15,3.14-6.73,3.14-8.55v-9.69c0-4.44-.19-9.11-.57-13.91-.42-5.25,13.25-13.83,24.79-20.1l1.71-.93,6.04,7.77,7.45,21.55c.45,1.26.83,2.37,1.13,3.37.23-.74.6-1.84,1.13-3.37l.21-.6,34.34-28.56,6.75,8.11-.23,1.08c-.66,3.13-1.18,7.08-1.55,11.73-.38,4.79-.57,9.45-.57,13.86v9.69c0,4.38.19,9.03.57,13.82.37,4.65.89,8.6,1.55,11.73l.58,2.76ZM416.9,216.02h22.02c-.46-2.77-.83-5.96-1.12-9.55-.39-4.91-.59-9.68-.59-14.18v-9.69c0-4.53.2-9.31.59-14.23.34-4.33.82-8.09,1.41-11.21l-2.42-2.9-29.84,24.82c-.53,1.53-.87,2.59-1.03,3.14-.24.79-.82,2.92-1.37,7.01l-.26,1.99h-4.88l-.35-1.87c-.41-2.22-.85-4.27-1.29-6.08-.31-1.22-.81-2.79-1.52-4.77l-7.21-20.86-3.18-4.09c-10.81,6.03-20.05,12.65-20.7,14.88.38,4.87.58,9.64.58,14.16v9.69c0,2.83-1.73,6.55-3.56,10.48-1.25,2.69-2.65,5.7-3.06,7.7l3.47,5.55h22.03c-.43-2.67-.79-5.8-1.08-9.5-.4-4.98-.59-9.63-.59-14.23v-9.18h4.65l12.4,32.91h2.69l12.48-32.91h4.88v9.18c0,2.83-1.73,6.55-3.56,10.48-1.25,2.69-2.65,5.69-3.05,7.7l3.47,5.55Z"/>
        </g>
        <g>
          <path d="M443.43,218.31l-4.58-7.33c1.43-4.87,11.33-14.25,12.26-18.69l2.09-9.69c.93-4.44,1.74-9.13,2.4-14,.66-4.87,35.69-17.56,35.69-17.56l4.58,5.5c.04,3.14.39,7.19,1.05,12.06.66,4.87,1.43,9.56,2.36,14l2.09,9.69c.93,4.44,2.13,9.09,3.57,13.96,1.43,4.87,2.79,8.92,4.11,12.06h-26.01l-3.66-7.33,2.15-8.39h-10.58l-.15.99c-.89,6.5-1.36,11.42-1.36,14.73h-26.01ZM472.23,192.4h8.02l-1.67-5.9c-.62-2.15-.89-3.45-1.16-5.56-.12-.78-.15-1.34-.19-1.72-.04-.34-.12-.99-.23-1.98-.12-.95-.19-1.59-.23-1.94h-1.12c-.08.65-.19,1.64-.31,2.93-.15,1.34-.27,2.28-.35,2.84-.15,1.21-.58,3.4-1.09,5.43l-1.67,5.9Z"/>
          <path d="M512.49,220.6h-30.87l-4.68-9.36,1.63-6.36h-5.65c-.81,6.03-1.2,10.44-1.2,13.43v2.29h-29.57l-5.8-9.28.29-.99c.83-2.82,3.62-6.36,6.58-10.1,2.35-2.98,5.27-6.68,5.63-8.41l2.1-9.71c.94-4.47,1.74-9.13,2.37-13.82.28-2.1,2.04-4.95,19.46-12.4,8.8-3.76,17.63-6.97,17.72-7l1.51-.55,6.13,7.36v.81c.05,3.07.39,7.04,1.04,11.78.69,5.13,1.46,9.65,2.34,13.84l2.09,9.68c.9,4.28,2.05,8.79,3.52,13.79,1.48,5.03,2.8,8.9,4.02,11.82l1.33,3.18ZM484.46,216.02h21.24c-.93-2.54-1.9-5.55-2.96-9.13-1.51-5.13-2.69-9.75-3.61-14.13l-2.09-9.68c-.9-4.3-1.69-8.94-2.4-14.18-.61-4.53-.96-8.4-1.05-11.52l-3.04-3.64c-18.61,6.83-31.31,13.19-32.72,15.35-.65,4.74-1.46,9.45-2.41,13.98l-2.1,9.71c-.58,2.77-3.33,6.26-6.52,10.29-2.1,2.67-4.45,5.64-5.43,7.67l3.3,5.28h22.51c.15-3.19.58-7.39,1.32-12.75l.46-2.97h15.49l-2.67,10.43,2.65,5.3ZM483.28,194.69h-14.08l2.49-8.81c.49-1.96.89-4.07,1.02-5.1.08-.57.19-1.5.35-2.82.11-1.26.23-2.28.31-2.94l.24-2.02h5.2l.23,2.03c.04.34.11.98.23,1.92l.27,2.33c.03.33.07.76.15,1.31.26,2.04.51,3.21,1.1,5.26l2.49,8.83ZM475.25,190.11h1.97l-.84-2.99c-.05-.18-.1-.36-.15-.53-.04.16-.08.31-.11.46l-.86,3.06Z"/>
        </g>
        <g>
          <path d="M510.83,218.31l-4.58-7.33c.39-4.87,6.71-14.17,6.71-18.69v-9.69c0-4.52-.19-9.22-.58-14.09-.39-4.87-.89-8.83-1.55-11.98l23.57.17,14.92,26.92h1.2v-1.34c0-4.09-.19-8.74-.62-14.04-.43-5.3,20.03-19.05,20.03-19.05l4.58,7.33c-.66,3.14-1.2,7.15-1.59,12.02-.39,4.87-.58,9.56-.58,14.04v35.71h-20.39l-15.97-28.95h-1.24v1.16c0,4.52.23,9.61.66,15.25.43,5.69.89,9.86,1.47,12.54h-26.05Z"/>
          <path d="M574.64,220.6h-24.03l-13.46-24.4c.1,2.87.29,5.98.54,9.4.44,5.9.89,9.78,1.43,12.22l.6,2.78h-30.16l-5.65-9.05.06-.75c.22-2.78,1.85-6.27,3.57-9.96,1.47-3.15,3.14-6.73,3.14-8.55v-9.69c0-4.44-.19-9.11-.57-13.91-.39-4.87-.88-8.69-1.51-11.69l-.58-2.78,27.74.2,12.37,22.32c-.1-2.62-.27-5.4-.5-8.31-.48-5.99,14.55-16.77,21.04-21.13l1.96-1.32,6.32,10.12-.19.9c-.66,3.13-1.18,7.08-1.55,11.73-.38,4.79-.57,9.45-.57,13.86v38ZM553.31,216.02h16.75v-33.42c0-4.53.2-9.31.59-14.23.35-4.41.84-8.24,1.45-11.4l-2.83-4.53c-9.24,6.44-17.01,13.52-17.07,15.64.42,5.16.63,9.94.63,14.21v3.63h-4.84l-14.93-26.93-19.46-.14c.43,2.66.79,5.79,1.08,9.48.39,4.91.59,9.71.59,14.27v9.69c0,2.83-1.73,6.55-3.56,10.48-1.25,2.69-2.65,5.7-3.06,7.7l3.47,5.55h22.05c-.37-2.5-.7-5.79-1.02-10.08-.45-5.92-.67-10.97-.67-15.42v-3.45h4.88l15.97,28.95Z"/>
        </g>
        <g>
          <path d="M576.26,218.31l-4.58-7.33c1.43-4.87,11.33-14.25,12.26-18.69l2.09-9.69c.93-4.44,1.74-9.13,2.4-14,.66-4.87,35.75-17.52,35.75-17.52l4.53,5.46c.04,3.14.39,7.19,1.05,12.06.66,4.87,1.43,9.56,2.36,14l2.09,9.69c.93,4.44,2.13,9.09,3.57,13.96,1.43,4.87,2.79,8.92,4.11,12.06h-26.01l-3.66-7.33,2.15-8.39h-10.58l-.15.99c-.89,6.5-1.36,11.42-1.36,14.73h-26.01ZM605.06,192.4h8.02l-1.67-5.9c-.62-2.15-.89-3.45-1.16-5.56-.12-.78-.15-1.34-.19-1.72-.04-.34-.12-.99-.23-1.98-.12-.95-.19-1.59-.23-1.94h-1.12c-.08.65-.19,1.64-.31,2.93-.15,1.34-.27,2.28-.35,2.84-.15,1.21-.58,3.4-1.09,5.43l-1.67,5.9Z"/>
          <path d="M645.33,220.6h-30.87l-4.68-9.36,1.63-6.36h-5.65c-.81,6.02-1.2,10.44-1.2,13.43v2.29h-29.57l-5.8-9.28.29-.99c.83-2.82,3.62-6.36,6.58-10.1,2.35-2.98,5.27-6.68,5.63-8.41l2.1-9.71c.94-4.47,1.74-9.13,2.37-13.82.28-2.1,2.05-4.96,19.49-12.39,8.81-3.75,17.66-6.95,17.75-6.98l1.51-.55,6.07,7.32v.81c.05,3.07.39,7.03,1.04,11.78.69,5.13,1.46,9.65,2.34,13.84l2.09,9.68c.9,4.28,2.05,8.79,3.52,13.79,1.48,5.03,2.8,8.9,4.02,11.82l1.33,3.17ZM617.29,216.02h21.24c-.93-2.54-1.9-5.56-2.96-9.13-1.51-5.13-2.69-9.75-3.61-14.13l-2.09-9.68c-.9-4.3-1.69-8.94-2.4-14.18-.61-4.53-.97-8.4-1.05-11.52l-2.99-3.6c-18.64,6.81-31.36,13.15-32.77,15.31-.65,4.74-1.46,9.45-2.41,13.98l-2.1,9.71c-.58,2.77-3.33,6.26-6.52,10.29-2.1,2.67-4.45,5.64-5.43,7.67l3.3,5.28h22.51c.15-3.19.58-7.39,1.32-12.75l.46-2.97h15.49l-2.67,10.43,2.65,5.3ZM616.11,194.69h-14.08l2.49-8.81c.49-1.96.89-4.07,1.02-5.1.08-.57.19-1.51.35-2.82.11-1.26.23-2.28.31-2.94l.24-2.02h5.2l.23,2.03c.04.34.12.98.23,1.92l.27,2.33c.03.33.07.76.15,1.31.26,2.04.51,3.21,1.1,5.26l2.49,8.83ZM608.09,190.11h1.97l-.84-2.99c-.05-.18-.1-.36-.15-.53-.04.16-.08.31-.11.46l-.86,3.06Z"/>
        </g>
        <g>
          <path d="M657.68,218.14c-5.62-.99-10.47-2.15-14.54-3.45l-3.66-7.33s11.88-14.86,16.76-13.26c4.85,1.59,9.85,2.41,15,2.41,5.97,0,8.95-.9,8.95-2.71,0-6.07-36.13,3.32-36.13-19,0-6.68,3.18-11.85,8.61-14.95,5.43-3.06,12.6-4.61,21.16-4.61,3.92,0,14.3-3.18,18.6-2.36l4.58,6.41v26.71c-2.36-2.03-5.62-3.66-9.77-5-4.19-1.29-8.33-1.94-12.44-1.94-2.6,0-4.77.21-6.43.69-1.71.47-2.56,1.25-2.56,2.28,0,4.18,9.11,3.58,18.22,4.61,4.53.34,9.11,1.68,12.52,3.62s5.7,5.77,5.7,10.94c0,8.23-4.77,13.23-12.25,15.9-5.12,1.85-10.89,2.54-17.83,2.54-4.07,0-8.88-.52-14.5-1.51Z"/>
          <path d="M672.17,221.93c-4.13,0-9.01-.5-14.89-1.54-5.59-.99-10.58-2.17-14.83-3.52l-.92-.29-4.75-9.5.92-1.14c3.87-4.84,13.5-15.89,19.26-14.01,4.64,1.53,9.45,2.3,14.29,2.3,2.32,0,3.87-.14,4.91-.32-1.68-.25-4.02-.4-5.92-.51-10.64-.66-28.45-1.77-28.45-18.59,0-7.33,3.47-13.34,9.76-16.94,5.79-3.26,13.28-4.91,22.3-4.91,1.36,0,4.06-.53,6.66-1.05,4.61-.91,9.37-1.85,12.37-1.28l.9.17,5.54,7.76v30.81c3.35,2.64,5.23,6.85,5.23,11.84,0,8.59-4.76,14.84-13.77,18.05-5.04,1.82-10.95,2.67-18.6,2.67ZM644.75,212.79c3.85,1.17,8.33,2.21,13.32,3.09h0c5.62.99,10.23,1.47,14.1,1.47,7.1,0,12.52-.76,17.05-2.4,7.23-2.58,10.74-7.08,10.74-13.74,0-4.05-1.65-7.31-4.54-8.95-3.16-1.8-7.37-3.01-11.56-3.33-2.15-.24-4.21-.39-6.2-.53-7.58-.54-14.13-1.02-14.13-6.36,0-1.24.55-3.46,4.24-4.49,1.82-.52,4.13-.77,7.05-.77,4.32,0,8.73.69,13.12,2.04,2.62.84,4.87,1.79,6.8,2.86v-21.65l-3.56-4.99c-2.36-.09-6.43.7-9.78,1.36-3.08.61-5.74,1.13-7.55,1.13-8.22,0-14.96,1.45-20.04,4.31-4.86,2.78-7.44,7.26-7.44,12.95,0,11.57,10.94,13.19,24.15,14.02,6.69.42,11.98.75,11.98,4.98,0,5-7.88,5-11.24,5-5.33,0-10.62-.85-15.72-2.53-1.53-.41-7.54,4.4-13.34,11.39l2.57,5.13ZM668.26,182.22c1.12.99,6.46,1.37,9.72,1.6,2.04.15,4.15.3,6.31.54,3.26.25,6.6,1,9.58,2.13-1.91-1.26-4.32-2.35-7.32-3.31-3.92-1.21-7.88-1.83-11.74-1.83-2.45,0-4.4.2-5.81.6-.34.1-.58.19-.74.27Z"/>
        </g>
      </g>
      <g>
        <path d="M266.75,234.61c-4.95-5.28-13.53-8.33-20.89-6.51-9.62,2.39-10.67,11.52-20.35,12.77-7.95,1.03-14.05-4.27-14.41-4.59-6.2-5.55-6.49-14.45-6.51-19.66-.16-32.88,9.3-69.48,10.43-73.83,2.41-9.34,6.27-24.47,10.91-43.62l-4.58-6.41s-20.75.26-28.04-1.52c-2.12,4.02-5.39,10.17-9.48,17.61-13.82,25.19-35.02,61.66-65.93,101.11-13.09,16.71-30,36.6-47.6,36.72-1.81.01-7.47.05-12.94-3.41-10.72-6.78-11.39-21.11-11.51-23.63-.11-2.25-.93-19.88,11.89-27.54,1.11-.67,8.76-5.08,17.03-2.64,8.83,2.61,8.83,10.21,16.44,12.61,8.36,2.63,19.19-3.14,24.65-10.64,8.08-11.08,4.85-26.49-1.07-35.53-11.13-17.01-36.34-18.5-52.04-14.84-33.52,7.82-46.24,44.37-48.45,51.26-1.01,3.15-15.37,50.17,11.86,72.63,17.79,14.67,42.36,9.82,47.9,8.72,23.23-4.59,38.29-22.12,61.82-48.81,8.37-9.49,14.74-17.86,19.01-23.74,7.88,2.8,15.75,5.61,23.63,8.41-.73,5.33-3.61,30.64,13.5,51.49,3.43,4.18,13.68,16.33,31.28,19.9,2.71.55,31.04,5.9,43.32-12.14,6.3-9.25,8.72-25.03.13-34.19ZM183.11,163.67c-.37,1.7-.6,2.81-.74,3.4-.15.66-.41,1.61-.65,2.95-.74,3.64-1.03,5.92-1.22,9.83l-.58,10.68-13.24-4.53,6.08-8.8c1.97-3.06,3.92-6.44,4.86-8.34.44-.88,1.17-2.38,2.18-4.5.92-2.07,1.67-3.64,2.17-4.66l1.85.63c-.13.59-.37,1.7-.71,3.33Z"/>
        <path d="M235.63,284.37c-6.48,0-11.52-.93-12.78-1.19-12.42-2.52-23.39-9.48-32.59-20.69-15.47-18.84-15.36-41.04-14.23-51.4l-20.29-7.22c-5.67,7.73-11.77,15.3-18.14,22.52l-1.42,1.61c-22.97,26.06-38.15,43.28-61.68,47.93-20.39,4.03-37.62.85-49.8-9.2-28.66-23.64-13.25-73.01-12.58-75.1,3.34-10.42,16.82-45.02,50.11-52.79,18.44-4.3,43.35-1.19,54.48,15.81,3.38,5.16,5.62,11.74,6.15,18.06.65,7.63-1.13,14.57-5.15,20.07-5.84,8.01-17.6,14.49-27.19,11.47-4.3-1.35-6.58-4.17-8.59-6.65-2.08-2.57-3.89-4.79-7.81-5.95-7.12-2.1-13.92,1.64-15.21,2.41-10.81,6.45-10.98,21.12-10.78,25.47.22,4.71,1.68,16.25,10.45,21.8,4.9,3.1,10.02,3.06,11.7,3.06,15.67-.11,31.28-17.29,45.82-35.84,31.13-39.74,52.42-76.56,65.73-100.8,3.2-5.82,6.38-11.73,9.46-17.57l.83-1.58,1.73.42c6.93,1.69,27.27,1.46,27.47,1.45h1.2s5.88,8.22,5.88,8.22l-.25,1.02c-3.58,14.77-7.25,29.46-10.92,43.65-2.47,9.56-10.51,43.04-10.36,73.24.02,4.18.06,12.87,5.75,17.96.06.05,5.6,4.94,12.59,4.03,4.22-.54,6.5-2.88,9.14-5.59,2.66-2.73,5.68-5.83,10.95-7.13,7.83-1.94,17.33,1,23.11,7.16,4.4,4.69,6.52,11.17,6.13,18.75-.33,6.48-2.53,13.15-6.04,18.3-8.05,11.82-22.36,14.28-32.89,14.28ZM154.04,198.4l27,9.61-.25,1.84c-1.19,8.74-2.31,31.07,13.01,49.73,8.52,10.37,18.6,16.8,29.96,19.11,3,.61,29.63,5.47,40.97-11.18,6.02-8.84,7.86-23.33.36-31.34h0c-4.62-4.93-12.47-7.39-18.66-5.85-4,.99-6.32,3.37-8.77,5.89-2.83,2.9-6.03,6.19-11.83,6.93-9.05,1.16-15.94-4.9-16.23-5.16-7.2-6.45-7.26-16.89-7.28-21.35-.15-30.75,8-64.72,10.5-74.4,3.58-13.86,7.16-28.17,10.66-42.58l-3.28-4.59c-4.22.02-18.31,0-25.64-1.24-2.84,5.37-5.76,10.78-8.69,16.13-13.38,24.38-34.8,61.42-66.14,101.42-15.24,19.46-31.78,37.48-49.39,37.6-2.02.02-8.15.05-14.18-3.77-7.45-4.71-12.03-13.99-12.57-25.46-.23-4.99.01-21.86,13.01-29.61,2.22-1.32,10.13-5.44,18.85-2.87,5.29,1.56,7.83,4.69,10.07,7.46,1.84,2.26,3.42,4.22,6.41,5.16,7.52,2.37,17.33-3.24,22.11-9.8,7.06-9.69,4.77-23.89-1.14-32.93-5.87-8.97-15.68-12.67-22.86-14.19-8.45-1.79-18.2-1.67-26.74.32-30.94,7.22-43.63,39.88-46.79,49.73-.63,1.97-15.15,48.48,11.13,70.17,11.09,9.15,27,12,46,8.24,22-4.35,36.77-21.1,59.13-46.47l1.42-1.61c6.65-7.54,13-15.48,18.88-23.57l1.01-1.39ZM182.04,193.68l-18.97-6.49,7.81-11.29c2.07-3.21,3.89-6.44,4.69-8.05.45-.89,1.17-2.38,2.17-4.47.87-1.96,1.62-3.53,2.17-4.67l.88-1.83,5.71,1.95-.44,2c-.13.59-.37,1.69-.71,3.31h0s-.34,1.6-.34,1.6c-.18.84-.31,1.45-.4,1.83l-.13.53c-.15.6-.33,1.36-.51,2.34-.73,3.57-1,5.7-1.19,9.53l-.75,13.72ZM170.28,184.82l7.52,2.57.42-7.66c.18-3.62.43-5.9,1.04-9.03-1.11,2.12-2.9,5.17-4.57,7.75l-4.4,6.37Z"/>
      </g>
      <g>
        <path d="M510.83,150.16c4.4,2.02,11.22,4.37,19.3,3.67,11.17-.96,15.75-6.94,25.67-6.75,4.42.09,10.88,1.42,18.71,7.66v-12.95l-4.58-7.33c-10.52-.19-29.06,6.62-40.3,7.16-7.84.38-17.52,3.99-21.92,1.73l3.11,6.81Z"/>
        <path d="M575.89,157.59l-2.23-1.78c-5.98-4.77-12-7.25-17.88-7.36-4.86-.1-8.44,1.42-12.24,3.02-3.61,1.52-7.7,3.25-13.29,3.73-6.55.56-13.28-.71-19.99-3.79l-.46-.21-4.97-10.88,3.53,1.81c2.35,1.21,7.21.31,11.91-.56,3.1-.58,6.31-1.17,9.31-1.32,5.16-.25,12.14-1.91,18.88-3.51,7.75-1.85,15.76-3.74,21.51-3.65h.75s5.19,8.31,5.19,8.31v16.2ZM511.87,149.12c6.12,2.73,12.22,3.85,18.15,3.34,5.15-.44,8.87-2.01,12.45-3.52,4.07-1.72,7.92-3.34,13.36-3.24,5.76.11,11.57,2.22,17.31,6.28v-9.81l-3.97-6.35c-5.36.07-12.84,1.85-20.09,3.58-6.86,1.63-13.96,3.32-19.38,3.58-2.82.14-5.93.71-8.95,1.27-3.89.72-7.62,1.41-10.59,1.13l1.7,3.73Z"/>
      </g>
      <g>
        <g>
          <path class="cls-3" d="M246.4,204.84c-2.21-3.32-3.8-7.54-4.92-11.55-1.67-5.9-3.53-11.16-8.18-11.16-.35,0-.81.13-1.4.39v.6c0,4.52.19,9.18.58,14.04.39,4.87.89,8.83,1.55,11.98h-26.05c.66-3.14,1.16-7.11,1.55-11.98.39-4.87.58-9.52.58-14.04v-9.69c0-4.52-.19-9.22-.58-14.09-.39-4.87-.89-8.83-1.55-11.98h35.89c6.47,0,11.94,1.25,16.16,3.79,4.19,2.54,6.71,6.76,6.71,12.11,0,11.24-10,15.9-22.48,15.9h-.23v.52h.08c.97,0,2.67.43,5.16,1.25,2.48.86,4.65,1.29,6.51,1.29,3.22,0,5.89-.99,8.06-3.02,2.17-2.02,3.84-4.61,4.96-7.84v31.97c-.77,1.94-2.21,3.62-4.34,5.04-2.13,1.42-4.34,2.11-6.63,2.11-5.27,0-9.26-2.33-11.43-5.64ZM231.91,172.99h7.99c2.91,0,4.77-1.29,4.77-3.7s-1.86-3.7-4.77-3.7h-7.99v7.41Z"/>
          <path d="M243.88,147.37c6.47,0,11.94,1.25,16.16,3.79,4.19,2.54,6.71,6.76,6.71,12.11,0,11.24-10,15.9-22.48,15.9h-.23v.52h.08c.97,0,2.67.43,5.16,1.25,2.48.86,4.65,1.29,6.51,1.29,3.22,0,5.89-.99,8.06-3.02,2.17-2.02,3.84-4.61,4.96-7.84v31.97c-.77,1.94-2.21,3.62-4.34,5.04-2.13,1.42-4.34,2.11-6.63,2.11-5.27,0-9.26-2.33-11.43-5.64-2.21-3.32-3.8-7.54-4.92-11.55-1.67-5.9-3.53-11.16-8.18-11.16-.35,0-.81.13-1.4.39v.6c0,4.52.19,9.18.58,14.04.39,4.87.89,8.83,1.55,11.98h-26.05c.66-3.14,1.16-7.11,1.55-11.98.39-4.87.58-9.52.58-14.04v-9.69c0-4.52-.19-9.22-.58-14.09-.39-4.87-.89-8.83-1.55-11.98h35.89M231.91,172.99h7.99c2.91,0,4.77-1.29,4.77-3.7s-1.86-3.7-4.77-3.7h-7.99v7.41M243.88,144.16h-35.89c-.97,0-1.88.44-2.49,1.18-.61.75-.85,1.73-.65,2.68.62,2.95,1.11,6.74,1.49,11.57.38,4.76.57,9.42.57,13.83v9.69c0,4.45-.19,8.96-.57,13.79-.39,4.83-.87,8.62-1.49,11.57-.2.95.04,1.93.65,2.68.61.75,1.52,1.18,2.49,1.18h26.05c.97,0,1.88-.44,2.49-1.19.61-.75.85-1.73.65-2.68-.62-2.95-1.11-6.74-1.49-11.57-.29-3.69-.47-7.19-.54-10.61,1.21,1.37,2.2,4.13,3.25,7.86,1.43,5.08,3.22,9.27,5.34,12.45,2.94,4.49,8.08,7.07,14.1,7.07,2.94,0,5.77-.89,8.41-2.65,2.65-1.77,4.52-3.96,5.54-6.52.15-.38.23-.78.23-1.19v-31.97c0-1.56-1.12-2.9-2.66-3.16.4-1.54.61-3.19.61-4.94,0-6.34-2.93-11.62-8.25-14.85-4.7-2.83-10.69-4.26-17.83-4.26h0ZM235.11,168.79h4.78c.94,0,1.41.19,1.54.28,0,.03.02.1.02.21,0,.16-.02.22-.02.22-.06.05-.52.28-1.54.28h-4.78v-1h0Z"/>
        </g>
        <g>
          <path class="cls-3" d="M284.61,209.15c.66-3.14,1.16-7.11,1.55-11.98.39-4.87.58-9.52.58-14.04v-11.37h-5.7c-4.42,0-8.37,1.16-11.82,3.53l3.57-27.92h49.07l3.57,27.92c-3.45-2.37-7.36-3.53-11.74-3.53h-5.19v11.37c0,4.48.19,9.13.58,14,.39,4.87.93,8.88,1.59,12.02h-26.05Z"/>
          <path d="M321.86,147.37l3.57,27.92c-3.45-2.37-7.36-3.53-11.74-3.53h-5.19v11.37c0,4.48.19,9.13.58,14,.39,4.87.93,8.88,1.59,12.02h-26.05c.66-3.14,1.16-7.11,1.55-11.98.39-4.87.58-9.52.58-14.04v-11.37h-5.7c-4.42,0-8.37,1.16-11.82,3.53l3.57-27.92h49.07M321.86,144.16h-49.07c-1.61,0-2.98,1.2-3.18,2.8l-3.57,27.92c-.16,1.25.43,2.48,1.51,3.14.51.31,1.09.47,1.67.47.64,0,1.27-.19,1.82-.56,2.91-2,6.18-2.97,10.01-2.97h2.49v8.17c0,4.45-.19,8.97-.57,13.79-.39,4.83-.87,8.62-1.49,11.57-.2.95.04,1.93.65,2.68.61.75,1.52,1.19,2.49,1.19h26.05c.97,0,1.88-.44,2.49-1.19.61-.75.85-1.73.65-2.68-.65-3.09-1.16-7-1.53-11.62-.38-4.76-.57-9.38-.57-13.75v-8.17h1.99c3.77,0,7.02.97,9.93,2.97.55.37,1.18.56,1.82.56.58,0,1.16-.16,1.67-.47,1.08-.66,1.67-1.89,1.51-3.14l-3.57-27.92c-.2-1.6-1.57-2.8-3.18-2.8h0Z"/>
        </g>
        <g>
          <path class="cls-3" d="M326.01,209.15c.66-3.14,1.16-7.11,1.55-11.98.39-4.87.58-9.52.58-14.04v-9.69c0-4.52-.19-9.22-.58-14.09-.39-4.87-.89-8.83-1.55-11.98h26.05c-.66,3.14-1.16,7.11-1.55,11.98-.39,4.87-.58,9.56-.58,14.09v9.69c0,4.52.19,9.18.58,14.04.39,4.87.89,8.83,1.55,11.98h-26.05Z"/>
          <path d="M352.05,147.37c-.66,3.14-1.16,7.11-1.55,11.98-.39,4.87-.58,9.56-.58,14.09v9.69c0,4.52.19,9.18.58,14.04.39,4.87.89,8.83,1.55,11.98h-26.05c.66-3.14,1.16-7.11,1.55-11.98.39-4.87.58-9.52.58-14.04v-9.69c0-4.52-.19-9.22-.58-14.09-.39-4.87-.89-8.83-1.55-11.98h26.05M352.05,144.16h-26.05c-.97,0-1.88.44-2.49,1.18-.61.75-.85,1.73-.65,2.68.62,2.95,1.11,6.74,1.49,11.57.38,4.76.57,9.42.57,13.83v9.69c0,4.45-.19,8.96-.57,13.79-.39,4.83-.87,8.62-1.49,11.57-.2.95.04,1.93.65,2.68.61.75,1.52,1.18,2.49,1.18h26.05c.97,0,1.88-.44,2.49-1.19.61-.75.85-1.73.65-2.68-.62-2.95-1.11-6.74-1.49-11.57-.38-4.83-.57-9.34-.57-13.79v-9.69c0-4.41.19-9.07.57-13.83.38-4.83.87-8.62,1.49-11.57.2-.95-.04-1.93-.65-2.68-.61-.75-1.52-1.19-2.49-1.19h0Z"/>
        </g>
        <g>
          <path class="cls-3" d="M354.92,209.15c.66-3.14,1.16-7.11,1.55-11.98.39-4.87.58-9.52.58-14.04v-9.69c0-4.52-.19-9.22-.58-14.09-.39-4.87-.89-8.83-1.55-11.98h29.77l7.33,21.2c.7,1.94,1.24,3.62,1.59,5,.35,1.42.81,3.49,1.32,6.2h.97c.47-3.49,1.01-5.94,1.43-7.32.19-.69.62-1.98,1.28-3.88l7.37-21.2h29.3c-.66,3.14-1.2,7.15-1.59,12.02-.39,4.87-.58,9.56-.58,14.04v9.69c0,4.48.19,9.13.58,14,.39,4.87.93,8.88,1.59,12.02h-26.05c.66-3.14,1.16-7.11,1.55-11.98.39-4.87.58-9.52.58-14.04v-6.89h-1.01l-12.48,32.91h-5.85l-12.4-32.91h-.78v6.89c0,4.52.19,9.18.58,14.04.39,4.87.89,8.83,1.55,11.98h-26.05Z"/>
          <path d="M435.27,147.37c-.66,3.14-1.2,7.15-1.59,12.02-.39,4.87-.58,9.56-.58,14.04v9.69c0,4.48.19,9.13.58,14,.39,4.87.93,8.88,1.59,12.02h-26.05c.66-3.14,1.16-7.11,1.55-11.98.39-4.87.58-9.52.58-14.04v-6.89h-1.01l-12.48,32.91h-5.85l-12.4-32.91h-.78v6.89c0,4.52.19,9.18.58,14.04.39,4.87.89,8.83,1.55,11.98h-26.05c.66-3.14,1.16-7.11,1.55-11.98.39-4.87.58-9.52.58-14.04v-9.69c0-4.52-.19-9.22-.58-14.09-.39-4.87-.89-8.83-1.55-11.98h29.77l7.33,21.2c.7,1.94,1.24,3.62,1.59,5,.35,1.42.81,3.49,1.32,6.2h.97c.47-3.49,1.01-5.94,1.43-7.32.19-.69.62-1.98,1.28-3.88l7.37-21.2h29.3M435.27,144.16h-29.3c-1.37,0-2.58.86-3.03,2.15l-7.37,21.2c-.09.27-.18.52-.26.76-.09-.26-.18-.52-.28-.79l-7.31-21.16c-.45-1.29-1.66-2.16-3.03-2.16h-29.77c-.97,0-1.88.44-2.49,1.18-.61.75-.85,1.73-.65,2.68.62,2.96,1.11,6.74,1.49,11.57.38,4.76.57,9.42.57,13.83v9.69c0,4.45-.19,8.96-.57,13.79-.39,4.83-.87,8.62-1.49,11.57-.2.95.04,1.93.65,2.68.61.75,1.52,1.18,2.49,1.18h26.05c.97,0,1.88-.44,2.49-1.19.61-.75.85-1.73.65-2.68-.62-2.95-1.11-6.74-1.49-11.57-.12-1.5-.22-2.98-.3-4.43l6.7,17.79c.47,1.25,1.67,2.08,3,2.08h5.85c1.33,0,2.53-.82,3-2.07l7.06-18.62c-.09,1.72-.2,3.46-.35,5.25-.38,4.83-.87,8.62-1.49,11.57-.2.95.04,1.93.65,2.68.61.75,1.52,1.19,2.49,1.19h26.05c.97,0,1.88-.44,2.49-1.19.61-.75.85-1.73.65-2.68-.65-3.09-1.16-7-1.53-11.62-.38-4.76-.57-9.39-.57-13.75v-9.69c0-4.39.19-9.02.57-13.79.37-4.62.88-8.53,1.53-11.62.2-.95-.04-1.93-.65-2.68-.61-.75-1.52-1.19-2.49-1.19h0Z"/>
        </g>
        <g>
          <path class="cls-3" d="M437.01,209.15c1.32-3.14,2.71-7.19,4.15-12.06,1.43-4.87,2.6-9.52,3.53-13.96l2.09-9.69c.93-4.44,1.74-9.13,2.4-14,.66-4.87.97-8.92,1.01-12.06h39.26c.04,3.14.39,7.19,1.05,12.06.66,4.87,1.43,9.56,2.36,14l2.09,9.69c.93,4.44,2.13,9.09,3.57,13.96,1.43,4.87,2.79,8.92,4.11,12.06h-26.01c0-3.4-.47-8.31-1.36-14.82l-.15-.9h-10.58l-.15.99c-.89,6.5-1.36,11.42-1.36,14.73h-26.01ZM465.81,183.23h8.02l-1.67-5.9c-.62-2.15-.89-3.45-1.16-5.56-.12-.78-.15-1.34-.19-1.72-.04-.34-.12-.99-.23-1.98-.12-.95-.19-1.59-.23-1.94h-1.12c-.08.65-.19,1.64-.31,2.93-.15,1.34-.27,2.28-.35,2.84-.15,1.21-.58,3.4-1.09,5.43l-1.67,5.9Z"/>
          <path d="M489.46,147.37c.04,3.14.39,7.19,1.05,12.06.66,4.87,1.43,9.56,2.36,14l2.09,9.69c.93,4.44,2.13,9.09,3.57,13.96,1.43,4.87,2.79,8.92,4.11,12.06h-26.01c0-3.4-.47-8.31-1.36-14.82l-.15-.9h-10.58l-.15.99c-.89,6.5-1.36,11.42-1.36,14.73h-26.01c1.32-3.14,2.71-7.19,4.15-12.06,1.43-4.87,2.6-9.52,3.53-13.96l2.09-9.69c.93-4.44,1.74-9.13,2.4-14,.66-4.87.97-8.92,1.01-12.06h39.26M465.81,183.23h8.02l-1.67-5.9c-.62-2.15-.89-3.45-1.16-5.56-.12-.78-.15-1.34-.19-1.72-.04-.34-.12-.99-.23-1.98-.12-.95-.19-1.59-.23-1.94h-1.12c-.08.65-.19,1.64-.31,2.93-.15,1.34-.27,2.28-.35,2.84-.15,1.21-.58,3.4-1.09,5.43l-1.67,5.9M489.46,144.16h-39.26c-1.76,0-3.18,1.41-3.21,3.17-.04,3.19-.38,7.23-.98,11.67-.63,4.67-1.43,9.31-2.36,13.77l-2.09,9.67c-.95,4.51-2.11,9.13-3.47,13.73-1.39,4.73-2.75,8.67-4.03,11.73-.41.99-.31,2.12.29,3.01.59.89,1.6,1.43,2.67,1.43h26.01c1.77,0,3.21-1.44,3.21-3.21,0-2.82.36-6.92,1.09-12.52h5.03c.72,5.56,1.08,9.66,1.08,12.52,0,1.77,1.44,3.21,3.21,3.21h26.01c1.07,0,2.08-.54,2.67-1.43.59-.89.7-2.03.29-3.01-1.21-2.89-2.52-6.73-3.99-11.73-1.47-4.98-2.61-9.47-3.5-13.71l-2.1-9.71c-.87-4.15-1.63-8.65-2.32-13.75-.64-4.71-.98-8.64-1.02-11.67-.02-1.75-1.45-3.17-3.21-3.17h0Z"/>
        </g>
        <g>
          <path class="cls-3" d="M504.42,209.15c.66-3.14,1.16-7.11,1.55-11.98.39-4.87.58-9.52.58-14.04v-9.69c0-4.52-.19-9.22-.58-14.09-.39-4.87-.89-8.83-1.55-11.98l23.57.17,14.92,26.92h1.2v-1.34c0-4.09-.19-8.74-.62-14.04-.43-5.3-.93-9.18-1.43-11.72h26.05c-.66,3.14-1.2,7.15-1.59,12.02-.39,4.87-.58,9.56-.58,14.04v35.71h-20.39l-15.97-28.95h-1.24v1.16c0,4.52.23,9.61.66,15.25.43,5.69.89,9.86,1.47,12.54h-26.05Z"/>
          <path d="M568.11,147.37c-.66,3.14-1.2,7.15-1.59,12.02-.39,4.87-.58,9.56-.58,14.04v35.71h-20.39l-15.97-28.95h-1.24v1.16c0,4.52.23,9.61.66,15.25.43,5.69.89,9.86,1.47,12.54h-26.05c.66-3.14,1.16-7.11,1.55-11.98.39-4.87.58-9.52.58-14.04v-9.69c0-4.52-.19-9.22-.58-14.09-.39-4.87-.89-8.83-1.55-11.98l23.57.17,14.92,26.92h1.2v-1.34c0-4.09-.19-8.74-.62-14.04-.43-5.3-.93-9.18-1.43-11.72h26.05M504.42,144.16c-.96,0-1.87.43-2.48,1.18-.61.75-.86,1.74-.66,2.69.62,2.95,1.11,6.74,1.49,11.57.38,4.76.57,9.42.57,13.83v9.69c0,4.45-.19,8.96-.57,13.79-.39,4.83-.87,8.62-1.49,11.57-.2.95.04,1.93.65,2.68.61.75,1.52,1.18,2.49,1.18h26.05c.97,0,1.89-.44,2.5-1.19.61-.76.84-1.75.64-2.69-.52-2.37-.98-6.32-1.41-12.09-.14-1.91-.26-3.72-.36-5.45l10.91,19.77c.56,1.02,1.64,1.66,2.81,1.66h20.39c1.77,0,3.21-1.44,3.21-3.21v-35.71c0-4.39.19-9.02.57-13.79.37-4.61.88-8.52,1.53-11.62.2-.95-.04-1.93-.65-2.68-.61-.75-1.52-1.19-2.49-1.19h-26.05c-.96,0-1.87.43-2.48,1.17s-.85,1.72-.67,2.66c.36,1.82.89,5.27,1.38,11.35.12,1.48.22,2.93.31,4.34l-9.81-17.7c-.56-1.01-1.62-1.64-2.78-1.65l-23.57-.17s-.02,0-.02,0h0Z"/>
        </g>
        <g>
          <path class="cls-3" d="M569.85,209.15c1.32-3.14,2.71-7.19,4.15-12.06,1.43-4.87,2.6-9.52,3.53-13.96l2.09-9.69c.93-4.44,1.74-9.13,2.4-14,.66-4.87.97-8.92,1.01-12.06h39.26c.04,3.14.39,7.19,1.05,12.06.66,4.87,1.43,9.56,2.36,14l2.09,9.69c.93,4.44,2.13,9.09,3.57,13.96,1.43,4.87,2.79,8.92,4.11,12.06h-26.01c0-3.4-.47-8.31-1.36-14.82l-.15-.9h-10.58l-.15.99c-.89,6.5-1.36,11.42-1.36,14.73h-26.01ZM598.65,183.23h8.02l-1.67-5.9c-.62-2.15-.89-3.45-1.16-5.56-.12-.78-.15-1.34-.19-1.72-.04-.34-.12-.99-.23-1.98-.12-.95-.19-1.59-.23-1.94h-1.12c-.08.65-.19,1.64-.31,2.93-.15,1.34-.27,2.28-.35,2.84-.15,1.21-.58,3.4-1.09,5.43l-1.67,5.9Z"/>
          <path d="M622.29,147.37c.04,3.14.39,7.19,1.05,12.06.66,4.87,1.43,9.56,2.36,14l2.09,9.69c.93,4.44,2.13,9.09,3.57,13.96,1.43,4.87,2.79,8.92,4.11,12.06h-26.01c0-3.4-.47-8.31-1.36-14.82l-.15-.9h-10.58l-.15.99c-.89,6.5-1.36,11.42-1.36,14.73h-26.01c1.32-3.14,2.71-7.19,4.15-12.06,1.43-4.87,2.6-9.52,3.53-13.96l2.09-9.69c.93-4.44,1.74-9.13,2.4-14,.66-4.87.97-8.92,1.01-12.06h39.26M598.65,183.23h8.02l-1.67-5.9c-.62-2.15-.89-3.45-1.16-5.56-.12-.78-.15-1.34-.19-1.72-.04-.34-.12-.99-.23-1.98-.12-.95-.19-1.59-.23-1.94h-1.12c-.08.65-.19,1.64-.31,2.93-.15,1.34-.27,2.28-.35,2.84-.15,1.21-.58,3.4-1.09,5.43l-1.67,5.9M622.29,144.16h-39.26c-1.76,0-3.18,1.41-3.21,3.17-.04,3.19-.38,7.23-.98,11.67-.63,4.67-1.43,9.31-2.36,13.77l-2.09,9.67c-.95,4.51-2.11,9.13-3.47,13.73-1.39,4.73-2.75,8.67-4.03,11.73-.41.99-.31,2.12.29,3.01.59.89,1.6,1.43,2.67,1.43h26.01c1.77,0,3.21-1.44,3.21-3.21,0-2.82.36-6.92,1.09-12.52h5.03c.72,5.56,1.08,9.66,1.08,12.52,0,1.77,1.44,3.21,3.21,3.21h26.01c1.07,0,2.08-.54,2.67-1.43.59-.89.7-2.03.29-3.01-1.21-2.89-2.52-6.73-3.99-11.73-1.47-4.98-2.61-9.47-3.5-13.71l-2.1-9.71c-.87-4.15-1.63-8.65-2.32-13.75-.64-4.71-.98-8.64-1.02-11.67-.02-1.75-1.45-3.17-3.21-3.17h0Z"/>
        </g>
        <g>
          <path class="cls-3" d="M651.26,208.97c-5.62-.99-10.47-2.15-14.54-3.45l.93-27.87c3.22,3.23,7.29,5.69,12.17,7.28,4.85,1.59,9.85,2.41,15,2.41,5.97,0,8.95-.9,8.95-2.71,0-6.07-36.13,3.32-36.13-19,0-6.68,3.18-11.85,8.61-14.95,5.43-3.06,12.6-4.61,21.16-4.61,3.92,0,8.06.39,12.37,1.21s7.91,1.77,10.81,2.84v26.71c-2.36-2.03-5.62-3.66-9.77-5-4.19-1.29-8.33-1.94-12.44-1.94-2.6,0-4.77.21-6.43.69-1.71.47-2.56,1.25-2.56,2.28,0,4.18,9.11,3.58,18.22,4.61,4.53.34,9.11,1.68,12.52,3.62s5.7,5.77,5.7,10.94c0,8.23-4.77,13.23-12.25,15.9-5.12,1.85-10.89,2.54-17.83,2.54-4.07,0-8.88-.52-14.5-1.51Z"/>
          <path d="M667.42,146.08c3.92,0,8.06.39,12.36,1.21,4.3.82,7.91,1.77,10.81,2.84v26.71c-2.36-2.03-5.62-3.66-9.77-5-4.19-1.29-8.33-1.94-12.44-1.94-2.6,0-4.77.21-6.43.69-1.71.47-2.56,1.25-2.56,2.28,0,4.18,9.11,3.58,18.22,4.61,4.53.34,9.11,1.68,12.52,3.62,3.41,1.94,5.7,5.77,5.7,10.94,0,8.23-4.77,13.23-12.25,15.9-5.12,1.85-10.89,2.54-17.83,2.54-4.07,0-8.88-.52-14.5-1.51-5.62-.99-10.47-2.15-14.54-3.45l.93-27.87c3.22,3.23,7.29,5.69,12.17,7.28,4.85,1.59,9.85,2.41,15,2.41,5.97,0,8.95-.9,8.95-2.71,0-6.07-36.13,3.32-36.13-19,0-6.68,3.18-11.85,8.61-14.95,5.43-3.06,12.6-4.61,21.16-4.61M667.42,142.87c-9.17,0-16.82,1.69-22.74,5.02-6.61,3.78-10.24,10.07-10.24,17.74,0,3.41.75,6.41,2.22,8.97-.06.02-.13.04-.19.07-1.19.47-1.99,1.6-2.03,2.88l-.93,27.87c-.05,1.44.86,2.73,2.23,3.16,4.29,1.36,9.32,2.56,14.95,3.55,5.94,1.05,10.86,1.56,15.05,1.56,7.76,0,13.77-.87,18.92-2.73,9.39-3.35,14.36-9.89,14.36-18.91,0-5.55-2.22-10.2-6.14-12.98.57-.59.9-1.38.9-2.23v-26.71c0-1.34-.83-2.54-2.09-3.01-3.06-1.13-6.87-2.14-11.33-2.99-4.41-.84-8.77-1.26-12.96-1.26h0ZM665.72,173.21c.8-.06,1.7-.1,2.67-.1,3,0,6.06.38,9.13,1.14-2.01-.22-3.98-.36-5.89-.5-1.78-.13-4.05-.29-5.91-.55h0Z"/>
        </g>
      </g>
      <g>
        <path class="cls-3" d="M260.34,225.45c-4.95-5.28-13.53-8.33-20.89-6.51-9.62,2.39-10.67,11.52-20.35,12.77-7.95,1.03-14.05-4.27-14.41-4.59-6.2-5.55-6.49-14.45-6.51-19.66-.16-32.88,9.3-69.48,10.43-73.83,2.41-9.34,6.27-24.47,10.91-43.62-10.87-2.64-21.75-5.29-32.62-7.93-2.12,4.02-5.39,10.17-9.48,17.61-13.82,25.19-35.02,61.66-65.93,101.11-13.09,16.71-30,36.6-47.6,36.72-1.81.01-7.47.05-12.94-3.41-10.72-6.78-11.39-21.11-11.51-23.63-.11-2.25-.93-19.88,11.89-27.54,1.11-.67,8.76-5.08,17.03-2.64,8.83,2.61,8.83,10.21,16.44,12.61,8.36,2.63,19.19-3.14,24.65-10.64,8.08-11.08,4.85-26.49-1.07-35.53-11.13-17.01-36.34-18.5-52.04-14.84-33.52,7.82-46.24,44.37-48.45,51.26-1.01,3.15-15.37,50.17,11.86,72.63,17.79,14.67,42.36,9.82,47.9,8.72,23.23-4.59,38.29-22.12,61.82-48.81,8.37-9.49,14.74-17.86,19.01-23.74,7.88,2.8,15.75,5.61,23.63,8.41-.73,5.33-3.61,30.64,13.5,51.49,3.43,4.18,13.68,16.33,31.28,19.9,2.71.55,31.04,5.9,43.32-12.14,6.3-9.25,8.72-25.03.13-34.19ZM176.7,154.51c-.37,1.7-.6,2.81-.74,3.4-.15.66-.41,1.61-.65,2.95-.74,3.64-1.03,5.92-1.22,9.83l-.58,10.68-13.24-4.53,6.08-8.8c1.97-3.06,3.92-6.44,4.86-8.34.44-.88,1.17-2.38,2.18-4.5.92-2.07,1.67-3.64,2.17-4.66l1.85.63c-.13.59-.37,1.7-.71,3.33Z"/>
        <path d="M186.9,82.08c10.87,2.64,21.75,5.29,32.62,7.93-4.64,19.15-8.49,34.28-10.91,43.62-1.12,4.35-10.59,40.95-10.43,73.83.03,5.21.31,14.1,6.51,19.66.33.3,5.43,4.73,12.36,4.73.67,0,1.36-.04,2.06-.13,9.67-1.25,10.72-10.38,20.35-12.77,1.45-.36,2.95-.53,4.47-.53,6.14,0,12.45,2.8,16.42,7.04,8.59,9.16,6.16,24.94-.13,34.19-7.48,10.99-20.93,13.3-30.9,13.3-6.39,0-11.36-.95-12.42-1.16-17.6-3.57-27.84-15.72-31.28-19.9-17.12-20.85-14.23-46.16-13.5-51.49-7.88-2.8-15.75-5.61-23.63-8.41-4.27,5.88-10.64,14.25-19.01,23.74-23.53,26.69-38.58,44.21-61.82,48.81-2.39.47-8.33,1.65-15.74,1.65-9.75,0-22.05-2.03-32.16-10.37-27.23-22.46-12.87-69.48-11.86-72.63,2.21-6.89,14.92-43.44,48.45-51.26,4.36-1.02,9.46-1.64,14.78-1.64,13.84,0,29.22,4.19,37.26,16.48,5.92,9.04,9.16,24.44,1.07,35.53-4.55,6.24-12.8,11.28-20.27,11.28-1.5,0-2.98-.21-4.38-.65-7.61-2.4-7.61-10-16.44-12.61-1.76-.52-3.5-.73-5.15-.73-6.09,0-11.01,2.84-11.89,3.37-12.83,7.66-12,25.3-11.89,27.54.12,2.52.79,16.85,11.51,23.63,5.1,3.23,10.37,3.41,12.52,3.41.16,0,.3,0,.42,0,17.61-.12,34.51-20.01,47.6-36.72,30.91-39.46,52.11-75.93,65.93-101.11,4.08-7.44,7.35-13.58,9.48-17.61M173.51,181.37l.58-10.68c.19-3.91.47-6.19,1.22-9.83.25-1.35.5-2.29.65-2.95.13-.59.37-1.7.74-3.4.34-1.63.58-2.74.71-3.33l-1.85-.63c-.49,1.02-1.24,2.59-2.17,4.66-1.01,2.12-1.74,3.62-2.18,4.5-.94,1.9-2.88,5.29-4.86,8.34l-6.08,8.8,13.24,4.53M186.9,78.87c-1.17,0-2.27.64-2.84,1.71-3.07,5.83-6.25,11.73-9.45,17.56-13.29,24.21-34.56,61-65.65,100.68-14.39,18.37-29.82,35.39-45.1,35.49h-.4c-4.12,0-7.75-.98-10.81-2.91-8.4-5.32-9.81-16.51-10.02-21.07-.2-4.21-.04-18.45,10.33-24.64,1.15-.68,5.27-2.92,10.24-2.92,1.47,0,2.89.2,4.24.6,3.65,1.08,5.37,3.2,7.36,5.65,2.09,2.58,4.46,5.51,9.03,6.94,1.68.53,3.47.8,5.34.8,8.05,0,17.45-5.18,22.86-12.6,4.14-5.68,5.98-12.84,5.32-20.69-.55-6.47-2.84-13.2-6.3-18.48-7.46-11.39-22.02-17.93-39.95-17.93-5.32,0-10.68.6-15.51,1.72-14.95,3.49-27.7,12.66-37.87,27.27-7.3,10.47-11.22,20.87-12.9,26.13-.46,1.43-4.49,14.43-4.81,29.99-.42,20.26,5.69,36.21,17.69,46.1,8.93,7.37,20.44,11.1,34.2,11.1,7.72,0,14-1.24,16.36-1.71,23.83-4.71,39.09-22.02,62.19-48.22l1.42-1.61c6.24-7.07,12.21-14.48,17.78-22.04l9.56,3.4,9.41,3.35c-1.06,10.77-.82,32.69,14.51,51.36,9.34,11.38,20.48,18.44,33.12,21.01,1.42.29,6.55,1.23,13.05,1.23,10.74,0,25.28-2.55,33.55-14.7,7.37-10.82,9.32-28.06-.18-38.19-4.66-4.97-11.84-8.05-18.76-8.05-1.8,0-3.57.21-5.24.62-5.52,1.37-8.64,4.57-11.38,7.38-2.62,2.69-4.69,4.82-8.6,5.32-.54.07-1.1.11-1.65.11-5.78,0-10.17-3.87-10.22-3.91-5.39-4.82-5.43-13.24-5.45-17.29-.15-30.09,7.86-63.48,10.32-72.99,3.67-14.22,7.35-28.91,10.92-43.68.42-1.72-.64-3.45-2.36-3.87l-16.72-4.07-15.9-3.87c-.25-.06-.51-.09-.76-.09h0ZM165.31,175.18l3.67-5.32s.04-.06.06-.08c.72-1.11,1.45-2.3,2.15-3.47-.13,1.27-.23,2.61-.3,4.22l-.35,6.44-5.22-1.79h0Z"/>
      </g>
      <g>
        <path class="cls-3" d="M504.42,141c4.4,2.02,11.22,4.37,19.3,3.67,11.17-.96,15.75-6.94,25.67-6.75,4.42.09,10.88,1.42,18.71,7.66v-12.95c-7.56-5.32-13.86-6.53-18.3-6.61-10.52-.19-15.34,5.89-26.59,6.44-7.84.38-14.4-2.15-18.8-4.41v12.95Z"/>
        <path d="M549.33,126.01c.16,0,.32,0,.48,0,4.44.08,10.73,1.29,18.3,6.61v12.95c-7.83-6.24-14.3-7.57-18.71-7.66-.16,0-.31,0-.47,0-9.59,0-14.21,5.81-25.2,6.76-.99.08-1.96.12-2.91.12-6.81,0-12.53-2.02-16.4-3.8v-12.95c4.1,2.11,10.08,4.45,17.23,4.45.52,0,1.04-.01,1.58-.04,11.07-.54,15.91-6.44,26.11-6.44M501.22,122.79v20.27l1.87.86c5.91,2.71,11.88,4.09,17.73,4.09,1.06,0,2.13-.05,3.18-.14,5.88-.5,10.11-2.29,13.84-3.86,3.66-1.55,6.83-2.88,11.09-2.88.13,0,.27,0,.4,0,5.47.11,11.12,2.45,16.78,6.96l5.2,4.15v-21.28l-1.36-.96c-6.61-4.65-13.37-7.07-20.08-7.19-.18,0-.36,0-.54,0h0c-5.77,0-9.98,1.68-14.05,3.3-3.74,1.49-7.28,2.9-12.21,3.14-.47.02-.95.03-1.42.03-5.18,0-10.48-1.38-15.76-4.09l-4.67-2.4h0Z"/>
      </g>
      <g>
        <g>
          <path class="cls-1" d="M307.65,296.57c.41-3.63,1.34-6.68,2.8-9.14,1.45-2.46,3.86-5.09,7.22-7.9,3.31-2.81,5.66-5.27,7.05-7.37,1.39-2.1,2.22-4.36,2.49-6.78.25-2.18.06-3.73-.54-4.66-.61-.93-1.59-1.47-2.94-1.62-2.76-.31-4.33,1.2-4.71,4.55l-.61,5.45-7.56-.85.56-4.94c.46-4.12,1.84-7.16,4.12-9.14,2.28-1.97,5.36-2.74,9.24-2.31,3.87.44,6.7,1.87,8.49,4.31,1.79,2.43,2.45,5.71,1.98,9.83-.35,3.1-1.43,6.04-3.24,8.83-1.81,2.79-4.75,5.89-8.81,9.31-2.66,2.25-4.49,4.12-5.49,5.6-1,1.48-1.6,3.12-1.8,4.91l-.12,1.09,15.18,1.71-.82,7.26-23.1-2.61.62-5.52Z"/>
          <path d="M322.74,251.73c.65,0,1.33.04,2.03.12,3.87.44,6.7,1.87,8.49,4.31,1.79,2.43,2.45,5.71,1.98,9.83-.35,3.1-1.43,6.04-3.24,8.83-1.81,2.79-4.75,5.89-8.81,9.31-2.66,2.25-4.49,4.12-5.49,5.6-1,1.48-1.6,3.12-1.8,4.91l-.12,1.09,15.18,1.71-.82,7.26-23.1-2.61.62-5.52c.41-3.63,1.34-6.68,2.8-9.14,1.45-2.46,3.86-5.09,7.22-7.9,3.31-2.81,5.66-5.27,7.05-7.37,1.39-2.1,2.22-4.36,2.49-6.78.25-2.18.06-3.73-.54-4.66-.61-.93-1.59-1.47-2.94-1.62-.24-.03-.46-.04-.68-.04-2.34,0-3.68,1.53-4.03,4.59l-.61,5.45-7.56-.85.56-4.94c.46-4.12,1.84-7.16,4.12-9.14,1.87-1.62,4.27-2.42,7.21-2.42M322.74,249.29c-3.52,0-6.49,1.02-8.8,3.02-2.75,2.38-4.42,5.98-4.95,10.71l-.56,4.94-.27,2.42,2.42.27,7.56.85,2.42.27.27-2.42.61-5.45c.27-2.42,1.04-2.42,1.61-2.42.13,0,.26,0,.41.02.9.1,1.1.42,1.18.53.02.02.42.68.16,3.05-.23,2.05-.92,3.92-2.11,5.71-1.26,1.9-3.48,4.21-6.6,6.86-3.59,3-6.13,5.79-7.74,8.52-1.62,2.75-2.67,6.15-3.12,10.11l-.62,5.52-.27,2.42,2.42.27,23.1,2.61,2.42.27.27-2.42.82-7.26.27-2.42-2.42-.27-12.66-1.43c.24-.89.62-1.71,1.15-2.5.6-.89,1.96-2.49,5.04-5.1,4.28-3.6,7.32-6.82,9.28-9.84,2.01-3.1,3.23-6.42,3.62-9.89.53-4.73-.29-8.61-2.44-11.54-2.2-2.99-5.62-4.77-10.18-5.29-.79-.09-1.56-.13-2.3-.13h0Z"/>
        </g>
        <g>
          <path class="cls-1" d="M343.76,302.85c-2.05-2.28-3.03-5.47-2.95-9.57l.54-26.9c.08-4.09,1.19-7.24,3.33-9.44,2.14-2.2,5.18-3.26,9.13-3.18,3.95.08,6.95,1.26,9,3.54,2.05,2.28,3.03,5.47,2.95,9.57l-.54,26.9c-.08,4.09-1.19,7.24-3.33,9.44-2.14,2.2-5.18,3.26-9.13,3.18s-6.95-1.26-9-3.54ZM357.17,294.13l.56-27.92c.07-3.36-1.29-5.07-4.07-5.13-2.78-.06-4.2,1.6-4.27,4.96l-.56,27.92c-.07,3.36,1.29,5.07,4.07,5.13,2.78.06,4.2-1.6,4.27-4.96Z"/>
          <path d="M353.4,253.76c.14,0,.27,0,.41,0,3.95.08,6.95,1.26,9,3.54,2.05,2.28,3.03,5.47,2.95,9.57l-.54,26.9c-.08,4.09-1.19,7.24-3.33,9.44-2.07,2.12-4.97,3.18-8.72,3.18-.14,0-.27,0-.41,0-3.95-.08-6.95-1.26-9-3.54-2.05-2.28-3.03-5.47-2.95-9.57l.54-26.9c.08-4.09,1.19-7.24,3.33-9.44,2.06-2.12,4.97-3.18,8.72-3.18M353.04,299.09c2.69,0,4.07-1.65,4.13-4.96l.56-27.92c.07-3.36-1.29-5.07-4.07-5.13-.05,0-.09,0-.13,0-2.69,0-4.07,1.65-4.13,4.96l-.56,27.92c-.07,3.36,1.29,5.07,4.07,5.13.05,0,.09,0,.13,0M353.4,251.33h0c-4.42,0-7.94,1.32-10.47,3.92-2.58,2.65-3.93,6.38-4.02,11.09l-.54,26.9c-.09,4.71,1.11,8.5,3.58,11.24,2.51,2.79,6.13,4.26,10.76,4.35.15,0,.31,0,.46,0,4.41,0,7.94-1.32,10.47-3.92,2.58-2.65,3.93-6.38,4.02-11.09l.54-26.9c.09-4.71-1.11-8.49-3.58-11.24-2.51-2.8-6.13-4.26-10.76-4.35-.15,0-.31,0-.46,0h0ZM353.04,296.65h-.09c-1.73-.04-1.7-1.3-1.68-2.64l.56-27.92c.05-2.57.89-2.57,1.7-2.57h.09c1.73.04,1.71,1.3,1.68,2.64l-.56,27.92c-.05,2.57-.89,2.57-1.7,2.57h0Z"/>
        </g>
        <g>
          <path class="cls-1" d="M374.75,300.08c-.26-3.65.09-6.81,1.07-9.5.98-2.68,2.86-5.72,5.64-9.1,2.74-3.37,4.59-6.22,5.58-8.54.98-2.32,1.38-4.69,1.21-7.12-.16-2.19-.62-3.68-1.39-4.48-.77-.8-1.83-1.15-3.19-1.05-2.77.2-4.04,1.98-3.79,5.33l.4,5.47-7.58.55-.36-4.96c-.3-4.13.49-7.38,2.37-9.74,1.88-2.36,4.77-3.68,8.66-3.96,3.89-.28,6.93.61,9.14,2.67,2.2,2.06,3.45,5.16,3.75,9.29.23,3.11-.3,6.2-1.56,9.28-1.27,3.07-3.59,6.66-6.95,10.77-2.2,2.7-3.65,4.87-4.37,6.51-.71,1.64-1,3.36-.87,5.16l.08,1.09,15.24-1.1.53,7.29-23.19,1.68-.4-5.54Z"/>
          <path d="M384.72,252.93c3.24,0,5.83.91,7.77,2.72,2.2,2.06,3.45,5.16,3.75,9.29.23,3.11-.3,6.2-1.56,9.28-1.27,3.07-3.59,6.66-6.95,10.77-2.2,2.7-3.65,4.87-4.37,6.51-.71,1.64-1,3.36-.87,5.16l.08,1.09,15.24-1.1.53,7.29-23.19,1.68-.4-5.54c-.26-3.65.09-6.81,1.07-9.5.98-2.68,2.86-5.72,5.64-9.1,2.74-3.37,4.59-6.22,5.58-8.54.98-2.32,1.38-4.69,1.21-7.12-.16-2.19-.62-3.68-1.39-4.48-.68-.71-1.6-1.07-2.75-1.07-.14,0-.29,0-.44.02-2.77.2-4.04,1.98-3.79,5.33l.4,5.47-7.58.55-.36-4.96c-.3-4.13.49-7.38,2.37-9.74,1.88-2.36,4.77-3.68,8.66-3.96.47-.03.92-.05,1.37-.05M384.72,250.5c-.5,0-1.02.02-1.54.06-4.58.33-8.07,1.97-10.38,4.87-2.27,2.85-3.24,6.69-2.9,11.43l.36,4.96.18,2.43,2.43-.18,7.58-.55,2.43-.18-.18-2.43-.4-5.47c-.11-1.48.19-2.07.32-2.26.07-.1.28-.4,1.22-.47.09,0,.18,0,.26,0,.69,0,.9.22,1,.32.02.02.54.59.72,2.97.15,2.06-.18,4.02-1.02,6-.89,2.1-2.64,4.77-5.22,7.95-2.98,3.61-4.96,6.82-6.04,9.8-1.09,3-1.5,6.53-1.21,10.51l.4,5.54.18,2.43,2.43-.18,23.19-1.68,2.43-.18-.18-2.43-.53-7.29-.18-2.43-2.43.18-12.71.92c.07-.92.3-1.8.67-2.67.62-1.43,1.97-3.43,4.02-5.94,3.5-4.26,5.96-8.09,7.32-11.37,1.41-3.41,1.99-6.91,1.74-10.38-.34-4.74-1.86-8.41-4.52-10.9-2.4-2.25-5.57-3.38-9.44-3.38h0Z"/>
        </g>
        <g>
          <path class="cls-1" d="M421.05,291.28l-15.15,2.52-1.2-7.21,8.76-36.51,8.65-1.44,5.67,34.12,3.75-.62,1.2,7.21-3.75.62,1.52,9.16-7.93,1.32-1.52-9.16ZM419.85,284.07l-3.27-19.69-.14.02-4.52,20.98,7.93-1.32Z"/>
          <path d="M422.12,248.64l5.67,34.12,3.75-.62,1.2,7.21-3.75.62,1.52,9.16-7.93,1.32-1.52-9.16-15.15,2.52-1.2-7.21,8.76-36.51,8.65-1.44M411.92,285.39l7.93-1.32-3.27-19.69-.14.02-4.52,20.98M424.12,245.83l-2.4.4-8.65,1.44-1.59.26-.38,1.57-8.76,36.51-.12.48.08.49,1.2,7.21.4,2.4,2.4-.4,12.74-2.12,1.12,6.76.4,2.4,2.4-.4,7.93-1.32,2.4-.4-.4-2.4-1.12-6.76,1.35-.22,2.4-.4-.4-2.4-1.2-7.21-.4-2.4-2.4.4-1.35.22-5.27-31.71-.4-2.4h0ZM415.06,282.4l1.16-5.37.84,5.04-1.99.33h0Z"/>
        </g>
      </g>
    </g>
  </g>
</svg>