<?xml version="1.0" encoding="UTF-8"?>
<svg id="Capa_2" xmlns="http://www.w3.org/2000/svg" viewBox="0 0 419.22 264.85">
  <defs>
    <style>
      .cls-1 {
        fill: #8adfff;
      }

      .cls-2 {
        fill: #1d1d1b;
      }

      .cls-3 {
        fill: #fffaf0;
      }

      .cls-4 {
        fill: #00b155;
      }

      .cls-5 {
        fill: #c4e000;
      }

      .cls-6 {
        fill: #61c5ff;
      }
    </style>
  </defs>
  <g id="Capa_1-2" data-name="Capa_1">
    <g>
      <g>
        <ellipse cx="35.73" cy="255.42" rx="34.72" ry="8.53"/>
        <path d="M35.73,264.85c-17.27,0-35.62-3.3-35.62-9.43s18.35-9.43,35.62-9.43,35.62,3.3,35.62,9.43-18.35,9.43-35.62,9.43ZM35.73,247.79c-19.93,0-33.82,4.02-33.82,7.63s13.89,7.63,33.82,7.63,33.82-4.02,33.82-7.63-13.89-7.63-33.82-7.63Z"/>
      </g>
      <g>
        <ellipse cx="380.27" cy="255.42" rx="34.72" ry="8.53"/>
        <path d="M380.27,264.85c-17.27,0-35.62-3.3-35.62-9.43s18.35-9.43,35.62-9.43,35.62,3.3,35.62,9.43-18.35,9.43-35.62,9.43ZM380.27,247.79c-19.93,0-33.82,4.02-33.82,7.63s13.89,7.63,33.82,7.63,33.82-4.02,33.82-7.63-13.89-7.63-33.82-7.63Z"/>
      </g>
      <g>
        <ellipse cx="216.8" cy="241.02" rx="52.12" ry="11.85"/>
        <path d="M216.8,254.17c-25.9,0-53.42-4.61-53.42-13.15s27.52-13.15,53.42-13.15,53.42,4.61,53.42,13.15-27.52,13.15-53.42,13.15ZM216.8,230.47c-13.83,0-26.81,1.22-36.56,3.44-10.52,2.39-14.25,5.33-14.25,7.11,0,4.41,19.33,10.55,50.82,10.55,13.83,0,26.81-1.22,36.56-3.44,10.52-2.39,14.25-5.33,14.25-7.11,0-4.41-19.33-10.55-50.82-10.55Z"/>
      </g>
      <g>
        <circle class="cls-1" cx="213.16" cy="122.02" r="121.02"/>
        <path class="cls-2" d="M213.16,244.04c-67.28,0-122.02-54.74-122.02-122.02S145.87,0,213.16,0s122.02,54.74,122.02,122.02-54.74,122.02-122.02,122.02ZM213.16,2.01c-66.18,0-120.02,53.84-120.02,120.02s53.84,120.02,120.02,120.02,120.02-53.84,120.02-120.02S279.33,2.01,213.16,2.01Z"/>
      </g>
      <g>
        <path class="cls-1" d="M143.47,204.63c.93-.02,8.51,0,13.7,6.35,5.34,6.55,3.58,14.24,3.37,15.09-18.75,7.38-42.3,14.59-69.99,18.6-13.88,2.01-26.83,2.92-38.59,3.15v-15c10.37-.48,22.54-1.87,35.89-5.08,23.87-5.74,42.59-15.12,55.63-23.11Z"/>
        <path class="cls-2" d="M50.95,248.85v-16.98l.96-.04c12.03-.55,24.04-2.25,35.7-5.05,19.46-4.67,38.08-12.41,55.34-22.99l.23-.14h.27c1.48-.04,9.16.18,14.49,6.72,5.49,6.73,3.94,14.48,3.57,15.96l-.12.5-.48.19c-22.67,8.92-46.3,15.2-70.22,18.66-12.77,1.85-25.8,2.91-38.72,3.16l-1.02.02ZM52.95,233.78v13.02c12.5-.29,25.1-1.33,37.45-3.12,23.59-3.41,46.9-9.58,69.27-18.34.37-1.91,1.15-8.27-3.29-13.72-4.49-5.5-10.83-5.97-12.64-5.98-17.38,10.62-36.11,18.38-55.68,23.09-11.47,2.76-23.28,4.46-35.12,5.06Z"/>
      </g>
      <g>
        <path class="cls-5" d="M165.74,10.82c-1.79,1.84.58,5.04,3.13,5.38,2.55.33,5.08-.82,7.65-.74,6.01.17,9.85,8.55,6.06,13.21-1.75,2.15-4.45,3.25-6.86,4.63-8.49,4.86-14.12,14.37-14.3,24.15-.09,4.57,2.03,10.17,6.58,10.52,4.47.34,7.39-4.65,8.33-9.04.94-4.38,1.33-9.44,4.85-12.22,3.32-2.63,8.41-2,11.77.57,3.36,2.57,5.25,6.64,6.34,10.73,1.72,6.45,1.26,14.39-4.07,18.41-5.41,4.09-13.29,2.36-19.5,5.09-6.81,2.99-10.31,10.94-10.28,18.37s2.92,14.52,5.74,21.39c.68,1.66,1.37,3.48.86,5.2-.86,2.87-4.51,3.8-7.49,3.51-3.36-.33-6.61-1.6-9.31-3.63-1.94-1.46-3.65-3.34-5.93-4.18-4.75-1.74-10.35,2.41-10.85,7.44-.5,5.03,3.34,9.87,8.15,11.42,4.65,1.49,9.67.37,14.54.13,4.87-.24,10.5.88,12.91,5.12,1.85,3.24,1.3,7.49,3.37,10.59,2.06,3.09,6.17,4.14,9.88,3.98,3.71-.16,7.33-1.26,11.04-1.43,5.44-.24,10.74,1.55,15.9,3.32,7.61,2.61,15.97,5.85,19.51,13.08,3.47,7.07,1.16,15.86,4.31,23.08,1.87,4.29,5.51,7.62,7.33,11.93,2.41,5.72.72,11.48-.96,20.71-1.1,6.05-1.89,7.13-2.28,7.61-2.6,3.22-7.92,3.44-18.46,3.76-14.45.43-21.8.61-28.18-1.14-3.23-.89-7.13-2.29-10.66-5.6-2.23-2.1-4.94-4.18-4.71-7.19.33-4.46,5.6-8.02,4.4-12.32-.5-1.79-2.01-3.07-3.45-4.24-3.77-3.06-7.54-6.12-11.31-9.18-2.29-1.86-4.75-4.01-5.11-6.94-.34-2.76,1.29-5.31,2.44-7.84,3-6.59,2.85-14.54-.41-21.01-3.26-6.47-9.56-11.32-16.64-12.83-3.34-.71-6.8-.71-10.12-1.5-12.74-3.04-20.04-16.5-31.47-22.89-7.33-4.1-9.52-4.09-12.13-7.93-3.54-5.19-3.46-11.69-1.57-21.47,3.91-20.19,11.75-34.65,12.83-36.62,11.07-20.04,24.51-31.84,29.11-35.68,8.09-6.75,15.76-11.35,21.59-14.4,2.48-1.1,4.97-2.2,7.45-3.3Z"/>
        <path class="cls-2" d="M165.74,10.82c-1.79,1.84.58,5.04,3.13,5.38.32.04.65.06.97.06,2.15,0,4.28-.81,6.45-.81.08,0,.16,0,.23,0,6.01.17,9.85,8.55,6.06,13.21-1.75,2.15-4.45,3.25-6.86,4.63-8.49,4.86-14.12,14.37-14.3,24.15-.09,4.57,2.03,10.17,6.58,10.52.14.01.29.02.43.02,4.23,0,7-4.81,7.9-9.05.94-4.38,1.33-9.44,4.85-12.22,1.47-1.16,3.29-1.69,5.15-1.69,2.34,0,4.75.83,6.62,2.26,3.36,2.57,5.25,6.64,6.34,10.73,1.72,6.45,1.26,14.39-4.07,18.41-5.41,4.09-13.29,2.36-19.5,5.09-6.81,2.99-10.31,10.94-10.28,18.37.04,7.43,2.92,14.52,5.74,21.39.68,1.66,1.37,3.48.86,5.2-.76,2.54-3.71,3.56-6.44,3.56-.36,0-.71-.02-1.05-.05-3.36-.33-6.61-1.6-9.31-3.63-1.94-1.46-3.65-3.34-5.93-4.18-.75-.28-1.53-.4-2.3-.4-4.1,0-8.13,3.61-8.56,7.84-.5,5.03,3.34,9.87,8.15,11.42,1.78.57,3.62.76,5.48.76,2.99,0,6.06-.48,9.06-.63.41-.02.82-.03,1.23-.03,4.56,0,9.47,1.27,11.68,5.15,1.85,3.24,1.3,7.49,3.37,10.59,1.93,2.89,5.65,3.99,9.16,3.99.24,0,.48,0,.72-.02,3.71-.16,7.33-1.26,11.04-1.43.33-.01.66-.02.99-.02,5.09,0,10.07,1.68,14.91,3.34,7.61,2.61,15.97,5.85,19.51,13.08,3.47,7.07,1.16,15.86,4.31,23.08,1.87,4.29,5.51,7.62,7.33,11.93,2.41,5.72.72,11.48-.96,20.71-1.1,6.05-1.89,7.13-2.28,7.61-2.6,3.22-7.92,3.44-18.46,3.76-5.48.16-9.94.29-13.71.29-6.18,0-10.51-.34-14.47-1.43-3.23-.89-7.13-2.29-10.66-5.6-2.23-2.1-4.94-4.18-4.71-7.19.33-4.46,5.6-8.02,4.4-12.32-.5-1.79-2.01-3.07-3.45-4.24-3.77-3.06-7.54-6.12-11.31-9.18-2.29-1.86-4.75-4.01-5.11-6.94-.34-2.76,1.29-5.31,2.44-7.84,3-6.59,2.85-14.54-.41-21.01-3.26-6.47-9.56-11.32-16.64-12.83-3.34-.71-6.8-.71-10.12-1.5-12.74-3.04-20.04-16.5-31.47-22.89-7.33-4.1-9.52-4.09-12.13-7.93-3.54-5.19-3.46-11.69-1.57-21.47,3.91-20.19,11.75-34.65,12.83-36.62,11.07-20.04,24.51-31.84,29.11-35.68,8.09-6.75,15.76-11.35,21.59-14.4,2.48-1.1,4.97-2.2,7.45-3.3M165.74,8.82c-.27,0-.55.06-.81.17l-5.16,2.29-2.29,1.01s-.08.04-.11.06c-7.82,4.08-15.2,9-21.95,14.63-11.43,9.54-21.94,22.42-29.58,36.25-1.5,2.72-9.19,17.3-13.04,37.21-2.53,13.07-1.08,18.64,1.88,22.98,2.13,3.12,4.16,4.13,7.53,5.8,1.39.69,3.12,1.55,5.28,2.75,4.5,2.52,8.48,6.33,12.33,10.02,5.73,5.49,11.65,11.16,19.66,13.08,1.88.45,3.76.66,5.59.86,1.6.18,3.11.34,4.59.66,6.45,1.37,12.3,5.88,15.27,11.77,2.97,5.89,3.11,13.27.38,19.27-.2.45-.42.9-.64,1.35-1.08,2.22-2.31,4.73-1.96,7.57.44,3.6,3.13,6.05,5.84,8.25l5.66,4.59,5.66,4.59c1.34,1.08,2.47,2.07,2.78,3.22.43,1.56-.61,3.25-1.83,5.2-1.15,1.86-2.46,3.97-2.64,6.43-.27,3.65,2.43,6.13,4.6,8.12.25.23.49.45.74.68,3.88,3.64,8.18,5.16,11.5,6.07,3.89,1.07,8.23,1.51,15.01,1.51,3.71,0,8.05-.12,13.77-.29,10.79-.32,16.74-.5,19.97-4.5.71-.88,1.56-2.34,2.69-8.51.24-1.31.48-2.54.7-3.72,1.42-7.35,2.44-12.66.14-18.13-1.01-2.39-2.49-4.45-3.92-6.45-1.33-1.85-2.58-3.59-3.42-5.51-1.39-3.18-1.61-6.77-1.85-10.58-.26-4.22-.54-8.59-2.5-12.58-3.81-7.77-12.29-11.22-20.66-14.09-4.71-1.62-10.06-3.45-15.56-3.45-.36,0-.72,0-1.08.02-1.98.09-3.9.42-5.76.74-1.82.32-3.55.61-5.28.69-.21,0-.42.01-.63.01-1.63,0-5.63-.3-7.5-3.1-.86-1.28-1.18-2.97-1.52-4.76-.36-1.9-.73-3.87-1.78-5.71-2.27-3.98-7.03-6.17-13.43-6.17-.45,0-.89.01-1.33.03-1.28.06-2.56.18-3.81.3-1.79.17-3.48.33-5.16.33-1.91,0-3.46-.21-4.87-.66-4.18-1.34-7.16-5.43-6.77-9.31.32-3.16,3.44-6.04,6.56-6.04.56,0,1.1.09,1.61.28,1.3.47,2.46,1.46,3.7,2.5.55.46,1.11.94,1.71,1.39,3.01,2.27,6.57,3.66,10.32,4.03.41.04.83.06,1.25.06,4.24,0,7.44-1.91,8.36-4.99.74-2.48-.26-4.92-.92-6.53-2.73-6.65-5.55-13.53-5.59-20.64-.03-6.23,2.77-13.76,9.08-16.53,2.41-1.06,5.16-1.37,8.08-1.71,4.09-.47,8.31-.96,11.82-3.61,6.3-4.76,6.61-13.73,4.8-20.53-1.42-5.34-3.8-9.31-7.06-11.81-2.22-1.7-5.08-2.67-7.84-2.67-2.43,0-4.64.73-6.39,2.12-3.54,2.8-4.4,7.31-5.15,11.28-.13.71-.27,1.41-.41,2.09-.79,3.71-3.09,7.47-5.94,7.47-.09,0-.18,0-.28-.01-3.37-.25-4.79-5.11-4.73-8.48.17-9.11,5.39-17.92,13.29-22.44.51-.29,1.03-.57,1.56-.85,2.08-1.11,4.23-2.26,5.86-4.25,2.24-2.75,2.59-6.74.91-10.4-1.68-3.66-4.92-5.99-8.47-6.09-.1,0-.19,0-.29,0-1.27,0-2.46.22-3.61.44-1.01.19-1.96.37-2.84.37-.25,0-.49-.01-.71-.04-.78-.1-1.7-.85-1.96-1.6-.1-.28-.04-.34,0-.39.67-.69.76-1.76.21-2.55-.39-.55-1.01-.86-1.65-.86h0Z"/>
      </g>
      <g>
        <path class="cls-5" d="M224.65,16.87c-6.94.56-13.7,3.21-19.17,7.52-1.53,1.21-3.01,2.6-3.81,4.38-.8,1.78-.8,4.04.45,5.54,2.21,2.68,6.98,1.83,9.19,4.5,1.93,2.33.8,5.78.82,8.81.02,3.34,1.69,6.64,4.37,8.63,2.68,2,6.32,2.64,9.53,1.7,3.58-1.05,6.43-3.96,8.02-7.34,1.59-3.38,2.02-7.2,1.9-10.93-.27-8.43.28-14.4-3.89-18.75-1.24-1.29-3.49-3.11-7.4-4.06Z"/>
        <path class="cls-2" d="M224.65,16.87c3.9.96,6.16,2.77,7.4,4.06,4.17,4.35,3.63,10.32,3.89,18.75.12,3.73-.31,7.55-1.9,10.93-1.59,3.38-4.44,6.28-8.02,7.34-.97.29-1.99.43-3,.43-2.33,0-4.66-.74-6.53-2.13-2.68-2-4.35-5.29-4.37-8.63-.02-3.03,1.11-6.48-.82-8.81-2.22-2.67-6.98-1.82-9.19-4.5-1.24-1.51-1.25-3.76-.45-5.54.8-1.78,2.27-3.17,3.81-4.38,5.47-4.31,12.23-6.96,19.17-7.52M224.65,14.86c-.05,0-.11,0-.16,0-7.3.59-14.5,3.41-20.25,7.94-1.51,1.19-3.37,2.84-4.4,5.13-1.2,2.66-.91,5.66.73,7.64,1.52,1.84,3.71,2.41,5.64,2.92,1.47.39,2.86.75,3.56,1.59.87,1.05.71,2.79.52,4.8-.08.89-.17,1.81-.17,2.74.02,3.95,2.01,7.87,5.18,10.23,2.19,1.63,4.93,2.52,7.72,2.52,1.22,0,2.42-.17,3.57-.51,3.93-1.16,7.31-4.22,9.27-8.41,1.55-3.31,2.24-7.19,2.09-11.85-.04-1.16-.06-2.28-.08-3.35-.13-6.94-.24-12.41-4.37-16.73-2.14-2.23-4.95-3.79-8.37-4.62-.16-.04-.32-.06-.48-.06h0Z"/>
      </g>
      <g>
        <path class="cls-5" d="M257.1,11.12c-4.73,4.76-8.44,10.53-10.82,16.81-1.33,3.52-1.77,8.41,1.55,10.19,3.98,2.13,8.69-2.69,13.08-1.66,3.73.88,5.24,5.6,4.5,9.36s-3,7.04-4.15,10.7c-1.15,3.66-.8,8.36,2.46,10.38.86.53,1.98.82,2.88.36.74-.37,1.16-1.15,1.54-1.88,1.91-3.71,3.66-7.55,6.26-10.8,2.61-3.26,6.24-5.94,10.39-6.37,6.97-.73,13.41,5.55,14.28,12.51.31,2.46,0,5.11-1.46,7.11-2.46,3.35-7.18,3.8-10.97,5.52-5.86,2.65-9.67,8.62-11.3,14.84-1.63,6.22-1.37,12.75-1.11,19.18.17,4.02.35,8.15,1.95,11.85.44,1.02,1.04,2.04,2.02,2.57,1.21.65,2.69.37,4.02.03,4.77-1.21,9.39-2.96,13.76-5.22,2.15-1.11,4.37-2.38,6.79-2.31,5.26.13,8.24,6.26,8.59,11.51.85,12.67-6.32,25.36-3.28,37.7,1.01,4.12,3.17,7.95,6.16,10.96.56.57,1.18,1.12,1.95,1.34,2.38.69,4.29-1.95,5.36-4.19,3.27-6.84,6.24-12.39,6.78-14.19,1.63-5.47,2.54-8.52,3.57-14.54.58-3.39,2.41-14.78,2.18-25.45-.59-26.68-14.1-50.23-18.76-57.77-4.22-6.82-12.62-20.12-28.6-32.32-11.19-8.54-21.96-13.4-29.62-16.19Z"/>
        <path class="cls-2" d="M257.1,11.12c7.66,2.79,18.44,7.65,29.62,16.19,15.97,12.2,24.38,25.49,28.6,32.32,4.67,7.54,18.18,31.09,18.76,57.77.23,10.67-1.6,22.06-2.18,25.45-1.03,6.02-1.94,9.07-3.57,14.54-.54,1.8-3.51,7.35-6.78,14.19-.95,1.99-2.57,4.3-4.59,4.3-.25,0-.51-.04-.77-.11-.77-.22-1.39-.78-1.95-1.34-2.99-3.01-5.14-6.84-6.16-10.96-3.04-12.33,4.13-25.02,3.28-37.7-.35-5.25-3.33-11.37-8.59-11.51-.06,0-.12,0-.17,0-2.35,0-4.52,1.23-6.62,2.32-4.37,2.26-9,4.01-13.76,5.22-.74.19-1.54.36-2.3.36-.6,0-1.18-.11-1.72-.39-.98-.52-1.58-1.55-2.02-2.57-1.6-3.69-1.79-7.82-1.95-11.85-.26-6.42-.52-12.96,1.11-19.18,1.63-6.22,5.44-12.19,11.3-14.84,3.79-1.71,8.5-2.17,10.97-5.52,1.47-2,1.77-4.65,1.46-7.11-.83-6.59-6.64-12.57-13.17-12.57-.37,0-.74.02-1.11.06-4.15.43-7.78,3.11-10.39,6.37s-4.36,7.1-6.26,10.8c-.38.73-.81,1.51-1.54,1.88-.31.16-.65.23-1,.23-.65,0-1.32-.24-1.88-.59-3.26-2.02-3.61-6.72-2.46-10.38,1.15-3.66,3.4-6.94,4.15-10.7.75-3.76-.76-8.48-4.5-9.36-.43-.1-.87-.15-1.31-.15-3.19,0-6.48,2.36-9.5,2.36-.78,0-1.54-.16-2.27-.55-3.32-1.77-2.88-6.67-1.55-10.19,2.37-6.28,6.09-12.05,10.82-16.81M257.1,9.11c-.53,0-1.04.21-1.42.59-4.91,4.94-8.81,11-11.27,17.51-1.65,4.35-1.98,10.28,2.48,12.67.97.52,2.06.79,3.22.79,1.85,0,3.61-.65,5.32-1.28,1.51-.55,2.93-1.08,4.18-1.08.3,0,.58.03.85.09,2.47.58,3.55,4.16,2.99,7.01-.38,1.93-1.24,3.77-2.14,5.72-.7,1.52-1.43,3.09-1.95,4.76-1.93,6.14.27,10.8,3.32,12.68.66.41,1.7.89,2.94.89.68,0,1.33-.15,1.91-.45,1.36-.69,2.02-1.98,2.42-2.76.31-.6.61-1.2.92-1.8,1.58-3.13,3.07-6.09,5.13-8.66,1.53-1.91,4.73-5.18,9.03-5.63.3-.03.6-.05.9-.05,5.33,0,10.45,4.95,11.18,10.81.17,1.34.25,3.86-1.09,5.67-1.34,1.82-3.8,2.63-6.4,3.48-1.25.41-2.54.84-3.78,1.39-5.9,2.67-10.43,8.56-12.41,16.16-1.72,6.56-1.44,13.27-1.17,19.77.16,3.97.35,8.48,2.12,12.56.48,1.11,1.3,2.68,2.91,3.54.78.41,1.67.62,2.66.62s1.97-.21,2.79-.42c4.91-1.24,9.69-3.05,14.19-5.38l.5-.26c1.81-.94,3.52-1.83,5.2-1.83h.12c4.14.11,6.38,5.7,6.64,9.64.36,5.32-.82,10.86-1.96,16.22-1.51,7.12-3.08,14.49-1.27,21.82,1.11,4.5,3.42,8.61,6.68,11.9.72.72,1.61,1.51,2.81,1.86.44.13.89.19,1.34.19,2.45,0,4.72-1.93,6.4-5.45,1.23-2.57,2.4-4.94,3.44-7.03,1.84-3.71,3.06-6.17,3.45-7.45,1.66-5.57,2.57-8.63,3.63-14.77.74-4.31,2.43-15.45,2.2-25.83-.58-26.19-13.52-49.83-19.06-58.78-3.74-6.04-12.49-20.18-29.09-32.85-9.13-6.97-19.28-12.52-30.15-16.48-.22-.08-.46-.12-.69-.12h0Z"/>
      </g>
      <g>
        <path class="cls-3" d="M49.08,218.97c.92-.28,1.42.22,3.72,1.63,2.73,1.68,3.44,1.88,3.44,2.7,0,.91-.86,1.96-1.74,2.29-.76.28-1.3-.07-3.51-1.56-3.27-2.21-3.79-2.6-3.69-3.28.11-.8,1.02-1.55,1.78-1.78Z"/>
        <path class="cls-2" d="M54.04,226.7c-.91,0-1.83-.62-3.61-1.82-3.49-2.35-4.32-2.91-4.13-4.26.18-1.25,1.41-2.27,2.48-2.6h0c1.2-.37,1.96.11,3.48,1.07.3.19.65.41,1.06.66.57.35,1.05.63,1.45.87,1.69,1,2.46,1.46,2.46,2.68,0,1.29-1.07,2.74-2.39,3.23-.28.11-.54.16-.81.16ZM48.3,220.84c.31.38,1.8,1.39,3.25,2.37,1.82,1.22,2.35,1.54,2.6,1.45.52-.19,1.08-.9,1.08-1.35-.09-.14-.77-.54-1.48-.96-.41-.24-.9-.53-1.48-.89-.41-.25-.77-.48-1.08-.67-1.33-.84-1.54-.94-1.82-.85h0c-.49.15-.98.61-1.07.91Z"/>
      </g>
      <g>
        <path class="cls-3" d="M45.22,222.08c.94-.21,1.4.33,3.58,1.93,2.59,1.89,3.28,2.15,3.21,2.97-.07.9-1.01,1.89-1.91,2.14-.78.22-1.29-.17-3.38-1.84-3.08-2.46-3.57-2.9-3.42-3.57.18-.79,1.14-1.46,1.92-1.63Z"/>
        <path class="cls-2" d="M49.71,230.18c-.97,0-1.84-.69-3.62-2.12-3.29-2.63-4.07-3.25-3.77-4.57.28-1.23,1.59-2.15,2.68-2.39h0c1.22-.27,1.95.27,3.39,1.35.29.22.62.46,1,.74.54.39.99.71,1.38.98,1.61,1.14,2.34,1.66,2.24,2.88-.1,1.29-1.29,2.65-2.64,3.03-.23.06-.45.1-.66.1ZM44.3,223.88c.27.41,1.68,1.53,3.05,2.62,1.71,1.37,2.21,1.73,2.48,1.65.53-.15,1.15-.81,1.18-1.26-.08-.15-.72-.6-1.4-1.08-.39-.28-.85-.6-1.4-1-.39-.29-.73-.54-1.02-.76-1.27-.95-1.46-1.06-1.75-1-.5.11-1.03.53-1.14.82Z"/>
      </g>
      <g>
        <path class="cls-3" d="M52.29,169.84c-2.22-2.11-5.22-2.2-11.22-2.37-5.67-.16-10.75-.4-14.96,2.44-4.08,2.74-5.53,7.08-7.19,13.03-4,14.36-5.8,25.85-6.36,29.3-4.08,25.23-8.32,32.16-3.5,37.08,2.87,2.93,7.77,3.93,12.75,4.95,2.17.44,8.33,1.7,9.54-.47.68-1.23-.63-2.59-.63-6.47,0-5.34,3-5.82,4.41-11.46,2.21-8.84-1.26-10.29.88-15.87,2.42-6.3,7.04-4.99,12.16-12.52,2.12-3.12,3.46-7.56,4.94-17.45,1.69-11.32,2.54-16.98-.81-20.18Z"/>
        <path class="cls-2" d="M27.75,256.04c-1.85,0-4.03-.36-6.14-.79-5.01-1.02-10.18-2.08-13.27-5.23-3.65-3.73-2.64-8.47-.43-18.87,1.05-4.91,2.35-11.03,3.65-19.07l.05-.34c.6-3.73,2.43-15.09,6.33-29.07,1.71-6.12,3.25-10.67,7.59-13.59,4.36-2.93,9.57-2.78,15.08-2.62h.47c6.25.19,9.39.28,11.88,2.66h0c3.73,3.55,2.86,9.4,1.11,21.05-1.47,9.82-2.8,14.49-5.1,17.87-2.59,3.8-5.12,5.49-7.16,6.85-2.1,1.4-3.76,2.51-4.9,5.46-.93,2.42-.7,3.97-.4,5.92.34,2.24.76,5.02-.44,9.82-.67,2.66-1.66,4.24-2.54,5.63-1.03,1.62-1.83,2.91-1.83,5.58,0,1.81.3,3.01.54,3.97.27,1.08.5,2.02-.03,2.99-.73,1.31-2.4,1.76-4.47,1.76ZM36.89,168.39c-3.87,0-7.29.38-10.23,2.35-3.78,2.54-5.14,6.58-6.78,12.46-3.87,13.87-5.68,25.15-6.28,28.85l-.05.34c-1.31,8.09-2.62,14.24-3.67,19.17-2.12,9.96-3,14.08-.1,17.04,2.66,2.71,7.31,3.66,12.23,4.67,6.88,1.4,8.21.48,8.46.02.14-.25.07-.62-.16-1.53-.25-1.01-.6-2.4-.6-4.46,0-3.26,1.04-4.91,2.15-6.65.84-1.33,1.71-2.7,2.29-5.05,1.1-4.42.73-6.87.41-9.04-.31-2.07-.61-4.03.51-6.94,1.36-3.55,3.45-4.94,5.66-6.42,1.99-1.33,4.25-2.83,6.61-6.31,2.08-3.06,3.37-7.67,4.77-17.04,1.64-10.96,2.46-16.47-.51-19.3h0c-1.94-1.85-4.82-1.93-10.56-2.09h-.48c-1.27-.05-2.49-.09-3.68-.09Z"/>
      </g>
      <g>
        <path class="cls-3" d="M51.95,231.21c2.25-1.17,2.99.13,10.45-1.14,3.26-.55,4.79-1.09,5.78-.16,1.14,1.06.02,2.57.31,7.03.18,2.66.8,5.58,1.25,7.66.63,2.91.95,3.64.47,4.38-.98,1.49-3.89.94-7.34.63-10.57-.97-12.49,1.44-14.69-.63-3.91-3.66-1.73-14.9,3.77-17.77Z"/>
        <path class="cls-2" d="M67.35,250.98c-.98,0-2.08-.11-3.23-.23-.44-.04-.89-.09-1.35-.13-5.07-.47-8.13-.14-10.15.08-2.21.24-3.67.39-5.13-.97-1.87-1.75-2.67-5.09-2.14-8.93.65-4.75,3.06-8.86,6.14-10.46,1.31-.68,2.23-.67,3.62-.65,1.34.02,3.37.05,7.13-.59.59-.1,1.12-.2,1.6-.29,2.32-.43,3.85-.72,5.03.39,1.01.94.89,2.07.74,3.5-.11,1.04-.24,2.33-.11,4.2.17,2.59.78,5.43,1.23,7.51.12.58.24,1.07.33,1.49.42,1.86.62,2.7,0,3.65-.74,1.12-2.06,1.44-3.69,1.44ZM57.89,248.37c1.43,0,3.11.07,5.07.25.47.04.93.09,1.37.14,2.23.23,4.53.47,5.04-.31.14-.21.07-.61-.27-2.1-.1-.43-.21-.93-.34-1.51-.46-2.14-1.09-5.07-1.27-7.8-.13-2.03.01-3.48.12-4.53.13-1.25.13-1.6-.12-1.83-.43-.4-1.32-.25-3.3.12-.49.09-1.03.19-1.63.29-3.94.67-6.08.64-7.49.61-1.27-.02-1.79-.03-2.66.42h0c-2.48,1.29-4.52,4.89-5.08,8.96-.43,3.15.15,5.91,1.53,7.19.76.71,1.36.68,3.54.44,1.32-.14,3.06-.33,5.48-.33Z"/>
      </g>
      <path class="cls-2" d="M64.41,247.23c-.87-2.37-1.41-4.85-1.61-7.37-.21-2.58-.06-5.18.44-7.72l1.93.38c-.47,2.36-.61,4.78-.41,7.18.19,2.34.69,4.65,1.5,6.85l-1.85.68Z"/>
      <rect class="cls-2" x="51.95" y="234.38" width="8.58" height="1.97" transform="translate(-3.84 .95) rotate(-.94)"/>
      <rect class="cls-2" x="50.72" y="238.71" width="10.18" height="1.97"/>
      <rect class="cls-2" x="51.39" y="243.36" width="9.84" height="1.97"/>
      <g>
        <path class="cls-4" d="M24.63,253.67c1.03,2.46,8.29,1.82,12.63.8,3.98-.93,7.97-1.86,11.03-5.41,5.17-6,4.92-16.25.6-20.25-2.09-1.94-4.82-2.35-4.81-3.81,0-1.47,2.83-2.67,5.29-3.46,2.52-1.07,9.19-4.29,13.91-11.8,1.25-1.99,5.63-9.21,4.45-19.02-.24-2.02-1.63-11.73-9.82-18.24-6.76-5.38-15.9-6.79-16.84-5.01-.83,1.57,5.63,3.92,8.82,11.03,5.26,11.72-3.01,26-3.41,26.66-5.29,8.86-10.31,7.85-12.43,15.64-1.49,5.47.64,7.28-1.6,15.44-.93,3.37-1.81,6.58-4.01,10.42-2.46,4.3-4.4,5.61-3.81,7.02Z"/>
        <path class="cls-2" d="M29.84,256.37c-2.75,0-5.36-.52-6.11-2.32-.58-1.38.26-2.54,1.42-4.16.68-.94,1.52-2.11,2.44-3.73,2.14-3.74,3-6.88,3.91-10.2,1.2-4.35,1.11-6.75,1.03-9.08-.07-1.93-.13-3.75.58-6.36,1.22-4.48,3.36-6.26,5.84-8.33,2.03-1.69,4.33-3.6,6.69-7.56.09-.14,8.46-14.39,3.35-25.75-1.76-3.93-4.64-6.38-6.54-8.01-1.66-1.41-2.96-2.53-2.25-3.88.3-.56.89-.94,1.76-1.12,2.99-.63,10.61,1.09,16.57,5.82,7.9,6.29,9.76,15.31,10.19,18.9.81,6.78-.78,13.57-4.6,19.66-4.54,7.23-10.94,10.74-14.36,12.18-4.63,1.5-4.69,2.55-4.69,2.56,0,.25.93.76,1.55,1.1.88.48,1.97,1.07,2.94,1.98,4.53,4.2,5.18,14.99-.52,21.61-3.27,3.8-7.48,4.78-11.55,5.73-.28.06-4.08.94-7.65.94ZM42.09,167.88c.29.37,1.03,1,1.64,1.52,2.04,1.74,5.12,4.37,7.06,8.7,5.52,12.29-3.09,26.95-3.46,27.57-2.53,4.24-4.97,6.27-7.12,8.06-2.41,2-4.14,3.45-5.2,7.33-.63,2.31-.57,3.92-.51,5.77.08,2.36.18,5.03-1.1,9.67-.95,3.44-1.84,6.7-4.1,10.65-.97,1.7-1.85,2.92-2.55,3.9-.87,1.21-1.35,1.91-1.21,2.25h0c.57,1.36,6.16,1.47,11.5.22,3.94-.92,7.65-1.79,10.5-5.1,4.95-5.74,4.5-15.34.68-18.88-.8-.74-1.73-1.25-2.55-1.69-1.33-.73-2.59-1.41-2.58-2.84.01-1.71,1.85-3.06,5.98-4.39,3.12-1.33,9.12-4.61,13.37-11.38,3.58-5.7,5.07-12.06,4.31-18.38-.31-2.61-1.92-11.59-9.46-17.59-6.16-4.9-13.68-6.03-15.21-5.38Z"/>
      </g>
      <g>
        <path class="cls-4" d="M38.95,235.33c0-1.25.15-3.97,1.85-6.75,1.08-1.77,2.38-2.91,3.27-3.58"/>
        <path class="cls-2" d="M37.97,235.34c0-1.81.33-4.54,1.99-7.27.91-1.5,2.1-2.8,3.53-3.86l1.17,1.58c-1.22.91-2.24,2.02-3.02,3.3-1.42,2.34-1.71,4.68-1.71,6.23h-1.97Z"/>
      </g>
      <g>
        <path class="cls-3" d="M36.07,170.02c-5.9-2.86-12.75.87-14.28,1.76-7.05,4.12-9.94,11.65-12.97,23.42-6.33,24.57-12.51,48.61-2.65,55.31,3.06,2.08,8.79,3.25,11.74.95,1.11-.86,2.08-2.81,3.53-6.88,3.24-9.14,3.55-8.01,4.41-11.46,2.21-8.84-1.26-10.29.88-15.87,2.42-6.3,7.04-4.99,12.16-12.52,5.15-7.57,5.01-15.56,4.94-17.45-.11-2.68-.57-13.79-7.76-17.28Z"/>
        <path class="cls-2" d="M13.57,253.74c-2.92,0-6.03-1.08-7.96-2.39-10.45-7.1-4.29-31.04,2.24-56.39,3.18-12.36,6.27-19.85,13.44-24.04,2.01-1.18,9.06-4.78,15.22-1.8h0c3.53,1.71,7.83,6.24,8.32,18.14.12,2.99-.13,10.74-5.11,18.06-2.59,3.8-5.12,5.49-7.16,6.85-2.1,1.4-3.76,2.51-4.9,5.46-.93,2.42-.7,3.97-.4,5.92.34,2.24.76,5.02-.44,9.82-.42,1.7-.74,2.39-1.26,3.52-.58,1.27-1.46,3.2-3.18,8.03-1.57,4.42-2.58,6.34-3.86,7.33-1.36,1.06-3.12,1.48-4.96,1.48ZM31.24,169.96c-3.94,0-7.63,1.92-8.94,2.68-6.6,3.85-9.39,10.7-12.51,22.8-6.07,23.56-12.34,47.93-3.05,54.23,2.98,2.03,8.13,2.88,10.56.99.9-.7,1.83-2.56,3.2-6.42,1.74-4.91,2.65-6.89,3.24-8.19.5-1.1.76-1.65,1.14-3.17,1.1-4.42.73-6.87.41-9.04-.31-2.07-.61-4.03.51-6.94,1.36-3.55,3.45-4.94,5.66-6.42,1.99-1.33,4.25-2.83,6.61-6.31,4.64-6.82,4.88-14.05,4.76-16.85-.45-10.9-4.16-14.95-7.19-16.42h0c-1.43-.69-2.93-.96-4.4-.96Z"/>
      </g>
      <g>
        <path class="cls-1" d="M275.76,204.63c-.93-.02-8.51,0-13.7,6.35-5.34,6.55-3.58,14.24-3.37,15.09,18.75,7.38,42.3,14.59,69.99,18.6,13.88,2.01,26.83,2.92,38.59,3.15v-15c-10.37-.48-22.54-1.87-35.89-5.08-23.87-5.74-42.59-15.12-55.63-23.11Z"/>
        <path class="cls-2" d="M368.27,248.85l-1.02-.02c-12.92-.25-25.95-1.32-38.72-3.16-23.92-3.46-47.55-9.74-70.22-18.66l-.48-.19-.12-.5c-.37-1.48-1.92-9.23,3.57-15.96,5.33-6.54,13-6.75,14.49-6.72h.27s.23.15.23.15c17.26,10.58,35.88,18.32,55.34,22.99,11.66,2.8,23.67,4.5,35.7,5.05l.96.04v16.98ZM259.55,225.34c22.38,8.76,45.68,14.93,69.27,18.34,12.35,1.79,24.94,2.84,37.45,3.12v-13.02c-11.84-.6-23.65-2.3-35.12-5.06-19.57-4.7-38.3-12.47-55.68-23.09-1.8.02-8.15.48-12.64,5.98-4.44,5.44-3.65,11.8-3.29,13.72Z"/>
      </g>
      <g>
        <path class="cls-3" d="M370.15,218.97c-.92-.28-1.42.22-3.72,1.63-2.73,1.68-3.44,1.88-3.44,2.7,0,.91.86,1.96,1.74,2.29.76.28,1.3-.07,3.51-1.56,3.27-2.21,3.79-2.6,3.69-3.28-.11-.8-1.02-1.55-1.78-1.78Z"/>
        <path class="cls-2" d="M365.18,226.7c-.26,0-.53-.05-.81-.16-1.32-.49-2.39-1.94-2.39-3.23,0-1.22.77-1.68,2.46-2.68.4-.24.88-.52,1.45-.87.41-.25.75-.47,1.06-.66,1.52-.96,2.29-1.44,3.48-1.07h0c1.07.33,2.3,1.35,2.48,2.6.19,1.34-.64,1.9-4.12,4.25-1.79,1.21-2.71,1.83-3.62,1.83ZM369.7,219.91c-.24,0-.58.19-1.67.88-.31.2-.67.42-1.08.67-.58.36-1.07.65-1.48.89-.71.42-1.39.82-1.5.99.02.43.58,1.13,1.1,1.32.27.1.79-.22,2.61-1.45,1.45-.98,2.94-1.98,3.25-2.37-.1-.3-.58-.76-1.07-.91h0c-.05-.02-.1-.03-.16-.03Z"/>
      </g>
      <g>
        <path class="cls-3" d="M374,222.08c-.94-.21-1.4.33-3.58,1.93-2.59,1.89-3.28,2.15-3.21,2.97.07.9,1.01,1.89,1.91,2.14.78.22,1.29-.17,3.38-1.84,3.08-2.46,3.57-2.9,3.42-3.57-.18-.79-1.14-1.46-1.92-1.63Z"/>
        <path class="cls-2" d="M369.51,230.18c-.21,0-.42-.03-.66-.1-1.35-.38-2.54-1.74-2.64-3.03-.1-1.22.64-1.74,2.25-2.88.38-.27.84-.59,1.37-.98.38-.28.71-.53,1-.74,1.44-1.08,2.17-1.63,3.39-1.35h0c1.1.24,2.41,1.16,2.68,2.39.3,1.32-.48,1.95-3.77,4.57-1.78,1.42-2.65,2.12-3.62,2.12ZM373.66,223.04c-.24,0-.54.2-1.63,1.01-.29.22-.63.47-1.02.76-.55.4-1.01.73-1.4,1-.68.48-1.32.93-1.42,1.11.05.42.67,1.08,1.2,1.23.27.07.77-.29,2.48-1.65,1.36-1.09,2.77-2.21,3.05-2.62-.12-.29-.64-.71-1.14-.82-.04,0-.08-.01-.12-.01Z"/>
      </g>
      <g>
        <path class="cls-3" d="M366.93,169.84c2.22-2.11,5.22-2.2,11.22-2.37,5.67-.16,10.75-.4,14.96,2.44,4.08,2.74,5.53,7.08,7.19,13.03,4,14.36,5.8,25.85,6.36,29.3,4.08,25.23,8.32,32.16,3.5,37.08-2.87,2.93-7.77,3.93-12.75,4.95-2.17.44-8.33,1.7-9.54-.47-.68-1.23.63-2.59.63-6.47,0-5.34-3-5.82-4.41-11.46-2.21-8.84,1.26-10.29-.88-15.87-2.42-6.3-7.04-4.99-12.16-12.52-2.12-3.12-3.46-7.56-4.94-17.45-1.69-11.32-2.54-16.98.81-20.18Z"/>
        <path class="cls-2" d="M391.47,256.04c-2.07,0-3.74-.45-4.47-1.76-.54-.96-.3-1.9-.03-2.99.24-.96.54-2.16.54-3.97,0-2.68-.81-3.96-1.83-5.58-.88-1.39-1.88-2.97-2.54-5.63-1.2-4.8-.78-7.59-.44-9.83.29-1.96.53-3.5-.4-5.92-1.13-2.96-2.79-4.06-4.9-5.46-2.04-1.36-4.57-3.05-7.16-6.85-2.3-3.37-3.63-8.05-5.1-17.87-1.74-11.65-2.62-17.5,1.12-21.05,2.5-2.38,5.63-2.47,11.88-2.65h.47c5.51-.17,10.71-.33,15.08,2.61,4.34,2.92,5.89,7.47,7.59,13.59,3.89,13.97,5.73,25.33,6.33,29.06l.06.35c1.3,8.04,2.61,14.16,3.65,19.08,2.21,10.39,3.23,15.13-.43,18.86-3.09,3.15-8.26,4.21-13.26,5.23-2.12.43-4.29.79-6.15.79ZM382.33,168.39c-1.18,0-2.41.04-3.68.07h-.47c-5.74.18-8.62.26-10.56,2.11h0c-2.98,2.83-2.15,8.34-.51,19.3,1.4,9.37,2.69,13.98,4.77,17.04,2.37,3.48,4.62,4.98,6.61,6.31,2.21,1.47,4.29,2.86,5.66,6.42,1.12,2.92.82,4.87.51,6.94-.33,2.17-.7,4.62.41,9.04.59,2.35,1.45,3.72,2.29,5.05,1.1,1.75,2.14,3.4,2.14,6.65,0,2.05-.34,3.44-.6,4.46-.23.91-.3,1.28-.16,1.53.26.46,1.59,1.38,8.46-.02,4.93-1.01,9.58-1.95,12.23-4.67,2.9-2.96,2.02-7.08-.1-17.04-1.05-4.94-2.36-11.08-3.67-19.17l-.06-.35c-.6-3.71-2.42-14.98-6.28-28.84-1.64-5.88-3-9.92-6.78-12.46-2.93-1.97-6.36-2.35-10.22-2.35Z"/>
      </g>
      <g>
        <path class="cls-3" d="M367.27,231.21c-2.25-1.17-2.99.13-10.45-1.14-3.26-.55-4.79-1.09-5.78-.16-1.14,1.06-.02,2.57-.31,7.03-.18,2.66-.8,5.58-1.25,7.66-.63,2.91-.95,3.64-.47,4.38.98,1.49,3.89.94,7.34.63,10.57-.97,12.49,1.44,14.69-.63,3.91-3.66,1.73-14.9-3.77-17.77Z"/>
        <path class="cls-2" d="M351.87,250.98c-1.64,0-2.96-.31-3.69-1.44-.62-.95-.43-1.8,0-3.66.1-.42.21-.91.33-1.48.45-2.08,1.06-4.93,1.23-7.51.12-1.87,0-3.16-.12-4.2-.15-1.43-.26-2.56.74-3.5,1.19-1.11,2.72-.82,5.04-.39.48.09,1.01.19,1.6.29,3.76.64,5.79.61,7.13.59,1.38-.03,2.3-.04,3.62.65h0c3.08,1.6,5.49,5.71,6.14,10.46.53,3.84-.27,7.18-2.14,8.93-1.46,1.37-2.92,1.21-5.13.97-2.02-.22-5.08-.55-10.15-.08-.46.04-.91.09-1.35.13-1.15.12-2.25.23-3.23.23ZM352.55,230.42c-.39,0-.64.07-.82.24-.25.23-.25.58-.12,1.83.11,1.05.26,2.5.12,4.53-.18,2.73-.81,5.66-1.27,7.8-.13.58-.24,1.08-.34,1.51-.34,1.5-.41,1.9-.27,2.11.51.78,2.82.54,5.04.31.44-.05.9-.09,1.37-.14,5.27-.49,8.45-.14,10.55.08,2.18.24,2.79.27,3.54-.44,1.37-1.29,1.96-4.05,1.53-7.2-.56-4.06-2.6-7.66-5.08-8.96h0c-.86-.45-1.38-.44-2.66-.42-1.41.03-3.55.05-7.49-.61-.6-.1-1.14-.2-1.63-.29-1.15-.21-1.94-.35-2.48-.35Z"/>
      </g>
      <path class="cls-2" d="M354.81,247.23l-1.85-.68c.81-2.21,1.31-4.51,1.5-6.85.2-2.4.06-4.82-.41-7.18l1.93-.38c.5,2.54.65,5.14.44,7.72-.2,2.51-.75,4.99-1.61,7.37Z"/>
      <rect class="cls-2" x="362" y="231.08" width="1.97" height="8.58" transform="translate(121.66 594.41) rotate(-89.05)"/>
      <rect class="cls-2" x="358.32" y="238.71" width="10.18" height="1.97"/>
      <rect class="cls-2" x="357.99" y="243.36" width="9.84" height="1.97"/>
      <g>
        <path class="cls-4" d="M394.59,253.67c-1.03,2.46-8.29,1.82-12.63.8-3.98-.93-7.97-1.86-11.03-5.41-5.17-6-4.92-16.25-.6-20.25,2.09-1.94,4.82-2.35,4.81-3.81,0-1.47-2.83-2.67-5.29-3.46-2.52-1.07-9.19-4.29-13.91-11.8-1.25-1.99-5.63-9.21-4.45-19.02.24-2.02,1.63-11.73,9.82-18.24,6.76-5.38,15.9-6.79,16.84-5.01.83,1.57-5.63,3.92-8.82,11.03-5.26,11.72,3.01,26,3.41,26.66,5.29,8.86,10.31,7.85,12.43,15.64,1.49,5.47-.64,7.28,1.6,15.44.93,3.37,1.81,6.58,4.01,10.42,2.46,4.3,4.4,5.61,3.81,7.02Z"/>
        <path class="cls-2" d="M389.39,256.37c-3.57,0-7.37-.87-7.65-.94-4.07-.95-8.28-1.93-11.55-5.73-5.7-6.62-5.05-17.42-.52-21.61.98-.9,2.07-1.5,2.94-1.98.62-.34,1.55-.85,1.55-1.1,0-.01-.06-1.06-4.61-2.53-3.5-1.48-9.9-4.98-14.44-12.21-3.82-6.08-5.41-12.88-4.6-19.66.43-3.59,2.29-12.61,10.19-18.9,5.95-4.73,13.57-6.45,16.56-5.82.87.18,1.46.56,1.76,1.12.72,1.35-.59,2.47-2.25,3.88-1.9,1.62-4.78,4.08-6.54,8.01-5.1,11.36,3.27,25.61,3.35,25.75,2.36,3.95,4.66,5.87,6.69,7.56,2.48,2.06,4.62,3.84,5.84,8.33.71,2.6.64,4.43.57,6.36-.08,2.33-.17,4.73,1.03,9.08.91,3.32,1.78,6.46,3.92,10.2.92,1.61,1.76,2.79,2.44,3.73,1.16,1.62,2,2.78,1.42,4.16h0c-.75,1.8-3.36,2.32-6.11,2.32ZM375.95,167.68c-2.72,0-8.85,1.46-14.03,5.58-7.53,5.99-9.14,14.98-9.46,17.59-.76,6.33.73,12.68,4.31,18.38,4.25,6.77,10.26,10.06,13.46,11.42,4.04,1.3,5.88,2.65,5.89,4.36.01,1.43-1.25,2.12-2.58,2.84-.82.45-1.75.96-2.55,1.69-3.82,3.54-4.27,13.14.68,18.88,2.85,3.31,6.57,4.18,10.5,5.1,5.34,1.25,10.93,1.14,11.5-.22h0c.14-.34-.34-1.04-1.21-2.25-.7-.98-1.58-2.2-2.55-3.9-2.26-3.96-3.16-7.21-4.1-10.65-1.28-4.64-1.18-7.31-1.1-9.67.07-1.85.12-3.46-.51-5.77-1.06-3.88-2.79-5.33-5.2-7.33-2.15-1.79-4.59-3.82-7.12-8.06-.37-.62-8.98-15.29-3.46-27.57,1.95-4.33,5.02-6.96,7.06-8.7.63-.53,1.38-1.18,1.66-1.54-.23-.11-.65-.17-1.2-.17Z"/>
      </g>
      <g>
        <path class="cls-4" d="M380.27,235.33c0-1.25-.15-3.97-1.85-6.75-1.08-1.77-2.38-2.91-3.27-3.58"/>
        <path class="cls-2" d="M381.25,235.34h-1.97c0-1.56-.28-3.9-1.71-6.24-.78-1.28-1.8-2.39-3.02-3.3l1.17-1.58c1.43,1.06,2.62,2.36,3.53,3.85,1.67,2.73,2,5.46,1.99,7.27Z"/>
      </g>
      <g>
        <path class="cls-3" d="M383.15,170.02c5.9-2.86,12.75.87,14.28,1.76,7.05,4.12,9.94,11.65,12.97,23.42,6.33,24.57,12.51,48.61,2.65,55.31-3.06,2.08-8.79,3.25-11.74.95-1.11-.86-2.08-2.81-3.53-6.88-3.24-9.14-3.55-8.01-4.41-11.46-2.21-8.84,1.26-10.29-.88-15.87-2.42-6.3-7.04-4.99-12.16-12.52-5.15-7.57-5.01-15.56-4.94-17.45.11-2.68.57-13.79,7.76-17.28Z"/>
        <path class="cls-2" d="M405.65,253.74c-1.83,0-3.6-.42-4.96-1.48-1.28-.99-2.29-2.91-3.86-7.33-1.71-4.83-2.59-6.75-3.18-8.03-.52-1.14-.83-1.82-1.26-3.52-1.2-4.8-.78-7.59-.44-9.83.29-1.96.53-3.5-.4-5.92-1.13-2.96-2.79-4.06-4.9-5.46-2.04-1.36-4.57-3.05-7.16-6.85-4.98-7.32-5.23-15.07-5.11-18.06.49-11.9,4.79-16.43,8.32-18.14,6.16-2.98,13.21.62,15.22,1.8,7.17,4.19,10.26,11.68,13.44,24.04,6.53,25.35,12.69,49.29,2.24,56.39-1.94,1.32-5.04,2.39-7.96,2.39ZM387.99,169.96c-1.47,0-2.97.27-4.4.96h0c-3.03,1.47-6.74,5.51-7.19,16.42-.12,2.79.12,10.02,4.76,16.85,2.37,3.48,4.62,4.98,6.61,6.31,2.21,1.47,4.29,2.86,5.66,6.42,1.12,2.92.82,4.87.51,6.94-.33,2.17-.7,4.62.41,9.04.38,1.52.63,2.08,1.14,3.18.6,1.31,1.5,3.28,3.24,8.19,1.37,3.86,2.3,5.72,3.2,6.42,2.43,1.89,7.58,1.04,10.56-.99,9.29-6.3,3.01-30.66-3.05-54.22-3.12-12.11-5.91-18.96-12.51-22.81-1.31-.76-5-2.68-8.94-2.68Z"/>
      </g>
      <g>
        <path class="cls-3" d="M53.14,94.84c-3.4.57-5.14.84-7.44.34-1-.22-5.67-1.24-6.26-3.89-.56-2.52,3.03-4.43,2.2-6.42-.57-1.38-2.39-.69-3.89-2.54-1.37-1.68-1.36-4.1-1.35-5.75,0-2.24.53-2.43.17-3.38-.79-2.09-3.43-1.51-5.92-3.72-2.62-2.33-2.94-5.89-3.04-7.1-.15-1.63-.48-5.39,1.52-6.76,2.96-2.02,8.51,2.92,9.97,1.35.71-.76-.18-2.35-1.69-6.59,0,0-1.58-4.44-2.54-8.28-1.36-5.44-2.56-10.25,0-13.36,1.6-1.95,4.58-3.11,6.93-2.37,2.85.9,3.93,4.31,5.24,8.45.67,2.11.8,3.41,1.69,10.31.95,7.3,1.16,8.83,1.38,8.82.48-.02.84-7.23,1.15-13.55.23-4.55.29-7.21,1.86-10.48.93-1.95,2.19-4.49,4.73-5.07,2.12-.49,4.58.53,5.92,2.2,1.16,1.45,1.13,2.96,0,11.67-.65,5.02-.21,10.14-.89,15.15-.1.72-.27,1.89.42,2.76,1.41,1.79,4.57-.06,8.07,1.19,2.78.99,5.22,3.72,5.75,6.59.9,4.89-3.9,9.27-5.41,10.65-4.5,4.11-9.32,4.77-9.13,6.42.19,1.66,5.07,1.35,5.75,3.72.78,2.72-4.75,6.38-5.07,6.59-2.78,1.81-5.31,2.24-10.14,3.04Z"/>
        <path d="M48.12,96.42c-.86,0-1.71-.08-2.62-.29-4.11-.9-6.53-2.5-7.01-4.64-.38-1.69.59-3.09,1.38-4.22.67-.97,1.06-1.59.88-2.04-.09-.22-.27-.3-.92-.51-.79-.25-1.87-.6-2.82-1.78-1.59-1.95-1.58-4.61-1.57-6.37,0-1.15.14-1.83.22-2.28.09-.46.1-.51,0-.75-.26-.68-.83-.91-2-1.33-1.06-.38-2.37-.86-3.65-2-2.91-2.59-3.26-6.47-3.37-7.75-.16-1.79-.53-5.97,1.95-7.66,2.07-1.41,4.83-.27,7.05.64.9.37,2.41,1,2.78.83.05-.28-.46-1.62-.99-3.04-.27-.72-.58-1.56-.93-2.53-.06-.18-1.6-4.53-2.56-8.38-1.38-5.52-2.68-10.73.19-14.22,1.94-2.35,5.37-3.51,7.99-2.68,3.34,1.05,4.52,4.78,5.88,9.09.64,2.01.8,3.31,1.51,8.8l.22,1.69c.08.63.16,1.22.23,1.79.13-2.17.25-4.5.34-6.44l.03-.58c.21-4.19.34-6.97,1.93-10.27.93-1.95,2.35-4.91,5.4-5.61,2.42-.55,5.26.49,6.91,2.54,1.45,1.81,1.36,3.54.21,12.41-.32,2.43-.37,4.96-.42,7.4-.06,2.54-.11,5.17-.46,7.76-.09.65-.2,1.49.22,2.02.41.52,1.24.5,2.68.41,1.39-.08,3.11-.19,4.95.46,3.17,1.13,5.8,4.15,6.39,7.34,1,5.43-4.05,10.04-5.72,11.56-2.37,2.17-4.81,3.4-6.59,4.31-.85.43-1.9.96-2.18,1.28.27.22,1.14.5,1.67.67,1.56.49,3.49,1.11,4,2.89.94,3.31-4.4,6.99-5.48,7.69-2.96,1.92-5.64,2.37-10.52,3.19h0c-2.1.35-3.67.61-5.19.61ZM30.9,56.11c-.46,0-.87.09-1.21.32-1.52,1.04-1.21,4.54-1.1,5.86.1,1.08.39,4.38,2.72,6.45,1,.89,2.02,1.26,3.01,1.62,1.27.46,2.58.93,3.17,2.49.29.77.19,1.28.08,1.82-.08.42-.19.95-.19,1.91,0,1.57-.01,3.71,1.13,5.12.59.73,1.23.93,1.9,1.15.75.24,1.68.54,2.13,1.63.62,1.48-.28,2.78-1.08,3.92-.65.93-1.26,1.82-1.07,2.67.28,1.27,2.34,2.45,5.5,3.14,2.07.46,3.66.22,7.07-.35h0c4.77-.8,7.16-1.2,9.77-2.9,2.18-1.42,5.07-4.06,4.66-5.5-.22-.76-1.54-1.18-2.7-1.55-1.43-.46-2.92-.92-3.08-2.32-.18-1.5,1.28-2.24,3.29-3.26,1.68-.85,3.98-2.02,6.16-4.01,1.46-1.33,5.91-5.39,5.11-9.74-.46-2.5-2.61-4.96-5.11-5.84-1.45-.52-2.89-.43-4.17-.35-1.62.1-3.29.2-4.35-1.16-.93-1.19-.73-2.68-.62-3.47.34-2.51.39-5.08.45-7.57.05-2.49.11-5.07.44-7.61,1.09-8.36,1.11-9.79.21-10.92-1.15-1.44-3.27-2.24-4.93-1.85-1.97.45-3.04,2.4-4.06,4.54-1.41,2.95-1.53,5.42-1.74,9.52l-.03.59c-.72,14.44-.88,14.45-2.1,14.49q-1.14.05-2.39-9.68l-.22-1.69c-.69-5.34-.85-6.61-1.43-8.45-1.25-3.95-2.24-7.07-4.6-7.81-1.86-.58-4.44.31-5.87,2.05-2.24,2.73-1.11,7.25.19,12.49.94,3.76,2.49,8.15,2.51,8.19.34.96.65,1.79.92,2.5,1.02,2.71,1.53,4.06.56,5.09-1.13,1.2-2.98.44-4.95-.37-1.35-.56-2.82-1.16-3.98-1.16Z"/>
      </g>
      <g>
        <path class="cls-3" d="M49.18,76.77c.34-1.32,1-2.94,2.37-4.26,3.14-3.04,8.17-2.68,8.14-3.12-.02-.38-3.72.33-7.19-1.61-.91-.51-3.22-1.8-3.69-4.26-.41-2.14.8-3.92,1.23-4.54.36-.53,1.67-2.44,4.16-2.93,1.96-.38,2.7,1.1,5.77,1.8,1.71.39,3.19.37,4.16.28"/>
        <path d="M50.14,77.02l-1.91-.5c.5-1.93,1.39-3.51,2.64-4.72,1.07-1.03,2.33-1.71,3.55-2.16-.78-.23-1.59-.55-2.4-1-.99-.56-3.62-2.03-4.18-4.93-.49-2.55.92-4.61,1.39-5.29,1.26-1.84,2.87-2.97,4.79-3.34,1.43-.28,2.38.21,3.4.73.73.37,1.55.79,2.79,1.08,1.25.29,2.55.38,3.86.26l.17,1.96c-1.52.13-3.02.02-4.47-.31-1.48-.34-2.46-.84-3.25-1.24-.94-.48-1.39-.69-2.12-.55-1.39.27-2.59,1.12-3.54,2.52-.39.56-1.41,2.06-1.08,3.8.39,2.01,2.36,3.11,3.2,3.58,2.18,1.22,4.51,1.29,5.76,1.33.88.03,1.87.06,1.93,1.07.07,1.04-.96,1.19-1.94,1.33-1.57.22-4.5.64-6.5,2.57-.98.95-1.69,2.23-2.1,3.8Z"/>
      </g>
      <g>
        <path class="cls-3" d="M41.04,62c4.08,1.45,5.57,5.96,4.07,8.71-1.44,2.63-5.75,3.85-9.18,1.55"/>
        <path d="M39.9,74.46c-1.58,0-3.16-.48-4.51-1.38l1.1-1.63c1.42.96,3.16,1.28,4.79.88,1.32-.32,2.43-1.1,2.97-2.09.57-1.04.6-2.46.09-3.8-.62-1.63-1.94-2.91-3.62-3.5l.66-1.86c2.23.79,3.98,2.49,4.81,4.66.73,1.9.65,3.89-.2,5.45-.81,1.49-2.36,2.6-4.24,3.06-.61.15-1.23.22-1.84.22Z"/>
      </g>
      <g>
        <path class="cls-1" d="M100.92,139.21c-5.04-.55-23.34-3.15-37.97-18.79-11.26-12.04-14.36-25.42-15.33-31.01.79-.76,2.97-2.66,6.4-3.25,3.06-.53,5.49.26,6.52.66.3,2.9,1.86,14.84,12.23,24.29,10.87,9.91,23.65,9.97,26.4,9.93,3.77,1.45,6.36,4.95,6.59,8.92.22,3.71-1.65,7.26-4.85,9.25Z"/>
        <path class="cls-2" d="M101.16,140.25l-.34-.04c-6.94-.75-24.58-4.12-38.59-19.1-10.27-10.99-14.14-23.2-15.59-31.52l-.09-.53.38-.37c1.1-1.05,3.45-2.91,6.92-3.51,2.99-.52,5.49.1,7.06.72l.57.22.06.61c.44,4.25,2.48,15.05,11.91,23.65,9.83,8.96,21.25,9.74,25.71,9.66h.19s.18.07.18.07c4.14,1.59,6.98,5.43,7.24,9.8.24,4.08-1.8,7.97-5.32,10.16l-.29.18ZM48.71,89.78c1.47,8.03,5.27,19.57,14.98,29.95,13.32,14.24,30.05,17.64,36.99,18.44,2.72-1.83,4.28-4.92,4.09-8.15-.2-3.52-2.46-6.63-5.78-7.98-4.84.07-16.67-.87-26.89-10.19-9.51-8.66-11.89-19.45-12.48-24.3-1.33-.44-3.22-.79-5.43-.41-2.58.45-4.44,1.72-5.48,2.63Z"/>
      </g>
      <g>
        <g>
          <path class="cls-3" d="M354.27,193.13c.05.02-.66,1.58-1.18,3.23-.77,2.45-1.21,3.81-.67,5.06.74,1.72,3.05,2.52,4.8,2.68,3.03.27,4.19-1.94,6.58-1.12,1.28.44,1.37,1.22,3.01,1.67,1.6.44,2.98.12,3.46,0,1.79-.43,2.95-1.44,3.52-1.94,1.85-1.64,1.67-2.74,2.95-3.19,1.54-.54,2.53.9,3.79.56,3.23-.86,3.76-8.54,3.79-9.04.39-6.36-1.81-18.59-11.82-22.19-6.9-2.48-13.12.71-13.85,1.1-1,.87-2.51,2.18-4.36,3.75-4.26,3.62-4,3.29-4.43,3.73-3.9,4.05-4.17,9.6-4.35,13.53-.18,3.85.52,5.11,1.24,5.83.95.95,2.58,1.52,3.97,1.09,2.55-.79,3.45-4.78,3.53-4.75Z"/>
          <path d="M368.52,205.87c-.58,0-1.25-.07-1.96-.26-1.09-.3-1.65-.75-2.1-1.11-.32-.25-.55-.44-.97-.58-.85-.29-1.43-.07-2.47.38-.97.42-2.18.94-3.89.79-2.02-.18-4.7-1.15-5.62-3.27-.42-.97-.39-1.93-.13-3.12-.12.05-.24.09-.36.13-1.63.51-3.67-.04-4.96-1.33-.87-.87-1.73-2.33-1.53-6.57.19-3.92.47-9.85,4.63-14.17.21-.22.28-.28.7-.62.46-.38,1.43-1.16,3.8-3.18,1.85-1.57,3.35-2.87,4.36-3.74l.18-.13c1.2-.64,7.56-3.7,14.65-1.15,10.74,3.86,12.85,16.85,12.47,23.18-.09,1.48-.74,8.92-4.52,9.93-.92.25-1.68-.08-2.3-.34-.61-.26-.98-.4-1.42-.24-.34.12-.46.29-.81.84-.35.55-.83,1.29-1.81,2.16-.56.5-1.88,1.66-3.94,2.16-.32.08-1.05.25-2,.25ZM362.76,201.82c.43,0,.88.07,1.37.24.74.25,1.18.6,1.56.91.39.31.69.55,1.4.75,1.37.38,2.57.09,2.96,0,1.58-.39,2.61-1.29,3.1-1.72.78-.69,1.14-1.25,1.46-1.75.41-.63.82-1.28,1.81-1.63,1.19-.42,2.15-.01,2.85.28.47.2.77.32,1.02.25,1.9-.51,2.89-5.27,3.07-8.15.35-5.82-1.53-17.73-11.17-21.2-6.13-2.21-11.67.32-12.96.99-1,.87-2.48,2.15-4.29,3.68-2.39,2.03-3.37,2.83-3.83,3.21-.31.26-.36.29-.52.46-3.64,3.78-3.89,9.04-4.08,12.89-.19,3.94.61,4.75.96,5.09.65.66,1.92,1.17,2.97.84,1.09-.34,2.03-1.63,2.78-3.84.12-.36.24-.69.65-.87l.4-.17.4.18c.88.39.55,1.22.26,1.95-.02.06-.04.11-.07.17-.05.13-.1.27-.16.41-.21.55-.46,1.21-.68,1.89-.76,2.4-1.08,3.5-.7,4.37.53,1.24,2.44,1.95,3.98,2.09,1.2.11,2.04-.25,2.93-.64.74-.32,1.55-.67,2.51-.67Z"/>
        </g>
        <g>
          <path class="cls-3" d="M366.82,193.63c.1.82.36,3.75-1.54,6.46-1.03,1.47-2.29,2.3-3.07,2.73"/>
          <path d="M362.68,203.68l-.94-1.73c1.09-.6,2.04-1.44,2.73-2.43,1.59-2.28,1.49-4.8,1.37-5.78l1.96-.24c.18,1.49.2,4.41-1.71,7.15-.87,1.24-2.04,2.29-3.4,3.03Z"/>
        </g>
        <g>
          <path class="cls-3" d="M376.69,193.3c.23.35,1.07,1.7.85,3.56-.22,1.86-1.34,2.98-1.65,3.27"/>
          <path d="M376.56,200.85l-1.35-1.44c.35-.33,1.18-1.24,1.35-2.66.17-1.42-.43-2.51-.69-2.91l1.64-1.09c.48.72,1.24,2.23,1,4.22-.24,2.07-1.45,3.4-1.96,3.87Z"/>
        </g>
        <g>
          <path class="cls-3" d="M372.29,176.33c.54-.19,3.7-1.36,4.8-4.48.53-1.52.57-3.49-.22-4.91-3-5.38-19.03-4.91-22.27,1.54-.06.12-1.28,2.65-.15,5.08,1.27,2.73,5.01,4.27,9.48,3.77"/>
          <path d="M362.24,178.4c-4.08,0-7.39-1.65-8.69-4.43-1.33-2.87.1-5.81.17-5.93,2.07-4.11,8.19-5.68,12.81-5.78,4.24-.11,9.4.96,11.2,4.2,1.04,1.87.83,4.18.29,5.72-1.18,3.37-4.43,4.75-5.4,5.09l-.65-1.86c.76-.27,3.3-1.33,4.2-3.88.49-1.41.43-3.06-.15-4.11-1.12-2-4.93-3.29-9.44-3.19-4.39.09-9.53,1.58-11.09,4.69,0,.02-1.08,2.21-.14,4.22,1.1,2.36,4.51,3.65,8.47,3.2l.22,1.96c-.61.07-1.21.1-1.79.1Z"/>
        </g>
        <g>
          <path class="cls-1" d="M325.48,142c3.62.11,10.84.85,18.12,5.5,12.54,8,15.48,21.32,16.02,24.03.69.41,3.27,1.8,6.64,1.22,3.79-.65,5.84-3.31,6.26-3.89-.58-4.16-3.22-19.38-16.69-31.37-11.56-10.29-24.37-12.21-28.92-12.68-.96,1.12-2.41,3.14-3.11,6.01-1.36,5.51,1.02,10.03,1.68,11.19Z"/>
          <path class="cls-2" d="M364.65,173.88c-2.65,0-4.68-1-5.53-1.49l-.39-.23-.09-.44c-.92-4.63-4.28-16.18-15.57-23.38-6.54-4.17-13.19-5.21-17.62-5.34l-.56-.02-.28-.49c-.99-1.74-3.15-6.4-1.78-11.92.57-2.32,1.72-4.54,3.33-6.42l.34-.4.52.05c6.32.65,18.55,3.2,29.49,12.93,12.93,11.51,16.21,26.2,17.01,31.98l.06.41-.24.33c-.79,1.06-3.03,3.61-6.9,4.28-.62.11-1.22.15-1.79.15ZM360.51,170.87c1.04.53,3.08,1.31,5.58.88,2.81-.49,4.58-2.2,5.38-3.18-.88-5.83-4.17-19.54-16.3-30.34-10.22-9.09-21.61-11.66-27.83-12.38-1.23,1.55-2.11,3.33-2.57,5.19-1.08,4.38.38,8.16,1.31,9.97,4.67.22,11.41,1.4,18.05,5.63,11.58,7.39,15.27,19.07,16.37,24.22Z"/>
        </g>
        <path d="M354.29,195.88l-1.78-.84c.4-.83.64-1.72.73-2.63.18-1.79-.29-3.28-.72-4.22l1.79-.82c.53,1.16,1.12,3,.89,5.24-.11,1.13-.42,2.23-.91,3.27Z"/>
      </g>
      <g>
        <path class="cls-1" d="M191.6,110.5c-.48-.39-4.88-3.87-10.19-2.39-.73.2-4.24,1.18-6.05,4.62-2.01,3.8-.39,7.66,0,8.6,2.21,5.28,7.68,6.81,8.44,7"/>
        <path class="cls-2" d="M183.55,129.29c-1.11-.29-6.78-2.04-9.11-7.59-1.81-4.32-.98-7.53.04-9.45,1.3-2.46,3.67-4.28,6.67-5.11,5.63-1.57,10.23,1.87,11.09,2.58l-1.27,1.55c-.45-.36-4.5-3.53-9.28-2.2-2.46.69-4.39,2.15-5.43,4.12-.81,1.54-1.47,4.14.04,7.74,1.96,4.68,6.81,6.17,7.77,6.42l-.51,1.94Z"/>
      </g>
      <g>
        <path class="cls-3" d="M225.7,121.61c1.09-2.51,10.98-25.42,7.38-31.11-1.31-2.07-3-2.54-3-2.54-2.47-.68-4.96,1.28-6.05,2.13-6.63,5.21-10.98,26.8-11.48,29.35"/>
        <path d="M226.6,122l-1.81-.79c5.4-12.36,9.79-26.48,7.45-30.19-1.07-1.69-2.38-2.1-2.44-2.11-1.98-.54-4.21,1.21-5.17,1.96-6.3,4.95-10.65,26.34-11.12,28.76l-1.93-.38c.8-4.07,5.12-24.66,11.84-29.94,1.19-.93,3.97-3.12,6.92-2.31.08.02,2.08.59,3.58,2.96,3.66,5.79-4.67,25.98-7.31,32.03Z"/>
      </g>
      <path d="M216.8,119.01l1.58-3.81c.25-.6.86-.96,1.51-.89,1.38.15,2.76.31,4.13.46.51.06.8-.56.44-.93-3.55-3.65-3.5-8.95-.99-11.42,2.03-1.99,5.82-2.31,9.19-.6l-7.15,19.55c-1.12-.59-2.6-1.23-4.41-1.71-1.64-.43-3.11-.61-4.29-.67Z"/>
      <g>
        <path class="cls-6" d="M201.15,114.85c1.09-2.51,10.98-25.42,7.38-31.11-1.31-2.07-3-2.54-3-2.54-2.47-.68-4.96,1.28-6.05,2.13-6.63,5.21-10.98,26.8-11.48,29.35"/>
        <path class="cls-2" d="M202.07,115.25l-1.84-.8c5.39-12.35,9.79-26.47,7.45-30.17-1.06-1.68-2.38-2.09-2.43-2.11-1.97-.54-4.2,1.21-5.15,1.96-6.3,4.94-10.64,26.33-11.12,28.75l-1.97-.38c.8-4.08,5.12-24.67,11.84-29.95,1.19-.93,3.98-3.12,6.93-2.31.08.02,2.08.59,3.58,2.97,3.67,5.8-4.67,25.99-7.31,32.04Z"/>
      </g>
      <g>
        <path class="cls-1" d="M210.18,120.53c1.98-.79,6.16-2.09,11.11-.63,2.98.88,5.21,2.46,6.64,3.7"/>
        <path class="cls-2" d="M227.27,124.36c-1.92-1.66-4.02-2.83-6.27-3.5-4.26-1.26-8.03-.37-10.45.6l-.75-1.86c2.71-1.09,6.95-2.08,11.77-.66,2.52.75,4.87,2.06,7.01,3.9l-1.31,1.52Z"/>
      </g>
      <g>
        <path class="cls-1" d="M185.64,113.77c1.98-.79,6.16-2.09,11.11-.63,2.98.88,5.21,2.46,6.64,3.7"/>
        <path class="cls-2" d="M202.73,117.6c-1.92-1.66-4.02-2.83-6.27-3.5-4.26-1.26-8.03-.37-10.45.6l-.75-1.86c2.71-1.09,6.95-2.08,11.77-.66,2.52.75,4.87,2.06,7.01,3.9l-1.31,1.52Z"/>
      </g>
      <g>
        <path class="cls-1" d="M209.75,113.8c-.17-.21-1.77-2.08-4.39-1.95-.19,0-2.6.17-4.01,2.16-1.58,2.23-1.12,5.65,1.03,7.48,2.3,1.95,5.34,1.05,5.57.98"/>
        <path class="cls-2" d="M206.01,123.74c-1.27,0-2.88-.3-4.27-1.48-2.52-2.13-3.08-6.17-1.2-8.82,1.68-2.37,4.47-2.57,4.79-2.58,3.01-.16,4.87,1.9,5.21,2.31l-1.55,1.28c-.14-.17-1.45-1.69-3.56-1.58-.02,0-2.1.12-3.25,1.74-1.27,1.8-.87,4.67.86,6.13,1.9,1.6,4.52.82,4.63.79l.59,1.92c-.18.06-1.07.31-2.24.31Z"/>
      </g>
      <g>
        <path class="cls-6" d="M201.34,93.12c.72.23,2.33.87,3.55,2.47,2.21,2.91,1.2,6.43,1.08,6.83-1.4-1.05-3.54-2.41-6.41-3.4-3.14-1.08-5.9-1.27-7.72-1.25"/>
        <path class="cls-2" d="M206.51,104.08l-1.15-.86c-1.86-1.4-3.93-2.49-6.13-3.25-2.38-.82-4.87-1.18-7.39-1.2l-.02-2.01c2.75-.04,5.46.42,8.06,1.31,1.9.65,3.7,1.53,5.38,2.63.1-1.21-.01-2.97-1.18-4.5-.95-1.24-2.19-1.84-3.06-2.12l.62-1.91c1.15.37,2.78,1.16,4.04,2.82,2.45,3.21,1.47,7,1.24,7.73l-.42,1.37Z"/>
      </g>
      <g>
        <path class="cls-3" d="M189.54,123.09c1.9-1.4,5.31,2.48,13.2,5.31,8.41,3.02,16.3,2.84,22.02,2.08.17,2.39.34,4.78.51,7.17-7.47,8.73-18.54,11.55-26.32,7.59-9.82-5.01-12.48-19.89-9.41-22.15Z"/>
        <path d="M206.56,147.99c-2.84,0-5.59-.6-8.06-1.87-6.92-3.53-10.6-11.71-11.1-17.81-.14-1.71-.12-4.77,1.56-6.01h0c1.56-1.15,3.38-.14,6.13,1.4,2.03,1.13,4.55,2.54,7.98,3.77,6.6,2.37,13.86,3.05,21.56,2.03l1.04-.14.61,8.62-.26.31c-5.32,6.22-12.65,9.69-19.45,9.69ZM190.49,123.79c-.15,0-.27.03-.36.1h0c-.52.38-.96,1.85-.76,4.26.38,4.66,3.37,12.82,10.03,16.22,7.5,3.83,17.9.86,24.86-7.05l-.4-5.73c-7.63.87-14.84.11-21.44-2.26-3.58-1.29-6.3-2.8-8.28-3.91-1.6-.9-2.93-1.64-3.64-1.64Z"/>
      </g>
      <g>
        <path class="cls-3" d="M188.03,126.74c.96,1.29,1.97,2.41,3,3.38,11.16,10.5,28.78,7.78,34.27,6.71"/>
        <path d="M213.94,138.94c-7.85,0-16.83-1.75-23.59-8.11-1.13-1.06-2.18-2.25-3.12-3.51l1.58-1.17c.87,1.17,1.84,2.26,2.88,3.25,9.92,9.33,25.19,8.05,33.41,6.46l.38,1.94c-3.09.6-7.14,1.15-11.54,1.15Z"/>
      </g>
      <g>
        <path class="cls-1" d="M241.39,121.51c-.48-.39-4.88-3.87-10.19-2.39-.73.2-4.24,1.18-6.05,4.62-2.01,3.8-.39,7.66,0,8.6,2.21,5.28,7.68,6.81,8.44,7"/>
        <path class="cls-2" d="M233.33,140.31c-1.11-.29-6.78-2.04-9.11-7.59-1.81-4.32-.98-7.53.04-9.45,1.3-2.46,3.67-4.28,6.67-5.11,5.63-1.57,10.23,1.87,11.09,2.58l-1.27,1.55c-.45-.36-4.5-3.53-9.28-2.2-2.46.69-4.39,2.15-5.43,4.12-.81,1.54-1.47,4.14.04,7.74,1.96,4.68,6.81,6.17,7.77,6.42l-.51,1.94Z"/>
      </g>
      <g>
        <path class="cls-1" d="M224.73,147.01c-1.54,1.42-5.29,4.5-11.06,5.67-5.26,1.07-9.53.02-11.53-.61"/>
        <path class="cls-2" d="M209.1,154.14c-2.95,0-5.46-.54-7.27-1.11l.6-1.91c2.49.78,6.43,1.52,11.03.58,4.99-1.01,8.51-3.51,10.58-5.43l1.36,1.47c-2.26,2.09-6.1,4.81-11.54,5.92-1.68.34-3.28.48-4.77.48Z"/>
      </g>
      <g>
        <path class="cls-6" d="M243.86,67.1c-.69-.11-3.39-.46-6.07,1.21-3.06,1.91-3.81,5.03-3.93,5.61,1.66,1.28,4.3,3.66,6.36,7.43,2.58,4.74,2.88,9.18,2.88,11.38.78.23,2.48.62,4.55.15,2.22-.5,3.66-1.71,4.25-2.28-.32-3.26-1.03-7.39-2.58-11.99-1.62-4.81-3.67-8.67-5.46-11.53Z"/>
        <path class="cls-2" d="M245.68,94.12c-1.15,0-2.14-.2-2.86-.41l-.72-.21v-.75c0-2.66-.48-6.71-2.76-10.9-1.51-2.78-3.56-5.17-6.09-7.12l-.5-.39.14-.62c.21-.95,1.14-4.23,4.38-6.25,2.8-1.75,5.66-1.53,6.76-1.35l.45.07.24.39c2.31,3.68,4.18,7.63,5.56,11.74,1.33,3.95,2.21,8.06,2.63,12.21l.05.49-.35.34c-.92.88-2.48,2.02-4.72,2.53-.78.18-1.52.24-2.2.24ZM244.1,91.96c.88.17,2.04.25,3.34-.04,1.53-.34,2.66-1.06,3.42-1.7-.42-3.83-1.25-7.61-2.48-11.26-1.28-3.81-3-7.49-5.11-10.92-1.06-.1-3.02-.07-4.94,1.13-2.1,1.31-2.98,3.29-3.33,4.38,2.51,2.04,4.56,4.5,6.1,7.33,2.27,4.16,2.9,8.2,2.99,11.07Z"/>
      </g>
      <g>
        <path class="cls-6" d="M219.05,85.31c.03.15.41,2.64-1.44,4.25-1.29,1.12-2.83,1.08-3.19,1.06-1.47-2.08-3.4-4.46-5.89-6.88-2.97-2.88-5.9-4.97-8.35-6.48.03-.56.19-2.57,1.79-4.25,2.15-2.24,5.08-2.01,5.46-1.97,1.9,1.73,3.98,3.84,6.07,6.37,2.31,2.8,4.12,5.5,5.53,7.89Z"/>
        <path class="cls-2" d="M214.64,91.63c-.1,0-.19,0-.27,0l-.49-.03-.28-.4c-1.71-2.42-3.65-4.68-5.77-6.74-2.48-2.4-5.23-4.53-8.17-6.34l-.5-.31.03-.59c.04-.86.32-3.07,2.07-4.9,2.41-2.52,5.66-2.34,6.28-2.28l.33.03.25.22c2.2,2,4.28,4.18,6.17,6.48,2.07,2.51,3.97,5.21,5.62,8.02l.09.16.03.18c.2,1.17.06,3.59-1.77,5.17-1.31,1.14-2.83,1.31-3.63,1.31ZM201.25,76.75c2.87,1.81,5.55,3.92,7.98,6.28,2.08,2.02,4,4.23,5.71,6.59.54-.04,1.33-.21,2.02-.81,1.2-1.04,1.17-2.65,1.13-3.16-1.58-2.65-3.38-5.2-5.34-7.58-1.76-2.13-3.68-4.16-5.71-6.03-.83-.02-2.81.11-4.32,1.69-.99,1.04-1.34,2.25-1.46,3.03Z"/>
      </g>
    </g>
  </g>
</svg>