<?xml version="1.0" encoding="UTF-8"?>
<svg id="Capa_2" xmlns="http://www.w3.org/2000/svg" viewBox="0 0 280.39 232.9">
  <defs>
    <style>
      .cls-1 {
        fill: #8adfff;
      }

      .cls-2 {
        fill: #ed9aff;
      }

      .cls-3 {
        fill: #038dfa;
      }

      .cls-4 {
        fill: #fffaf0;
      }

      .cls-5 {
        fill: #0f55cb;
      }

      .cls-6 {
        fill: #8873ff;
      }

      .cls-7 {
        fill: #c081ff;
      }

      .cls-8 {
        fill: #d3c0b1;
      }

      .cls-9 {
        fill: #0077fb;
      }
    </style>
  </defs>
  <g id="Capa_1-2" data-name="Capa_1">
    <g>
      <g>
        <ellipse cx="206.83" cy="224.93" rx="28.47" ry="7.68"/>
        <path d="M206.83,232.9c-16.12,0-28.75-3.5-28.75-7.96s12.63-7.96,28.75-7.96,28.75,3.5,28.75,7.96-12.63,7.96-28.75,7.96ZM206.83,217.54c-15.27,0-28.18,3.38-28.18,7.39s12.91,7.39,28.18,7.39,28.18-3.38,28.18-7.39-12.91-7.39-28.18-7.39Z"/>
      </g>
      <g>
        <ellipse cx="108.51" cy="224.93" rx="28.47" ry="7.68"/>
        <path d="M108.51,232.9c-16.12,0-28.75-3.5-28.75-7.96s12.63-7.96,28.75-7.96,28.75,3.5,28.75,7.96-12.63,7.96-28.75,7.96ZM108.51,217.54c-15.27,0-28.18,3.38-28.18,7.39s12.91,7.39,28.18,7.39,28.18-3.38,28.18-7.39-12.91-7.39-28.18-7.39Z"/>
      </g>
      <g>
        <g>
          <path class="cls-4" d="M16.66,71.31c-9.34-2.2-15.65-7.2-15.66-11.74,0-3.2,1.58-4.93,1.58-4.93,1.98-2.15,5.31-2,5.58-3.73.02-.15-.1-.64-.35-1.64-.31-1.21-.46-1.82-.77-2.85-.42-1.39-2.64-10.74,1.17-13.38,1.2-.83,2.96-.97,4.29-.47,3.53,1.31,5.65,7.62,6.02,12.18.08.99.13,2.55.8,2.75.96.28,1.8-2.68,4.5-3.42.19-.05,1.91-.5,3.52.32,1.69.86,2,2.49,2.7,2.38.59-.1.71-1.33,1.2-3.53.19-.83,1-4.35,2.66-7.66.96-1.91,1.48-2.32,1.81-2.53,1.5-.96,3.77-.87,5.09.09,1.43,1.03,1.67,3,1.28,9.79-.41,7.24-.61,10.85-1.42,14.16-1.2,4.87-2.95,8.89-4.6,11.96"/>
          <path d="M16.43,72.29C6.77,70.01.02,64.79,0,59.58c-.01-3.56,1.77-5.53,1.84-5.61,1.1-1.2,2.51-1.76,3.65-2.22.75-.3,1.52-.61,1.66-.92-.04-.23-.18-.78-.32-1.31-.31-1.21-.46-1.81-.76-2.8-.03-.11-3.21-11.18,1.56-14.49,1.42-.98,3.51-1.22,5.21-.59,4.25,1.57,6.32,8.66,6.67,13.04l.02.29c.02.27.06.76.12,1.15.07-.09.14-.17.21-.25.73-.89,1.83-2.24,3.68-2.75.38-.1,2.35-.57,4.24.39.97.5,1.57,1.2,1.98,1.74.07-.31.15-.67.22-1.01.08-.36.16-.77.26-1.21.29-1.32,1.15-4.72,2.74-7.89,1-1.99,1.63-2.58,2.17-2.92,1.8-1.15,4.53-1.1,6.22.12,1.9,1.38,2.09,3.75,1.7,10.66-.41,7.29-.62,10.94-1.45,14.34-1.04,4.24-2.62,8.34-4.69,12.2l-1.77-.95c1.99-3.71,3.51-7.66,4.51-11.73.79-3.22.99-6.81,1.4-13.98.35-6.25.17-8.17-.87-8.92-1.03-.75-2.85-.77-3.97-.06-.14.09-.57.36-1.46,2.13-1.49,2.97-2.3,6.18-2.58,7.43-.1.43-.18.82-.25,1.18-.37,1.77-.61,2.93-1.76,3.12-.93.15-1.47-.57-1.86-1.11-.36-.48-.76-1.01-1.46-1.37-1.25-.64-2.64-.29-2.8-.25-1.23.34-2.02,1.31-2.66,2.09-.63.77-1.34,1.63-2.39,1.33-1.27-.37-1.4-2.02-1.49-3.35l-.02-.28c-.38-4.63-2.54-10.27-5.37-11.32-1.08-.4-2.5-.25-3.37.36-3.05,2.11-1.36,10.34-.78,12.26.31,1.03.46,1.64.77,2.84.35,1.38.44,1.74.39,2.09-.23,1.47-1.6,2.01-2.92,2.54-1,.4-2.13.85-2.92,1.71-.05.05-1.32,1.51-1.31,4.24.01,4.14,6.41,8.77,14.89,10.76l-.46,1.95Z"/>
        </g>
        <g>
          <path class="cls-4" d="M19.83,69.79c-.22-.04-3.57-.53-5.44,1.78-.27.33-1.43,1.86-1.01,3.27.9,3.04,8.48,3.34,12.56,3.05,4.73-.33,12.28-1.99,12.68-5.17.17-1.4-1.09-2.61-1.3-2.81-1.52-1.45-4.06-1.72-6.57-.7"/>
          <path d="M23.27,78.97c-3.8,0-9.87-.53-10.85-3.86-.55-1.84.78-3.67,1.19-4.18,2.21-2.73,5.97-2.21,6.38-2.14l-.32,1.98c-.12-.02-2.98-.46-4.5,1.42-.51.63-1.04,1.63-.83,2.35.57,1.93,6.31,2.7,11.52,2.33,5.47-.38,11.49-2.2,11.76-4.29.08-.66-.46-1.45-1-1.96-1.22-1.16-3.37-1.36-5.5-.5l-.75-1.86c2.9-1.17,5.83-.83,7.64.91.55.53,1.81,1.94,1.6,3.66-.63,5.08-13.08,6.01-13.61,6.05-.5.04-1.5.09-2.73.09Z"/>
        </g>
        <g>
          <line class="cls-4" x1="19.33" y1="47.51" x2="18.77" y2="51.8"/>
          <rect x="16.88" y="48.65" width="4.33" height="2.01" transform="translate(-32.64 62.16) rotate(-82.62)"/>
        </g>
        <g>
          <path class="cls-4" d="M29.43,46.44c.28,2.76.47,5.33.59,7.69.28,5.27.09,6.5-.76,7.6-1.19,1.55-3.49,2.57-5.73,2.07-2.51-.56-4.45-2.92-4.63-5.8"/>
          <path d="M24.67,64.93c-.46,0-.91-.05-1.36-.15-2.98-.66-5.21-3.43-5.41-6.72l2-.12c.15,2.41,1.73,4.42,3.85,4.89,2,.45,3.85-.57,4.72-1.71.6-.78.83-1.67.55-6.93-.14-2.55-.33-5.12-.59-7.64l2-.2c.26,2.56.46,5.16.6,7.74.29,5.39.12,6.86-.97,8.27-1.25,1.62-3.33,2.58-5.39,2.58Z"/>
        </g>
        <g>
          <path class="cls-5" d="M65.7,101.49v13.54c-2.26.33-18.19,2.4-31.53-9.29-13.4-11.74-13.39-27.9-13.35-30.16.85-.6,2.78-1.79,5.53-2.04,3.17-.28,5.56.86,6.46,1.35-.03,1.4-.07,13.27,9.91,21.35,10,8.1,21.62,5.57,22.98,5.25Z"/>
          <path d="M60.62,116.37c-6.53,0-17.52-1.47-27.11-9.88-13.35-11.7-13.75-27.82-13.69-30.94v-.51s.42-.29.42-.29c1.24-.88,3.3-1.97,6.02-2.21,3.24-.29,5.8.8,7.03,1.47l.54.29v.61c-.06,2.11.2,12.99,9.53,20.55,9.35,7.57,20.07,5.54,22.12,5.05l1.23-.29v15.67l-.86.13c-.85.13-2.71.34-5.23.34ZM21.82,76.11c.02,3.93.95,18.3,13.01,28.87,11.68,10.23,25.54,9.65,29.87,9.17v-11.43c-3.83.66-13.79,1.45-22.61-5.7-9.33-7.56-10.24-18.2-10.28-21.51-1.15-.54-3.06-1.18-5.37-.97-1.99.18-3.56.9-4.62,1.57Z"/>
        </g>
        <g>
          <path class="cls-4" d="M6.72,52.57c3.99-2.7,8.36-3.05,10.79-1.05.28.24,1.65,1.42,1.8,3.25.22,2.75-2.42,5.8-6.77,7.05"/>
          <path d="M12.81,62.79l-.55-1.93c3.64-1.05,6.24-3.63,6.05-6-.11-1.36-1.13-2.3-1.44-2.55-2.11-1.74-6.05-1.29-9.58,1.1l-1.12-1.66c4.34-2.93,9.15-3.33,11.99-.99.59.49,1.99,1.86,2.16,3.94.27,3.36-2.88,6.76-7.49,8.09Z"/>
        </g>
        <g>
          <path class="cls-9" d="M63.41,142.1l15.98,14.82c24.95,2.16,51.73,3.62,80.14,3.99,28.86.38,56.08-.39,81.42-1.94,3.61-16.24,6.8-34.48,8.93-54.47,1.85-17.39,2.63-33.62,2.74-48.43-6.92-5.38-13.84-10.77-20.76-16.15L63.41,142.1Z"/>
          <path d="M174,162.01c-4.84,0-9.67-.03-14.49-.1-26.66-.35-53.64-1.7-80.21-4l-.34-.03-17.21-15.96L231.92,38.71l21.7,16.88v.5c-.11,16.14-1.04,32.47-2.75,48.53-1.94,18.27-4.95,36.63-8.94,54.58l-.16.74-.75.05c-22.2,1.35-44.68,2.03-67.01,2.03ZM79.81,155.95c26.41,2.28,53.23,3.61,79.72,3.96,26.76.35,53.88-.28,80.6-1.89,3.89-17.64,6.83-35.68,8.74-53.62,1.68-15.83,2.6-31.92,2.73-47.84l-19.82-15.42-166.71,101.13,14.75,13.68Z"/>
        </g>
        <g>
          <path class="cls-9" d="M71.79,35.53c-2.85,15.09-5.29,31.82-6.83,50-1.75,20.58-2.06,39.56-1.55,56.58,23.59,2.31,48.93,3.96,75.82,4.58,29.11.67,56.48.06,81.84-1.39,3.06-17.34,5.71-36.03,7.65-55.98,1.69-17.34,2.67-33.85,3.12-49.4-53.35-1.46-106.71-2.93-160.06-4.39Z"/>
          <path d="M162.71,147.96c-7.85,0-15.69-.09-23.5-.27-25.23-.58-50.77-2.13-75.9-4.59l-.88-.09-.03-.88c-.56-18.84-.04-37.92,1.55-56.69,1.42-16.73,3.72-33.58,6.85-50.1l.16-.84,161.92,4.44-.03,1c-.48,16.44-1.53,33.08-3.13,49.46-1.82,18.7-4.4,37.56-7.66,56.06l-.14.78-.79.05c-19.36,1.11-38.93,1.66-58.42,1.66ZM64.38,141.19c24.8,2.41,49.98,3.92,74.87,4.49,26.88.62,54.11.17,80.97-1.34,3.19-18.2,5.71-36.74,7.5-55.12,1.56-16,2.6-32.25,3.09-48.32l-158.2-4.34c-3.03,16.18-5.27,32.67-6.66,49.05-1.56,18.41-2.09,37.1-1.57,55.58Z"/>
        </g>
        <g>
          <path class="cls-6" d="M67.04,66.71l57.97,1.72-4.46,77.54c-9.45-.15-19.36-.55-29.69-1.27-9.55-.66-18.71-1.55-27.45-2.59-.41-12.76-.33-26.58.49-41.31.67-12.07,1.77-23.45,3.14-34.09Z"/>
          <path d="M121.49,146.98l-.96-.02c-9.88-.16-19.88-.59-29.74-1.27-9.15-.64-18.4-1.51-27.5-2.6l-.86-.1-.03-.86c-.44-13.74-.27-27.67.49-41.39.63-11.38,1.69-22.87,3.15-34.16l.12-.9,59.91,1.77-4.57,79.53ZM64.38,141.21c8.79,1.04,17.72,1.87,26.54,2.49,9.5.66,19.15,1.08,28.67,1.25l4.34-75.55-56.03-1.66c-1.39,10.95-2.4,22.09-3.02,33.12-.75,13.38-.92,26.95-.52,40.35Z"/>
        </g>
        <g>
          <path class="cls-6" d="M167.16,69.52l-3.65,77.44,57.56-1.66c2.54-11.8,4.79-24.76,6.46-38.77,1.48-12.41,2.31-24.12,2.7-34.98-21.03-.67-42.05-1.35-63.08-2.02Z"/>
          <path d="M162.46,147.99l3.75-79.5,65.07,2.09-.04,1.01c-.42,11.67-1.33,23.46-2.71,35.06-1.55,12.99-3.73,26.06-6.48,38.86l-.17.77-59.43,1.72ZM168.11,70.56l-3.55,75.37,55.69-1.61c2.66-12.49,4.77-25.25,6.28-37.91,1.34-11.21,2.23-22.6,2.66-33.89l-61.08-1.96Z"/>
        </g>
        <g>
          <line class="cls-8" x1="123.77" y1="89.73" x2="166.2" y2="89.74"/>
          <rect x="123.77" y="88.73" width="42.44" height="2.01"/>
        </g>
        <g>
          <line class="cls-8" x1="122.43" y1="114.5" x2="164.86" y2="114.51"/>
          <rect x="122.43" y="113.5" width="42.43" height="2.01"/>
        </g>
        <g>
          <polygon class="cls-9" points="106.03 36.47 110.73 1.02 209.48 3.22 206.34 39.22 198.81 39.02 201.64 9.49 116.37 6.98 113.25 36.67 106.03 36.47"/>
          <path d="M207.26,40.25l-9.55-.26,2.83-29.53-83.27-2.45-3.12,29.69-9.25-.25L109.85,0l100.72,2.24-3.31,38.01ZM199.91,38.04l5.52.15,2.96-34-96.78-2.15-4.43,33.45,5.17.14,3.12-29.69,87.27,2.57-2.83,29.53Z"/>
        </g>
        <g>
          <polygon class="cls-6" points="212.61 39.22 216.38 6.98 209.48 3.22 206.34 39.22 212.61 39.22"/>
          <path d="M213.51,40.22h-8.26l3.36-38.62,8.84,4.82-3.95,33.8ZM207.44,38.22h4.28l3.58-30.68-4.96-2.7-2.91,33.39Z"/>
        </g>
        <g>
          <polygon class="cls-6" points="115.76 12.8 201.07 15.48 201.64 9.49 116.37 6.98 115.76 12.8"/>
          <path d="M201.98,16.51l-87.33-2.74.82-7.83,87.27,2.57-.77,8ZM116.87,11.84l83.29,2.61.38-3.99-83.27-2.45-.4,3.83Z"/>
        </g>
        <g>
          <ellipse class="cls-7" cx="194.66" cy="108.46" rx="23.14" ry="29.07"/>
          <path d="M194.66,138.53c-13.31,0-24.14-13.49-24.14-30.08s10.83-30.08,24.14-30.08,24.14,13.49,24.14,30.08-10.83,30.08-24.14,30.08ZM194.66,80.39c-12.2,0-22.13,12.59-22.13,28.07s9.93,28.07,22.13,28.07,22.13-12.59,22.13-28.07-9.93-28.07-22.13-28.07Z"/>
        </g>
        <g>
          <ellipse class="cls-9" cx="194.64" cy="109.3" rx="7.58" ry="9.85"/>
          <path d="M194.64,120.14c-4.73,0-8.58-4.87-8.58-10.85s3.85-10.85,8.58-10.85,8.58,4.87,8.58,10.85-3.85,10.85-8.58,10.85ZM194.64,100.45c-3.63,0-6.58,3.97-6.58,8.84s2.95,8.84,6.58,8.84,6.58-3.97,6.58-8.84-2.95-8.84-6.58-8.84Z"/>
        </g>
        <g>
          <ellipse class="cls-7" cx="92.62" cy="105.35" rx="23.14" ry="29.07"/>
          <path d="M92.62,135.43c-13.31,0-24.14-13.49-24.14-30.08s10.83-30.08,24.14-30.08,24.14,13.49,24.14,30.08-10.83,30.08-24.14,30.08ZM92.62,77.28c-12.2,0-22.13,12.59-22.13,28.07s9.93,28.07,22.13,28.07,22.13-12.59,22.13-28.07-9.93-28.07-22.13-28.07Z"/>
        </g>
        <g>
          <ellipse class="cls-9" cx="92.61" cy="106.19" rx="7.58" ry="9.85"/>
          <path d="M92.61,117.04c-4.73,0-8.58-4.87-8.58-10.85s3.85-10.85,8.58-10.85,8.58,4.87,8.58,10.85-3.85,10.85-8.58,10.85ZM92.61,97.35c-3.63,0-6.58,3.97-6.58,8.84s2.95,8.84,6.58,8.84,6.58-3.97,6.58-8.84-2.95-8.84-6.58-8.84Z"/>
        </g>
        <g>
          <ellipse class="cls-5" cx="143.91" cy="101.27" rx="13.54" ry="4.92"/>
          <path d="M143.91,107.2c-7.05,0-14.55-2.08-14.55-5.93s7.49-5.93,14.55-5.93,14.54,2.08,14.54,5.93-7.49,5.93-14.54,5.93ZM143.91,97.35c-7.66,0-12.54,2.32-12.54,3.92s4.88,3.92,12.54,3.92,12.54-2.32,12.54-3.92-4.88-3.92-12.54-3.92Z"/>
        </g>
        <g>
          <g>
            <path class="cls-4" d="M168.25,76.67c.85-3,8.53-29.75,3.59-35.63-1.8-2.14-3.78-2.41-3.78-2.41-2.89-.39-5.41,2.2-6.51,3.34-6.71,6.9-8.32,31.64-8.49,34.61"/>
            <path d="M169.23,76.87l-1.95-.48.02-.07c4.02-14.12,7.13-30.64,3.77-34.64-1.48-1.76-3.05-2.04-3.15-2.06-2.4-.32-4.68,2.04-5.65,3.04-6.42,6.61-8.05,31.19-8.21,33.97l-2-.12c.27-4.66,1.99-28.26,8.77-35.25,1.19-1.22,3.98-4.09,7.37-3.63h0c.53.09,2.56.54,4.42,2.76,4.73,5.64-.78,27.39-3.37,36.48Z"/>
          </g>
          <path d="M157.8,75.76l1.2-4.55c.19-.71.83-1.22,1.57-1.24,1.58-.04,3.16-.07,4.74-.11.59-.01.82-.75.36-1.11-4.57-3.58-5.33-9.58-2.87-12.76,1.99-2.56,6.23-3.5,10.29-2.09l-5.1,23.2c-1.36-.49-3.13-1-5.25-1.26-1.92-.24-3.61-.21-4.96-.1Z"/>
          <g>
            <path class="cls-3" d="M139.47,73.11c.85-3,8.53-30.09,3.59-35.97-1.8-2.14-3.78-2.41-3.78-2.41-2.89-.39-5.41,2.2-6.51,3.34-6.71,6.9-8.32,31.64-8.49,34.61"/>
            <path d="M140.43,73.39l-1.93-.55c3.88-13.63,7.2-30.98,3.79-35.05-1.5-1.79-3.09-2.05-3.16-2.06-2.38-.33-4.67,2.04-5.65,3.04-6.42,6.61-8.05,31.19-8.21,33.97l-2-.12c.28-4.66,2-28.27,8.77-35.25,1.19-1.23,3.99-4.09,7.37-3.63.1.01,2.39.34,4.42,2.76,1.6,1.9,4.46,9.3-3.39,36.89Z"/>
          </g>
          <path d="M170.52,80.08c-2.44-1.59-5.02-2.61-7.67-3.02-5.05-.78-9.21.81-11.82,2.29l-.99-1.75c2.88-1.63,7.49-3.4,13.11-2.53,2.94.46,5.79,1.57,8.46,3.32l-1.1,1.68Z"/>
          <path d="M141.74,76.2c-2.44-1.59-5.02-2.61-7.67-3.02-5.05-.78-9.21.81-11.82,2.29l-.99-1.75c2.88-1.63,7.5-3.4,13.11-2.53,2.93.45,5.78,1.57,8.46,3.32l-1.1,1.68Z"/>
          <g>
            <path class="cls-9" d="M149.02,70.95c-.23-.21-2.32-2.08-5.26-1.53-.21.04-2.92.59-4.21,3.06-1.44,2.76-.41,6.56,2.31,8.29,2.9,1.85,6.2.37,6.45.25"/>
            <path d="M145.15,82.7c-1.19,0-2.53-.26-3.82-1.08-3.12-1.99-4.34-6.39-2.66-9.61,1.5-2.86,4.57-3.51,4.91-3.58,3.33-.61,5.69,1.38,6.12,1.78l-1.36,1.47c-.19-.18-1.97-1.74-4.4-1.28-.1.02-2.43.48-3.5,2.54-1.22,2.33-.32,5.53,1.96,6.99,2.47,1.57,5.36.25,5.48.19l.85,1.82c-.25.12-1.72.77-3.59.77Z"/>
          </g>
          <g>
            <path class="cls-3" d="M136.35,48.85c.85.15,2.76.62,4.39,2.25,2.95,2.95,2.34,7.08,2.27,7.55-1.74-.97-4.37-2.19-7.76-2.86-3.71-.74-6.86-.53-8.92-.24"/>
            <path d="M143.77,60.22l-1.25-.7c-2.33-1.31-4.85-2.23-7.47-2.75-2.83-.56-5.72-.64-8.58-.23l-.29-1.99c3.09-.44,6.21-.36,9.26.24,2.31.46,4.55,1.21,6.66,2.24-.03-1.41-.4-3.57-2.07-5.24-1.29-1.29-2.81-1.78-3.86-1.97l.36-1.97c1.33.24,3.27.87,4.92,2.53,3.21,3.21,2.69,7.58,2.55,8.43l-.23,1.41Z"/>
          </g>
          <g>
            <path class="cls-5" d="M180.46,12.93c-.8-.02-3.9,0-6.68,2.3-3.17,2.63-3.53,6.27-3.59,6.95,2.07,1.19,5.42,3.48,8.33,7.43,3.64,4.96,4.66,9.93,5,12.43.92.14,2.9.32,5.17-.52,2.44-.91,3.87-2.49,4.46-3.22-.86-3.63-2.3-8.2-4.75-13.16-2.57-5.19-5.48-9.25-7.94-12.2Z"/>
            <path d="M185.09,43.16c-.66,0-1.24-.06-1.73-.13l-.74-.11-.1-.74c-.41-3.03-1.58-7.56-4.81-11.97-2.15-2.93-4.85-5.33-8.02-7.16l-.55-.32.05-.63c.09-1.1.64-4.89,3.95-7.64,2.86-2.38,6.09-2.56,7.34-2.53h.46s.29.36.29.36c3.16,3.79,5.88,7.97,8.07,12.4,2.1,4.25,3.73,8.75,4.83,13.37l.11.48-.31.38c-.89,1.12-2.47,2.64-4.89,3.54-1.44.54-2.8.71-3.95.71ZM184.4,41.13c1.06.07,2.45,0,3.94-.56,1.74-.65,2.94-1.68,3.71-2.54-1.06-4.3-2.59-8.49-4.55-12.46-2.05-4.15-4.58-8.07-7.51-11.64-1.22.04-3.51.36-5.56,2.07-2.26,1.88-2.95,4.36-3.15,5.65,3.17,1.92,5.88,4.4,8.06,7.37,3.22,4.39,4.54,8.88,5.07,12.11Z"/>
          </g>
          <g>
            <path class="cls-5" d="M155.18,37.31c.05.16.87,2.92-.98,5.02-1.29,1.47-3.03,1.66-3.44,1.69-1.97-2.12-4.52-4.53-7.71-6.87-3.8-2.8-7.43-4.72-10.43-6.05-.06-.63-.18-2.94,1.38-5.08,2.08-2.86,5.44-3.05,5.87-3.07,2.42,1.67,5.09,3.74,7.84,6.28,3.04,2.81,5.5,5.58,7.46,8.08Z"/>
            <path d="M150.37,45.06l-.33-.36c-2.31-2.48-4.85-4.75-7.57-6.75-3.18-2.34-6.62-4.34-10.24-5.94l-.54-.24-.05-.59c-.08-.97-.1-3.46,1.57-5.76,2.3-3.16,5.94-3.45,6.65-3.48h.33s.28.18.28.18c2.79,1.93,5.47,4.07,7.95,6.37,2.73,2.53,5.28,5.28,7.57,8.19l.11.14.06.17c.04.14,1.05,3.45-1.18,5.99-1.44,1.64-3.36,1.96-4.11,2.03l-.49.04ZM133.61,30.44c3.54,1.61,6.92,3.6,10.04,5.9,2.68,1.97,5.2,4.2,7.5,6.62.63-.12,1.57-.44,2.31-1.29,1.27-1.44.94-3.35.81-3.9-2.2-2.77-4.63-5.39-7.23-7.8-2.32-2.15-4.83-4.17-7.44-5.99-.94.09-3.26.54-4.78,2.63-1.02,1.4-1.21,2.9-1.21,3.83Z"/>
          </g>
        </g>
        <g>
          <polygon class="cls-5" points="124.08 153.27 116.46 178.22 130.37 181.84 138.94 154.79 124.08 153.27"/>
          <path d="M131.04,183.05l-15.84-4.12,8.17-26.74,16.91,1.73-9.23,29.13ZM117.73,177.51l11.97,3.12,7.91-24.97-12.81-1.31-7.07,23.16Z"/>
        </g>
        <g>
          <path class="cls-4" d="M86.78,208.01c-.65.63-1.47,1.57-2.13,2.87-1.34,2.64-1.2,5.15-1.06,6.28,3.89,2.4,11.77,6.53,22.57,7.35,12.59.95,22.17-3.15,26.3-5.22.11-1.11.18-3.38-.96-5.86-.68-1.48-1.57-2.53-2.24-3.19-14.16-.75-28.32-1.49-42.48-2.24Z"/>
          <path d="M109.91,225.65c-1.25,0-2.52-.05-3.83-.14-10.24-.77-18.17-4.5-23.02-7.49l-.41-.25-.06-.48c-.2-1.68-.16-4.23,1.17-6.85.59-1.16,1.37-2.22,2.33-3.14l.31-.3,43.3,2.28.27.27c1.02,1.02,1.84,2.19,2.44,3.48,1.15,2.48,1.2,4.84,1.04,6.38l-.06.55-.49.25c-5.16,2.58-13.12,5.46-22.99,5.46ZM84.54,216.57c4.69,2.83,12.15,6.22,21.69,6.94,10.85.81,19.65-2.13,25.26-4.86.06-1.27-.08-2.99-.91-4.79-.44-.96-1.04-1.85-1.77-2.63l-41.63-2.19c-.66.69-1.21,1.46-1.63,2.3-.98,1.94-1.11,3.85-1.01,5.23Z"/>
        </g>
        <g>
          <path class="cls-4" d="M116.46,171.17l-5.33,16.76c1.65,1.22,4.4,2.95,8.19,4,4.01,1.12,7.45.99,9.52.76,1.78-5.71,3.56-11.43,5.33-17.14-1.87.34-5.11.69-8.95-.19-4.25-.97-7.22-2.98-8.76-4.19Z"/>
          <path d="M126.03,193.86c-2.35,0-4.69-.32-6.98-.96-3.08-.86-5.94-2.26-8.52-4.16l-.58-.43,5.99-18.83,1.14.89c2.45,1.93,5.34,3.31,8.37,4,2.82.64,5.69.71,8.55.18l1.63-.3-6.02,19.35-.65.07c-.98.11-1.95.16-2.93.16ZM112.31,187.55c2.22,1.55,4.67,2.7,7.28,3.42,2.78.77,5.63,1.04,8.49.8l4.66-14.98c-2.59.29-5.19.15-7.75-.44-2.85-.65-5.59-1.86-8.01-3.53l-4.69,14.73Z"/>
        </g>
        <g>
          <path class="cls-2" d="M111.52,186.7c-.46,1.42-.93,2.85-1.39,4.27-.97-.42-8.37-3.44-15.41.45-6.54,3.62-10.04,11.72-8.34,19.93,3.02,2.09,10.41,6.61,20.92,7.21,11.19.63,19.45-3.55,22.62-5.37.24-3,.33-6.42.14-10.18-.2-3.84-.65-7.31-1.21-10.32-5.77-2-11.55-4-17.32-5.99Z"/>
          <path d="M109.55,219.63c-.76,0-1.53-.02-2.31-.06-9.7-.55-17.01-4.32-21.43-7.39l-.33-.23-.08-.39c-1.77-8.51,1.87-17.15,8.83-21.01,6.18-3.42,12.61-1.82,15.27-.89l1.38-4.24,18.84,6.52.11.57c.64,3.44,1.05,6.95,1.23,10.45.17,3.43.13,6.89-.14,10.31l-.04.53-.46.26c-3.74,2.15-11.21,5.57-20.86,5.57ZM87.29,210.76c4.24,2.88,11.07,6.29,20.07,6.8,9.87.55,17.61-2.76,21.6-4.98.23-3.16.26-6.35.1-9.52-.16-3.21-.53-6.44-1.09-9.61l-15.8-5.47-1.42,4.34-1.01-.43c-1.3-.56-8.1-3.15-14.53.41-6.1,3.38-9.32,10.92-7.92,18.46Z"/>
        </g>
        <g>
          <path class="cls-2" d="M110.13,190.97c1.42.88,4.61,3.12,6.64,7.33,1.46,3.04,1.71,5.82,1.72,7.43"/>
          <path d="M117.49,205.74c-.02-2.42-.58-4.84-1.62-7-1.73-3.58-4.36-5.74-6.27-6.92l1.05-1.71c2.13,1.32,5.08,3.73,7.02,7.75,1.17,2.42,1.8,5.13,1.82,7.85l-2.01.02Z"/>
        </g>
        <g>
          <path class="cls-2" d="M110.62,189.48c1.68.7,3.96,1.87,6.29,3.83,1.87,1.57,3.21,3.19,4.14,4.49"/>
          <path d="M120.23,198.38c-1.14-1.6-2.47-3.05-3.97-4.31-1.81-1.52-3.84-2.76-6.03-3.67l.77-1.85c2.38.99,4.59,2.33,6.55,3.99,1.63,1.37,3.08,2.94,4.31,4.68l-1.63,1.16Z"/>
        </g>
        <g>
          <path class="cls-4" d="M169.44,186.7c1.19,1.09,3.19,2.65,6.03,3.76,3.39,1.33,6.38,1.41,8.11,1.33,1.46-.86,4.32-2.81,6.53-6.41,2.25-3.66,2.68-7.14,2.78-8.83-.54-1.17-1.65-3.16-3.75-4.96-2.45-2.1-4.99-2.85-6.29-3.15-1.9.78-5.26,2.48-8.23,5.93-4.21,4.9-4.99,10.27-5.18,12.33Z"/>
          <path d="M182.65,192.83c-2.58,0-5.16-.49-7.54-1.42-2.34-.92-4.47-2.25-6.34-3.96l-.37-.34.05-.5c.26-2.76,1.31-8.1,5.42-12.89,2.31-2.69,5.29-4.83,8.6-6.2l.29-.12.31.07c1.73.39,4.3,1.29,6.72,3.36,1.68,1.44,3.07,3.27,4.01,5.3l.11.23-.02.25c-.14,2.29-.75,5.76-2.93,9.3-2.15,3.49-4.93,5.6-6.88,6.75l-.21.13h-.25c-.32.03-.65.04-.98.04ZM170.49,186.3c1.59,1.38,3.39,2.47,5.35,3.24,2.34.92,4.91,1.37,7.44,1.27,1.74-1.06,4.12-2.93,5.98-5.95,1.88-3.05,2.47-6.05,2.62-8.11-.81-1.67-1.98-3.19-3.38-4.39-1.97-1.69-4.06-2.48-5.55-2.86-2.91,1.25-5.52,3.16-7.55,5.53-3.52,4.09-4.58,8.64-4.89,11.27Z"/>
        </g>
        <g>
          <path class="cls-5" d="M154.77,155.71c.42,4.04,1.8,11.94,7.34,19.84,3.61,5.15,6.48,7.78,9.4,9.78,1.68-.85,4.93-2.77,7.59-6.51,2.35-3.31,3.18-6.53,3.51-8.34-1.65-.74-4.16-1.98-7.06-6.17-2.64-3.82-3.26-7.57-3.44-9.38-5.78.26-11.56.52-17.34.78Z"/>
          <path d="M171.44,186.5l-.49-.33c-3.53-2.41-6.42-5.41-9.66-10.03-5.26-7.5-6.99-15.19-7.52-20.32l-.11-1.06,19.36-.87.09.95c.22,2.23.97,5.58,3.26,8.9,2.86,4.14,5.32,5.24,6.64,5.83l.72.32-.14.77c-.57,3.14-1.84,6.16-3.68,8.75-2.58,3.63-5.75,5.71-7.95,6.82l-.53.27ZM155.89,156.67c.63,4.85,2.38,11.66,7.04,18.31,3.62,5.16,6.4,7.58,8.66,9.18,1.96-1.06,4.55-2.91,6.7-5.92,1.52-2.14,2.61-4.61,3.18-7.18-1.59-.77-4.03-2.25-6.75-6.18-2.23-3.23-3.14-6.49-3.49-8.9l-15.34.69Z"/>
        </g>
        <g>
          <path class="cls-4" d="M185.88,221.84c.39.84,1.09,2.02,2.31,3.08,2.61,2.27,5.79,2.3,7.12,2.31,6.29.07,12.84-6.51,16.07-11.72,8.34-13.45,1.97-29.82.87-32.54-.68-.5-2.12-1.41-4.16-1.7-2.42-.34-4.31.39-5.09.73-5.71,13.27-11.41,26.55-17.12,39.82Z"/>
          <path d="M195.41,228.24s-.08,0-.11,0c-1.48-.02-4.89-.06-7.77-2.56-1.08-.94-1.94-2.09-2.56-3.41l-.19-.41.18-.42,17.27-40.18.36-.16c1.24-.56,3.23-1.15,5.64-.81,2.1.29,3.67,1.19,4.62,1.88l.23.17.11.26c1.84,4.52,7.2,20.31-.94,33.45-3.65,5.89-10.45,12.19-16.82,12.19ZM186.98,221.81c.48.91,1.11,1.7,1.87,2.36,2.32,2.02,5.22,2.05,6.46,2.07h.09c5.37,0,11.66-5.64,15.13-11.24,7.49-12.09,2.74-26.74.9-31.37-.77-.53-1.95-1.14-3.48-1.35-1.73-.25-3.18.11-4.19.51l-16.78,39.03Z"/>
        </g>
        <g>
          <path class="cls-2" d="M184.1,223.01c7.7,3.22,16.42-4.23,20.02-8.71,10.16-12.65,3.02-30.88,2.44-32.29-1.56-1.12-3.7-2.43-6.41-3.52-2.79-1.13-5.32-1.67-7.26-1.94-3.11,5.08-6.21,10.16-9.32,15.24v3.27c-.85.58-6.94,4.92-7.5,12.7-.44,6.04,2.53,12.94,8.03,15.24Z"/>
          <path d="M188.03,224.79c-1.44,0-2.89-.26-4.31-.85h0c-6.26-2.62-9.08-10.15-8.64-16.24.53-7.31,5.67-11.77,7.5-13.14v-3.04l.15-.24,9.66-15.8.65.09c2.57.36,5.09,1.03,7.5,2,2.34.94,4.57,2.17,6.62,3.64l.24.17.11.27c.38.92,2.28,5.83,2.88,12.22.78,8.37-1.11,15.66-5.46,21.08-3.08,3.83-9.92,9.87-16.88,9.87ZM184.49,222.09c7.15,3,15.46-4.2,18.85-8.42,9.36-11.65,3.33-28.59,2.4-31.01-1.86-1.3-3.86-2.39-5.96-3.24-2.05-.83-4.19-1.42-6.38-1.78l-8.82,14.44v3.51l-.44.3c-1.09.75-6.55,4.84-7.07,11.95-.38,5.24,2.09,12.02,7.42,14.25h0Z"/>
        </g>
        <g>
          <path class="cls-2" d="M183.57,195.07c1.54-.86,4.09-2.03,7.44-2.43,4.86-.58,8.69.8,10.47,1.58"/>
          <path d="M184.06,195.94l-.98-1.75c2.44-1.37,5.07-2.22,7.81-2.55,4.68-.56,8.56.59,10.99,1.66l-.8,1.84c-2.2-.96-5.71-2-9.95-1.5-2.48.29-4.86,1.07-7.07,2.3Z"/>
        </g>
        <g>
          <path class="cls-2" d="M183.57,193.64c1.49-1.3,3.41-2.76,5.77-4.14,2.17-1.26,4.21-2.16,5.96-2.8"/>
          <path d="M184.23,194.4l-1.32-1.51c1.83-1.6,3.83-3.02,5.93-4.25,1.95-1.13,4.01-2.1,6.12-2.87l.69,1.88c-2,.73-3.96,1.65-5.8,2.72-1.99,1.16-3.88,2.51-5.62,4.03Z"/>
        </g>
        <g>
          <path class="cls-4" d="M252.89,148.61c-1.09-.37-3.46-1.34-5.12-3.73-1.69-2.43-1.79-5.06-1.82-6.34-.1-3.94,1.55-5.11.61-7.03-.93-1.89-3.63-3.03-5.73-2.52-3.22.77-4.81,5.34-4.43,8.6.38,3.19,2.53,4.03,2.08,6.69-.44,2.65-3.05,4.61-3.47,4.34-.32-.2.86-1.55.43-2.69-1.05-2.81-11.59-3.78-15.2,1.13-.82,1.11-1.73,3.14-1.82,5.38-.08,1.89.49,2.12.26,3.73-.4,2.87-2.34,3.24-2.26,5.47.05,1.36.83,2.89,2,3.73,1.17.85,2.3.69,2.43,1.3.15.72-1.36,1.14-2.17,2.69-.69,1.33-.52,2.83-.35,3.39.98,3.25,10.54,4.19,18.06,2.78,3.44-.65,9.87-2.43,16.67-8.25"/>
          <path d="M229.29,177.17c-5.59,0-11.02-1.15-11.92-4.12-.24-.79-.42-2.54.42-4.14.48-.93,1.15-1.5,1.65-1.93-.45-.15-1.02-.36-1.61-.79-1.38-1-2.35-2.81-2.41-4.51-.05-1.47.58-2.35,1.14-3.13.49-.69.96-1.33,1.12-2.51.09-.67.02-.99-.08-1.48-.11-.5-.24-1.13-.19-2.16.11-2.5,1.11-4.7,2.02-5.93,2.46-3.35,7.65-4.28,11.71-3.72,1.32.18,4.49.83,5.24,2.83.08.22.13.45.15.66.44-.58.83-1.31.96-2.12.18-1.08-.19-1.72-.74-2.7-.51-.91-1.15-2.03-1.35-3.71-.41-3.44,1.17-8.72,5.19-9.69,2.61-.63,5.75.77,6.87,3.05.67,1.36.36,2.47.03,3.64-.27.98-.58,2.1-.54,3.81.03,1.07.09,3.57,1.64,5.79,1.35,1.94,3.26,2.9,4.62,3.36l-.64,1.9c-1.65-.56-3.96-1.72-5.62-4.11-1.9-2.72-1.97-5.64-2-6.89-.05-2.01.33-3.39.61-4.4.31-1.1.42-1.58.1-2.22-.71-1.45-2.9-2.4-4.6-1.98-2.49.6-4.02,4.53-3.67,7.5.15,1.27.63,2.13,1.1,2.95.62,1.1,1.27,2.24.97,4.02-.43,2.6-2.59,4.56-3.65,5.04-.65.29-1.1.15-1.35-.01-.84-.54-.44-1.49-.25-1.95.17-.39.4-.93.28-1.24-.17-.44-1.27-1.22-3.63-1.54-3.35-.47-7.86.25-9.82,2.92-.7.95-1.54,2.78-1.63,4.83-.03.78.06,1.21.15,1.66.12.57.24,1.16.1,2.17-.23,1.67-.92,2.63-1.48,3.41-.5.69-.79,1.11-.77,1.89.04,1.1.69,2.31,1.58,2.96.43.31.87.45,1.26.58.58.19,1.38.44,1.57,1.33.2.95-.49,1.53-1.05,2-.42.35-.9.75-1.21,1.36-.55,1.06-.38,2.29-.28,2.63.66,2.17,8.98,3.58,16.92,2.08,5.73-1.08,11.33-3.85,16.21-8.03l1.3,1.52c-5.14,4.4-11.07,7.33-17.14,8.47-2.19.41-4.76.65-7.29.65Z"/>
        </g>
        <g>
          <path class="cls-4" d="M250.32,153.4c1.01-6.83,2.12-8.36,2.98-8.41,1.8-.12,3.96,6.2,4.51,11.65.81,8.06-1.67,16.96-4.25,17.08-.62.03-1.09-.46-1.64-1.03-3.22-3.35-1.83-9.06-1.59-9.97"/>
          <path d="M253.5,174.73c-1.02,0-1.7-.71-2.3-1.34-3.41-3.55-2.28-9.26-1.85-10.92l1.94.5c-.26,1-1.41,6.15,1.35,9.02.3.31.73.7.87.72.1,0,.31-.12.59-.44,1.81-2.1,3.37-9,2.71-15.54-.56-5.56-2.53-10.19-3.43-10.72-.26.23-1.16,1.45-2.06,7.53l-1.98-.29c1.19-7.99,2.58-9.18,3.9-9.27.04,0,.08,0,.11,0,3.14,0,5.06,8.58,5.46,12.55.65,6.49-.81,14.3-3.19,17.05-.62.72-1.29,1.1-2.01,1.13-.04,0-.07,0-.11,0Z"/>
        </g>
        <g>
          <path class="cls-5" d="M239.89,118.75c1.22.02,19.31.5,25.52,12.58.58,1.12,3.26,6.74,1.61,12.69-.38,1.37-1.06,3.81-3.22,5.54-1.57,1.26-3.63,1.91-4.39,2.14-2.03.64-2.32.3-3.28.83-2.55,1.41-2.96,5.15-3.02,5.87-.36,4.21,2.47,7.22,3.02,7.78,11.92-4.18,21.49-12.87,23.03-23.06,2.34-15.4-13.51-35.09-39.27-36.61v12.23Z"/>
          <path d="M255.86,167.34l-.45-.46c-.87-.89-3.68-4.14-3.3-8.56.1-1.16.65-5.07,3.53-6.66.66-.36,1.13-.43,1.63-.5.42-.06.93-.13,1.84-.41.72-.23,2.64-.82,4.06-1.97,1.91-1.53,2.52-3.72,2.88-5.03,1.54-5.56-1-10.94-1.53-11.96-6-11.67-23.88-12.03-24.64-12.04h-.99v-14.29l1.06.06c13.49.79,25.61,6.67,33.27,16.14,5.46,6.75,7.99,14.63,6.93,21.62-1.52,9.97-10.82,19.34-23.69,23.85l-.6.21ZM240.9,117.78c4.12.23,19.63,1.86,25.41,13.09.82,1.6,3.38,7.3,1.68,13.42-.4,1.44-1.14,4.12-3.56,6.06-1.72,1.38-3.9,2.06-4.72,2.32-1.07.33-1.7.42-2.17.48-.42.06-.6.08-.93.26-2.07,1.14-2.45,4.43-2.5,5.08-.26,3.03,1.37,5.42,2.31,6.52,11.86-4.35,20.37-12.95,21.75-22.04.98-6.44-1.39-13.75-6.5-20.06-7.11-8.78-18.28-14.33-30.77-15.32v10.19Z"/>
        </g>
        <g>
          <path class="cls-4" d="M228.62,148.39c.76.33,2.13.8,3.86.72,1.04-.05,1.9-.28,2.53-.5"/>
          <path d="M232.1,150.12c-1.32,0-2.65-.28-3.88-.81l.8-1.84c1.08.47,2.27.69,3.41.64.76-.04,1.51-.18,2.23-.44l.68,1.89c-.91.33-1.86.52-2.82.56-.14,0-.28,0-.42,0Z"/>
        </g>
        <g>
          <polygon class="cls-5" points="127.7 120.07 127.08 125.82 159.14 125.82 159.14 120.07 127.7 120.07"/>
          <path d="M160.14,126.82h-34.17l.83-7.75h33.34v7.75ZM128.2,124.82h29.93v-3.74h-29.53l-.4,3.74Z"/>
        </g>
        <g>
          <rect class="cls-1" x="127.08" y="131.32" width="6.21" height="6.21"/>
          <path d="M134.3,138.53h-8.22v-8.22h8.22v8.22ZM128.09,136.53h4.21v-4.21h-4.21v4.21Z"/>
        </g>
        <g>
          <rect class="cls-1" x="140.01" y="131.38" width="6.21" height="6.21"/>
          <path d="M147.22,138.59h-8.22v-8.22h8.22v8.22ZM141.01,136.59h4.21v-4.2h-4.21v4.2Z"/>
        </g>
        <g>
          <rect class="cls-1" x="152.33" y="131.32" width="6.21" height="6.21"/>
          <path d="M159.54,138.53h-8.22v-8.22h8.22v8.22ZM153.33,136.53h4.21v-4.2h-4.21v4.2Z"/>
        </g>
      </g>
    </g>
  </g>
</svg>