<svg width="83" height="73" viewBox="0 0 83 73" fill="none" xmlns="http://www.w3.org/2000/svg">
<mask id="path-1-outside-1_612_5393" maskUnits="userSpaceOnUse" x="-0.400024" y="19.3969" width="72" height="54" fill="black">
<rect fill="white" x="-0.400024" y="19.3969" width="72" height="54"/>
<path fill-rule="evenodd" clip-rule="evenodd" d="M4.79998 21.3969C3.03266 21.3969 1.59998 22.8295 1.59998 24.5968V32.5842C1.59996 32.5884 1.59995 32.5926 1.59995 32.5969V67.7968C1.59995 69.5642 3.03264 70.9968 4.79995 70.9968H66.4C68.1673 70.9968 69.6 69.5642 69.6 67.7968V32.5969C69.6 30.8295 68.1673 29.3969 66.4 29.3969H40.7434L36.8756 22.9505C36.2973 21.9866 35.2556 21.3969 34.1316 21.3969H4.79998Z"/>
</mask>
<path fill-rule="evenodd" clip-rule="evenodd" d="M4.79998 21.3969C3.03266 21.3969 1.59998 22.8295 1.59998 24.5968V32.5842C1.59996 32.5884 1.59995 32.5926 1.59995 32.5969V67.7968C1.59995 69.5642 3.03264 70.9968 4.79995 70.9968H66.4C68.1673 70.9968 69.6 69.5642 69.6 67.7968V32.5969C69.6 30.8295 68.1673 29.3969 66.4 29.3969H40.7434L36.8756 22.9505C36.2973 21.9866 35.2556 21.3969 34.1316 21.3969H4.79998Z" fill="#FFFBF2"/>
<path d="M1.59998 32.5842L3.09998 32.59V32.5842H1.59998ZM40.7434 29.3969L39.4572 30.1686L39.8941 30.8969H40.7434V29.3969ZM36.8756 22.9505L35.5893 23.7222V23.7222L36.8756 22.9505ZM3.09998 24.5968C3.09998 23.658 3.86109 22.8969 4.79998 22.8969V19.8969C2.20424 19.8969 0.0999756 22.0011 0.0999756 24.5968H3.09998ZM3.09998 32.5842V24.5968H0.0999756V32.5842H3.09998ZM3.09995 32.5969C3.09995 32.5946 3.09996 32.5923 3.09996 32.59L0.0999868 32.5784C0.0999631 32.5846 0.0999511 32.5907 0.0999511 32.5969H3.09995ZM3.09995 67.7968V32.5969H0.0999511V67.7968H3.09995ZM4.79995 69.4968C3.86107 69.4968 3.09995 68.7357 3.09995 67.7968H0.0999511C0.0999511 70.3926 2.20421 72.4968 4.79995 72.4968V69.4968ZM66.4 69.4968H4.79995V72.4968H66.4V69.4968ZM68.1 67.7968C68.1 68.7357 67.3388 69.4968 66.4 69.4968V72.4968C68.9957 72.4968 71.1 70.3926 71.1 67.7968H68.1ZM68.1 32.5969V67.7968H71.1V32.5969H68.1ZM66.4 30.8969C67.3388 30.8969 68.1 31.658 68.1 32.5969H71.1C71.1 30.0011 68.9957 27.8969 66.4 27.8969V30.8969ZM40.7434 30.8969H66.4V27.8969H40.7434V30.8969ZM35.5893 23.7222L39.4572 30.1686L42.0296 28.6251L38.1618 22.1787L35.5893 23.7222ZM34.1316 22.8969C34.7287 22.8969 35.2821 23.2102 35.5893 23.7222L38.1618 22.1787C37.3124 20.7631 35.7825 19.8969 34.1316 19.8969V22.8969ZM4.79998 22.8969H34.1316V19.8969H4.79998V22.8969Z" fill="black" mask="url(#path-1-outside-1_612_5393)"/>
<g clip-path="url(#clip0_612_5393)">
<path d="M46.4191 26.1517C48.8966 25.4739 52.3095 24.1478 55.5477 21.4069C56.4268 20.6639 57.1875 19.9032 57.8417 19.1661C58.9103 19.9476 59.9759 20.732 61.0444 21.5134C60.1031 22.7714 58.8807 24.1478 57.3089 25.4621C52.3953 29.5676 46.9667 30.6332 44.1073 30.9617C44.8769 29.3574 45.6495 27.7561 46.4191 26.1517Z" fill="#FFBF00"/>
<path d="M43.607 31.3199L46.2118 25.9031L46.342 25.8676C49.7549 24.9352 52.7859 23.3575 55.3552 21.1819C56.1574 20.5041 56.9181 19.7582 57.6196 18.9708L57.8002 18.7695L61.4617 21.4543L61.2811 21.694C60.1711 23.177 58.8983 24.5208 57.4982 25.693C52.8747 29.5558 47.6799 30.8552 44.1398 31.2607L43.604 31.3229L43.607 31.3199ZM46.6291 26.4034L44.6104 30.6007C48.047 30.1359 52.8333 28.8128 57.1194 25.2342C58.4099 24.1567 59.588 22.9254 60.627 21.5727L57.886 19.5628C57.217 20.2969 56.4978 20.9925 55.743 21.6319C53.1382 23.8371 50.0746 25.4414 46.6321 26.4034H46.6291Z" fill="black"/>
<path d="M33.0456 77.694C33.164 78.9638 31.5005 80.1626 30.5799 80.6362C30.1389 80.8641 29.3515 81.1927 27.9277 81.2578C24.3047 81.4265 21.5075 79.6742 20.8859 79.2687C18.8317 77.9278 17.7187 76.3324 17.0497 75.3556C15.4543 73.026 14.9541 70.886 14.4805 69.0596C13.9506 67.0291 13.7405 65.9783 14.146 64.7736C14.5959 63.4416 15.8154 61.781 17.5885 61.5797C18.9471 61.4258 20.0186 62.2043 20.4804 62.5358C22.9905 64.3503 23.5499 68.1361 23.6831 68.5712C23.7482 68.7844 23.8074 69.4296 24.1301 70.2111C24.1656 70.2969 24.5504 71.2086 25.2489 72.0374C26.2879 73.2717 27.3801 73.6062 29.4581 74.7932C31.7965 76.1311 32.9657 76.8149 33.0485 77.6881L33.0456 77.694Z" fill="#FFFAF0"/>
<path d="M27.4365 81.5657C24.219 81.5657 21.6941 80.1508 20.7262 79.5173C18.5802 78.1143 17.4258 76.4301 16.8071 75.5243C15.265 73.2747 14.7351 71.2293 14.2704 69.4267L14.1934 69.1337C13.637 67.0025 13.4386 65.9369 13.8649 64.6789C14.3829 63.1367 15.7267 61.4909 17.553 61.2867C19.0242 61.1239 20.1667 61.9468 20.6522 62.299C22.955 63.9655 23.6684 67.1712 23.9052 68.222C23.9318 68.3493 23.9526 68.4381 23.9674 68.4854C23.9881 68.5505 24.0088 68.6541 24.0354 68.7873C24.0946 69.0952 24.1834 69.5599 24.4054 70.0986C24.4202 70.1371 24.7962 71.0399 25.477 71.848C26.2051 72.7123 26.9777 73.1237 28.1469 73.7424C28.5731 73.9673 29.0556 74.2249 29.6062 74.5386C31.9534 75.8795 33.247 76.6195 33.3446 77.6614C33.4778 79.0763 31.7581 80.3609 30.7191 80.8967C29.9673 81.2845 29.0586 81.5005 27.9456 81.5509C27.7739 81.5597 27.6052 81.5627 27.4394 81.5627L27.4365 81.5657ZM17.9319 61.8609C17.8283 61.8609 17.7247 61.8669 17.6182 61.8787C16.0494 62.0563 14.8831 63.5097 14.4243 64.8713C14.0514 65.9783 14.2408 66.9758 14.7647 68.9857L14.8417 69.2787C15.2975 71.034 15.8126 73.0261 17.2926 75.1898C17.8905 76.0601 19.0005 77.6851 21.0488 79.0201C22.0197 79.6535 24.6334 81.1128 27.913 80.9589C29.4404 80.8878 30.1952 80.4971 30.4409 80.3698C31.2845 79.9347 32.8503 78.8217 32.7467 77.7177C32.6816 77.0132 31.5834 76.3561 29.3072 75.0537C28.7655 74.7429 28.286 74.4913 27.8627 74.2663C26.6314 73.6151 25.8203 73.1829 25.0152 72.2298C24.29 71.3685 23.8934 70.4301 23.849 70.3265C23.6033 69.7345 23.5026 69.2136 23.4434 68.8998C23.4227 68.7962 23.4079 68.7133 23.3931 68.663C23.3754 68.6068 23.3517 68.5002 23.3191 68.3522C23.0971 67.3517 22.4193 64.3148 20.2999 62.7815C19.9062 62.4973 19.0271 61.8609 17.929 61.8609H17.9319Z" fill="black"/>
<path d="M32.8238 78.4519C32.3768 79.2008 31.3467 79.3192 29.9585 79.4553C28.6738 79.5826 25.4178 79.8549 22.1293 77.78C20.0898 76.4953 19.0094 74.9177 18.2931 73.8669C16.6977 71.5373 16.1974 69.3973 15.7238 67.5709C15.1674 65.4309 14.898 64.3416 15.3894 63.2849C16.3632 61.1951 19.6814 60.0437 21.7238 61.0501C23.2926 61.8226 23.8994 63.7703 24.9265 67.0855C24.9916 67.2986 25.0508 67.9439 25.3734 68.7253C25.409 68.8112 25.7938 69.7229 26.4923 70.5517C27.845 72.1589 29.1918 72.0524 30.7014 73.3074C32.365 74.6927 33.5756 77.1909 32.8238 78.4489V78.4519Z" fill="#FF3C18"/>
<path d="M28.3955 79.8402C26.7793 79.8402 24.3758 79.5471 21.9753 78.0346C19.8855 76.7144 18.7814 75.1042 18.0503 74.0386C16.5081 71.789 15.9783 69.7436 15.5136 67.941L15.4366 67.6479C14.8801 65.5108 14.5723 64.3357 15.1199 63.1635C15.6142 62.1009 16.6828 61.2129 18.0503 60.7334C19.4001 60.2598 20.8209 60.2775 21.8539 60.7896C23.5381 61.6184 24.1686 63.646 25.2105 67.0027C25.2313 67.0678 25.252 67.1714 25.2786 67.3046C25.3378 67.6124 25.4266 68.0771 25.6486 68.6159C25.6871 68.7106 26.0571 69.5779 26.7201 70.3652C27.4513 71.2325 28.1824 71.5729 28.9579 71.934C29.5736 72.2211 30.2129 72.5201 30.8908 73.0855C32.6194 74.524 33.9218 77.1939 33.0782 78.6059C32.5454 79.4998 31.3614 79.6182 29.988 79.7514C29.6476 79.7839 29.0941 79.8402 28.3925 79.8402H28.3955ZM19.995 60.982C19.4326 60.982 18.8317 61.0856 18.2457 61.2928C17.0469 61.7161 16.0789 62.5094 15.6557 63.4151C15.2176 64.3535 15.4485 65.3451 16.0079 67.4999L16.0849 67.793C16.5407 69.5483 17.0557 71.5403 18.5357 73.7041C19.2402 74.7312 20.2999 76.2793 22.2861 77.5343C25.5539 79.5975 28.8454 79.2719 29.9258 79.1653C31.3259 79.0262 32.205 78.9107 32.5661 78.3039C33.1789 77.2768 32.1577 74.9177 30.506 73.5413C29.8873 73.0263 29.2835 72.7451 28.7004 72.4727C27.9012 72.0998 27.0724 71.715 26.2584 70.7471C25.5391 69.8916 25.1365 68.9474 25.0921 68.8438C24.8465 68.2518 24.7458 67.7279 24.6866 67.4171C24.6659 67.3135 24.6511 67.2306 24.6363 67.1803C23.6417 63.9746 23.0409 62.0387 21.5845 61.3224C21.1287 61.0975 20.5781 60.985 19.9891 60.985L19.995 60.982Z" fill="black"/>
<path d="M27.6939 68.1717C26.8622 69.7346 25.8943 70.0158 25.5687 70.0839C23.4907 70.522 21.2767 67.7484 20.6284 65.3568C20.291 64.1106 19.9417 61.3519 21.4247 60.5764C22.585 59.9696 24.1538 60.9493 24.3995 61.1062C25.4976 63.4594 26.5958 65.8156 27.691 68.1688L27.6939 68.1717Z" fill="#FF3C18"/>
<path d="M25.1306 70.4272C24.216 70.4272 23.2481 69.9299 22.3482 68.9886C21.4365 68.0325 20.6876 66.7035 20.3443 65.4366C19.9358 63.9329 19.6783 61.1594 21.2915 60.3158C22.5317 59.6676 24.1094 60.5674 24.5623 60.8605C24.6096 60.8901 24.6481 60.9345 24.6718 60.9848L27.9633 68.0473C28.0018 68.1332 27.9988 68.2309 27.9574 68.3137C27.1345 69.8559 26.1488 70.2673 25.6338 70.3769C25.4681 70.4124 25.3023 70.4272 25.1336 70.4272H25.1306ZM22.2772 60.6799C22.0285 60.6799 21.7858 60.7273 21.5638 60.8427C20.3769 61.4643 20.5248 63.8382 20.9156 65.2827C21.5638 67.6803 23.7098 70.1756 25.5065 69.7967C25.9061 69.7109 26.6669 69.3882 27.3595 68.1657L24.1686 61.3193C23.8696 61.1357 23.0527 60.6829 22.2772 60.6829V60.6799Z" fill="black"/>
<path d="M46.2916 46.6525C46.5284 48.7245 46.6941 52.9544 44.4149 57.2701C39.4569 66.6503 27.7768 67.2689 27.1197 67.2926C25.7492 67.0913 24.6155 66.1441 24.21 64.8625C23.6653 63.1368 24.7309 61.7278 24.8286 61.6065C32.6223 60.677 38.7229 56.8586 40.1496 51.5839C40.4337 50.5301 40.6113 49.1301 40.3301 47.3866C40.3361 43.0561 41.4609 39.9541 42.633 39.8445C43.7963 39.735 45.4569 42.5293 46.2916 46.6525Z" fill="#D3C0B1"/>
<path d="M27.1019 67.5916H27.0753C25.5982 67.3696 24.3609 66.3365 23.9258 64.9513C23.3397 63.0953 24.4616 61.5887 24.5918 61.4229L24.6688 61.3253L24.7901 61.3105C32.5868 60.381 38.5009 56.533 39.8595 51.5069C40.2058 50.2312 40.2621 48.8607 40.0341 47.434V47.3866C40.0341 43.0561 41.1412 39.6847 42.6034 39.5485C44.0272 39.4153 45.7381 42.4434 46.5817 46.5933V46.617C46.8925 49.3077 46.8125 53.3658 44.6754 57.4092C39.5961 67.0173 27.6377 67.5709 27.1285 67.5886H27.1019V67.5916ZM24.9885 61.8847C24.7428 62.234 24.0561 63.3913 24.4912 64.7737C24.8582 65.934 25.8942 66.8013 27.1345 66.9966C27.9248 66.9611 39.3001 66.3129 44.1485 57.1339C46.2117 53.2326 46.2916 49.3106 45.9956 46.6999C45.1135 42.3576 43.4677 40.0695 42.6597 40.1405C41.8338 40.2175 40.635 42.8341 40.6261 47.3659C40.8629 48.8666 40.7978 50.3141 40.4337 51.6638C39.0189 56.8971 32.9627 60.902 24.9885 61.8877V61.8847Z" fill="black"/>
<path d="M42.3607 52.1256C41.1915 52.4808 39.599 52.836 37.6898 52.8864C36.2039 52.9248 34.9163 52.7739 33.8951 52.5756C33.8182 52.5371 33.013 52.1256 32.8591 51.1844C32.7141 50.2934 33.2735 49.6688 33.3416 49.5978C36.3608 49.4024 39.38 49.2071 42.4022 49.0117C42.9882 49.4853 43.2783 50.2135 43.151 50.9091C43.0208 51.6313 42.491 52.0339 42.3607 52.1256Z" fill="#D3C0B1"/>
<path d="M37.2192 53.1882C36.0855 53.1882 34.9518 53.0817 33.8389 52.8685L33.7649 52.8449C33.6613 52.7946 32.7437 52.3121 32.569 51.2346C32.4062 50.2341 33.0041 49.5267 33.1285 49.3965L33.2084 49.3106L42.5028 48.7068L42.5916 48.7808C43.2635 49.3254 43.5921 50.1602 43.447 50.9623C43.3049 51.7438 42.7633 52.2055 42.5353 52.3683L42.4969 52.3979L42.4495 52.4127C40.9073 52.8833 39.3089 53.1438 37.7017 53.1853C37.5418 53.1882 37.382 53.1912 37.2221 53.1912L37.2192 53.1882ZM33.9928 52.2913C35.2093 52.5222 36.4525 52.6199 37.6809 52.5873C39.2201 52.5459 40.7475 52.3002 42.2245 51.8533C42.4081 51.7141 42.7633 51.3826 42.858 50.8528C42.9586 50.2993 42.7455 49.7191 42.2985 49.3136L33.4866 49.8849C33.3416 50.0743 33.0545 50.5361 33.1521 51.1369C33.2676 51.8533 33.8359 52.2055 33.9928 52.2913Z" fill="black"/>
<path d="M43.0918 49.0056C41.7094 49.5325 39.8121 50.0949 37.5122 50.314C35.7214 50.4856 34.1526 50.4087 32.9005 50.2577C32.8028 50.2192 31.7964 49.7871 31.533 48.6623C31.2843 47.5996 31.9059 46.7975 31.9829 46.7028C35.6148 46.2144 39.2467 45.7259 42.8786 45.2375C43.6246 45.7585 44.039 46.6139 43.9413 47.4664C43.8436 48.3515 43.2368 48.8813 43.0858 49.0027L43.0918 49.0056Z" fill="#D3C0B1"/>
<path d="M35.4728 50.7106C34.6025 50.7106 33.7323 50.6573 32.868 50.5537L32.791 50.533C32.6637 50.4827 31.5419 49.9913 31.2489 48.7304C30.9765 47.5641 31.6248 46.682 31.758 46.5163L31.832 46.4245L42.9616 44.9268L43.0563 44.9919C43.8969 45.5809 44.3528 46.54 44.2462 47.499C44.1426 48.4314 43.5388 49.0204 43.2872 49.2306L43.2487 49.2632L43.2013 49.2809C41.3809 49.9765 39.4777 50.4235 37.5448 50.61C36.8581 50.6751 36.1654 50.7076 35.4757 50.7076L35.4728 50.7106ZM32.9805 49.9706C34.4753 50.1482 35.9908 50.166 37.4856 50.0209C39.3504 49.8404 41.1856 49.4141 42.9409 48.7481C43.154 48.5616 43.5773 48.1147 43.6542 47.4368C43.7341 46.7294 43.4085 46.016 42.8047 45.5513L32.1517 46.984C31.9859 47.2267 31.6485 47.8335 31.8261 48.5972C32.0362 49.494 32.791 49.8848 32.9805 49.9706Z" fill="black"/>
<path d="M44.042 45.2465C42.2512 45.9302 39.8003 46.6554 36.8226 46.9396C34.5049 47.1616 32.4773 47.0609 30.8552 46.8656C30.7279 46.8153 29.4285 46.2558 29.0881 44.8025C28.7654 43.4261 29.5735 42.3901 29.6712 42.2687C34.3717 41.6353 39.0692 41.0048 43.7697 40.3713C44.7346 41.0462 45.2704 42.1533 45.1461 43.2573C45.0188 44.3999 44.2344 45.0866 44.042 45.2465Z" fill="#D3C0B1"/>
<path d="M34.1823 47.3628C33.0604 47.3628 31.9356 47.2948 30.8227 47.1616L30.7457 47.1408C30.5859 47.0757 29.174 46.4541 28.801 44.8705C28.4547 43.3994 29.2746 42.2894 29.4433 42.0822L29.5173 41.9904L29.6357 41.9756L43.8496 40.0635L43.9444 40.1316C45.004 40.8745 45.5812 42.0852 45.4451 43.2928C45.3148 44.4709 44.5541 45.2139 44.2344 45.4773L44.196 45.5069L44.1516 45.5247C41.8043 46.4216 39.3475 46.9958 36.8552 47.2385C35.9701 47.3244 35.0792 47.3658 34.1852 47.3658L34.1823 47.3628ZM30.9352 46.5784C32.8799 46.8093 34.8512 46.833 36.796 46.6465C39.2202 46.4127 41.606 45.8562 43.8911 44.9889C44.1723 44.7462 44.7495 44.1483 44.8531 43.2277C44.9596 42.2716 44.5186 41.3067 43.6928 40.6851L29.834 42.5499C29.6209 42.8488 29.1296 43.6806 29.3782 44.7373C29.6624 45.9509 30.7013 46.4748 30.9352 46.5784Z" fill="black"/>
<path d="M45.0662 39.5278C45.2349 37.7311 45.6049 35.0434 46.5136 31.8999C48.7692 24.1003 51.6522 22.8245 52.037 18.0885C52.4544 12.9559 49.6157 7.71372 45.7233 4.5406C39.8803 -0.224997 33.0279 0.784363 31.6515 0.988602C25.2549 1.92988 19.0271 6.25148 16.6561 12.6954C16.2032 13.9297 14.8328 17.7984 15.999 22.1644C17.3784 27.3356 21.1257 28.78 25.5568 36.5826C26.7704 38.7197 27.5963 40.5608 28.0995 41.7626C29.6712 42.3487 33.1196 43.3936 37.4383 42.6832C41.1176 42.0793 43.7312 40.4809 45.0662 39.5278Z" fill="#FFDC50"/>
<path d="M34.5107 43.2189C31.8171 43.2189 29.5646 42.6269 27.9958 42.0408L27.8744 41.9964L27.8241 41.878C27.09 40.1227 26.2405 38.3911 25.2963 36.7306C23.2746 33.1756 21.3595 30.9023 19.8203 29.076C17.9495 26.856 16.4725 25.1037 15.7088 22.2414C14.9037 19.2251 15.1287 15.978 16.3748 12.5918C18.6599 6.39058 24.6391 1.7197 31.607 0.692577C37.0001 -0.100703 42.0795 1.18394 45.9127 4.30674C50.2106 7.81138 52.7325 13.2282 52.3359 18.1092C52.1346 20.5867 51.2703 22.1319 50.178 24.0914C49.1627 25.9147 47.8959 28.1821 46.8007 31.9768C46.0873 34.4395 45.6048 36.9881 45.3651 39.5515L45.3532 39.6876L45.2437 39.7675C42.9438 41.4103 40.262 42.5203 37.4915 42.9762C36.4525 43.1479 35.4579 43.2189 34.5137 43.2189H34.5107ZM28.3214 41.5287C30.3756 42.2806 33.5813 43.0147 37.3879 42.3901C40.0252 41.9579 42.5797 40.9101 44.7819 39.362C45.0306 36.8075 45.516 34.2679 46.2264 31.814C47.3423 27.9542 48.627 25.6513 49.6571 23.8043C50.7138 21.9069 51.5485 20.4091 51.7409 18.0619C52.1227 13.3703 49.6867 8.15178 45.5367 4.7685C41.8338 1.75226 36.9172 0.512017 31.6928 1.28162C24.9351 2.27618 19.1424 6.7961 16.9343 12.796C15.7325 16.0639 15.5135 19.1896 16.286 22.0875C17.0142 24.8225 18.4557 26.5304 20.2761 28.6912C21.8301 30.5353 23.7659 32.8323 25.8143 36.4346C26.7496 38.0803 27.5932 39.7912 28.3243 41.5287H28.3214Z" fill="black"/>
<path d="M34.0757 42.9258L33.4807 42.911C33.5695 39.5692 33.2262 36.2155 32.4595 32.9417C31.9771 30.8786 31.3495 28.6823 30.6451 26.7909C27.8064 26.4209 25.2519 25.5417 24.9175 24.0677C24.7902 23.5023 24.9885 22.8126 25.4473 22.2236C25.9209 21.6197 26.5603 21.2497 27.1582 21.2349C27.17 21.2349 27.1819 21.2349 27.1907 21.2349C28.7122 21.2349 30.0531 23.5704 31.092 26.2729C32.4063 26.4209 33.8774 26.4564 35.4166 26.3409C36.9321 26.2255 38.5157 25.9443 39.8743 25.5477C40.7919 21.5457 41.7155 21.0455 42.3341 21.0248C42.7041 21.0129 43.1096 21.2201 43.45 21.5931C43.894 22.0815 44.1279 22.7297 44.0568 23.2862C43.897 24.5561 42.2453 25.4381 40.3657 26.0183C40.0579 27.4095 39.7737 29.1233 39.5517 31.1509C39.1551 34.7858 39.3001 38.5213 39.9809 42.2539L39.3978 42.3605C38.7051 38.5717 38.5601 34.7769 38.9627 31.0858C39.01 30.6448 39.2675 28.4189 39.7293 26.2018C38.1191 26.634 36.4437 26.8619 35.461 26.9359C34.203 27.0306 32.7437 27.0129 31.314 26.8678C32.0984 29.0286 32.6904 31.3285 33.0367 32.8056C33.8152 36.1326 34.1615 39.5366 34.0727 42.9288L34.0757 42.9258ZM27.1996 21.8269C27.1996 21.8269 27.1848 21.8269 27.1789 21.8269C26.7615 21.8358 26.282 22.1259 25.9209 22.5877C25.5746 23.0287 25.4147 23.5467 25.5035 23.9345C25.7137 24.8698 27.6555 25.7756 30.4201 26.1841C29.4226 23.6681 28.2919 21.8269 27.2026 21.8269H27.1996ZM42.3696 21.6168C42.3696 21.6168 42.3607 21.6168 42.3578 21.6168C41.8161 21.6345 41.1323 22.9014 40.5285 25.3405C42.1772 24.7781 43.3701 24.0351 43.4737 23.2093C43.5211 22.8274 43.3435 22.3479 43.0179 21.9927C42.8077 21.7618 42.5591 21.6197 42.3726 21.6197L42.3696 21.6168Z" fill="black"/>
<path d="M62.6131 20.6725C62.468 20.8205 62.2579 21.004 61.9737 21.1668C61.6126 21.374 61.2781 21.4658 61.0443 21.5102C60.5943 21.3474 60.0171 21.084 59.4103 20.6607C58.6733 20.1456 58.1671 19.5862 57.8445 19.1629C57.8031 18.9409 57.7587 18.5295 57.8948 18.044C58.0043 17.6504 58.1879 17.3662 58.3181 17.2004C57.3502 14.8887 57.6906 12.6184 58.993 11.6238C59.2653 11.4166 59.804 11.094 60.7039 11.0525C60.8874 10.6736 61.1183 10.0905 61.2248 9.35643C61.5267 7.25483 60.5085 5.83995 61.2959 5.01411C61.3314 4.97859 61.6096 4.69443 62.0122 4.66483C63.0452 4.59083 63.877 6.28099 64.0546 6.63619C65.0639 8.68451 64.4039 10.946 64.0516 11.9139C64.2707 12.0086 64.6643 12.2128 65.0136 12.6184C65.431 13.1038 65.5642 13.6129 65.6115 13.8556C66.3397 14.2316 66.5735 14.6992 66.6535 14.9035C67.0856 15.9987 66.3131 17.6326 64.5607 18.6656C64.5223 18.8906 64.3979 19.4204 63.9569 19.9088C63.4478 20.4712 62.8351 20.6281 62.619 20.6725H62.6131Z" fill="#FFFAF0"/>
<path d="M61.0206 21.821L60.9436 21.7944C60.3398 21.5724 59.7655 21.2764 59.2416 20.9093C58.62 20.4772 58.0724 19.9503 57.6077 19.3494L57.5633 19.2932L57.5514 19.2221C57.4745 18.8077 57.4952 18.3756 57.6077 17.9701C57.6876 17.6829 57.8119 17.4136 57.9806 17.1649C57.0571 14.8325 57.3916 12.4763 58.8154 11.3929C59.2801 11.0407 59.8484 10.8335 60.5114 10.7743C60.7216 10.3037 60.8637 9.8123 60.9347 9.31798C61.065 8.40334 60.9347 7.63078 60.8193 6.94998C60.6772 6.10046 60.5529 5.36934 61.0827 4.81286C61.1715 4.71814 61.506 4.40734 61.9914 4.37182C62.7936 4.31262 63.6017 5.05262 64.321 6.50894C65.2622 8.41814 64.8301 10.5345 64.4186 11.7689C64.7294 11.9405 65.0106 12.1655 65.2386 12.4319C65.6115 12.8641 65.7891 13.3229 65.872 13.6662C66.5173 14.0333 66.8014 14.4802 66.9287 14.7999C67.4319 16.0757 66.5321 17.8013 64.8242 18.8581C64.7442 19.2103 64.5666 19.678 64.173 20.1131C63.6875 20.6489 63.1133 20.862 62.764 20.9478C62.5716 21.1343 62.3555 21.2971 62.1246 21.4303C61.8079 21.6109 61.4646 21.7381 61.1034 21.8092L61.0235 21.824L61.0206 21.821ZM58.1227 19.0416C58.5401 19.5714 59.0285 20.0361 59.579 20.4209C60.0408 20.7436 60.541 21.007 61.0679 21.2053C61.3343 21.1461 61.5889 21.0485 61.8257 20.9123C62.0358 20.7909 62.2312 20.64 62.4029 20.4653L62.465 20.4002L62.5538 20.3825C62.8143 20.3292 63.3175 20.1664 63.7319 19.7105C64.0812 19.3257 64.2144 18.9025 64.2647 18.6153L64.2884 18.4792L64.4068 18.4111C66.0881 17.4225 66.7274 15.9069 66.3752 15.016C66.2775 14.7703 66.0437 14.4181 65.4724 14.1221L65.3451 14.0569L65.3185 13.9149C65.2652 13.6307 65.1261 13.2104 64.7886 12.8137C64.5578 12.5444 64.2618 12.3283 63.9332 12.1862L63.6757 12.0737L63.7704 11.8103C64.167 10.721 64.6969 8.61646 63.7852 6.76646C63.1991 5.58246 62.5657 4.9135 62.0299 4.96086C61.7428 4.98158 61.5326 5.1947 61.509 5.21838C61.1982 5.54398 61.2633 6.02646 61.4024 6.84638C61.5178 7.53606 61.6629 8.3915 61.5178 9.3979C61.432 10.0077 61.2455 10.6085 60.9702 11.1828L60.8933 11.3426L60.7157 11.3515C60.097 11.3781 59.579 11.5498 59.1706 11.8606C57.9333 12.8019 57.6935 14.9509 58.5874 17.085L58.6555 17.2449L58.5519 17.381C58.3802 17.606 58.2559 17.8546 58.179 18.124C58.0961 18.42 58.0783 18.7337 58.1227 19.0386V19.0416Z" fill="black"/>
<path d="M65.6086 13.8586C65.5997 14.5306 65.4665 15.5636 64.8005 16.493C64.5016 16.9104 64.0753 17.5054 63.4389 17.5054C62.9209 17.5054 62.5509 17.1087 62.5154 17.0702C62.1691 16.6884 62.1661 16.2444 62.1661 16.1467" fill="#FFFAF0"/>
<path d="M63.439 17.8014C62.8115 17.8014 62.3763 17.3574 62.2935 17.2686C61.8998 16.8364 61.8643 16.3362 61.8672 16.1408L62.4622 16.1497C62.4622 16.274 62.4829 16.5937 62.7345 16.869C62.7463 16.8838 63.0453 17.2094 63.439 17.2094C63.9215 17.2094 64.2885 16.6973 64.5579 16.3214C65.1647 15.4748 65.3008 14.5128 65.3097 13.8557L65.9047 13.8646C65.8899 14.9302 65.5939 15.9011 65.0403 16.6677C64.7177 17.1206 64.2263 17.8044 63.439 17.8044V17.8014Z" fill="black"/>
<path d="M64.5577 18.6686C64.241 18.5769 63.868 18.4141 63.7881 18.1181C63.6727 17.6859 64.2469 17.2538 64.6613 16.7387C65.0994 16.1941 65.5493 15.3179 65.6085 13.8586" fill="#FFFAF0"/>
<path d="M64.475 18.953C63.9215 18.7932 63.5959 18.5357 63.5042 18.1953C63.3739 17.7158 63.7498 17.3102 64.111 16.9166C64.2175 16.7982 64.33 16.6798 64.4306 16.5525C64.9694 15.8806 65.2683 14.9718 65.3127 13.847L65.9047 13.8707C65.8544 15.1258 65.514 16.1529 64.8924 16.9225C64.7829 17.0586 64.6615 17.1918 64.5461 17.3162C64.3063 17.5766 64.034 17.8726 64.0784 18.0354C64.0932 18.0946 64.182 18.2456 64.6438 18.3788L64.478 18.9501L64.475 18.953Z" fill="black"/>
<path d="M60.704 11.0558C60.9349 11.0558 62.1781 11.0795 63.0039 12.0444C63.7173 12.8791 64.0666 14.3503 63.3354 15.1495C62.7523 15.7859 61.7696 15.6793 61.592 15.6556C60.4702 15.5076 59.9019 14.5752 59.8308 14.4509" fill="#FFFAF0"/>
<path d="M61.9324 15.9753C61.7666 15.9753 61.6334 15.9634 61.5535 15.9516C60.328 15.7888 59.6887 14.8002 59.5732 14.6048L60.0853 14.3029C60.1771 14.4568 60.6773 15.2382 61.6304 15.3626C61.7962 15.3833 62.6428 15.4662 63.1164 14.9511C63.7202 14.291 63.4242 12.9916 62.7789 12.2398C62.0744 11.4198 61.0148 11.3547 60.704 11.3547V10.7598C61.0769 10.7598 62.3616 10.8397 63.2288 11.852C64.0517 12.814 64.3803 14.4479 63.5544 15.3507C63.0749 15.8746 62.3852 15.9753 61.9324 15.9753Z" fill="black"/>
<path d="M63.7681 11.8055L63.3041 12.978L63.8573 13.197L64.3213 12.0245L63.7681 11.8055Z" fill="black"/>
<path d="M58.5691 17.0468L58.0626 17.359L58.965 18.823L59.4715 18.5108L58.5691 17.0468Z" fill="black"/>
<path d="M63.1755 20.4832C62.9594 20.5424 62.6545 20.6016 62.2875 20.5927C61.8346 20.5809 61.4735 20.4743 61.2396 20.3826" fill="#AD82FF"/>
<path d="M62.3615 20.8917C62.3348 20.8917 62.3082 20.8917 62.2815 20.8917C61.8879 20.8828 61.5031 20.8058 61.1331 20.6637L61.3491 20.1102C61.654 20.2286 61.9707 20.2908 62.2963 20.2997C62.5657 20.3056 62.838 20.273 63.0985 20.202L63.2554 20.7733C62.9653 20.8532 62.6634 20.8946 62.3615 20.8946V20.8917Z" fill="black"/>
<path d="M62.2637 18.571C62.3496 18.3282 62.61 17.4876 62.2341 16.5789C62.0506 16.1378 61.7812 15.8359 61.5918 15.6583" fill="#FFFAF0"/>
<path d="M62.5421 18.6687L61.9827 18.4703C62.104 18.124 62.2639 17.4284 61.959 16.6914C61.8317 16.3835 61.6393 16.1083 61.3877 15.8744L61.7932 15.4423C62.107 15.7353 62.3467 16.0787 62.5066 16.4664C62.8884 17.387 62.6931 18.2424 62.5421 18.6716V18.6687Z" fill="black"/>
<path d="M61.5918 15.6554C61.4882 15.7679 61.1893 16.0609 60.6979 16.1704C60.2065 16.28 59.8129 16.1468 59.6708 16.0905" fill="#AD82FF"/>
<path d="M60.319 16.5108C59.9846 16.5108 59.7152 16.4279 59.5613 16.3687L59.7803 15.8152C59.9342 15.8774 60.251 15.9691 60.6328 15.8833C61.0117 15.7974 61.2603 15.5784 61.3728 15.457L61.8079 15.8596C61.6481 16.0342 61.2988 16.3421 60.7601 16.4634C60.6032 16.499 60.4552 16.5138 60.3161 16.5138L60.319 16.5108Z" fill="black"/>
<path d="M33.3683 47.0463C35.4136 50.3379 36.1507 52.1375 37.4738 54.2303C40.641 59.2386 43.971 63.4329 47.0968 66.8843C46.3035 69.0007 45.5102 71.12 44.7169 73.2364C40.8097 69.2286 37.681 65.6322 35.3337 62.7906C34.9164 62.2844 30.2573 56.5805 26.874 49.0443C26.0156 47.1351 24.9175 44.3912 26.1429 42.8017C26.581 42.2304 27.3299 41.7983 28.1054 41.7657C29.7571 41.6976 31.1394 43.4559 33.3742 47.0493L33.3683 47.0463Z" fill="#D3C0B1"/>
<path d="M44.8265 73.7781L44.5009 73.4436C41.2212 70.0811 38.06 66.5587 35.1 62.98C34.5849 62.3584 29.9703 56.6812 26.5959 49.1687C25.551 46.8421 24.6512 44.2432 25.9003 42.6212C26.4212 41.9433 27.2589 41.5023 28.0877 41.4697C29.8726 41.3809 31.2993 43.1599 33.62 46.8924C34.7329 48.6803 35.4581 50.033 36.1004 51.2259C36.648 52.2441 37.1216 53.1232 37.7225 54.0734C40.5375 58.5223 43.7639 62.7669 47.3129 66.686L47.4343 66.8192L44.8265 73.7781ZM28.1884 42.0588C28.1617 42.0588 28.138 42.0588 28.1114 42.0588C27.4632 42.0854 26.7794 42.4465 26.3709 42.9793C25.3142 44.3528 26.1667 46.7533 27.1376 48.92C30.4794 56.3615 35.0467 61.9796 35.5558 62.5982C38.4063 66.0466 41.4462 69.4388 44.5986 72.6888L46.7505 66.9435C43.2252 63.0363 40.0195 58.8094 37.2193 54.3842C36.6066 53.4163 36.13 52.5283 35.5765 51.5012C34.9401 50.3172 34.2179 48.9733 33.1138 47.2003C31.0004 43.7992 29.6447 42.0558 28.1854 42.0558L28.1884 42.0588Z" fill="black"/>
<path d="M50.3824 66.8575C50.5067 66.674 50.7346 66.3928 51.1046 66.156C51.3858 65.9754 51.6493 65.8866 51.8387 65.8393C49.7401 61.1713 51.9956 55.9055 56.0922 54.3278C59.4844 53.0225 63.7083 54.4107 65.9757 57.8621C63.6225 60.455 60.7187 64.1728 58.1761 69.0893C55.5594 74.1509 54.1978 78.8011 53.4519 82.285C53.1707 82.3235 49.3316 82.7853 47.153 80.0621C46.2976 78.9905 46.0223 77.8361 45.9246 77.1287C45.3918 77.4158 45.0958 77.3655 44.936 77.2915C44.2552 76.9748 44.1693 75.3675 44.711 73.2333C45.5043 71.1169 46.2976 68.9976 47.0909 66.8812C47.6503 65.9932 48.633 65.6113 49.4026 65.8896C50.0242 66.1116 50.3084 66.6947 50.3794 66.8575H50.3824Z" fill="#FF3C18"/>
<path d="M52.5018 82.6402C51.0987 82.6402 48.5798 82.3205 46.9251 80.2515C46.3183 79.4937 45.898 78.5672 45.6997 77.5579C45.3593 77.6763 45.0633 77.6763 44.8147 77.5608C43.974 77.1701 43.829 75.5244 44.4269 73.1623C44.4269 73.1504 44.4328 73.1416 44.4358 73.1297L46.8156 66.7776C46.8216 66.7598 46.8304 66.742 46.8423 66.7243C47.458 65.7445 48.5768 65.2768 49.5033 65.6113C49.9384 65.7682 50.2344 66.0701 50.4209 66.3365C50.5778 66.1737 50.7524 66.0287 50.9419 65.9073C51.0987 65.8067 51.2616 65.7238 51.4362 65.6557C50.5216 63.4091 50.5156 60.8724 51.4332 58.6464C52.3153 56.5004 53.9759 54.8251 55.9857 54.0496C59.6117 52.6554 63.9185 54.1887 66.2243 57.6992C66.2983 57.8117 66.2865 57.9627 66.1948 58.0604C63.1371 61.4288 60.5263 65.1851 58.4395 69.2255C56.2965 73.3695 54.7188 77.7828 53.742 82.3472C53.7154 82.4685 53.6147 82.5632 53.4904 82.578C53.375 82.5928 53.0109 82.6372 52.4959 82.6372L52.5018 82.6402ZM45.9276 76.8327C45.975 76.8327 46.0194 76.8445 46.0608 76.8652C46.1467 76.9096 46.2088 76.9925 46.2207 77.0902C46.3657 78.144 46.7712 79.1089 47.3869 79.8785C49.228 82.1784 52.3686 82.0837 53.2092 82.0127C54.1979 77.472 55.7815 73.0794 57.9127 68.9532C59.9876 64.9394 62.5747 61.198 65.5998 57.8354C63.4183 54.6919 59.5022 53.3332 56.1988 54.6031C54.34 55.3194 52.8037 56.8734 51.9808 58.8714C51.084 61.05 51.1313 63.5452 52.1081 65.7149C52.1436 65.7948 52.1436 65.8866 52.1051 65.9665C52.0667 66.0464 51.9956 66.1027 51.9098 66.1264C51.6789 66.1856 51.4599 66.2803 51.2615 66.4076C51.0099 66.5674 50.7939 66.7776 50.6222 67.0262C50.563 67.115 50.4594 67.1653 50.3499 67.1535C50.2433 67.1446 50.1486 67.0765 50.1042 66.9788C50.0213 66.7924 49.7756 66.3395 49.2961 66.1678C48.636 65.931 47.825 66.2862 47.3543 67.0144L44.9893 73.3221C44.4447 75.477 44.6104 76.8149 45.0574 77.0221C45.2084 77.0932 45.4659 77.0369 45.7796 76.8682C45.824 76.8445 45.8714 76.8327 45.9217 76.8327H45.9276Z" fill="black"/>
<path d="M67.2632 60.7895C67.6658 63.8738 65.1024 65.1791 61.9263 70.22C59.6323 73.8608 55.808 81.1957 53.6679 82.0127C52.9427 82.2879 52.3626 82.1192 52.3626 82.1192C51.5367 81.8735 51.1194 81.0211 50.9684 80.7132C49.3404 77.3743 54.3606 66.1323 54.3606 66.1323C56.3675 61.636 57.6432 59.6972 59.067 58.5221C59.4429 58.2113 59.8603 57.9064 60.3694 57.6489C60.692 57.4861 63.2643 56.1807 65.2238 57.2819C66.8636 58.2024 67.2011 60.3218 67.2632 60.7954V60.7895Z" fill="#FFFAF0"/>
<path d="M52.8244 82.4656C52.5047 82.4656 52.2945 82.4064 52.2797 82.4005C51.3266 82.1193 50.8589 81.1573 50.702 80.8405C49.0326 77.4158 53.8811 66.4727 54.0883 66.008C56.03 61.6597 57.3265 59.567 58.8776 58.2913C59.2061 58.0219 59.6531 57.6756 60.2332 57.3796C60.9466 57.0185 63.4212 55.9262 65.3659 57.0185C67.0679 57.9745 67.4704 60.1176 67.5533 60.751C67.8316 62.8822 66.7689 64.2231 65.1587 66.2537C64.318 67.3133 63.2732 68.6305 62.172 70.3799C61.6481 71.2146 61.0354 72.2506 60.3901 73.3488C58.105 77.2293 55.512 81.6249 53.7686 82.2909C53.4075 82.4271 53.076 82.4685 52.8184 82.4685L52.8244 82.4656ZM63.4241 57.1369C62.1602 57.1369 60.9496 57.6815 60.5026 57.9094C59.9757 58.1758 59.5584 58.4985 59.2564 58.7471C57.8031 59.9429 56.5066 62.0475 54.6329 66.2477C54.6211 66.2744 53.372 69.0864 52.336 72.2625C50.9862 76.4094 50.6073 79.2836 51.2378 80.5801C51.3769 80.8642 51.7469 81.6249 52.4484 81.8321C52.4514 81.8321 52.9516 81.9683 53.5644 81.7345C55.1154 81.1425 57.8712 76.4627 59.884 73.0469C60.5322 71.9457 61.1449 70.9038 61.6748 70.0632C62.7936 68.2872 63.8504 66.9552 64.6969 65.8866C66.2657 63.9064 67.2129 62.7135 66.9672 60.8309C66.8932 60.2656 66.538 58.3623 65.0758 57.5394C64.5548 57.2464 63.9836 57.1398 63.4212 57.1398L63.4241 57.1369Z" fill="black"/>
<path d="M66.8785 60.1472C68.6456 62.5981 65.3659 68.305 63.214 71.9754C60.5204 76.5693 56.7849 82.9392 53.4549 82.288C53.2299 82.2436 52.9073 82.1785 52.5935 81.9269C50.4979 80.2664 53.1411 74.0918 55.7696 67.9498C57.2496 64.4896 58.9427 61.124 61.6837 59.6026C62.3231 59.2474 63.8208 58.4156 65.3038 58.9366C65.3038 58.9366 66.2421 59.2652 66.8815 60.1502L66.8785 60.1472Z" fill="#FFFAF0"/>
<path d="M53.9314 82.6284C53.7538 82.6284 53.5762 82.6106 53.3986 82.5781C53.1707 82.5337 52.7889 82.4597 52.41 82.1577C50.1367 80.3581 52.7415 74.2723 55.4973 67.8313C56.8914 64.5724 58.623 60.9612 61.5386 59.3391C62.2135 58.9632 63.7912 58.087 65.4014 58.6524C65.4429 58.6672 66.4374 59.0224 67.1212 59.9725C69.0393 62.6277 65.5524 68.5713 63.4715 72.1233C60.8519 76.5929 57.3117 82.6284 53.9314 82.6284ZM64.3003 59.0638C63.2584 59.0638 62.2964 59.5966 61.8257 59.8601C59.0759 61.3904 57.3976 64.898 56.0419 68.0652C53.6117 73.7425 50.8589 80.1745 52.777 81.693C53.0434 81.9032 53.3128 81.9565 53.5111 81.9949C53.6502 82.0216 53.7893 82.0364 53.9314 82.0364C56.9713 82.0364 60.55 75.9299 62.9565 71.8273C64.8361 68.6246 68.3289 62.6632 66.6387 60.3218C66.0674 59.5285 65.212 59.2177 65.2031 59.2148C64.9012 59.1082 64.5993 59.0668 64.3003 59.0668V59.0638Z" fill="black"/>
<path d="M50.3823 66.8575C50.3734 67.2098 50.3409 67.6035 50.2639 68.0297C50.0893 69.0243 49.7518 69.8264 49.441 70.4066" fill="#FF3C18"/>
<path d="M49.7046 70.5486L49.1807 70.2704C49.5655 69.5452 49.8319 68.7756 49.971 67.9793C50.0361 67.6093 50.0746 67.2304 50.0835 66.8516L50.6784 66.8664C50.6666 67.2748 50.6281 67.6833 50.5571 68.0829C50.4061 68.9384 50.119 69.7672 49.7046 70.5486Z" fill="black"/>
<path d="M51.744 65.6705C51.8151 65.8511 51.9246 66.082 52.0992 66.3217C52.3153 66.6177 52.5462 66.822 52.7208 66.9493" fill="#FF3C18"/>
<path d="M52.5462 67.189C52.2827 66.9936 52.0519 66.7598 51.8595 66.4964C51.6996 66.2744 51.5664 66.0316 51.4688 65.7771L52.0223 65.564C52.1022 65.7712 52.2087 65.9695 52.339 66.15C52.4959 66.3661 52.6823 66.5556 52.8984 66.7124L52.5462 67.189Z" fill="black"/>
<path d="M30.5149 21.7116C30.3284 21.0752 28.656 15.247 29.6979 13.989C30.0768 13.5302 30.5001 13.471 30.5001 13.471C31.1157 13.3851 31.6545 13.9327 31.8913 14.1725C33.3298 15.6318 33.7087 20.9686 33.7501 21.5991" fill="#FFFAF0"/>
<path d="M30.2306 21.7944C29.7778 20.2493 28.3866 15.1048 29.4699 13.7995C29.911 13.2667 30.4053 13.1838 30.4586 13.1779C31.2222 13.0683 31.8379 13.6959 32.1014 13.9652C33.5695 15.4571 33.978 20.5719 34.0461 21.5813L33.4541 21.6198C33.2765 18.9321 32.7022 15.4215 31.6781 14.3826C31.4768 14.1783 31.0062 13.7047 30.5385 13.7669C30.5296 13.7669 30.2188 13.8261 29.9228 14.1813C29.2598 14.9805 29.911 18.6035 30.796 21.6316L30.2247 21.7974L30.2306 21.7944Z" fill="black"/>
<path d="M32.7377 21.3592L32.4743 20.3943C32.4329 20.2433 32.2967 20.1368 32.1398 20.1338C31.8024 20.1279 31.4649 20.122 31.1305 20.119C31.0061 20.119 30.9529 19.9592 31.0535 19.8822C32.0214 19.1126 32.1753 17.8339 31.6455 17.162C31.2193 16.6203 30.3135 16.4249 29.4521 16.7328L30.571 21.6641C30.8611 21.5576 31.237 21.448 31.6869 21.3888C32.0954 21.3356 32.4536 21.3385 32.7407 21.3622L32.7377 21.3592Z" fill="black"/>
<path d="M36.6362 20.8414C36.4497 20.205 34.7773 14.3767 35.8192 13.1187C36.1981 12.6599 36.6214 12.6007 36.6214 12.6007C37.2371 12.5149 37.7758 13.0625 38.0126 13.3022C39.4511 14.7615 39.83 20.0984 39.8715 20.7289" fill="#FFFAF0"/>
<path d="M36.3519 20.9242C35.899 19.3791 34.5108 14.2316 35.5912 12.9292C36.0322 12.3964 36.5266 12.3135 36.5798 12.3076C37.3435 12.1981 37.9592 12.8256 38.2226 13.095C39.6938 14.5898 40.0993 19.7017 40.1674 20.7111L39.5754 20.7495C39.3978 18.0619 38.8265 14.5543 37.7994 13.5123C37.5981 13.3081 37.1274 12.8345 36.6598 12.8967C36.6509 12.8967 36.3401 12.9559 36.0441 13.3111C35.384 14.1103 36.0322 17.7333 36.9173 20.7614L36.346 20.9271L36.3519 20.9242Z" fill="black"/>
<path d="M38.8591 20.489L38.5956 19.524C38.5542 19.3731 38.418 19.2665 38.2612 19.2636C37.9237 19.2576 37.5863 19.2517 37.2518 19.2488C37.1275 19.2488 37.0742 19.0889 37.1748 19.012C38.1428 18.2424 38.2967 16.9636 37.7668 16.2917C37.3406 15.75 36.4348 15.5547 35.5735 15.8625L36.6924 20.7939C36.9824 20.6873 37.3584 20.5778 37.8083 20.5186C38.2168 20.4653 38.5749 20.4683 38.862 20.492L38.8591 20.489Z" fill="black"/>
<path d="M34.286 21.9279C33.8331 21.6763 32.8652 21.2323 31.6279 21.4336C30.882 21.5549 30.2989 21.8657 29.9141 22.1203" fill="#FFDC50"/>
<path d="M30.0827 22.3689L29.7542 21.8746C30.3314 21.4928 30.947 21.2471 31.5834 21.1435C32.803 20.9452 33.8064 21.3211 34.431 21.6704L34.1409 22.1884C33.5962 21.8835 32.7289 21.5579 31.6752 21.7296C31.1217 21.8184 30.5859 22.0344 30.0797 22.3689H30.0827Z" fill="black"/>
<path d="M40.4071 21.0603C39.9542 20.8087 38.9863 20.3647 37.749 20.566C37.0031 20.6874 36.42 20.9982 36.0352 21.2527" fill="#FFDC50"/>
<path d="M36.201 21.4984L35.8724 21.0041C36.4496 20.6223 37.0653 20.3766 37.7017 20.273C38.9212 20.0747 39.9247 20.4506 40.5492 20.7999L40.2592 21.3179C39.7145 21.013 38.8472 20.6874 37.7935 20.8591C37.24 20.9479 36.7042 21.164 36.198 21.5014L36.201 21.4984Z" fill="black"/>
<path d="M34.5967 20.5512C34.6381 20.5009 35.0288 20.045 35.6623 20.0776C35.7096 20.0776 36.2957 20.119 36.6361 20.6015C37.018 21.1432 36.9084 21.975 36.3845 22.416C35.8251 22.8896 35.0851 22.6705 35.0318 22.6528" fill="#FFDC50"/>
<path d="M35.5053 23.0169C35.2123 23.0169 34.9903 22.9517 34.9429 22.9369L35.1205 22.3716C35.1472 22.3805 35.751 22.564 36.192 22.191C36.5916 21.8506 36.6864 21.1905 36.3933 20.7732C36.1299 20.4002 35.6533 20.3736 35.6474 20.3736C35.1531 20.3499 34.8571 20.6992 34.8216 20.7406L34.3657 20.3617C34.4516 20.2581 34.9133 19.7431 35.674 19.7816C35.751 19.7845 36.4525 19.8319 36.8758 20.4298C37.3464 21.0958 37.2073 22.1081 36.5739 22.6439C36.2216 22.9399 35.822 23.0169 35.5024 23.0169H35.5053Z" fill="black"/>
<path d="M35.7362 9.56962C35.6977 9.52818 35.31 9.07826 35.4521 8.48034C35.5557 8.03634 35.9079 7.68706 36.3637 7.57458C36.9261 7.77882 37.5921 8.07778 38.2996 8.51291C39.232 9.08714 39.9305 9.71466 40.4278 10.2356C40.4249 10.4132 40.3893 10.798 40.1437 11.1976C39.8417 11.686 39.4037 11.8873 39.2468 11.9524C38.9182 11.5351 38.3943 10.9667 37.6247 10.4547C36.9084 9.9781 36.2335 9.71762 35.7451 9.57258L35.7362 9.56962Z" fill="#FFBF00"/>
<path d="M39.1461 12.3108L39.007 12.1362C38.566 11.5767 38.045 11.0942 37.453 10.7006C36.8965 10.3306 36.2927 10.0464 35.6533 9.85401L35.5734 9.83033L35.5172 9.76817C35.4639 9.70601 34.9932 9.15249 35.1649 8.41249C35.2952 7.85897 35.7273 7.42681 36.2927 7.28769L36.3815 7.26697L36.4673 7.29657C37.16 7.54817 37.8289 7.87377 38.4565 8.25857C39.2557 8.74993 39.9927 9.34489 40.6439 10.0286L40.7297 10.1174V10.2418C40.7209 10.517 40.6587 10.9344 40.3982 11.3547C40.0726 11.8786 39.6079 12.1273 39.3622 12.2279L39.155 12.3138L39.1461 12.3108ZM35.9138 9.31529C36.5768 9.52249 37.2044 9.82145 37.7845 10.2062C38.3617 10.591 38.8797 11.0528 39.3237 11.5826C39.5013 11.479 39.7204 11.3103 39.8891 11.041C40.046 10.7923 40.1022 10.5407 40.1229 10.3483C39.528 9.74153 38.8649 9.21169 38.1427 8.76769C37.5773 8.41841 36.9735 8.12537 36.3519 7.89153C36.047 7.99513 35.8132 8.24673 35.7421 8.55161C35.6593 8.90385 35.828 9.19393 35.9138 9.31529Z" fill="black"/>
<path d="M26.9036 11.4967C26.6165 11.8519 26.5662 12.3432 26.7764 12.7487C26.9806 13.1424 27.4009 13.3851 27.8479 13.3644C28.3274 13.0625 28.8691 12.7517 29.47 12.4557C30.3432 12.0265 31.1631 11.7127 31.8942 11.4819C31.9268 11.4256 32.1991 10.952 31.983 10.4015C31.761 9.83611 31.2164 9.67923 31.1572 9.66443C30.5918 9.74139 29.8577 9.89531 29.0437 10.2298C28.0965 10.6175 27.3832 11.1089 26.9007 11.4996L26.9036 11.4967Z" fill="#FFBF00"/>
<path d="M27.7975 13.6604C27.2617 13.6604 26.7615 13.3614 26.5129 12.8819C26.2494 12.3728 26.3116 11.7541 26.6727 11.3072L26.7171 11.2628C27.389 10.7181 28.1349 10.2771 28.9341 9.9515C29.6327 9.66438 30.3697 9.46902 31.1216 9.36838L31.1808 9.3595L31.24 9.3743C31.3643 9.40686 31.9948 9.6111 32.2641 10.2919C32.5246 10.9549 32.2168 11.5262 32.1517 11.6328L32.0925 11.7305L31.9859 11.763C31.1689 12.0205 30.3668 12.3432 29.6031 12.7191C29.0585 12.9885 28.5227 13.2874 28.0077 13.613L27.9396 13.6545H27.8597C27.8389 13.6574 27.8182 13.6604 27.7975 13.6604ZM27.1167 11.7038C26.9184 11.9643 26.8888 12.3165 27.0397 12.6096C27.1789 12.8789 27.4571 13.0536 27.759 13.0654C28.2681 12.7457 28.798 12.4527 29.3367 12.1863C30.0915 11.8163 30.8818 11.4966 31.684 11.2361C31.7432 11.0941 31.8261 10.8158 31.7077 10.508C31.5685 10.1557 31.2607 10.0107 31.1334 9.96334C30.4556 10.061 29.7925 10.2416 29.1591 10.4991C28.425 10.801 27.7353 11.2065 27.1167 11.7038Z" fill="black"/>
<path d="M12.5714 45.655C12.5566 45.6609 12.7697 46.1316 12.9266 46.6289C13.1604 47.3659 13.2907 47.7773 13.1279 48.1533C12.9059 48.6713 12.2073 48.914 11.6804 48.9613C10.7688 49.0442 10.4195 48.3782 9.69724 48.6239C9.30948 48.7571 9.28284 48.9909 8.78852 49.1271C8.30604 49.2603 7.89164 49.1626 7.7466 49.1271C7.20788 48.9969 6.8586 48.6949 6.68396 48.541C6.12452 48.0467 6.18076 47.7152 5.79596 47.579C5.3342 47.4162 5.03524 47.8484 4.6534 47.7478C3.67956 47.4873 3.51972 45.1755 3.51084 45.0245C3.3954 43.1094 4.05548 39.4242 7.07172 38.3379C9.14964 37.592 11.0263 38.551 11.2453 38.6694C11.5472 38.9329 12.0031 39.3265 12.5596 39.8001C13.8442 40.8924 13.7643 40.7917 13.8945 40.9249C15.0696 42.1445 15.1496 43.8169 15.2058 45.0009C15.262 46.1612 15.0489 46.5401 14.8299 46.7591C14.5428 47.0462 14.0514 47.2179 13.634 47.0877C12.8674 46.8479 12.5921 45.6461 12.5684 45.658L12.5714 45.655Z" fill="#FFFAF0"/>
<path d="M8.27927 49.4941C7.99215 49.4941 7.77311 49.4409 7.67839 49.4172C7.05975 49.2662 6.66015 48.914 6.49143 48.766C6.19543 48.5055 6.05039 48.2805 5.94383 48.1148C5.83727 47.949 5.80175 47.8987 5.69815 47.8602C5.56199 47.8129 5.45247 47.8543 5.26895 47.9313C5.08247 48.0112 4.85159 48.1089 4.57631 48.0349C3.43375 47.73 3.24135 45.4893 3.21471 45.0423C3.09927 43.1361 3.73567 39.2229 6.97095 38.0597C9.10807 37.293 11.0232 38.2136 11.3843 38.406L11.4405 38.4445C11.7425 38.7079 12.1953 39.0986 12.7548 39.5722C13.4681 40.179 13.7582 40.4158 13.9003 40.5313C14.0276 40.6349 14.0453 40.6497 14.1105 40.7177C15.3625 42.0172 15.4484 43.8021 15.5046 44.9861C15.5668 46.2648 15.3063 46.7058 15.0429 46.9663C14.6551 47.357 14.0394 47.5198 13.551 47.3689C13.5125 47.357 13.477 47.3452 13.4415 47.3304C13.5214 47.6915 13.5303 47.9816 13.403 48.2717C13.1277 48.911 12.3197 49.2011 11.7099 49.2573C11.1949 49.3017 10.8308 49.1449 10.5377 49.0205C10.224 48.8873 10.0493 48.8193 9.79479 48.9081C9.66751 48.9525 9.59943 49.0057 9.50175 49.0827C9.36559 49.1922 9.19687 49.3254 8.86831 49.4172C8.65519 49.4764 8.45391 49.4971 8.27927 49.4971V49.4941ZM5.58271 47.2475C5.68039 47.2475 5.78399 47.2623 5.89351 47.3008C6.19247 47.4073 6.31679 47.6027 6.44111 47.7921C6.53879 47.9431 6.64831 48.1118 6.88215 48.319C7.03015 48.4493 7.34095 48.7216 7.81751 48.84C7.93591 48.8696 8.29703 48.9584 8.71143 48.84C8.92455 48.7808 9.01631 48.7068 9.13175 48.615C9.24719 48.5233 9.37743 48.4197 9.60239 48.3427C10.0849 48.1769 10.4519 48.3338 10.7716 48.4729C11.0409 48.5884 11.2925 48.6979 11.6566 48.6653C12.1213 48.6239 12.6956 48.4078 12.8554 48.0378C12.9679 47.7744 12.8732 47.4429 12.6453 46.7206C12.5801 46.5164 12.5061 46.3181 12.444 46.1553C12.4233 46.1079 12.4055 46.0605 12.3907 46.0191C12.3848 46.0013 12.3789 45.9865 12.37 45.9688C12.2841 45.7497 12.1865 45.5041 12.4499 45.3827L12.5683 45.3294L12.6897 45.3827C12.814 45.436 12.8495 45.5396 12.888 45.6461C13.1159 46.3121 13.3971 46.6999 13.7257 46.8035C14.0424 46.9041 14.4242 46.7473 14.6225 46.5489C14.7261 46.4453 14.9689 46.2026 14.9097 45.0157C14.8534 43.8553 14.7794 42.2688 13.6813 41.1321C13.6339 41.0818 13.6191 41.07 13.5244 40.993C13.3823 40.8776 13.0893 40.6378 12.37 40.0281C11.8283 39.5663 11.3813 39.1815 11.0794 38.9181C10.6917 38.7168 9.02519 37.9531 7.17519 38.6191C4.26847 39.664 3.70311 43.2545 3.80967 45.0068C3.86295 45.8741 4.15895 47.3097 4.73319 47.4606C4.80719 47.4784 4.89895 47.4458 5.04103 47.3837C5.18607 47.3215 5.36959 47.2445 5.58863 47.2445L5.58271 47.2475Z" fill="black"/>
<path d="M8.79144 45.803C8.76184 46.0516 8.68489 46.9337 9.25321 47.7507C9.56401 48.1947 9.94288 48.4463 10.1767 48.5735" fill="#FFFAF0"/>
<path d="M10.0376 48.834C9.62619 48.6091 9.27395 48.2953 9.01347 47.9194C8.41555 47.064 8.45403 46.1286 8.49843 45.7645L9.08747 45.8385C9.05195 46.1316 9.01939 46.8923 9.49891 47.579C9.70907 47.878 9.99323 48.1325 10.3218 48.3101L10.0376 48.8311V48.834Z" fill="black"/>
<path d="M5.81654 45.7053C5.7455 45.8119 5.4939 46.2174 5.56198 46.7798C5.6271 47.3392 5.9675 47.6767 6.05926 47.7655" fill="#FFFAF0"/>
<path d="M5.85499 47.9786C5.70107 47.8365 5.33995 47.4369 5.26595 46.8124C5.19195 46.1878 5.45243 45.7142 5.56787 45.5396L6.06219 45.8681C5.98227 45.9865 5.80171 46.3121 5.85499 46.7443C5.90531 47.1735 6.15395 47.4488 6.26051 47.5464L5.85499 47.9816V47.9786Z" fill="black"/>
<path d="M7.13977 40.5906C6.97697 40.5344 6.02385 40.1821 5.69529 39.2409C5.53545 38.7821 5.52361 38.1901 5.76337 37.7609C6.66913 36.1388 11.4969 36.2809 12.4737 38.2256C12.4915 38.2641 12.8615 39.0248 12.5211 39.7559C12.1392 40.5788 11.0115 41.0405 9.66465 40.8896" fill="#FFFAF0"/>
<path d="M10.1709 41.2152C9.99622 41.2152 9.81566 41.2033 9.62918 41.1856L9.6943 40.5965C10.8901 40.7327 11.9173 40.342 12.2488 39.6316C12.53 39.0248 12.2103 38.3677 12.2073 38.3617C11.7367 37.4234 10.1886 36.9765 8.8655 36.9469C7.49502 36.9232 6.35838 37.305 6.02094 37.9089C5.8463 38.2256 5.82558 38.7229 5.97358 39.1461C6.24294 39.9128 7.00958 40.2354 7.2375 40.3153L7.03918 40.8748C6.74614 40.7712 5.76638 40.3568 5.41118 39.3415C5.24838 38.8768 5.18622 38.1812 5.49998 37.6188C6.04462 36.6449 7.59566 36.3312 8.87438 36.3519C10.2656 36.3815 12.1126 36.8551 12.7342 38.0924C12.752 38.1279 13.1901 39.01 12.7845 39.8802C12.3938 40.7179 11.3963 41.2152 10.1649 41.2152H10.1709Z" fill="black"/>
<path d="M21.3507 28.7504C19.9802 29.2033 17.8668 30.1002 15.7859 31.9028C12.7371 34.5402 11.4643 37.6393 10.9581 39.143C10.7509 39.2643 9.97542 39.6847 8.95718 39.51C7.81758 39.3147 7.19894 38.5125 7.07166 38.3379C7.2463 37.0828 8.04254 32.4978 12.1007 28.8836C15.5846 25.7815 19.4445 25.2043 20.8149 25.0623C20.9866 25.2191 21.626 25.8378 21.7533 26.8738C21.8717 27.8299 21.478 28.5403 21.3507 28.7504Z" fill="#FFBF00"/>
<path d="M9.45434 39.8504C9.2797 39.8504 9.09618 39.8356 8.90674 39.803C7.7405 39.6018 7.06858 38.8351 6.83178 38.5154L6.76074 38.4178L6.7785 38.2994C7.02122 36.5589 8.00986 32.1337 11.9023 28.6646C15.1967 25.7312 18.8819 24.9646 20.7852 24.7692L20.9184 24.7544L21.0161 24.8432C21.2825 25.0859 21.9159 25.7667 22.0491 26.8353C22.1675 27.7973 21.8242 28.5432 21.6051 28.9014L21.5489 28.9961L21.4453 29.0316C19.4177 29.7035 17.5795 30.7454 15.9811 32.1248C13.2402 34.4958 11.8904 37.3018 11.2422 39.2347L11.2067 39.3413L11.109 39.3975C10.7952 39.581 10.2091 39.8474 9.45434 39.8474V39.8504ZM7.38234 38.255C7.6221 38.551 8.1549 39.069 9.00738 39.217C9.77994 39.3472 10.4075 39.0986 10.7153 38.9387C11.402 36.9378 12.8021 34.0932 15.5934 31.6778C17.2214 30.2689 19.0921 29.2033 21.1523 28.5047C21.3269 28.185 21.5489 27.6197 21.4601 26.9093C21.3654 26.1456 20.9569 25.6246 20.7112 25.373C18.8435 25.5832 15.3921 26.3528 12.2989 29.1056C8.64034 32.3616 7.64874 36.4997 7.3853 38.255H7.38234Z" fill="black"/>
<path d="M12.5654 46.4808C12.4174 46.1671 12.3256 45.8356 12.2901 45.4952C12.222 44.8203 12.3996 44.2668 12.5594 43.9175L13.0982 44.1661C12.9679 44.4473 12.8258 44.8943 12.8791 45.436C12.9058 45.7083 12.9798 45.9747 13.1011 46.2263L12.5654 46.4808Z" fill="black"/>
</g>
<path d="M16.5812 39.8469C15.0281 39.8469 13.6192 40.757 12.9806 42.1726L2.15352 66.1726C0.974168 68.7868 2.88614 71.7469 5.75409 71.7469H66.6187C68.1717 71.7469 69.5806 70.8369 70.2193 69.4212L81.0463 45.4212C82.2257 42.807 80.3137 39.8469 77.4458 39.8469H16.5812Z" fill="#FFFBF2" stroke="black" stroke-width="1.5"/>
<mask id="path-78-outside-2_612_5393" maskUnits="userSpaceOnUse" x="0.55188" y="60.1969" width="75" height="13" fill="black">
<rect fill="white" x="0.55188" y="60.1969" width="75" height="13"/>
<path fill-rule="evenodd" clip-rule="evenodd" d="M72.6571 62.1969L69.5371 69.1128C69.0197 70.2597 67.8783 70.9969 66.6202 70.9969H5.75558C3.43218 70.9969 1.88324 68.5989 2.83866 66.481L4.77134 62.1969H72.6571Z"/>
</mask>
<path fill-rule="evenodd" clip-rule="evenodd" d="M72.6571 62.1969L69.5371 69.1128C69.0197 70.2597 67.8783 70.9969 66.6202 70.9969H5.75558C3.43218 70.9969 1.88324 68.5989 2.83866 66.481L4.77134 62.1969H72.6571Z" fill="#FFDD6A"/>
<path d="M72.6571 62.1969L74.0244 62.8137L74.9793 60.6969H72.6571V62.1969ZM69.5371 69.1128L68.1698 68.496V68.496L69.5371 69.1128ZM2.83866 66.481L1.47136 65.8642L1.47136 65.8642L2.83866 66.481ZM4.77134 62.1969V60.6969H3.80246L3.40404 61.5801L4.77134 62.1969ZM71.2897 61.5801L68.1698 68.496L70.9044 69.7296L74.0244 62.8137L71.2897 61.5801ZM68.1698 68.496C67.8949 69.1052 67.2886 69.4969 66.6202 69.4969V72.4969C68.4681 72.4969 70.1445 71.4141 70.9044 69.7296L68.1698 68.496ZM66.6202 69.4969H5.75558V72.4969H66.6202V69.4969ZM5.75558 69.4969C4.52127 69.4969 3.6984 68.223 4.20597 67.0978L1.47136 65.8642C0.0680768 68.9748 2.34309 72.4969 5.75558 72.4969V69.4969ZM4.20597 67.0978L6.13865 62.8137L3.40404 61.5801L1.47136 65.8642L4.20597 67.0978ZM4.77134 63.6969H72.6571V60.6969H4.77134V63.6969Z" fill="black" mask="url(#path-78-outside-2_612_5393)"/>
<defs>
<clipPath id="clip0_612_5393">
<rect width="64.8" height="70.4" fill="white" transform="translate(3.19995 0.4646)"/>
</clipPath>
</defs>
</svg>
