<?xml version="1.0" encoding="UTF-8"?>
<svg id="Capa_2" xmlns="http://www.w3.org/2000/svg" viewBox="0 0 151.68 150.51">
  <defs>
    <style>
      .cls-1 {
        fill: #fffaf0;
      }

      .cls-2 {
        fill: #d3c0b1;
      }

      .cls-3 {
        fill: #ff3c18;
      }

      .cls-4 {
        fill: #ffdc50;
      }
    </style>
  </defs>
  <g id="Capa_1-2" data-name="Capa_1">
    <g>
      <g>
        <path class="cls-4" d="M91.9,14.19c12.47-15.41,34.62-17.22,47.87-5.94,11.16,9.51,14.38,26.91,6.68,41.35-2.79-5.33-9.07-15.6-21.15-23.91-13.73-9.44-27.35-11.12-33.4-11.5Z"/>
        <path d="M146.44,51.76l-.88-1.69c-3.43-6.57-9.83-15.99-20.83-23.55-12.25-8.42-24.65-10.81-32.89-11.33l-1.94-.12,1.22-1.51c6.26-7.74,15.12-12.5,24.94-13.41,9.02-.84,17.9,1.84,24.36,7.34,11.8,10.05,14.71,27.97,6.91,42.59l-.89,1.68ZM93.94,13.35c8.43.78,20.24,3.49,31.92,11.52,10.42,7.16,16.83,15.94,20.55,22.57,6.27-13.46,3.35-29.36-7.29-38.42-6.05-5.15-14.38-7.66-22.88-6.87-8.64.8-16.49,4.76-22.3,11.2Z"/>
      </g>
      <g>
        <ellipse class="cls-4" cx="118.55" cy="32.82" rx="10.8" ry="32.34" transform="translate(30.85 119.08) rotate(-60)"/>
        <path d="M140.18,52.49c-7.15,0-17.95-3.92-27.53-9.45-7.57-4.37-14.13-9.48-18.47-14.38-4.58-5.17-6.18-9.61-4.5-12.51,1.67-2.9,6.32-3.74,13.09-2.36,6.41,1.31,14.11,4.44,21.69,8.81,7.57,4.37,14.13,9.48,18.47,14.38,4.58,5.17,6.18,9.61,4.5,12.51-1.2,2.08-3.8,2.99-7.25,2.99ZM96.95,15.14c-2.83,0-4.77.68-5.54,2.02-1.19,2.06.36,5.77,4.27,10.18,4.2,4.74,10.58,9.7,17.97,13.97,12.84,7.41,29.15,12.19,32.04,7.19,1.19-2.06-.36-5.77-4.27-10.18-4.2-4.74-10.58-9.7-17.98-13.97-7.39-4.27-14.88-7.31-21.08-8.58-2.04-.42-3.86-.62-5.42-.62Z"/>
      </g>
      <g>
        <path class="cls-3" d="M138.08,94.38c-4.55,33.54-37.28,58.83-71.56,54.68-31.59-3.83-55.84-31.61-56.2-59.06-.56-41.62,53.86-77.04,92.51-60.56,23.03,9.82,38.99,37.43,35.25,64.94Z"/>
        <path d="M73.95,150.51c-2.5,0-5.02-.15-7.56-.46-15.24-1.85-29.6-9.3-40.42-20.99-10.41-11.23-16.48-25.47-16.66-39.06-.26-19.53,11.39-39.11,31.17-52.37,20.17-13.52,44.21-17.02,62.73-9.12,24.15,10.3,39.57,38.67,35.86,66h0c-4.32,31.81-33.25,55.99-65.12,55.99ZM81.87,26.35c-13.33,0-27.57,4.44-40.27,12.95-19.21,12.88-30.54,31.83-30.28,50.68.18,13.1,6.05,26.85,16.13,37.72,10.5,11.34,24.42,18.57,39.2,20.36,33.66,4.08,65.93-20.57,70.45-53.82h0c3.59-26.47-11.3-53.93-34.65-63.88-6.31-2.69-13.3-4.01-20.55-4.01Z"/>
      </g>
      <g>
        <path class="cls-4" d="M4.25,51.35c-8.23-18.04.05-38.67,16.06-45.49,13.49-5.74,30.5-.85,39.99,12.49-6.02.11-18.01,1.15-30.84,8.25-14.58,8.07-22.16,19.51-25.21,24.75Z"/>
        <path d="M4.14,53.53l-.81-1.77c-4.13-9.05-4.44-19.11-.86-28.3C5.75,15.01,12.11,8.26,19.92,4.94c14.27-6.07,31.59-.68,41.2,12.83l1.1,1.55-1.9.04c-7.41.14-18.69,1.66-30.37,8.12-13.01,7.2-20.68,17.23-24.83,24.37l-.97,1.68ZM32.21,4.46c-3.92,0-7.82.75-11.51,2.32-7.31,3.11-13.28,9.46-16.36,17.4-3.14,8.09-3.1,16.88.06,24.96,4.47-7.19,12.16-16.55,24.57-23.42,11.06-6.12,21.78-7.94,29.37-8.31-6.59-8.29-16.39-12.95-26.13-12.95Z"/>
      </g>
      <g>
        <ellipse class="cls-4" cx="32.96" cy="36.13" rx="32.34" ry="9.42" transform="translate(-14.46 24.18) rotate(-33.48)"/>
        <path d="M10.37,56.65c-2.42,0-4.25-.65-5.22-2.12-3.74-5.65,8.58-18.18,22.06-27.09,13.48-8.92,29.83-15.35,33.57-9.7h0c3.74,5.65-8.58,18.18-22.06,27.09-9.97,6.59-21.5,11.82-28.34,11.82ZM55.6,17.61c-5.34,0-15.68,3.82-27.28,11.5-15.4,10.19-23.69,20.99-21.49,24.31,2.2,3.32,15.38-.08,30.78-10.27s23.69-20.99,21.49-24.31c-.54-.82-1.75-1.23-3.5-1.23Z"/>
      </g>
      <g>
        <circle class="cls-3" cx="84.24" cy="84.31" r="60.25"/>
        <path d="M84.24,145.56c-33.77,0-61.25-27.48-61.25-61.25s27.48-61.25,61.25-61.25,61.25,27.48,61.25,61.25-27.48,61.25-61.25,61.25ZM84.24,25.07c-32.67,0-59.25,26.58-59.25,59.25s26.58,59.25,59.25,59.25,59.25-26.58,59.25-59.25-26.58-59.25-59.25-59.25Z"/>
      </g>
      <g>
        <circle class="cls-1" cx="84.24" cy="84.31" r="48.77"/>
        <path d="M84.24,134.09c-27.45,0-49.77-22.33-49.77-49.77s22.33-49.77,49.77-49.77,49.77,22.33,49.77,49.77-22.33,49.77-49.77,49.77ZM84.24,36.54c-26.34,0-47.77,21.43-47.77,47.77s21.43,47.77,47.77,47.77,47.77-21.43,47.77-47.77-21.43-47.77-47.77-47.77Z"/>
      </g>
      <rect x="83.24" y="120.47" width="2.01" height="12.61"/>
      <rect x="83.24" y="35.54" width="2.01" height="12.61"/>
      <rect x="120.52" y="83.31" width="12.5" height="2.01"/>
      <rect x="35.47" y="83.31" width="12.5" height="2.01"/>
      <g>
        <line class="cls-2" x1="102.01" y1="115.81" x2="108.2" y2="126.79"/>
        <rect x="104.1" y="114.99" width="2.01" height="12.61" transform="translate(-46.03 67.29) rotate(-29.43)"/>
      </g>
      <g>
        <line class="cls-2" x1="60.28" y1="41.83" x2="66.48" y2="52.82"/>
        <rect x="62.38" y="41.02" width="2.01" height="12.61" transform="translate(-15.07 37.24) rotate(-29.43)"/>
      </g>
      <g>
        <line class="cls-2" x1="115.84" y1="66.49" x2="126.72" y2="60.35"/>
        <rect x="115.03" y="62.42" width="12.5" height="2.01" transform="translate(-15.51 67.82) rotate(-29.45)"/>
      </g>
      <g>
        <line class="cls-2" x1="41.76" y1="108.27" x2="52.65" y2="102.13"/>
        <rect x="40.96" y="104.2" width="12.5" height="2.01" transform="translate(-45.62 36.8) rotate(-29.45)"/>
      </g>
      <g>
        <line class="cls-2" x1="115.19" y1="103.01" x2="125.98" y2="109.54"/>
        <rect x="119.58" y="99.97" width="2.01" height="12.61" transform="translate(-32.74 154.51) rotate(-58.85)"/>
      </g>
      <g>
        <line class="cls-2" x1="42.5" y1="59.09" x2="53.3" y2="65.61"/>
        <rect x="46.9" y="56.04" width="2.01" height="12.61" transform="translate(-30.24 71.09) rotate(-58.85)"/>
      </g>
      <g>
        <polygon class="cls-2" points="79.8 79.51 88.69 79.51 84.24 58.51 79.8 79.51"/>
        <path d="M88.69,80.51h-8.89c-.3,0-.59-.14-.78-.37-.19-.24-.26-.54-.2-.84l4.44-21c.1-.46.51-.8.98-.8.47,0,.88.33.98.8l4.45,21c.06.3-.01.6-.2.84-.19.23-.48.37-.78.37ZM81.04,78.51h6.42l-3.21-15.15-3.21,15.15Z"/>
      </g>
      <g>
        <line class="cls-2" x1="103" y1="53.27" x2="109.47" y2="42.57"/>
        <rect x="99.99" y="46.92" width="12.5" height="2.01" transform="translate(10.26 114.03) rotate(-58.84)"/>
      </g>
      <g>
        <line class="cls-2" x1="59.02" y1="126.05" x2="65.48" y2="115.36"/>
        <rect x="56" y="119.7" width="12.5" height="2.01" transform="translate(-73.25 111.52) rotate(-58.84)"/>
      </g>
      <g>
        <circle class="cls-2" cx="84.24" cy="84.31" r="6.55"/>
        <path d="M84.24,91.87c-4.17,0-7.55-3.39-7.55-7.55s3.39-7.55,7.55-7.55,7.55,3.39,7.55,7.55-3.39,7.55-7.55,7.55ZM84.24,78.76c-3.06,0-5.55,2.49-5.55,5.55s2.49,5.55,5.55,5.55,5.55-2.49,5.55-5.55-2.49-5.55-5.55-5.55Z"/>
      </g>
      <g>
        <polygon class="cls-2" points="78.08 81.04 78.08 87.78 65.04 84.41 78.08 81.04"/>
        <path d="M78.08,88.78c-.08,0-.17-.01-.25-.03l-13.04-3.37c-.44-.11-.75-.51-.75-.97s.31-.86.75-.97l13.04-3.37c.3-.08.62-.01.87.18.25.19.39.48.39.79v6.74c0,.31-.14.6-.39.79-.18.14-.39.21-.61.21ZM69.05,84.41l8.03,2.08v-4.15l-8.03,2.08Z"/>
      </g>
    </g>
  </g>
</svg>