<?xml version="1.0" encoding="UTF-8"?>
<svg id="Capa_2" xmlns="http://www.w3.org/2000/svg" viewBox="0 0 208.81 139.93">
  <defs>
    <style>
      .cls-1 {
        fill: #ffbf00;
      }

      .cls-2 {
        fill: #ff3c18;
      }

      .cls-3 {
        fill: #716c6c;
      }
    </style>
  </defs>
  <g id="Capa_1-2" data-name="Capa_1">
    <g>
      <g>
        <path class="cls-1" d="M20.6,20.54L1.1,120.77c5.14,4.42,16.45,12.93,33.35,16.52,18.03,3.83,32.65-.02,39.11-2.14,7.47-34.4,14.94-68.8,22.41-103.2L20.6,20.54Z"/>
        <path d="M49.97,139.93c-4.9,0-10.18-.48-15.74-1.66-15.71-3.34-27.05-10.95-33.79-16.74l-.44-.38L19.8,19.4l77.37,11.72-22.76,104.8-.54.18c-5.93,1.95-14.17,3.83-23.89,3.83ZM2.19,120.39c6.62,5.59,17.5,12.75,32.46,15.92,15.82,3.36,29.33.85,38.04-1.94l22.06-101.59L21.4,21.68,2.19,120.39Z"/>
      </g>
      <g>
        <ellipse class="cls-3" cx="58.28" cy="26.25" rx="19.37" ry="38.11" transform="translate(23.6 79.94) rotate(-81.39)"/>
        <path d="M66.31,47.25c-3.59,0-7.32-.28-11.08-.85-10.22-1.55-19.53-5.04-26.23-9.82-6.89-4.93-10.23-10.67-9.39-16.18s5.72-10.01,13.76-12.67c7.81-2.59,17.74-3.16,27.96-1.61,10.22,1.55,19.53,5.04,26.23,9.82,6.89,4.93,10.23,10.67,9.39,16.18s-5.72,10.01-13.76,12.67c-4.93,1.64-10.72,2.47-16.88,2.47ZM50.24,7.25c-5.94,0-11.5.8-16.24,2.37-7.29,2.41-11.7,6.35-12.41,11.07-.72,4.72,2.33,9.78,8.58,14.25,6.44,4.61,15.45,7.97,25.36,9.47,9.91,1.5,19.51.96,27.03-1.53,7.29-2.41,11.7-6.35,12.41-11.07h0c.72-4.72-2.33-9.78-8.58-14.25-6.44-4.61-15.45-7.97-25.36-9.47-3.67-.56-7.3-.83-10.79-.83Z"/>
      </g>
      <g>
        <path class="cls-2" d="M52.78,64.82l-9.48,43.14c-5.78-.8-13.08-2.36-21.11-5.51-6.37-2.5-11.67-5.39-15.87-8.07,2.78-14.29,5.56-28.58,8.34-42.87,4.45,3.24,11.27,7.42,20.37,10.25,6.89,2.14,13.04,2.87,17.74,3.06Z"/>
        <path d="M43.29,108.96s-.09,0-.14,0c-7.31-1.01-14.48-2.88-21.34-5.57-5.58-2.19-10.98-4.93-16.04-8.15-.35-.22-.52-.63-.45-1.04l8.34-42.87c.07-.34.3-.62.62-.74.32-.13.68-.08.96.12,6.13,4.47,12.88,7.87,20.08,10.1,5.66,1.76,11.54,2.77,17.49,3.01.3.01.57.15.75.39.18.23.25.54.19.83l-9.48,43.14c-.1.46-.51.79-.98.79ZM7.43,93.9c4.79,3,9.87,5.56,15.12,7.61,6.42,2.52,13.13,4.3,19.96,5.31l9.03-41.07c-5.71-.33-11.36-1.35-16.81-3.04-6.91-2.15-13.43-5.33-19.39-9.49l-7.91,40.67Z"/>
      </g>
      <g>
        <path class="cls-1" d="M95.96,28.93l-18.71,89.16,59.98,18.29c.18-1.86,2.56-22.62,21.72-33.35,18.61-10.42,36.98-2.39,38.85-1.53,3.26-12.34,6.53-24.68,9.79-37.02L95.96,28.93ZM112.49,41.37l12.69,4.02-4.02,12.69-12.69-4.02,4.02-12.69ZM110.41,120.8l-12.69-4.02,4.02-12.69,12.69,4.02-4.02,12.69ZM131.36,127.43l-12.69-4.02,4.02-12.69,12.69,4.02-4.02,12.69ZM141.39,64.48l-12.69-4.02,4.02-12.69,12.69,4.02-4.02,12.69ZM162.34,71.11l-12.69-4.02,4.02-12.69,12.69,4.02-4.02,12.69ZM183.29,77.75l-12.69-4.02,4.02-12.69,12.69,4.02-4.02,12.69Z"/>
        <path d="M138.11,137.69l-62.03-18.92,19.12-91.14,113.6,36.18-10.34,39.09-1.08-.5c-1.99-.91-19.93-8.59-37.95,1.49-18.56,10.39-21,30.33-21.21,32.57l-.12,1.22ZM78.43,117.39l57.96,17.68c.75-5.17,4.55-23.1,22.08-32.91,17.02-9.53,33.96-3.93,38.67-2.03l9.25-34.97L96.72,30.22l-18.29,87.17ZM132.02,128.69l-14.6-4.62,4.62-14.6,14.6,4.62-4.62,14.6ZM119.94,122.76l10.77,3.41,3.41-10.77-10.77-3.41-3.41,10.77ZM111.06,122.06l-14.6-4.62,4.62-14.6,14.6,4.62-4.62,14.6ZM98.98,116.13l10.77,3.41,3.41-10.77-10.77-3.41-3.41,10.77ZM183.95,79.01l-14.6-4.62,4.62-14.6,14.6,4.62-4.62,14.6ZM171.87,73.08l10.77,3.41,3.41-10.77-10.77-3.41-3.41,10.77ZM163,72.37l-14.6-4.62,4.62-14.6,14.6,4.62-4.62,14.6ZM150.92,66.44l10.77,3.41,3.41-10.77-10.77-3.41-3.41,10.77ZM142.04,65.74l-14.6-4.62,4.62-14.6,14.6,4.62-4.62,14.6ZM129.96,59.81l10.77,3.41,3.41-10.77-10.77-3.41-3.41,10.77ZM121.81,59.33l-14.6-4.62,4.62-14.6,14.6,4.62-4.62,14.6ZM109.73,53.4l10.77,3.41,3.41-10.77-10.77-3.41-3.41,10.77Z"/>
      </g>
      <g>
        <path d="M39.03,26.25c2.43,2.11,7.5,5.92,15,7.63,9.54,2.17,17.29-.36,20.29-1.52,1.15-6.44,2.31-12.88,3.46-19.32l-35.3-5.35-3.45,18.55Z"/>
        <path d="M61.57,35.73c-2.42,0-5.03-.25-7.77-.87-7.15-1.63-12.34-5.17-15.43-7.85l-.43-.38,3.73-20.07,37.28,5.65-3.75,20.89-.53.2c-2.7,1.04-7.37,2.43-13.1,2.43ZM40.12,25.86c2.96,2.48,7.71,5.58,14.13,7.04,8.3,1.89,15.4.11,19.18-1.28l3.18-17.74-33.32-5.05-3.16,17.03Z"/>
      </g>
      <g>
        <ellipse class="cls-3" cx="60.13" cy="10.37" rx="9.08" ry="17.85" transform="translate(40.87 68.27) rotate(-81.39)"/>
        <path d="M63.93,20.74c-1.7,0-3.48-.13-5.31-.41-4.87-.74-9.31-2.41-12.52-4.7-3.4-2.43-5.04-5.3-4.62-8.09.42-2.79,2.84-5.05,6.81-6.36,3.74-1.24,8.48-1.51,13.35-.78,4.87.74,9.31,2.4,12.52,4.69,3.4,2.43,5.04,5.31,4.62,8.09-.7,4.61-6.84,7.55-14.84,7.55ZM56.36,2.01c-2.73,0-5.27.36-7.44,1.08-3.21,1.06-5.15,2.76-5.45,4.76s1.05,4.19,3.8,6.16c2.95,2.11,7.09,3.65,11.65,4.34,9.03,1.37,17.21-1.13,17.87-5.46h0c.3-2-1.05-4.19-3.8-6.16-2.95-2.11-7.09-3.65-11.65-4.34-1.69-.26-3.37-.38-4.98-.38Z"/>
      </g>
      <g>
        <path d="M2.15,115.38l-1.05,5.39c5.14,4.42,16.45,12.93,33.35,16.52,18.03,3.83,32.65-.02,39.11-2.14.42-1.93.84-3.85,1.26-5.78-6.03,2.21-20.42,6.56-38.41,3.06-17.83-3.47-29.47-12.76-34.25-17.05Z"/>
        <path d="M49.97,139.93c-4.9,0-10.18-.48-15.74-1.66-15.71-3.34-27.05-10.95-33.79-16.74l-.44-.38,1.5-7.7,1.32,1.18c6.65,5.96,17.9,13.72,33.77,16.81,16,3.11,29.42.08,37.87-3.01l1.71-.63-1.76,8.12-.55.18c-5.93,1.95-14.17,3.83-23.89,3.83ZM2.19,120.39c6.62,5.59,17.5,12.75,32.46,15.92,15.82,3.36,29.33.85,38.04-1.94l.75-3.46c-8.74,2.95-21.83,5.5-37.24,2.5-15.31-2.98-26.44-10.18-33.41-16.13l-.6,3.1Z"/>
      </g>
      <g>
        <path d="M19.64,26.25l-1.05,5.39c4.8,4.5,14.61,12.47,29.37,16.49,20.2,5.51,37,.16,43.09-2.11.42-1.93.84-3.85,1.26-5.78-5.17,2.3-21.01,8.56-40.77,4.02-17.1-3.92-27.78-13.78-31.88-18.01Z"/>
        <path d="M65.96,51.53c-5.64,0-11.81-.67-18.27-2.43-11.03-3.01-21.33-8.79-29.79-16.72l-.4-.38,1.52-7.82,1.34,1.38c6,6.18,16.31,14.28,31.39,17.73,17.94,4.12,32.85-.71,40.14-3.96l1.81-.81-1.79,8.25-.51.19c-5.37,2.01-14.41,4.57-25.43,4.57ZM19.68,31.28c5.78,5.33,15.32,12.27,28.54,15.88,18.16,4.95,33.9,1.04,41.96-1.89l.73-3.34c-8.02,3.27-22.47,7.25-39.61,3.32-14.48-3.32-24.7-10.79-31.04-16.95l-.58,2.99Z"/>
      </g>
    </g>
  </g>
</svg>