<?xml version="1.0" encoding="UTF-8"?>
<svg id="Capa_2" xmlns="http://www.w3.org/2000/svg" viewBox="0 0 184.63 219.9">
  <defs>
    <style>
      .cls-1 {
        fill: #8adfff;
      }

      .cls-2 {
        fill: #ff25ff;
      }

      .cls-3 {
        fill: #1d1d1b;
      }

      .cls-4 {
        fill: #fffaf0;
      }

      .cls-5 {
        fill: #8873ff;
      }

      .cls-6 {
        fill: #c081ff;
      }

      .cls-7 {
        fill: #d3c0b1;
      }

      .cls-8 {
        fill: #0077fb;
      }

      .cls-9 {
        fill: #c4e000;
      }

      .cls-10 {
        fill: #ff3c18;
      }

      .cls-11 {
        fill: #a19085;
      }

      .cls-12 {
        fill: #ffdc50;
      }
    </style>
  </defs>
  <g id="Capa_1-2" data-name="Capa_1">
    <g>
      <g>
        <path class="cls-11" d="M7.82,57.89l32.88-11.16c.41-.14.84-.19,1.27-.14l139.02,15.12c1.5.16,2.64,1.43,2.64,2.94v124.02c0,.94-.45,1.83-1.21,2.39l-36.64,26.78c-1.24.9-2.96.71-3.97-.44L6.54,62.63c-1.38-1.58-.72-4.07,1.28-4.74Z"/>
        <path d="M144.03,219.43c-1.1,0-2.19-.46-2.98-1.36L5.79,63.29c-.87-1-1.19-2.35-.84-3.63s1.3-2.29,2.55-2.72h0s32.88-11.16,32.88-11.16c.54-.18,1.13-.25,1.7-.19l139.02,15.12c2.01.22,3.53,1.91,3.53,3.93v124.02c0,1.26-.61,2.45-1.62,3.2l-36.64,26.78c-.71.52-1.53.77-2.34.77ZM8.14,58.84c-.63.21-1.09.7-1.26,1.34s-.02,1.29.42,1.79l135.26,154.77c.67.77,1.8.89,2.62.29l36.64-26.79c.5-.37.8-.96.8-1.58v-124.02c0-1-.75-1.83-1.74-1.94l-139.02-15.12c-.28-.03-.57,0-.84.09l-32.88,11.16Z"/>
      </g>
      <g>
        <path class="cls-7" d="M3.57,62.92L1,194.38c-.03,1.64,1.15,3.05,2.77,3.3l136.04,21.18c1.99.31,3.78-1.23,3.78-3.24V78.71c0-1.66-1.24-3.06-2.89-3.25L7.23,59.73c-1.92-.23-3.62,1.25-3.66,3.19Z"/>
        <path d="M140.32,219.9c-.22,0-.44-.02-.66-.05L3.62,198.67c-2.1-.33-3.66-2.18-3.62-4.31L2.57,62.9c.02-1.2.56-2.35,1.47-3.14.91-.79,2.11-1.17,3.31-1.02l133.47,15.72c2.15.25,3.78,2.08,3.78,4.25v136.92c0,1.25-.54,2.44-1.5,3.25-.78.67-1.77,1.03-2.78,1.03ZM6.83,60.71c-.55,0-1.06.19-1.48.56-.49.43-.77,1.02-.78,1.67l-2.56,131.46c-.02,1.13.8,2.12,1.92,2.29l136.04,21.18c.66.1,1.32-.09,1.83-.52.5-.43.79-1.06.79-1.73V78.71c0-1.15-.86-2.12-2.01-2.26L7.11,60.73c-.09-.01-.18-.02-.27-.02Z"/>
      </g>
      <g>
        <polygon class="cls-7" points="44.88 4.78 76.12 47.87 80.59 44.48 50.25 1.36 44.88 4.78"/>
        <path d="M75.91,49.29L43.45,4.5l7.08-4.5,31.44,44.69-6.06,4.6ZM46.32,5.05l30.01,41.4,2.88-2.19L49.98,2.72l-3.66,2.33Z"/>
      </g>
      <g>
        <polygon class="cls-7" points="137.2 9.47 100.31 47.84 104.45 51.63 141.52 14.15 137.2 9.47"/>
        <path d="M104.48,53.03l-5.6-5.15,38.34-39.88,5.68,6.17-38.42,38.85ZM101.75,47.79l2.66,2.45,35.72-36.12-2.94-3.19-35.44,36.86Z"/>
      </g>
      <g>
        <path class="cls-7" d="M66.48,59.5c1.82-11.87,11.73-20.65,22.94-20.99,12.54-.38,23.88,9.9,24.65,23.43-5.57,1.58-14.15,3.32-24.65,2.68-9.85-.59-17.72-3.05-22.94-5.12Z"/>
        <path d="M93.87,65.77c-1.5,0-3.01-.05-4.51-.14-7.99-.48-15.81-2.23-23.25-5.19l-.74-.29.12-.79c1.85-12.1,12.13-21.48,23.9-21.84,13.39-.39,24.9,10.53,25.68,24.37l.05.8-.77.22c-6.69,1.9-13.55,2.86-20.47,2.86ZM67.61,58.87c7.02,2.71,14.37,4.31,21.87,4.76,7.94.48,15.85-.34,23.53-2.43-1.11-12.38-11.55-22.06-23.56-21.68-10.56.32-19.82,8.58-21.84,19.35Z"/>
      </g>
      <g>
        <polygon class="cls-6" points="132.5 204.09 118.57 201.67 118.57 172.32 132.5 174.74 132.5 204.09"/>
        <path d="M133.5,205.29l-15.93-2.77v-31.39l15.93,2.77v31.39ZM119.58,200.83l11.92,2.08v-27.31l-11.92-2.08v27.31Z"/>
      </g>
      <g>
        <polygon class="cls-5" points="132.5 163.88 118.57 161.46 118.57 148 132.5 150.42 132.5 163.88"/>
        <path d="M133.5,165.08l-15.93-2.77v-15.5l15.93,2.77v15.5ZM119.58,160.62l11.92,2.08v-11.43l-11.92-2.08v11.43Z"/>
      </g>
      <g>
        <polygon class="cls-5" points="132.5 139.56 118.57 137.14 118.57 123.67 132.5 126.1 132.5 139.56"/>
        <path d="M133.5,140.75l-15.93-2.77v-15.5l15.93,2.77v15.5ZM119.58,136.29l11.92,2.08v-11.43l-11.92-2.08v11.43Z"/>
      </g>
      <g>
        <g>
          <path class="cls-4" d="M27.88,174.9c-4.16-.68-8.32-1.35-12.48-2.01.14-32.86.6-65.71.63-98.56,4.19.54,8.38,1.08,12.57,1.63-.06,32.98-.57,65.96-.73,98.94Z"/>
          <path class="cls-3" d="M28.88,176.08l-1.16-.19c-4.16-.68-8.31-1.35-12.47-2.01l-.85-.13v-.86c.06-14.22.19-28.68.3-42.66.15-18.32.31-37.26.33-55.9v-1.14s1.13.15,1.13.15c4.19.54,8.38,1.08,12.58,1.63l.88.11v.88c-.04,18.71-.22,37.74-.39,56.14-.13,14.03-.27,28.54-.34,42.81v1.17ZM16.41,172.04c3.49.56,6.98,1.12,10.47,1.68.07-13.89.21-28,.34-41.64.17-18.1.35-36.82.39-55.24-3.52-.46-7.04-.92-10.57-1.37-.02,18.27-.18,36.82-.33,54.77-.12,13.7-.24,27.85-.3,41.8Z"/>
        </g>
        <g>
          <g>
            <path class="cls-12" d="M40.96,177.04c-4.36-.72-8.72-1.43-13.08-2.14.17-32.98.67-65.96.73-98.94,4.4.57,8.81,1.15,13.21,1.73-.1,33.12-.66,66.24-.87,99.36Z"/>
            <path class="cls-3" d="M41.95,178.22l-1.16-.19c-4.36-.72-8.72-1.43-13.07-2.14l-.85-.14v-.86c.08-14.27.21-28.78.35-42.82.18-18.39.36-37.42.39-56.12v-1.14s15.22,1.99,15.22,1.99v.88c-.06,18.8-.27,37.92-.47,56.41-.15,14.08-.31,28.64-.4,42.96v1.17ZM28.89,174.05c3.69.6,7.38,1.21,11.07,1.81.09-13.94.25-28.09.4-41.79.2-18.19.41-37,.46-55.51l-11.21-1.46c-.04,18.35-.22,36.97-.39,55-.13,13.75-.27,27.96-.34,41.95Z"/>
          </g>
          <path class="cls-3" d="M41.95,178.22l-1.16-.19c-4.36-.72-8.72-1.43-13.07-2.14l-.85-.14v-.86c.08-14.27.21-28.78.35-42.82.18-18.39.36-37.42.39-56.12v-1.14s15.22,1.99,15.22,1.99v.88c-.06,18.8-.27,37.92-.47,56.41-.15,14.08-.31,28.64-.4,42.96v1.17ZM28.89,174.05c3.69.6,7.38,1.21,11.07,1.81.09-13.94.25-28.09.4-41.79.2-18.19.41-37,.46-55.51l-11.21-1.46c-.04,18.35-.22,36.97-.39,55-.13,13.75-.27,27.96-.34,41.95Z"/>
        </g>
        <g>
          <path class="cls-1" d="M54.44,179.27c-4.49-.74-8.99-1.49-13.48-2.23.21-33.12.77-66.24.87-99.36,4.54.59,9.08,1.19,13.62,1.78-.14,33.27-.76,66.54-1.01,99.81Z"/>
          <path class="cls-3" d="M55.43,180.45l-15.49-2.56v-.86c.1-14.32.26-28.88.41-42.96.2-18.48.41-37.6.47-56.39v-1.14s1.13.15,1.13.15c4.54.59,9.08,1.19,13.62,1.78l.88.11v.88c-.08,18.89-.32,38.1-.55,56.67-.18,14.14-.36,28.76-.47,43.14v1.17ZM41.97,176.19l11.48,1.9c.11-14.01.29-28.22.46-41.98.23-18.28.46-37.17.54-55.77-3.87-.5-7.75-1.01-11.62-1.52-.06,18.44-.26,37.16-.46,55.27-.15,13.8-.31,28.06-.4,42.1Z"/>
        </g>
        <g>
          <path class="cls-9" d="M68.13,181.53c-4.57-.75-9.13-1.51-13.69-2.26.25-33.27.88-66.54,1.01-99.81,4.6.6,9.2,1.19,13.81,1.78-.16,33.43-.84,66.86-1.12,100.29Z"/>
          <path class="cls-3" d="M68.13,182.53c-.05,0-.11,0-.16-.01-4.56-.75-9.13-1.51-13.69-2.26-.49-.08-.84-.5-.84-1,.11-14.39.29-29.01.47-43.15.23-18.57.47-37.77.55-56.65,0-.29.13-.56.34-.75s.5-.28.79-.24c4.6.6,9.2,1.19,13.8,1.78.5.06.88.49.88,1-.09,18.99-.35,38.28-.61,56.95-.19,14.21-.39,28.9-.52,43.34,0,.29-.13.57-.36.76-.18.15-.41.24-.65.24ZM55.45,178.42c3.9.64,7.79,1.29,11.69,1.93.12-14.07.32-28.36.51-42.18.25-18.37.51-37.35.6-56.04-3.93-.51-7.87-1.01-11.8-1.52-.08,18.52-.32,37.33-.54,55.53-.17,13.86-.35,28.18-.46,42.29Z"/>
        </g>
        <g>
          <path class="cls-2" d="M81.85,183.77c-4.57-.74-9.14-1.49-13.71-2.24.29-33.43.96-66.86,1.12-100.29,4.59.59,9.17,1.17,13.76,1.74-.17,33.6-.87,67.19-1.17,100.79Z"/>
          <path class="cls-3" d="M82.84,184.95l-1.15-.19c-4.57-.74-9.14-1.49-13.71-2.24l-.85-.14v-.86c.13-14.45.33-29.15.52-43.35.25-18.66.51-37.96.61-56.93v-1.13s1.13.14,1.13.14c4.58.59,9.17,1.17,13.76,1.74l.88.11v.89c-.1,19.09-.37,38.49-.64,57.26-.2,14.27-.41,29.02-.54,43.54v1.17ZM69.15,180.68c3.9.64,7.8,1.28,11.71,1.92.13-14.14.33-28.49.53-42.38.26-18.47.53-37.56.63-56.35-3.92-.49-7.84-.99-11.75-1.49-.1,18.62-.35,37.52-.6,55.81-.19,13.92-.38,28.31-.51,42.48Z"/>
        </g>
        <g>
          <path class="cls-10" d="M95.35,185.95c-4.51-.72-9.02-1.44-13.53-2.18.3-33.6,1-67.19,1.17-100.79,4.49.56,8.99,1.11,13.48,1.66-.14,33.77-.85,67.54-1.12,101.31Z"/>
          <path class="cls-3" d="M95.35,186.95c-.05,0-.1,0-.16-.01-4.51-.72-9.02-1.44-13.54-2.18-.49-.08-.85-.5-.84-1,.13-14.52.34-29.27.54-43.55.26-18.76.54-38.16.63-57.24,0-.29.13-.56.34-.75.22-.19.5-.28.79-.24,4.49.56,8.98,1.11,13.48,1.66.51.06.89.49.88,1-.08,19.2-.35,38.71-.6,57.58-.2,14.33-.4,29.16-.52,43.73,0,.29-.13.57-.35.76-.18.15-.41.24-.65.24ZM82.82,182.92c3.84.62,7.69,1.24,11.53,1.85.12-14.21.32-28.62.51-42.58.25-18.57.52-37.77.6-56.67-3.83-.46-7.65-.93-11.48-1.41-.1,18.72-.37,37.73-.63,56.13-.2,13.99-.4,28.44-.53,42.67Z"/>
        </g>
        <g>
          <path class="cls-8" d="M108.65,188.03c-4.39-.67-8.77-1.36-13.15-2.06.28-33.77.98-67.54,1.12-101.32,4.32.52,8.65,1.03,12.97,1.52-.06,33.95-.73,67.9-.94,101.85Z"/>
          <path class="cls-3" d="M109.64,189.19l-1.15-.18c-4.39-.67-8.77-1.36-13.16-2.06l-.85-.14v-.86c.13-14.58.33-29.41.52-43.75.26-18.87.52-38.38.6-57.57v-1.13s1.12.13,1.12.13c4.32.52,8.64,1.03,12.97,1.52l.89.1v.9c-.03,19.29-.27,38.91-.5,57.88-.17,14.41-.35,29.32-.44,43.98v1.16ZM96.5,185.11c3.71.59,7.43,1.17,11.15,1.74.09-14.29.27-28.79.43-42.83.22-18.67.46-37.96.49-56.96-3.66-.42-7.31-.85-10.97-1.29-.08,18.83-.35,37.96-.6,56.46-.19,14.05-.39,28.57-.51,42.87Z"/>
        </g>
        <g>
          <path class="cls-4" d="M27.79,185.5c-4.15-.68-8.31-1.35-12.46-2.01.01-9.78.06-19.56.13-29.33,4.16.64,8.33,1.29,12.49,1.95-.08,9.8-.13,19.6-.15,29.4Z"/>
          <path class="cls-3" d="M28.8,186.68l-1.16-.19c-4.15-.68-8.31-1.35-12.46-2.01l-.85-.13v-.86c0-8.6.05-17.93.13-29.34v-1.16s1.16.18,1.16.18c4.17.64,8.33,1.29,12.49,1.95l.85.13v.86c-.09,11.36-.14,20.7-.16,29.39v1.18ZM16.34,182.63c3.49.56,6.97,1.12,10.46,1.69.02-8.14.06-16.89.14-27.36-3.49-.55-6.99-1.09-10.48-1.63-.07,10.51-.11,19.24-.12,27.31Z"/>
        </g>
        <g>
          <g>
            <path class="cls-12" d="M40.86,187.65c-4.35-.72-8.71-1.44-13.06-2.15.02-9.8.08-19.6.15-29.4,4.37.69,8.73,1.38,13.1,2.07-.09,9.83-.16,19.65-.19,29.48Z"/>
            <path class="cls-3" d="M41.86,188.84l-1.16-.19c-4.35-.72-8.71-1.44-13.06-2.15l-.84-.14v-.85c.02-8.69.07-18.04.15-29.4v-1.16s1.16.18,1.16.18c4.37.69,8.73,1.38,13.1,2.08l.85.14v.86c-.11,11.42-.17,20.78-.2,29.47v1.18ZM28.8,184.65c3.69.6,7.37,1.21,11.06,1.82.03-8.14.08-16.92.18-27.44-3.7-.59-7.4-1.17-11.09-1.76-.08,10.47-.12,19.23-.14,27.37Z"/>
          </g>
          <path class="cls-3" d="M41.86,188.84l-1.16-.19c-4.35-.72-8.71-1.44-13.06-2.15l-.84-.14v-.85c.02-8.69.07-18.04.15-29.4v-1.16s1.16.18,1.16.18c4.37.69,8.73,1.38,13.1,2.08l.85.14v.86c-.11,11.42-.17,20.78-.2,29.47v1.18ZM28.8,184.65c3.69.6,7.37,1.21,11.06,1.82.03-8.14.08-16.92.18-27.44-3.7-.59-7.4-1.17-11.09-1.76-.08,10.47-.12,19.23-.14,27.37Z"/>
        </g>
        <g>
          <path class="cls-1" d="M54.33,189.9c-4.49-.75-8.98-1.5-13.47-2.24.03-9.83.1-19.65.19-29.48,4.5.72,9.01,1.44,13.51,2.15-.1,9.85-.19,19.71-.23,29.56Z"/>
          <path class="cls-3" d="M55.32,191.08l-1.16-.19c-4.49-.75-8.98-1.5-13.47-2.24l-.84-.14v-.85c.03-8.69.09-18.06.19-29.48v-1.16s15.52,2.47,15.52,2.47v.87c-.13,11.46-.2,20.86-.24,29.56v1.18ZM41.86,186.8c3.82.63,7.64,1.27,11.47,1.91.04-8.15.1-16.96.21-27.53l-11.5-1.83c-.09,10.53-.15,19.3-.18,27.45Z"/>
        </g>
        <g>
          <path class="cls-9" d="M68.01,192.17c-4.56-.76-9.12-1.52-13.68-2.28.04-9.85.13-19.71.23-29.56,4.57.73,9.14,1.46,13.71,2.18-.11,9.89-.21,19.77-.26,29.66Z"/>
          <path class="cls-3" d="M68.01,193.18c-.05,0-.11,0-.16-.01l-13.68-2.28c-.49-.08-.84-.5-.84-.99.04-8.71.11-18.1.23-29.57,0-.29.13-.57.36-.76.22-.19.52-.27.81-.22,4.57.73,9.14,1.46,13.71,2.18.49.08.85.5.85,1-.13,11.56-.22,20.98-.26,29.65,0,.29-.13.57-.36.76-.18.15-.41.24-.65.24ZM55.33,189.05l11.68,1.94c.04-8.13.12-16.97.24-27.62-3.9-.62-7.81-1.24-11.71-1.86-.11,10.57-.18,19.38-.21,27.54Z"/>
        </g>
        <g>
          <path class="cls-2" d="M81.72,194.44c-4.57-.75-9.14-1.51-13.71-2.26.05-9.89.14-19.77.26-29.66,4.57.73,9.15,1.45,13.72,2.16-.12,9.92-.22,19.84-.27,29.76Z"/>
          <path class="cls-3" d="M82.72,195.62l-1.16-.19c-4.57-.75-9.14-1.51-13.71-2.26l-.84-.14v-.85c.05-8.67.13-18.1.26-29.67v-1.16s1.16.18,1.16.18c4.57.73,9.14,1.45,13.72,2.16l.86.13v.87c-.15,11.6-.24,21.06-.28,29.76v1.17ZM69.02,191.32c3.9.65,7.8,1.29,11.71,1.93.04-8.16.13-17.03.25-27.73-3.91-.61-7.81-1.23-11.72-1.85-.12,10.66-.2,19.5-.24,27.64Z"/>
        </g>
        <g>
          <path class="cls-10" d="M95.23,196.63c-4.52-.72-9.03-1.46-13.54-2.2.05-9.92.15-19.84.27-29.76,4.51.7,9.01,1.4,13.52,2.09-.11,9.96-.21,19.91-.25,29.87Z"/>
          <path class="cls-3" d="M95.23,197.64c-.05,0-.11,0-.16-.01-4.52-.73-9.03-1.46-13.55-2.2-.49-.08-.84-.5-.84-1,.04-8.75.13-18.21.27-29.77,0-.29.13-.57.36-.75.22-.19.52-.27.8-.23,4.51.7,9.01,1.4,13.52,2.09.49.08.86.5.85,1-.13,11.66-.21,21.15-.25,29.86,0,.29-.13.57-.35.76-.18.16-.41.24-.65.24ZM82.69,193.58c3.84.63,7.69,1.26,11.54,1.87.04-8.18.11-17.09.23-27.84-3.84-.59-7.68-1.18-11.52-1.78-.13,10.66-.21,19.53-.25,27.74Z"/>
        </g>
        <g>
          <path class="cls-8" d="M108.56,198.74c-4.4-.68-8.79-1.38-13.18-2.08.04-9.96.14-19.92.25-29.87,4.37.67,8.75,1.32,13.12,1.97-.1,10-.17,19.99-.19,29.99Z"/>
          <path class="cls-3" d="M109.56,199.91l-1.15-.18c-4.4-.68-8.79-1.38-13.19-2.08l-.85-.14v-.86c.04-8.76.12-18.25.25-29.88v-1.15s1.15.17,1.15.17c4.37.67,8.74,1.32,13.12,1.97l.87.13v.88c-.12,11.76-.18,21.29-.2,29.98v1.17ZM96.38,195.8c3.72.6,7.45,1.19,11.17,1.77.02-8.16.08-17.11.18-27.95-3.71-.55-7.41-1.1-11.12-1.67-.12,10.73-.2,19.63-.23,27.85Z"/>
        </g>
      </g>
    </g>
  </g>
</svg>