<?xml version="1.0" encoding="UTF-8"?>
<svg id="Capa_2" xmlns="http://www.w3.org/2000/svg" viewBox="0 0 294.92 265.29">
  <defs>
    <style>
      .cls-1 {
        fill: #8adfff;
      }

      .cls-2 {
        fill: #ed9aff;
      }

      .cls-3 {
        fill: #fffaf0;
      }

      .cls-4 {
        fill: #ff2c00;
      }

      .cls-5 {
        fill: #d3c0b1;
      }

      .cls-6 {
        fill: #0077fb;
      }

      .cls-7 {
        fill: #c4e000;
      }

      .cls-8 {
        fill: #ad82ff;
      }

      .cls-9 {
        fill: #ae8f81;
      }
    </style>
  </defs>
  <g id="Capa_1-2" data-name="Capa_1">
    <g>
      <g>
        <path class="cls-8" d="M224.77,106.43c-.43.74-5.53,9.11-15.81,9.88-10.35.77-16.65-6.85-17.17-7.5-.11,6.06-.22,12.11-.33,18.17,7.93,6.69,18.89,8.56,28.5,4.83,9.99-3.87,16.96-13.17,17.94-23.93-4.38-.48-8.75-.97-13.13-1.45Z"/>
        <path d="M209.81,134.71c-6.83,0-13.58-2.39-19-6.97l-.37-.31.39-21.43,1.74,2.18c.64.81,6.55,7.85,16.31,7.12,9.7-.72,14.5-8.5,15.02-9.38l.33-.56,14.75,1.63-.09.98c-1,11.07-8.29,20.79-18.58,24.77-3.41,1.32-6.97,1.96-10.51,1.96ZM192.46,126.51c7.64,6.23,17.99,7.9,27.13,4.36,9.27-3.59,15.93-12.2,17.2-22.1l-11.5-1.27c-1.43,2.18-6.69,9.1-16.26,9.81-7.93.58-13.58-3.48-16.28-6.02l-.28,15.22Z"/>
      </g>
      <g>
        <path class="cls-3" d="M221.81,104.97c1.35,4.43,7.84,5.4,9.24,5.61,1.15.17,7.97,1.19,10.07-2.49.7-1.22.66-2.59.49-3.6,2.57-1.19,6.05-3.27,8.65-6.99,1.56-2.24,1.28-2.9,2.7-5.61,4.43-8.45,11.4-10.15,10.9-14.22-.11-.93-.66-2.34-3-3.88.16-.27,1.24-2.08.53-4.1-.68-1.93-2.7-3.26-5.01-3.2.16-.48,1.35-4.15-.51-6.06-1.37-1.4-3.66-1.11-4.84-.97-7.68.96-17.93,10.12-20.87,12.83,1.83-7.88.69-14.64-2.85-16.74-2.84-1.68-5.29-.93-5.29-.93-.31.1-2.13.65-3.01,2.28-.68,1.25-.52,2.6,1.45,9.03,1.23,4.01,1.62,4.95,1.27,6.46-.45,1.99-1.66,2.69-2.83,4.24-3.7,4.86-2.41,11.83-1.97,14.22.96,5.19,3.5,8.75,4.93,10.48-.26.89-.48,2.22-.05,3.64Z"/>
        <path d="M234.36,111.84c-1.27,0-2.47-.12-3.45-.27-5.57-.83-9.05-3.01-10.05-6.31-.35-1.15-.38-2.39-.08-3.69-1.78-2.25-3.95-5.8-4.82-10.54-.45-2.43-1.81-9.8,2.16-15.01.37-.49.74-.9,1.07-1.26.76-.84,1.31-1.44,1.58-2.59.24-1.05.05-1.73-.89-4.75l-.37-1.19c-2.03-6.63-2.25-8.18-1.38-9.8.94-1.74,2.66-2.48,3.6-2.77.12-.04,2.92-.86,6.1,1.03,3.51,2.08,4.93,7.76,3.88,14.88,5.15-4.47,12.92-10.31,19.2-11.1,1.29-.16,3.96-.49,5.68,1.26,1.63,1.67,1.44,4.23,1.08,5.85,2.16.38,3.99,1.81,4.67,3.78.58,1.66.2,3.17-.2,4.11,1.62,1.24,2.53,2.6,2.71,4.08.31,2.56-1.56,4.23-3.93,6.34-2.2,1.96-4.95,4.4-7.07,8.47-.58,1.1-.86,1.85-1.11,2.51-.37.97-.69,1.81-1.65,3.2-2.03,2.91-4.84,5.26-8.39,7.01.1,1.32-.13,2.5-.7,3.5-1.48,2.6-4.72,3.26-7.64,3.26ZM223.44,55.46c-.67,0-1.1.12-1.14.13-.51.16-1.79.65-2.41,1.8-.49.9-.34,2.16,1.53,8.26l.37,1.18c.97,3.13,1.29,4.18.93,5.79-.38,1.66-1.23,2.59-2.05,3.5-.32.35-.64.71-.96,1.12-3.43,4.51-2.19,11.22-1.79,13.43.85,4.61,3.04,7.99,4.72,10.03l.34.41-.15.51c-.32,1.11-.34,2.14-.06,3.07h0c.75,2.46,3.74,4.21,8.43,4.91,4.57.68,7.95-.07,9.05-2,.44-.78.57-1.76.37-2.93l-.13-.76.7-.32c3.53-1.63,6.3-3.86,8.24-6.65.83-1.19,1.08-1.85,1.42-2.76.27-.72.58-1.53,1.21-2.73,2.3-4.39,5.31-7.08,7.52-9.04,2.27-2.03,3.45-3.15,3.28-4.6-.13-1.07-.99-2.13-2.56-3.16l-.81-.53.51-.83c.17-.27.98-1.71.44-3.25-.54-1.54-2.19-2.6-4.04-2.53l-1.44.04.46-1.36c.12-.36,1.15-3.57-.28-5.03-1.02-1.04-2.95-.8-3.99-.67-6.97.87-16.53,9.08-20.31,12.57l-2.39,2.21.74-3.17c1.71-7.37.73-13.8-2.38-15.65-1.32-.78-2.53-.96-3.36-.96Z"/>
      </g>
      <g>
        <path class="cls-3" d="M227.71,73.18c.44.1,5,1.26,6.7,5.59,1.47,3.73.2,8.23-3.23,11"/>
        <path d="M231.82,90.55l-1.26-1.56c3.04-2.45,4.25-6.5,2.93-9.85-1.51-3.81-5.55-4.87-6-4.98l.46-1.95c.56.13,5.53,1.44,7.41,6.19,1.64,4.15.19,9.15-3.53,12.15Z"/>
      </g>
      <g>
        <path class="cls-3" d="M237.67,76.79c1.28.7,3.1,1.88,4.83,3.8,2.16,2.39,3.21,4.83,3.72,6.34"/>
        <path d="M245.28,87.26c-.76-2.24-1.95-4.25-3.52-5.99-1.31-1.45-2.85-2.66-4.57-3.59l.96-1.76c1.92,1.04,3.64,2.39,5.1,4.01,1.75,1.94,3.08,4.19,3.93,6.69l-1.9.65Z"/>
      </g>
      <g>
        <path class="cls-3" d="M256.38,66.49c-1.99.63-4.31,1.55-6.75,2.93-4.81,2.7-8.1,6.02-10.16,8.5"/>
        <path d="M240.25,78.56l-1.54-1.28c2.96-3.56,6.47-6.5,10.44-8.73,2.19-1.23,4.52-2.24,6.93-3.01l.61,1.91c-2.28.72-4.49,1.68-6.56,2.84-3.75,2.11-7.07,4.89-9.88,8.26Z"/>
      </g>
      <g>
        <path class="cls-3" d="M260.86,73.79c-2.23,1.09-4.62,2.39-7.11,3.95-3.39,2.12-6.31,4.3-8.77,6.36"/>
        <path d="M245.63,84.87l-1.29-1.54c2.8-2.34,5.79-4.51,8.88-6.44,2.32-1.45,4.74-2.79,7.19-4l.88,1.8c-2.39,1.17-4.75,2.48-7.01,3.9-3.02,1.88-5.93,4-8.66,6.28Z"/>
      </g>
      <g>
        <ellipse cx="116.54" cy="225.01" rx="115.54" ry="20.76"/>
        <path d="M116.54,246.77c-57.29,0-116.54-8.14-116.54-21.77s59.25-21.77,116.54-21.77,116.54,8.14,116.54,21.77-59.25,21.77-116.54,21.77ZM116.54,205.25c-68.51,0-114.53,10.22-114.53,19.76s46.02,19.76,114.53,19.76,114.53-10.22,114.53-19.76-46.02-19.76-114.53-19.76Z"/>
      </g>
      <g>
        <ellipse cx="192.68" cy="257.55" rx="31.28" ry="7.43"/>
        <path d="M192.68,265.29c-17.71,0-31.59-3.4-31.59-7.74s13.88-7.74,31.59-7.74,31.59,3.4,31.59,7.74-13.88,7.74-31.59,7.74ZM192.68,250.43c-18.52,0-30.96,3.68-30.96,7.12s12.44,7.12,30.96,7.12,30.96-3.68,30.96-7.12-12.44-7.12-30.96-7.12Z"/>
      </g>
      <g>
        <ellipse cx="251.01" cy="245.21" rx="31.28" ry="7.43"/>
        <path d="M251.01,252.96c-17.71,0-31.59-3.4-31.59-7.74s13.88-7.74,31.59-7.74,31.59,3.4,31.59,7.74-13.88,7.74-31.59,7.74ZM251.01,238.09c-18.52,0-30.96,3.68-30.96,7.12s12.44,7.12,30.96,7.12,30.96-3.68,30.96-7.12-12.44-7.12-30.96-7.12Z"/>
      </g>
      <g>
        <polygon class="cls-2" points="30.45 15.45 34.25 209.67 89.98 241.76 91.67 178.43 62.96 148.03 53.67 70.76 63.8 39.94 59.16 1.52 30.45 15.45"/>
        <path d="M90.94,243.47l-57.68-33.21v-.57S29.43,14.83,29.43,14.83L59.98,0l4.84,40.04-.07.21-10.06,30.61,9.22,76.72,28.77,30.46-1.75,65.43ZM35.24,209.09l53.78,30.97,1.63-61.24-28.65-30.34-.04-.33-9.32-77.49,10.13-30.82L58.33,3.03l-26.87,13.04,3.78,193.01Z"/>
      </g>
      <g>
        <polygon class="cls-2" points="97.15 239.95 89.98 241.76 91.67 178.43 62.96 148.03 53.67 70.76 63.8 39.94 59.16 1.52 67.01 1.52 71.71 40.21 61.06 70.6 68.99 145.11 98.88 175.85 97.15 239.95"/>
        <path d="M88.94,243.06l1.71-64.24-28.65-30.34-.04-.33-9.32-77.49,10.13-30.82L58.03.51h9.88l4.83,39.81-.08.22-10.57,30.18,7.87,73.94,29.95,30.79-1.76,65.28-9.2,2.33ZM63.91,147.58l28.77,30.46-1.67,62.42,5.15-1.3,1.7-62.92-29.84-30.68-.04-.34-7.96-74.74.08-.21,10.57-30.17-4.56-37.58h-5.83l4.54,37.52-.07.21-10.06,30.61,9.22,76.72Z"/>
      </g>
      <g>
        <polygon class="cls-2" points="195.3 1.52 67.41 1.52 71.71 40.21 61.06 70.6 68.99 145.11 98.88 175.85 97.25 239.95 226.2 215.87 226.2 161.71 196.98 126.1 189.59 63.95 199.66 36.4 195.3 1.52"/>
        <path d="M96.22,241.16l1.65-64.92-29.84-30.68-.04-.34-7.96-74.74.08-.21,10.57-30.17L66.29.51h129.89l4.51,36-10.08,27.55,7.33,61.62,29.27,35.66v55.35l-.82.15-130.17,24.31ZM69.95,144.66l29.95,30.79-1.61,63.28,126.91-23.7v-52.97l-29.19-35.56-.03-.29-7.42-62.39,10.08-27.54-4.23-33.76h-125.88l4.2,37.81-.08.22-10.57,30.18,7.87,73.94Z"/>
      </g>
      <g>
        <polygon class="cls-2" points="226.2 215.87 233.05 214.63 233.57 158.71 204.95 125.36 196.31 64.02 206.8 36.43 202.28 1.52 194.66 1.52 195.3 4.82 199.66 36.4 189.59 63.95 196.98 126.1 226.2 161.71 226.2 215.87"/>
        <path d="M225.2,217.07v-55l-29.19-35.56-.03-.29-7.42-62.39,10.07-27.54-4.33-31.33-.86-4.45h9.71l4.67,36.04-10.5,27.58,8.57,60.8,28.67,33.41v.38s-.52,56.75-.52,56.75l-8.85,1.6ZM197.94,125.69l29.27,35.66v53.32l4.85-.87.5-54.72-28.56-33.28-8.72-61.89,10.5-27.59-4.38-33.79h-5.52l.41,2.11,4.41,31.88-10.08,27.56,7.33,61.62Z"/>
      </g>
      <g>
        <polygon class="cls-2" points="185.31 126.47 68.41 139.7 68.99 145.11 98.88 175.85 98.88 179.28 216.08 161.36 185.31 126.47"/>
        <path d="M97.88,180.45v-4.19l-29.85-30.69-.72-6.75,118.4-13.4,32.33,36.66-120.16,18.38ZM69.95,144.66l29.94,30.78v2.67l114.22-17.47-29.21-33.12-115.38,13.06.43,4.07Z"/>
      </g>
      <g>
        <g>
          <path class="cls-3" d="M243.78,203.54c-.9.04-1.5.97-1.59,1.11-1.07,1.66.15,3.98,1.68,6.84.72,1.35,1.26,2.33,2.05,2.34.97.01,1.68-1.46,1.75-1.59,1.53-3.24-1.59-8.81-3.88-8.7Z"/>
          <path d="M245.93,214.83s-.02,0-.02,0c-1.4-.02-2.14-1.4-2.92-2.87-1.63-3.04-3.03-5.67-1.64-7.85.62-.96,1.49-1.53,2.39-1.57h0c1.23-.07,2.55.85,3.64,2.48,1.4,2.1,2.31,5.27,1.19,7.65-.24.51-1.14,2.17-2.64,2.17ZM243.83,204.54c-.23.01-.55.27-.8.65-.76,1.18.39,3.33,1.72,5.82.34.64.91,1.71,1.2,1.81.15-.03.56-.49.81-1.02.75-1.58.04-4.06-1.05-5.68-.71-1.07-1.49-1.61-1.88-1.59h0Z"/>
        </g>
        <g>
          <path class="cls-3" d="M246.93,199.21c-1.06.03-1.76,1.36-1.87,1.55-.97,1.83.11,3.91,1.68,6.84.72,1.35,1.26,2.33,2.05,2.34.93.01,1.63-1.35,1.75-1.59,1.65-3.36-1.35-9.2-3.61-9.14Z"/>
          <path d="M248.8,210.94s-.02,0-.02,0c-1.4-.02-2.1-1.34-2.92-2.87-1.56-2.92-2.91-5.45-1.68-7.78.32-.61,1.23-2.04,2.72-2.09h0c1.16-.03,2.41.83,3.44,2.45,1.39,2.16,2.32,5.63,1.09,8.14-.32.65-1.21,2.15-2.63,2.15ZM246.95,200.21h0c-.27,0-.71.44-1,1.02-.7,1.33.13,3.02,1.67,5.9.34.64.92,1.71,1.2,1.81.1-.02.5-.39.81-1.03.85-1.73.15-4.41-.98-6.17-.73-1.13-1.38-1.51-1.7-1.53Z"/>
        </g>
        <g>
          <path class="cls-8" d="M241.52,211.69l-44.48-25.79c-5.22-.59-10.3,1.5-13.14,5.52-3.69,5.22-3.05,12.9,1.91,18.1,16.51,7.68,36.26,16.87,52.77,24.56l2.95-22.38Z"/>
          <path d="M239.39,235.56l-54.18-25.21-.13-.14c-5.22-5.48-6.06-13.62-2-19.37,3.04-4.3,8.44-6.57,14.08-5.94l.21.02,45.24,26.24-3.21,24.4ZM186.4,208.69l51.35,23.9,2.68-20.37-43.71-25.35c-4.84-.48-9.43,1.48-12.01,5.13-3.48,4.92-2.76,11.91,1.68,16.69Z"/>
        </g>
        <g>
          <path class="cls-3" d="M244.69,213.83l-19.28-13.61c-1.79,1.68-5.14,5.29-7.02,10.98-2.31,7-1.02,12.98-.37,15.34,7.92,3.52,15.84,7.03,23.76,10.55l2.91-23.26Z"/>
          <path d="M242.61,238.55l-25.43-11.29-.13-.46c-.82-3.01-1.87-9.09.39-15.92,1.8-5.45,4.95-9.2,7.28-11.39l.6-.56,20.44,14.43-3.15,25.2ZM218.88,225.82l22.08,9.8,2.67-21.32-18.11-12.78c-2.08,2.09-4.65,5.39-6.17,9.99-1.98,6-1.21,11.38-.48,14.3Z"/>
        </g>
        <rect x="229.39" y="219.71" width="2.01" height="13.63" transform="translate(-69.29 347.28) rotate(-66.46)"/>
        <rect x="230.05" y="214.63" width="2.01" height="13.63" transform="translate(-64.24 344.83) rotate(-66.46)"/>
        <rect x="230.75" y="209.6" width="2.01" height="13.63" transform="translate(-59.21 342.45) rotate(-66.46)"/>
        <rect x="232.59" y="205.38" width="2.01" height="13.63" transform="translate(-66.97 308.39) rotate(-60)"/>
        <g>
          <path class="cls-6" d="M238.38,235.51c6.99,3.23,13.98,6.47,20.97,9.7,7.37-11.18,19.41-33.39,17.23-61.15-.41-5.21-1.27-10.04-2.4-14.45-9.98-.01-19.1,5.43-23.5,14.06-3.88,7.61-2.76,15.09-1.39,19.58.97,3.21-.68,6.68-3.85,7.76-.03,0-.06.02-.08.03-.21.07-.42.13-.63.19-2.49.69-4.64,2.31-5.76,4.63-1.19,2.44-2.28,5.71-2.42,9.63-.16,4.44.98,7.97,1.83,10.03Z"/>
          <path d="M259.71,246.49l-22.11-10.23-.15-.36c-1.39-3.36-2.04-6.87-1.91-10.45.12-3.46.97-6.84,2.52-10.03,1.21-2.49,3.54-4.37,6.4-5.16.19-.05.38-.11.58-.18,2.67-.91,4.12-3.83,3.29-6.54-1.51-4.99-2.49-12.57,1.46-20.32,4.59-9.01,13.92-14.61,24.36-14.61h.81s.19.76.19.76c1.23,4.81,2.04,9.73,2.43,14.62,2.05,26.15-8.33,48.03-17.4,61.78l-.48.72ZM239.16,234.77l19.82,9.17c8.78-13.53,18.57-34.67,16.6-59.8-.35-4.52-1.09-9.06-2.18-13.52-9.37.26-17.68,5.38-21.82,13.5-3.65,7.16-2.73,14.19-1.33,18.83,1.15,3.8-.82,7.75-4.49,9l-.09.03c-.23.08-.45.14-.67.2-2.3.63-4.17,2.13-5.13,4.1-1.43,2.94-2.21,6.04-2.32,9.22-.11,3.16.43,6.27,1.61,9.25Z"/>
        </g>
        <g>
          <path class="cls-3" d="M269.49,174.06c-7.18,4.82-9.62,12.39-12.21,20.79-2.28,7.41-5.22,17.35-3.51,30.34,1.14,8.64,2.68,20.26,10.67,23.41,4.53,1.79,10.96.79,14.06-2.92,3.1-3.72.44-7.27.9-21.94.18-5.83.35-10.25,2.06-15.84,1.11-3.65,1.69-3.89,5.08-11.73,5.81-13.44,5.4-15.7,4.99-16.98-1.45-4.56-6.37-7.75-10.98-8.37-5.1-.69-9.04,1.87-11.06,3.23Z"/>
          <path d="M269.2,250.47c-1.76,0-3.51-.3-5.12-.93-8.54-3.37-10.13-15.42-11.3-24.22-1.78-13.48,1.42-23.88,3.54-30.77,2.45-7.97,4.99-16.22,12.61-21.33h0c1.85-1.24,6.17-4.14,11.76-3.39,4.49.61,10.09,3.7,11.8,9.06.56,1.76.64,4.58-5.03,17.68-1.45,3.34-2.38,5.31-3.07,6.75-.93,1.95-1.35,2.85-1.97,4.88-1.7,5.58-1.84,9.99-2.01,15.57-.19,5.96.15,10.1.4,13.11.36,4.47.56,6.93-1.53,9.44-2.2,2.64-6.14,4.15-10.08,4.15ZM270.05,174.89c-7.03,4.72-9.35,12.26-11.81,20.25-2.07,6.72-5.19,16.87-3.47,29.92,1.1,8.3,2.6,19.67,10.04,22.61,3.89,1.54,10.01.85,12.92-2.63,1.57-1.88,1.42-3.67,1.07-8-.25-3.06-.59-7.26-.4-13.34.17-5.51.32-10.26,2.1-16.1.66-2.17,1.14-3.17,2.08-5.15.68-1.42,1.6-3.37,3.04-6.68,5.84-13.51,5.25-15.38,4.96-16.28-1.38-4.33-6.15-7.14-10.15-7.68-4.82-.65-8.57,1.86-10.37,3.07h0Z"/>
        </g>
        <g>
          <path class="cls-6" d="M231.27,216.21c.15-1.14.66-3.74,2.67-6.24,1.73-2.14,3.75-3.18,4.8-3.63.52.13,1.67.48,2.67,1.51,1.44,1.46,1.57,3.25,1.59,3.72-.69.65-1.42,1.41-2.14,2.31-1.8,2.25-2.86,4.5-3.51,6.26-.84-.15-2.32-.52-3.83-1.6-1.11-.8-1.83-1.7-2.26-2.33Z"/>
          <path d="M238.01,221.28l-.83-.14c-1.53-.27-2.99-.88-4.24-1.78-.98-.71-1.82-1.57-2.51-2.58l-.21-.32.05-.38c.23-1.73.91-4.29,2.89-6.73,1.73-2.15,3.77-3.32,5.18-3.92l.31-.13.33.08c.84.2,2.07.68,3.15,1.78,1.59,1.63,1.84,3.61,1.87,4.38l.02.46-.34.31c-.73.68-1.42,1.42-2.04,2.2-1.42,1.78-2.55,3.79-3.35,5.98l-.29.79ZM232.32,215.96c.51.68,1.11,1.27,1.79,1.77.78.56,1.67.99,2.62,1.25.84-2.08,1.97-4,3.35-5.72.58-.73,1.21-1.42,1.88-2.07-.09-.67-.38-1.73-1.26-2.63-.62-.63-1.32-.97-1.88-1.15-1.17.55-2.75,1.53-4.1,3.2-1.54,1.9-2.16,3.9-2.4,5.35Z"/>
        </g>
        <g>
          <path class="cls-3" d="M273.93,176.27c-2.31,1.86-7.83,6.89-12.21,20.79-1.84,5.85-5.06,16.45-3.51,30.34,1,8.97,1.97,17.63,8.34,20.79,3.98,1.98,9.74,1.65,13.18-1.33,1.94-1.68,2.65-3.77,4.11-20.91.83-9.7.84-11.79,2.06-15.84,1.75-5.8,2.98-5.63,5.08-11.73,2.08-6.04,4.83-14.01,1.09-20.19-.32-.52-3.25-5.2-8.34-5.8-1.14-.13-4.58-.33-9.79,3.87Z"/>
          <path d="M272.12,250.45c-2.08,0-4.17-.44-6.01-1.35-6.86-3.41-7.85-12.24-8.89-21.58-1.61-14.39,1.87-25.44,3.54-30.75,3.13-9.93,7.35-17.09,12.54-21.27h0c3.77-3.04,7.41-4.45,10.54-4.08,5.4.64,8.51,5.34,9.08,6.28,3.98,6.58,1.11,14.93-1,21.03-1.04,3.02-1.9,4.59-2.65,5.97-.83,1.51-1.54,2.81-2.41,5.72-1,3.31-1.16,5.23-1.68,11.6-.1,1.18-.21,2.52-.34,4.03-1.47,17.26-2.21,19.64-4.45,21.59-2.14,1.85-5.19,2.83-8.27,2.83ZM274.56,177.05h0c-4.88,3.93-8.88,10.76-11.88,20.31-1.63,5.18-5.03,15.96-3.46,29.93.98,8.78,1.91,17.08,7.79,20,3.81,1.9,9.12,1.37,12.07-1.19,1.63-1.41,2.33-3.41,3.77-20.24.13-1.52.24-2.85.34-4.03.52-6.36.7-8.5,1.76-12.01.94-3.1,1.73-4.56,2.57-6.1.75-1.38,1.53-2.81,2.52-5.66,2.08-6.05,4.67-13.57,1.18-19.34-.3-.49-3.03-4.79-7.6-5.33-2.56-.3-5.7.96-9.04,3.65Z"/>
        </g>
        <path d="M256.69,244.69c-.41-1.56-4.3-15.29-14.83-17.88-1.66-.41-3.41-.51-5.2-.32l-.21-2c2.03-.22,4.01-.09,5.89.37,11.66,2.86,15.86,17.64,16.3,19.32l-1.94.51Z"/>
        <path d="M243.39,217.75c-2.08,0-3.79-.55-4.81-.97l.77-1.85c1.26.52,3.81,1.28,6.7.44,4.99-1.45,6.73-6.43,6.91-6.99l1.91.62c-.21.67-2.27,6.56-8.26,8.3-1.13.33-2.22.46-3.22.46Z"/>
        <path d="M221.04,228.56c-.8-3.06-1.77-9.2.65-16,1.39-3.91,3.73-7.51,6.76-10.43l1.39,1.45c-2.81,2.7-4.97,6.04-6.26,9.65-2.24,6.3-1.34,11.99-.6,14.82l-1.94.51Z"/>
      </g>
      <g>
        <polygon class="cls-2" points="175.38 54.46 185.31 126.47 68.41 139.7 61.06 70.6 65.73 57.27 175.38 54.46"/>
        <path d="M67.52,140.81l-7.49-70.33,4.97-14.2,111.24-2.85,10.18,73.92-118.92,13.46ZM62.08,70.72l7.22,67.87,114.87-13-9.66-70.11-108.07,2.77-4.37,12.46Z"/>
      </g>
      <g>
        <path class="cls-1" d="M71.55,66.29l6.03,63.98,90.53-10.07c1.09-7.79,1.78-18.03.59-29.92-1.15-11.51-3.71-19.44-6.22-26.73-14.1.44-28.19.88-42.28,1.3-16.22.49-32.44.97-48.65,1.44Z"/>
        <path d="M76.67,131.38l-6.22-66.06,1.07-.03c16.21-.47,32.43-.95,48.65-1.44,14.09-.43,28.18-.86,42.28-1.3l.74-.02.24.7c2.66,7.73,5.14,15.61,6.27,26.96,1,10.03.8,20.17-.6,30.15l-.11.77-92.32,10.27ZM72.65,67.26l5.83,61.9,88.74-9.87c1.28-9.58,1.44-19.3.48-28.91-1.08-10.8-3.4-18.42-5.93-25.81-13.85.44-27.7.86-41.54,1.28-15.86.48-31.72.95-47.58,1.41Z"/>
      </g>
      <g>
        <ellipse class="cls-9" cx="107.89" cy="155.88" rx="13.42" ry="7.47"/>
        <path d="M107.89,164.36c-8.09,0-14.42-3.72-14.42-8.48s6.34-8.48,14.42-8.48,14.42,3.72,14.42,8.48-6.33,8.48-14.42,8.48ZM107.89,149.41c-6.73,0-12.42,2.96-12.42,6.47s5.69,6.47,12.42,6.47,12.42-2.96,12.42-6.47-5.69-6.47-12.42-6.47Z"/>
      </g>
      <g>
        <ellipse class="cls-5" cx="107.89" cy="153.13" rx="13.42" ry="7.47"/>
        <path d="M107.89,161.61c-8.09,0-14.42-3.72-14.42-8.48s6.34-8.48,14.42-8.48,14.42,3.72,14.42,8.48-6.33,8.48-14.42,8.48ZM107.89,146.66c-6.73,0-12.42,2.96-12.42,6.47s5.69,6.47,12.42,6.47,12.42-2.96,12.42-6.47-5.69-6.47-12.42-6.47Z"/>
      </g>
      <g>
        <path class="cls-9" d="M166.82,156.3c-1.19,3.1-6.29,3.1-7.12,3.1-.81,0-5.82,0-7.12-3.1-.46-1.09-.56-2.79.35-3.75,1.11-1.19,2.7-.18,6.9-.34,3.77-.15,5-1.06,6.18-.08,1.11.93,1.33,2.84.81,4.18Z"/>
        <path d="M159.7,160.4c-4.12,0-7.06-1.35-8.05-3.72-.59-1.41-.68-3.53.55-4.83,1.01-1.07,2.25-.95,3.81-.8.97.09,2.18.21,3.79.14,1.38-.06,2.4-.22,3.23-.35,1.43-.23,2.56-.4,3.63.5,1.55,1.29,1.72,3.7,1.1,5.31h0c-.92,2.38-3.85,3.74-8.06,3.74ZM154.52,152.96c-.46,0-.68.08-.86.27-.56.59-.52,1.83-.16,2.68.97,2.31,4.99,2.49,6.2,2.49,1.23,0,5.31-.18,6.19-2.46.37-.96.25-2.41-.52-3.05-.34-.29-.67-.27-2.04-.06-.83.13-1.96.31-3.46.37-1.74.07-3.08-.06-4.06-.15-.58-.06-.99-.09-1.3-.09Z"/>
      </g>
      <g>
        <ellipse class="cls-6" cx="159.7" cy="154.04" rx="7.12" ry="3.94"/>
        <path d="M159.7,158.98c-4.56,0-8.12-2.17-8.12-4.95s3.57-4.95,8.12-4.95,8.12,2.17,8.12,4.95-3.57,4.95-8.12,4.95ZM159.7,151.1c-3.61,0-6.12,1.55-6.12,2.94s2.51,2.94,6.12,2.94,6.12-1.55,6.12-2.94-2.51-2.94-6.12-2.94Z"/>
      </g>
      <g>
        <path class="cls-9" d="M171.8,141.23c-1.19,3.1-6.29,3.1-7.12,3.1-.81,0-5.82,0-7.12-3.1-.46-1.09-.56-2.79.35-3.75,1.11-1.19,2.7-.18,6.9-.34,3.77-.15,5-1.06,6.18-.08,1.11.93,1.33,2.84.81,4.18Z"/>
        <path d="M164.67,145.33c-1.96,0-6.63-.36-8.04-3.72-.59-1.41-.68-3.53.55-4.83,1.01-1.07,2.24-.95,3.81-.8.97.09,2.18.21,3.78.14,1.38-.05,2.4-.22,3.23-.35,1.43-.22,2.55-.4,3.63.5,1.55,1.29,1.72,3.7,1.1,5.31h0c-.92,2.38-3.85,3.74-8.06,3.74h0ZM159.5,137.89c-.46,0-.68.08-.86.27-.55.59-.52,1.83-.16,2.68.97,2.31,4.97,2.49,6.19,2.49h0c1.23,0,5.31-.18,6.19-2.46.37-.96.25-2.41-.52-3.05-.35-.29-.67-.27-2.04-.06-.83.13-1.96.31-3.46.37-1.75.07-3.08-.06-4.06-.15-.58-.06-.99-.09-1.3-.09Z"/>
      </g>
      <g>
        <path class="cls-9" d="M189.78,150.92c-1.19,3.1-6.29,3.1-7.12,3.1-.81,0-5.82,0-7.12-3.1-.46-1.09-.56-2.79.35-3.75,1.11-1.19,2.7-.18,6.9-.34,3.77-.15,5-1.06,6.18-.08,1.11.93,1.33,2.84.81,4.18Z"/>
        <path d="M182.65,155.02c-1.96,0-6.63-.36-8.04-3.72-.59-1.41-.68-3.53.55-4.83,1.01-1.07,2.24-.95,3.81-.8.97.09,2.18.21,3.79.14,1.38-.05,2.4-.22,3.23-.35,1.43-.22,2.55-.4,3.63.5,1.55,1.29,1.72,3.7,1.1,5.31h0c-.92,2.38-3.85,3.74-8.06,3.74h0ZM177.48,147.58c-.46,0-.68.08-.86.27-.55.59-.52,1.83-.16,2.68.97,2.31,4.97,2.49,6.19,2.49h0c1.23,0,5.31-.18,6.19-2.46.37-.96.25-2.41-.52-3.05-.35-.29-.67-.27-2.04-.06-.83.13-1.96.31-3.46.37-1.74.07-3.08-.06-4.06-.15-.58-.06-.99-.09-1.3-.09Z"/>
      </g>
      <g>
        <path class="cls-5" d="M109.19,139.2l-4.79,13.51c.16.24,1.38,1.96,3.66,2.16,2.09.19,3.51-1.04,3.75-1.25.61-4.48,1.22-8.95,1.83-13.43l-4.45-1Z"/>
        <path d="M108.49,155.9c-.17,0-.34,0-.52-.02-2.67-.24-4.14-2.21-4.4-2.6l-.29-.42,5.26-14.83,6.22,1.39-2.01,14.71-.28.25c-.42.38-1.88,1.52-3.98,1.52ZM105.53,152.52c.44.49,1.32,1.24,2.62,1.35,1.26.11,2.23-.42,2.72-.78l1.66-12.12-2.69-.6-4.31,12.15Z"/>
      </g>
      <g>
        <line class="cls-2" x1="71.71" y1="40.21" x2="199.1" y2="37.54"/>
        <rect x="71.69" y="37.87" width="127.42" height="2.01" transform="translate(-.8 2.91) rotate(-1.23)"/>
      </g>
      <g>
        <ellipse class="cls-4" cx="164.64" cy="139" rx="7.12" ry="3.94"/>
        <path d="M164.64,143.95c-4.56,0-8.12-2.17-8.12-4.95s3.57-4.95,8.12-4.95,8.12,2.17,8.12,4.95-3.57,4.95-8.12,4.95ZM164.64,136.06c-3.61,0-6.12,1.55-6.12,2.94s2.51,2.94,6.12,2.94,6.12-1.55,6.12-2.94-2.51-2.94-6.12-2.94Z"/>
      </g>
      <g>
        <ellipse class="cls-7" cx="182.62" cy="148.18" rx="7.12" ry="3.94"/>
        <path d="M182.62,153.13c-4.56,0-8.12-2.17-8.12-4.95s3.57-4.95,8.12-4.95,8.12,2.17,8.12,4.95-3.57,4.95-8.12,4.95ZM182.62,145.24c-3.61,0-6.12,1.55-6.12,2.94s2.51,2.94,6.12,2.94,6.12-1.55,6.12-2.94-2.51-2.94-6.12-2.94Z"/>
      </g>
      <g>
        <path class="cls-1" d="M134.04,87.73c.35-.02,7.85-.25,11.53,5.36,3.35,5.1,2.11,12.84-3.6,17.58"/>
        <path d="M142.62,111.44l-1.28-1.54c5.11-4.24,6.6-11.38,3.4-16.26-3.4-5.18-10.58-4.9-10.65-4.9l-.09-2c.34-.02,8.39-.32,12.42,5.81,3.75,5.72,2.09,14.02-3.8,18.91Z"/>
      </g>
      <g>
        <path class="cls-3" d="M107.89,92.08c-.66-2.17-6.58-22.02-3.06-26.36,1.28-1.58,2.72-1.8,2.72-1.8,2.1-.32,3.96,1.53,4.78,2.35,4.96,4.94,6.44,23.16,6.61,25.31"/>
        <path d="M106.93,92.37c-1.6-5.27-6.52-22.79-2.88-27.28,1.48-1.83,3.16-2.13,3.35-2.16,2.59-.39,4.73,1.72,5.64,2.63,5.07,5.05,6.64,22.5,6.9,25.95l-2,.15c-.7-9.18-2.77-21.15-6.32-24.68-.69-.69-2.3-2.31-3.92-2.07-.03,0-1.1.21-2.09,1.44-2.24,2.76.11,15.12,3.24,25.44l-1.92.58Z"/>
      </g>
      <path d="M115.47,90.8l-.93-3.29c-.15-.52-.62-.88-1.15-.88-1.15,0-2.3-.01-3.45-.02-.43,0-.61-.54-.27-.81,3.28-2.66,3.76-7.03,1.93-9.32-1.48-1.84-4.58-2.47-7.51-1.39l3.99,16.81c.98-.38,2.27-.76,3.8-.98,1.39-.2,2.62-.2,3.6-.13Z"/>
      <g>
        <path class="cls-3" d="M128.78,88.9c-.66-2.17-6.58-22.02-3.06-26.36,1.28-1.58,2.72-1.8,2.72-1.8,2.1-.32,3.96,1.53,4.78,2.35,4.96,4.94,6.44,23.16,6.61,25.31"/>
        <path d="M127.82,89.19c-1.6-5.27-6.52-22.79-2.88-27.28,1.48-1.83,3.17-2.13,3.35-2.16,2.59-.39,4.72,1.72,5.63,2.63,5.07,5.05,6.64,22.5,6.9,25.95l-2,.15c-.7-9.18-2.77-21.15-6.32-24.68-.7-.69-2.34-2.3-3.92-2.07-.03,0-1.1.21-2.09,1.44-2.24,2.76.11,15.12,3.24,25.44l-1.92.58Z"/>
      </g>
      <path d="M136.36,87.62l-.93-3.29c-.15-.52-.62-.88-1.15-.88-1.15,0-2.3-.01-3.45-.02-.43,0-.61-.54-.27-.81,3.28-2.66,3.76-7.03,1.93-9.32-1.48-1.84-4.58-2.47-7.51-1.39l3.99,16.81c.98-.38,2.27-.76,3.8-.98,1.39-.2,2.62-.2,3.6-.13Z"/>
      <g>
        <path class="cls-1" d="M120.78,92.7c-1.55-.85-4.88-2.32-9.09-1.6-2.54.44-4.53,1.52-5.83,2.4"/>
        <path d="M106.42,94.33l-1.12-1.66c1.96-1.33,4.05-2.19,6.22-2.56,4.15-.72,7.59.53,9.74,1.71l-.96,1.76c-1.87-1.02-4.86-2.11-8.44-1.49-1.89.32-3.72,1.08-5.44,2.25Z"/>
      </g>
      <g>
        <path class="cls-1" d="M141.67,89.51c-1.55-.85-4.88-2.32-9.09-1.6-2.54.44-4.53,1.52-5.83,2.4"/>
        <path d="M127.31,91.15l-1.12-1.66c1.96-1.33,4.05-2.19,6.22-2.56,4.15-.72,7.59.53,9.75,1.71l-.96,1.76c-1.87-1.02-4.86-2.11-8.44-1.49-1.89.32-3.72,1.08-5.44,2.25Z"/>
      </g>
      <g>
        <path class="cls-1" d="M122.79,86.97c.14-.17,1.45-1.74,3.63-1.65.16,0,2.16.12,3.35,1.76,1.33,1.84.98,4.68-.79,6.21-1.89,1.64-4.43.92-4.62.86"/>
        <path d="M125.92,95.36c-.97,0-1.7-.2-1.85-.25l.58-1.92c.09.03,2.17.64,3.67-.66,1.36-1.18,1.66-3.45.64-4.87-.91-1.26-2.51-1.34-2.58-1.35-1.66-.07-2.7,1.15-2.81,1.28l-1.56-1.26c.29-.36,1.87-2.13,4.44-2.02.27.01,2.67.16,4.12,2.17,1.63,2.25,1.19,5.71-.95,7.56-1.21,1.05-2.61,1.31-3.71,1.31Z"/>
      </g>
      <g>
        <path d="M113.6,98.46c2.52.58,6.25,1.13,10.64.56,8.3-1.08,11.79-5.25,13.36-3.94,2.63,2.18-1.41,18.66-12.46,20.87-7.35,1.47-13.56-4.21-14.44-5.04.69-.59,2.95-2.65,3.62-6.18.57-2.99-.32-5.37-.71-6.26Z"/>
        <path d="M122.7,117.18c-6.44,0-11.62-4.54-12.7-5.55l-.82-.77.85-.73c.99-.84,2.73-2.68,3.28-5.61.48-2.54-.2-4.65-.64-5.68l-.79-1.82,1.93.44c3.47.8,6.93.98,10.28.55,4.36-.57,7.29-1.99,9.44-3.04,2.02-.98,3.48-1.69,4.69-.69,1.91,1.58.91,6.22.56,7.6-1.51,5.99-5.95,13.52-13.47,15.02-.89.18-1.77.26-2.63.26ZM112.18,110.88c2.06,1.71,7.11,5.21,12.76,4.08,6.6-1.32,10.55-8.12,11.92-13.55.88-3.49.44-5.28.1-5.56-.22-.18-1.61.5-2.53.95-2.14,1.04-5.38,2.61-10.06,3.22-3.03.39-6.13.32-9.26-.23.35,1.34.56,3.12.18,5.12-.53,2.79-1.95,4.77-3.11,5.97Z"/>
      </g>
      <path class="cls-4" d="M127,106.98c-1.42-1.81-3.72-2.9-6.03-2.86-.76.01-1.53.15-2.29.12-1.13-.04-2.25-.43-3.37-.28-.19.03-.39.07-.54.19-.22.18-.3.47-.39.74-.71,2.16-2.71,3.66-3.69,5.71-.03.07-.08.46-.08.46,0,0-.01-.35.08-.46.5-.6,4.85,3.47,10.29,4.5,0,0,2.08.51,4.56.03.9-.17,1.77-.5,2.62-.85.28-.12.57-.25.73-.5.17-.25.17-.58.16-.89-.04-.79-1.09-3.43-2.63-6.89"/>
      <g>
        <path class="cls-3" d="M132.83,101.02c-1.93.9-4.62,1.9-7.94,2.44-4.34.7-8,.3-10.42-.15.04-.73.01-1.69-.22-2.77-.17-.82-.42-1.52-.66-2.08,2.34.48,5.75.91,9.81.48,3.74-.39,6.77-1.38,8.89-2.25.18,1.45.36,2.89.53,4.34Z"/>
        <path d="M120.12,104.84c-1.95,0-3.9-.18-5.84-.55l-.86-.16.04-.87c.04-.85-.02-1.69-.2-2.52-.13-.64-.33-1.28-.6-1.88l-.76-1.77,1.88.39c3.13.64,6.33.8,9.51.46,2.96-.31,5.86-1.04,8.61-2.18l1.22-.5.78,6.37-.66.31c-2.61,1.22-5.37,2.06-8.21,2.52-1.63.26-3.28.39-4.92.39ZM115.48,102.47c3.07.49,6.18.5,9.25,0,2.41-.39,4.77-1.08,7.02-2.06l-.29-2.32c-2.56.94-5.23,1.56-7.94,1.84-2.81.3-5.63.23-8.42-.19.05.19.1.39.14.59.15.7.23,1.42.25,2.14Z"/>
      </g>
      <g>
        <path class="cls-1" d="M100.68,90.05c.35-.02,7.85-.25,11.53,5.36,3.35,5.1,2.11,12.84-3.6,17.58"/>
        <path d="M109.25,113.76l-1.28-1.54c5.11-4.24,6.6-11.38,3.4-16.26-3.4-5.18-10.57-4.9-10.65-4.91l-.09-2c.34-.02,8.39-.32,12.42,5.81,3.75,5.72,2.09,14.02-3.8,18.91Z"/>
      </g>
      <path d="M130.05,114.54l-2-.2c.1-1.01.14-3.64-1.63-6.12-1.69-2.36-4.05-3.2-4.99-3.46l.52-1.94c1.42.38,4.11,1.45,6.1,4.23,2.16,3.03,2.11,6.24,1.99,7.48Z"/>
      <path d="M120.56,110.26c0-.65-.15-1.91-.98-3.13-1.13-1.65-2.82-2.18-3.5-2.33l.44-1.96c.91.2,3.18.92,4.71,3.16,1.08,1.57,1.32,3.17,1.33,4.23l-2.01.03Z"/>
      <g>
        <path class="cls-8" d="M107.84,47.72c-.94.63-2.05,1.52-3.09,2.76-2.64,3.15-3.26,6.63-3.44,8.3-.39.17-1.37.55-2.61.33-1.75-.32-2.69-1.61-2.88-1.88.45-2.34,1.27-5.39,2.86-8.72,1.41-2.96,3.02-5.3,4.4-7.03.44.09,2.33.53,3.65,2.35,1.2,1.66,1.15,3.4,1.12,3.89Z"/>
        <path d="M99.47,60.19c-.3,0-.62-.03-.95-.08-2-.36-3.13-1.73-3.53-2.3l-.24-.35.08-.42c.6-3.1,1.58-6.11,2.94-8.96,1.22-2.57,2.74-5,4.52-7.23l.38-.48.6.12c.8.17,2.83.76,4.26,2.74,1.28,1.76,1.37,3.6,1.31,4.54l-.03.49-.41.28c-1.09.73-2.06,1.59-2.88,2.58-2.26,2.69-2.99,5.7-3.21,7.76l-.06.57-.53.24c-.54.24-1.32.49-2.25.49ZM96.89,56.98c.35.4,1.02.98,1.99,1.15.58.1,1.1.04,1.51-.08.33-2.29,1.23-5.39,3.59-8.21.83-.99,1.79-1.88,2.86-2.65-.02-.68-.2-1.75-.94-2.77-.76-1.05-1.76-1.56-2.46-1.79-1.51,1.96-2.81,4.08-3.87,6.32-1.22,2.56-2.12,5.25-2.69,8.03Z"/>
      </g>
      <g>
        <path class="cls-8" d="M125.92,46.56c-.56.44-1.58,1.37-2.28,2.89-.6,1.3-.71,2.47-.72,3.16,1.79.1,4.85.52,8.03,2.35,1.6.92,2.82,1.96,3.71,2.85.19,0,1.89-.11,2.91-1.59.9-1.31.61-2.71.55-2.94-.92-1.18-2.59-2.99-5.18-4.47-2.85-1.62-5.5-2.09-7.03-2.24Z"/>
        <path d="M134.27,58.83l-.31-.31c-1.04-1.05-2.22-1.96-3.5-2.69-2.27-1.31-4.89-2.07-7.59-2.22l-.97-.05.02-.97c.02-1.22.3-2.45.81-3.56.58-1.26,1.47-2.39,2.57-3.26l.32-.25.4.04c2.6.26,5.17,1.08,7.43,2.37,2.12,1.21,3.96,2.8,5.47,4.73l.14.18.05.22c.11.48.38,2.16-.71,3.74-1.26,1.83-3.3,2.01-3.69,2.02l-.44.02ZM124.01,51.68c2.64.28,5.2,1.11,7.45,2.4,1.29.74,2.48,1.64,3.56,2.67.46-.1,1.22-.36,1.73-1.1.51-.75.49-1.56.44-1.95-1.32-1.64-2.91-2.99-4.74-4.03-1.9-1.08-4.04-1.79-6.22-2.07-.71.63-1.29,1.41-1.68,2.26-.26.57-.45,1.19-.54,1.82Z"/>
      </g>
      <g>
        <circle class="cls-4" cx="113.64" cy="129.77" r="10.43"/>
        <path d="M113.64,141.2c-6.31,0-11.43-5.13-11.43-11.43s5.13-11.43,11.43-11.43,11.43,5.13,11.43,11.43-5.13,11.43-11.43,11.43ZM113.64,120.34c-5.2,0-9.43,4.23-9.43,9.43s4.23,9.43,9.43,9.43,9.43-4.23,9.43-9.43-4.23-9.43-9.43-9.43Z"/>
      </g>
      <g>
        <g>
          <path class="cls-3" d="M185.45,215.87c-.9.04-1.5.97-1.59,1.11-1.07,1.66.15,3.98,1.68,6.84.72,1.35,1.26,2.33,2.05,2.34.97.01,1.68-1.46,1.75-1.59,1.53-3.24-1.59-8.81-3.88-8.7Z"/>
          <path d="M187.6,227.17s-.01,0-.02,0c-1.4-.02-2.14-1.4-2.92-2.87-1.63-3.04-3.03-5.67-1.64-7.85.29-.45,1.1-1.51,2.39-1.57h0c1.21-.08,2.55.85,3.64,2.48,1.4,2.1,2.31,5.27,1.19,7.65-.24.51-1.14,2.17-2.64,2.17ZM185.5,216.88c-.27.01-.59.34-.79.65-.76,1.19.39,3.33,1.72,5.82.34.64.91,1.71,1.2,1.82.14-.03.56-.5.81-1.02.75-1.58.04-4.06-1.05-5.68-.75-1.12-1.5-1.63-1.88-1.59h0Z"/>
        </g>
        <g>
          <path class="cls-3" d="M188.6,211.54c-1.06.03-1.76,1.36-1.87,1.55-.97,1.83.11,3.91,1.68,6.84.72,1.35,1.26,2.33,2.05,2.34.93.01,1.63-1.35,1.75-1.59,1.65-3.36-1.35-9.2-3.61-9.14Z"/>
          <path d="M190.47,223.28s-.01,0-.02,0c-1.4-.02-2.14-1.4-2.92-2.87-1.56-2.92-2.91-5.45-1.68-7.78.32-.61,1.24-2.04,2.72-2.09h0s.04,0,.07,0c1.16,0,2.36.87,3.38,2.45,1.39,2.16,2.32,5.63,1.09,8.14-.32.65-1.21,2.15-2.64,2.15ZM188.63,212.55s0,0,0,0h0c-.28,0-.7.44-1.01,1.02-.7,1.32.14,3.02,1.67,5.89.34.64.91,1.71,1.2,1.82.1-.02.5-.38.81-1.03.85-1.73.15-4.41-.98-6.17-.72-1.12-1.4-1.53-1.69-1.53Z"/>
        </g>
        <g>
          <path class="cls-8" d="M183.19,224.03l-44.48-25.79c-5.22-.59-10.3,1.5-13.14,5.52-3.69,5.22-3.05,12.9,1.91,18.1,16.51,7.68,36.26,16.87,52.77,24.56l2.95-22.38Z"/>
          <path d="M181.06,247.9l-54.18-25.21-.13-.14c-5.22-5.48-6.06-13.62-2-19.37,3.04-4.3,8.43-6.57,14.08-5.94l.21.02,45.24,26.24-3.21,24.4ZM128.07,221.03l51.35,23.9,2.68-20.37-43.71-25.35c-4.84-.48-9.43,1.48-12.01,5.13-3.48,4.92-2.76,11.91,1.68,16.69Z"/>
        </g>
        <g>
          <path class="cls-3" d="M186.37,226.17l-19.28-13.61c-1.79,1.68-5.14,5.29-7.02,10.98-2.31,7-1.02,12.98-.37,15.34,7.92,3.52,15.84,7.03,23.76,10.55l2.91-23.26Z"/>
          <path d="M184.29,250.89l-25.43-11.29-.12-.46c-1.01-3.68-1.75-9.44.39-15.92,1.8-5.45,4.95-9.2,7.28-11.39l.6-.56,20.44,14.43-3.15,25.2ZM160.55,238.15l22.08,9.8,2.67-21.32-18.11-12.78c-2.08,2.09-4.65,5.39-6.17,9.99-1.9,5.75-1.34,10.88-.48,14.3Z"/>
        </g>
        <rect x="171.28" y="232.38" width="2.01" height="13.63" transform="translate(-115.82 301.61) rotate(-66.46)"/>
        <rect x="171.94" y="227.31" width="2.01" height="13.63" transform="translate(-110.76 299.18) rotate(-66.46)"/>
        <rect x="172.64" y="222.27" width="2.01" height="13.63" transform="translate(-105.73 296.79) rotate(-66.46)"/>
        <rect x="174.48" y="218.06" width="2.01" height="13.63" transform="translate(-107 264.41) rotate(-60)"/>
        <g>
          <path class="cls-6" d="M180.05,247.85c6.99,3.23,13.98,6.47,20.97,9.7,7.37-11.18,19.41-33.39,17.23-61.15-.41-5.21-1.27-10.04-2.4-14.45-9.98-.01-19.1,5.43-23.5,14.06-3.88,7.61-2.76,15.09-1.39,19.58.97,3.21-.68,6.68-3.85,7.76-.03,0-.06.02-.08.03-.21.07-.42.13-.63.19-2.49.69-4.64,2.31-5.76,4.63-1.19,2.44-2.28,5.71-2.42,9.63-.16,4.44.98,7.97,1.83,10.03Z"/>
          <path d="M201.39,258.82l-22.11-10.23-.15-.36c-1.39-3.36-2.04-6.88-1.91-10.45.12-3.46.97-6.84,2.52-10.03,1.21-2.49,3.54-4.37,6.4-5.16.19-.05.38-.11.58-.18,2.67-.91,4.11-3.83,3.29-6.54-1.52-4.99-2.49-12.57,1.46-20.32,4.59-9.01,13.92-14.61,24.35-14.61h.81s.19.76.19.76c1.23,4.8,2.04,9.72,2.43,14.62,2.05,26.15-8.33,48.03-17.4,61.78l-.48.72ZM180.83,247.11l19.82,9.17c8.78-13.53,18.57-34.67,16.6-59.8-.36-4.52-1.09-9.06-2.18-13.52-9.37.26-17.68,5.38-21.82,13.5-3.65,7.16-2.73,14.19-1.33,18.83,1.15,3.8-.82,7.75-4.49,9l-.09.03c-.23.08-.45.14-.68.2-2.3.63-4.17,2.13-5.13,4.1-1.43,2.94-2.21,6.04-2.32,9.22-.11,3.16.43,6.27,1.61,9.25Z"/>
        </g>
        <g>
          <path class="cls-3" d="M211.17,186.39c-7.18,4.82-9.62,12.39-12.21,20.79-2.28,7.41-5.22,17.35-3.51,30.34,1.14,8.64,2.68,20.26,10.67,23.41,4.53,1.79,10.96.79,14.06-2.92,3.1-3.72.44-7.27.9-21.94.18-5.83.35-10.25,2.06-15.84,1.11-3.65,1.69-3.89,5.08-11.73,5.81-13.44,5.4-15.7,4.99-16.98-1.45-4.56-6.37-7.75-10.98-8.37-5.1-.69-9.04,1.87-11.06,3.23Z"/>
          <path d="M210.87,262.81c-1.76,0-3.52-.3-5.12-.93-8.54-3.37-10.13-15.42-11.3-24.21-1.78-13.47,1.42-23.88,3.54-30.77,2.45-7.97,4.99-16.22,12.61-21.33,1.85-1.24,6.18-4.15,11.76-3.39,4.49.61,10.09,3.7,11.8,9.06.56,1.76.64,4.58-5.03,17.68-1.45,3.34-2.38,5.31-3.07,6.75-.93,1.95-1.35,2.85-1.97,4.88-1.7,5.57-1.84,9.99-2.01,15.57-.19,5.96.15,10.09.39,13.11.36,4.47.56,6.93-1.53,9.44-2.2,2.64-6.14,4.15-10.08,4.15ZM220.52,184.05c-4.06,0-7.19,2.1-8.79,3.17h0c-7.03,4.72-9.35,12.26-11.81,20.25-2.07,6.72-5.19,16.88-3.47,29.92,1.1,8.3,2.6,19.67,10.04,22.61,3.9,1.54,10.02.85,12.92-2.63,1.57-1.88,1.42-3.67,1.07-8-.25-3.06-.59-7.26-.4-13.34.17-5.51.32-10.27,2.1-16.1.66-2.17,1.14-3.17,2.08-5.15.68-1.42,1.6-3.37,3.04-6.68,5.84-13.51,5.25-15.38,4.96-16.28-1.38-4.33-6.15-7.14-10.15-7.68-.54-.07-1.07-.11-1.58-.11Z"/>
        </g>
        <g>
          <path class="cls-6" d="M172.94,228.55c.15-1.14.66-3.74,2.67-6.24,1.73-2.14,3.75-3.18,4.8-3.63.52.13,1.67.48,2.67,1.51,1.44,1.46,1.57,3.25,1.59,3.72-.69.65-1.42,1.41-2.14,2.31-1.8,2.25-2.86,4.5-3.51,6.26-.84-.15-2.32-.52-3.83-1.6-1.11-.8-1.83-1.7-2.26-2.33Z"/>
          <path d="M179.69,233.62l-.83-.14c-1.53-.27-2.99-.88-4.24-1.78-.98-.71-1.83-1.57-2.51-2.58l-.21-.32.05-.38c.23-1.73.92-4.3,2.89-6.73,1.37-1.7,3.16-3.05,5.18-3.92l.31-.13.33.08c.84.2,2.07.68,3.15,1.78,1.59,1.62,1.84,3.6,1.87,4.38l.02.46-.34.32c-.73.68-1.41,1.42-2.04,2.2-1.42,1.78-2.55,3.79-3.35,5.98l-.29.79ZM174,228.3c.51.68,1.11,1.27,1.79,1.77.78.56,1.68.99,2.62,1.25.84-2.07,1.97-4,3.35-5.72.58-.73,1.21-1.42,1.88-2.07-.09-.67-.38-1.73-1.26-2.63-.62-.63-1.32-.97-1.88-1.15-1.18.55-2.75,1.53-4.1,3.2-1.54,1.9-2.16,3.9-2.4,5.35Z"/>
        </g>
        <g>
          <path class="cls-3" d="M215.61,188.6c-2.31,1.86-7.83,6.89-12.21,20.79-1.84,5.85-5.06,16.45-3.51,30.34,1,8.97,1.97,17.63,8.34,20.79,3.98,1.98,9.74,1.65,13.18-1.33,1.94-1.68,2.65-3.77,4.11-20.91.83-9.7.84-11.79,2.06-15.84,1.75-5.8,2.98-5.63,5.08-11.73,2.08-6.04,4.83-14.01,1.09-20.19-.32-.52-3.25-5.2-8.34-5.8-1.14-.13-4.58-.33-9.79,3.87Z"/>
          <path d="M213.79,262.78c-2.08,0-4.17-.44-6.01-1.36-6.86-3.41-7.85-12.23-8.89-21.57-1.61-14.39,1.87-25.45,3.54-30.76,3.13-9.93,7.35-17.09,12.54-21.27h0c3.78-3.04,7.42-4.46,10.54-4.08,5.41.64,8.51,5.34,9.08,6.28,3.98,6.57,1.1,14.93-1,21.03-1.04,3.02-1.9,4.59-2.65,5.97-.82,1.51-1.54,2.81-2.41,5.72-1,3.31-1.16,5.24-1.68,11.61-.1,1.18-.21,2.51-.33,4.02-1.47,17.26-2.21,19.64-4.45,21.59-2.14,1.85-5.19,2.83-8.27,2.83ZM216.24,189.38h0c-4.88,3.93-8.88,10.76-11.88,20.31-1.63,5.18-5.03,15.96-3.47,29.93.98,8.79,1.91,17.08,7.79,20,3.81,1.9,9.12,1.37,12.07-1.19,1.63-1.41,2.33-3.41,3.77-20.24.13-1.51.24-2.83.33-4.01.52-6.37.7-8.51,1.76-12.03.94-3.1,1.73-4.56,2.57-6.1.75-1.38,1.53-2.81,2.52-5.66,2.08-6.05,4.67-13.57,1.18-19.34-.29-.49-3.02-4.78-7.6-5.33-2.57-.31-5.7.96-9.04,3.65Z"/>
        </g>
        <path d="M198.36,257.02c-.41-1.56-4.3-15.29-14.83-17.88-1.66-.41-3.41-.52-5.2-.32l-.21-2c2.03-.22,4.01-.09,5.89.37,11.67,2.86,15.86,17.64,16.3,19.32l-1.94.51Z"/>
        <path d="M185.06,230.09c-2.08,0-3.79-.55-4.81-.97l.77-1.85c1.26.52,3.81,1.28,6.7.44,5.01-1.46,6.73-6.43,6.91-6.99l1.91.61c-.21.67-2.26,6.56-8.26,8.31-1.13.33-2.22.46-3.22.46Z"/>
        <path d="M162.71,240.9c-.8-3.06-1.77-9.2.65-16,1.39-3.91,3.73-7.51,6.76-10.43l1.39,1.45c-2.81,2.7-4.97,6.04-6.26,9.65-2.24,6.3-1.34,11.99-.6,14.82l-1.94.51Z"/>
      </g>
      <g>
        <path class="cls-3" d="M42.78,158.31c.91.69,13.16,10.26,11.46,23.27-.19,1.42-1.15,8.75-7.21,12.8-4.15,2.77-11.22,4.34-14.27,1.03-1.18-1.28-1.47-2.99-1.51-4.27-.59-.07-1.98-.34-3.05-1.47-1.48-1.57-1.74-4.16-.59-6.48-.52-.34-2.47-1.69-3.12-4.29-.38-1.53-.15-2.83.03-3.51-.67-.49-2.17-1.73-3-3.92-.56-1.48-.58-2.8-.53-3.58.32-4.89,6.78-17.07,14.54-15.72.77.13,4.29.88,7.24,6.12Z"/>
        <path d="M37.87,198.25c-2.3,0-4.41-.62-5.84-2.17-.96-1.04-1.54-2.42-1.71-4.1-1.11-.28-2.1-.84-2.83-1.62-1.61-1.7-2.01-4.36-1.1-6.83-.96-.78-2.31-2.21-2.86-4.38-.27-1.08-.31-2.23-.11-3.35-.98-.82-2.12-2.11-2.82-3.96-.48-1.26-.68-2.64-.59-4,.23-3.5,3.44-10.65,8.15-14.36,2.49-1.95,5.03-2.72,7.56-2.28,1.39.24,4.91,1.36,7.84,6.44.81.64,3.94,3.21,6.75,7.1,3.96,5.49,5.67,11.35,4.93,16.97-.45,3.43-2.04,9.75-7.65,13.5-2.53,1.69-6.32,3.05-9.72,3.05ZM34.34,153.08c-1.62,0-3.28.66-4.95,1.97-4.22,3.32-7.19,9.86-7.39,12.91-.07,1.08.09,2.17.47,3.17.66,1.74,1.81,2.84,2.65,3.46l.55.4-.17.66c-.18.7-.34,1.78-.03,3.01.52,2.09,2.06,3.28,2.7,3.69l.75.49-.39.8c-.95,1.92-.78,4.07.42,5.34.76.8,1.75,1.07,2.45,1.16l.85.11.03.86c.05,1.56.47,2.77,1.24,3.62,2.51,2.73,8.85,1.57,12.97-1.18,4.95-3.31,6.37-8.99,6.77-12.09,1.64-12.55-10.55-21.95-11.07-22.34l-.17-.13-.1-.18c-2.53-4.49-5.41-5.43-6.54-5.63-.34-.06-.68-.09-1.03-.09Z"/>
      </g>
      <g>
        <path class="cls-3" d="M28.31,172.26c.57,1.73,2.18,5.8,6.27,9.16,3.53,2.89,7.16,3.82,8.95,4.16-.99-.19-3.99-.65-7.26.92-2.99,1.44-4.49,3.74-5.01,4.64"/>
        <path d="M32.13,191.64l-1.73-1.01c.73-1.26,2.41-3.58,5.45-5.04.73-.35,1.46-.61,2.15-.8-1.32-.65-2.7-1.49-4.05-2.6-3.87-3.17-5.72-6.98-6.59-9.62l1.9-.63c.79,2.39,2.46,5.84,5.96,8.7,3.02,2.48,6.2,3.5,8.38,3.93.04,0,.09.02.13.02l-.38,1.97s-.08-.02-.12-.02c-1.33-.25-3.84-.42-6.52.86-2.55,1.22-3.96,3.18-4.58,4.24Z"/>
      </g>
      <g>
        <path class="cls-8" d="M49.92,130.61c.89,1.92,1.92,4.73,2.35,8.23.57,4.64-.15,8.45-.78,10.78-10.52-3.73-19.41-4.14-21.95-.39-.51.75-1.34,2.51-.98,4.51.66,3.7,4.86,5.33,5.29,5.49-.07.96-.43,4.29-3.14,7.06-1.91,1.95-4.07,2.67-5.1,2.94-12.12-6.81-17.76-19.52-14.8-28.48,3.72-11.3,22.01-19.37,39.11-10.14Z"/>
        <path d="M25.48,170.3l-.35-.2c-11.85-6.66-18.55-19.69-15.27-29.67,1.77-5.37,6.71-10.12,13.21-12.71,8.65-3.44,18.6-2.71,27.33,2l.29.16.14.3c1.25,2.71,2.07,5.58,2.44,8.53.46,3.74.19,7.5-.81,11.17l-.29,1.04-1.02-.36c-10.27-3.65-18.62-3.96-20.79-.77-.12.18-1.17,1.8-.82,3.77.56,3.12,4.24,4.57,4.65,4.72l.71.26-.05.75c-.12,1.69-.72,4.94-3.42,7.69-1.91,1.95-4.08,2.82-5.56,3.21l-.39.1ZM34.37,127.59c-3.62,0-7.2.66-10.56,2-5.96,2.37-10.46,6.66-12.04,11.47-2.6,7.9,1.93,20.12,13.98,27.08,1.21-.37,2.82-1.1,4.25-2.56,1.94-1.98,2.57-4.34,2.77-5.72-1.48-.7-4.59-2.55-5.2-5.94-.48-2.7.86-4.85,1.14-5.25,2.69-3.95,11.1-4.06,22.08-.35.71-3.08.88-6.22.49-9.35-.33-2.63-1.04-5.2-2.13-7.63-4.71-2.48-9.79-3.74-14.78-3.74Z"/>
      </g>
      <g>
        <path class="cls-8" d="M27.62,183.2c.32-.53.97-1.44,2.1-2.2,1.29-.86,2.55-1.07,3.18-1.13"/>
        <path d="M28.48,183.72l-1.72-1.04c.6-1,1.43-1.87,2.4-2.51,1.08-.72,2.34-1.17,3.64-1.3l.2,2c-.68.07-1.7.29-2.73.97-.72.48-1.34,1.13-1.8,1.88Z"/>
      </g>
      <g>
        <path class="cls-8" d="M24.53,175.4c.46-.23,1.34-.59,2.51-.6,1.22-.01,2.15.37,2.61.59"/>
        <path d="M24.98,176.3l-.89-1.8c.91-.45,1.93-.7,2.95-.71,1.1-.02,2.12.23,3.07.7l-.88,1.8c-.47-.23-1.23-.51-2.16-.49-.71,0-1.43.18-2.08.5Z"/>
      </g>
      <g>
        <path class="cls-3" d="M42.04,157.1c.31.73.85,2.31.59,4.3-.35,2.68-1.91,4.37-2.45,4.9"/>
        <path d="M40.89,167.01l-1.41-1.43c.69-.68,1.88-2.14,2.16-4.31.21-1.61-.17-2.94-.52-3.78l1.85-.78c.45,1.07.92,2.77.66,4.82-.36,2.77-1.87,4.62-2.74,5.48Z"/>
      </g>
    </g>
  </g>
</svg>