<svg width="89" height="88" viewBox="0 0 89 88" fill="none" xmlns="http://www.w3.org/2000/svg">
<g clip-path="url(#clip0_884_59471)">
<path d="M76.1433 1.34262H12.8565C6.77366 1.34262 1.84253 6.27375 1.84253 12.3566V75.6434C1.84253 81.7262 6.77366 86.6574 12.8565 86.6574H76.1433C82.2262 86.6574 87.1573 81.7262 87.1573 75.6434V12.3566C87.1573 6.27375 82.2262 1.34262 76.1433 1.34262Z" fill="#FFFBF2" stroke="black" stroke-width="2" stroke-miterlimit="10"/>
<path d="M66.0601 12.7325H23.5169C18.0989 12.7325 13.7068 17.1247 13.7068 22.5426V65.0859C13.7068 70.5039 18.0989 74.896 23.5169 74.896H66.0601C71.4781 74.896 75.8702 70.5039 75.8702 65.0859V22.5426C75.8702 17.1247 71.4781 12.7325 66.0601 12.7325Z" fill="#D1C1B4" stroke="black" stroke-width="2" stroke-miterlimit="10"/>
<path d="M13.7071 29.9718V22.5426C13.7071 17.1229 18.102 12.7325 23.5172 12.7325H66.056C71.4757 12.7325 75.8661 17.1229 75.8661 22.5426V30.1419L13.7026 29.9718H13.7071Z" fill="#9F9187" stroke="black" stroke-width="2" stroke-miterlimit="10"/>
<path d="M63.147 26.0245C65.5743 26.0245 67.5419 24.0569 67.5419 21.6297C67.5419 19.2025 65.5743 17.2348 63.147 17.2348C60.7198 17.2348 58.7522 19.2025 58.7522 21.6297C58.7522 24.0569 60.7198 26.0245 63.147 26.0245Z" fill="black" stroke="black" stroke-width="2" stroke-miterlimit="10"/>
<path d="M24.0274 13.7753H20.5142V28.6292H24.0274V13.7753Z" fill="#FF4702"/>
<path d="M27.5359 13.7753H24.0227V28.6292H27.5359V13.7753Z" fill="#FFDD6A"/>
<path d="M31.0674 13.7753H27.5542V28.6292H31.0674V13.7753Z" fill="#CBDF00"/>
<path d="M34.5755 13.7753H31.0623V28.6292H34.5755V13.7753Z" fill="#9EDEFC"/>
<path d="M13.7071 29.9718V22.5426C13.7071 17.1229 18.102 12.7325 23.5172 12.7325H66.056C71.4757 12.7325 75.8661 17.1229 75.8661 22.5426V30.1419L13.7026 29.9718H13.7071Z" stroke="black" stroke-width="2" stroke-miterlimit="10"/>
<path d="M44.7891 61.7607C53.8924 61.7607 61.272 54.381 61.272 45.2777C61.272 36.1744 53.8924 28.7948 44.7891 28.7948C35.6858 28.7948 28.3062 36.1744 28.3062 45.2777C28.3062 54.381 35.6858 61.7607 44.7891 61.7607Z" fill="#706C6C" stroke="black" stroke-width="2" stroke-miterlimit="10"/>
<path d="M44.7889 54.7656C50.0289 54.7656 54.2768 50.5177 54.2768 45.2777C54.2768 40.0377 50.0289 35.7899 44.7889 35.7899C39.5489 35.7899 35.301 40.0377 35.301 45.2777C35.301 50.5177 39.5489 54.7656 44.7889 54.7656Z" fill="black" stroke="black" stroke-width="2" stroke-miterlimit="10"/>
</g>
<defs>
<clipPath id="clip0_884_59471">
<rect width="88" height="88" fill="white" transform="translate(0.5)"/>
</clipPath>
</defs>
</svg>
