<svg width="89" height="89" viewBox="0 0 89 89" fill="none" xmlns="http://www.w3.org/2000/svg">
<g clip-path="url(#clip0_884_59600)">
<path d="M76.503 1.35788H12.4971C6.34508 1.35788 1.35791 6.34505 1.35791 12.497V76.503C1.35791 82.655 6.34508 87.6421 12.4971 87.6421H76.503C82.655 87.6421 87.6422 82.655 87.6422 76.503V12.497C87.6422 6.34505 82.655 1.35788 76.503 1.35788Z" fill="#FFFBF2" stroke="black" stroke-width="2" stroke-miterlimit="10"/>
<path d="M47.1501 20.1871C47.2044 20.2731 47.3492 20.2415 47.4397 20.2415C53.7946 20.3094 60.2943 20.341 66.6221 20.9249C70.6188 21.2916 74.2352 21.7351 76.4124 25.5327C78.1052 28.4883 78.2953 34.4313 78.4718 37.8667C78.7932 44.1356 78.7706 51.1423 77.7793 57.3523C77.0053 62.2135 75.0998 65.2733 69.967 66.1469C65.7259 66.8665 61.0412 66.9118 56.7367 67.0521C46.7653 67.3735 36.5269 67.4278 26.5736 66.7896C21.0109 66.4365 14.7103 66.4275 12.8455 60.0228C11.6143 55.8043 11.6189 50.3049 11.465 45.9009L11.3563 44.8779C11.3699 44.1266 11.3382 43.3707 11.3563 42.6193C11.4288 39.5505 11.5781 36.3685 11.8814 33.2952C12.2887 29.1627 12.6825 24.9216 16.5434 22.5589C19.4221 20.7937 25.3108 20.7801 28.7236 20.6036C33.4581 20.3637 38.2514 20.2324 42.9904 20.1826H47.141L47.1501 20.1871ZM38.2695 53.8128L55.7681 43.7509L38.2695 33.689V53.8128Z" fill="#F85031" stroke="black" stroke-width="2" stroke-linejoin="round"/>
</g>
<defs>
<clipPath id="clip0_884_59600">
<rect width="89" height="89" fill="white"/>
</clipPath>
</defs>
</svg>
