<svg width="83" height="73" viewBox="0 0 83 73" fill="none" xmlns="http://www.w3.org/2000/svg">
<mask id="path-1-outside-1_612_5007" maskUnits="userSpaceOnUse" x="0.0999756" y="18.9323" width="72" height="54" fill="black">
<rect fill="white" x="0.0999756" y="18.9323" width="72" height="54"/>
<path fill-rule="evenodd" clip-rule="evenodd" d="M5.29998 20.9323C3.53266 20.9323 2.09998 22.3649 2.09998 24.1322V32.1196C2.09996 32.1238 2.09995 32.128 2.09995 32.1323V67.3322C2.09995 69.0996 3.53264 70.5322 5.29995 70.5322H66.9C68.6673 70.5322 70.1 69.0996 70.1 67.3322V32.1323C70.1 30.3649 68.6673 28.9323 66.9 28.9323H41.2434L37.3756 22.4859C36.7973 21.522 35.7556 20.9323 34.6316 20.9323H5.29998Z"/>
</mask>
<path fill-rule="evenodd" clip-rule="evenodd" d="M5.29998 20.9323C3.53266 20.9323 2.09998 22.3649 2.09998 24.1322V32.1196C2.09996 32.1238 2.09995 32.128 2.09995 32.1323V67.3322C2.09995 69.0996 3.53264 70.5322 5.29995 70.5322H66.9C68.6673 70.5322 70.1 69.0996 70.1 67.3322V32.1323C70.1 30.3649 68.6673 28.9323 66.9 28.9323H41.2434L37.3756 22.4859C36.7973 21.522 35.7556 20.9323 34.6316 20.9323H5.29998Z" fill="#FFFBF2"/>
<path d="M2.09998 32.1196L3.59998 32.1254V32.1196H2.09998ZM41.2434 28.9323L39.9572 29.704L40.3941 30.4323H41.2434V28.9323ZM37.3756 22.4859L36.0893 23.2576V23.2576L37.3756 22.4859ZM3.59998 24.1322C3.59998 23.1934 4.36109 22.4323 5.29998 22.4323V19.4323C2.70424 19.4323 0.599976 21.5365 0.599976 24.1322H3.59998ZM3.59998 32.1196V24.1322H0.599976V32.1196H3.59998ZM3.59995 32.1323C3.59995 32.13 3.59996 32.1277 3.59996 32.1254L0.599987 32.1138C0.599963 32.12 0.599951 32.1261 0.599951 32.1323H3.59995ZM3.59995 67.3322V32.1323H0.599951V67.3322H3.59995ZM5.29995 69.0322C4.36107 69.0322 3.59995 68.2711 3.59995 67.3322H0.599951C0.599951 69.928 2.70421 72.0322 5.29995 72.0322V69.0322ZM66.9 69.0322H5.29995V72.0322H66.9V69.0322ZM68.6 67.3322C68.6 68.2711 67.8388 69.0322 66.9 69.0322V72.0322C69.4957 72.0322 71.6 69.928 71.6 67.3322H68.6ZM68.6 32.1323V67.3322H71.6V32.1323H68.6ZM66.9 30.4323C67.8388 30.4323 68.6 31.1934 68.6 32.1323H71.6C71.6 29.5365 69.4957 27.4323 66.9 27.4323V30.4323ZM41.2434 30.4323H66.9V27.4323H41.2434V30.4323ZM36.0893 23.2576L39.9572 29.704L42.5296 28.1605L38.6618 21.7141L36.0893 23.2576ZM34.6316 22.4323C35.2287 22.4323 35.7821 22.7456 36.0893 23.2576L38.6618 21.7141C37.8124 20.2985 36.2825 19.4323 34.6316 19.4323V22.4323ZM5.29998 22.4323H34.6316V19.4323H5.29998V22.4323Z" fill="black" mask="url(#path-1-outside-1_612_5007)"/>
<path d="M34.4095 8.83603C31.448 9.36432 30.2602 7.38135 28.3814 8.31642C26.3973 9.30357 27.3433 11.7053 25.0555 13.7219C22.7254 15.7764 20.4105 14.4606 19.1304 16.3199C17.8558 18.1716 19.8876 19.8584 18.8191 22.6604C17.6855 25.6316 14.6991 25.573 14.454 27.8575C14.2262 29.975 16.7472 30.4447 17.1561 33.366C17.5846 36.424 15.0734 37.6997 15.9087 39.8107C16.6886 41.7817 19.0339 41.0636 20.7945 43.449C22.6332 45.9396 21.0342 48.0202 22.7699 49.6853C24.5424 51.3863 26.6273 49.6138 29.4217 51.3483C32.011 52.9549 31.563 55.3099 33.5796 55.8176C35.7752 56.3708 36.7276 53.6849 39.816 53.7391C42.6104 53.788 43.2525 56.0107 45.4286 55.6104C47.5851 55.2134 47.3628 52.9538 50.1061 51.5566C53.0513 50.0563 54.903 51.8484 56.6549 50.3091C58.4698 48.7145 56.8719 46.4495 58.8375 43.9686C60.5807 41.7687 62.7036 42.4564 63.515 40.5385C64.2993 38.6857 62.4498 37.7333 62.683 34.8218C62.9434 31.5751 65.383 30.9936 65.0739 28.5854C64.7755 26.2586 62.4411 26.354 61.4355 23.4924C60.3301 20.3455 62.5485 18.5155 61.2272 16.6323C59.9353 14.7904 57.5694 16.1919 55.1981 14.1373C52.8626 12.1142 53.7857 9.565 51.768 8.62884C49.9174 7.77078 48.7968 9.75266 46.0513 9.25258C42.9727 8.69176 42.7123 5.89412 40.2304 5.82253C37.8656 5.75419 37.5488 8.27629 34.4095 8.83712V8.83603Z" fill="black" stroke="black" stroke-width="0.514183" stroke-linejoin="round"/>
<path d="M33.4045 7.98789C30.443 8.51617 29.2552 6.5332 27.3764 7.46828C25.3923 8.45542 26.3383 10.8571 24.0505 12.8737C21.7204 14.9283 19.4055 13.6124 18.1254 15.4717C16.8508 17.3234 18.8826 19.0103 17.8141 21.8122C16.6805 24.7834 13.6941 24.7249 13.449 27.0094C13.2212 29.1269 15.7422 29.5966 16.1511 32.5179C16.5796 35.5758 14.0684 36.8515 14.9037 38.9625C15.6836 40.9335 18.0289 40.2154 19.7895 42.6008C21.6282 45.0915 20.0292 47.1721 21.7648 48.8372C23.5374 50.5381 25.6223 48.7656 28.4167 50.5002C31.006 52.1067 30.558 54.4618 32.5746 54.9694C34.7702 55.5227 35.7226 52.8368 38.811 52.891C41.6054 52.9398 42.2475 55.1625 44.4236 54.7622C46.5801 54.3652 46.3577 52.1056 49.1011 50.7084C52.0463 49.2082 53.898 51.0002 55.6499 49.4609C57.4648 47.8663 55.8669 45.6013 57.8325 43.1204C59.5757 40.9205 61.6986 41.6083 62.51 39.6904C63.2943 37.8376 61.4448 36.8852 61.678 33.9736C61.9384 30.7269 64.378 30.1455 64.0689 27.7373C63.7705 25.4104 61.4361 25.5059 60.4305 22.6443C59.3251 19.4973 61.5435 17.6673 60.2222 15.7842C58.9303 13.9422 56.5644 15.3437 54.1931 13.2892C51.8576 11.2661 52.7807 8.71685 50.763 7.78069C48.9124 6.92264 47.7918 8.90452 45.0463 8.40444C41.9677 7.84361 41.7073 5.04598 39.2254 4.97439C36.8606 4.90604 36.5438 7.42814 33.4045 7.98897V7.98789Z" fill="#1778F3"/>
<path d="M33.4045 7.98789C30.443 8.51617 29.2552 6.5332 27.3764 7.46828C25.3923 8.45542 26.3383 10.8571 24.0505 12.8737C21.7204 14.9283 19.4055 13.6124 18.1254 15.4717C16.8508 17.3234 18.8826 19.0103 17.8141 21.8122C16.6805 24.7834 13.6941 24.7249 13.449 27.0094C13.2212 29.1269 15.7422 29.5966 16.1511 32.5179C16.5796 35.5758 14.0684 36.8515 14.9037 38.9625C15.6836 40.9335 18.0289 40.2154 19.7895 42.6008C21.6282 45.0915 20.0292 47.1721 21.7648 48.8372C23.5374 50.5381 25.6223 48.7656 28.4167 50.5002C31.006 52.1067 30.558 54.4618 32.5746 54.9694C34.7702 55.5227 35.7226 52.8368 38.811 52.891C41.6054 52.9398 42.2475 55.1625 44.4236 54.7622C46.5801 54.3652 46.3578 52.1056 49.1011 50.7084C52.0463 49.2082 53.898 51.0002 55.6499 49.4609C57.4648 47.8663 55.8669 45.6013 57.8325 43.1204C59.5757 40.9205 61.6986 41.6083 62.51 39.6904C63.2943 37.8376 61.4448 36.8852 61.678 33.9736C61.9384 30.7269 64.378 30.1455 64.0689 27.7373C63.7705 25.4104 61.4361 25.5059 60.4305 22.6443C59.3251 19.4973 61.5435 17.6673 60.2222 15.7842C58.9303 13.9422 56.5644 15.3437 54.1931 13.2892C51.8576 11.2661 52.7807 8.71685 50.763 7.78069C48.9124 6.92264 47.7918 8.90452 45.0463 8.40444C41.9677 7.84361 41.7073 5.04598 39.2254 4.97439C36.8606 4.90604 36.5438 7.42814 33.4045 7.98897V7.98789Z" stroke="black" stroke-width="0.514183" stroke-linejoin="round"/>
<path d="M54.5726 37.4448C53.7655 36.5845 52.3672 36.0866 51.1686 36.3838C49.6 36.7733 49.4286 38.2616 47.8524 38.4655C46.5572 38.6326 45.5635 37.7702 45.5039 37.717C44.4929 36.8113 44.4462 35.362 44.4419 34.5126C44.4159 29.1538 45.9584 23.1897 46.1417 22.4803C46.5344 20.9584 47.1636 18.4927 47.9197 15.3718L47.1734 14.3261C47.1734 14.3261 43.7921 14.3673 42.6032 14.0787C42.2572 14.735 41.7245 15.7363 41.0585 16.948C38.8054 21.0527 35.3504 26.9962 30.3127 33.4268C28.179 36.1495 25.4236 39.3919 22.5544 39.4115C22.2594 39.4136 21.3362 39.4201 20.4456 38.856C18.6991 37.7507 18.5896 35.4162 18.57 35.0051C18.5527 34.6395 18.4182 31.7638 20.5085 30.5163C20.6897 30.4078 21.9361 29.6886 23.2845 30.0857C24.724 30.5098 24.7229 31.7497 25.9639 32.1402C27.3263 32.5698 29.0902 31.6282 29.9808 30.4067C31.2977 28.6006 30.7705 26.0904 29.8061 24.6162C27.9913 21.8435 23.8843 21.6006 21.3243 22.1983C15.8603 23.4729 13.7884 29.4294 13.4282 30.5521C13.2633 31.0652 10.9224 38.7291 15.3613 42.3892C18.2609 44.7811 22.2659 43.9892 23.1684 43.8113C26.9553 43.0628 29.408 40.2066 33.2438 35.8566C34.6084 34.3098 35.6465 32.9462 36.3419 31.9873C37.6252 32.444 38.9095 32.9017 40.1928 33.3584C40.0746 34.2273 39.6038 38.3527 42.3938 41.7502C42.9536 42.4315 44.623 44.4112 47.4912 44.9937C47.9327 45.0837 52.5495 45.9559 54.5509 43.0162C55.5771 41.5083 55.973 38.9363 54.5726 37.4437V37.4448ZM40.9413 25.8832C40.8817 26.1599 40.8426 26.341 40.822 26.4376C40.7971 26.545 40.7558 26.7001 40.7157 26.9192C40.5942 27.5126 40.5486 27.8847 40.5172 28.5214L40.4217 30.2625L38.263 29.5237L39.2545 28.0897C39.5767 27.5918 39.8934 27.0396 40.0464 26.7294C40.1191 26.5862 40.2373 26.341 40.4022 25.9961C40.5519 25.6598 40.6745 25.4038 40.7547 25.2367L41.0574 25.3398C41.0368 25.4363 40.9977 25.6164 40.9413 25.8822V25.8832Z" fill="black" stroke="black" stroke-width="0.746324" stroke-miterlimit="10"/>
<path d="M48.4697 43.9528C47.4337 43.9528 46.619 43.8042 46.3945 43.7586C44.3963 43.3529 42.6303 42.2313 41.1474 40.4251C38.608 37.3325 38.672 33.6746 38.8629 32.0431L35.3938 30.8075C34.4576 32.0887 33.4488 33.3427 32.3944 34.5381L32.1633 34.7995C28.4339 39.0301 25.9704 41.8256 22.1737 42.5752C21.7951 42.65 20.7906 42.8485 19.5572 42.8485C17.3768 42.8485 15.5576 42.2595 14.1496 41.0988C9.53714 37.2945 12.0256 29.3181 12.1341 28.9797C12.6732 27.295 14.8514 21.703 20.2189 20.4512C20.9869 20.2722 21.8396 20.1778 22.6868 20.1778C25.5191 20.1778 27.8123 21.1997 28.9785 22.9809C29.5187 23.8064 29.8777 24.8597 29.9634 25.8729C30.0665 27.0889 29.7834 28.1943 29.1455 29.0686C28.3102 30.2142 26.8642 31.0147 25.6308 31.0147C25.3531 31.0147 25.0863 30.9757 24.839 30.8976C24.1707 30.6871 23.8258 30.2619 23.4928 29.8508C23.1554 29.4353 22.8375 29.0426 22.165 28.8441C21.922 28.7725 21.6649 28.7356 21.4002 28.7356C20.5226 28.7356 19.798 29.1272 19.5973 29.2476C17.7825 30.3313 17.7521 32.7764 17.7858 33.4999C17.8226 34.2842 18.0678 36.2108 19.5398 37.1426C20.0801 37.4843 20.7201 37.6579 21.4414 37.6579H21.5076C24.1089 37.6394 26.6755 34.819 29.062 31.773C34.1409 25.2904 37.6133 19.284 39.7839 15.3289C40.3067 14.3765 40.8253 13.4132 41.3264 12.4629C41.372 12.3762 41.462 12.323 41.5575 12.323C41.5781 12.323 41.5987 12.3252 41.6193 12.3306L46.9358 13.6236C47.0757 13.6573 47.1614 13.7983 47.1278 13.9393C46.5453 16.3464 45.9465 18.7394 45.3488 21.0522C44.9452 22.6132 43.6327 28.0826 43.6576 33.0183C43.6609 33.7147 43.6685 35.1651 44.6328 36.0286C44.6654 36.0578 45.4301 36.7326 46.4726 36.7326C46.5735 36.7326 46.6744 36.7261 46.7742 36.713C47.501 36.6198 47.885 36.2249 48.3297 35.7693C48.7528 35.3343 49.2333 34.8429 50.061 34.6368C50.3127 34.5739 50.5785 34.5424 50.8518 34.5424C51.9084 34.5424 53.0073 35.0132 53.7178 35.7725C54.5965 36.7098 54.7299 37.9063 54.6876 38.7459C54.6344 39.7819 54.283 40.8482 53.7221 41.6715C52.4389 43.5569 50.1576 43.9528 48.4707 43.9528H48.4697ZM39.1341 28.4102L39.21 27.0141C39.2426 26.3621 39.2903 25.9781 39.414 25.3739C39.4454 25.2014 39.4791 25.0637 39.5029 24.9628L39.5214 24.8858C39.5322 24.8369 39.5485 24.7621 39.5702 24.6623C39.4129 24.991 39.3044 25.2166 39.2339 25.3544C39.0668 25.6928 38.736 26.2634 38.429 26.7386L37.6295 27.896L39.1341 28.4113V28.4102Z" fill="#CBDF00"/>
<path d="M41.5585 12.5863L46.875 13.8794C46.12 17.0003 45.4908 19.467 45.097 20.9879C44.9137 21.6973 43.3711 27.6614 43.3972 33.0202C43.4015 33.8696 43.4482 35.3188 44.4592 36.2246C44.5134 36.2734 45.3443 36.9948 46.4725 36.9948C46.581 36.9948 46.6938 36.9883 46.8077 36.9731C48.3839 36.7692 48.5553 35.2809 50.1239 34.8914C50.3603 34.8329 50.6055 34.8047 50.8517 34.8047C51.8519 34.8047 52.8803 35.2613 53.5279 35.9513C54.9283 37.4439 54.5324 40.0159 53.5062 41.5237C52.2869 43.3147 50.0957 43.6911 48.4696 43.6911C47.4282 43.6911 46.6179 43.5371 46.4454 43.5013C43.5773 42.9198 41.9078 40.939 41.348 40.2578C38.558 36.8603 39.0288 32.7349 39.147 31.866C37.8638 31.4093 36.5794 30.9515 35.2961 30.4948C34.6008 31.4538 33.5615 32.8173 32.198 34.3642C28.3633 38.7142 25.9095 41.5704 22.1226 42.3189C21.7332 42.3959 20.7645 42.5868 19.5571 42.5868C17.9679 42.5868 15.9633 42.256 14.3155 40.8967C9.87768 37.2356 12.2186 29.5728 12.3824 29.0597C12.7426 27.937 14.8145 21.9805 20.2785 20.7059C20.989 20.5399 21.82 20.439 22.6878 20.439C24.943 20.439 27.4499 21.1224 28.7603 23.1238C29.7247 24.598 30.253 27.1082 28.935 28.9143C28.1941 29.9308 26.8479 30.753 25.6318 30.753C25.3867 30.753 25.147 30.7194 24.9181 30.6478C23.6782 30.2573 23.6782 29.0174 22.2387 28.5932C21.9512 28.5086 21.6692 28.475 21.4001 28.475C20.4076 28.475 19.6059 28.9382 19.4627 29.0239C17.3724 30.2714 17.5069 33.146 17.5242 33.5127C17.5438 33.9238 17.6533 36.2582 19.3998 37.3636C20.2318 37.8897 21.0899 37.9201 21.4414 37.9201C21.4663 37.9201 21.4891 37.9201 21.5097 37.9201C24.3789 37.9006 27.1343 34.6582 29.268 31.9354C34.3057 25.5049 37.7607 19.5614 40.0138 15.4566C40.6787 14.2449 41.2124 13.2426 41.5585 12.5874M39.3759 28.769L39.4714 27.0279C39.5028 26.3911 39.5484 26.0191 39.6699 25.4257C39.71 25.2066 39.7513 25.0525 39.7762 24.9441C39.7979 24.8475 39.8359 24.6664 39.8955 24.3897C39.9519 24.124 39.9899 23.9428 40.0116 23.8474L39.709 23.7443C39.6287 23.9114 39.5061 24.1663 39.3564 24.5036C39.1915 24.8486 39.0733 25.0927 39.0006 25.237C38.8476 25.5472 38.5309 26.0983 38.2087 26.5973L37.2172 28.0313L39.3759 28.7701M41.5585 12.0635C41.3676 12.0635 41.1886 12.1676 41.0964 12.3422C40.5963 13.2914 40.0778 14.2536 39.556 15.2039C37.3897 19.1503 33.9239 25.1447 28.8569 31.6122C26.5116 34.6061 23.9971 37.3799 21.5065 37.3973H21.4425C20.771 37.3973 20.1787 37.2378 19.6808 36.9221C18.3118 36.0554 18.0829 34.2319 18.0482 33.4877C18.0157 32.8011 18.0417 30.4807 19.7328 29.4719C19.9194 29.3602 20.592 28.9968 21.4023 28.9968C21.642 28.9968 21.8742 29.0293 22.0933 29.0944C22.6878 29.2701 22.9676 29.6151 23.292 30.0154C23.6326 30.4363 24.0199 30.9125 24.7629 31.1468C25.0363 31.2325 25.3292 31.2759 25.634 31.2759C26.9455 31.2759 28.4783 30.4319 29.3591 29.2224C30.0349 28.296 30.3343 27.1299 30.2259 25.8509C30.1369 24.7965 29.7627 23.6987 29.1997 22.8385C28.5304 21.8167 27.5454 21.0454 26.2719 20.5453C25.2251 20.1342 23.9873 19.9172 22.6899 19.9172C21.8232 19.9172 20.9489 20.0138 20.1624 20.1982C17.7249 20.7666 15.6487 22.2614 13.9901 24.6425C12.8011 26.3499 12.1622 28.0443 11.8878 28.9013C11.8129 29.1345 11.1566 31.252 11.1035 33.7882C11.0731 35.2483 11.2477 36.5772 11.6242 37.7379C12.0982 39.2012 12.8923 40.3999 13.9868 41.3014C15.4426 42.5022 17.3181 43.1108 19.5604 43.1108C20.8198 43.1108 21.8416 42.909 22.2267 42.8331C26.1102 42.065 28.5976 39.2446 32.3618 34.9739L32.5928 34.7124C33.6093 33.5604 34.5823 32.3531 35.4914 31.1208L37.0502 31.6751L38.584 32.2207C38.4105 33.977 38.4495 37.548 40.9488 40.5908C42.4708 42.4447 44.2867 43.5967 46.3456 44.0144C46.5767 44.061 47.413 44.214 48.4728 44.214C50.2237 44.214 52.5928 43.7985 53.9412 41.8188C55.142 40.055 55.4599 37.2454 53.9119 35.5944C53.1525 34.7851 51.9821 34.2818 50.855 34.2818C50.561 34.2818 50.2736 34.3165 50.0013 34.3838C49.1009 34.6072 48.5943 35.1279 48.1463 35.5868C47.7189 36.025 47.3816 36.3711 46.7448 36.4535C46.6569 36.4644 46.5669 36.4709 46.4769 36.4709C45.5353 36.4709 44.8193 35.8406 44.8117 35.8341C43.9341 35.0476 43.9276 33.6765 43.9244 33.0169C43.9005 28.1138 45.2055 22.6715 45.6069 21.1202C46.2046 18.8053 46.8034 16.4112 47.387 14.0009C47.4553 13.721 47.2828 13.4379 47.003 13.3706L46.133 13.1591L41.6865 12.0776C41.6453 12.0678 41.604 12.0624 41.5628 12.0624L41.5585 12.0635ZM38.0406 27.759L38.6394 26.8923C38.6394 26.8923 38.6459 26.8836 38.648 26.8782C38.7641 26.6981 38.8845 26.504 38.9984 26.313C38.9767 26.5202 38.9615 26.7394 38.9485 27.0008L38.891 28.0498L38.0395 27.758L38.0406 27.759Z" fill="black"/>
<path d="M17.0812 39.3823C15.5281 39.3823 14.1192 40.2924 13.4806 41.708L2.65352 65.708C1.47417 68.3222 3.38614 71.2823 6.25409 71.2823H67.1187C68.6717 71.2823 70.0806 70.3723 70.7193 68.9566L81.5463 44.9566C82.7257 42.3424 80.8137 39.3823 77.9458 39.3823H17.0812Z" fill="#FFFBF2" stroke="black" stroke-width="1.5"/>
<mask id="path-10-outside-2_612_5007" maskUnits="userSpaceOnUse" x="1.05188" y="59.7323" width="75" height="13" fill="black">
<rect fill="white" x="1.05188" y="59.7323" width="75" height="13"/>
<path fill-rule="evenodd" clip-rule="evenodd" d="M73.1571 61.7323L70.0371 68.6482C69.5197 69.7951 68.3783 70.5323 67.1202 70.5323H6.25558C3.93218 70.5323 2.38324 68.1343 3.33866 66.0164L5.27134 61.7323H73.1571Z"/>
</mask>
<path fill-rule="evenodd" clip-rule="evenodd" d="M73.1571 61.7323L70.0371 68.6482C69.5197 69.7951 68.3783 70.5323 67.1202 70.5323H6.25558C3.93218 70.5323 2.38324 68.1343 3.33866 66.0164L5.27134 61.7323H73.1571Z" fill="#F85031"/>
<path d="M73.1571 61.7323L74.5244 62.3491L75.4793 60.2323H73.1571V61.7323ZM70.0371 68.6482L68.6698 68.0314V68.0314L70.0371 68.6482ZM3.33866 66.0164L1.97136 65.3996L1.97136 65.3996L3.33866 66.0164ZM5.27134 61.7323V60.2323H4.30246L3.90404 61.1155L5.27134 61.7323ZM71.7897 61.1155L68.6698 68.0314L71.4044 69.265L74.5244 62.3491L71.7897 61.1155ZM68.6698 68.0314C68.3949 68.6406 67.7886 69.0323 67.1202 69.0323V72.0323C68.9681 72.0323 70.6445 70.9495 71.4044 69.265L68.6698 68.0314ZM67.1202 69.0323H6.25558V72.0323H67.1202V69.0323ZM6.25558 69.0323C5.02127 69.0323 4.1984 67.7584 4.70597 66.6332L1.97136 65.3996C0.568077 68.5102 2.84309 72.0323 6.25558 72.0323V69.0323ZM4.70597 66.6332L6.63865 62.3491L3.90404 61.1155L1.97136 65.3996L4.70597 66.6332ZM5.27134 63.2323H73.1571V60.2323H5.27134V63.2323Z" fill="black" mask="url(#path-10-outside-2_612_5007)"/>
</svg>
