<svg width="83" height="73" viewBox="0 0 83 73" fill="none" xmlns="http://www.w3.org/2000/svg">
<mask id="path-1-outside-1_612_10880" maskUnits="userSpaceOnUse" x="-0.400146" y="18.9323" width="72" height="54" fill="black">
<rect fill="white" x="-0.400146" y="18.9323" width="72" height="54"/>
<path fill-rule="evenodd" clip-rule="evenodd" d="M4.79988 20.9323C3.03257 20.9323 1.59988 22.3649 1.59988 24.1322V32.1196C1.59986 32.1238 1.59985 32.128 1.59985 32.1323V67.3323C1.59985 69.0996 3.03254 70.5323 4.79985 70.5323H66.3998C68.1672 70.5323 69.5999 69.0996 69.5999 67.3322V32.1323C69.5999 30.3649 68.1672 28.9323 66.3999 28.9323H40.7433L36.8755 22.4859C36.2972 21.522 35.2555 20.9323 34.1315 20.9323H4.79988Z"/>
</mask>
<path fill-rule="evenodd" clip-rule="evenodd" d="M4.79988 20.9323C3.03257 20.9323 1.59988 22.3649 1.59988 24.1322V32.1196C1.59986 32.1238 1.59985 32.128 1.59985 32.1323V67.3323C1.59985 69.0996 3.03254 70.5323 4.79985 70.5323H66.3998C68.1672 70.5323 69.5999 69.0996 69.5999 67.3322V32.1323C69.5999 30.3649 68.1672 28.9323 66.3999 28.9323H40.7433L36.8755 22.4859C36.2972 21.522 35.2555 20.9323 34.1315 20.9323H4.79988Z" fill="#FFFBF2"/>
<path d="M1.59988 32.1196L3.09988 32.1254V32.1196H1.59988ZM40.7433 28.9323L39.4571 29.704L39.894 30.4323H40.7433V28.9323ZM36.8755 22.4859L35.5892 23.2576L35.5892 23.2576L36.8755 22.4859ZM3.09988 24.1322C3.09988 23.1934 3.86099 22.4323 4.79988 22.4323V19.4323C2.20414 19.4323 0.099878 21.5365 0.099878 24.1322H3.09988ZM3.09988 32.1196V24.1322H0.099878V32.1196H3.09988ZM3.09985 32.1323C3.09985 32.13 3.09986 32.1277 3.09987 32.1254L0.0998892 32.1138C0.0998654 32.12 0.0998535 32.1261 0.0998535 32.1323H3.09985ZM3.09985 67.3323V32.1323H0.0998535V67.3323H3.09985ZM4.79985 69.0323C3.86097 69.0323 3.09985 68.2711 3.09985 67.3323H0.0998535C0.0998535 69.928 2.20411 72.0323 4.79985 72.0323V69.0323ZM66.3998 69.0323H4.79985V72.0323H66.3998V69.0323ZM68.0999 67.3322C68.0999 68.2711 67.3387 69.0323 66.3998 69.0323V72.0323C68.9956 72.0323 71.0999 69.928 71.0999 67.3322H68.0999ZM68.0999 32.1323V67.3322H71.0999V32.1323H68.0999ZM66.3999 30.4323C67.3387 30.4323 68.0999 31.1934 68.0999 32.1323H71.0999C71.0999 29.5365 68.9956 27.4323 66.3999 27.4323V30.4323ZM40.7433 30.4323H66.3999V27.4323H40.7433V30.4323ZM35.5892 23.2576L39.4571 29.704L42.0296 28.1605L38.1617 21.7141L35.5892 23.2576ZM34.1315 22.4323C34.7286 22.4323 35.282 22.7456 35.5892 23.2576L38.1617 21.7141C37.3123 20.2985 35.7824 19.4323 34.1315 19.4323V22.4323ZM4.79988 22.4323H34.1315V19.4323H4.79988V22.4323Z" fill="black" mask="url(#path-1-outside-1_612_10880)"/>
<g clip-path="url(#clip0_612_10880)">
<path d="M30.4626 71.2286C36.2398 71.2286 40.9232 70.2506 40.9232 69.0441C40.9232 67.8376 36.2398 66.8596 30.4626 66.8596C24.6853 66.8596 20.002 67.8376 20.002 69.0441C20.002 70.2506 24.6853 71.2286 30.4626 71.2286Z" fill="black"/>
<path d="M30.4627 71.5246C26.1382 71.5246 19.7031 70.8645 19.7031 69.0441C19.7031 67.2237 26.1382 66.5636 30.4627 66.5636C34.7873 66.5636 41.2223 67.2237 41.2223 69.0441C41.2223 70.8645 34.7873 71.5246 30.4627 71.5246ZM30.4627 67.1586C24.2586 67.1586 20.2981 68.2774 20.2981 69.047C20.2981 69.8166 24.2586 70.9355 30.4627 70.9355C36.6669 70.9355 40.6274 69.8166 40.6274 69.047C40.6274 68.2774 36.6669 67.1586 30.4627 67.1586Z" fill="black"/>
<path d="M46.9384 71.2286C52.7157 71.2286 57.3991 70.2506 57.3991 69.0441C57.3991 67.8376 52.7157 66.8596 46.9384 66.8596C41.1612 66.8596 36.4778 67.8376 36.4778 69.0441C36.4778 70.2506 41.1612 71.2286 46.9384 71.2286Z" fill="black"/>
<path d="M46.9383 71.5246C42.6138 71.5246 36.1787 70.8645 36.1787 69.0441C36.1787 67.2237 42.6138 66.5636 46.9383 66.5636C51.2629 66.5636 57.6979 67.2237 57.6979 69.0441C57.6979 70.8645 51.2629 71.5246 46.9383 71.5246ZM46.9383 67.1586C40.7342 67.1586 36.7737 68.2774 36.7737 69.047C36.7737 69.8166 40.7342 70.9355 46.9383 70.9355C53.1425 70.9355 57.1029 69.8166 57.1029 69.047C57.1029 68.2774 53.1425 67.1586 46.9383 67.1586Z" fill="black"/>
<path d="M71.6481 26.3401C70.9584 27.0979 69.6442 28.2937 67.6787 28.8206C64.4879 29.6731 60.9151 28.4003 58.3577 25.6238C58.334 27.3643 58.3074 29.1047 58.2837 30.8452C58.6152 31.0465 64.7809 34.6488 70.4404 31.5171C73.0541 30.0697 74.3802 27.8408 74.9426 26.7071C73.8444 26.5858 72.7462 26.4644 71.6481 26.3431V26.3401Z" fill="#A19085"/>
<path d="M65.37 33.083C61.4806 33.083 58.3193 31.2034 58.1328 31.0909L57.9907 31.0051L58.0795 24.8868L58.5738 25.4255C61.0958 28.1605 64.556 29.3534 67.6048 28.5394C69.4045 28.0599 70.6802 26.9706 71.435 26.1448L71.5357 26.0353L75.3926 26.4615L75.2061 26.8345C74.4602 28.3322 73.0542 30.4013 70.5826 31.7688C68.8273 32.7397 67.0306 33.083 65.37 33.083ZM58.5768 30.6765C59.5566 31.2301 65.1362 34.1161 70.2984 31.2597C72.4385 30.0757 73.7379 28.3263 74.4868 26.9469L71.7606 26.645C70.621 27.8557 69.2387 28.7022 67.7528 29.0989C64.6892 29.9188 61.2556 28.8591 58.636 26.3253L58.5738 30.6736L58.5768 30.6765Z" fill="black"/>
<path d="M70.9084 25.9731C71.2458 27.086 72.8768 27.3288 73.229 27.3791C73.5191 27.4235 75.23 27.678 75.7569 26.7545C75.9315 26.4467 75.9226 26.1063 75.8782 25.8517C76.5235 25.5528 77.3967 25.0318 78.0479 24.0964C78.4416 23.534 78.3705 23.3683 78.7257 22.6904C79.8357 20.5681 81.5881 20.1419 81.4608 19.1207C81.4312 18.8868 81.295 18.5346 80.709 18.1468C80.7504 18.0788 81.0197 17.6259 80.8421 17.1168C80.6734 16.6313 80.1643 16.2968 79.5841 16.3146C79.6256 16.1932 79.9216 15.2727 79.4539 14.7932C79.1105 14.4409 78.5363 14.5149 78.2403 14.5504C76.3134 14.7902 73.7381 17.0931 73.0011 17.7709C73.4599 15.7936 73.1757 14.0976 72.2877 13.5677C71.5773 13.1444 70.9587 13.3339 70.9587 13.3339C70.8788 13.3576 70.4259 13.4967 70.2039 13.9081C70.0352 14.2219 70.0737 14.5623 70.568 16.1755C70.8758 17.1819 70.9735 17.4187 70.8877 17.7976C70.7752 18.2948 70.4733 18.4724 70.1773 18.8602C69.2478 20.0827 69.5705 21.832 69.6829 22.43C69.9227 23.7324 70.5621 24.6263 70.9202 25.0614C70.8551 25.2864 70.7989 25.6179 70.9084 25.9731Z" fill="#FFFAF0"/>
<path d="M74.0547 27.7432C73.7351 27.7432 73.4302 27.7106 73.1815 27.6751C71.7637 27.465 70.8787 26.9055 70.6211 26.059C70.5323 25.7689 70.5235 25.4581 70.5945 25.1325C69.9818 24.354 69.5644 23.4394 69.3898 22.4833C69.2773 21.8706 68.931 20.0058 69.9403 18.6797C70.0321 18.5583 70.1239 18.4577 70.2127 18.36C70.3991 18.1558 70.5353 18.0078 70.5975 17.7295C70.6537 17.4779 70.6063 17.3092 70.3755 16.5574L70.2837 16.2614C69.7953 14.6659 69.7035 14.2071 69.9403 13.7661C70.1919 13.2984 70.6744 13.109 70.8698 13.0498C70.8994 13.0409 71.6216 12.8278 72.4356 13.3132C73.3118 13.8342 73.6818 15.2254 73.4479 16.9747C74.7444 15.8588 76.6507 14.4498 78.2017 14.2574C78.5332 14.216 79.2199 14.1302 79.6639 14.586C80.0724 15.0063 80.0428 15.6309 79.957 16.0512C80.4957 16.1607 80.9456 16.5248 81.1173 17.0191C81.2594 17.4276 81.1765 17.8065 81.0818 18.0522C81.4814 18.3659 81.7063 18.7122 81.7537 19.0852C81.8336 19.7512 81.3334 20.1982 80.7503 20.7162C80.1997 21.2075 79.5159 21.8173 78.9831 22.8296C78.8411 23.1019 78.773 23.2825 78.7079 23.4542C78.6191 23.691 78.5332 23.913 78.2875 24.2682C77.7814 24.9963 77.0769 25.5883 76.1919 26.0294C76.2126 26.3579 76.1504 26.651 76.0083 26.9026C75.6265 27.5715 74.7977 27.7432 74.0518 27.7432H74.0547ZM71.3167 13.5885C71.1539 13.5885 71.0533 13.6151 71.0444 13.6181C70.9201 13.6566 70.6152 13.775 70.4672 14.0473C70.3518 14.2574 70.3932 14.583 70.855 16.0867L70.9467 16.3798C71.1924 17.176 71.2753 17.4424 71.1806 17.8598C71.0829 18.289 70.8668 18.5258 70.6567 18.7566C70.5797 18.8425 70.4968 18.9313 70.4169 19.0349C69.5674 20.1508 69.8752 21.8232 69.9759 22.3708C70.186 23.5163 70.7307 24.3599 71.151 24.8661L71.2516 24.9874L71.2072 25.1384C71.1303 25.4078 71.1243 25.6594 71.1924 25.8814C71.3759 26.4822 72.113 26.9085 73.2703 27.0802C74.3981 27.2489 75.2299 27.0683 75.4963 26.6006C75.6028 26.4142 75.6324 26.1774 75.5851 25.8932L75.5466 25.6682L75.7538 25.5735C76.6329 25.168 77.3226 24.6115 77.8051 23.9189C78.0093 23.6258 78.0715 23.463 78.1573 23.2351C78.2254 23.0546 78.3023 22.8503 78.4622 22.5454C79.0423 21.4354 79.8031 20.7576 80.3595 20.2633C80.919 19.766 81.2091 19.4878 81.1676 19.1474C81.138 18.8928 80.9279 18.6382 80.546 18.3866L80.3063 18.2298L80.4572 17.9841C80.4987 17.919 80.6911 17.5726 80.5638 17.2086C80.4365 16.8415 80.0487 16.5929 79.5929 16.6047L79.1667 16.6166L79.3028 16.214C79.4094 15.8943 79.5189 15.2786 79.2436 14.9974C79.0039 14.7518 78.5332 14.811 78.2787 14.8406C76.5441 15.0566 74.1524 17.1109 73.2052 17.9841L72.4978 18.6382L72.7168 17.6999C73.1431 15.8706 72.9063 14.2752 72.1396 13.8194C71.817 13.627 71.521 13.5855 71.3197 13.5855L71.3167 13.5885Z" fill="black"/>
<path d="M72.3882 17.993C72.5007 18.0196 73.6432 18.3097 74.0724 19.396C74.4424 20.3314 74.1227 21.4621 73.2614 22.1577" fill="#FFFAF0"/>
<path d="M73.4478 22.3856L73.0749 21.9238C73.8237 21.32 74.1197 20.3254 73.7941 19.5026C73.4241 18.5672 72.4296 18.3067 72.3201 18.2801L72.4562 17.7029C72.5983 17.7354 73.8682 18.067 74.3477 19.2865C74.768 20.3462 74.395 21.6219 73.4478 22.3886V22.3856Z" fill="black"/>
<path d="M74.8862 18.8958C75.2089 19.0705 75.6647 19.3665 76.0998 19.8519C76.6415 20.4528 76.905 21.0655 77.0352 21.4444" fill="#FFFAF0"/>
<path d="M76.7539 21.5391C76.5645 20.9826 76.2685 20.4824 75.8808 20.0502C75.5552 19.6891 75.1733 19.3901 74.7471 19.1563L75.0312 18.6353C75.5196 18.8988 75.9548 19.2421 76.3248 19.6536C76.7688 20.1449 77.1032 20.7162 77.3193 21.3467L76.7569 21.5391H76.7539Z" fill="black"/>
<path d="M79.584 16.3116C79.0837 16.4715 78.5036 16.7024 77.8908 17.0457C76.6832 17.7236 75.8573 18.5583 75.3423 19.1799" fill="#FFFAF0"/>
<path d="M75.5703 19.3693L75.1145 18.9905C75.8604 18.0906 76.7455 17.3506 77.7459 16.7882C78.2965 16.4774 78.8855 16.2229 79.4953 16.0305L79.6759 16.5958C79.1046 16.7764 78.554 17.0161 78.039 17.3062C77.1007 17.8331 76.2719 18.5287 75.5733 19.3693H75.5703Z" fill="black"/>
<path d="M80.7088 18.1439C80.1494 18.4192 79.5485 18.7448 78.9239 19.1355C78.0714 19.6683 77.3403 20.2159 76.7217 20.7339" fill="#FFFAF0"/>
<path d="M76.9141 20.9618L76.5322 20.506C77.2367 19.9169 77.9886 19.3723 78.767 18.8839C79.3502 18.5198 79.9599 18.1824 80.5786 17.8775L80.839 18.4103C80.2382 18.7033 79.6462 19.0319 79.0808 19.3871C78.326 19.8577 77.5949 20.3876 76.9111 20.9618H76.9141Z" fill="black"/>
<path d="M48.8029 59.9745C49.0131 60.0189 49.8389 60.1965 50.7832 60.4156C52.4112 60.7885 53.2252 60.978 53.4708 61.0875C55.2794 61.9015 56.5788 65.2374 55.5991 67.1525C54.5039 69.2897 50.8512 69.1002 45.8696 68.8279C44.3452 68.745 37.623 68.2773 37.1346 65.9774C37.1109 65.8679 37.1346 65.3765 37.179 64.3938C37.2648 62.5823 37.3063 61.6765 37.3655 61.5167C38.3571 58.906 46.4053 59.4802 48.8029 59.9775V59.9745Z" fill="#FFFAF0"/>
<path d="M50.1557 69.2838C48.877 69.2838 47.4325 69.2038 45.8489 69.118C43.3092 68.9789 37.3478 68.3987 36.8446 66.0366C36.815 65.8946 36.8268 65.5778 36.8831 64.379C36.9837 62.1886 37.0163 61.6085 37.0873 61.4131C37.5639 60.1581 39.3991 59.4447 42.5367 59.2908C44.8336 59.1783 47.5065 59.4122 48.8563 59.6934C49.0427 59.7318 49.8627 59.9094 50.8424 60.1344C52.5385 60.5251 53.3111 60.7027 53.5834 60.8241C54.5424 61.2562 55.3979 62.3278 55.8774 63.6894C56.3451 65.0302 56.3362 66.3415 55.8507 67.2858C55.0279 68.8871 53.0091 69.2838 50.1498 69.2838H50.1557ZM43.8065 59.8414C43.398 59.8414 42.9836 59.8502 42.5692 59.871C39.7631 60.0101 38.0108 60.6317 37.6349 61.6203C37.5905 61.7772 37.5402 62.8221 37.4662 64.4057C37.4277 65.2226 37.4011 65.8146 37.4159 65.9212C37.7563 67.5226 42.0127 68.3247 45.8785 68.5349C50.5938 68.7954 54.3175 68.9996 55.3327 67.0194C55.7383 66.2261 55.7383 65.0539 55.3268 63.8818C54.9065 62.6859 54.1487 61.718 53.3436 61.3539C53.1246 61.2562 52.2159 61.0461 50.7092 60.6998C49.7354 60.4748 48.9214 60.3002 48.7349 60.2617C47.8587 60.0811 45.8933 59.8414 43.8006 59.8414H43.8065Z" fill="black"/>
<path d="M47.7903 54.9041C48.5303 56.094 47.743 57.6303 48.8027 58.4236C49.3177 58.8084 49.7114 58.6012 50.7829 58.8646C51.4223 59.0156 52.6092 59.3944 53.6867 60.4038C55.0571 61.6884 56.2944 64.0416 55.5988 65.6016C54.6339 67.7594 50.3567 67.5226 45.8693 67.2769C44.3449 67.194 37.6227 66.7264 37.1343 64.4264C37.1107 64.3169 37.1343 63.8256 37.1787 62.8428C37.235 61.6559 37.3179 60.4127 37.3652 59.9657C37.4392 59.2524 37.7441 56.2746 39.7421 54.6436C42.2048 52.6279 46.6478 53.063 47.7933 54.9071L47.7903 54.9041Z" fill="#FFDC50"/>
<path d="M49.9631 67.7268C48.6784 67.7268 47.2784 67.6498 45.8516 67.5699C43.309 67.4308 37.3446 66.8506 36.8414 64.4826C36.8118 64.3405 36.8236 64.0209 36.8799 62.8221C36.9361 61.5996 37.022 60.3682 37.0664 59.9272C37.3979 56.7689 38.5997 55.1823 39.5498 54.4068C41.2104 53.0511 43.4984 52.8498 45.085 53.1133C46.4614 53.3441 47.5388 53.9361 48.0391 54.7442C48.415 55.3481 48.4387 56.02 48.4624 56.612C48.489 57.2928 48.5097 57.8315 48.9774 58.1837C49.2112 58.3584 49.4096 58.3761 49.7677 58.4057C50.043 58.4294 50.3864 58.459 50.8511 58.5715C52.0055 58.8468 53.0563 59.4033 53.888 60.1817C55.4302 61.6292 56.5935 64.0949 55.8683 65.7169C55.1431 67.3361 52.8402 67.7209 49.9631 67.7209V67.7268ZM43.8477 53.6105C42.3707 53.6105 40.9144 54.0664 39.9287 54.8715C39.0644 55.5789 37.9692 57.0382 37.6613 59.9864C37.614 60.4274 37.5311 61.644 37.4748 62.8546C37.4364 63.6716 37.4097 64.2606 37.4245 64.3672C37.7649 65.9656 42.0155 66.7648 45.8842 66.9779C50.0963 67.2088 54.4445 67.4485 55.3266 65.4801C55.9364 64.1185 54.8441 61.8956 53.4825 60.6198C52.7277 59.9124 51.7687 59.4033 50.7149 59.1517C50.2916 59.0481 49.9897 59.0214 49.7204 59.0007C49.3149 58.9652 48.9952 58.9385 48.6252 58.6603C47.9296 58.1393 47.9029 57.3757 47.8733 56.6357C47.8526 56.091 47.8319 55.5286 47.5388 55.058C47.1274 54.3979 46.2009 53.9006 44.9903 53.6993C44.6114 53.6372 44.2296 53.6046 43.8448 53.6046L43.8477 53.6105Z" fill="black"/>
<path d="M45.4608 56.3545C46.2866 56.1888 49.1105 55.5731 49.1549 54.5963C49.1993 53.6609 46.6981 52.69 44.6231 52.4858C41.2161 52.1484 37.6997 53.7586 37.8033 54.6851C37.8506 55.0995 38.6409 55.5583 41.5861 55.872" fill="#FFDC50"/>
<path d="M45.5171 56.6475L45.4016 56.0644C47.7637 55.5908 48.8412 54.9781 48.8589 54.5815C48.8856 53.9806 46.8254 53.0008 44.5965 52.7788C41.9059 52.5124 39.1087 53.5099 38.2888 54.3447C38.1437 54.4927 38.0964 54.6022 38.1023 54.6495C38.1023 54.6732 38.2059 55.2119 41.6217 55.576L41.5596 56.168C38.0964 55.801 37.5695 55.2297 37.5132 54.7176C37.4836 54.4601 37.602 54.1967 37.8655 53.9273C38.8896 52.8883 41.9266 51.9204 44.6557 52.1898C46.6537 52.3881 49.5131 53.3619 49.4539 54.6111C49.4154 55.4458 48.0923 56.1325 45.52 56.6475H45.5171Z" fill="black"/>
<path d="M49.4927 58.6782C48.7735 58.7641 47.622 58.989 46.3847 59.6757C44.8248 60.5401 43.9161 61.6945 43.478 62.3397" fill="#FFDC50"/>
<path d="M43.7267 62.5055L43.2354 62.1739C44.0079 61.0314 45.0469 60.0782 46.2427 59.4182C47.2373 58.8676 48.3206 58.5183 49.4602 58.3851L49.5283 58.9742C48.4657 59.0985 47.4593 59.4211 46.5298 59.9362C45.4169 60.5518 44.446 61.4399 43.7267 62.5055Z" fill="black"/>
<path d="M46.1541 24.6026L40.7639 28.1812V54.0724C41.3589 54.3269 42.3416 54.6614 43.5966 54.694C45.0618 54.7324 46.2014 54.3417 46.826 54.0724C46.601 44.2481 46.3761 34.4268 46.1511 24.6026H46.1541Z" fill="#A19085"/>
<path d="M43.7918 54.987C43.7237 54.987 43.6586 54.987 43.5905 54.987C42.5753 54.9604 41.5866 54.7443 40.6483 54.3417L40.4707 54.2648V28.0244L46.4321 24.0668L47.1218 54.2618L46.9413 54.3388C45.9497 54.765 44.8633 54.987 43.7889 54.987H43.7918ZM41.0568 53.877C41.8737 54.2026 42.7292 54.3802 43.6083 54.4009C44.6029 54.4276 45.6063 54.247 46.5357 53.877L45.8786 25.1384L41.0597 28.3352V53.877H41.0568Z" fill="black"/>
<path d="M42.3354 59.9185C42.886 59.4715 43.7444 58.8825 44.9077 58.4562C46.3403 57.9293 47.6072 57.879 48.3827 57.9086" fill="#FFDC50"/>
<path d="M42.5248 60.1493L42.1519 59.6875C42.9511 59.0393 43.845 58.5302 44.807 58.1779C45.9584 57.7547 47.1661 57.5623 48.3945 57.6126L48.3708 58.2046C47.2194 58.1631 46.0887 58.3378 45.0112 58.7344C44.1114 59.0659 43.2737 59.5425 42.5248 60.1493Z" fill="black"/>
<path d="M33.1445 59.9745C33.3546 60.0189 34.1805 60.1965 35.1247 60.4156C36.7527 60.7885 37.5667 60.978 37.8124 61.0875C39.6209 61.9015 40.9204 65.2374 39.9406 67.1525C38.8454 69.2897 35.1928 69.1002 30.2111 68.8279C28.6867 68.745 21.9645 68.2773 21.4761 65.9774C21.4525 65.8679 21.4761 65.3765 21.5205 64.3938C21.6064 62.5823 21.6478 61.6765 21.707 61.5167C22.6986 58.906 30.7469 59.4802 33.1445 59.9775V59.9745Z" fill="#FFFAF0"/>
<path d="M34.5002 69.2838C33.2215 69.2838 31.777 69.2038 30.1934 69.118C27.6537 68.9789 21.6923 68.3987 21.1891 66.0366C21.1595 65.8946 21.1713 65.5778 21.2275 64.379C21.3282 62.1886 21.3607 61.6085 21.4318 61.4131C21.9083 60.1581 23.7435 59.4447 26.8811 59.2908C29.1781 59.1783 31.851 59.4122 33.2007 59.6934C33.3872 59.7318 34.2071 59.9094 35.1869 60.1344C36.883 60.5251 37.6555 60.7027 37.9279 60.8241C38.8869 61.2562 39.7453 62.3278 40.2219 63.6894C40.6895 65.0302 40.6807 66.3415 40.1952 67.2858C39.3723 68.8871 37.3536 69.2838 34.4943 69.2838H34.5002ZM28.148 59.8414C27.7395 59.8414 27.3251 59.8502 26.9107 59.871C24.1047 60.0101 22.3523 60.6317 21.9764 61.6203C21.932 61.7772 21.8787 62.8813 21.8077 64.4057C21.7692 65.2256 21.7426 65.8146 21.7574 65.9212C22.0978 67.5226 26.3513 68.3218 30.22 68.5349C34.9353 68.7954 38.659 68.9996 39.6743 67.0194C40.0827 66.2261 40.0798 65.0539 39.6683 63.8818C39.248 62.6859 38.4903 61.718 37.6851 61.3539C37.4661 61.2562 36.5574 61.0461 35.0507 60.6998C34.0769 60.4778 33.2629 60.3002 33.0764 60.2617C32.2003 60.0811 30.2348 59.8414 28.1421 59.8414H28.148Z" fill="black"/>
<path d="M32.1319 54.9041C32.8719 56.094 32.0845 57.6303 33.1442 58.4236C33.6593 58.8084 34.0529 58.6012 35.1245 58.8646C35.7638 59.0156 36.9508 59.3944 38.0282 60.4038C39.3987 61.6884 40.636 64.0416 39.9404 65.6016C38.9754 67.7594 34.6982 67.5226 30.2109 67.2769C28.6865 67.194 21.9643 66.7264 21.4759 64.4264C21.4522 64.3169 21.4759 63.8256 21.5203 62.8428C21.5765 61.6559 21.6594 60.4127 21.7068 59.9657C21.7808 59.2524 22.0857 56.2746 24.0837 54.6436C26.5464 52.6279 30.9893 53.063 32.1349 54.9071L32.1319 54.9041Z" fill="#FFDC50"/>
<path d="M34.3046 67.7268C33.02 67.7268 31.6199 67.6498 30.1932 67.5699C27.6506 67.4308 21.6862 66.8506 21.183 64.4826C21.1534 64.3405 21.1652 64.0209 21.2214 62.8221C21.2777 61.6025 21.3635 60.3712 21.4109 59.9272C21.7424 56.7689 22.9442 55.1823 23.8943 54.4068C25.5549 53.0511 27.84 52.8498 29.4295 53.1133C30.8059 53.3412 31.8834 53.9361 32.3836 54.7442C32.7595 55.3481 32.7832 56.02 32.8069 56.612C32.8335 57.2928 32.8542 57.8315 33.3219 58.1837C33.5558 58.3584 33.7541 58.3761 34.1122 58.4057C34.3875 58.4294 34.7309 58.459 35.1956 58.5715C36.35 58.8468 37.4008 59.4033 38.2326 60.1817C39.7747 61.6292 40.938 64.0949 40.2128 65.7169C39.4876 67.3361 37.1847 67.7209 34.3076 67.7209L34.3046 67.7268ZM28.1893 53.6105C26.7122 53.6105 25.2559 54.0664 24.2702 54.8715C23.4059 55.5789 22.3107 57.0382 22.0029 59.9864C21.9555 60.4304 21.8726 61.6469 21.8164 62.8546C21.7779 63.6716 21.7513 64.2636 21.7661 64.3701C22.1065 65.9685 26.357 66.7677 30.2258 66.9809C34.4378 67.2117 38.789 67.4515 39.6682 65.4831C40.2779 64.1215 39.1857 61.8985 37.8241 60.6228C37.0693 59.9153 36.1102 59.4062 35.0565 59.1546C34.6332 59.051 34.3313 59.0244 34.0619 59.0037C33.6564 58.9681 33.3367 58.9415 32.9667 58.6633C32.2711 58.1423 32.2415 57.3786 32.2149 56.6386C32.1942 56.094 32.1734 55.5316 31.8804 55.0609C31.469 54.4009 30.5425 53.9036 29.3318 53.7023C28.953 53.6401 28.5711 53.6076 28.1863 53.6076L28.1893 53.6105Z" fill="black"/>
<path d="M29.8026 56.3545C30.6284 56.1888 33.4523 55.5731 33.4967 54.5963C33.5411 53.6609 31.0399 52.69 28.9649 52.4858C25.5579 52.1484 22.0415 53.7586 22.1451 54.6851C22.1924 55.0995 22.9827 55.5583 25.9279 55.872" fill="#FFDC50"/>
<path d="M29.8589 56.6475L29.7434 56.0644C32.1055 55.5908 33.183 54.9781 33.2007 54.5815C33.2274 53.9806 31.1672 53.0008 28.9383 52.7788C26.2477 52.5124 23.4505 53.5099 22.6305 54.3447C22.4855 54.4927 22.4381 54.6022 22.4441 54.6495C22.4441 54.6732 22.5477 55.2119 25.9635 55.576L25.9013 56.168C22.4381 55.801 21.9113 55.2297 21.855 54.7176C21.8254 54.4601 21.9438 54.1967 22.2073 53.9273C23.2314 52.8883 26.2684 51.9204 28.9975 52.1898C30.9955 52.3881 33.8549 53.3619 33.7957 54.6111C33.7572 55.4458 32.4341 56.1325 29.8618 56.6475H29.8589Z" fill="black"/>
<path d="M33.8343 58.6782C33.115 58.7641 31.9636 58.989 30.7263 59.6757C29.1664 60.5401 28.2577 61.6945 27.8196 62.3397" fill="#FFDC50"/>
<path d="M28.0683 62.5055L27.5769 62.1739C28.3495 61.0314 29.3884 60.0782 30.5843 59.4182C31.5788 58.8676 32.6622 58.5183 33.8018 58.3851L33.8699 58.9742C32.8072 59.0985 31.8008 59.4211 30.8714 59.9362C29.7584 60.5518 28.7875 61.4399 28.0683 62.5055Z" fill="black"/>
<path d="M30.4954 24.6026L25.1052 28.1812V54.0724C25.7002 54.3269 26.6829 54.6614 27.9379 54.694C29.4031 54.7324 30.5427 54.3417 31.1673 54.0724C30.9423 44.2481 30.7174 34.4268 30.4924 24.6026H30.4954Z" fill="#A19085"/>
<path d="M28.1334 54.987C28.0653 54.987 28.0002 54.987 27.9321 54.987C26.9168 54.9604 25.9282 54.7443 24.9899 54.3417L24.8123 54.2648V28.0244L30.7737 24.0668L31.4634 54.2618L31.2828 54.3388C30.2912 54.765 29.2049 54.987 28.1304 54.987H28.1334ZM25.3983 53.877C26.2153 54.2026 27.0707 54.3802 27.9469 54.4009C28.9385 54.4276 29.9449 54.247 30.8743 53.877L30.2172 25.1384L25.3983 28.3352V53.877Z" fill="black"/>
<path d="M26.6768 59.9185C27.2273 59.4715 28.0857 58.8825 29.249 58.4562C30.6816 57.9293 31.9485 57.879 32.724 57.9086" fill="#FFDC50"/>
<path d="M26.8664 60.1493L26.4934 59.6875C27.2926 59.0393 28.1865 58.5302 29.1485 58.1779C30.3 57.7547 31.5076 57.5623 32.736 57.6126L32.7124 58.2046C31.558 58.1631 30.4302 58.3378 29.3528 58.7344C28.4529 59.0659 27.6152 59.5425 26.8664 60.1493Z" fill="black"/>
<path d="M62.2297 23.0042L21.3876 42.0429L7.79829 32.7722C7.04053 32.2542 6.59949 31.3869 6.62909 30.4693L7.02277 18.1735C7.06717 16.806 8.13277 15.6901 9.49437 15.5835L46.6986 12.662C47.3291 12.6117 47.9566 12.7863 48.4716 13.1563L62.2327 23.0042H62.2297Z" fill="#D3C0B1"/>
<path d="M21.3609 42.3774L21.2248 42.2827L7.63542 33.012C6.79182 32.4348 6.30638 31.4817 6.33894 30.4605L6.73262 18.1646C6.77998 16.6461 7.95806 15.4118 9.47358 15.2934L46.6778 12.3719C47.3734 12.3157 48.072 12.511 48.6433 12.9195L62.8098 23.0575L21.3669 42.3774H21.3609ZM46.9057 12.9462C46.8436 12.9462 46.7814 12.9462 46.7193 12.9521L9.51502 15.8736C8.29846 15.9683 7.35126 16.9599 7.31278 18.1824L6.9191 30.4782C6.89246 31.3011 7.28318 32.0677 7.96102 32.5295L21.4142 41.7085L61.6525 22.948L48.2969 13.3902C47.8885 13.1001 47.4001 12.9432 46.9028 12.9432L46.9057 12.9462Z" fill="black"/>
<path d="M61.1225 38.9231L22.015 41.9926C21.1092 42.0636 20.3426 41.3325 20.3722 40.4238L20.7925 27.3199C20.8162 26.5444 21.423 25.9109 22.1955 25.8488L61.3031 22.7792C62.2088 22.7082 62.9754 23.4393 62.9459 24.348L62.5255 37.452C62.5019 38.2275 61.8951 38.8609 61.1225 38.9231Z" fill="#D3C0B1"/>
<path d="M21.8966 42.2886C21.4318 42.2886 20.9819 42.111 20.6415 41.7854C20.2686 41.4302 20.0643 40.93 20.0791 40.4149L20.4994 27.311C20.529 26.3845 21.2483 25.6297 22.1718 25.5587L61.2794 22.4892C61.7944 22.4477 62.3035 22.6312 62.6765 22.9864C63.0494 23.3416 63.2537 23.8419 63.2389 24.3569L62.8186 37.4608C62.789 38.3873 62.0697 39.1421 61.1462 39.2132L22.0386 42.2827C21.9913 42.2856 21.9439 42.2886 21.8966 42.2886ZM61.4214 23.0664C61.3889 23.0664 61.3563 23.0664 61.3238 23.0693L22.2162 26.1388C21.5887 26.1892 21.1003 26.6983 21.0796 27.3288L20.6593 40.4327C20.6474 40.782 20.7866 41.1224 21.0411 41.3651C21.2957 41.6078 21.642 41.7321 21.9883 41.7025L61.0958 38.633C61.7234 38.5827 62.2118 38.0736 62.2325 37.4431L62.6528 24.3392C62.6646 23.9899 62.5255 23.6495 62.271 23.4068C62.0401 23.1877 61.7352 23.0664 61.4185 23.0664H61.4214Z" fill="black"/>
<path d="M60.1309 38.9112L22.678 41.8534L23.0835 29.1461C23.1013 28.6044 23.5245 28.1604 24.0662 28.116L59.382 25.3425C60.0154 25.2922 60.5512 25.8043 60.5305 26.4407L60.1309 38.9141V38.9112Z" fill="#D3C0B1"/>
<path d="M22.373 42.1672L22.7904 29.1343C22.8141 28.4417 23.3498 27.8793 24.0425 27.823L59.3582 25.0495C59.7401 25.0199 60.1219 25.1561 60.4031 25.4195C60.6843 25.683 60.8353 26.0589 60.8234 26.4437L60.415 39.1776L22.376 42.1642L22.373 42.1672ZM59.4648 25.6297C59.4441 25.6297 59.4234 25.6297 59.4026 25.6297L24.0869 28.4032C23.6932 28.4358 23.3854 28.7554 23.3735 29.1491L22.9769 41.5308L59.8466 38.6359L60.2374 26.4259C60.2433 26.2039 60.1604 25.9938 59.9976 25.8398C59.8526 25.7007 59.6631 25.6267 59.4648 25.6267V25.6297Z" fill="black"/>
<path d="M25.9846 32.4732C26.8527 32.4732 27.5564 31.7695 27.5564 30.9015C27.5564 30.0334 26.8527 29.3297 25.9846 29.3297C25.1165 29.3297 24.4128 30.0334 24.4128 30.9015C24.4128 31.7695 25.1165 32.4732 25.9846 32.4732Z" fill="#FF3C18"/>
<path d="M25.9845 32.7693C25.9637 32.7693 25.943 32.7693 25.9223 32.7693C24.8922 32.7367 24.0812 31.8724 24.1137 30.8423C24.1285 30.3421 24.3387 29.8803 24.7028 29.5399C25.0669 29.1995 25.5375 29.0219 26.0407 29.0338C26.5409 29.0486 27.0027 29.2587 27.3431 29.6228C27.6835 29.9869 27.8641 30.4634 27.8493 30.9607C27.8345 31.458 27.6243 31.9227 27.2602 32.2631C26.9109 32.5917 26.4581 32.7693 25.9815 32.7693H25.9845ZM25.9815 29.6258C25.6559 29.6258 25.3481 29.7471 25.1113 29.9721C24.8626 30.2059 24.7205 30.5197 24.7087 30.8601C24.685 31.5616 25.2385 32.1536 25.943 32.1743C26.2805 32.1862 26.609 32.0618 26.8547 31.831C27.1033 31.5971 27.2454 31.2834 27.2573 30.943C27.2691 30.6026 27.1448 30.277 26.9139 30.0313C26.6801 29.7826 26.3663 29.6406 26.0259 29.6287C26.0111 29.6287 25.9993 29.6287 25.9845 29.6287L25.9815 29.6258Z" fill="black"/>
<path d="M34.8496 42.4721C38.6145 42.4721 41.6665 39.4201 41.6665 35.6553C41.6665 31.8904 38.6145 28.8384 34.8496 28.8384C31.0847 28.8384 28.0327 31.8904 28.0327 35.6553C28.0327 39.4201 31.0847 42.4721 34.8496 42.4721Z" fill="#A19085"/>
<path d="M34.8584 42.7622C34.7815 42.7622 34.7015 42.7622 34.6246 42.7592C30.7085 42.6349 27.6242 39.3464 27.7485 35.4273C27.8107 33.53 28.6039 31.7688 29.9892 30.4693C31.3745 29.1699 33.1801 28.492 35.0775 28.5483C36.9748 28.6104 38.736 29.4037 40.0355 30.789C41.3349 32.1743 42.0157 33.9799 41.9565 35.8772C41.8943 37.7746 41.0981 39.5358 39.7158 40.8352C38.3867 42.0814 36.6699 42.7592 34.8584 42.7592V42.7622ZM34.8466 29.1314C33.1831 29.1314 31.6083 29.753 30.3888 30.8956C29.119 32.0884 28.3879 33.7046 28.3316 35.4451C28.2162 39.0415 31.0489 42.0607 34.6423 42.1732C36.3858 42.2294 38.0434 41.6019 39.3132 40.412C40.5831 39.2191 41.3142 37.6029 41.3704 35.8624C41.4267 34.122 40.7991 32.4614 39.6092 31.1916C38.4163 29.9217 36.8002 29.1906 35.0597 29.1344C34.9887 29.1344 34.9176 29.1314 34.8466 29.1314Z" fill="black"/>
<path d="M35.9507 42.6764C39.7155 42.6764 42.7676 39.6243 42.7676 35.8595C42.7676 32.0946 39.7155 29.0426 35.9507 29.0426C32.1858 29.0426 29.1338 32.0946 29.1338 35.8595C29.1338 39.6243 32.1858 42.6764 35.9507 42.6764Z" fill="#D3C0B1"/>
<path d="M35.9565 42.9664C35.8796 42.9664 35.8026 42.9664 35.7227 42.9634C33.8253 42.9013 32.0641 42.108 30.7647 40.7227C29.4652 39.3374 28.7844 37.5318 28.8436 35.6345C28.9028 33.7371 29.6991 31.9759 31.0844 30.6765C32.4696 29.377 34.2812 28.6992 36.1726 28.7554C40.0887 28.8798 43.173 32.1683 43.0487 36.0874C42.9865 37.9847 42.1932 39.7459 40.808 41.0454C39.4789 42.2915 37.7621 42.9694 35.9506 42.9694L35.9565 42.9664ZM35.9447 29.3356C34.2812 29.3356 32.7064 29.9572 31.4869 31.0998C30.2171 32.2926 29.486 33.9088 29.4297 35.6493C29.3735 37.3898 30.001 39.0503 31.1909 40.3202C32.3808 41.59 34 42.3211 35.7404 42.3774C37.4839 42.4336 39.1415 41.8061 40.4113 40.6162C41.6812 39.4233 42.4123 37.8071 42.4685 36.0666C42.584 32.4702 39.7512 29.451 36.1578 29.3386C36.0868 29.3386 36.0157 29.3356 35.9447 29.3356Z" fill="black"/>
<path d="M35.9507 40.6281C38.5843 40.6281 40.7192 38.4931 40.7192 35.8595C40.7192 33.2259 38.5843 31.0909 35.9507 31.0909C33.3171 31.0909 31.1821 33.2259 31.1821 35.8595C31.1821 38.4931 33.3171 40.6281 35.9507 40.6281Z" fill="black"/>
<path d="M58.5726 28.1279L44.5347 29.1046L44.5751 29.6863L58.613 28.7096L58.5726 28.1279Z" fill="black"/>
<path d="M58.5259 29.5596L44.8826 30.5352L44.9242 31.1168L58.5675 30.1412L58.5259 29.5596Z" fill="black"/>
<path d="M58.4805 31.1734L45.1338 32.0623L45.1725 32.6441L58.5192 31.7553L58.4805 31.1734Z" fill="black"/>
<path d="M58.4291 32.7306L49.916 33.3229L49.9565 33.9046L58.4696 33.3123L58.4291 32.7306Z" fill="black"/>
<path d="M58.3775 34.2887L50.1343 34.738L50.166 35.3203L58.4092 34.871L58.3775 34.2887Z" fill="black"/>
<path d="M58.3291 35.8432L50.0859 36.2925L50.1177 36.8747L58.3609 36.4254L58.3291 35.8432Z" fill="black"/>
<path d="M8.10849 16.1586L7.76123 16.6271L21.0845 26.5038L21.4317 26.0353L8.10849 16.1586Z" fill="black"/>
<path d="M30.6701 16.0749C30.5605 15.2905 29.6045 8.13022 31.0519 6.82782C31.5788 6.35422 32.0879 6.35718 32.0879 6.35718C32.8279 6.3631 33.3696 7.10014 33.6064 7.42574C35.0479 9.3971 34.5654 15.7552 34.5033 16.5041" fill="#FFFAF0"/>
<path d="M34.7934 16.5307L34.2132 16.4833C34.2695 15.77 34.7371 9.46812 33.3696 7.60036C33.1624 7.3162 32.6799 6.65612 32.085 6.6502C32.0731 6.6502 31.6735 6.66204 31.2473 7.04684C30.1699 8.01476 30.5606 13.1533 30.9602 16.0364L30.383 16.1163C30.1195 14.2219 29.3795 7.94372 30.8595 6.61172C31.4634 6.06708 32.0702 6.06708 32.0939 6.06708C32.9819 6.073 33.5857 6.9018 33.8462 7.257C35.3055 9.255 34.897 15.3348 34.7993 16.5307H34.7934Z" fill="black"/>
<path d="M33.3517 16.0512L33.2097 14.8672C33.1889 14.6807 33.0439 14.5327 32.8604 14.5002C32.4637 14.435 32.0671 14.3699 31.6734 14.3048C31.5254 14.2811 31.4929 14.0858 31.6231 14.0118C32.8989 13.2747 33.3014 11.7947 32.7953 10.9067C32.3868 10.1934 31.3537 9.8056 30.2822 10.0187L30.744 16.0275C31.1021 15.9506 31.5669 15.8884 32.1056 15.8973C32.5969 15.9062 33.0202 15.9713 33.3547 16.0482L33.3517 16.0512Z" fill="black"/>
<path d="M38.0375 16.1162C37.928 15.3318 36.9719 8.1716 38.4193 6.8692C38.9462 6.3956 39.4553 6.39856 39.4553 6.39856C40.1953 6.40448 40.737 7.14152 40.9738 7.46712C42.4153 9.43848 41.9329 15.7966 41.8707 16.5454" fill="#FFFAF0"/>
<path d="M42.1637 16.5721L41.5836 16.5248C41.6398 15.8114 42.1075 9.50956 40.74 7.6418C40.5328 7.35764 40.0503 6.69756 39.4553 6.69164C39.4435 6.69164 39.0439 6.70348 38.6177 7.08828C37.5402 8.0562 37.9309 13.1948 38.3305 16.0778L37.7533 16.1577C37.4899 14.2633 36.7499 7.98516 38.2299 6.65316C38.8337 6.10852 39.4405 6.10852 39.4613 6.10852C40.3493 6.11444 40.9531 6.94324 41.2136 7.29548C42.6729 9.29348 42.2644 15.3733 42.1667 16.5721H42.1637Z" fill="black"/>
<path d="M40.7192 16.0926L40.5771 14.9086C40.5564 14.7222 40.4113 14.5742 40.2278 14.5416C39.8312 14.4765 39.4345 14.4114 39.0409 14.3462C38.8929 14.3226 38.8603 14.1272 38.9905 14.0532C40.2663 13.3162 40.6689 11.8362 40.1627 10.9482C39.7542 10.2348 38.7212 9.84704 37.6497 10.0602L38.1114 16.069C38.4696 15.992 38.9343 15.9298 39.473 15.9387C39.9644 15.9476 40.3877 16.0127 40.7221 16.0897L40.7192 16.0926Z" fill="black"/>
<path d="M35.0773 16.9924C34.5889 16.6165 33.5233 15.9268 32.0314 15.9475C31.1316 15.9594 30.3886 16.2258 29.8914 16.4596" fill="#D3C0B1"/>
<path d="M34.8997 17.2233C34.3018 16.7645 33.322 16.214 32.0344 16.2376C31.3596 16.2465 30.6788 16.4093 30.0157 16.7201L29.7671 16.1903C30.5071 15.844 31.2678 15.6634 32.0256 15.6516C32.0492 15.6516 32.0729 15.6516 32.0966 15.6516C33.5144 15.6516 34.5948 16.2495 35.2549 16.7586L34.8997 17.2204V17.2233Z" fill="black"/>
<path d="M42.4479 17.0339C41.9595 16.658 40.8939 15.9683 39.402 15.989C38.5022 16.0009 37.7592 16.2673 37.262 16.5011" fill="#D3C0B1"/>
<path d="M42.2703 17.2648C41.6724 16.806 40.6956 16.2554 39.4051 16.2791C38.7302 16.288 38.0494 16.4508 37.3863 16.7616L37.1377 16.2318C37.8777 15.8854 38.6384 15.7049 39.3962 15.693C40.8436 15.6812 41.9536 16.285 42.6255 16.8001L42.2703 17.2618V17.2648Z" fill="black"/>
<path d="M35.6841 15.4178C35.7433 15.3645 36.279 14.8968 37.022 15.0448C37.0753 15.0566 37.762 15.2017 38.0817 15.8322C38.4398 16.5366 38.1646 17.4986 37.469 17.9308C36.726 18.3896 35.8942 18.0048 35.8321 17.9752" fill="#D3C0B1"/>
<path d="M36.655 18.4488C36.1607 18.4488 35.77 18.2712 35.7049 18.2386L35.9594 17.7147C35.989 17.7295 36.6994 18.0669 37.3151 17.6851C37.8716 17.3388 38.1084 16.5366 37.8213 15.9683C37.5608 15.4562 36.9895 15.3378 36.9658 15.3349C36.3679 15.2165 35.9268 15.5953 35.8795 15.6368L35.4888 15.2046C35.6042 15.101 36.2199 14.5919 37.0813 14.7636C37.1701 14.7813 37.9633 14.9589 38.3422 15.7078C38.7655 16.5455 38.4369 17.6792 37.6229 18.1853C37.2944 18.3896 36.9569 18.4547 36.655 18.4547V18.4488Z" fill="black"/>
<path d="M29.9626 20.5415C30.7352 21.0447 33.3992 22.6372 36.8476 22.1103C38.5437 21.8528 39.8194 21.1749 40.5979 20.6688" fill="#D3C0B1"/>
<path d="M35.4475 22.5099C32.8841 22.5099 30.8654 21.4768 29.8027 20.7872L30.1195 20.2988C31.3035 21.0684 33.7455 22.2908 36.8002 21.8232C38.0878 21.6278 39.3103 21.1572 40.438 20.4231L40.7547 20.9115C39.5589 21.69 38.2595 22.1902 36.889 22.3974C36.3917 22.4744 35.9092 22.5069 35.4445 22.5069L35.4475 22.5099Z" fill="black"/>
<path d="M26.6384 17.6052C26.7923 17.5134 28.1983 16.7024 29.6576 17.3536C29.8589 17.4424 30.8209 17.8716 31.1939 18.9313C31.6083 20.1034 30.9807 21.1424 30.8298 21.394C29.9743 22.8118 28.3404 23.019 28.1184 23.0427" fill="#D3C0B1"/>
<path d="M28.151 23.3298L28.0859 22.7497C28.3701 22.7171 29.8205 22.498 30.5812 21.24C31.1643 20.2721 31.0874 19.5025 30.9186 19.026C30.7055 18.4162 30.2142 17.916 29.5393 17.617C28.225 17.0339 26.9315 17.768 26.7894 17.8538L26.4905 17.3536C26.7687 17.1878 28.231 16.3945 29.7761 17.0842C30.599 17.4513 31.1998 18.0699 31.4692 18.8306C31.6794 19.4256 31.78 20.3787 31.0785 21.539C30.1786 23.0308 28.4796 23.2913 28.1481 23.3269L28.151 23.3298Z" fill="black"/>
<path d="M38.9434 2.67196C38.905 2.61572 38.529 2.0178 38.7954 1.337C38.9938 0.833804 39.4733 0.481564 40.0268 0.428284C40.6543 0.768684 41.3884 1.2334 42.1432 1.8698C43.1407 2.70748 43.857 3.5718 44.3514 4.27036C44.3158 4.47756 44.2093 4.92748 43.8482 5.35372C43.4042 5.87468 42.8566 6.03748 42.6582 6.0878C42.3445 5.5402 41.8235 4.77652 41.0066 4.03652C40.2458 3.3498 39.494 2.92652 38.9434 2.669V2.67196Z" fill="#A19085"/>
<path d="M42.516 6.42821L42.4065 6.23877C41.9803 5.49877 41.4445 4.83277 40.8111 4.26149C40.2161 3.72573 39.5472 3.28173 38.819 2.94133L38.745 2.90581L38.7006 2.83773C38.6503 2.75781 38.2063 2.04741 38.526 1.23637C38.7657 0.626614 39.3311 0.209254 40 0.144134L40.0888 0.135254L40.1658 0.176694C40.9354 0.594054 41.6636 1.09133 42.3325 1.65077C43.185 2.36709 43.9457 3.19293 44.591 4.10461L44.662 4.20229L44.6413 4.32069C44.588 4.63741 44.443 5.10509 44.073 5.54317C43.6083 6.09077 43.0311 6.29797 42.7292 6.37197L42.516 6.42525V6.42821ZM39.1476 2.44701C39.8964 2.80517 40.5861 3.26989 41.2018 3.82341C41.8234 4.38581 42.3592 5.03109 42.7943 5.74445C43.037 5.65565 43.3567 5.48693 43.629 5.16725C43.8747 4.88013 43.9901 4.57229 44.0434 4.33845C43.4425 3.50669 42.741 2.75189 41.9596 2.09477C41.3439 1.57973 40.6779 1.12093 39.9734 0.730214C39.562 0.798294 39.2216 1.06469 39.0706 1.44357C38.896 1.88461 39.0676 2.28717 39.1505 2.44405L39.1476 2.44701Z" fill="black"/>
<path d="M28.1923 3.40305C27.7927 3.77305 27.6477 4.34433 27.8253 4.85641C27.997 5.35665 28.4499 5.71481 28.9797 5.77105C29.5983 5.49577 30.288 5.22641 31.0517 4.98073C32.1558 4.62849 33.177 4.40057 34.0798 4.25553C34.1271 4.19634 34.5327 3.6813 34.3728 2.99753C34.21 2.29305 33.5943 2.01185 33.5292 1.98225C32.8514 1.97337 31.9545 2.02961 30.9392 2.28121C29.7552 2.57425 28.8287 3.02713 28.1894 3.40305H28.1923Z" fill="#A19085"/>
<path d="M29.0271 6.06707L28.9502 6.05819C28.3079 5.99011 27.7603 5.55499 27.5501 4.94819C27.334 4.32659 27.5116 3.63395 27.9941 3.18699L28.0444 3.14851C28.9265 2.62755 29.8796 2.23979 30.8712 1.99411C31.7415 1.77803 32.6443 1.67739 33.5352 1.68923H33.5944L33.6477 1.71291C33.7839 1.77211 34.4706 2.10659 34.66 2.92947C34.8435 3.72867 34.3995 4.32659 34.3078 4.43907L34.2367 4.52491L34.1272 4.54267C33.1179 4.70547 32.1115 4.94523 31.1406 5.25603C30.4479 5.47803 29.7612 5.73851 29.0982 6.03451L29.0271 6.06707ZM28.37 3.63691C28.0711 3.92995 27.9645 4.36507 28.1007 4.75875C28.2279 5.12875 28.5535 5.40107 28.9383 5.46915C29.5955 5.17907 30.2763 4.92155 30.963 4.70251C31.925 4.39467 32.9166 4.15491 33.9141 3.98619C34.0147 3.83227 34.1864 3.48595 34.0887 3.06267C33.9763 2.58315 33.6033 2.34635 33.4612 2.27235C32.6354 2.26347 31.8095 2.36411 31.0103 2.56243C30.0839 2.79035 29.1959 3.15147 28.37 3.63691Z" fill="black"/>
<path d="M9.73684 39.675C10.0595 39.5655 10.761 39.2783 11.2524 38.5709C11.7526 37.8516 11.7822 37.0731 11.7911 36.6943C11.8207 35.528 11.3323 35.1817 11.6105 34.6134C11.8858 34.0539 12.685 33.7165 13.3066 33.8675C14.2597 34.0954 14.7304 35.4481 14.6179 36.4131C14.5054 37.3573 13.869 37.6059 14.0022 38.3933C14.1324 39.1777 14.905 39.7579 15.0293 39.6779C15.124 39.6187 14.7748 39.2191 14.902 38.8817C15.2128 38.0499 18.3327 37.7628 19.4012 39.2162C19.644 39.5447 19.9133 40.1456 19.94 40.8087C19.9636 41.3681 19.7949 41.4362 19.863 41.9127C19.9814 42.7623 20.5556 42.8718 20.532 43.5319C20.5172 43.9344 20.2863 44.3873 19.94 44.6359C19.5936 44.8875 19.2592 44.8402 19.2207 45.0207C19.1763 45.2339 19.6232 45.3582 19.863 45.817C20.0672 46.2107 20.0169 46.6547 19.9666 46.8204C19.6765 47.7824 16.8468 48.0607 14.6208 47.6433C13.6026 47.4509 11.6993 46.924 9.68652 45.2013" fill="#FFFAF0"/>
<path d="M16.7225 48.1287C15.9736 48.1287 15.2129 48.0577 14.5647 47.9363C12.7679 47.5989 11.0127 46.7316 9.49121 45.4262L9.87601 44.9763C11.3175 46.2106 12.9781 47.0335 14.6742 47.3532C17.0244 47.7972 19.4871 47.3798 19.6825 46.7375C19.7121 46.6369 19.7654 46.2728 19.5996 45.959C19.5079 45.7785 19.3658 45.6601 19.2414 45.5565C19.0757 45.4174 18.8714 45.2427 18.9306 44.9645C18.9869 44.701 19.2207 44.6241 19.3954 44.5708C19.5108 44.5353 19.6411 44.4909 19.7683 44.3991C20.0318 44.2067 20.2242 43.8486 20.236 43.523C20.2449 43.2921 20.1561 43.1678 20.0081 42.9635C19.8423 42.7356 19.6381 42.4485 19.57 41.9542C19.5286 41.6552 19.5641 41.4806 19.5996 41.3118C19.6292 41.1786 19.6529 41.0514 19.644 40.8205C19.6174 40.2137 19.3687 39.669 19.1615 39.3908C18.5814 38.6005 17.2494 38.3903 16.2548 38.5265C15.5563 38.6242 15.2277 38.8521 15.1803 38.9853C15.1448 39.077 15.2129 39.2369 15.2632 39.3523C15.3195 39.4885 15.4408 39.7667 15.1922 39.9266C15.1152 39.9769 14.982 40.0183 14.7896 39.9295C14.4759 39.7904 13.8365 39.2102 13.7092 38.4377C13.6204 37.9108 13.8128 37.5734 13.9963 37.2478C14.1355 37.0021 14.2775 36.7505 14.3219 36.3746C14.4255 35.4925 13.9756 34.3292 13.2356 34.1546C12.7324 34.0332 12.0842 34.3144 11.874 34.7436C11.7793 34.936 11.8119 35.0751 11.9036 35.4007C11.9865 35.6997 12.099 36.1052 12.0842 36.7002C12.0753 37.0702 12.0516 37.9345 11.4922 38.7396C10.9979 39.447 10.3141 39.7904 9.82865 39.9562L9.63921 39.3938C10.0418 39.2576 10.6071 38.9734 11.0067 38.3992C11.4655 37.7391 11.4863 37.0021 11.4922 36.6854C11.504 36.1792 11.4123 35.8477 11.3323 35.5576C11.2347 35.2113 11.1459 34.8798 11.3412 34.4802C11.6727 33.8053 12.6022 33.3909 13.3747 33.5774C14.5647 33.8645 15.0323 35.4274 14.911 36.4456C14.8518 36.9429 14.6623 37.2744 14.5114 37.5438C14.3486 37.8338 14.2391 38.0233 14.2923 38.343C14.3338 38.5857 14.4492 38.7988 14.5765 38.9734C14.5824 38.9083 14.5943 38.8432 14.6209 38.7781C14.8429 38.1861 15.7783 37.9937 16.169 37.9404C17.3707 37.7746 18.907 38.0499 19.6351 39.0415C19.9015 39.4056 20.2005 40.0568 20.2331 40.7968C20.2449 41.1017 20.2064 41.2882 20.1768 41.4362C20.1472 41.5812 20.1265 41.6759 20.1531 41.8742C20.2035 42.2235 20.3396 42.4159 20.4846 42.6202C20.6504 42.851 20.8399 43.1145 20.8221 43.5466C20.8043 44.0498 20.5172 44.5856 20.1087 44.8816C19.9341 45.0089 19.7654 45.071 19.6322 45.1154C19.7802 45.2398 19.9785 45.4114 20.1206 45.6867C20.3663 46.1603 20.3159 46.6783 20.2449 46.9122C19.9785 47.7913 18.3712 48.1317 16.7166 48.1317L16.7225 48.1287Z" fill="black"/>
<path d="M10.4947 41.0957C10.1957 39.074 9.86718 38.6211 9.61262 38.6063C9.07982 38.5708 8.44046 40.4415 8.27766 42.0547C8.0379 44.4405 8.77198 47.0749 9.53566 47.1104C9.71918 47.1193 9.8583 46.9743 10.0211 46.8055C10.9742 45.8139 10.5628 44.1238 10.4917 43.8544" fill="#FFFAF0"/>
<path d="M9.55335 47.4064C9.55335 47.4064 9.53263 47.4064 9.52375 47.4064C9.31063 47.3975 9.11231 47.2821 8.92879 47.0719C8.22431 46.2549 7.79215 43.9432 7.98455 42.0251C8.10295 40.85 8.67127 38.3103 9.60071 38.3103C9.61255 38.3103 9.62439 38.3103 9.63327 38.3103C10.027 38.3369 10.4354 38.6862 10.7877 41.0542L10.2016 41.1401C9.93519 39.3404 9.66879 38.9793 9.59183 38.9112C9.32543 39.0651 8.73935 40.4385 8.57655 42.0843C8.38415 44.0231 8.84591 46.0655 9.37871 46.6841C9.45863 46.7789 9.52375 46.8114 9.55335 46.8144C9.60367 46.8144 9.72207 46.6901 9.80791 46.6013C10.6249 45.7517 10.2845 44.2273 10.2075 43.9313L10.7818 43.7833C10.909 44.2747 11.2465 45.9619 10.2371 47.0127C10.0595 47.1992 9.85527 47.4093 9.55335 47.4093V47.4064Z" fill="black"/>
<path d="M13.582 30.8363C13.2209 30.8422 7.86628 30.9843 6.02812 34.56C5.85644 34.8915 5.06316 36.555 5.55156 38.3162C5.66404 38.7217 5.86532 39.444 6.50468 39.9561C6.9694 40.329 7.57916 40.5214 7.80412 40.5895C8.405 40.776 8.49084 40.6783 8.775 40.8352C9.5298 41.2525 9.65116 42.3596 9.66892 42.5727C9.77548 43.8189 8.9378 44.7098 8.775 44.8756C5.24668 43.6383 2.41396 41.0661 1.95812 38.0498C1.26548 33.4914 5.95708 27.6632 13.582 27.2133C13.7389 27.5625 13.9787 28.2078 13.9728 29.0514C13.9668 29.8625 13.7389 30.487 13.582 30.8333V30.8363Z" fill="#A19085"/>
<path d="M8.85481 45.2131L8.68017 45.1509C4.87065 43.8159 2.11785 41.0454 1.67089 38.0943C1.35713 36.0252 2.10305 33.6957 3.71921 31.6977C5.98657 28.8975 9.57409 27.1571 13.5642 26.9232L13.7654 26.9114L13.8483 27.0949C14.1236 27.7076 14.2686 28.3855 14.2627 29.0544C14.2598 29.7027 14.1147 30.3598 13.8483 30.9547L13.7714 31.1235H13.5849C13.3599 31.1294 8.06449 31.2359 6.28553 34.6932C6.12865 34.9951 5.37385 36.5906 5.83265 38.2363C5.93921 38.6241 6.11977 39.2723 6.68513 39.7282C7.10841 40.0656 7.67377 40.2432 7.88689 40.3113C8.15625 40.3971 8.31017 40.4179 8.43449 40.4327C8.58249 40.4534 8.72161 40.4711 8.91401 40.5777C9.76649 41.0483 9.92633 42.2027 9.95593 42.5461C10.0654 43.8544 9.23665 44.8135 8.98209 45.0769L8.85185 45.2101L8.85481 45.2131ZM13.3954 27.5211C9.65105 27.7935 6.30033 29.4422 4.17505 32.0677C2.66249 33.9384 1.95801 36.1022 2.24809 38.0084C2.65657 40.702 5.17849 43.2506 8.69201 44.5382C8.97025 44.2126 9.45569 43.5022 9.37873 42.5994C9.36393 42.407 9.25145 41.4331 8.63577 41.0927C8.53809 41.0395 8.48481 41.0306 8.36049 41.0128C8.22433 40.9951 8.03489 40.9684 7.71817 40.8707C7.47249 40.7938 6.83017 40.5925 6.32105 40.184C5.60769 39.6127 5.38865 38.8195 5.27025 38.3932C4.77001 36.5847 5.52481 34.9004 5.76753 34.4268C7.52873 31.0051 12.3446 30.5995 13.3866 30.5492C13.576 30.0756 13.6766 29.5606 13.6796 29.0515C13.6826 28.5305 13.5849 28.0066 13.3925 27.5211H13.3954Z" fill="black"/>
<path d="M16.9207 39.6128C16.6958 39.7105 16.2903 39.8496 15.7782 39.8259C15.4703 39.8111 15.2158 39.743 15.0293 39.6779" fill="#FFFAF0"/>
<path d="M15.8907 40.1249C15.8492 40.1249 15.8078 40.1249 15.7664 40.1249C15.4822 40.113 15.204 40.0568 14.9316 39.9591L15.1329 39.3997C15.346 39.4766 15.568 39.521 15.793 39.5299C16.1334 39.5447 16.4827 39.4796 16.8024 39.3405L17.0392 39.8851C16.6751 40.042 16.2814 40.1249 15.8907 40.1249Z" fill="black"/>
</g>
<path d="M16.5813 39.3823C15.0283 39.3823 13.6193 40.2924 12.9807 41.708L2.15365 65.708C0.97429 68.3222 2.88627 71.2823 5.75421 71.2823H66.6188C68.1718 71.2823 69.5807 70.3723 70.2194 68.9566L81.0464 44.9566C82.2258 42.3424 80.3138 39.3823 77.4459 39.3823H16.5813Z" fill="#FFFBF2" stroke="black" stroke-width="1.5"/>
<mask id="path-92-outside-2_612_10880" maskUnits="userSpaceOnUse" x="0.552002" y="59.7323" width="75" height="13" fill="black">
<rect fill="white" x="0.552002" y="59.7323" width="75" height="13"/>
<path fill-rule="evenodd" clip-rule="evenodd" d="M72.6571 61.7323L69.5372 68.6482C69.0198 69.795 67.8784 70.5323 66.6203 70.5323H5.75567C3.43227 70.5323 1.88333 68.1343 2.83876 66.0164L4.77143 61.7323H72.6571Z"/>
</mask>
<path fill-rule="evenodd" clip-rule="evenodd" d="M72.6571 61.7323L69.5372 68.6482C69.0198 69.795 67.8784 70.5323 66.6203 70.5323H5.75567C3.43227 70.5323 1.88333 68.1343 2.83876 66.0164L4.77143 61.7323H72.6571Z" fill="#F85031"/>
<path d="M72.6571 61.7323L74.0244 62.3491L74.9794 60.2323H72.6571V61.7323ZM69.5372 68.6482L68.1699 68.0314V68.0314L69.5372 68.6482ZM2.83876 66.0164L4.20606 66.6332L2.83876 66.0164ZM4.77143 61.7323V60.2323H3.80255L3.40413 61.1155L4.77143 61.7323ZM71.2898 61.1155L68.1699 68.0314L70.9045 69.265L74.0244 62.3491L71.2898 61.1155ZM68.1699 68.0314C67.895 68.6406 67.2887 69.0323 66.6203 69.0323V72.0323C68.4682 72.0323 70.1446 70.9495 70.9045 69.265L68.1699 68.0314ZM66.6203 69.0323H5.75567V72.0323H66.6203V69.0323ZM5.75567 69.0323C4.52137 69.0323 3.69849 67.7583 4.20606 66.6332L1.47145 65.3996C0.0681672 68.5102 2.34318 72.0323 5.75567 72.0323V69.0323ZM4.20606 66.6332L6.13874 62.3491L3.40413 61.1155L1.47145 65.3996L4.20606 66.6332ZM4.77143 63.2323H72.6571V60.2323H4.77143V63.2323Z" fill="black" mask="url(#path-92-outside-2_612_10880)"/>
<defs>
<clipPath id="clip0_612_10880">
<rect width="80.1657" height="71.3922" fill="white" transform="translate(1.59985 0.132263)"/>
</clipPath>
</defs>
</svg>
