<svg width="98" height="78" viewBox="0 0 98 78" fill="none" xmlns="http://www.w3.org/2000/svg">
<mask id="path-1-outside-1_612_9388" maskUnits="userSpaceOnUse" x="10.6001" y="24.5968" width="72" height="54" fill="black">
<rect fill="white" x="10.6001" y="24.5968" width="72" height="54"/>
<path fill-rule="evenodd" clip-rule="evenodd" d="M15.8001 26.5968C14.0328 26.5968 12.6001 28.0295 12.6001 29.7968V37.7842C12.6001 37.7884 12.6001 37.7926 12.6001 37.7968V72.9968C12.6001 74.7641 14.0328 76.1968 15.8001 76.1968H77.4001C79.1674 76.1968 80.6001 74.7641 80.6001 72.9968V37.7968C80.6001 36.0295 79.1674 34.5968 77.4001 34.5968H51.7435L47.8757 28.1504C47.2974 27.1866 46.2558 26.5968 45.1317 26.5968H15.8001Z"/>
</mask>
<path fill-rule="evenodd" clip-rule="evenodd" d="M15.8001 26.5968C14.0328 26.5968 12.6001 28.0295 12.6001 29.7968V37.7842C12.6001 37.7884 12.6001 37.7926 12.6001 37.7968V72.9968C12.6001 74.7641 14.0328 76.1968 15.8001 76.1968H77.4001C79.1674 76.1968 80.6001 74.7641 80.6001 72.9968V37.7968C80.6001 36.0295 79.1674 34.5968 77.4001 34.5968H51.7435L47.8757 28.1504C47.2974 27.1866 46.2558 26.5968 45.1317 26.5968H15.8001Z" fill="#FFFBF2"/>
<path d="M12.6001 37.7842L14.1001 37.79V37.7842H12.6001ZM51.7435 34.5968L50.4573 35.3685L50.8942 36.0968H51.7435V34.5968ZM47.8757 28.1504L46.5895 28.9222V28.9222L47.8757 28.1504ZM14.1001 29.7968C14.1001 28.8579 14.8612 28.0968 15.8001 28.0968V25.0968C13.2044 25.0968 11.1001 27.2011 11.1001 29.7968H14.1001ZM14.1001 37.7842V29.7968H11.1001V37.7842H14.1001ZM14.1001 37.7968C14.1001 37.7945 14.1001 37.7922 14.1001 37.79L11.1001 37.7784C11.1001 37.7845 11.1001 37.7907 11.1001 37.7968H14.1001ZM14.1001 72.9968V37.7968H11.1001V72.9968H14.1001ZM15.8001 74.6968C14.8612 74.6968 14.1001 73.9357 14.1001 72.9968H11.1001C11.1001 75.5925 13.2043 77.6968 15.8001 77.6968V74.6968ZM77.4001 74.6968H15.8001V77.6968H77.4001V74.6968ZM79.1001 72.9968C79.1001 73.9357 78.339 74.6968 77.4001 74.6968V77.6968C79.9958 77.6968 82.1001 75.5925 82.1001 72.9968H79.1001ZM79.1001 37.7968V72.9968H82.1001V37.7968H79.1001ZM77.4001 36.0968C78.339 36.0968 79.1001 36.8579 79.1001 37.7968H82.1001C82.1001 35.2011 79.9958 33.0968 77.4001 33.0968V36.0968ZM51.7435 36.0968H77.4001V33.0968H51.7435V36.0968ZM46.5895 28.9222L50.4573 35.3685L53.0298 33.8251L49.1619 27.3787L46.5895 28.9222ZM45.1317 28.0968C45.7289 28.0968 46.2822 28.4101 46.5895 28.9222L49.1619 27.3787C48.3125 25.963 46.7826 25.0968 45.1317 25.0968V28.0968ZM15.8001 28.0968H45.1317V25.0968H15.8001V28.0968Z" fill="black" mask="url(#path-1-outside-1_612_9388)"/>
<g clip-path="url(#clip0_612_9388)">
<path d="M85.239 34.0006C85.1017 34.237 83.4724 36.9109 80.1883 37.1569C76.8818 37.4029 74.8692 34.9686 74.7031 34.7609C74.6679 36.6969 74.6328 38.6297 74.5977 40.5656C77.131 42.7028 80.6324 43.3002 83.7024 42.1086C86.8939 40.8723 89.1205 37.9013 89.4336 34.4638C88.0344 34.3105 86.6383 34.154 85.239 34.0006Z" fill="#AD82FF"/>
<path d="M80.4598 43.0352C78.2778 43.0352 76.1214 42.2717 74.3899 40.8085L74.2717 40.7095L74.3963 33.8633L74.9522 34.5598C75.1566 34.8185 77.0447 37.0676 80.1627 36.8344C83.2615 36.6043 84.7949 34.1189 84.961 33.8378L85.0665 33.6589L89.7786 34.1796L89.7498 34.4927C89.4304 38.0292 87.1014 41.1344 83.8142 42.4058C82.7248 42.8275 81.5875 43.032 80.4566 43.032L80.4598 43.0352ZM74.917 40.4156C77.3578 42.4058 80.6642 42.9393 83.5841 41.8084C86.5456 40.6616 88.6732 37.911 89.0789 34.7482L85.4051 34.3425C84.9483 35.039 83.2679 37.2497 80.2106 37.4765C77.6772 37.6618 75.8722 36.3647 75.0097 35.5533L74.9202 40.4156H74.917Z" fill="black"/>
<path d="M84.2933 33.5343C84.7246 34.9496 86.7979 35.2594 87.2452 35.3265C87.6126 35.3808 89.7913 35.7067 90.4622 34.5311C90.6858 34.1413 90.6731 33.7036 90.6187 33.381C91.4398 33.0008 92.5515 32.3363 93.3821 31.1479C93.8805 30.4323 93.791 30.2215 94.2447 29.3557C95.6599 26.6562 97.8866 26.1131 97.7268 24.8129C97.6917 24.5158 97.516 24.0654 96.7684 23.5734C96.8196 23.4871 97.1646 22.9089 96.9378 22.2636C96.7205 21.647 96.0752 21.2221 95.3373 21.2413C95.3884 21.088 95.7685 19.9155 95.1743 19.3053C94.7367 18.8581 94.0051 18.9507 93.6281 18.9955C91.1746 19.3021 87.9001 22.2284 86.9609 23.0942C87.5455 20.5768 87.1813 18.4172 86.0504 17.7463C85.1431 17.2096 84.3604 17.4492 84.3604 17.4492C84.2614 17.4812 83.68 17.6569 83.3988 18.1776C83.1816 18.577 83.2327 19.0082 83.8621 21.0624C84.255 22.3435 84.3796 22.6438 84.2678 23.1261C84.124 23.7619 83.7375 23.9855 83.3637 24.4807C82.1817 26.0333 82.5938 28.2599 82.7343 29.0235C83.041 30.6815 83.8525 31.8188 84.3093 32.3715C84.2262 32.6558 84.156 33.0807 84.2933 33.5343Z" fill="#FFFAF0"/>
<path d="M88.3025 35.729C87.8968 35.729 87.5135 35.6907 87.2004 35.6428C85.421 35.3776 84.3092 34.6812 83.9898 33.6269C83.878 33.2596 83.8684 32.8634 83.9642 32.4481C83.3956 31.7293 82.7023 30.5952 82.4244 29.0809C82.2806 28.3046 81.8462 25.9502 83.1144 24.2858C83.2326 24.1292 83.3508 23.9983 83.4563 23.8832C83.6991 23.6149 83.8748 23.4232 83.961 23.0558C84.0377 22.7204 83.977 22.5032 83.6767 21.5384L83.5585 21.1582C82.91 19.0402 82.8397 18.545 83.1176 18.0275C83.4179 17.4716 83.9674 17.2352 84.2677 17.1425C84.306 17.1298 85.2005 16.8678 86.2164 17.4716C87.3378 18.1361 87.7914 19.9506 87.456 22.2252C89.1012 20.7972 91.5835 18.9315 93.5897 18.6792C94.0018 18.628 94.8548 18.5226 95.4043 19.0817C95.925 19.6152 95.8643 20.433 95.7493 20.9506C96.4393 21.072 97.0239 21.5288 97.2412 22.1581C97.4265 22.6884 97.3051 23.1708 97.1773 23.4711C97.6948 23.8673 97.9855 24.3017 98.043 24.7746C98.1421 25.5924 97.5447 26.1259 96.7875 26.8C96.0847 27.4261 95.2062 28.2056 94.5289 29.5058C94.3436 29.8572 94.2542 30.0968 94.1743 30.3077C94.0561 30.6176 93.9539 30.8859 93.6472 31.33C92.9987 32.2596 92.101 33.0104 90.9669 33.5694C90.9988 33.9911 90.9254 34.3681 90.7433 34.6876C90.2704 35.5182 89.2354 35.729 88.3025 35.729ZM84.814 17.7176C84.5999 17.7176 84.4626 17.7559 84.4498 17.7591C84.2869 17.8102 83.878 17.9668 83.6799 18.3341C83.5233 18.6217 83.5713 19.0242 84.1687 20.9729L84.2869 21.3499C84.5967 22.3498 84.699 22.6853 84.584 23.1996C84.4626 23.7299 84.191 24.027 83.9291 24.3177C83.8268 24.4295 83.7246 24.5445 83.6224 24.6755C82.5266 26.1163 82.9227 28.2599 83.0505 28.9659C83.3221 30.4387 84.0217 31.5185 84.5584 32.1702L84.667 32.3012L84.6191 32.4641C84.5169 32.8187 84.5105 33.1477 84.5999 33.4448C84.8395 34.2307 85.7947 34.7898 87.293 35.0134C88.753 35.2307 89.8328 34.9911 90.1842 34.3745C90.3248 34.1253 90.3663 33.8122 90.3024 33.4385L90.2609 33.1957L90.4845 33.0934C91.6122 32.5727 92.4971 31.8603 93.1169 30.969C93.382 30.5888 93.4619 30.378 93.5705 30.0873C93.6568 29.8572 93.7558 29.5985 93.9571 29.2151C94.6918 27.8127 95.6534 26.9533 96.3595 26.3272C97.0846 25.6786 97.4616 25.3208 97.4073 24.8576C97.3658 24.5158 97.091 24.1772 96.5895 23.8481L96.3307 23.6788L96.4936 23.4136C96.5479 23.3274 96.8067 22.8673 96.6342 22.3754C96.4617 21.8834 95.9346 21.5448 95.3436 21.5671L94.8835 21.5799L95.0305 21.1454C95.0688 21.0304 95.3979 20.0049 94.941 19.5385C94.6152 19.2063 93.9986 19.2829 93.6664 19.3245C91.4397 19.6024 88.3856 22.2252 87.178 23.3402L86.4145 24.0462L86.6509 23.0335C87.1972 20.679 86.8841 18.6249 85.8906 18.0338C85.4689 17.7847 85.0823 17.7272 84.8172 17.7272L84.814 17.7176Z" fill="black"/>
<path d="M86.1782 23.3785C86.3188 23.4104 87.7755 23.781 88.3186 25.1643C88.7883 26.3559 88.3825 27.7935 87.2868 28.6784" fill="#FFFAF0"/>
<path d="M87.491 28.9275L87.0884 28.4292C88.0596 27.6465 88.4462 26.3526 88.0245 25.2824C87.5421 24.0653 86.2514 23.7266 86.1077 23.6915L86.2546 23.0685C86.4335 23.1101 88.0213 23.5286 88.6219 25.046C89.1458 26.3718 88.6826 27.9691 87.4941 28.9275H87.491Z" fill="black"/>
<path d="M89.3596 24.5318C89.7685 24.7554 90.35 25.1324 90.9026 25.7458C91.5927 26.5093 91.9281 27.2888 92.091 27.7712" fill="#FFFAF0"/>
<path d="M91.7908 27.8766C91.548 27.161 91.1678 26.5189 90.6663 25.963C90.2478 25.4998 89.7558 25.1132 89.2063 24.8161L89.513 24.2538C90.1264 24.5861 90.6758 25.0174 91.1423 25.5349C91.7013 26.1547 92.1262 26.8735 92.3978 27.6721L91.7908 27.8798V27.8766Z" fill="black"/>
<path d="M95.337 21.2413C94.7012 21.4426 93.9601 21.7365 93.1806 22.1774C91.644 23.0399 90.5929 24.1005 89.9348 24.8928" fill="#FFFAF0"/>
<path d="M90.1841 25.0972L89.6921 24.6883C90.6378 23.551 91.7591 22.6117 93.0274 21.8993C93.727 21.5064 94.4713 21.1837 95.2412 20.9377L95.4361 21.5479C94.7077 21.7779 94.0017 22.0846 93.3404 22.4552C92.1424 23.1293 91.0818 24.0174 90.1841 25.094V25.0972Z" fill="black"/>
<path d="M96.7687 23.5734C96.0563 23.9216 95.2927 24.3369 94.4973 24.8353C93.4143 25.5126 92.4814 26.209 91.6956 26.8671" fill="#FFFAF0"/>
<path d="M91.9031 27.113L91.491 26.621C92.3855 25.8735 93.3407 25.1803 94.3278 24.5637C95.069 24.1005 95.8421 23.6724 96.6248 23.2858L96.9059 23.8609C96.1424 24.2346 95.3884 24.6531 94.6665 25.1068C93.7017 25.7074 92.772 26.3846 91.8999 27.113H91.9031Z" fill="black"/>
<path d="M23.1604 4.93575L24.3744 66.9823L42.1782 77.2339L42.7181 57.0022L33.5462 47.2905L30.5784 22.6054L33.8146 12.7595L32.3322 0.485596L23.1604 4.93575Z" fill="#ED9AFF"/>
<path d="M42.4848 77.7802L24.058 67.1708V66.9887L22.8345 4.73767L32.5941 0L34.1403 12.7914L34.118 12.8585L30.9042 22.6373L33.8496 47.1467L43.0407 56.8776L42.4816 77.7802H42.4848ZM24.6906 66.797L41.8714 76.6908L42.3921 57.1268L33.2395 47.4342L33.2267 47.3288L30.2493 22.5734L33.4854 12.7275L32.067 0.96798L23.483 5.13381L24.6906 66.7938V66.797Z" fill="black"/>
<path d="M44.4687 76.6556L42.1782 77.2339L42.718 57.0021L33.5462 47.2904L30.5784 22.6053L33.8146 12.7594L32.3322 0.485535H34.84L36.3415 12.8456L32.9392 22.5542L35.4726 46.3576L45.0214 56.1779L44.4687 76.6556Z" fill="#ED9AFF"/>
<path d="M41.8461 77.6492L42.3924 57.1268L33.2397 47.4342L33.2269 47.3288L30.2495 22.5734L33.4857 12.7275L31.9714 0.162903H35.1277L36.6708 12.8808L36.6452 12.9511L33.2685 22.5926L35.7826 46.2138L45.3506 56.0502L44.7884 76.9049L41.8493 77.6492H41.8461ZM33.8499 47.1467L43.0409 56.8776L42.5074 76.8186L44.1526 76.4033L44.6957 56.3025L35.1629 46.5013L35.1501 46.3927L32.6072 22.5159L32.6327 22.4488L36.0095 12.8105L34.5527 0.805028H32.6902L34.1406 12.7914L34.1182 12.8585L30.9044 22.6373L33.8499 47.1467Z" fill="black"/>
<path d="M75.8245 0.485535H34.9681L36.3418 12.8456L32.9395 22.5542L35.4728 46.3575L45.0216 56.1779L44.5009 76.6556L85.6959 68.9629V51.6607L76.3612 40.2845L74.0003 20.4297L77.2173 11.6285L75.8245 0.485535Z" fill="#ED9AFF"/>
<path d="M44.1718 77.0422L44.6989 56.3025L35.1661 46.5013L35.1533 46.3927L32.6104 22.5159L32.6359 22.4488L36.0127 12.8105L34.6102 0.162903H76.1055L77.5463 11.6637L74.3261 20.4649L76.6678 40.1504L86.0186 51.5425V69.2249L85.7566 69.2728L44.1718 77.039V77.0422ZM35.7794 46.2138L45.3474 56.0501L44.8331 76.2659L85.3764 68.6946V51.7725L76.0512 40.4123L76.0416 40.3197L73.6712 20.3882L76.8914 11.5902L75.5401 0.805028H35.3258L36.6676 12.884L36.642 12.9543L33.2653 22.5958L35.7794 46.217V46.2138Z" fill="black"/>
<path d="M85.6956 68.9629L87.884 68.5668L88.0501 50.7023L78.907 40.0481L76.1468 20.4521L79.498 11.6381L78.054 0.485535H75.6197L75.8241 1.53977L77.217 11.6285L74 20.4298L76.3608 40.2845L85.6956 51.6607V68.9629Z" fill="#ED9AFF"/>
<path d="M85.3763 69.3463V51.7757L76.0512 40.4155L76.0416 40.3229L73.6711 20.3914L76.8882 11.5934L75.5049 1.58452L75.2301 0.162903H78.3321L79.824 11.6764L76.4697 20.4873L79.2075 39.9108L88.3665 50.5841V50.7055L88.2004 68.8352L85.3732 69.3463H85.3763ZM76.6677 40.1536L86.0185 51.5457V68.5796L87.5679 68.3017L87.7276 50.8205L78.6037 40.1887L75.8179 20.417L79.1723 11.603L77.7731 0.808223H76.0096L76.1406 1.48229L77.5495 11.6668L74.3292 20.4713L76.6709 40.1568L76.6677 40.1536Z" fill="black"/>
<path d="M72.6328 40.4028L35.2874 44.6294L35.4726 46.3577L45.0215 56.178V57.2738L82.4628 51.549L72.6328 40.4028Z" fill="#ED9AFF"/>
<path d="M44.7021 57.6476V56.309L35.1661 46.5046L34.936 44.3482L72.7607 40.0674L83.089 51.779L44.7021 57.6508V57.6476ZM35.7794 46.2139L45.3442 56.047V56.9L81.8335 51.3189L72.502 40.7383L35.6421 44.9105L35.7794 46.2107V46.2139Z" fill="black"/>
<path d="M69.4607 17.3981L72.633 40.4028L35.2875 44.6293L32.9395 22.5542L34.4314 18.2958L69.4607 17.3981Z" fill="#ED9AFF"/>
<path d="M35.0031 44.9839L32.6104 22.5159L34.1981 17.9795L69.7354 17.069L72.9876 40.6839L34.9968 44.9839H35.0031ZM33.2653 22.5926L35.5718 44.2747L72.2688 40.1216L69.1827 17.7239L34.6581 18.6089L33.2621 22.5894L33.2653 22.5926Z" fill="black"/>
<path d="M36.2905 21.1773L38.2169 41.6167L67.1381 38.3996C67.4863 35.911 67.7067 32.6397 67.3266 28.8412C66.9592 25.1642 66.1414 22.6308 65.3395 20.3019C60.835 20.4425 56.3338 20.5831 51.8325 20.7172C46.6508 20.8738 41.4691 21.0271 36.2905 21.1773Z" fill="#8ADFFF"/>
<path d="M37.926 41.9713L35.939 20.8674L36.2808 20.8579C41.4593 20.7077 46.6411 20.5544 51.8228 20.3978C56.324 20.2605 60.8253 20.1231 65.3298 19.9825L65.5662 19.9761L65.6428 20.1998C66.4926 22.6692 67.2849 25.1866 67.6459 28.8125C67.9654 32.0168 67.9015 35.2562 67.4542 38.4444L67.4191 38.6904L37.926 41.9713ZM36.6418 21.4872L38.5043 41.2621L66.8536 38.109C67.2625 35.0485 67.3136 31.9433 67.007 28.8732C66.6619 25.423 65.9208 22.9887 65.1125 20.6278C60.6879 20.7684 56.2633 20.9026 51.8419 21.0368C46.7752 21.1901 41.7085 21.3403 36.6418 21.4872Z" fill="black"/>
<path d="M47.8995 52.1846C50.2673 52.1846 52.1867 51.1162 52.1867 49.7982C52.1867 48.4802 50.2673 47.4118 47.8995 47.4118C45.5318 47.4118 43.6123 48.4802 43.6123 49.7982C43.6123 51.1162 45.5318 52.1846 47.8995 52.1846Z" fill="#AE8F81"/>
<path d="M47.8997 52.5073C45.3152 52.5073 43.293 51.3189 43.293 49.7982C43.293 48.2776 45.3184 47.0892 47.8997 47.0892C50.4809 47.0892 52.5063 48.2776 52.5063 49.7982C52.5063 51.3189 50.4841 52.5073 47.8997 52.5073ZM47.8997 47.7313C45.7497 47.7313 43.9319 48.6769 43.9319 49.7982C43.9319 50.9196 45.7497 51.8652 47.8997 51.8652C50.0497 51.8652 51.8674 50.9196 51.8674 49.7982C51.8674 48.6769 50.0497 47.7313 47.8997 47.7313Z" fill="black"/>
<path d="M47.8995 51.306C50.2673 51.306 52.1867 50.2376 52.1867 48.9196C52.1867 47.6016 50.2673 46.5332 47.8995 46.5332C45.5318 46.5332 43.6123 47.6016 43.6123 48.9196C43.6123 50.2376 45.5318 51.306 47.8995 51.306Z" fill="#D3C0B1"/>
<path d="M47.8997 51.6288C45.3152 51.6288 43.293 50.4404 43.293 48.9197C43.293 47.399 45.3184 46.2106 47.8997 46.2106C50.4809 46.2106 52.5063 47.399 52.5063 48.9197C52.5063 50.4404 50.4841 51.6288 47.8997 51.6288ZM47.8997 46.8528C45.7497 46.8528 43.9319 47.7984 43.9319 48.9197C43.9319 50.041 45.7497 50.9866 47.8997 50.9866C50.0497 50.9866 51.8674 50.041 51.8674 48.9197C51.8674 47.7984 50.0497 46.8528 47.8997 46.8528Z" fill="black"/>
<path d="M66.7262 49.9324C66.346 50.9227 64.7167 50.9227 64.4516 50.9227C64.1928 50.9227 62.5923 50.9227 62.177 49.9324C62.03 49.5841 61.9981 49.041 62.2888 48.7344C62.6434 48.3542 63.1514 48.6769 64.4931 48.6257C65.6975 48.5778 66.0904 48.2871 66.4674 48.6002C66.822 48.8973 66.8923 49.5075 66.7262 49.9356V49.9324Z" fill="#AE8F81"/>
<path d="M64.4515 51.2423C63.1353 51.2423 62.1961 50.811 61.8798 50.0538C61.6913 49.6034 61.6626 48.9261 62.0555 48.5108C62.3782 48.169 62.7743 48.2073 63.2727 48.2553C63.5826 48.284 63.9691 48.3223 64.4835 48.3C64.9243 48.2808 65.2502 48.2297 65.5153 48.1882C65.9722 48.1147 66.3332 48.0604 66.675 48.3479C67.1702 48.76 67.2245 49.5299 67.0264 50.0443C66.7325 50.8046 65.7965 51.2391 64.4515 51.2391V51.2423ZM62.7967 48.8654C62.6497 48.8654 62.5795 48.891 62.522 48.9517C62.3431 49.1402 62.3558 49.5363 62.4708 49.8079C62.7807 50.5458 64.065 50.6033 64.4515 50.6033C64.8445 50.6033 66.1479 50.5458 66.429 49.8174C66.5472 49.5108 66.5089 49.0475 66.2629 48.8431C66.1543 48.7504 66.0489 48.7568 65.6112 48.8239C65.346 48.8654 64.985 48.9229 64.5058 48.9421C63.95 48.9645 63.5219 48.9229 63.2088 48.8942C63.0235 48.875 62.8925 48.8654 62.7935 48.8654H62.7967Z" fill="black"/>
<path d="M64.4513 50.4692C65.7076 50.4692 66.7259 49.9056 66.7259 49.2105C66.7259 48.5153 65.7076 47.9518 64.4513 47.9518C63.1951 47.9518 62.1768 48.5153 62.1768 49.2105C62.1768 49.9056 63.1951 50.4692 64.4513 50.4692Z" fill="#0077FB"/>
<path d="M64.4512 50.7886C62.9945 50.7886 61.8572 50.0953 61.8572 49.2072C61.8572 48.3191 62.9977 47.6259 64.4512 47.6259C65.9048 47.6259 67.0453 48.3191 67.0453 49.2072C67.0453 50.0953 65.9048 50.7886 64.4512 50.7886ZM64.4512 48.2712C63.298 48.2712 62.4961 48.7663 62.4961 49.2104C62.4961 49.6545 63.298 50.1496 64.4512 50.1496C65.6045 50.1496 66.4064 49.6545 66.4064 49.2104C66.4064 48.7663 65.6045 48.2712 64.4512 48.2712Z" fill="black"/>
<path d="M68.3168 45.1181C67.9366 46.1085 66.3073 46.1085 66.0422 46.1085C65.7834 46.1085 64.1829 46.1085 63.7676 45.1181C63.6206 44.7699 63.5887 44.2268 63.8794 43.9202C64.234 43.54 64.7419 43.8627 66.0837 43.8115C67.2881 43.7636 67.681 43.4729 68.058 43.786C68.4126 44.0831 68.4829 44.6933 68.3168 45.1213V45.1181Z" fill="#AE8F81"/>
<path d="M66.0391 46.4279C65.413 46.4279 63.9211 46.3129 63.4706 45.2395C63.2822 44.7891 63.2534 44.1118 63.6464 43.6965C63.969 43.3547 64.362 43.393 64.8635 43.4409C65.1734 43.4697 65.56 43.508 66.0711 43.4856C66.512 43.4697 66.8378 43.4154 67.103 43.3738C67.5598 43.3036 67.9176 43.246 68.2626 43.5336C68.7578 43.9457 68.8121 44.7156 68.614 45.2299C68.3201 45.9903 67.3841 46.4247 66.0391 46.4247V46.4279ZM64.3875 44.0511C64.2406 44.0511 64.1703 44.0767 64.1128 44.1374C63.9371 44.3258 63.9466 44.722 64.0617 44.9935C64.3715 45.7315 65.6494 45.789 66.0391 45.789C66.4321 45.789 67.7355 45.7315 68.0166 45.0031C68.1348 44.6964 68.0965 44.2332 67.8505 44.0287C67.7387 43.9361 67.6365 43.9425 67.1988 44.0096C66.9337 44.0511 66.5727 44.1086 66.0935 44.1278C65.5344 44.1501 65.1095 44.1086 64.7964 44.0798C64.6111 44.0607 64.4802 44.0511 64.3811 44.0511H64.3875Z" fill="black"/>
<path d="M74.0606 48.2137C73.6805 49.204 72.0512 49.204 71.7861 49.204C71.5273 49.204 69.9268 49.204 69.5115 48.2137C69.3645 47.8655 69.3326 47.3224 69.6233 47.0157C69.9779 46.6355 70.4858 46.9582 71.8276 46.9071C73.032 46.8591 73.4249 46.5684 73.8019 46.8815C74.1565 47.1786 74.2268 47.7888 74.0606 48.2169V48.2137Z" fill="#AE8F81"/>
<path d="M71.7828 49.5235C71.1566 49.5235 69.6647 49.4085 69.2143 48.3351C69.0258 47.8846 68.9971 47.2074 69.39 46.7921C69.7127 46.4502 70.1056 46.4886 70.6072 46.5365C70.917 46.5653 71.3036 46.6036 71.8179 46.5812C72.2588 46.5653 72.5847 46.5109 72.8498 46.4694C73.3067 46.3991 73.6644 46.3416 74.0095 46.6291C74.5046 47.0413 74.559 47.8112 74.3609 48.3255C74.067 49.0858 73.1309 49.5203 71.786 49.5203L71.7828 49.5235ZM70.1312 47.1467C69.9842 47.1467 69.9139 47.1722 69.8564 47.2329C69.6807 47.4214 69.6903 47.8176 69.8053 48.0891C70.1152 48.8271 71.393 48.8846 71.7828 48.8846C72.1757 48.8846 73.4792 48.8271 73.7603 48.0987C73.8785 47.792 73.8402 47.3288 73.5942 47.1243C73.4824 47.0317 73.3801 47.0381 72.9425 47.1051C72.6773 47.1467 72.3163 47.2042 71.8371 47.2234C71.2812 47.2457 70.8532 47.2042 70.5401 47.1754C70.3548 47.1563 70.2238 47.1467 70.1248 47.1467H70.1312Z" fill="black"/>
<path d="M48.3152 44.4696L46.7849 48.7856C46.836 48.8623 47.2258 49.4118 47.9542 49.4756C48.6218 49.5363 49.0755 49.1434 49.1521 49.0763C49.347 47.6451 49.5419 46.2171 49.7368 44.7859L48.3152 44.4664V44.4696Z" fill="#D3C0B1"/>
<path d="M48.0914 49.8047C48.0371 49.8047 47.9828 49.8047 47.9253 49.7983C47.0723 49.7216 46.6027 49.0923 46.5196 48.9677L46.427 48.8335L48.1074 44.0958L50.0945 44.5399L49.4523 49.2392L49.3629 49.3191C49.2287 49.4405 48.7623 49.8047 48.0914 49.8047ZM47.1458 48.7249C47.2864 48.8814 47.5675 49.121 47.9828 49.1562C48.3853 49.1913 48.6952 49.022 48.8517 48.907L49.3821 45.0351L48.5227 44.8434L47.1458 48.7249Z" fill="black"/>
<path d="M77.0309 11.6596L36.334 12.5334L36.3478 13.1754L77.0446 12.3016L77.0309 11.6596Z" fill="black"/>
<path d="M66.0292 45.6644C67.2855 45.6644 68.3038 45.1008 68.3038 44.4057C68.3038 43.7105 67.2855 43.147 66.0292 43.147C64.773 43.147 63.7546 43.7105 63.7546 44.4057C63.7546 45.1008 64.773 45.6644 66.0292 45.6644Z" fill="#FF2C00"/>
<path d="M66.0294 45.987C64.5726 45.987 63.4353 45.2938 63.4353 44.4057C63.4353 43.5176 64.5758 42.8243 66.0294 42.8243C67.4829 42.8243 68.6234 43.5176 68.6234 44.4057C68.6234 45.2938 67.4829 45.987 66.0294 45.987ZM66.0294 43.4665C64.8761 43.4665 64.0742 43.9616 64.0742 44.4057C64.0742 44.8497 64.8761 45.3449 66.0294 45.3449C67.1826 45.3449 67.9845 44.8497 67.9845 44.4057C67.9845 43.9616 67.1826 43.4665 66.0294 43.4665Z" fill="black"/>
<path d="M71.7736 48.597C73.0298 48.597 74.0482 48.0335 74.0482 47.3383C74.0482 46.6432 73.0298 46.0797 71.7736 46.0797C70.5174 46.0797 69.499 46.6432 69.499 47.3383C69.499 48.0335 70.5174 48.597 71.7736 48.597Z" fill="#C4E000"/>
<path d="M71.7735 48.9197C70.3167 48.9197 69.1794 48.2264 69.1794 47.3383C69.1794 46.4502 70.3199 45.757 71.7735 45.757C73.2271 45.757 74.3676 46.4502 74.3676 47.3383C74.3676 48.2264 73.2271 48.9197 71.7735 48.9197ZM71.7735 46.3991C70.6202 46.3991 69.8184 46.8943 69.8184 47.3383C69.8184 47.7824 70.6202 48.2775 71.7735 48.2775C72.9268 48.2775 73.7286 47.7824 73.7286 47.3383C73.7286 46.8943 72.9268 46.3991 71.7735 46.3991Z" fill="black"/>
<path d="M56.2539 28.0267C56.3657 28.0203 58.7617 27.9468 59.9373 29.739C61.0076 31.3683 60.6114 33.8409 58.7873 35.3552" fill="#8ADFFF"/>
<path d="M58.995 35.6012L58.5861 35.1093C60.2186 33.7547 60.6946 31.4738 59.6723 29.9148C58.5861 28.2599 56.2923 28.3494 56.27 28.3494L56.2412 27.7104C56.3498 27.7041 58.9215 27.6082 60.209 29.5665C61.407 31.3939 60.8766 34.0454 58.995 35.6076V35.6012Z" fill="black"/>
<path d="M47.8997 29.4163C47.6889 28.7231 45.7976 22.3817 46.9222 20.9952C47.3311 20.4905 47.7911 20.4202 47.7911 20.4202C48.462 20.318 49.0562 20.909 49.3182 21.1709C50.9027 22.7491 51.3755 28.5698 51.4298 29.2566" fill="#FFFAF0"/>
<path d="M47.5931 29.509C47.082 27.8254 45.5102 22.2284 46.6731 20.794C47.1459 20.2094 47.6826 20.1135 47.7433 20.1039C48.5707 19.9793 49.2543 20.6534 49.5451 20.9441C51.1647 22.5574 51.6663 28.1321 51.7494 29.2343L51.1104 29.2822C50.8868 26.3495 50.2255 22.5255 49.0914 21.3978C48.871 21.1773 48.3566 20.6598 47.8391 20.7365C47.8295 20.7365 47.4877 20.8036 47.1714 21.1965C46.4558 22.0782 47.2066 26.0268 48.2065 29.3237L47.5931 29.509Z" fill="black"/>
<path d="M50.3213 29.0075L50.0242 27.9564C49.9763 27.7903 49.8261 27.6753 49.6568 27.6753C49.2894 27.6753 48.922 27.6721 48.5547 27.6689C48.4173 27.6689 48.3598 27.4964 48.4684 27.4101C49.5163 26.5604 49.6696 25.1643 49.085 24.4327C48.6122 23.8449 47.6218 23.6436 46.6858 23.9887L47.9605 29.3589C48.2735 29.2375 48.6856 29.1161 49.1744 29.0458C49.6185 28.9819 50.0114 28.9819 50.3245 29.0043L50.3213 29.0075Z" fill="black"/>
<path d="M54.5733 28.4005C54.3625 27.7072 52.4712 21.3658 53.5957 19.9794C54.0047 19.4746 54.4647 19.4043 54.4647 19.4043C55.1356 19.3021 55.7298 19.8931 55.9917 20.1551C57.5763 21.7332 58.0491 27.5539 58.1034 28.2407" fill="#FFFAF0"/>
<path d="M54.2667 28.4931C53.7556 26.8095 52.1838 21.2125 53.3466 19.7781C53.8195 19.1934 54.3593 19.0976 54.4168 19.088C55.2443 18.9634 55.9247 19.6375 56.2154 19.9282C57.8351 21.5415 58.3367 27.1162 58.4198 28.2183L57.7808 28.2662C57.5572 25.3336 56.8959 21.5096 55.7618 20.3818C55.5382 20.1614 55.0143 19.6471 54.5095 19.7205C54.4999 19.7205 54.1581 19.7876 53.8418 20.1806C53.1262 21.0623 53.877 25.0109 54.8769 28.3078L54.2635 28.4931H54.2667Z" fill="black"/>
<path d="M56.9949 27.9915L56.6978 26.9405C56.6499 26.7744 56.4997 26.6594 56.3304 26.6594C55.963 26.6594 55.5956 26.6562 55.2282 26.653C55.0909 26.653 55.0334 26.4805 55.142 26.3942C56.1898 25.5444 56.3432 24.1484 55.7586 23.4168C55.2858 22.829 54.2954 22.6277 53.3594 22.9727L54.634 28.343C54.9471 28.2216 55.3592 28.1002 55.848 28.0299C56.2921 27.966 56.685 27.966 56.9981 27.9883L56.9949 27.9915Z" fill="black"/>
<path d="M52.0176 29.6144C51.5225 29.3429 50.4587 28.8732 49.1137 29.1033C48.3023 29.2438 47.6665 29.5888 47.2512 29.87" fill="#8ADFFF"/>
<path d="M47.4303 30.1351L47.0725 29.6048C47.6987 29.1799 48.3663 28.9052 49.0596 28.787C50.3854 28.557 51.4843 28.9563 52.1712 29.3333L51.8645 29.8955C51.2671 29.5697 50.3119 29.2214 49.1682 29.4195C48.5644 29.5217 47.9798 29.7645 47.4303 30.1383V30.1351Z" fill="black"/>
<path d="M58.6915 28.5954C58.1963 28.3239 57.1325 27.8543 55.7875 28.0843C54.9761 28.2248 54.3404 28.5699 53.925 28.851" fill="#8ADFFF"/>
<path d="M54.1039 29.1192L53.7461 28.5889C54.3722 28.164 55.0399 27.8893 55.7332 27.7711C57.0589 27.5411 58.1579 27.9404 58.848 28.3174L58.5413 28.8796C57.9439 28.5538 56.9887 28.2056 55.845 28.4036C55.2412 28.5059 54.6566 28.7487 54.1071 29.1224L54.1039 29.1192Z" fill="black"/>
<path d="M52.6599 27.7839C52.7046 27.7296 53.1231 27.2281 53.8196 27.2568C53.8707 27.2568 54.5096 27.2951 54.8898 27.8191C55.3147 28.4069 55.2029 29.3142 54.6374 29.8029C54.0336 30.3269 53.2222 30.0969 53.1615 30.0777" fill="#8ADFFF"/>
<path d="M53.6598 30.4642C53.3499 30.4642 53.1167 30.4003 53.0687 30.3843L53.254 29.7709C53.2828 29.7805 53.9473 29.9754 54.4265 29.5601C54.8609 29.1831 54.9568 28.4579 54.6309 28.0043C54.3402 27.6017 53.8291 27.5762 53.8067 27.573C53.2764 27.5506 52.9442 27.9404 52.909 27.9819L52.4106 27.5794C52.5033 27.4644 53.008 26.8989 53.8291 26.9341C53.9153 26.9373 54.682 26.9852 55.1453 27.6273C55.666 28.3461 55.5254 29.4515 54.8418 30.0425C54.4552 30.3779 54.008 30.461 53.6566 30.461L53.6598 30.4642Z" fill="black"/>
<path d="M49.7241 31.4546C50.5291 31.6399 51.7207 31.8156 53.1232 31.6335C55.7747 31.2884 56.8897 29.9563 57.3912 30.3748C58.2314 31.0712 56.9408 36.336 53.4107 37.042C51.0626 37.5116 49.0787 35.6971 48.7976 35.4319C49.018 35.2434 49.74 34.5853 49.9541 33.4576C50.1362 32.5024 49.8518 31.7421 49.7273 31.4578L49.7241 31.4546Z" fill="black"/>
<path d="M52.6309 37.4349C50.5736 37.4349 48.9188 35.9845 48.5737 35.6619L48.3118 35.4159L48.5833 35.1827C48.8996 34.9143 49.4555 34.3265 49.6312 33.3905C49.7845 32.579 49.5673 31.905 49.4267 31.5759L49.1743 30.9945L49.7909 31.135C50.8994 31.3906 52.0048 31.4481 53.075 31.3108C54.4679 31.1287 55.4039 30.675 56.0907 30.3396C56.7361 30.0265 57.2025 29.7997 57.589 30.1191C58.1992 30.6239 57.8798 32.1062 57.7679 32.5471C57.2855 34.4607 55.8671 36.8663 53.4647 37.3455C53.1804 37.403 52.8993 37.4285 52.6245 37.4285L52.6309 37.4349ZM49.2702 35.4223C49.9283 35.9686 51.5416 37.0867 53.3465 36.7257C55.455 36.304 56.7169 34.1316 57.1546 32.3969C57.4357 31.282 57.2951 30.7102 57.1865 30.6207C57.1162 30.5632 56.6722 30.7804 56.3783 30.9242C55.6946 31.2564 54.6595 31.758 53.1644 31.9529C52.1965 32.0775 51.2061 32.0551 50.2062 31.8794C50.318 32.3075 50.3851 32.8761 50.2637 33.5151C50.0944 34.4064 49.6407 35.0389 49.2702 35.4223Z" fill="black"/>
<path d="M54.0047 34.1764C53.5511 33.5982 52.8163 33.2499 52.0783 33.2627C51.8355 33.2659 51.5895 33.3106 51.3467 33.3011C50.9857 33.2883 50.6279 33.1637 50.2701 33.2116C50.2094 33.2212 50.1456 33.234 50.0976 33.2723C50.0274 33.3298 50.0018 33.4224 49.973 33.5087C49.7462 34.1987 49.1073 34.6779 48.7942 35.3328C48.7846 35.3552 48.7687 35.4798 48.7687 35.4798C48.7687 35.4798 48.7655 35.368 48.7942 35.3328C48.954 35.1412 50.3436 36.4414 52.0815 36.7704C52.0815 36.7704 52.746 36.9334 53.5383 36.78C53.8258 36.7257 54.1037 36.6203 54.3753 36.5085C54.4647 36.4701 54.5574 36.4286 54.6085 36.3487C54.6628 36.2689 54.6628 36.1635 54.6596 36.0644C54.6468 35.812 54.3114 34.9687 53.8194 33.8633" fill="#FF2C00"/>
<path d="M55.8672 32.2724C55.2506 32.5599 54.3913 32.8794 53.3307 33.0519C51.9442 33.2755 50.7749 33.1477 50.0018 33.004C50.0146 32.7707 50.005 32.4641 49.9316 32.119C49.8772 31.8571 49.7974 31.6335 49.7207 31.4546C50.4683 31.6079 51.5576 31.7453 52.8547 31.6079C54.0495 31.4833 55.0174 31.167 55.6947 30.8891C55.7522 31.3523 55.8097 31.8124 55.864 32.2756L55.8672 32.2724Z" fill="#FFFAF0"/>
<path d="M51.8069 33.4928C51.184 33.4928 50.561 33.4353 49.9412 33.3171L49.6665 33.266L49.6793 32.988C49.6921 32.7165 49.6729 32.4481 49.6154 32.183C49.5739 31.9785 49.51 31.7741 49.4237 31.5824L49.1809 31.0169L49.7815 31.1415C50.7814 31.346 51.8037 31.3971 52.8196 31.2885C53.7652 31.1894 54.6917 30.9562 55.5702 30.592L55.96 30.4323L56.2091 32.4673L55.9983 32.5663C55.1645 32.9561 54.2828 33.2244 53.3755 33.3714C52.8548 33.4545 52.3276 33.496 51.8037 33.496L51.8069 33.4928ZM50.3246 32.7357C51.3054 32.8922 52.2989 32.8954 53.2796 32.7357C54.0496 32.6111 54.8035 32.3906 55.5223 32.0776L55.4297 31.3364C54.6118 31.6367 53.7588 31.8348 52.8931 31.9242C51.9954 32.0201 51.0945 31.9977 50.2032 31.8635C50.2192 31.9242 50.2351 31.9881 50.2479 32.052C50.2958 32.2756 50.3214 32.5056 50.3278 32.7357H50.3246Z" fill="black"/>
<path d="M45.5962 28.7678C45.708 28.7614 48.104 28.6879 49.2796 30.4801C50.3498 32.1094 49.9537 34.5821 48.1296 36.0963" fill="#8ADFFF"/>
<path d="M48.3341 36.3424L47.9252 35.8504C49.5577 34.4958 50.0337 32.2149 49.0114 30.6559C47.9252 29.001 45.6346 29.0905 45.6091 29.0873L45.5803 28.4484C45.6889 28.442 48.2606 28.3461 49.5481 30.3045C50.7461 32.1318 50.2158 34.7834 48.3341 36.3455V36.3424Z" fill="black"/>
<path d="M54.9789 36.5915L54.34 36.5277C54.3719 36.205 54.3847 35.3648 53.8192 34.5725C53.2793 33.8186 52.5254 33.5502 52.2251 33.4672L52.3912 32.8474C52.8449 32.9688 53.7042 33.3106 54.34 34.1988C55.03 35.1667 55.014 36.1922 54.9757 36.5883L54.9789 36.5915Z" fill="black"/>
<path d="M51.9473 35.2242C51.9473 35.0165 51.8994 34.614 51.6342 34.2243C51.2732 33.6971 50.7333 33.5278 50.5161 33.4799L50.6567 32.8538C50.9474 32.9177 51.6726 33.1477 52.1614 33.8633C52.5064 34.3648 52.5831 34.876 52.5862 35.2146L51.9441 35.2242H51.9473Z" fill="black"/>
<path d="M47.8839 15.2449C47.5836 15.4461 47.229 15.7305 46.8968 16.1266C46.0534 17.1329 45.8553 18.2446 45.7978 18.7782C45.6732 18.8325 45.3601 18.9539 44.964 18.8836C44.4049 18.7813 44.1046 18.3692 44.0439 18.283C44.1877 17.5354 44.4497 16.5611 44.9576 15.4972C45.4081 14.5516 45.9224 13.8041 46.3633 13.2514C46.5038 13.2802 47.1076 13.4207 47.5293 14.0021C47.9127 14.5325 47.8967 15.0883 47.8871 15.2449H47.8839Z" fill="#AD82FF"/>
<path d="M45.2098 19.2286C45.1139 19.2286 45.0117 19.219 44.9063 19.203C44.2674 19.088 43.9064 18.6504 43.7786 18.4683L43.7019 18.3565L43.7275 18.2223C43.9191 17.2319 44.2322 16.2703 44.6667 15.3599C45.0564 14.5388 45.542 13.7625 46.1107 13.0501L46.2321 12.8968L46.4237 12.9351C46.6793 12.9894 47.3278 13.1779 47.7847 13.8105C48.1936 14.3727 48.2223 14.9605 48.2032 15.2608L48.1936 15.4174L48.0626 15.5068C47.7144 15.74 47.4045 16.0148 47.1425 16.331C46.4206 17.1904 46.1873 18.152 46.1171 18.8101L46.0979 18.9922L45.9286 19.0689C45.7561 19.1455 45.5069 19.2254 45.2098 19.2254V19.2286ZM44.3856 18.2031C44.4974 18.3309 44.7114 18.5162 45.0213 18.5705C45.2066 18.6024 45.3727 18.5833 45.5037 18.5449C45.6091 17.8134 45.8966 16.823 46.6506 15.9221C46.9157 15.6059 47.2224 15.3215 47.5642 15.0755C47.5578 14.8583 47.5003 14.5165 47.2639 14.1906C47.0211 13.8552 46.7017 13.6923 46.4781 13.6188C45.9957 14.2449 45.5804 14.9222 45.2417 15.6378C44.852 16.4556 44.5645 17.315 44.3824 18.2031H44.3856Z" fill="black"/>
<path d="M53.6596 14.8743C53.4807 15.0148 53.1548 15.3119 52.9312 15.7975C52.7395 16.2128 52.7044 16.5866 52.7012 16.807C53.273 16.839 54.2506 16.9732 55.2665 17.5578C55.7776 17.8517 56.1674 18.1839 56.4517 18.4683C56.5124 18.4683 57.0555 18.4331 57.3813 17.9603C57.6689 17.5418 57.5762 17.0946 57.557 17.0211C57.2631 16.6441 56.7296 16.0659 55.9022 15.5931C54.9917 15.0755 54.1452 14.9254 53.6564 14.8775L53.6596 14.8743Z" fill="#AD82FF"/>
<path d="M56.3273 18.7942L56.2282 18.6952C55.896 18.3597 55.519 18.069 55.1101 17.8358C54.3849 17.4173 53.5479 17.1745 52.6854 17.1266L52.3755 17.1106L52.3819 16.8007C52.3883 16.411 52.4777 16.018 52.6406 15.6634C52.8259 15.2609 53.1103 14.8999 53.4617 14.622L53.5639 14.5421L53.6917 14.5549C54.5223 14.638 55.3433 14.8999 56.0653 15.312C56.7426 15.6986 57.3304 16.2065 57.8128 16.8231L57.8575 16.8806L57.8735 16.9509C57.9086 17.1042 57.9949 17.6409 57.6467 18.1457C57.2441 18.7303 56.5924 18.7878 56.4678 18.791L56.3273 18.7974V18.7942ZM53.0496 16.51C53.8929 16.5995 54.7108 16.8646 55.4296 17.2767C55.8417 17.5131 56.2219 17.8007 56.5669 18.1297C56.7138 18.0978 56.9566 18.0147 57.1195 17.7783C57.2825 17.5387 57.2761 17.2799 57.2601 17.1553C56.8384 16.6314 56.3305 16.2001 55.7458 15.8679C55.1389 15.5229 54.4552 15.2961 53.7588 15.2066C53.532 15.4079 53.3467 15.657 53.2221 15.9286C53.139 16.1107 53.0783 16.3088 53.0496 16.51Z" fill="black"/>
<path d="M49.7368 44.789C51.577 44.789 53.0688 43.2972 53.0688 41.457C53.0688 39.6168 51.577 38.125 49.7368 38.125C47.8966 38.125 46.4048 39.6168 46.4048 41.457C46.4048 43.2972 47.8966 44.789 49.7368 44.789Z" fill="#FF2C00"/>
<path d="M49.7364 45.1085C47.7206 45.1085 46.085 43.4697 46.085 41.457C46.085 39.4444 47.7238 37.8055 49.7364 37.8055C51.7491 37.8055 53.3879 39.4444 53.3879 41.457C53.3879 43.4697 51.7491 45.1085 49.7364 45.1085ZM49.7364 38.4445C48.0752 38.4445 46.7239 39.7958 46.7239 41.457C46.7239 43.1183 48.0752 44.4696 49.7364 44.4696C51.3977 44.4696 52.749 43.1183 52.749 41.457C52.749 39.7958 51.3977 38.4445 49.7364 38.4445Z" fill="black"/>
<path d="M27.0992 50.5746C27.3899 50.7951 31.3034 53.8523 30.7603 58.0086C30.6996 58.4622 30.3929 60.8039 28.4569 62.0977C27.1311 62.9827 24.8725 63.4842 23.8981 62.4268C23.5212 62.0179 23.4285 61.4716 23.4158 61.0627C23.2273 61.0403 22.7832 60.9541 22.4414 60.5931C21.9686 60.0915 21.8855 59.2641 22.2529 58.5229C22.0868 58.4143 21.4638 57.983 21.2562 57.1524C21.1348 56.6636 21.2082 56.2483 21.2658 56.0311C21.0517 55.8746 20.5725 55.4784 20.3074 54.7788C20.1285 54.306 20.1221 53.8843 20.138 53.6351C20.2403 52.0729 22.304 48.1818 24.7831 48.6131C25.0291 48.6546 26.1536 48.8942 27.096 50.5682L27.0992 50.5746Z" fill="#FFFAF0"/>
<path d="M25.5307 63.334C24.7959 63.334 24.1219 63.1359 23.665 62.6408C23.3583 62.3085 23.1731 61.8677 23.1188 61.331C22.7641 61.2415 22.4479 61.0626 22.2147 60.8134C21.7003 60.2703 21.5725 59.4206 21.8633 58.6315C21.5566 58.3823 21.1253 57.9255 20.9496 57.2322C20.8633 56.8872 20.8505 56.5198 20.9144 56.162C20.6014 55.9001 20.2372 55.4879 20.0135 54.8969C19.8602 54.4944 19.7963 54.0535 19.8251 53.6191C19.8985 52.5009 20.924 50.2168 22.4287 49.0315C23.2242 48.4086 24.0356 48.1626 24.8439 48.3032C25.2879 48.3798 26.4124 48.7376 27.3485 50.3605C27.6072 50.565 28.6072 51.386 29.5049 52.6287C30.7699 54.3826 31.3162 56.2547 31.0798 58.0501C30.9361 59.1458 30.4281 61.1648 28.6359 62.3628C27.8277 62.9027 26.6169 63.3372 25.5307 63.3372V63.334ZM24.403 48.9038C23.8855 48.9038 23.3552 49.1146 22.8216 49.5331C21.4735 50.5937 20.5247 52.683 20.4608 53.6574C20.4384 54.0024 20.4896 54.3506 20.6109 54.6701C20.8218 55.226 21.1892 55.5774 21.4575 55.7755L21.6332 55.9032L21.5789 56.1141C21.5214 56.3377 21.4703 56.6827 21.5693 57.0757C21.7355 57.7434 22.2274 58.1235 22.4319 58.2545L22.6715 58.411L22.5469 58.6666C22.2434 59.28 22.2977 59.9668 22.6811 60.3726C22.9239 60.6281 23.2401 60.7144 23.4638 60.7431L23.7353 60.7783L23.7449 61.053C23.7609 61.5514 23.8951 61.9379 24.141 62.2095C24.9429 63.0816 26.9683 62.7111 28.2845 61.8325C29.8659 60.7751 30.3195 58.9605 30.4473 57.9702C30.9712 53.9609 27.0769 50.9579 26.9108 50.8333L26.8565 50.7918L26.8245 50.7343C26.0163 49.2999 25.0962 48.9996 24.7352 48.9357C24.6266 48.9165 24.518 48.907 24.4062 48.907L24.403 48.9038Z" fill="black"/>
<path d="M29.3806 41.7254C29.6649 42.3388 29.994 43.2365 30.1314 44.3546C30.3135 45.8369 30.0835 47.0541 29.8822 47.7984C26.5214 46.6068 23.6814 46.4758 22.8699 47.6738C22.707 47.9134 22.4418 48.4757 22.5568 49.1146C22.7677 50.2966 24.1094 50.8174 24.2468 50.8685C24.2245 51.1752 24.1094 52.239 23.2437 53.1239C22.6335 53.7469 21.9435 53.9769 21.6144 54.0631C17.7425 51.8876 15.9407 47.8272 16.8863 44.9648C18.0748 41.3548 23.9178 38.7767 29.3806 41.7254Z" fill="#AD82FF"/>
<path d="M21.5725 54.4049L21.4607 54.341C17.675 52.2134 15.5346 48.0508 16.5825 44.8625C17.1479 43.147 18.7261 41.6295 20.8026 40.8021C23.566 39.7032 26.7447 39.9364 29.5336 41.441L29.6262 41.4922L29.671 41.588C30.0703 42.4537 30.3323 43.3706 30.4505 44.313C30.5974 45.5078 30.5112 46.709 30.1917 47.8815L30.099 48.2137L29.7732 48.0987C26.4923 46.9326 23.8247 46.8336 23.1315 47.8527C23.0932 47.9102 22.7577 48.4277 22.8695 49.0571C23.0484 50.0538 24.2241 50.517 24.3551 50.565L24.5819 50.648L24.5659 50.8876C24.5276 51.4275 24.3359 52.4658 23.4733 53.3443C22.8632 53.9673 22.1699 54.2452 21.6971 54.3698L21.5725 54.4017V54.4049ZM24.4126 40.7606C23.2561 40.7606 22.1124 40.9714 21.039 41.3995C19.135 42.1566 17.6974 43.5271 17.1927 45.0638C16.362 47.5876 17.8092 51.4914 21.6588 53.7149C22.0453 53.5967 22.5597 53.3635 23.0165 52.8971C23.6363 52.2645 23.8375 51.5106 23.9014 51.0697C23.4286 50.8461 22.4351 50.2551 22.2402 49.1721C22.0869 48.3095 22.5149 47.6227 22.6044 47.4949C23.4638 46.233 26.1505 46.1979 29.6582 47.3831C29.885 46.3991 29.9393 45.396 29.8147 44.3961C29.7093 43.5559 29.4825 42.7349 29.1343 41.9586C27.6296 41.1663 26.0067 40.7638 24.4126 40.7638V40.7606Z" fill="black"/>
<path d="M26.8632 50.188C26.9623 50.4212 27.1348 50.9259 27.0517 51.5617C26.9399 52.4179 26.4416 52.9578 26.269 53.1271" fill="#FFFAF0"/>
<path d="M26.4959 53.3539L26.0454 52.8971C26.2658 52.6798 26.646 52.2134 26.7355 51.5202C26.8025 51.0058 26.6811 50.5809 26.5693 50.3126L27.1603 50.0634C27.3041 50.4052 27.4543 50.9483 27.3712 51.6032C27.2562 52.4882 26.7738 53.0792 26.4959 53.3539Z" fill="black"/>
</g>
<path d="M27.5813 45.0468C26.0283 45.0468 24.6193 45.9569 23.9807 47.3725L13.1536 71.3725C11.9743 73.9867 13.8863 76.9468 16.7542 76.9468H77.6188C79.1718 76.9468 80.5807 76.0368 81.2194 74.6211L92.0464 50.6211C93.2258 48.0069 91.3138 45.0468 88.4459 45.0468H27.5813Z" fill="#FFFBF2" stroke="black" stroke-width="1.5"/>
<mask id="path-84-outside-2_612_9388" maskUnits="userSpaceOnUse" x="11.552" y="65.3969" width="75" height="13" fill="black">
<rect fill="white" x="11.552" y="65.3969" width="75" height="13"/>
<path fill-rule="evenodd" clip-rule="evenodd" d="M83.6572 67.3969L80.5372 74.3128C80.0198 75.4596 78.8784 76.1968 77.6203 76.1968H16.7557C14.4323 76.1968 12.8834 73.7988 13.8388 71.6809L15.7715 67.3969H83.6572Z"/>
</mask>
<path fill-rule="evenodd" clip-rule="evenodd" d="M83.6572 67.3969L80.5372 74.3128C80.0198 75.4596 78.8784 76.1968 77.6203 76.1968H16.7557C14.4323 76.1968 12.8834 73.7988 13.8388 71.6809L15.7715 67.3969H83.6572Z" fill="#CBDF00"/>
<path d="M83.6572 67.3969L85.0245 68.0137L85.9794 65.8969H83.6572V67.3969ZM80.5372 74.3128L79.1699 73.6959V73.6959L80.5372 74.3128ZM13.8388 71.6809L12.4715 71.0641L12.4715 71.0641L13.8388 71.6809ZM15.7715 67.3969V65.8969H14.8026L14.4042 66.78L15.7715 67.3969ZM82.2899 66.78L79.1699 73.6959L81.9045 74.9296L85.0245 68.0137L82.2899 66.78ZM79.1699 73.6959C78.8951 74.3052 78.2887 74.6968 77.6203 74.6968V77.6968C79.4682 77.6968 81.1446 76.614 81.9045 74.9296L79.1699 73.6959ZM77.6203 74.6968H16.7557V77.6968H77.6203V74.6968ZM16.7557 74.6968C15.5214 74.6968 14.6985 73.4229 15.2061 72.2978L12.4715 71.0641C11.0682 74.1747 13.3432 77.6968 16.7557 77.6968V74.6968ZM15.2061 72.2978L17.1388 68.0137L14.4042 66.78L12.4715 71.0641L15.2061 72.2978ZM15.7715 68.8969H83.6572V65.8969H15.7715V68.8969Z" fill="black" mask="url(#path-84-outside-2_612_9388)"/>
<defs>
<clipPath id="clip0_612_9388">
<rect width="84" height="53" fill="white" transform="translate(13.1001)"/>
</clipPath>
</defs>
</svg>
