<svg width="83" height="73" viewBox="0 0 83 73" fill="none" xmlns="http://www.w3.org/2000/svg">
<mask id="path-1-outside-1_612_7459" maskUnits="userSpaceOnUse" x="-0.400146" y="18.9323" width="72" height="54" fill="black">
<rect fill="white" x="-0.400146" y="18.9323" width="72" height="54"/>
<path fill-rule="evenodd" clip-rule="evenodd" d="M4.79985 20.9323C3.03254 20.9323 1.59985 22.3649 1.59985 24.1322V32.1196C1.59984 32.1238 1.59983 32.128 1.59983 32.1322V67.3322C1.59983 69.0996 3.03251 70.5322 4.79982 70.5322H66.3998C68.1671 70.5322 69.5998 69.0996 69.5998 67.3322V32.1322C69.5998 30.3649 68.1671 28.9322 66.3998 28.9322H40.7433L36.8755 22.4859C36.2971 21.522 35.2555 20.9323 34.1315 20.9323H4.79985Z"/>
</mask>
<path fill-rule="evenodd" clip-rule="evenodd" d="M4.79985 20.9323C3.03254 20.9323 1.59985 22.3649 1.59985 24.1322V32.1196C1.59984 32.1238 1.59983 32.128 1.59983 32.1322V67.3322C1.59983 69.0996 3.03251 70.5322 4.79982 70.5322H66.3998C68.1671 70.5322 69.5998 69.0996 69.5998 67.3322V32.1322C69.5998 30.3649 68.1671 28.9322 66.3998 28.9322H40.7433L36.8755 22.4859C36.2971 21.522 35.2555 20.9323 34.1315 20.9323H4.79985Z" fill="#FFFBF2"/>
<path d="M1.59985 32.1196L3.09985 32.1254V32.1196H1.59985ZM40.7433 28.9322L39.457 29.704L39.894 30.4322H40.7433V28.9322ZM36.8755 22.4859L35.5892 23.2576V23.2576L36.8755 22.4859ZM3.09985 24.1322C3.09985 23.1934 3.86097 22.4323 4.79985 22.4323V19.4323C2.20412 19.4323 0.0998535 21.5365 0.0998535 24.1322H3.09985ZM3.09985 32.1196V24.1322H0.0998535V32.1196H3.09985ZM3.09983 32.1322C3.09983 32.13 3.09983 32.1277 3.09984 32.1254L0.0998647 32.1138C0.099841 32.12 0.0998291 32.1261 0.0998291 32.1322H3.09983ZM3.09983 67.3322V32.1322H0.0998291V67.3322H3.09983ZM4.79982 69.0322C3.86094 69.0322 3.09983 68.2711 3.09983 67.3322H0.0998291C0.0998291 69.928 2.20408 72.0322 4.79982 72.0322V69.0322ZM66.3998 69.0322H4.79982V72.0322H66.3998V69.0322ZM68.0998 67.3322C68.0998 68.2711 67.3387 69.0322 66.3998 69.0322V72.0322C68.9956 72.0322 71.0998 69.928 71.0998 67.3322H68.0998ZM68.0998 32.1322V67.3322H71.0998V32.1322H68.0998ZM66.3998 30.4322C67.3387 30.4322 68.0998 31.1934 68.0998 32.1322H71.0998C71.0998 29.5365 68.9956 27.4322 66.3998 27.4322V30.4322ZM40.7433 30.4322H66.3998V27.4322H40.7433V30.4322ZM35.5892 23.2576L39.457 29.704L42.0295 28.1605L38.1617 21.7141L35.5892 23.2576ZM34.1315 22.4323C34.7286 22.4323 35.282 22.7456 35.5892 23.2576L38.1617 21.7141C37.3123 20.2985 35.7824 19.4323 34.1315 19.4323V22.4323ZM4.79985 22.4323H34.1315V19.4323H4.79985V22.4323Z" fill="black" mask="url(#path-1-outside-1_612_7459)"/>
<g clip-path="url(#clip0_612_7459)">
<path d="M7.17818 33.3148C6.68773 33.8013 5.39002 35.2276 5.2747 37.3312C5.13552 39.8537 6.77389 41.9269 7.50426 42.0912C8.03978 42.2119 8.31019 42.1668 8.31019 42.1668C8.55807 42.1244 8.71581 42.0303 8.99019 42.0687C9.16649 42.0926 9.27784 42.1562 9.38521 42.2079C9.49125 42.2596 10.1129 42.5618 10.5689 42.5101C11.123 42.4478 11.1283 41.899 11.7301 41.7665C12.1582 41.6724 12.2921 41.9202 12.7746 41.952C13.5607 42.0051 14.4342 41.4311 14.8411 40.6517C15.2786 39.814 15.1182 38.845 14.8186 38.4924C14.7271 38.3837 14.5959 38.2299 14.3865 38.1888C14.1823 38.1477 14.0432 38.2432 13.9583 38.1676C13.843 38.0642 13.9583 37.762 13.9809 37.7037C14.1638 37.2119 14.0789 36.6539 13.9345 35.7074C13.8761 35.3243 13.6654 34.4747 12.658 33.5017" fill="#FFFBF2"/>
<path d="M7.17818 33.3148C6.68773 33.8013 5.39002 35.2276 5.2747 37.3312C5.13552 39.8537 6.77389 41.9269 7.50426 42.0912C8.03978 42.2119 8.31019 42.1668 8.31019 42.1668C8.55807 42.1244 8.71581 42.0303 8.99019 42.0687C9.16649 42.0926 9.27784 42.1562 9.38521 42.2079C9.49125 42.2596 10.1129 42.5618 10.5689 42.5101C11.123 42.4478 11.1283 41.899 11.7301 41.7665C12.1582 41.6724 12.2921 41.9202 12.7746 41.952C13.5607 42.0051 14.4342 41.4311 14.8411 40.6517C15.2786 39.8139 15.1182 38.845 14.8186 38.4924C14.7271 38.3837 14.5959 38.2299 14.3865 38.1888C14.1823 38.1477 14.0432 38.2432 13.9583 38.1676C13.843 38.0642 13.9583 37.762 13.9809 37.7037C14.1638 37.2119 14.0789 36.6539 13.9345 35.7074C13.8761 35.3243 13.6654 34.4747 12.658 33.5017" stroke="black" stroke-width="0.530217" stroke-miterlimit="10"/>
<path d="M7.51604 33.8079C6.98052 33.8517 6.52321 33.6409 6.38535 33.2963C6.27666 33.0272 6.39065 32.7462 6.43837 32.6256C6.63058 32.1484 7.0521 31.9098 7.20984 31.8236C8.54996 31.0866 11.8731 30.9806 12.5067 32.3817C12.5359 32.4466 12.7175 32.8628 12.5398 33.2393C12.3357 33.6754 11.7246 33.9087 10.9757 33.8583" fill="#FFFBF2"/>
<path d="M7.51604 33.8079C6.98052 33.8517 6.52321 33.6409 6.38535 33.2963C6.27666 33.0272 6.39065 32.7462 6.43837 32.6256C6.63058 32.1484 7.0521 31.9098 7.20984 31.8236C8.54996 31.0866 11.8731 30.9806 12.5067 32.3817C12.5359 32.4466 12.7175 32.8628 12.5398 33.2393C12.3357 33.6754 11.7246 33.9087 10.9757 33.8583" stroke="black" stroke-width="0.530217" stroke-miterlimit="10"/>
<path d="M19.1226 22.9558C19.0987 24.0692 19.0749 25.184 19.051 26.2975C18.7674 26.2259 16.0977 25.5989 13.8271 27.4507C11.51 29.3396 11.6333 32.1577 11.6505 32.4334C11.3032 32.6044 10.6113 32.8894 9.698 32.8841C8.74626 32.8801 8.03312 32.5633 7.68848 32.383C7.76403 27.9623 10.1301 24.2164 13.5832 22.9544C15.9294 22.0968 18.1139 22.6297 19.1226 22.9544V22.9558Z" fill="#9F9187" stroke="black" stroke-width="0.530217" stroke-miterlimit="10"/>
<path d="M7.58911 39.1486C7.59839 39.5052 7.66202 40.1587 8.02919 40.8678C8.33672 41.4617 8.7304 41.8514 8.98888 42.0688" fill="#FFFBF2"/>
<path d="M7.58911 39.1486C7.59839 39.5052 7.66202 40.1587 8.02919 40.8678C8.33672 41.4617 8.7304 41.8514 8.98888 42.0688" stroke="black" stroke-width="0.530217" stroke-miterlimit="10"/>
<path d="M10.187 39.2281C10.2294 39.5807 10.3633 40.2713 10.867 40.9473C11.1613 41.341 11.4847 41.6021 11.7286 41.7665" fill="#FFFBF2"/>
<path d="M10.187 39.2281C10.2294 39.5807 10.3633 40.2713 10.867 40.9473C11.1613 41.341 11.4847 41.6021 11.7286 41.7665" stroke="black" stroke-width="0.530217" stroke-miterlimit="10"/>
<path d="M24.903 40.6862C34.7398 48.5652 50.0591 46.9865 58.239 37.0688C65.7787 27.9279 65.1875 14.2112 58.2417 6.71126C47.7089 -4.65791 23.942 -0.245186 17.7451 14.121C14.0521 22.6814 16.8357 34.2255 24.903 40.6875V40.6862Z" fill="#D1C1B4" stroke="black" stroke-width="0.530217" stroke-miterlimit="10"/>
<path d="M38.1652 45.5828C50.5548 45.5828 60.5986 35.539 60.5986 23.1494C60.5986 10.7597 50.5548 0.715881 38.1652 0.715881C25.7755 0.715881 15.7317 10.7597 15.7317 23.1494C15.7317 35.539 25.7755 45.5828 38.1652 45.5828Z" fill="#D1C1B4" stroke="black" stroke-width="0.530217" stroke-miterlimit="10"/>
<path d="M38.1653 41.3092C48.1947 41.3092 56.3252 33.1788 56.3252 23.1493C56.3252 13.1199 48.1947 4.98938 38.1653 4.98938C28.1358 4.98938 20.0054 13.1199 20.0054 23.1493C20.0054 33.1788 28.1358 41.3092 38.1653 41.3092Z" fill="#9EDEFC" stroke="#1D1D1B" stroke-width="0.530217" stroke-miterlimit="10"/>
<path d="M77.7605 56.028L70.9446 62.5125C70.2062 63.2151 69.0265 63.1422 68.3796 62.3548L54.4018 45.3428C53.8186 44.6323 53.8822 43.5918 54.5476 42.9581L58.796 38.9166C59.4548 38.2896 60.4821 38.2697 61.1647 38.8715L77.7088 53.4419C78.4816 54.1232 78.5055 55.3202 77.7592 56.0293L77.7605 56.028Z" fill="#D1C1B4" stroke="black" stroke-width="0.530217" stroke-miterlimit="10"/>
<path d="M57.435 35.361L50.8746 41.6039C50.1725 42.2721 50.1447 43.3828 50.8127 44.0847C51.4806 44.7865 52.5913 44.8139 53.2934 44.1457L59.8538 37.9027C60.5559 37.2345 60.5837 36.1239 59.9157 35.422C59.2478 34.7201 58.1371 34.6928 57.435 35.361Z" fill="#D1C1B4" stroke="black" stroke-width="0.530217" stroke-miterlimit="10"/>
<path d="M42.0888 24.5465C42.2559 23.8055 43.7537 17.0359 42.4746 15.672C42.008 15.1749 41.5228 15.1378 41.5228 15.1378C40.8137 15.0821 40.2371 15.7462 39.9839 16.0365C38.4463 17.8047 38.3906 23.9221 38.3879 24.6459" fill="#FFFBF2"/>
<path d="M42.0888 24.5465C42.2559 23.8055 43.7537 17.0359 42.4746 15.672C42.008 15.1749 41.5228 15.1378 41.5228 15.1378C40.8137 15.0821 40.2371 15.7462 39.9839 16.0365C38.4463 17.8047 38.3906 23.9221 38.3879 24.6459" stroke="black" stroke-width="0.530217" stroke-miterlimit="10"/>
<path d="M39.5278 24.3038L39.7585 23.1824C39.7943 23.0061 39.9427 22.8749 40.123 22.8616C40.5074 22.8311 40.8905 22.802 41.2749 22.7715C41.4181 22.7609 41.4644 22.578 41.3478 22.4958C40.1879 21.6872 39.9228 20.2384 40.4796 19.4324C40.9289 18.7829 41.9483 18.4979 42.9544 18.7869L42.0265 24.496C41.6898 24.3939 41.251 24.2959 40.7341 24.2614C40.2648 24.2296 39.8552 24.2587 39.5278 24.3038Z" fill="black"/>
<path d="M35.0395 23.987C35.2066 23.246 36.7044 16.4765 35.4253 15.1125C34.9587 14.6154 34.4735 14.5783 34.4735 14.5783C33.7644 14.5226 33.1878 15.1867 32.9346 15.477C31.3969 17.2453 31.3413 23.3627 31.3386 24.0864" fill="#7AC5FC"/>
<path d="M35.0395 23.987C35.2066 23.246 36.7044 16.4765 35.4253 15.1125C34.9587 14.6154 34.4735 14.5783 34.4735 14.5783C33.7644 14.5226 33.1878 15.1867 32.9346 15.477C31.3969 17.2453 31.3413 23.3627 31.3386 24.0864" stroke="#1D1D1B" stroke-width="0.530217" stroke-miterlimit="10"/>
<path d="M37.7996 25.0634C38.2966 24.7439 39.3717 24.1699 40.7979 24.3104C41.6569 24.3953 42.3475 24.7108 42.8022 24.9719" fill="#9EDEFC"/>
<path d="M37.7996 25.0634C38.2966 24.7439 39.3717 24.1699 40.7979 24.3104C41.6569 24.3953 42.3475 24.7108 42.8022 24.9719" stroke="#1D1D1B" stroke-width="0.530217" stroke-miterlimit="10"/>
<path d="M30.7502 24.5054C31.2473 24.1859 32.3223 23.612 33.7486 23.7525C34.6076 23.8373 35.2982 24.1528 35.7528 24.4139" fill="#9EDEFC"/>
<path d="M30.7502 24.5054C31.2473 24.1859 32.3223 23.612 33.7486 23.7525C34.6076 23.8373 35.2982 24.1528 35.7528 24.4139" stroke="#1D1D1B" stroke-width="0.530217" stroke-miterlimit="10"/>
<path d="M37.33 23.2513C37.2717 23.2036 36.7375 22.7768 36.031 22.9491C35.9793 22.961 35.3298 23.1307 35.0488 23.7484C34.7359 24.439 35.0382 25.3496 35.7221 25.734C36.4525 26.145 37.2346 25.7407 37.2929 25.7089" fill="#9EDEFC"/>
<path d="M37.33 23.2513C37.2717 23.2036 36.7375 22.7768 36.031 22.9491C35.9793 22.961 35.3298 23.1307 35.0488 23.7484C34.7359 24.439 35.0382 25.3496 35.7221 25.734C36.4525 26.145 37.2346 25.7407 37.2929 25.7089" stroke="#1D1D1B" stroke-width="0.530217" stroke-miterlimit="10"/>
<path d="M33.9526 18.0486C34.1607 18.0738 34.6326 18.1626 35.0502 18.5364C35.8071 19.2137 35.7156 20.2264 35.7023 20.3431C35.2662 20.1297 34.6101 19.8699 33.7763 19.7519C32.8643 19.622 32.1008 19.7148 31.6038 19.8142" fill="#7AC5FC"/>
<path d="M33.9526 18.0486C34.1607 18.0738 34.6326 18.1626 35.0502 18.5364C35.8071 19.2137 35.7156 20.2264 35.7023 20.3431C35.2662 20.1297 34.6101 19.8699 33.7763 19.7519C32.8644 19.622 32.1008 19.7148 31.6038 19.8142" stroke="#1D1D1B" stroke-width="0.530217" stroke-miterlimit="10"/>
<path d="M44.1924 8.72345C43.9976 8.72875 43.2434 8.77515 42.6005 9.37297C41.8648 10.0556 41.825 10.9464 41.821 11.1108C42.3407 11.3719 43.1864 11.8835 43.9459 12.8061C44.899 13.9633 45.2131 15.159 45.3284 15.7608C45.5551 15.7833 46.0376 15.7992 46.5784 15.5632C47.159 15.3101 47.4864 14.9045 47.619 14.7202C47.3605 13.848 46.9509 12.7571 46.2881 11.584C45.5935 10.3552 44.8314 9.40875 44.1938 8.72345H44.1924Z" fill="#7AC5FC" stroke="#1D1D1B" stroke-width="0.530217" stroke-miterlimit="10"/>
<path d="M38.376 14.9906C38.3906 15.029 38.6265 15.6891 38.2063 16.2247C37.9121 16.5985 37.4905 16.6674 37.3924 16.682C36.8834 16.1928 36.2326 15.6427 35.4253 15.1139C34.463 14.4842 33.555 14.0654 32.8087 13.7843C32.7862 13.6319 32.7252 13.0725 33.0765 12.5317C33.5444 11.808 34.3583 11.7178 34.463 11.7072C35.0727 12.081 35.7514 12.5476 36.4526 13.1282C37.2281 13.7711 37.8643 14.4126 38.376 14.9919V14.9906Z" fill="#7AC5FC" stroke="#1D1D1B" stroke-width="0.530217" stroke-miterlimit="10"/>
<path d="M32.7768 23.7498C32.6588 23.7444 30.1721 23.6662 28.95 25.5273C27.8392 27.2187 28.2487 29.7902 30.1443 31.3637" fill="#9EDEFC"/>
<path d="M32.7768 23.7498C32.6588 23.7444 30.1721 23.6662 28.95 25.5273C27.8392 27.2187 28.2487 29.7902 30.1443 31.3637" stroke="black" stroke-width="0.530217" stroke-miterlimit="10"/>
<path d="M39.5638 27.3101C38.7273 27.5023 37.488 27.6853 36.0325 27.497C33.278 27.1392 32.1195 25.7553 31.5986 26.1874C30.725 26.9112 32.0665 32.3803 35.7356 33.1134C38.1746 33.6012 40.2385 31.7149 40.5301 31.4405C40.2994 31.2444 39.5518 30.5604 39.3305 29.3873C39.1422 28.3944 39.4365 27.6057 39.5651 27.3088L39.5638 27.3101Z" fill="black" stroke="black" stroke-width="0.530217" stroke-miterlimit="10"/>
<path d="M35.1139 30.1389C35.5872 29.5371 36.3507 29.1765 37.1155 29.1911C37.3687 29.1964 37.6219 29.2401 37.875 29.2309C38.2502 29.2176 38.6213 29.0877 38.9938 29.1381C39.0574 29.146 39.1224 29.1619 39.1714 29.2004C39.2457 29.2587 39.2722 29.3568 39.3013 29.4456C39.5373 30.1627 40.2027 30.6585 40.5248 31.3425C40.5354 31.365 40.5526 31.4962 40.5526 31.4962C40.5526 31.4962 40.5566 31.3809 40.5248 31.3425C40.3591 31.1436 38.9169 32.4943 37.1089 32.835C37.1089 32.835 36.4183 33.0034 35.5964 32.8443C35.2969 32.786 35.0092 32.6786 34.7269 32.5606C34.6354 32.5222 34.5387 32.4784 34.4843 32.3949C34.4286 32.3101 34.4273 32.2027 34.4313 32.1007C34.4432 31.8382 34.7932 30.9633 35.3035 29.8128" fill="#FF4702"/>
<path d="M33.1785 28.1625C33.82 28.4607 34.7121 28.7948 35.815 28.9711C37.2572 29.203 38.4714 29.0718 39.2733 28.9207C39.2614 28.6781 39.2693 28.3613 39.3449 27.9995C39.4019 27.7264 39.4841 27.4944 39.5636 27.3102C38.7868 27.4692 37.6548 27.6111 36.3054 27.4692C35.0621 27.3393 34.0573 27.0119 33.3548 26.723C33.2964 27.2028 33.2368 27.6827 33.1785 28.1625Z" fill="#FFFBF2" stroke="black" stroke-width="0.530217" stroke-miterlimit="10"/>
<path d="M43.8505 24.5186C43.7326 24.5133 41.2458 24.4351 40.0237 26.2962C38.9129 27.9876 39.3225 30.5591 41.218 32.1325" fill="#9EDEFC"/>
<path d="M43.8505 24.5186C43.7326 24.5133 41.2458 24.4351 40.0237 26.2962C38.9129 27.9876 39.3225 30.5591 41.218 32.1325" stroke="black" stroke-width="0.530217" stroke-miterlimit="10"/>
<path d="M36.8756 29.0837C36.6145 29.154 35.6959 29.4363 35.0358 30.3589C34.3385 31.3345 34.4101 32.3578 34.4353 32.6163" stroke="black" stroke-width="0.530217" stroke-miterlimit="10"/>
<path d="M38.6663 29.0917C38.4926 29.1302 37.7781 29.3118 37.3036 30.0037C36.959 30.5061 36.9232 31.0151 36.9192 31.2259" stroke="black" stroke-width="0.530217" stroke-miterlimit="10"/>
<path d="M34.1303 45.327L31.01 57.5591L34.748 58.532L38.1242 45.7379L34.1303 45.327Z" fill="#9F9187" stroke="black" stroke-width="0.530217" stroke-miterlimit="10"/>
<path d="M23.0314 65.5667C22.8564 65.735 22.6364 65.9895 22.4588 66.3394C22.0996 67.0499 22.1367 67.7246 22.1725 68.0282C23.217 68.6724 25.3352 69.7845 28.2395 70.0032C31.6249 70.2577 34.1978 69.1575 35.3073 68.6008C35.3378 68.3039 35.3576 67.6915 35.0501 67.0274C34.8672 66.6297 34.6286 66.3474 34.4496 66.1684C30.644 65.9683 26.8371 65.7681 23.0314 65.568V65.5667Z" fill="#FFFBF2" stroke="black" stroke-width="0.530217" stroke-miterlimit="10"/>
<path d="M31.0102 55.6648L29.5759 60.1704C30.0187 60.4978 30.7596 60.9617 31.7777 61.2454C32.8566 61.5463 33.7792 61.5131 34.3373 61.4508C34.8158 59.9145 35.293 58.3782 35.7715 56.8419C35.2678 56.9347 34.3996 57.0275 33.3643 56.7902C32.2204 56.5291 31.4237 55.9896 31.0088 55.6635L31.0102 55.6648Z" fill="#FFFBF2" stroke="black" stroke-width="0.530217" stroke-miterlimit="10"/>
<path d="M29.6818 59.8389C29.5572 60.222 29.4312 60.6038 29.3066 60.9868C29.0455 60.8742 27.0559 60.0603 25.1656 61.1088C23.408 62.0817 22.4655 64.2583 22.9241 66.4666C23.7367 67.03 25.7224 68.2442 28.5471 68.4046C31.5561 68.5742 33.7764 67.4489 34.626 66.9611C34.6897 66.1551 34.7148 65.2352 34.6645 64.2251C34.6114 63.1912 34.4882 62.2607 34.3384 61.4521C32.7862 60.9153 31.234 60.3784 29.6818 59.8416V59.8389Z" fill="#A788FF" stroke="black" stroke-width="0.539496" stroke-miterlimit="10"/>
<path d="M29.3066 60.9869C29.6884 61.2228 30.5473 61.8246 31.0935 62.958C31.4872 63.7745 31.5521 64.5234 31.5561 64.9542" fill="#A788FF"/>
<path d="M29.3066 60.9869C29.6884 61.2228 30.5473 61.8246 31.0935 62.958C31.4872 63.7745 31.5521 64.5234 31.5561 64.9542" stroke="black" stroke-width="0.539496" stroke-miterlimit="10"/>
<path d="M29.438 60.5853C29.89 60.7735 30.5037 61.0876 31.1294 61.6152C31.6318 62.0381 31.9936 62.4728 32.2428 62.8241" fill="#A788FF"/>
<path d="M29.438 60.5853C29.89 60.7735 30.5037 61.0876 31.1294 61.6152C31.6318 62.0381 31.9936 62.4728 32.2428 62.8241" stroke="black" stroke-width="0.539496" stroke-miterlimit="10"/>
<path d="M45.2502 59.839C45.571 60.1319 46.1092 60.5508 46.8714 60.8504C47.782 61.2083 48.5866 61.2308 49.0506 61.2083C49.4429 60.9776 50.2104 60.454 50.8069 59.4851C51.4114 58.5028 51.528 57.5657 51.5545 57.111C51.4087 56.7969 51.1118 56.2613 50.5458 55.7775C49.887 55.2142 49.2043 55.01 48.8544 54.9318C48.3441 55.1426 47.44 55.5986 46.6434 56.5251C45.5127 57.8414 45.3019 59.2862 45.2502 59.839Z" fill="#FFFBF2" stroke="black" stroke-width="0.530217" stroke-miterlimit="10"/>
<path d="M40.4705 45.5669C40.5818 46.6525 41.7907 54.7185 43.2819 56.8446C44.2522 58.2285 45.025 58.9363 45.8097 59.4719C46.2618 59.2439 47.134 58.7282 47.8498 57.7221C48.482 56.834 48.7047 55.9658 48.7922 55.4793C48.3468 55.2805 47.6748 54.9478 46.894 53.8197C46.1849 52.7938 45.1814 45.8413 45.1324 45.3575C43.5789 45.4277 42.024 45.498 40.4705 45.5669Z" fill="#9F9187" stroke="black" stroke-width="0.530217" stroke-miterlimit="10"/>
<path d="M49.6682 69.2835C49.7743 69.5088 49.9625 69.8269 50.2899 70.1119C50.9911 70.7217 51.8474 70.7296 52.204 70.7336C53.8954 70.7535 55.657 68.9826 56.5239 67.5841C58.7641 63.9694 57.0541 59.5672 56.7572 58.8369C56.573 58.703 56.1872 58.4578 55.6385 58.3809C54.9863 58.2894 54.4786 58.4843 54.2705 58.5784C52.7368 62.1467 51.2032 65.7151 49.6695 69.2835H49.6682Z" fill="#FFFBF2" stroke="black" stroke-width="0.530217" stroke-miterlimit="10"/>
<path d="M49.1925 69.6002C51.2617 70.4658 53.6066 68.4616 54.5742 67.258C57.3048 63.858 55.3854 58.9575 55.2304 58.5797C54.8102 58.2788 54.2349 57.9262 53.5072 57.6332C52.7569 57.331 52.0782 57.1852 51.556 57.1123C50.7209 58.4776 49.8871 59.8442 49.052 61.2096V62.0871C48.824 62.2435 47.187 63.4086 47.0359 65.5017C46.9179 67.1241 47.7172 68.9812 49.1938 69.5989L49.1925 69.6002Z" fill="#A788FF" stroke="black" stroke-width="0.539496" stroke-miterlimit="10"/>
<path d="M49.0493 62.0871C49.4642 61.8552 50.1495 61.541 51.0482 61.435C52.3552 61.2799 53.3838 61.651 53.8624 61.8591" fill="#A788FF"/>
<path d="M49.0493 62.0871C49.4642 61.8552 50.1495 61.541 51.0482 61.435C52.3552 61.2799 53.3838 61.651 53.8624 61.8591" stroke="black" stroke-width="0.539496" stroke-miterlimit="10"/>
<path d="M49.0493 61.704C49.451 61.3553 49.9653 60.9617 50.6015 60.5918C51.1861 60.2525 51.7349 60.0112 52.2041 59.8389" fill="#A788FF"/>
<path d="M49.0493 61.704C49.451 61.3553 49.9653 60.9617 50.6015 60.5918C51.1861 60.2525 51.7349 60.0112 52.2041 59.8389" stroke="black" stroke-width="0.539496" stroke-miterlimit="10"/>
<path d="M63.316 34.3263C63.0707 34.5118 59.7781 37.0834 60.2354 40.5815C60.2858 40.9646 60.5443 42.933 62.172 44.0213C63.2881 44.7662 65.189 45.1878 66.0068 44.2983C66.3249 43.9537 66.4005 43.495 66.4111 43.1517C66.5702 43.1318 66.944 43.0616 67.2303 42.758C67.6293 42.3365 67.6969 41.6406 67.3894 41.0176C67.5285 40.9275 68.0535 40.5616 68.2284 39.8644C68.3318 39.4535 68.2682 39.1048 68.2205 38.9219C68.4007 38.7907 68.805 38.4566 69.0264 37.8694C69.1775 37.4704 69.1828 37.1165 69.1682 36.9058C69.0834 35.5922 67.3443 32.3167 65.2592 32.6813C65.0524 32.7171 64.1073 32.9172 63.3133 34.3276L63.316 34.3263Z" fill="#FFFBF2" stroke="black" stroke-width="0.530217" stroke-miterlimit="10"/>
<path d="M67.2064 38.0762C67.0527 38.5415 66.6219 39.6364 65.5204 40.5391C64.5713 41.3172 63.5957 41.5664 63.1145 41.6565C63.3796 41.6048 64.1869 41.4815 65.0657 41.9031C65.8703 42.2888 66.2733 42.9092 66.4138 43.1504" fill="#FFFBF2"/>
<path d="M67.2064 38.0762C67.0527 38.5415 66.6219 39.6364 65.5204 40.5391C64.5713 41.3172 63.5957 41.5664 63.1145 41.6565C63.3796 41.6048 64.1869 41.4815 65.0657 41.9031C65.8703 42.2888 66.2733 42.9092 66.4138 43.1504" stroke="black" stroke-width="0.530217" stroke-miterlimit="10"/>
<path d="M61.7042 25.8919C61.573 26.5241 61.4524 27.1949 61.3477 27.9C61.2416 28.6119 61.1621 29.2932 61.1038 29.9427C64.1114 29.0983 66.614 29.724 67.192 31.023C67.4067 31.5055 67.4664 32.3287 67.1403 33.0988C66.7373 34.0492 65.9393 34.4681 65.718 34.5742C65.7365 34.8326 65.832 35.7274 66.561 36.471C67.0753 36.9946 67.6546 37.1881 67.9303 37.261C71.0864 35.5789 72.6346 32.2346 71.9096 29.606C70.9764 26.2193 66.2097 23.8055 61.7042 25.8932V25.8919Z" fill="#9F9187" stroke="black" stroke-width="0.530217" stroke-miterlimit="10"/>
<path d="M67.3921 41.0163C67.3059 40.8744 67.1323 40.6292 66.8274 40.4264C66.4801 40.1958 66.1421 40.1388 65.9724 40.1215" fill="#A788FF"/>
<path d="M67.3921 41.0163C67.3059 40.8744 67.1323 40.6292 66.8274 40.4264C66.4801 40.1958 66.1421 40.1388 65.9724 40.1215" stroke="black" stroke-width="0.530217" stroke-miterlimit="10"/>
<path d="M68.222 38.9206C68.0987 38.8596 67.8614 38.7616 67.5473 38.7589C67.2185 38.7549 66.9693 38.8583 66.8447 38.9193" fill="#A788FF"/>
<path d="M68.222 38.9206C68.0987 38.8596 67.8614 38.7616 67.5473 38.7589C67.2185 38.7549 66.9693 38.8583 66.8447 38.9193" stroke="black" stroke-width="0.530217" stroke-miterlimit="10"/>
<path d="M63.5149 34.0015C63.4327 34.1977 63.2869 34.6219 63.3559 35.1574C63.4487 35.8785 63.8702 36.3318 64.0133 36.4737" fill="#FFFBF2"/>
<path d="M63.5149 34.0015C63.4327 34.1977 63.2869 34.6219 63.3559 35.1574C63.4487 35.8785 63.8702 36.3318 64.0133 36.4737" stroke="black" stroke-width="0.530217" stroke-miterlimit="10"/>
<path d="M39.1475 39.2295C39.5451 39.1764 48.9976 37.7422 52.5063 29.1739C55.2011 22.5939 52.4082 16.6396 51.9403 15.6812C52.4413 17.1724 54.0399 22.5356 51.5983 28.478C48.2526 36.6221 40.1469 38.9604 39.1488 39.2295H39.1475Z" fill="#FFFBF2"/>
</g>
<path d="M16.5813 39.3823C15.0283 39.3823 13.6193 40.2923 12.9807 41.7079L2.15365 65.7079C0.97429 68.3222 2.88627 71.2823 5.75421 71.2823H66.6188C68.1718 71.2823 69.5807 70.3722 70.2194 68.9566L81.0464 44.9566C82.2258 42.3423 80.3138 39.3823 77.4459 39.3823H16.5813Z" fill="#FFFBF2" stroke="black" stroke-width="1.5"/>
<mask id="path-69-outside-2_612_7459" maskUnits="userSpaceOnUse" x="0.552002" y="59.7323" width="75" height="13" fill="black">
<rect fill="white" x="0.552002" y="59.7323" width="75" height="13"/>
<path fill-rule="evenodd" clip-rule="evenodd" d="M72.6572 61.7323L69.5372 68.6482C69.0198 69.7951 67.8784 70.5323 66.6203 70.5323H5.7557C3.4323 70.5323 1.88336 68.1343 2.83879 66.0164L4.77146 61.7323H72.6572Z"/>
</mask>
<path fill-rule="evenodd" clip-rule="evenodd" d="M72.6572 61.7323L69.5372 68.6482C69.0198 69.7951 67.8784 70.5323 66.6203 70.5323H5.7557C3.4323 70.5323 1.88336 68.1343 2.83879 66.0164L4.77146 61.7323H72.6572Z" fill="#FF73FF"/>
<path d="M72.6572 61.7323L74.0245 62.3491L74.9794 60.2323H72.6572V61.7323ZM69.5372 68.6482L68.1699 68.0314V68.0314L69.5372 68.6482ZM2.83879 66.0164L1.47148 65.3996L1.47148 65.3996L2.83879 66.0164ZM4.77146 61.7323V60.2323H3.80258L3.40416 61.1155L4.77146 61.7323ZM71.2899 61.1155L68.1699 68.0314L70.9045 69.265L74.0245 62.3491L71.2899 61.1155ZM68.1699 68.0314C67.8951 68.6406 67.2887 69.0323 66.6203 69.0323V72.0323C68.4682 72.0323 70.1446 70.9495 70.9045 69.265L68.1699 68.0314ZM66.6203 69.0323H5.7557V72.0323H66.6203V69.0323ZM5.7557 69.0323C4.5214 69.0323 3.69852 67.7583 4.20609 66.6332L1.47148 65.3996C0.0681989 68.5102 2.34321 72.0323 5.7557 72.0323V69.0323ZM4.20609 66.6332L6.13877 62.3491L3.40416 61.1155L1.47148 65.3996L4.20609 66.6332ZM4.77146 63.2323H72.6572V60.2323H4.77146V63.2323Z" fill="black" mask="url(#path-69-outside-2_612_7459)"/>
<defs>
<clipPath id="clip0_612_7459">
<rect width="73.5702" height="71" fill="white" transform="translate(5)"/>
</clipPath>
</defs>
</svg>
