<svg width="155" height="136" viewBox="0 0 155 136" fill="none" xmlns="http://www.w3.org/2000/svg">
<mask id="path-1-outside-1_743_37958" maskUnits="userSpaceOnUse" x="0" y="36.4961" width="134" height="99" fill="black">
<rect fill="white" y="36.4961" width="134" height="99"/>
<path fill-rule="evenodd" clip-rule="evenodd" d="M9 39.4961C5.68629 39.4961 3 42.1824 3 45.4961V60.4961V72.1325V126.496C3 129.81 5.68629 132.496 9 132.496H124.5C127.814 132.496 130.5 129.81 130.5 126.496V60.4961C130.5 57.1824 127.814 54.4961 124.5 54.4961H76.3939L69.1418 42.4091C68.0574 40.6019 66.1044 39.4961 63.9968 39.4961H9Z"/>
</mask>
<path fill-rule="evenodd" clip-rule="evenodd" d="M9 39.4961C5.68629 39.4961 3 42.1824 3 45.4961V60.4961V72.1325V126.496C3 129.81 5.68629 132.496 9 132.496H124.5C127.814 132.496 130.5 129.81 130.5 126.496V60.4961C130.5 57.1824 127.814 54.4961 124.5 54.4961H76.3939L69.1418 42.4091C68.0574 40.6019 66.1044 39.4961 63.9968 39.4961H9Z" fill="#FFDD6A"/>
<path d="M76.3939 54.4961L73.8215 56.0396L74.6954 57.4961H76.3939V54.4961ZM69.1418 42.4091L71.7142 40.8656V40.8656L69.1418 42.4091ZM6 45.4961C6 43.8392 7.34315 42.4961 9 42.4961V36.4961C4.02944 36.4961 0 40.5255 0 45.4961H6ZM6 60.4961V45.4961H0V60.4961H6ZM6 72.1325V60.4961H0V72.1325H6ZM6 126.496V72.1325H0V126.496H6ZM9 129.496C7.34315 129.496 6 128.153 6 126.496H0C0 131.467 4.02944 135.496 9 135.496V129.496ZM124.5 129.496H9V135.496H124.5V129.496ZM127.5 126.496C127.5 128.153 126.157 129.496 124.5 129.496V135.496C129.471 135.496 133.5 131.467 133.5 126.496H127.5ZM127.5 60.4961V126.496H133.5V60.4961H127.5ZM124.5 57.4961C126.157 57.4961 127.5 58.8392 127.5 60.4961H133.5C133.5 55.5255 129.471 51.4961 124.5 51.4961V57.4961ZM76.3939 57.4961H124.5V51.4961H76.3939V57.4961ZM66.5693 43.9526L73.8215 56.0396L78.9664 52.9526L71.7142 40.8656L66.5693 43.9526ZM63.9968 42.4961C65.0506 42.4961 66.0271 43.049 66.5693 43.9526L71.7142 40.8656C70.0877 38.1548 67.1582 36.4961 63.9968 36.4961V42.4961ZM9 42.4961H63.9968V36.4961H9V42.4961Z" fill="black" mask="url(#path-1-outside-1_743_37958)"/>
<path d="M31.0898 73.9961C28.141 73.9961 25.4659 75.724 24.2533 78.412L3.95254 123.412C1.71325 128.376 5.3436 133.996 10.7891 133.996H124.91C127.859 133.996 130.534 132.268 131.747 129.58L152.047 84.5802C154.287 79.6165 150.656 73.9961 145.211 73.9961H31.0898Z" fill="#FFDD6A" stroke="black" stroke-width="3"/>
</svg>
