<?xml version="1.0" encoding="UTF-8"?>
<svg id="Capa_2" xmlns="http://www.w3.org/2000/svg" viewBox="0 0 207.92 298.12">
  <defs>
    <style>
      .cls-1 {
        fill: #8adfff;
      }

      .cls-2 {
        fill: #fffaf0;
      }

      .cls-3 {
        fill: #d3c0b1;
      }

      .cls-4 {
        fill: #0077fb;
      }

      .cls-5 {
        fill: red;
      }

      .cls-6 {
        fill: #ff3c18;
      }
    </style>
  </defs>
  <g id="Capa_1-2" data-name="Capa_1">
    <g>
      <g>
        <ellipse cx="45.78" cy="284.06" rx="36.84" ry="13.16"/>
        <path d="M45.78,298.12c-21.16,0-37.73-6.18-37.73-14.06s16.58-14.06,37.73-14.06,37.74,6.18,37.74,14.06-16.58,14.06-37.74,14.06ZM45.78,271.8c-19.48,0-35.94,5.62-35.94,12.26s16.46,12.26,35.94,12.26,35.94-5.62,35.94-12.26-16.46-12.26-35.94-12.26Z"/>
      </g>
      <g>
        <ellipse cx="155.53" cy="270.05" rx="32.37" ry="11.57"/>
        <path d="M155.53,282.41c-18.6,0-33.16-5.43-33.16-12.36s14.57-12.36,33.16-12.36,33.16,5.43,33.16,12.36-14.57,12.36-33.16,12.36ZM155.53,259.28c-17.12,0-31.58,4.93-31.58,10.78s14.46,10.78,31.58,10.78,31.58-4.93,31.58-10.78-14.46-10.78-31.58-10.78Z"/>
      </g>
      <g>
        <g>
          <path class="cls-2" d="M8.12,126.92c-1.82,1.81-6.65,7.11-7.08,14.94-.52,9.39,5.58,17.09,8.29,17.71,1.99.45,3,.28,3,.28.92-.16,1.51-.51,2.53-.37.65.09,1.07.33,1.47.52.4.19,2.71,1.31,4.41,1.12,2.06-.23,2.08-2.27,4.32-2.76,1.59-.35,2.09.57,3.89.69,2.92.2,6.18-1.94,7.69-4.84,1.63-3.12,1.03-6.72-.09-8.03-.34-.4-.83-.97-1.61-1.13-.76-.15-1.28.2-1.59-.08-.43-.39,0-1.51.09-1.73.68-1.83.36-3.9-.17-7.43-.22-1.43-1-4.59-4.75-8.21"/>
          <path d="M20.32,162.15c-1.62,0-3.44-.76-4.44-1.25l-.14-.07c-.33-.16-.61-.3-1.03-.36-.5-.07-.84.03-1.33.16-.28.08-.57.15-.89.21-.12.02-1.26.19-3.39-.29-3.42-.77-9.6-9.22-9.07-18.74.42-7.61,4.8-13.04,7.38-15.6l1.41,1.42c-2.37,2.36-6.41,7.34-6.79,14.29-.5,8.98,5.37,16.19,7.51,16.67,1.72.39,2.61.27,2.62.27.25-.04.48-.1.7-.16.58-.15,1.23-.33,2.12-.21.75.1,1.25.35,1.65.55l.12.06c1.53.74,2.97,1.13,3.85,1.03.63-.07.92-.37,1.47-.97.59-.65,1.32-1.46,2.74-1.77,1.19-.26,1.97.03,2.66.29.45.17.88.33,1.51.38,2.48.17,5.37-1.68,6.73-4.3,1.48-2.83.81-6.01.04-6.92-.28-.33-.6-.71-1.04-.79-.2-.04-.38-.02-.58.01-.36.05-.97.13-1.48-.33-.92-.83-.37-2.31-.19-2.8.6-1.61.29-3.62-.22-6.95-.39-2.56-1.93-5.2-4.46-7.64l1.39-1.44c2.84,2.75,4.59,5.78,5.04,8.78.56,3.65.89,5.85.12,7.93-.06.17-.11.31-.14.43.25-.02.56-.02.9.05,1.12.22,1.78,1,2.17,1.46,1.49,1.75,1.93,5.85.21,9.15-1.74,3.33-5.39,5.59-8.64,5.38-.93-.06-1.57-.31-2.09-.5-.58-.22-.91-.34-1.51-.21-.8.18-1.19.61-1.68,1.16-.59.65-1.32,1.46-2.74,1.62-.17.02-.34.03-.52.03Z"/>
        </g>
        <g>
          <path class="cls-2" d="M9.37,128.76c-1.99.16-3.69-.62-4.21-1.9-.4-1,.02-2.05.2-2.5.71-1.78,2.28-2.66,2.87-2.98,4.99-2.74,17.35-3.14,19.71,2.08.11.24.78,1.79.13,3.19-.76,1.62-3.04,2.49-5.82,2.3"/>
          <path d="M22.98,129.97c-.26,0-.52,0-.79-.03l.13-2c2.37.16,4.28-.52,4.84-1.73.45-.96-.03-2.13-.13-2.35-.65-1.44-2.3-2.24-3.56-2.67-4.57-1.53-11.56-.7-14.75,1.05-.45.25-1.83,1.01-2.42,2.48-.15.37-.45,1.12-.2,1.75.35.86,1.69,1.4,3.19,1.28l.16,2c-2.44.2-4.53-.82-5.22-2.53-.55-1.38,0-2.74.2-3.25.86-2.14,2.71-3.15,3.32-3.49,3.56-1.96,11.15-2.93,16.35-1.2,2.39.8,3.99,2.06,4.76,3.74.23.51.92,2.32.12,4.03-.86,1.83-3.12,2.91-6,2.91Z"/>
        </g>
        <g>
          <path class="cls-3" d="M52.29,92.24v8.58c-2.01-.32-10.91-1.48-19.43,4.29-9.69,6.56-11.37,16.98-11.61,18.68-.57.44-1.87,1.34-3.75,1.54-2.82.3-4.86-1.17-5.34-1.54.15-2.1,1.3-15.48,13.12-24.73,11.75-9.19,24.92-7.17,27.01-6.81Z"/>
          <path d="M16.73,126.37c-2.56,0-4.45-1.22-5.19-1.79l-.43-.33.04-.54c.26-3.69,1.99-16.44,13.51-25.45,11.45-8.96,24.17-7.63,27.79-7.01l.83.14v10.6l-1.16-.18c-3.08-.49-11.07-1.05-18.71,4.13-8.83,5.98-10.79,15.28-11.18,17.99l-.06.4-.32.25c-.87.68-2.31,1.54-4.26,1.75-.29.03-.58.05-.86.05ZM13.2,123.29c.82.53,2.31,1.23,4.18,1.03,1.27-.14,2.26-.63,2.93-1.1.55-3.36,2.88-12.79,11.98-18.95,7.4-5.01,15.1-5.03,18.99-4.6v-6.58c-4.25-.58-15.33-1.12-25.38,6.74-10.34,8.09-12.32,19.38-12.7,23.45Z"/>
        </g>
        <g>
          <path class="cls-2" d="M9.65,148.62c.03,1.32.27,3.76,1.64,6.4,1.14,2.21,2.61,3.66,3.57,4.47"/>
          <path d="M14.21,160.25c-1.58-1.34-2.87-2.94-3.81-4.77-1.08-2.09-1.69-4.46-1.75-6.83l2.01-.05c.05,2.07.58,4.13,1.52,5.96.83,1.6,1.95,3,3.33,4.16l-1.29,1.53Z"/>
        </g>
        <g>
          <path class="cls-2" d="M19.31,148.92c.16,1.31.66,3.88,2.53,6.4,1.09,1.47,2.3,2.44,3.2,3.05"/>
          <path d="M24.49,159.19c-1.34-.9-2.5-2-3.45-3.28-1.87-2.5-2.51-5.12-2.72-6.88l1.99-.24c.18,1.51.74,3.77,2.34,5.92.81,1.09,1.81,2.04,2.96,2.81l-1.12,1.66Z"/>
        </g>
        <g>
          <path class="cls-2" d="M119.44,264.45c-.36,3.85,4.68,7.48,7.47,8.92,1.34.69,3.72,1.68,8.03,1.88,10.97.51,19.45-4.79,21.33-6.02,6.22-4.07,9.6-8.89,11.63-11.85,4.84-7.06,6.35-13.54,7.79-19.08,1.6-6.15,2.24-9.34,1.02-12.98-1.36-4.04-5.06-9.07-10.43-9.67-4.11-.46-7.37,1.89-8.76,2.9-7.6,5.5-9.3,16.96-9.71,18.29-.2.65-.37,2.6-1.35,4.97-.11.26-1.27,3.02-3.39,5.53-3.15,3.74-6.46,4.75-12.75,8.35-7.08,4.05-10.63,6.13-10.87,8.77Z"/>
          <path d="M136.43,276.29c-.51,0-1.02-.01-1.54-.04-3.39-.16-6.15-.81-8.45-1.99-3.16-1.63-8.41-5.56-8.01-9.9h0c.3-3.21,4.23-5.46,11.38-9.55,1.67-.96,3.14-1.73,4.43-2.42,3.53-1.87,5.86-3.11,8.06-5.71,2-2.37,3.11-4.98,3.23-5.27.67-1.62.94-3.03,1.12-3.96.08-.41.14-.72.2-.92.04-.14.1-.42.19-.8.71-3.2,2.89-12.94,9.89-18,1.48-1.08,4.96-3.59,9.46-3.08,5.58.63,9.68,5.65,11.26,10.35,1.29,3.84.69,7.08-1,13.55l-.23.89c-1.42,5.47-3.02,11.67-7.7,18.5-1.88,2.75-5.39,7.87-11.91,12.12-2.94,1.92-10.61,6.22-20.39,6.22ZM120.44,264.54c-.28,3.05,3.99,6.41,6.93,7.93.75.39,3.02,1.56,7.62,1.77,9.91.46,17.81-3.94,20.74-5.86,6.18-4.04,9.54-8.94,11.35-11.58,4.48-6.54,6.04-12.56,7.41-17.87l.23-.89c1.62-6.21,2.16-9.07,1.04-12.41-1.38-4.1-4.88-8.47-9.59-9-3.72-.42-6.77,1.78-8.06,2.72-6.39,4.62-8.44,13.8-9.11,16.82-.1.46-.18.78-.23.95-.05.15-.09.39-.15.7-.18.95-.49,2.54-1.24,4.35-.13.32-1.35,3.19-3.54,5.79-2.45,2.9-5.05,4.28-8.65,6.19-1.28.68-2.73,1.45-4.37,2.39-6.34,3.63-10.17,5.81-10.37,7.99h0Z"/>
        </g>
        <g>
          <path class="cls-1" d="M120.11,266.75c1.36,2.27,4.47,2.62,8.68,3.04,3.89.38,13.76,1.21,23.72-5.07,6.18-3.9,9.45-8.67,11.63-11.85,4.84-7.06,6.35-13.54,7.79-19.08,1.69-6.48,2.5-9.79,1.02-12.98-2.95-6.33-13.01-9.82-19.19-6.77-4.76,2.34-6.59,8.24-9.71,18.29-.2.65-.37,2.6-1.35,4.97-.11.26-1.27,3.02-3.39,5.53-4.1,4.87-8.18,4.54-12.75,8.35-5.04,4.2-8.71,11.77-6.43,15.58Z"/>
          <path d="M133.53,271.06c-2.13,0-3.8-.17-4.84-.27-4.19-.41-7.8-.77-9.44-3.52h0c-2.66-4.46,1.37-12.46,6.65-16.86,2.07-1.72,4-2.62,5.88-3.5,2.34-1.09,4.55-2.12,6.75-4.73,2-2.37,3.11-4.98,3.23-5.27.67-1.62.94-3.02,1.12-3.95.08-.41.14-.72.21-.93,3.17-10.2,5.08-16.35,10.22-18.89,3.2-1.58,7.43-1.64,11.61-.17,4.17,1.47,7.42,4.17,8.94,7.42,1.67,3.59.68,7.38-.95,13.66l-.23.89c-1.42,5.47-3.02,11.67-7.7,18.5-2.22,3.24-5.57,8.12-11.92,12.13-7.29,4.6-14.59,5.49-19.51,5.49ZM158.97,213.93c-1.77,0-3.42.34-4.78,1.01-4.37,2.15-6.18,8-9.19,17.68-.05.16-.09.4-.15.71-.18.95-.49,2.53-1.23,4.34-.13.32-1.35,3.19-3.55,5.79-2.48,2.95-5,4.12-7.44,5.26-1.76.82-3.58,1.67-5.44,3.22-4.97,4.14-8.05,11.22-6.21,14.29h0c1.07,1.79,3.71,2.14,7.92,2.55,3.27.32,13.21,1.31,23.08-4.92,6-3.79,9.21-8.47,11.33-11.57,4.48-6.54,6.04-12.56,7.42-17.87l.23-.89c1.69-6.5,2.39-9.49,1.08-12.31-1.27-2.72-4.18-5.1-7.78-6.37-1.77-.62-3.57-.93-5.27-.93Z"/>
        </g>
        <g>
          <path class="cls-1" d="M135.65,235.61c2.52,4.73,5.45,5.59,6.44,5.79,6.3,1.32,13-7.07,14.96-14.32,1.02-3.78,2.08-12.13-2.41-14.48-3.52-1.84-8.27,1.13-9.01,1.61-3.32,7.13-6.65,14.27-9.98,21.4Z"/>
          <path d="M143.42,242.54c-.52,0-1.03-.05-1.54-.16-1.58-.33-4.6-1.59-7.11-6.3l-.24-.44,10.31-22.12.24-.16c1.39-.89,6.21-3.65,10.02-1.65,4.94,2.58,4.16,11.04,2.92,15.63-1.04,3.86-3.32,7.9-6.1,10.8-2.74,2.87-5.71,4.39-8.5,4.39ZM136.78,235.57c2.07,3.63,4.33,4.6,5.52,4.85,5.39,1.12,11.84-6.38,13.79-13.6,1.18-4.34,1.64-11.48-1.91-13.33-2.71-1.41-6.55.67-7.76,1.41l-9.64,20.67Z"/>
        </g>
        <g>
          <path class="cls-3" d="M79.31,170.41c-.72,6.28-1.22,19.1,5.69,32.17,15.02,28.42,50.41,30.29,52.39,30.36,4.15-.61,7.59-3.48,8.82-7.36,1.65-5.23-1.58-9.5-1.87-9.87-23.61-2.82-42.1-14.38-46.42-30.36-.86-3.19-1.4-7.43-.55-12.71-.01-13.12-3.43-22.52-6.98-22.85-3.52-.33-8.55,8.13-11.08,20.63Z"/>
          <path d="M137.45,233.95h-.09c-1.54-.06-37.83-1.73-53.24-30.9-6.48-12.27-6.73-24.58-5.8-32.75v-.08c2.57-12.63,7.81-21.83,12.18-21.43,4.48.42,7.88,10.67,7.89,23.85v.16c-.7,4.31-.53,8.44.52,12.29,4.11,15.19,21.99,26.81,45.57,29.63l.41.05.26.33c.4.51,3.83,5.11,2.04,10.79-1.33,4.23-5.11,7.39-9.63,8.05h-.09ZM80.3,170.57c-.9,7.89-.65,19.75,5.58,31.54,14.65,27.73,48.98,29.72,51.45,29.83,3.72-.58,6.82-3.19,7.92-6.66,1.29-4.06-.75-7.56-1.47-8.62-24.18-3-42.53-15.16-46.83-31.04-1.11-4.1-1.3-8.49-.58-13.05-.03-13.14-3.55-21.54-6.07-21.77-2.4-.24-7.34,6.69-10,19.79Z"/>
        </g>
        <g>
          <path class="cls-1" d="M129.45,249.19c1.9-.78,7.71-2.88,14.7-.95,9.39,2.59,13.57,10.43,14.25,11.77"/>
          <path d="M157.51,260.47c-1.05-2.05-5.13-8.92-13.63-11.26-6.16-1.7-11.45-.16-14.05.91l-.76-1.86c2.84-1.17,8.61-2.85,15.35-.99,9.29,2.56,13.74,10.05,14.88,12.28l-1.79.91Z"/>
        </g>
        <g>
          <path class="cls-3" d="M121.53,168.06c.5,11.16-5.27,19.75-12.27,29.58-8.38,11.76-18.06,24.65-29.15,38.34,2.4,6.41,4.81,12.83,7.21,19.24,11.84-12.14,21.32-23.04,28.43-31.65,1.27-1.53,15.38-18.82,25.63-41.64.65-1.45,2.18-8.84,2.22-18.92.08-21.34-7.73-45.71-14.46-45.56-6.07.14-13.63,20.29-10.69,37.41,1.1,6.42,2.81,7.38,3.07,13.2Z"/>
          <path d="M86.93,257.05l-7.97-21.26.36-.45c10.07-12.42,19.87-25.3,29.11-38.29,7.37-10.35,12.55-18.48,12.09-28.96h0c-.14-3.1-.68-4.69-1.37-6.7-.55-1.62-1.18-3.45-1.68-6.37-2.31-13.47,1.76-29.35,7.01-35.72,1.53-1.86,3.09-2.82,4.64-2.86,1.29-.02,2.59.59,3.87,1.85,6.25,6.14,11.68,27.04,11.62,44.72-.04,9.99-1.55,17.63-2.31,19.32-10.23,22.78-24.21,39.98-25.78,41.87-8.98,10.85-18.56,21.52-28.49,31.71l-1.1,1.13ZM81.24,236.16l6.46,17.22c9.5-9.8,18.67-20.04,27.27-30.45,1.54-1.87,15.37-18.88,25.49-41.41.61-1.36,2.09-8.62,2.13-18.51.07-18.51-5.76-38.12-11.01-43.28-.86-.85-1.66-1.28-2.38-1.28h-.04c-.91.02-2.02.78-3.14,2.13-4.97,6.03-8.8,21.18-6.59,34.11.47,2.76,1.07,4.51,1.6,6.06.71,2.08,1.33,3.88,1.48,7.26h0c.49,11.11-4.85,19.53-12.46,30.21-9.16,12.86-18.86,25.62-28.83,37.94Z"/>
        </g>
        <g>
          <path class="cls-1" d="M70.14,235.9c-.38-.55-1.07-1.41-2.19-2.13-.85-.54-1.65-.82-2.23-.96,6.36-14.14-.48-30.1-12.89-34.87-10.27-3.95-23.07.25-29.94,10.71,7.13,7.86,15.93,19.12,23.63,34.02,7.93,15.34,12.05,29.42,14.31,39.98.85.12,12.48,1.52,19.08-6.73,2.6-3.24,3.43-6.75,3.72-8.89,1.62.87,2.51.71,3,.49,2.07-.96,2.32-5.83.68-12.29-2.4-6.41-4.81-12.83-7.21-19.24-1.69-2.69-4.67-3.85-7-3.01-1.88.68-2.74,2.44-2.96,2.93Z"/>
          <path d="M63.53,283.79c-1.62,0-2.69-.14-2.84-.16l-.7-.1-.15-.69c-2.95-13.81-7.73-27.18-14.22-39.73-6.32-12.23-14.22-23.6-23.48-33.8l-.52-.58.43-.65c7.01-10.67,20.11-15.34,31.14-11.1,6.12,2.35,11.17,7.45,13.85,13.98,2.77,6.74,2.77,14.41.03,21.22.49.2.97.44,1.42.73.55.35,1.06.76,1.51,1.23.58-.8,1.48-1.67,2.76-2.13,2.85-1.03,6.3.41,8.19,3.42l.09.18,7.25,19.35c1.83,7.21,1.37,12.24-1.23,13.45-.75.35-1.64.36-2.65.03-.62,3.03-1.89,5.8-3.71,8.09-5.06,6.33-12.96,7.26-17.16,7.26ZM61.66,281.72c2.63.21,11.97.44,17.47-6.44,1.86-2.32,3.07-5.23,3.51-8.4l.2-1.43,1.27.69c.92.5,1.66.66,2.09.46,1.28-.6,1.76-4.68.15-11.08l-7.16-19.09c-1.4-2.16-3.81-3.22-5.76-2.52-1.41.51-2.14,1.85-2.39,2.4l-.73,1.63-1.01-1.48c-.51-.75-1.15-1.37-1.9-1.85-.59-.38-1.25-.66-1.93-.83l-1.16-.29.49-1.09c2.95-6.55,3.09-14.08.38-20.65-2.48-6.02-7.11-10.72-12.72-12.87-9.94-3.83-21.72.25-28.31,9.68,9.15,10.18,16.97,21.49,23.25,33.64,6.46,12.49,11.25,25.78,14.25,39.52Z"/>
        </g>
        <g>
          <path class="cls-2" d="M18.99,217.52c-1.22,9.35,6.55,13.3,16.17,28.57,6.95,11.03,18.54,33.25,25.02,35.72,2.2.84,3.95.32,3.95.32,2.51-.74,3.77-3.33,4.22-4.26,4.94-10.12-10.27-44.18-10.27-44.18-6.08-13.63-9.95-19.5-14.26-23.05-1.14-.94-2.4-1.87-3.95-2.65-.98-.49-8.77-4.44-14.71-1.11-4.97,2.79-5.99,9.21-6.18,10.64Z"/>
          <path d="M62.74,283.29c-.79,0-1.81-.12-2.92-.54-5.32-2.03-13.18-15.37-20.11-27.14-1.96-3.32-3.81-6.46-5.4-8.99-3.33-5.29-6.5-9.28-9.04-12.49-4.89-6.17-8.12-10.24-7.28-16.75h0c.25-1.93,1.48-8.46,6.68-11.39,5.93-3.33,13.48,0,15.65,1.09,1.77.9,3.14,1.95,4.13,2.77,4.71,3.88,8.65,10.23,14.54,23.42.63,1.41,15.34,34.61,10.26,45.03-.47.97-1.91,3.92-4.84,4.78-.05.01-.69.2-1.68.2ZM19.99,217.65c-.74,5.66,2.12,9.27,6.86,15.24,2.57,3.24,5.77,7.28,9.17,12.67,1.61,2.55,3.46,5.7,5.43,9.04,6.09,10.34,14.44,24.5,19.1,26.28,1.82.7,3.3.3,3.32.29,2.08-.61,3.18-2.88,3.6-3.74,1.9-3.9.75-12.59-3.34-25.13-3.13-9.62-6.91-18.11-6.95-18.2-5.68-12.71-9.6-19.07-13.98-22.69-.92-.75-2.17-1.72-3.76-2.53-1.95-.99-8.69-3.98-13.76-1.13-4.39,2.47-5.45,8.2-5.67,9.9h0Z"/>
        </g>
        <g>
          <path class="cls-2" d="M20.16,215.57c-5.36,7.42,4.58,24.71,11.1,35.83,8.16,13.92,19.48,33.22,29.57,31.24.69-.13,1.66-.34,2.61-1.09,6.35-5.03-1.66-23.74-9.62-42.35-4.49-10.48-9.61-20.68-17.91-25.29-1.94-1.08-6.47-3.6-10.96-2.02,0,0-2.85,1-4.78,3.68Z"/>
          <path d="M59.39,283.78c-10.3,0-21.04-18.32-28.99-31.88-8.18-13.95-16.45-29.45-11.05-36.93h0c2.09-2.9,5.13-3.99,5.26-4.04,4.92-1.73,9.73.95,11.78,2.09,8.86,4.93,14.12,15.89,18.35,25.78,8.37,19.55,16.28,38.02,9.33,43.53-1.17.92-2.34,1.15-3.04,1.29-.54.11-1.09.16-1.63.16ZM27.97,212.39c-.89,0-1.8.13-2.7.45-.02,0-2.58.94-4.3,3.32h0c-5.08,7.04,5.48,25.06,11.16,34.74,7.61,12.98,19.12,32.59,28.51,30.76.59-.12,1.4-.27,2.18-.89,5.75-4.55-2.58-24-9.92-41.17-4.1-9.58-9.17-20.19-17.48-24.81-1.42-.79-4.31-2.4-7.44-2.4Z"/>
        </g>
        <g>
          <path class="cls-1" d="M75.95,251.68c.64,2.37,1.64,5.27,3.24,8.39,1.45,2.83,3.03,5.14,4.44,6.94"/>
          <path d="M82.85,267.64c-1.74-2.21-3.27-4.61-4.55-7.11-1.4-2.73-2.52-5.62-3.32-8.59l1.94-.52c.76,2.83,1.83,5.59,3.17,8.2,1.22,2.39,2.68,4.67,4.34,6.78l-1.58,1.24Z"/>
        </g>
        <g>
          <path class="cls-1" d="M70.14,235.9c.03,1.07.13,2.26.36,3.55.53,3.01,1.55,5.44,2.49,7.2"/>
          <path d="M72.1,247.12c-1.26-2.37-2.13-4.89-2.59-7.5-.21-1.21-.34-2.46-.37-3.7l2.01-.05c.03,1.14.15,2.29.34,3.4.42,2.4,1.22,4.72,2.39,6.91l-1.77.94Z"/>
        </g>
        <g>
          <path class="cls-1" d="M66.01,232.3c-.21.55-.54,1.24-1.07,1.97-.65.9-1.36,1.51-1.89,1.9"/>
          <path d="M63.65,236.98l-1.19-1.61c.64-.47,1.2-1.04,1.67-1.69.39-.54.71-1.13.95-1.75l1.87.72c-.3.78-.7,1.52-1.2,2.2-.59.81-1.3,1.53-2.1,2.12Z"/>
        </g>
        <g>
          <path class="cls-2" d="M173.86,23.33l-27.98-9.16-11.86,115.48,8.08,48.68,34.94-2.53c-3.79-18.37-6.91-39.71-8.12-63.53-1.75-34.44.98-64.61,4.94-88.94Z"/>
          <path d="M141.25,179.39l-8.25-49.71v-.13s12-116.71,12-116.71l29.98,9.81-.14.85c-4.77,29.32-6.43,59.17-4.93,88.73,1.08,21.21,3.8,42.53,8.1,63.38l.23,1.12-36.99,2.68ZM135.03,129.61l7.91,47.64,32.89-2.38c-4.19-20.59-6.85-41.63-7.91-62.56-1.49-29.41.13-59.12,4.82-88.3l-25.98-8.5-11.72,114.1Z"/>
        </g>
        <g>
          <path class="cls-2" d="M145.88,14.17l-91.34,22.95c0,20.11-1.88,45.66-8.67,74.43-5.47,23.18-12.83,42.88-19.96,58.7,31.58,2.69,63.17,5.39,94.75,8.08,7.26-22.06,14.27-48.51,19.06-78.77,5.09-32.17,6.47-61.08,6.16-85.39Z"/>
          <path d="M121.36,179.39l-96.96-8.27.58-1.29c8.47-18.8,15.17-38.48,19.9-58.51,5.73-24.25,8.64-49.22,8.65-74.2v-.78l93.33-23.45.02,1.27c.37,28.57-1.71,57.35-6.17,85.55-4.23,26.69-10.65,53.25-19.1,78.92l-.25.75ZM27.4,169.36l92.55,7.89c8.29-25.34,14.61-51.53,18.78-77.86,4.38-27.67,6.45-55.91,6.16-83.95l-89.35,22.45c-.07,24.88-3,49.73-8.7,73.88-4.65,19.7-11.19,39.06-19.44,57.59Z"/>
        </g>
        <g>
          <path class="cls-6" d="M144.84,46.34c-30.4,4.91-60.8,9.82-91.2,14.73.25-3.98.46-8.05.61-12.22.15-3.99.24-7.91.28-11.73,30.45-7.65,60.9-15.3,91.34-22.95-.11,5.21-.24,10.47-.41,15.78-.18,5.52-.38,10.98-.62,16.38Z"/>
          <path d="M53.64,62.07c-.25,0-.49-.09-.67-.26-.23-.21-.35-.5-.33-.81.26-4.07.46-8.17.61-12.19.14-3.9.24-7.84.28-11.71,0-.46.32-.85.76-.96l91.34-22.95c.3-.08.62,0,.87.19.24.2.38.49.38.81-.11,5.22-.25,10.53-.41,15.8-.17,5.39-.38,10.91-.62,16.4-.02.48-.37.87-.84.95l-91.2,14.73c-.05,0-.11.01-.16.01ZM55.53,37.9c-.05,3.63-.14,7.33-.27,10.99-.13,3.62-.31,7.31-.53,10.99l89.16-14.4c.22-5.21.42-10.44.58-15.56.15-4.81.28-9.67.39-14.46l-89.32,22.44Z"/>
        </g>
        <g>
          <path class="cls-4" d="M66.82,92.02c2.19.12,3.33.16,5.68.22,1.33,5.29,1.9,7.93,2.93,13.3.04,0,.05,0,.09,0,.85-5.33,1.22-7.98,1.71-13.24,1.73,0,2.61,0,4.38,0-.83,7.52-1.98,14.93-3.33,22.38-2.02-.06-3.02-.1-4.98-.17-.86-5.48-1.86-10.97-3.05-16.39-.03,0-.05,0-.08,0-.67,5.4-1.54,10.8-2.53,16.15-1.61-.08-2.4-.12-3.92-.21,1.24-7.32,2.4-14.64,3.11-22.03Z"/>
          <path class="cls-4" d="M83.8,113.66c-1.12-1.04-1.51-2.46-1.19-4.28.84-4.77,1.22-7.14,1.8-11.84.22-1.79,1.02-3.16,2.42-4.16,1.41-.99,3.35-1.52,5.83-1.57,2.48-.06,4.33.39,5.55,1.35,1.22.96,1.74,2.36,1.54,4.2-.53,4.83-.9,7.28-1.74,12.22-.32,1.88-1.24,3.33-2.76,4.33-1.52,1-3.53,1.47-6.03,1.4-2.5-.06-4.3-.62-5.42-1.66ZM92.9,109.75c.89-5.07,1.29-7.59,1.85-12.55.17-1.49-.63-2.22-2.38-2.19-1.75.03-2.7.78-2.87,2.26-.58,4.91-.98,7.4-1.87,12.41-.27,1.51.47,2.28,2.22,2.31,1.76.03,2.78-.72,3.05-2.25Z"/>
          <path class="cls-4" d="M102.16,91.91c1.97-.04,2.95-.06,4.86-.09.59,6.12.93,12.09,1.1,18.24.03,0,.05,0,.09,0,1.96-6,3.67-12.1,4.88-18.29,1.62,0,2.41,0,3.92.03-1.78,8.13-4.09,15.91-6.77,23.79-2.52-.1-3.81-.14-6.44-.22-.23-7.88-.71-15.62-1.64-23.45Z"/>
          <path class="cls-4" d="M55.81,157.37c-1.56-1.87-2.03-4.47-1.51-7.75.21-1.34.32-2,.54-3.33,2.58.16,3.96.26,6.84.48-.24,1.44-.36,2.16-.59,3.6-.43,2.68.67,4.12,3.43,4.34,1.35.11,2.46-.14,3.28-.75.82-.62,1.37-1.78,1.64-3.49.21-1.33.33-1.99.55-3.31.32-1.86.13-3.22-.57-4.08-.7-.86-1.99-1.37-3.82-1.51-1.06-.08-1.59-.12-2.62-.2.42-2.3.64-3.45,1.07-5.73,1.12.08,1.69.12,2.85.21,1.59.12,2.89-.12,3.84-.71.95-.59,1.59-1.66,1.9-3.19.24-1.17.35-1.76.59-2.92.28-1.37.1-2.41-.53-3.09-.63-.69-1.57-1.07-2.8-1.14-2.62-.15-4.09.99-4.56,3.44-.2,1.04-.31,1.56-.51,2.61-2.93-.2-4.34-.3-6.97-.5.16-.84.23-1.26.39-2.09.59-3.16,1.89-5.5,4.07-7.05,2.18-1.55,5.11-2.23,9-2.04,3.94.19,6.94,1.15,8.75,2.95,1.81,1.8,2.4,4.35,1.72,7.61-.12.58-.18.87-.3,1.46-.46,2.21-1.32,3.96-2.59,5.23-1.27,1.27-3,2.11-5.17,2.52,0,.05-.01.07-.02.12,2.08.79,3.52,1.93,4.25,3.42.74,1.48.91,3.33.54,5.51-.25,1.45-.37,2.18-.59,3.63-.51,3.28-1.95,5.67-4.34,7.19-2.39,1.52-5.69,2.09-9.63,1.78-3.94-.31-6.58-1.35-8.14-3.22Z"/>
          <path class="cls-4" d="M86.31,159.99c-2.2-2.03-3.05-4.69-2.55-7.98,1.12-7.28,2.54-14.51,4.04-21.73.68-3.31,2.37-5.79,5.06-7.51,2.69-1.72,6.23-2.52,10.49-2.34,4.27.18,7.23,1.26,9.05,3.28,1.82,2.02,2.43,4.79,1.89,8.27-1.16,7.51-2.19,15-2.93,22.56-.28,3.36-1.55,5.82-4.05,7.41-2.5,1.6-6.09,2.19-10.72,1.75-4.63-.43-8.07-1.68-10.27-3.72ZM102.26,154.18c1-7.78,2.26-15.49,3.65-23.21.52-2.82-.7-4.32-3.72-4.48-3.03-.16-4.85,1.14-5.4,3.91-1.49,7.61-2.87,15.22-4.02,22.89-.37,2.73,1.08,4.24,4.28,4.54,3.2.3,4.9-.91,5.21-3.66Z"/>
        </g>
        <g>
          <path class="cls-2" d="M155.53,26.87c-.95,8.99-1.85,18.11-2.67,27.36-1.15,12.87-2.12,25.52-2.94,37.95"/>
          <path d="M150.91,92.25l-2-.13c.83-12.6,1.82-25.37,2.94-37.97.81-9.08,1.71-18.3,2.67-27.38l2,.21c-.96,9.08-1.86,18.28-2.67,27.35-1.12,12.58-2.11,25.35-2.94,37.93Z"/>
        </g>
        <g>
          <path class="cls-2" d="M163.06,45.32c-1.49,5.62-2.83,12.33-3.51,19.96-.91,10.32-.34,19.33.64,26.48"/>
          <path d="M159.19,91.9c-1.21-8.85-1.43-17.83-.64-26.7.6-6.78,1.79-13.55,3.54-20.13l1.94.52c-1.72,6.47-2.89,13.13-3.48,19.79-.77,8.72-.56,17.55.63,26.25l-1.99.27Z"/>
        </g>
        <g>
          <path class="cls-2" d="M145.1,99.09c-.26,6.91-.28,14.21,0,21.84.69,18.43,3.05,35.04,6.09,49.49"/>
          <path d="M150.21,170.62c-3.44-16.35-5.49-33.06-6.11-49.66-.27-7.26-.27-14.63,0-21.91l2.01.07c-.27,7.23-.27,14.55,0,21.76.61,16.48,2.66,33.08,6.07,49.32l-1.96.41Z"/>
        </g>
        <g>
          <path class="cls-2" d="M155.97,119.06c-.23,7.3.08,15.94,1.59,25.52.92,5.86,2.16,11.19,3.51,15.95"/>
          <path d="M160.11,160.8c-1.49-5.26-2.68-10.67-3.54-16.07-1.33-8.46-1.88-17.11-1.61-25.71l2.01.06c-.26,8.47.27,16.99,1.58,25.33.84,5.32,2.01,10.65,3.48,15.83l-1.93.55Z"/>
        </g>
        <g>
          <path class="cls-2" d="M179.43,160.58s-.6,1.44-1.08,2.95c-.71,2.23-1.1,3.48-.61,4.62.67,1.57,2.79,2.3,4.38,2.45,2.76.25,3.82-1.77,6.01-1.02,1.17.4,1.25,1.11,2.75,1.53,1.46.41,2.72.11,3.16,0,1.63-.4,2.69-1.31,3.22-1.78,1.69-1.49,1.53-2.5,2.69-2.91,1.4-.5,2.31.82,3.46.51,2.95-.79,3.44-7.79,3.46-8.25.35-5.8-1.65-16.97-10.79-20.26-6.3-2.26-11.98.65-12.64,1-.92.8-2.29,1.99-3.98,3.42-3.89,3.31-3.65,3-4.04,3.41-3.56,3.69-3.8,8.76-3.97,12.35-.17,3.52.48,4.66,1.14,5.32.87.87,2.36,1.39,3.62.99,2.32-.73,3.15-4.37,3.22-4.34Z"/>
          <path d="M192.43,172.31c-.54,0-1.16-.06-1.82-.24-1.02-.28-1.54-.7-1.96-1.03-.28-.23-.49-.39-.85-.51-.74-.25-1.25-.06-2.18.34-.9.39-2.02.87-3.6.73-1.87-.17-4.36-1.07-5.21-3.05-.37-.86-.37-1.7-.16-2.73-.05.02-.1.04-.16.05-1.52.47-3.42-.04-4.63-1.24-.81-.81-1.61-2.17-1.43-6.08.17-3.6.43-9.03,4.25-13,.2-.21.26-.26.64-.57.42-.34,1.3-1.06,3.47-2.9,1.69-1.43,3.06-2.62,3.98-3.42l.19-.13c1.1-.59,6.94-3.4,13.46-1.06,9.86,3.55,11.8,15.46,11.45,21.26-.08,1.37-.68,8.22-4.21,9.16-.87.23-1.59-.07-2.16-.32-.55-.23-.85-.35-1.22-.22-.27.09-.36.21-.69.73-.32.5-.77,1.19-1.67,1.99-.52.46-1.74,1.54-3.64,2-.3.07-.97.24-1.85.24ZM187.17,168.4c.4,0,.83.06,1.29.22.7.24,1.12.58,1.46.85.34.28.62.49,1.24.67,1.22.34,2.3.08,2.65,0,1.42-.35,2.35-1.16,2.79-1.55.7-.62,1.03-1.12,1.31-1.57.38-.59.77-1.2,1.71-1.53,1.12-.4,2.02-.02,2.68.26.41.17.67.28.87.23,1.68-.45,2.56-4.74,2.72-7.35.32-5.28-1.38-16.11-10.13-19.25-5.6-2.02-10.79.41-11.74.89-.92.8-2.26,1.96-3.9,3.35-2.19,1.86-3.08,2.58-3.5,2.93-.28.23-.32.26-.46.41-3.3,3.42-3.53,8.21-3.7,11.7-.17,3.55.54,4.26.84,4.57.58.58,1.68,1.03,2.61.74.96-.3,1.79-1.46,2.47-3.44.11-.33.23-.68.66-.86l.41-.18.41.19h0c.88.41.55,1.24.29,1.9-.02.04-.04.09-.06.14-.05.13-.1.27-.17.42-.19.49-.41,1.09-.61,1.7-.68,2.17-.97,3.16-.64,3.92.47,1.09,2.17,1.72,3.55,1.84,1.08.1,1.83-.23,2.63-.57.69-.3,1.44-.62,2.33-.62Z"/>
        </g>
        <g>
          <path class="cls-2" d="M190.88,161.03c.09.75.33,3.42-1.4,5.9-.94,1.35-2.09,2.1-2.8,2.49"/>
          <path d="M187.15,170.3l-.96-1.76c1-.55,1.83-1.28,2.46-2.19,1.43-2.05,1.34-4.32,1.23-5.2l1.99-.25c.17,1.38.19,4.07-1.58,6.6-.8,1.15-1.89,2.11-3.14,2.8Z"/>
        </g>
        <g>
          <path class="cls-2" d="M199.89,160.73c.21.32.97,1.55.77,3.25-.2,1.7-1.23,2.72-1.51,2.98"/>
          <path d="M199.84,167.7l-1.37-1.46c.31-.29,1.05-1.1,1.2-2.37.15-1.27-.38-2.23-.61-2.58l1.67-1.11c.36.54,1.16,2,.93,3.92-.22,1.85-1.23,3.05-1.82,3.6Z"/>
        </g>
        <g>
          <path class="cls-2" d="M195.88,145.24c.49-.17,3.38-1.24,4.38-4.09.49-1.39.52-3.19-.2-4.48-2.74-4.92-17.37-4.48-20.33,1.41-.06.11-1.17,2.42-.14,4.63,1.16,2.49,4.58,3.9,8.65,3.44"/>
          <path d="M186.7,147.23c-3.77,0-6.83-1.53-8.03-4.11-1.25-2.67.1-5.39.15-5.51,1.9-3.79,7.54-5.24,11.78-5.33,3.91-.08,8.65.89,10.32,3.89.97,1.73.78,3.87.27,5.3-1.09,3.12-4.1,4.39-4.99,4.71l-.67-1.89c.68-.24,2.97-1.2,3.77-3.48.44-1.26.39-2.73-.13-3.66-1-1.8-4.39-2.92-8.52-2.86-3.98.09-8.63,1.42-10.04,4.22,0,.02-.96,1.97-.13,3.76.98,2.12,4.05,3.27,7.63,2.86l.22,1.99c-.56.06-1.11.09-1.65.09Z"/>
        </g>
        <g>
          <path class="cls-3" d="M152.83,109.37c4.16,1.38,10.55,4.09,16.86,9.55,9.24,7.99,13.1,17.38,14.62,21.94.63.37,2.98,1.64,6.07,1.11,3.46-.6,5.33-3.02,5.72-3.55-.53-3.8-2.94-17.69-15.23-28.64-10.55-9.39-22.25-11.15-26.41-11.58-.52.48-2.46,2.35-2.84,5.48-.36,2.89.83,5.05,1.22,5.69Z"/>
          <path d="M188.87,143.09c-2.31,0-4.1-.82-5.06-1.38l-.33-.19-.12-.36c-1.96-5.85-6.04-14.33-14.33-21.5-4.83-4.17-10.38-7.32-16.52-9.35l-.35-.12-.19-.32c-.66-1.1-1.72-3.38-1.36-6.33.41-3.28,2.35-5.36,3.16-6.1l.33-.3.45.05c5.78.59,16.97,2.92,26.97,11.83,11.83,10.53,14.82,23.96,15.56,29.25l.06.4-.24.33c-.72.98-2.79,3.33-6.35,3.94-.58.1-1.14.14-1.68.14ZM185.13,140.16c.93.48,2.79,1.2,5.07.81,2.51-.43,4.1-1.95,4.83-2.84-.8-5.33-3.82-17.79-14.85-27.61-9.32-8.3-19.72-10.63-25.38-11.28-.74.76-1.93,2.31-2.21,4.56-.26,2.1.39,3.78.9,4.73,6.24,2.12,11.9,5.35,16.83,9.62,8.46,7.32,12.7,15.93,14.79,22Z"/>
        </g>
        <path d="M179.54,163.12l-1.81-.86c.36-.75.58-1.55.66-2.36.16-1.62-.27-2.96-.65-3.8l1.82-.84c.49,1.07,1.03,2.77.83,4.83-.1,1.04-.39,2.06-.84,3.02Z"/>
        <g>
          <path class="cls-2" d="M113.53,46.11c.37-2.47,3.68-25-.83-29.16-1.64-1.52-3.24-1.53-3.24-1.53-2.34-.01-4.07,2.29-4.83,3.31-4.62,6.16-3.36,26.21-3.2,28.58"/>
          <path d="M100.43,47.38c-.26-3.79-1.3-22.99,3.39-29.25.84-1.11,2.79-3.71,5.61-3.71h.03c.2,0,2.04.06,3.92,1.79,4.63,4.27,2.04,24.08,1.14,30.05l-1.98-.3c1.84-12.14,2.39-25.59-.52-28.27-1.31-1.21-2.53-1.26-2.58-1.26h-.01c-1.81,0-3.34,2.03-3.99,2.9-3.32,4.42-3.69,17.8-3,27.91l-2,.14Z"/>
        </g>
        <g>
          <path class="cls-2" d="M90.3,45.95c.37-2.47,3.68-25-.83-29.16-1.64-1.52-3.24-1.53-3.24-1.53-2.34-.01-4.07,2.29-4.83,3.31-4.62,6.16-3.36,26.21-3.2,28.58"/>
          <path d="M77.2,47.21c-.26-3.79-1.3-22.99,3.39-29.25.83-1.11,2.78-3.71,5.61-3.71h.03c.2,0,2.04.06,3.92,1.79,4.63,4.27,2.04,24.08,1.14,30.05l-1.98-.3c1.84-12.14,2.39-25.59-.52-28.27-1.31-1.21-2.53-1.26-2.58-1.26h-.01c-1.81,0-3.34,2.04-3.99,2.91-3.31,4.42-3.69,17.79-3,27.91l-2,.14Z"/>
        </g>
        <g>
          <path class="cls-6" d="M99.59,48.82c1.56-1.16,4.94-3.3,9.64-3.17,2.83.08,5.17.94,6.72,1.7"/>
          <path d="M100.2,49.62l-1.2-1.61c2.14-1.61,5.64-3.51,10.27-3.37,2.4.06,4.8.67,7.13,1.79l-.88,1.81c-2.07-1-4.19-1.54-6.31-1.6-4.03-.12-7.13,1.56-9.01,2.97Z"/>
        </g>
        <g>
          <path class="cls-6" d="M76.37,48.65c1.56-1.16,4.94-3.3,9.64-3.17,2.83.08,5.17.94,6.72,1.7"/>
          <path d="M76.97,49.46l-1.2-1.61c2.14-1.61,5.63-3.5,10.27-3.37,2.4.06,4.8.67,7.13,1.79l-.88,1.81c-2.07-1-4.19-1.54-6.31-1.6-4.03-.12-7.12,1.56-9.01,2.97Z"/>
        </g>
        <g>
          <path class="cls-6" d="M95.61,42.18c-.18-.17-1.86-1.66-4.21-1.23-.17.03-2.33.47-3.37,2.44-1.15,2.21-.33,5.25,1.84,6.63,2.32,1.48,4.96.3,5.16.21"/>
          <path d="M92.5,51.77c-.98,0-2.09-.22-3.16-.9-2.58-1.65-3.58-5.28-2.19-7.94,1.25-2.39,3.79-2.91,4.08-2.96,2.75-.51,4.7,1.14,5.07,1.48l-1.36,1.47c-.15-.14-1.49-1.32-3.34-.98-.02,0-1.84.35-2.66,1.92-.91,1.75-.21,4.23,1.5,5.32,1.87,1.2,4.1.19,4.19.14l.85,1.82c-.21.1-1.42.63-2.96.63Z"/>
        </g>
        <path d="M87.33,46.43l-.44-3.73c-.07-.59-.52-1.06-1.1-1.15-1.25-.21-2.5-.41-3.74-.62-.46-.08-.57-.69-.16-.92,4.02-2.32,5.3-6.99,3.7-9.78-1.29-2.25-4.54-3.47-7.92-2.81l1.43,18.94c1.13-.24,2.59-.44,4.29-.41,1.55.03,2.88.24,3.94.48Z"/>
        <path d="M110.56,46.59l-.44-3.73c-.07-.59-.52-1.06-1.1-1.15-1.25-.21-2.5-.41-3.74-.62-.46-.08-.57-.69-.16-.92,4.02-2.32,5.3-6.99,3.7-9.78-1.29-2.25-4.54-3.47-7.92-2.81l1.43,18.94c1.13-.24,2.59-.44,4.29-.41,1.55.03,2.88.24,3.94.48Z"/>
        <g>
          <path class="cls-2" d="M116.74,51.06c-8.14-1.52-16.09,2.13-19.42,8.49-4.25,8.1-.54,19.69,9.45,24.45"/>
          <path d="M106.34,84.91c-5.09-2.42-9.01-6.82-10.76-12.06-1.57-4.71-1.26-9.73.85-13.76,3.61-6.89,12.04-10.59,20.5-9.01l-.37,1.97c-7.6-1.42-15.15,1.86-18.35,7.97-1.86,3.55-2.13,8-.73,12.2,1.6,4.8,5.05,8.66,9.72,10.88l-.86,1.81Z"/>
        </g>
        <g>
          <path class="cls-2" d="M94.86,59.8c-.75.24-2.51.68-4.6.1-3.11-.86-4.6-3.35-4.91-3.89"/>
          <path d="M92.36,61.19c-.73,0-1.53-.09-2.37-.32-3.25-.9-4.94-3.35-5.51-4.36l1.74-.99c.45.79,1.78,2.72,4.31,3.42,1.65.46,3.1.2,4.03-.09l.61,1.91c-.72.23-1.68.44-2.8.44Z"/>
        </g>
        <g>
          <path class="cls-2" d="M72.6,54.09c-.41.2-8.55,4.21-9.45,13.27-.62,6.2,2.41,12.28,7.78,15.63"/>
          <path d="M70.39,83.84c-5.66-3.54-8.89-10.04-8.24-16.58.96-9.68,9.65-13.9,10.02-14.07l.86,1.81c-.33.15-8.03,3.89-8.88,12.46-.58,5.79,2.29,11.55,7.31,14.68l-1.06,1.7Z"/>
        </g>
        <g>
          <path class="cls-2" d="M91.23,80.47c-.32-.84-1.31-3.06-3.74-4.71-2.6-1.77-5.24-1.77-6.11-1.74"/>
          <path d="M90.3,80.83c-.39-.99-1.34-2.86-3.37-4.24-2.16-1.47-4.37-1.61-5.5-1.57l-.08-2c1.37-.06,4.08.12,6.71,1.91,2.48,1.69,3.64,3.96,4.11,5.17l-1.87.73Z"/>
        </g>
        <g>
          <path class="cls-2" d="M86.06,68.19c-2.34,4.98-7.11,7.65-10.95,6.75-5.22-1.23-6.64-8.59-6.04-13.09.72-5.4,5.06-12,9.92-11.36,3.96.53,7.8,5.81,7.37,12.69"/>
          <path d="M76.64,76.12c-.59,0-1.18-.07-1.75-.2-5.82-1.37-7.48-9.13-6.8-14.2.75-5.62,5.3-12.99,11.05-12.22,4.36.58,8.71,6.24,8.23,13.74l-2-.13c.4-6.29-3.11-11.18-6.5-11.63-4.03-.52-8.1,5.3-8.8,10.49-.56,4.2.72,10.92,5.27,11.99,3.54.84,7.76-1.83,9.81-6.2l1.82.85c-2.13,4.54-6.35,7.5-10.33,7.5Z"/>
        </g>
        <g>
          <path d="M75.57,56.02c.34.08,4.05,1.02,5.18,4.3,1.04,3.01-.46,6.93-2.46,7.26-1.29.21-2.77-1.07-3.27-2.46-.73-2,.45-4.64,3.07-5.83"/>
          <path d="M78.01,68.6c-1.69,0-3.35-1.54-3.94-3.14-.95-2.63.63-5.74,3.6-7.09l.83,1.83c-2.23,1.01-3.05,3.16-2.54,4.57.37,1.01,1.47,1.91,2.17,1.81.37-.06.8-.45,1.15-1.04.67-1.13,1.12-3.15.52-4.91-.96-2.79-4.32-3.61-4.46-3.65l.46-1.95c.47.11,4.6,1.18,5.89,4.95.71,2.06.43,4.71-.69,6.59-.67,1.12-1.57,1.83-2.55,1.99-.15.02-.29.04-.44.04Z"/>
        </g>
        <g>
          <path class="cls-5" d="M109.43,7.77c2.08,1.47,4.67,3.63,7.18,6.66,3.12,3.76,4.94,7.45,6,10.12.48-.03,1.9-.17,3.23-1.26,1.33-1.09,1.75-2.47,1.87-2.93-.7-2.8-2.26-7.5-5.97-12.18-2.75-3.47-5.71-5.71-7.86-7.08-.55.16-2.05.68-3.21,2.18-1.47,1.91-1.3,4.02-1.25,4.5Z"/>
          <path d="M121.95,25.59l-.27-.67c-1.42-3.58-3.39-6.89-5.84-9.85-2.03-2.45-4.38-4.63-6.99-6.48l-.37-.26-.05-.45c-.09-.88-.13-3.15,1.45-5.21,1.25-1.62,2.87-2.29,3.72-2.54l.44-.13.38.25c3.11,1.98,5.83,4.44,8.11,7.3,2.89,3.65,5.02,8,6.16,12.56l.06.25-.06.25c-.2.78-.75,2.27-2.21,3.46-1.45,1.19-3.01,1.44-3.81,1.49l-.72.04ZM110.4,7.23c2.59,1.89,4.94,4.09,6.98,6.56,2.42,2.91,4.39,6.16,5.86,9.66.57-.12,1.28-.38,1.96-.94.88-.72,1.29-1.6,1.47-2.17-1.08-4.2-3.05-8.18-5.72-11.54-2.04-2.57-4.46-4.79-7.21-6.6-.65.25-1.55.75-2.27,1.69-.94,1.23-1.09,2.56-1.07,3.35Z"/>
        </g>
        <g>
          <path class="cls-5" d="M87.53,8.56c.52.02,1.95.15,3.31,1.2,1.57,1.22,1.99,2.86,2.1,3.32-.97,1.56-2.83,4.07-5.97,6.16-4.29,2.85-8.54,3.29-10.47,3.37-.27-.23-1.8-1.53-1.95-3.76-.12-1.78.72-3.06.98-3.43,1.61-.31,4-.96,6.58-2.43,2.58-1.48,4.35-3.21,5.43-4.44Z"/>
          <path d="M76.15,23.64l-.29-.24c-.5-.41-2.14-1.95-2.31-4.46-.13-1.94.67-3.39,1.16-4.08l.23-.33.4-.08c2.21-.42,4.32-1.2,6.27-2.32,1.95-1.12,3.69-2.54,5.17-4.23l.32-.36.48.02c.81.03,2.4.26,3.88,1.41,1.67,1.3,2.26,3,2.46,3.9l.09.4-.22.35c-1.6,2.57-3.77,4.81-6.27,6.47-4.09,2.72-8.23,3.42-10.98,3.54l-.38.02ZM76.13,16.33c-.31.54-.66,1.39-.59,2.46.09,1.38.85,2.34,1.31,2.8,2.49-.15,6.04-.85,9.55-3.18,2.14-1.42,4.02-3.32,5.44-5.5-.2-.62-.65-1.6-1.63-2.36-.81-.63-1.67-.87-2.28-.95-1.55,1.69-3.35,3.13-5.34,4.27-2.02,1.15-4.19,1.98-6.46,2.46Z"/>
        </g>
        <g>
          <polygon class="cls-6" points="145.88 14.17 144.84 46.34 170.42 49.62 173.86 23.33 145.88 14.17"/>
          <path d="M170.42,50.63s-.08,0-.13,0l-25.58-3.29c-.51-.07-.89-.51-.88-1.03l1.03-32.17c.01-.32.17-.61.43-.79.26-.18.59-.23.89-.13l27.98,9.16c.46.15.75.6.68,1.08l-3.44,26.3c-.07.5-.5.87-.99.87ZM145.88,45.46l23.68,3.04,3.2-24.48-25.92-8.48-.96,29.92Z"/>
        </g>
      </g>
    </g>
  </g>
</svg>