<?xml version="1.0" encoding="UTF-8"?>
<svg id="Capa_2" xmlns="http://www.w3.org/2000/svg" viewBox="0 0 167.05 194.47">
  <defs>
    <style>
      .cls-1 {
        fill: #ed9aff;
      }

      .cls-2 {
        fill: #1d1d1b;
      }

      .cls-3 {
        fill: #fffaf0;
      }

      .cls-4 {
        fill: #d3c0b1;
      }

      .cls-5 {
        fill: #716c6c;
      }

      .cls-6 {
        fill: #ffdc50;
      }
    </style>
  </defs>
  <g id="Capa_1-2" data-name="Capa_1">
    <g>
      <g>
        <path class="cls-4" d="M2.19,50.89c8.84,20.07,18.54,48.57,21.8,83.7,1.72,18.48,1.31,35.12,0,49.28,9.69-2.35,19.39-4.69,29.08-7.04L18.18,60.51l-15.99-9.62Z"/>
        <path d="M22.87,185.18l.13-1.4c1.51-16.33,1.51-32.85,0-49.1-2.66-28.64-9.97-56.7-21.72-83.39l-1.28-2.9,19.03,11.45,35.31,117.71-31.47,7.62ZM4.36,53.37c11.11,26.02,18.05,53.3,20.64,81.13,1.48,15.91,1.52,32.07.12,48.07l26.69-6.46L17.33,61.17l-12.97-7.81Z"/>
      </g>
      <g>
        <path class="cls-4" d="M2.19,50.89c9.73,17.45,21.47,43.07,28.23,75.74,5.39,26.06,6.03,48.93,5.2,66.43,11.63-3.78,23.26-7.55,34.9-11.33-16.33-43.37-32.65-86.73-48.98-130.1l-19.35-.74Z"/>
        <path d="M34.56,194.47l.07-1.45c1.05-22.21-.69-44.47-5.18-66.18-5.46-26.41-14.93-51.8-28.12-75.46l-.87-1.56,21.8.84,49.58,131.71-37.28,12.1ZM3.93,51.96c12.85,23.39,22.09,48.44,27.47,74.47,4.43,21.4,6.21,43.33,5.29,65.23l32.52-10.56L20.84,52.61l-16.91-.65Z"/>
      </g>
      <g>
        <path class="cls-3" d="M2.19,50.89c10.57,11.91,26.15,32.46,36.69,61.8,11.92,33.16,11.88,62.15,10.62,78.7,35.25-11.27,70.49-22.53,105.74-33.8,1.36-16.36,1.52-43.26-8.21-74.35-10.81-34.55-28.82-58.24-40.07-70.97C72.04,25.14,37.12,38.02,2.19,50.89Z"/>
        <path d="M48.4,192.8l.11-1.49c2.01-26.4-1.65-53.47-10.57-78.28C29.79,90.34,17.51,69.66,1.44,51.56l-.98-1.1L107.26,11.09l.46.51c18.18,20.57,32.11,45.23,40.28,71.34,7.58,24.22,10.35,49.37,8.25,74.74l-.06.67-107.79,34.46ZM3.91,51.33c15.76,18.03,27.84,38.55,35.92,61.03,8.85,24.61,12.57,51.42,10.79,77.63l103.68-33.14c1.98-24.88-.79-49.54-8.22-73.3-8.02-25.62-21.64-49.84-39.42-70.09L3.91,51.33Z"/>
      </g>
      <g>
        <circle class="cls-5" cx="72.93" cy="39.67" r="6.13"/>
        <path d="M72.92,46.8c-3.93,0-7.13-3.2-7.13-7.13s3.2-7.13,7.13-7.13,7.13,3.2,7.13,7.13-3.2,7.13-7.13,7.13ZM72.92,34.55c-2.83,0-5.12,2.3-5.12,5.13s2.3,5.12,5.12,5.12,5.13-2.3,5.13-5.12-2.3-5.13-5.13-5.13Z"/>
      </g>
      <g>
        <circle class="cls-5" cx="98.81" cy="28.29" r="6.13"/>
        <path d="M98.81,35.42c-3.93,0-7.13-3.2-7.13-7.13s3.2-7.13,7.13-7.13,7.13,3.2,7.13,7.13-3.2,7.13-7.13,7.13ZM98.81,23.16c-2.83,0-5.12,2.3-5.12,5.13s2.3,5.13,5.12,5.13,5.13-2.3,5.13-5.13-2.3-5.13-5.13-5.13Z"/>
      </g>
      <g>
        <circle class="cls-5" cx="42.14" cy="50.84" r="6.13"/>
        <path d="M42.14,57.97c-3.93,0-7.13-3.2-7.13-7.13s3.2-7.13,7.13-7.13,7.13,3.2,7.13,7.13-3.2,7.13-7.13,7.13ZM42.14,45.71c-2.83,0-5.13,2.3-5.13,5.13s2.3,5.13,5.13,5.13,5.13-2.3,5.13-5.13-2.3-5.13-5.13-5.13Z"/>
      </g>
      <path d="M73.88,41.24l-1.9-.63c.15-.44,3.48-10.85-3.63-19.15-4.94-5.77-12.67-8.28-19.23-6.25-9.19,2.85-14.56,13.47-12.21,24.19l-1.96.43c-2.57-11.73,3.39-23.38,13.57-26.53,7.31-2.26,15.89.49,21.35,6.86,7.84,9.15,4.17,20.6,4.01,21.08Z"/>
      <path d="M99.54,30.1l-1.9-.63c.15-.44,3.48-10.85-3.63-19.15-4.94-5.77-12.67-8.28-19.23-6.25-9.19,2.85-14.56,13.47-12.21,24.19l-1.96.43c-2.57-11.73,3.39-23.38,13.57-26.53,7.31-2.26,15.89.49,21.35,6.86,7.84,9.15,4.17,20.6,4.01,21.08Z"/>
      <path d="M42.54,52.6l-1.9-.63c.15-.44,3.48-10.85-3.63-19.15-4.94-5.77-12.67-8.28-19.23-6.25-9.19,2.85-14.56,13.47-12.21,24.19l-1.96.43c-2.57-11.73,3.39-23.38,13.57-26.53,7.31-2.26,15.89.49,21.35,6.86,7.84,9.15,4.17,20.6,4.01,21.08Z"/>
      <g>
        <path class="cls-6" d="M161.16,154.58c-2.5.8-6.39,1.71-11.19,1.56-5.09-.16-9.11-1.46-11.6-2.48,1.54-38.03,3.08-76.06,4.61-114.09.1-2.48,2.19-4.4,4.67-4.3l13.82.56c2.48.1,4.4,2.19,4.3,4.67l-4.61,114.09Z"/>
        <path class="cls-2" d="M151.04,157.16c-.37,0-.73,0-1.1-.02-4.12-.13-8.14-.99-11.95-2.56l-.65-.27,4.64-114.79c.06-1.47.68-2.82,1.76-3.82,1.08-.99,2.48-1.51,3.94-1.45l13.82.56c1.47.06,2.82.69,3.82,1.76.99,1.08,1.51,2.48,1.45,3.95l-4.64,114.79-.67.21c-3.38,1.08-6.89,1.62-10.43,1.62ZM139.4,152.99c3.4,1.31,6.96,2.03,10.61,2.15,3.46.11,6.87-.33,10.18-1.31l4.58-113.38c.04-.93-.29-1.82-.92-2.5-.63-.68-1.49-1.08-2.42-1.12l-13.82-.56c-.92-.04-1.82.29-2.5.92s-1.08,1.49-1.12,2.42l-4.58,113.38Z"/>
      </g>
      <g>
        <path class="cls-4" d="M160.82,163.08c-2.36.85-6.33,1.94-11.31,1.77-5.17-.18-9.17-1.64-11.49-2.69.11-2.84.23-5.67.34-8.51,2.49,1.02,6.51,2.32,11.6,2.48,4.8.15,8.69-.76,11.19-1.56-.11,2.84-.23,5.67-.34,8.51Z"/>
        <path d="M150.57,165.88c-.36,0-.73,0-1.09-.02-4.12-.14-8.11-1.08-11.87-2.78l-.61-.28.43-10.61,1.33.54c3.59,1.48,7.38,2.29,11.26,2.41,3.69.12,7.34-.39,10.85-1.51l1.36-.44-.43,10.61-.64.23c-3.42,1.23-6.97,1.85-10.59,1.85ZM139.05,161.52c3.33,1.42,6.86,2.21,10.49,2.33,3.51.12,6.97-.38,10.3-1.49l.26-6.42c-3.31.91-6.72,1.31-10.16,1.2-3.64-.12-7.21-.8-10.63-2.04l-.26,6.42Z"/>
      </g>
      <g>
        <path class="cls-1" d="M160.07,181.59c-1.61.95-5.77,3.11-11.46,2.9-5.77-.21-9.8-2.75-11.33-3.82.25-6.17.5-12.34.75-18.51,2.32,1.05,6.32,2.51,11.49,2.69,4.98.17,8.94-.92,11.31-1.77-.25,6.17-.5,12.34-.75,18.51Z"/>
        <path class="cls-2" d="M149.4,185.51c-.27,0-.55,0-.83-.02-5.68-.21-9.87-2.6-11.87-4l-.45-.31.83-20.54,1.36.62c3.51,1.59,7.25,2.47,11.1,2.6,3.74.13,7.41-.45,10.93-1.71l1.4-.5-.83,20.54-.47.28c-2.4,1.42-6.25,3.06-11.18,3.06ZM138.3,180.16c1.95,1.29,5.57,3.16,10.34,3.34,4.71.18,8.42-1.38,10.45-2.5l.67-16.5c-3.33,1.03-6.79,1.48-10.28,1.36-3.63-.12-7.15-.87-10.51-2.2l-.67,16.5Z"/>
      </g>
      <g>
        <path class="cls-3" d="M143.75,36.3l12.12-33.02,9.41,33.89c-.07-.06-1.78-1.33-3.74-.54-1.36.55-2.28,1.87-2.35,3.37-.17-.25-1.55-2.15-4.08-2.33-2.72-.19-4.41,1.78-4.57,1.98,0-.13-.12-2.47-2.17-3.62-1.44-.81-3.24-.71-4.62.27Z"/>
        <path d="M160.06,43l-1.69-2.43c-.21-.29-1.33-1.76-3.33-1.9-2.21-.15-3.58,1.43-3.73,1.62l-1.7,2.05-.08-2.66c0-.07-.09-1.9-1.66-2.78-1.1-.62-2.49-.54-3.55.21l-2.63,1.86L156,0l11.05,39.8-2.38-1.83s-1.33-.98-2.75-.4c-1,.4-1.68,1.38-1.72,2.49l-.13,2.96ZM154.74,36.66c.14,0,.29,0,.43.01,1.52.11,2.68.73,3.5,1.37.51-1.05,1.39-1.9,2.49-2.34.95-.38,1.84-.39,2.6-.24l-8.03-28.91-10.28,28c1.16-.18,2.36.02,3.41.61,1.24.7,1.91,1.75,2.26,2.65.86-.58,2.08-1.15,3.62-1.15Z"/>
      </g>
      <g>
        <line class="cls-6" x1="150.27" y1="48.36" x2="146.54" y2="140.7"/>
        <rect class="cls-2" x="102.2" y="93.53" width="92.41" height="2.01" transform="translate(47.96 238.99) rotate(-87.68)"/>
      </g>
      <g>
        <line class="cls-6" x1="157.85" y1="48.67" x2="154.12" y2="141.01"/>
        <rect class="cls-2" x="109.78" y="93.83" width="92.41" height="2.01" transform="translate(54.93 246.86) rotate(-87.68)"/>
      </g>
      <g>
        <path d="M150.54,17.77l5.32-14.5,4.13,14.88c-1.01-.41-2.55-.88-4.46-.99-2.15-.12-3.89.27-4.99.61Z"/>
        <path d="M161.5,19.84l-1.88-.75c-1.33-.53-2.72-.84-4.14-.92-1.57-.09-3.13.1-4.64.56l-1.93.59,7.09-19.32,5.51,19.84ZM154.72,16.14c.29,0,.58,0,.87.02.99.06,1.98.21,2.93.46l-2.8-10.07-3.6,9.81c.86-.15,1.72-.22,2.59-.22Z"/>
      </g>
    </g>
  </g>
</svg>