<?xml version="1.0" encoding="UTF-8"?>
<svg id="Capa_2" xmlns="http://www.w3.org/2000/svg" viewBox="0 0 132.33 133.37">
  <defs>
    <style>
      .cls-1 {
        fill: #8adfff;
      }

      .cls-2 {
        fill: #ed9aff;
      }

      .cls-3 {
        fill: #1d1d1b;
      }

      .cls-4 {
        fill: #00b155;
      }

      .cls-5 {
        fill: #0077fb;
      }

      .cls-6 {
        fill: #ff3c18;
      }

      .cls-7 {
        fill: #ffdc50;
      }
    </style>
  </defs>
  <g id="Capa_1-2" data-name="Capa_1">
    <g>
      <g>
        <polygon class="cls-6" points="131.25 32.21 131.25 57.23 107.7 64.99 107.7 40.01 107.64 39.98 131.25 32.21"/>
        <path class="cls-3" d="M107.7,65.99c-.21,0-.42-.07-.59-.19-.26-.19-.42-.49-.42-.81v-24.77c-.03-.1-.03-.21-.02-.31.04-.4.28-.75.66-.88l23.61-7.77c.31-.1.64-.05.9.14.26.19.42.49.42.81v25.03c0,.43-.28.82-.69.95l-23.55,7.75c-.1.03-.21.05-.31.05ZM108.7,40.69v22.91l21.55-7.09v-22.91l-21.55,7.1Z"/>
      </g>
      <g>
        <polygon class="cls-2" points="131.33 57.35 131.33 82.63 107.78 90.39 107.78 65.1 131.33 57.35"/>
        <path class="cls-3" d="M106.77,91.77v-27.4l25.56-8.41v27.4l-25.56,8.41ZM108.78,65.83v23.17l21.55-7.09v-23.17l-21.55,7.09Z"/>
      </g>
      <g>
        <polygon class="cls-5" points="107.7 90.27 107.7 115.43 81.45 124.07 81.45 98.91 107.7 90.27"/>
        <path class="cls-3" d="M80.45,125.45v-27.27l28.25-9.3v27.27l-28.25,9.3ZM82.46,99.64v23.04l24.24-7.98v-23.04l-24.24,7.98Z"/>
      </g>
      <g>
        <path class="cls-2" d="M81.45,98.91v25.16s-25.12,8.27-25.12,8.27c-.33.11-.68-.14-.68-.49v-24.44s25.8-8.49,25.8-8.49Z"/>
        <path class="cls-3" d="M56.17,133.37c-.32,0-.63-.1-.89-.29-.39-.28-.63-.75-.63-1.23v-25.17l27.8-9.15v27.27l-25.81,8.5c-.15.05-.31.08-.47.08ZM56.66,108.13v23.04l23.79-7.83v-23.04l-23.79,7.83Z"/>
      </g>
      <g>
        <polygon class="cls-4" points="107.7 40.01 107.7 64.99 81.45 73.63 55.66 82.12 55.66 57.09 107.64 39.98 107.7 40.01"/>
        <path class="cls-3" d="M54.65,83.51v-27.14l53.09-17.47.9.5.06.62v25.7l-54.05,17.79ZM56.66,57.82v22.91l50.04-16.47v-22.91l-50.04,16.47Z"/>
      </g>
      <g>
        <polygon class="cls-7" points="107.7 64.99 107.7 90.27 81.45 98.91 81.45 73.63 107.7 64.99"/>
        <path class="cls-3" d="M80.45,100.3v-27.4l28.25-9.3v27.4l-28.25,9.3ZM82.46,74.35v23.17l24.24-7.98v-23.17l-24.24,7.98Z"/>
      </g>
      <g>
        <polygon class="cls-4" points="131.25 82.52 131.25 107.68 107.7 115.43 107.7 90.27 131.25 82.52"/>
        <path class="cls-3" d="M106.7,116.82v-27.27l25.56-8.41v27.27l-25.56,8.41ZM108.7,91v23.04l21.55-7.09v-23.04l-21.55,7.09Z"/>
      </g>
      <g>
        <polygon class="cls-7" points="107.5 40.03 55.66 57.09 16.79 35.06 16.79 34.54 43.06 25.94 60.95 36.08 86.03 27.86 107.5 40.03"/>
        <path class="cls-3" d="M55.55,58.19L15.78,35.64v-1.83l27.38-8.97,17.89,10.14,25.09-8.22,23.82,13.51-54.42,17.91ZM18.68,34.98l37.09,21.03,49.27-16.22-19.11-10.83-25.09,8.22-17.89-10.14-24.27,7.95Z"/>
      </g>
      <g>
        <polygon class="cls-2" points="55.66 57.09 55.66 82.12 35.49 70.9 16.79 60.49 16.79 34.96 55.66 57.09"/>
        <path class="cls-3" d="M56.66,83.83L15.78,61.08v-27.84l40.88,23.27v27.31ZM17.79,59.9l36.86,20.51v-22.74l-36.86-20.99v23.21Z"/>
      </g>
      <g>
        <polygon class="cls-1" points="91.91 9.8 68.14 17.59 43.06 25.81 27.81 17.16 76.6 1.09 91.91 9.8"/>
        <path class="cls-3" d="M42.95,26.9l-17.6-9.98L76.71,0l17.66,10.05-51.42,16.85ZM30.27,17.4l12.89,7.31,46.28-15.16-12.95-7.37-46.22,15.22Z"/>
      </g>
      <g>
        <path class="cls-4" d="M43.06,25.81l-26.27,8.6v.52S1.64,26.34,1.64,26.34c-.25-.14-.21-.5.06-.59l26.1-8.59h0s15.25,8.65,15.25,8.65Z"/>
        <path class="cls-3" d="M17.79,36.65L1.15,27.21c-.46-.26-.72-.76-.67-1.29s.41-.97.91-1.13l26.25-8.64h.43l.24.13,17.22,9.77-27.73,9.08v1.52ZM3.47,26.22l12.85,7.28,24.27-7.95-12.89-7.31L3.47,26.22Z"/>
      </g>
      <g>
        <polygon class="cls-1" points="109.74 19.97 86.03 27.73 68.14 17.59 91.91 9.8 109.74 19.97"/>
        <path class="cls-3" d="M85.92,28.82l-20.25-11.48,26.34-8.63,20.19,11.5-26.28,8.61ZM70.61,17.84l15.53,8.8,21.14-6.92-15.48-8.82-21.18,6.94Z"/>
      </g>
      <g>
        <path class="cls-5" d="M130.92,32.19l-23.42,7.71-21.46-12.17,23.71-7.76h0s21.18,12.06,21.18,12.06c.07.04.06.14-.02.16Z"/>
        <path class="cls-3" d="M107.39,40.99l-23.83-13.51,26.18-8.52h.27l.24.13,21.75,12.38-.02.74c-.04.43-.34.8-.75.93l-23.84,7.85ZM88.5,27.98l19.1,10.83,21.04-6.93-19.01-10.82-21.13,6.92Z"/>
      </g>
      <g>
        <polygon class="cls-6" points="16.79 34.96 16.79 60.49 1 51.71 1 25.98 16.79 34.96"/>
        <path class="cls-3" d="M16.79,61.49c-.17,0-.34-.04-.49-.13L.51,52.58c-.32-.18-.51-.51-.51-.88v-25.73c0-.36.19-.69.5-.87.31-.18.69-.18,1,0l15.78,8.99c.31.18.51.51.51.87v25.52c0,.36-.19.68-.49.86-.16.09-.33.14-.51.14ZM2.01,51.12l13.78,7.67v-23.24l-13.78-7.84v23.41Z"/>
      </g>
      <g>
        <path class="cls-5" d="M55.66,107.4v24.37c0,.35-.38.57-.68.4l-19.48-11.04v-24.95s20.16,11.22,20.16,11.22Z"/>
        <path class="cls-3" d="M55.2,133.24c-.25,0-.5-.06-.72-.19l-19.99-11.33v-27.24l22.17,12.34v24.96c0,.52-.28,1-.73,1.26-.23.13-.48.2-.73.2ZM36.5,120.54l18.16,10.29v-22.84l-18.16-10.11v22.66Z"/>
      </g>
      <g>
        <polygon class="cls-4" points="35.49 96.18 35.49 121.13 1 101.57 1 76.99 16.79 85.77 35.49 96.18"/>
        <path class="cls-3" d="M36.5,122.85L0,102.16v-26.88l36.5,20.31v27.26ZM2.01,100.99l32.49,18.42v-22.64L2.01,78.69v22.3Z"/>
      </g>
      <g>
        <polygon class="cls-7" points="16.79 60.49 16.79 85.77 1 76.99 1 51.71 16.79 60.49"/>
        <path class="cls-3" d="M17.79,87.48L0,77.58v-27.58l17.79,9.9v27.58ZM2.01,76.4l13.78,7.67v-22.98l-13.78-7.67v22.98Z"/>
      </g>
      <g>
        <polygon class="cls-7" points="55.66 82.12 55.66 107.4 35.49 96.18 35.49 70.9 55.66 82.12"/>
        <path class="cls-3" d="M56.66,109.11l-22.17-12.34v-27.58l22.17,12.33v27.58ZM36.5,95.59l18.16,10.11v-22.99l-18.16-10.1v22.98Z"/>
      </g>
      <g>
        <polygon class="cls-6" points="81.45 73.63 81.45 98.91 55.66 107.4 55.66 82.12 81.45 73.63"/>
        <path class="cls-3" d="M55.66,108.41c-.21,0-.42-.07-.59-.19-.26-.19-.42-.49-.42-.81v-25.29c0-.43.28-.82.69-.95l25.79-8.49c.31-.1.64-.05.9.14.26.19.42.49.42.81v25.29c0,.43-.28.82-.69.95l-25.79,8.49c-.1.03-.21.05-.31.05ZM56.66,82.85v23.17l23.79-7.83v-23.17l-23.79,7.83Z"/>
      </g>
      <rect class="cls-3" x="80.45" y="49.29" width="2.01" height="24.33"/>
      <polygon class="cls-3" points="106.7 115.5 106.7 115.43 108.7 115.43 106.7 115.5"/>
      <g>
        <polygon class="cls-1" points="35.49 70.9 35.49 96.18 16.79 85.77 16.79 60.49 35.49 70.9"/>
        <path class="cls-3" d="M36.5,97.89l-20.71-11.53v-27.58l20.71,11.53v27.58ZM17.79,85.18l16.7,9.29v-22.98l-16.7-9.3v22.98Z"/>
      </g>
      <rect class="cls-3" x="15.78" y="85.77" width="2.01" height="24.12"/>
      <polygon class="cls-3" points="15.78 34.96 15.78 34.93 17.79 34.93 15.78 34.96"/>
      <rect class="cls-3" x="34.49" y="121.13" width="2.01" height=".85"/>
      <rect class="cls-3" x="34.49" y="44.46" width="2.01" height="26.45"/>
      <rect class="cls-3" x="109.73" y="18.83" width=".84" height="2.01" transform="translate(-.65 35.65) rotate(-18.33)"/>
      <rect class="cls-3" x="34.28" y="39.2" width="27.35" height="2.01" transform="translate(-10.13 16.93) rotate(-18.14)"/>
      <rect class="cls-3" x="91.89" y="8.72" width=".5" height="2.01" transform="translate(1.51 29) rotate(-18.03)"/>
      <rect class="cls-3" x="70.96" y="29.53" width="2.01" height="25.33" transform="translate(-.23 83.99) rotate(-60.45)"/>
      <g>
        <polygon class="cls-6" points="86.03 27.73 60.95 35.95 43.06 25.81 68.14 17.59 86.03 27.73"/>
        <path class="cls-3" d="M60.95,36.95c-.17,0-.34-.04-.5-.13l-17.89-10.14c-.34-.2-.54-.58-.5-.97.04-.4.31-.73.69-.85l25.09-8.22c.27-.09.56-.06.81.08l17.89,10.14c.34.2.54.58.5.97-.04.4-.31.73-.69.85l-25.09,8.22c-.1.03-.21.05-.31.05ZM45.53,26.05l15.53,8.8,22.51-7.37-15.53-8.8-22.51,7.37Z"/>
      </g>
      <rect class="cls-3" x="59.59" y="4.63" width="2.01" height="17.36" transform="translate(19.13 59.46) rotate(-60.45)"/>
      <rect class="cls-3" x="106.57" y="39.86" width="2.01" height=".17" transform="translate(19.58 113.59) rotate(-60.3)"/>
    </g>
  </g>
</svg>