<?xml version="1.0" encoding="UTF-8"?>
<svg id="Capa_2" xmlns="http://www.w3.org/2000/svg" viewBox="0 0 270.83 241.19">
  <defs>
    <style>
      .cls-1 {
        fill: #fffaf0;
      }

      .cls-2 {
        fill: #d3c0b1;
      }

      .cls-3 {
        fill: #ff3c18;
      }

      .cls-4 {
        fill: #a19085;
      }

      .cls-5 {
        fill: #ffdc50;
      }
    </style>
  </defs>
  <g id="Capa_1-2" data-name="Capa_1">
    <g>
      <g>
        <ellipse cx="97.51" cy="232.81" rx="35.34" ry="7.38"/>
        <path d="M97.51,241.19c-14.61,0-36.35-2.23-36.35-8.38s21.74-8.38,36.35-8.38,36.35,2.23,36.35,8.38-21.74,8.38-36.35,8.38ZM97.51,226.44c-20.96,0-34.34,3.78-34.34,6.38s13.38,6.38,34.34,6.38,34.34-3.78,34.34-6.38-13.38-6.38-34.34-6.38Z"/>
      </g>
      <g>
        <ellipse cx="153.17" cy="232.81" rx="35.34" ry="7.38"/>
        <path d="M153.17,241.19c-14.61,0-36.35-2.23-36.35-8.38s21.74-8.38,36.35-8.38,36.35,2.23,36.35,8.38-21.74,8.38-36.35,8.38ZM153.17,226.44c-20.96,0-34.34,3.78-34.34,6.38s13.38,6.38,34.34,6.38,34.34-3.78,34.34-6.38-13.38-6.38-34.34-6.38Z"/>
      </g>
      <g>
        <path class="cls-4" d="M236.65,88.54c-2.33,2.56-6.77,6.6-13.41,8.38-10.78,2.88-22.85-1.42-31.49-10.8-.08,5.88-.17,11.76-.25,17.64,1.12.68,21.95,12.85,41.07,2.27,8.83-4.89,13.31-12.42,15.21-16.25-3.71-.41-7.42-.82-11.13-1.23Z"/>
        <path d="M215.44,111.32c-13.14,0-23.82-6.35-24.45-6.73l-.48-.29.3-20.67,1.67,1.82c8.52,9.24,20.21,13.27,30.51,10.52,6.08-1.62,10.39-5.3,12.94-8.09l.34-.37,13.03,1.44-.63,1.26c-2.52,5.06-7.27,12.05-15.62,16.67-5.93,3.28-12,4.44-17.61,4.44ZM192.49,103.19c3.31,1.87,22.16,11.62,39.6,1.97,7.23-4,11.62-9.91,14.15-14.57l-9.21-1.02c-3.85,4.09-8.52,6.95-13.54,8.29-10.35,2.77-21.95-.81-30.8-9.37l-.21,14.69Z"/>
      </g>
      <g>
        <path class="cls-1" d="M234.15,87.3c1.14,3.76,6.65,4.58,7.84,4.75.98.15,6.76,1.01,8.54-2.11.59-1.04.56-2.19.41-3.05,2.18-1.01,5.13-2.77,7.33-5.93,1.33-1.9,1.09-2.46,2.29-4.75,3.75-7.17,9.67-8.61,9.24-12.06-.1-.79-.56-1.98-2.54-3.29.14-.23,1.05-1.76.45-3.48-.57-1.64-2.29-2.77-4.25-2.71.14-.41,1.14-3.52-.44-5.14-1.16-1.19-3.1-.94-4.1-.82-6.51.81-15.21,8.59-17.7,10.88,1.55-6.68.59-12.41-2.41-14.2-2.4-1.43-4.49-.79-4.49-.79-.27.08-1.8.55-2.55,1.94-.57,1.06-.44,2.21,1.23,7.66,1.04,3.4,1.37,4.2,1.08,5.48-.38,1.68-1.4,2.28-2.4,3.59-3.14,4.13-2.05,10.04-1.67,12.06.81,4.4,2.97,7.42,4.18,8.89-.22.76-.41,1.88-.04,3.08Z"/>
        <path d="M244.78,93.28c-1.08,0-2.11-.11-2.95-.23-4.79-.71-7.78-2.6-8.65-5.46-.3-.98-.33-2.03-.09-3.13-2.07-2.63-3.48-5.72-4.07-8.95-.38-2.07-1.55-8.37,1.86-12.85.31-.41.62-.75.92-1.08.63-.69,1.09-1.19,1.3-2.13.19-.85.03-1.42-.75-3.96l-.31-1c-1.65-5.39-1.96-6.94-1.16-8.43.85-1.58,2.48-2.22,3.14-2.42.1-.03,2.54-.75,5.29.89,2.96,1.76,4.21,6.46,3.42,12.37,4.38-3.77,10.82-8.53,16.06-9.18,1.12-.14,3.44-.43,4.94,1.11,1.38,1.42,1.28,3.53.99,4.95,1.82.37,3.34,1.6,3.92,3.27.48,1.38.2,2.66-.12,3.49,1.35,1.06,2.11,2.23,2.27,3.49.27,2.25-1.42,3.76-3.39,5.51-1.86,1.66-4.17,3.72-5.97,7.14-.48.92-.71,1.53-.93,2.11-.3.8-.59,1.55-1.42,2.75-1.71,2.46-4.09,4.46-7.08,5.95.07,1.11-.14,2.1-.62,2.95-1.29,2.26-4.09,2.84-6.61,2.84ZM235.53,45.46c-.55,0-.89.09-.92.1-.42.13-1.45.53-1.95,1.45-.39.71-.25,1.81,1.31,6.89l.31.99c.83,2.69,1.11,3.59.79,5-.33,1.45-1.06,2.25-1.77,3.03-.26.29-.54.59-.81.94-2.87,3.77-1.83,9.42-1.49,11.27.71,3.87,2.55,6.72,3.97,8.43l.34.41-.15.51c-.26.91-.28,1.76-.05,2.51h0c.62,2.03,3.11,3.47,7.02,4.05,3.81.57,6.62-.04,7.52-1.62.36-.63.46-1.43.3-2.39l-.13-.76.7-.32c2.97-1.37,5.3-3.25,6.93-5.59.69-.99.9-1.54,1.19-2.31.23-.61.49-1.3,1.03-2.33,1.96-3.75,4.53-6.04,6.41-7.71,1.89-1.68,2.87-2.62,2.73-3.77-.1-.86-.81-1.72-2.1-2.57l-.81-.53.51-.83c.14-.22.79-1.39.36-2.62-.43-1.24-1.74-2.08-3.28-2.04l-1.44.04.46-1.36c.36-1.08.73-3.16-.2-4.11-.81-.83-2.4-.63-3.26-.53-5.86.73-13.94,7.67-17.14,10.62l-2.39,2.21.74-3.17c1.44-6.18.64-11.57-1.95-13.11-1.09-.65-2.09-.79-2.77-.79Z"/>
      </g>
      <g>
        <path class="cls-1" d="M239.15,60.34c.38.09,4.24,1.07,5.69,4.74,1.25,3.16.17,6.98-2.74,9.33"/>
        <path d="M242.73,75.18l-1.26-1.56c2.53-2.04,3.53-5.4,2.43-8.18-1.25-3.16-4.61-4.04-4.98-4.13l.46-1.95c.48.11,4.77,1.23,6.39,5.35,1.42,3.58.16,7.89-3.04,10.48Z"/>
      </g>
      <g>
        <path class="cls-1" d="M247.59,63.39c1.09.59,2.63,1.59,4.1,3.23,1.83,2.03,2.72,4.1,3.16,5.38"/>
        <path d="M253.9,72.32c-.64-1.88-1.64-3.57-2.95-5.03-1.1-1.22-2.39-2.23-3.83-3.02l.96-1.76c1.65.89,3.12,2.05,4.37,3.44,1.5,1.66,2.63,3.59,3.36,5.72l-1.9.65Z"/>
      </g>
      <g>
        <path class="cls-1" d="M263.46,54.66c-1.69.54-3.65,1.32-5.72,2.48-4.08,2.29-6.87,5.11-8.61,7.21"/>
        <path d="M249.9,64.99l-1.54-1.28c2.52-3.04,5.51-5.54,8.89-7.44,1.86-1.05,3.85-1.91,5.91-2.56l.61,1.91c-1.93.61-3.79,1.42-5.53,2.4-3.17,1.78-5.97,4.13-8.33,6.97Z"/>
      </g>
      <g>
        <path class="cls-1" d="M267.26,60.85c-1.89.93-3.92,2.03-6.03,3.35-2.88,1.8-5.35,3.65-7.44,5.4"/>
        <path d="M254.44,70.37l-1.29-1.54c2.38-1.99,4.92-3.83,7.55-5.48,1.97-1.23,4.03-2.37,6.12-3.4l.88,1.8c-2.03.99-4.03,2.1-5.94,3.3-2.55,1.59-5.02,3.38-7.33,5.32Z"/>
      </g>
      <g>
        <path class="cls-1" d="M159.47,202.17c.71.15,3.5.75,6.69,1.49,5.5,1.26,8.25,1.9,9.08,2.27,6.11,2.75,10.5,14.02,7.19,20.49-3.7,7.22-16.04,6.58-32.87,5.66-5.15-.28-27.86-1.86-29.51-9.63-.08-.37,0-2.03.15-5.35.29-6.12.43-9.18.63-9.72,3.35-8.82,30.54-6.88,38.64-5.2Z"/>
        <path d="M164.04,233.62c-4.32,0-9.2-.27-14.55-.56-8.58-.47-28.72-2.43-30.42-10.41-.1-.48-.06-1.55.13-5.6.34-7.4.45-9.36.69-10.02,1.61-4.24,7.81-6.65,18.41-7.17,7.76-.38,16.79.41,21.35,1.36h0c.63.13,3.4.73,6.71,1.49,5.73,1.32,8.34,1.92,9.26,2.33,3.24,1.46,6.13,5.08,7.75,9.68,1.58,4.53,1.55,8.96-.09,12.15-2.78,5.41-9.6,6.75-19.26,6.75ZM142.59,201.72c-1.38,0-2.78.03-4.18.1-9.48.47-15.4,2.57-16.67,5.91-.15.53-.32,4.06-.57,9.41-.13,2.76-.22,4.76-.17,5.12,1.15,5.41,15.53,8.12,28.59,8.83,15.93.88,28.51,1.57,31.94-5.12,1.37-2.68,1.37-6.64-.02-10.6-1.42-4.04-3.98-7.31-6.7-8.54-.74-.33-3.81-1.04-8.9-2.21-3.29-.76-6.04-1.35-6.67-1.48-2.96-.61-9.6-1.42-16.67-1.42Z"/>
      </g>
      <g>
        <path class="cls-5" d="M156.05,185.04c2.5,4.02-.16,9.21,3.42,11.89,1.74,1.3,3.07.6,6.69,1.49,2.16.51,6.17,1.79,9.81,5.2,4.63,4.34,8.81,12.29,6.46,17.56-3.26,7.29-17.71,6.49-32.87,5.66-5.15-.28-27.86-1.86-29.51-9.63-.08-.37,0-2.03.15-5.35.19-4.01.47-8.21.63-9.72.25-2.41,1.28-12.47,8.03-17.98,8.32-6.81,23.33-5.34,27.2.89Z"/>
        <path d="M163.39,228.36c-4.34,0-9.07-.26-13.89-.53-8.59-.47-28.74-2.43-30.44-10.43-.1-.48-.06-1.56.13-5.61.19-4.13.48-8.29.63-9.78,1.12-10.67,5.18-16.03,8.39-18.65,5.61-4.58,13.34-5.26,18.7-4.37,4.65.78,8.29,2.78,9.98,5.51h0c1.27,2.04,1.35,4.31,1.43,6.31.09,2.3.16,4.12,1.74,5.31.79.59,1.46.65,2.67.75.93.08,2.09.18,3.66.56,3.9.93,7.45,2.81,10.26,5.44,5.21,4.89,9.14,13.22,6.69,18.7-2.45,5.47-10.23,6.77-19.95,6.77ZM142.73,180.67c-4.99,0-9.91,1.54-13.24,4.26-2.92,2.39-6.62,7.32-7.66,17.28-.16,1.49-.44,5.6-.63,9.69-.13,2.76-.22,4.75-.17,5.11,1.15,5.4,15.51,8.1,28.58,8.82,14.23.78,28.92,1.59,31.9-5.06,2.06-4.6-1.63-12.11-6.23-16.42-2.55-2.39-5.79-4.11-9.35-4.96-1.43-.35-2.45-.44-3.36-.51-1.37-.12-2.45-.21-3.7-1.15-2.35-1.76-2.44-4.34-2.54-6.84-.07-1.84-.14-3.74-1.13-5.33-1.39-2.23-4.52-3.91-8.61-4.59-1.28-.21-2.57-.32-3.87-.32Z"/>
      </g>
      <g>
        <path class="cls-5" d="M148.18,189.94c2.79-.56,12.33-2.64,12.48-5.94.15-3.16-8.3-6.44-15.31-7.13-11.51-1.14-23.39,4.3-23.04,7.43.16,1.4,2.83,2.95,12.78,4.01"/>
        <path d="M148.37,190.93l-.39-1.97c7.98-1.6,11.62-3.67,11.68-5.01.09-2.03-6.87-5.34-14.4-6.09-9.09-.9-18.54,2.47-21.31,5.29-.49.5-.65.87-.63,1.03,0,.08.35,1.9,11.89,3.13l-.21,2c-11.7-1.24-13.48-3.17-13.67-4.9-.1-.87.3-1.76,1.19-2.67,3.46-3.51,13.72-6.78,22.94-5.87,6.75.67,16.41,3.96,16.21,8.18-.13,2.82-4.6,5.14-13.29,6.88Z"/>
      </g>
      <g>
        <path class="cls-5" d="M161.8,197.79c-2.43.29-6.32,1.05-10.5,3.37-5.27,2.92-8.34,6.82-9.82,9"/>
        <path d="M142.32,210.72l-1.66-1.12c2.61-3.86,6.12-7.08,10.16-9.31,3.36-1.86,7.02-3.04,10.87-3.49l.23,1.99c-3.59.42-6.99,1.51-10.13,3.25-3.76,2.08-7.04,5.08-9.47,8.68Z"/>
      </g>
      <g>
        <path class="cls-4" d="M150.52,82.67l-18.21,12.09v87.47c2.01.86,5.33,1.99,9.57,2.1,4.95.13,8.8-1.19,10.91-2.1-.76-33.19-1.52-66.37-2.28-99.56Z"/>
        <path d="M142.54,185.32c-.23,0-.45,0-.68,0-3.43-.09-6.77-.82-9.94-2.18l-.6-.26v-88.65l20.14-13.37,2.33,102.01-.61.26c-3.35,1.44-7.02,2.19-10.65,2.19ZM133.3,181.57c2.76,1.1,5.65,1.7,8.62,1.77,3.36.09,6.75-.52,9.89-1.77l-2.22-97.09-16.28,10.8v86.29Z"/>
      </g>
      <g>
        <path class="cls-5" d="M137.62,201.98c1.86-1.51,4.76-3.5,8.69-4.94,4.84-1.78,9.12-1.95,11.74-1.85"/>
        <path d="M138.26,202.76l-1.26-1.56c2.7-2.19,5.72-3.91,8.97-5.1,3.89-1.43,7.97-2.08,12.12-1.91l-.08,2c-3.89-.14-7.71.45-11.35,1.79-3.04,1.12-5.87,2.73-8.4,4.78Z"/>
      </g>
      <g>
        <path class="cls-1" d="M106.57,202.17c.71.15,3.5.75,6.69,1.49,5.5,1.26,8.25,1.9,9.08,2.27,6.11,2.75,10.5,14.02,7.19,20.49-3.7,7.22-16.04,6.58-32.87,5.66-5.15-.28-27.86-1.86-29.51-9.63-.08-.37,0-2.03.15-5.35.29-6.12.43-9.18.63-9.72,3.35-8.82,30.54-6.88,38.64-5.2Z"/>
        <path d="M111.15,233.62c-4.32,0-9.2-.27-14.55-.56-8.58-.47-28.72-2.43-30.42-10.41-.1-.48-.06-1.55.13-5.6.34-7.4.45-9.36.69-10.02,1.61-4.24,7.81-6.65,18.41-7.17,7.76-.38,16.79.41,21.35,1.36h0c.63.13,3.4.73,6.71,1.49,5.73,1.32,8.34,1.92,9.26,2.33,3.24,1.46,6.14,5.08,7.75,9.68,1.58,4.53,1.55,8.96-.09,12.15-2.78,5.41-9.6,6.75-19.26,6.75ZM89.69,201.72c-1.38,0-2.78.03-4.18.1-9.48.47-15.4,2.57-16.67,5.91-.15.53-.33,4.26-.57,9.41-.13,2.77-.22,4.76-.17,5.12,1.15,5.41,15.52,8.11,28.59,8.83,15.93.88,28.51,1.57,31.94-5.12,1.38-2.68,1.37-6.64-.02-10.6-1.42-4.04-3.98-7.31-6.7-8.54-.74-.33-3.81-1.04-8.9-2.21-3.29-.75-6.04-1.35-6.67-1.48-2.96-.61-9.6-1.42-16.67-1.42Z"/>
      </g>
      <g>
        <path class="cls-5" d="M103.15,185.04c2.5,4.02-.16,9.21,3.42,11.89,1.74,1.3,3.07.6,6.69,1.49,2.16.51,6.17,1.79,9.81,5.2,4.63,4.34,8.81,12.29,6.46,17.56-3.26,7.29-17.71,6.49-32.87,5.66-5.15-.28-27.86-1.86-29.51-9.63-.08-.37,0-2.03.15-5.35.19-4.01.47-8.21.63-9.72.25-2.41,1.28-12.47,8.03-17.98,8.32-6.81,23.33-5.34,27.2.89Z"/>
        <path d="M110.49,228.36c-4.34,0-9.07-.26-13.89-.53-8.59-.47-28.74-2.43-30.44-10.43-.1-.48-.06-1.56.13-5.61.19-4.12.48-8.28.64-9.78,1.12-10.67,5.18-16.03,8.39-18.65,5.61-4.58,13.33-5.26,18.7-4.37,4.65.77,8.29,2.78,9.98,5.51,1.27,2.04,1.35,4.31,1.43,6.31.09,2.3.16,4.12,1.74,5.31.79.59,1.46.65,2.67.75.93.08,2.09.18,3.66.56,3.9.93,7.45,2.81,10.26,5.44,5.21,4.89,9.14,13.22,6.69,18.7-2.45,5.47-10.23,6.77-19.95,6.77ZM89.83,180.67c-4.99,0-9.91,1.54-13.24,4.26-2.92,2.39-6.62,7.32-7.66,17.28-.16,1.5-.44,5.61-.63,9.69-.13,2.76-.22,4.76-.17,5.12,1.15,5.4,15.51,8.1,28.58,8.82,14.23.78,28.93,1.59,31.9-5.06,2.06-4.6-1.63-12.11-6.23-16.42-2.55-2.39-5.79-4.11-9.35-4.96-1.43-.35-2.45-.44-3.36-.51-1.37-.12-2.45-.21-3.7-1.15-2.35-1.76-2.45-4.34-2.54-6.84-.07-1.84-.14-3.74-1.13-5.33h0c-1.39-2.23-4.52-3.91-8.61-4.59-1.28-.21-2.57-.32-3.87-.32Z"/>
      </g>
      <g>
        <path class="cls-5" d="M95.28,189.94c2.79-.56,12.33-2.64,12.48-5.94.15-3.16-8.3-6.44-15.31-7.13-11.51-1.14-23.39,4.3-23.04,7.43.16,1.4,2.83,2.95,12.78,4.01"/>
        <path d="M95.47,190.93l-.39-1.97c7.98-1.6,11.62-3.67,11.68-5.01.09-2.03-6.87-5.34-14.4-6.09-9.09-.9-18.54,2.47-21.31,5.29-.49.5-.65.87-.63,1.03,0,.08.35,1.9,11.89,3.13l-.21,2c-11.7-1.24-13.48-3.17-13.67-4.9-.1-.87.3-1.76,1.19-2.67,3.46-3.51,13.72-6.78,22.94-5.87,6.75.67,16.41,3.96,16.21,8.18-.13,2.82-4.6,5.14-13.29,6.88Z"/>
      </g>
      <g>
        <path class="cls-5" d="M108.9,197.79c-2.43.29-6.32,1.05-10.5,3.37-5.27,2.92-8.34,6.82-9.82,9"/>
        <path d="M89.42,210.72l-1.66-1.12c2.61-3.86,6.12-7.08,10.16-9.31,3.36-1.86,7.02-3.04,10.87-3.49l.23,1.99c-3.59.42-6.99,1.51-10.13,3.25-3.76,2.08-7.04,5.08-9.47,8.68Z"/>
      </g>
      <g>
        <path class="cls-4" d="M97.62,82.67l-18.21,12.09v87.47c2.01.86,5.33,1.99,9.57,2.1,4.95.13,8.8-1.19,10.91-2.1-.76-33.19-1.52-66.37-2.28-99.56Z"/>
        <path d="M89.64,185.32c-.23,0-.45,0-.68,0-3.43-.09-6.77-.82-9.94-2.18l-.6-.26v-88.65l20.14-13.37,2.33,102.01-.61.26c-3.35,1.44-7.02,2.19-10.65,2.19ZM80.4,181.57c2.76,1.1,5.65,1.7,8.61,1.77,3.35.09,6.75-.52,9.89-1.77l-2.22-97.09-16.28,10.8v86.29Z"/>
      </g>
      <g>
        <path class="cls-5" d="M84.72,201.98c1.86-1.51,4.76-3.5,8.69-4.94,4.84-1.78,9.12-1.95,11.74-1.85"/>
        <path d="M85.36,202.76l-1.26-1.56c2.7-2.19,5.72-3.91,8.97-5.1,3.89-1.43,7.97-2.08,12.12-1.91l-.08,2c-3.9-.14-7.71.45-11.35,1.79-3.04,1.12-5.87,2.73-8.4,4.78Z"/>
      </g>
      <g>
        <path class="cls-2" d="M204.83,77.27l-137.98,64.32-45.91-31.32c-2.56-1.75-4.05-4.68-3.95-7.78l1.33-41.54c.15-4.62,3.75-8.39,8.35-8.75l125.69-9.87c2.13-.17,4.25.42,5.99,1.67l46.49,33.27Z"/>
        <path d="M66.76,142.72l-.46-.32-45.91-31.32c-2.85-1.95-4.49-5.17-4.38-8.62l1.33-41.54c.16-5.13,4.14-9.3,9.26-9.7l125.69-9.87c2.35-.19,4.71.47,6.64,1.85l47.86,34.25-140.01,65.27ZM153.06,43.29c-.21,0-.42,0-.63.02l-125.69,9.87c-4.11.32-7.31,3.67-7.44,7.8l-1.33,41.54c-.09,2.78,1.23,5.37,3.52,6.93l45.45,31.01,135.94-63.38-45.12-32.29c-1.38-.98-3.03-1.51-4.71-1.51Z"/>
      </g>
      <g>
        <path class="cls-2" d="M201.09,131.05l-132.12,10.37c-3.06.24-5.65-2.23-5.55-5.3l1.42-44.27c.08-2.62,2.13-4.76,4.74-4.97l132.12-10.37c3.06-.24,5.65,2.23,5.55,5.3l-1.42,44.27c-.08,2.62-2.13,4.76-4.74,4.97Z"/>
        <path d="M68.57,142.42c-1.57,0-3.09-.6-4.24-1.7-1.26-1.2-1.95-2.89-1.9-4.63l1.42-44.27c.1-3.13,2.53-5.68,5.65-5.92l132.12-10.37c1.74-.14,3.46.48,4.72,1.68s1.95,2.89,1.9,4.63l-1.42,44.27c-.1,3.13-2.53,5.68-5.65,5.92l-132.12,10.37c-.16.01-.32.02-.48.02ZM202.1,77.48c-.11,0-.22,0-.33.01l-132.12,10.37c-2.12.17-3.77,1.89-3.84,4.02l-1.42,44.27c-.04,1.18.43,2.33,1.29,3.15.86.82,2.03,1.24,3.2,1.14l132.12-10.37c2.12-.17,3.77-1.89,3.84-4.02l1.42-44.27c.04-1.18-.43-2.33-1.29-3.15-.78-.74-1.81-1.15-2.88-1.15Z"/>
      </g>
      <g>
        <path class="cls-2" d="M197.74,131.01l-126.53,9.94,1.37-42.93c.06-1.83,1.49-3.33,3.32-3.48l119.31-9.37c2.14-.17,3.95,1.56,3.88,3.71l-1.35,42.14Z"/>
        <path d="M70.18,142.01l1.41-44.03c.08-2.34,1.89-4.24,4.23-4.43l119.31-9.37c1.29-.1,2.58.36,3.53,1.25s1.46,2.16,1.42,3.46l-1.38,43.02-128.51,10.09ZM195.49,86.14c-.07,0-.14,0-.21,0l-119.31,9.37c-1.33.11-2.37,1.19-2.41,2.52l-1.34,41.83,124.56-9.78,1.32-41.25c.02-.75-.26-1.46-.81-1.98-.49-.47-1.13-.72-1.8-.72Z"/>
      </g>
      <g>
        <circle class="cls-3" cx="82.38" cy="103.95" r="5.31"/>
        <path d="M82.38,110.26c-.07,0-.14,0-.21,0-3.48-.11-6.22-3.03-6.11-6.51.05-1.69.76-3.25,1.99-4.4,1.23-1.15,2.82-1.75,4.52-1.71,1.69.05,3.25.76,4.4,1.99,1.15,1.23,1.76,2.84,1.71,4.52s-.76,3.25-1.99,4.4c-1.18,1.11-2.71,1.71-4.32,1.71ZM82.37,99.64c-1.1,0-2.14.41-2.94,1.17-.84.79-1.32,1.85-1.36,3-.08,2.37,1.79,4.37,4.17,4.44,1.14.04,2.25-.38,3.08-1.16.84-.79,1.32-1.85,1.36-3,.04-1.15-.38-2.25-1.16-3.08-.79-.84-1.85-1.32-3-1.36-.05,0-.09,0-.14,0Z"/>
      </g>
      <g>
        <circle class="cls-4" cx="112.33" cy="120.01" r="23.03"/>
        <path d="M112.36,144.02c-.26,0-.53,0-.79-.01-13.23-.42-23.65-11.53-23.23-24.77.21-6.41,2.89-12.36,7.57-16.75s10.78-6.68,17.19-6.49c6.41.21,12.36,2.89,16.75,7.57s6.69,10.78,6.49,17.19h0c-.21,6.41-2.9,12.36-7.57,16.75-4.49,4.21-10.29,6.5-16.41,6.5ZM112.32,97.97c-5.62,0-10.94,2.1-15.06,5.96-4.29,4.03-6.76,9.49-6.95,15.37-.39,12.15,9.18,22.35,21.32,22.73,5.89.19,11.49-1.93,15.78-5.95,4.29-4.03,6.76-9.49,6.95-15.37.19-5.88-1.93-11.49-5.95-15.78-4.03-4.29-9.49-6.76-15.37-6.95-.24,0-.48-.01-.72-.01Z"/>
      </g>
      <g>
        <circle class="cls-2" cx="116.05" cy="120.7" r="23.03"/>
        <path d="M116.07,144.71c-.26,0-.52,0-.79-.01-6.41-.21-12.36-2.89-16.75-7.57s-6.69-10.78-6.49-17.19,2.89-12.36,7.57-16.75c4.68-4.39,10.8-6.68,17.19-6.49,13.23.42,23.65,11.53,23.23,24.77h0c-.21,6.41-2.89,12.36-7.57,16.75-4.49,4.21-10.29,6.5-16.41,6.5ZM116.03,98.66c-5.62,0-10.94,2.1-15.06,5.96-4.29,4.03-6.76,9.49-6.95,15.37-.19,5.88,1.93,11.49,5.95,15.78s9.49,6.76,15.37,6.95c5.89.19,11.49-1.93,15.78-5.95,4.29-4.03,6.76-9.49,6.95-15.37l.99.03-.99-.03c.39-12.15-9.18-22.35-21.32-22.73-.24,0-.48-.01-.72-.01Z"/>
      </g>
      <circle cx="116.05" cy="120.7" r="16.11"/>
      <g>
        <line class="cls-2" x1="145.12" y1="98.88" x2="192.55" y2="95.57"/>
        <rect x="145.06" y="96.24" width="47.54" height="1.97" transform="translate(-6.34 11.94) rotate(-3.98)"/>
      </g>
      <g>
        <line class="cls-2" x1="146.3" y1="103.71" x2="192.39" y2="100.39"/>
        <rect x="146.24" y="101.06" width="46.21" height="1.97" transform="translate(-6.85 12.34) rotate(-4.09)"/>
      </g>
      <g>
        <line class="cls-2" x1="147.13" y1="108.85" x2="192.22" y2="105.87"/>
        <rect x="147.08" y="106.38" width="45.19" height="1.97" transform="translate(-6.75 11.5) rotate(-3.81)"/>
      </g>
      <g>
        <line class="cls-2" x1="163.29" y1="113.13" x2="192.05" y2="111.12"/>
        <rect x="163.26" y="111.14" width="28.83" height="1.97" transform="translate(-7.35 12.59) rotate(-3.98)"/>
      </g>
      <g>
        <line class="cls-2" x1="164.03" y1="117.89" x2="191.88" y2="116.36"/>
        <rect x="164.01" y="116.14" width="27.89" height="1.97" transform="translate(-6.12 9.87) rotate(-3.12)"/>
      </g>
      <g>
        <line class="cls-2" x1="163.87" y1="123.14" x2="191.72" y2="121.61"/>
        <rect x="163.84" y="121.39" width="27.89" height="1.97" transform="translate(-6.4 9.87) rotate(-3.12)"/>
      </g>
      <rect x="42.92" y="43.6" width="1.97" height="56.03" transform="translate(-39.77 64.24) rotate(-53.45)"/>
      <g>
        <path class="cls-1" d="M98.21,53.86c-.37-2.65-3.6-26.84,1.29-31.24,1.78-1.6,3.5-1.59,3.5-1.59,2.5.02,4.33,2.51,5.13,3.61,4.87,6.66,3.24,28.14,3.03,30.67"/>
        <path d="M112.14,55.4l-1.96-.16c.19-2.41,1.77-23.7-2.85-30.01-.7-.96-2.33-3.19-4.34-3.21-.04,0-1.39.04-2.83,1.34-3.64,3.27-2.32,20.63-.97,30.37l-1.95.27c-.89-6.4-3.39-27.61,1.61-32.11,2.04-1.84,4.09-1.84,4.17-1.84,3,.02,5.04,2.82,5.92,4.02,4.93,6.75,3.55,27.29,3.22,31.33Z"/>
      </g>
      <path d="M107.27,53.78l-.48-4c-.07-.63-.56-1.13-1.18-1.24-1.34-.22-2.68-.44-4.01-.66-.5-.08-.61-.74-.17-.99,4.31-2.49,5.67-7.49,3.96-10.49-1.38-2.41-4.87-3.72-8.49-3l1.56,20.3c1.21-.26,2.78-.47,4.6-.44,1.66.03,3.09.25,4.22.51Z"/>
      <g>
        <path class="cls-1" d="M123.1,54c-.37-2.65-3.6-26.84,1.29-31.24,1.78-1.6,3.5-1.59,3.5-1.59,2.5.02,4.33,2.51,5.13,3.61,4.87,6.66,3.24,28.14,3.03,30.67"/>
        <path d="M137.04,55.54l-1.96-.16c.19-2.41,1.77-23.7-2.85-30.01-.7-.96-2.33-3.19-4.34-3.21-.04,0-1.39.04-2.83,1.34-3.64,3.27-2.32,20.63-.97,30.37l-1.95.27c-.89-6.4-3.39-27.61,1.61-32.11,2.04-1.84,4.09-1.84,4.16-1.84,3,.02,5.04,2.82,5.92,4.01,4.93,6.75,3.55,27.29,3.22,31.34Z"/>
      </g>
      <path d="M132.16,53.92l-.48-4c-.07-.63-.56-1.13-1.18-1.24-1.34-.22-2.68-.44-4.01-.66-.5-.08-.61-.74-.17-.99,4.31-2.49,5.67-7.49,3.96-10.49-1.38-2.41-4.87-3.72-8.49-3l1.56,20.3c1.21-.26,2.78-.47,4.6-.44,1.66.03,3.09.25,4.22.51Z"/>
      <g>
        <path class="cls-2" d="M113.1,56.96c-1.65-1.27-5.25-3.6-10.29-3.53-3.04.04-5.55.94-7.23,1.73"/>
        <path d="M112.5,57.74c-2.02-1.55-5.33-3.41-9.68-3.33-2.28.03-4.58.58-6.82,1.63l-.84-1.79c2.5-1.17,5.07-1.78,7.63-1.82.08,0,.16,0,.24,0,4.79,0,8.44,2.02,10.67,3.74l-1.2,1.56Z"/>
      </g>
      <g>
        <path class="cls-2" d="M138,57.1c-1.65-1.27-5.25-3.6-10.29-3.53-3.04.04-5.55.94-7.23,1.73"/>
        <path d="M137.4,57.88c-2.02-1.55-5.32-3.41-9.68-3.33-2.28.03-4.58.58-6.82,1.63l-.84-1.79c2.5-1.17,5.07-1.78,7.63-1.82,4.89-.04,8.64,2,10.91,3.74l-1.2,1.56Z"/>
      </g>
      <g>
        <path class="cls-2" d="M115.15,51.64c.2-.18,2.01-1.76,4.52-1.26.18.04,2.5.53,3.58,2.66,1.21,2.38.28,5.63-2.07,7.09-2.51,1.55-5.32.25-5.53.15"/>
        <path d="M118.43,61.88c-1.67,0-2.99-.6-3.21-.71l.86-1.77c.1.05,2.5,1.19,4.58-.1,1.88-1.17,2.68-3.88,1.71-5.8-.88-1.73-2.81-2.13-2.89-2.14-2.02-.4-3.51.88-3.67,1.02l-1.32-1.46c.39-.35,2.47-2.07,5.38-1.49.3.06,2.98.66,4.26,3.19,1.43,2.83.32,6.66-2.43,8.37-1.11.69-2.25.91-3.27.91Z"/>
      </g>
      <g>
        <path class="cls-2" d="M95.82,68.95c2.61,1.7,11.61,7.08,23.26,5.3,5.73-.87,10.04-3.16,12.67-4.87"/>
        <path d="M114.35,75.6c-8.66,0-15.48-3.49-19.07-5.82l1.07-1.65c4,2.6,12.25,6.73,22.57,5.15,4.35-.66,8.48-2.25,12.29-4.73l1.07,1.65c-4.04,2.63-8.43,4.32-13.06,5.02-1.68.26-3.31.37-4.88.37Z"/>
      </g>
      <g>
        <path class="cls-2" d="M84.59,59.03c.52-.31,5.27-3.05,10.2-.85.68.3,3.93,1.75,5.19,5.33,1.4,3.96-.72,7.47-1.23,8.32-2.89,4.79-8.41,5.49-9.16,5.57"/>
        <path d="M89.7,78.37l-.22-1.96c.96-.11,5.86-.85,8.43-5.1,1.97-3.27,1.71-5.87,1.14-7.48-.72-2.06-2.38-3.75-4.66-4.76-4.44-1.97-8.81.51-9.29.8l-1.01-1.69c.94-.56,5.88-3.24,11.1-.91,2.78,1.24,4.81,3.33,5.72,5.9.71,2.01,1.05,5.23-1.32,9.15-3.04,5.04-8.78,5.92-9.9,6.04Z"/>
      </g>
      <g>
        <path class="cls-4" d="M126.16,8.58c-.13-.19-1.4-2.21-.5-4.51.67-1.7,2.29-2.89,4.16-3.07,2.12,1.15,4.6,2.72,7.15,4.87,3.37,2.83,5.79,5.75,7.46,8.11-.12.7-.48,2.22-1.7,3.66-1.5,1.76-3.35,2.31-4.02,2.48-1.06-1.85-2.82-4.43-5.58-6.93-2.57-2.32-5.11-3.75-6.97-4.62Z"/>
        <path d="M138.23,21.27l-.37-.64c-1.44-2.5-3.25-4.75-5.39-6.68-2.01-1.81-4.27-3.31-6.73-4.46l-.25-.12-.15-.23c-.17-.27-1.67-2.67-.59-5.41.81-2.06,2.72-3.47,4.98-3.69l.3-.03.26.14c2.6,1.41,5.06,3.09,7.32,4.98,2.88,2.42,5.45,5.21,7.63,8.29l.24.33-.07.4c-.18,1.07-.67,2.65-1.92,4.13-1.57,1.85-3.52,2.55-4.54,2.8l-.72.18ZM126.85,7.82c2.53,1.21,4.86,2.78,6.94,4.65,2.1,1.9,3.91,4.08,5.38,6.49.82-.3,1.9-.87,2.82-1.95.83-.97,1.22-2.01,1.4-2.8-2.03-2.81-4.4-5.36-7.04-7.58-2.08-1.74-4.33-3.29-6.71-4.61-1.39.23-2.54,1.13-3.05,2.41-.59,1.49-.01,2.85.27,3.38Z"/>
      </g>
      <g>
        <path class="cls-4" d="M89.84,11.05c-1.35,1.25-1.84,3.18-1.24,4.91.58,1.69,2.11,2.9,3.9,3.09,2.09-.93,4.42-1.84,7-2.67,3.73-1.19,7.18-1.96,10.23-2.45.16-.2,1.53-1.94.99-4.25-.55-2.38-2.63-3.33-2.85-3.43-2.29-.03-5.32.16-8.75,1.01-4,.99-7.13,2.52-9.29,3.79Z"/>
        <path d="M92.66,20.05l-.26-.03c-2.17-.23-4.02-1.7-4.73-3.75-.73-2.1-.13-4.44,1.5-5.95l.17-.13c2.98-1.76,6.2-3.07,9.55-3.9,2.94-.73,5.99-1.07,9-1.03h.2s.18.08.18.08c.46.2,2.78,1.33,3.42,4.11.62,2.7-.88,4.72-1.19,5.1l-.24.29-.37.06c-3.41.55-6.81,1.36-10.09,2.41-2.34.75-4.66,1.63-6.9,2.63l-.24.11ZM90.44,11.84c-1.01.99-1.37,2.46-.91,3.79.43,1.25,1.53,2.17,2.83,2.4,2.22-.98,4.52-1.85,6.84-2.59,3.25-1.04,6.6-1.85,9.97-2.42.34-.52.92-1.69.59-3.12-.38-1.62-1.64-2.42-2.12-2.67-2.79-.03-5.58.31-8.28.98-3.13.77-6.13,1.99-8.92,3.63Z"/>
      </g>
      <g>
        <g>
          <path class="cls-1" d="M27.49,133.59c1.09-.37,3.46-1.34,5.12-3.73,1.69-2.43,1.79-5.06,1.82-6.34.1-3.94-1.55-5.11-.61-7.03.93-1.89,3.63-3.03,5.73-2.52,3.22.77,4.81,5.34,4.43,8.6-.38,3.19-2.53,4.03-2.08,6.69.44,2.65,3.05,4.61,3.47,4.34.32-.2-.86-1.55-.43-2.69,1.05-2.81,11.59-3.78,15.2,1.13.82,1.11,1.73,3.14,1.82,5.38.08,1.89-.49,2.12-.26,3.73.4,2.87,2.34,3.24,2.26,5.47-.05,1.36-.83,2.89-2,3.73-1.17.85-2.3.69-2.43,1.3-.15.72,1.36,1.14,2.17,2.69.69,1.33.52,2.83.35,3.39-.98,3.25-10.54,4.19-18.06,2.78-3.44-.65-9.87-2.43-16.67-8.25"/>
          <path d="M51.09,162.15c-2.53,0-5.1-.24-7.29-.65-6.07-1.14-12-4.07-17.14-8.48l1.3-1.52c4.87,4.17,10.48,6.95,16.21,8.03,7.94,1.5,16.26.09,16.92-2.08.1-.34.28-1.57-.28-2.63-.31-.61-.79-1.01-1.21-1.36-.56-.47-1.25-1.06-1.05-2,.19-.89.98-1.15,1.57-1.33.39-.12.83-.27,1.26-.58.89-.65,1.54-1.86,1.58-2.96.03-.78-.27-1.2-.77-1.89-.56-.77-1.25-1.74-1.48-3.41-.14-1.01-.02-1.6.1-2.17.1-.45.18-.88.15-1.66-.09-2.05-.93-3.89-1.63-4.83-1.96-2.67-6.46-3.38-9.82-2.92-2.36.33-3.47,1.1-3.63,1.55-.12.31.11.85.28,1.24.19.46.6,1.4-.24,1.94-.26.17-.71.31-1.36.01-1.06-.47-3.22-2.43-3.65-5.04-.3-1.78.35-2.92.97-4.02.47-.83.95-1.68,1.1-2.95.35-2.98-1.17-6.91-3.67-7.5-1.7-.41-3.89.54-4.6,1.99-.32.65-.21,1.12.1,2.22.28,1.01.66,2.38.61,4.39-.03,1.25-.11,4.17-2,6.89-1.67,2.39-3.98,3.55-5.62,4.11l-.64-1.9c1.36-.46,3.27-1.42,4.62-3.36,1.55-2.23,1.62-4.72,1.64-5.79.04-1.71-.27-2.83-.54-3.81-.33-1.17-.63-2.29.03-3.64,1.12-2.28,4.26-3.68,6.87-3.05,4.02.97,5.6,6.25,5.19,9.69-.2,1.68-.84,2.8-1.35,3.71-.55.98-.92,1.62-.74,2.7.14.82.53,1.54.96,2.13.02-.22.06-.44.15-.66.75-2,3.91-2.65,5.23-2.83,4.06-.56,9.25.37,11.71,3.72.9,1.23,1.91,3.43,2.02,5.93.04,1.03-.09,1.66-.19,2.16-.1.49-.17.81-.08,1.48.17,1.18.63,1.83,1.12,2.52.56.78,1.2,1.67,1.14,3.13-.06,1.7-1.03,3.51-2.41,4.51-.59.43-1.16.64-1.61.79.5.42,1.17,1,1.65,1.93.83,1.6.66,3.35.42,4.14-.9,2.97-6.33,4.12-11.92,4.12Z"/>
        </g>
        <g>
          <path class="cls-1" d="M30.05,138.39c-1.01-6.83-2.12-8.36-2.98-8.41-1.8-.12-3.96,6.2-4.51,11.65-.81,8.06,1.67,16.96,4.25,17.08.62.03,1.09-.46,1.64-1.03,3.22-3.35,1.83-9.06,1.59-9.97"/>
          <path d="M26.87,159.71s-.07,0-.1,0c-.72-.03-1.39-.42-2.01-1.13-2.38-2.76-3.84-10.57-3.19-17.05.4-3.97,2.32-12.55,5.46-12.55.04,0,.08,0,.11,0,1.33.09,2.71,1.27,3.9,9.27l-1.98.29c-.9-6.08-1.8-7.3-2.06-7.53-.9.52-2.88,5.16-3.43,10.72-.65,6.55.91,13.45,2.71,15.54.27.32.49.43.59.44h0c.17,0,.57-.42.86-.72,2.76-2.87,1.61-8.02,1.35-9.02l1.94-.5c.43,1.66,1.57,7.36-1.84,10.91-.6.63-1.29,1.34-2.31,1.34Z"/>
        </g>
        <g>
          <path class="cls-4" d="M40.48,103.73c-1.22.02-19.31.5-25.52,12.58-.58,1.12-3.26,6.74-1.61,12.69.38,1.37,1.06,3.81,3.22,5.54,1.57,1.26,3.63,1.91,4.39,2.14,2.03.63,2.32.3,3.28.83,2.55,1.41,2.96,5.15,3.02,5.87.36,4.21-2.47,7.22-3.02,7.78-11.92-4.18-21.49-12.87-23.03-23.06-2.34-15.4,13.51-35.09,39.27-36.61.53,1.18,1.34,3.36,1.32,6.21-.02,2.74-.79,4.85-1.32,6.02Z"/>
          <path d="M24.51,152.3l-.59-.21c-12.87-4.51-22.17-13.87-23.68-23.84-1.06-6.99,1.46-14.86,6.92-21.61,7.66-9.46,19.78-15.34,33.26-16.13l.68-.04.28.62c.93,2.07,1.42,4.36,1.4,6.62-.01,2.19-.5,4.41-1.4,6.42l-.26.57h-.63c-.76.02-18.65.38-24.66,12.06-.53,1.02-3.08,6.41-1.53,11.97.36,1.31.97,3.5,2.88,5.04,1.43,1.14,3.34,1.74,4.06,1.97.91.29,1.43.36,1.85.41.5.07.97.13,1.62.49,2.88,1.59,3.42,5.49,3.52,6.65.37,4.42-2.43,7.66-3.29,8.55l-.44.45ZM39.85,92.53c-12.65.92-23.97,6.49-31.15,15.36-5.11,6.32-7.49,13.63-6.51,20.07,1.38,9.1,9.9,17.71,21.77,22.06.94-1.1,2.58-3.5,2.32-6.55-.05-.65-.43-3.94-2.51-5.09-.33-.18-.51-.21-.93-.27-.46-.06-1.1-.15-2.17-.48-.83-.26-3-.94-4.72-2.32-2.41-1.93-3.15-4.61-3.55-6.05-1.69-6.11.86-11.8,1.68-13.4,5.95-11.56,22.22-12.93,25.74-13.1.64-1.6.98-3.34.99-5.06.01-1.76-.32-3.53-.97-5.17Z"/>
        </g>
        <g>
          <path class="cls-1" d="M51.76,133.38c-.76.33-2.13.8-3.86.72-1.04-.05-1.9-.28-2.53-.5"/>
          <path d="M48.28,135.11c-.14,0-.28,0-.42,0-.96-.04-1.9-.23-2.82-.56l.68-1.89c.72.26,1.47.41,2.23.44,1.15.05,2.33-.17,3.41-.64l.8,1.84c-1.23.53-2.56.81-3.88.81Z"/>
        </g>
      </g>
    </g>
  </g>
</svg>