<svg width="89" height="73" viewBox="0 0 89 73" fill="none" xmlns="http://www.w3.org/2000/svg">
<mask id="path-1-outside-1_612_4683" maskUnits="userSpaceOnUse" x="6.09998" y="19.2645" width="72" height="54" fill="black">
<rect fill="white" x="6.09998" y="19.2645" width="72" height="54"/>
<path fill-rule="evenodd" clip-rule="evenodd" d="M11.3 21.2645C9.53266 21.2645 8.09998 22.6972 8.09998 24.4645V32.4519C8.09996 32.4561 8.09995 32.4603 8.09995 32.4645V67.6645C8.09995 69.4318 9.53264 70.8645 11.2999 70.8645H72.9C74.6673 70.8645 76.1 69.4318 76.1 67.6645V32.4645C76.1 30.6972 74.6673 29.2645 72.9 29.2645H47.2434L43.3756 22.8181C42.7973 21.8543 41.7556 21.2645 40.6316 21.2645H11.3Z"/>
</mask>
<path fill-rule="evenodd" clip-rule="evenodd" d="M11.3 21.2645C9.53266 21.2645 8.09998 22.6972 8.09998 24.4645V32.4519C8.09996 32.4561 8.09995 32.4603 8.09995 32.4645V67.6645C8.09995 69.4318 9.53264 70.8645 11.2999 70.8645H72.9C74.6673 70.8645 76.1 69.4318 76.1 67.6645V32.4645C76.1 30.6972 74.6673 29.2645 72.9 29.2645H47.2434L43.3756 22.8181C42.7973 21.8543 41.7556 21.2645 40.6316 21.2645H11.3Z" fill="#FFFBF2"/>
<path d="M8.09998 32.4519L9.59998 32.4577V32.4519H8.09998ZM47.2434 29.2645L45.9572 30.0363L46.3941 30.7645H47.2434V29.2645ZM43.3756 22.8181L42.0893 23.5899V23.5899L43.3756 22.8181ZM9.59998 24.4645C9.59998 23.5256 10.3611 22.7645 11.3 22.7645V19.7645C8.70424 19.7645 6.59998 21.8688 6.59998 24.4645H9.59998ZM9.59998 32.4519V24.4645H6.59998V32.4519H9.59998ZM9.59995 32.4645C9.59995 32.4622 9.59996 32.46 9.59996 32.4577L6.59999 32.4461C6.59996 32.4522 6.59995 32.4584 6.59995 32.4645H9.59995ZM9.59995 67.6645V32.4645H6.59995V67.6645H9.59995ZM11.2999 69.3645C10.3611 69.3645 9.59995 68.6034 9.59995 67.6645H6.59995C6.59995 70.2603 8.70421 72.3645 11.2999 72.3645V69.3645ZM72.9 69.3645H11.2999V72.3645H72.9V69.3645ZM74.6 67.6645C74.6 68.6034 73.8388 69.3645 72.9 69.3645V72.3645C75.4957 72.3645 77.6 70.2603 77.6 67.6645H74.6ZM74.6 32.4645V67.6645H77.6V32.4645H74.6ZM72.9 30.7645C73.8388 30.7645 74.6 31.5256 74.6 32.4645H77.6C77.6 29.8688 75.4957 27.7645 72.9 27.7645V30.7645ZM47.2434 30.7645H72.9V27.7645H47.2434V30.7645ZM42.0893 23.5899L45.9572 30.0363L48.5296 28.4928L44.6618 22.0464L42.0893 23.5899ZM40.6316 22.7645C41.2287 22.7645 41.7821 23.0778 42.0893 23.5899L44.6618 22.0464C43.8124 20.6307 42.2825 19.7645 40.6316 19.7645V22.7645ZM11.3 22.7645H40.6316V19.7645H11.3V22.7645Z" fill="black" mask="url(#path-1-outside-1_612_4683)"/>
<g clip-path="url(#clip0_612_4683)">
<path d="M46.1237 59.1921C62.3105 59.1921 75.4325 46.0701 75.4325 29.8833C75.4325 13.6965 62.3105 0.574463 46.1237 0.574463C29.9368 0.574463 16.8148 13.6965 16.8148 29.8833C16.8148 46.0701 29.9368 59.1921 46.1237 59.1921Z" fill="#8ADFFF"/>
<path d="M46.1237 59.4343C29.8297 59.4343 16.5726 46.1773 16.5726 29.8833C16.5726 13.5893 29.8272 0.332275 46.1237 0.332275C62.4201 0.332275 75.6747 13.5893 75.6747 29.8833C75.6747 46.1773 62.4177 59.4343 46.1237 59.4343ZM46.1237 0.819061C30.0961 0.819061 17.057 13.8581 17.057 29.8857C17.057 45.9133 30.0961 58.9524 46.1237 58.9524C62.1513 58.9524 75.1903 45.9133 75.1903 29.8857C75.1903 13.8581 62.1488 0.819061 46.1237 0.819061Z" fill="#1D1D1B"/>
<path d="M34.6393 2.95264C34.2058 3.39825 34.7797 4.17323 35.3973 4.25558C36.0149 4.3355 36.6276 4.05699 37.25 4.07636C38.7055 4.11753 39.6355 6.14701 38.7176 7.27558C38.2938 7.79627 37.6399 8.06267 37.0563 8.39688C35.0001 9.57389 33.6366 11.877 33.5931 14.2456C33.5713 15.3523 34.0847 16.7086 35.1866 16.7933C36.2692 16.8757 36.9763 15.6672 37.204 14.604C37.4316 13.5432 37.5261 12.3178 38.3786 11.6445C39.1826 11.0076 40.4153 11.1602 41.229 11.7826C42.0428 12.405 42.5005 13.3907 42.7645 14.3812C43.181 15.9433 43.0696 17.8662 41.7788 18.8398C40.4686 19.8303 38.5602 19.4113 37.0563 20.0725C35.407 20.7966 34.5594 22.7219 34.5666 24.5213C34.5739 26.3208 35.2738 28.0378 35.9567 29.7016C36.1214 30.1036 36.2885 30.5444 36.165 30.961C35.9567 31.656 35.0728 31.8813 34.3511 31.811C33.5374 31.7311 32.7503 31.4235 32.0964 30.9319C31.6265 30.5783 31.2124 30.123 30.6602 29.9196C29.5099 29.4982 28.1537 30.5032 28.0326 31.7214C27.9115 32.9396 28.8414 34.1117 30.0063 34.4871C31.1325 34.848 32.3482 34.5767 33.5277 34.5186C34.7071 34.4605 36.0706 34.7317 36.6542 35.7586C37.1023 36.5433 36.9691 37.5725 37.4704 38.3233C37.9693 39.0716 38.9646 39.3259 39.8631 39.2872C40.7616 39.2484 41.6383 38.982 42.5368 38.9409C43.8543 38.8827 45.1379 39.3162 46.3875 39.7449C48.2305 40.377 50.2552 41.1617 51.1125 42.9126C51.9529 44.6249 51.3934 46.7536 52.1563 48.5022C52.6092 49.5411 53.4907 50.3476 53.9315 51.3914C54.5151 52.7767 54.1059 54.1717 53.699 56.407C53.4326 57.8722 53.2413 58.1338 53.1468 58.25C52.5171 59.0298 51.2287 59.0831 48.6761 59.1606C45.1766 59.2648 43.3966 59.3083 41.8515 58.8845C41.0692 58.669 40.1247 58.3299 39.2698 57.5283C38.7297 57.0197 38.0734 56.516 38.1291 55.787C38.209 54.7069 39.4853 53.8447 39.1947 52.8033C39.0736 52.3698 38.7079 52.0598 38.3592 51.7765C37.4462 51.0354 36.5331 50.2943 35.6201 49.5533C35.0655 49.1028 34.4698 48.5821 34.3826 47.8725C34.3002 47.2041 34.695 46.5865 34.9735 45.9738C35.7 44.3778 35.6637 42.4525 34.8742 40.8856C34.0847 39.3187 32.5589 38.1441 30.8443 37.7784C30.0354 37.6064 29.1975 37.6064 28.3934 37.4151C25.308 36.6789 23.5401 33.4191 20.772 31.8716C18.9968 30.8786 18.4664 30.881 17.8343 29.9511C16.977 28.6941 16.9963 27.12 17.4541 24.7514C18.401 19.8618 20.2997 16.3598 20.5613 15.8827C23.2422 11.0294 26.4971 8.17165 27.6112 7.24168C29.5704 5.60695 31.428 4.49291 32.8399 3.75426C33.4405 3.48786 34.0435 3.22146 34.6441 2.95506L34.6393 2.95264Z" fill="#C4E000"/>
<path d="M34.6393 2.95269C34.2058 3.3983 34.7798 4.17328 35.3973 4.25562C35.4748 4.26531 35.5548 4.27016 35.6323 4.27016C36.1529 4.27016 36.6688 4.07399 37.1943 4.07399C37.2137 4.07399 37.2331 4.07399 37.25 4.07399C38.7055 4.11516 39.6355 6.14464 38.7177 7.27321C38.2938 7.7939 37.6399 8.0603 37.0563 8.39451C35.0002 9.57152 33.6367 11.8747 33.5931 14.2432C33.5713 15.35 34.0847 16.7062 35.1866 16.791C35.2205 16.7934 35.2569 16.7958 35.2908 16.7958C36.3152 16.7958 36.9861 15.6309 37.204 14.6041C37.4317 13.5433 37.5261 12.3179 38.3786 11.6446C38.7346 11.3637 39.1754 11.2353 39.6258 11.2353C40.1925 11.2353 40.7762 11.4363 41.2291 11.7826C42.0428 12.405 42.5005 13.3907 42.7645 14.3812C43.1811 15.9433 43.0697 17.8662 41.7788 18.8398C40.4686 19.8303 38.5602 19.4114 37.0563 20.0725C35.407 20.7966 34.5594 22.722 34.5667 24.5214C34.5763 26.3208 35.2738 28.0379 35.9568 29.7017C36.1215 30.1037 36.2886 30.5445 36.1651 30.961C35.981 31.5762 35.2666 31.8232 34.6054 31.8232C34.5182 31.8232 34.4335 31.8183 34.3511 31.8111C33.5374 31.7311 32.7503 31.4236 32.0964 30.9319C31.6266 30.5784 31.2124 30.1231 30.6603 29.9196C30.4786 29.8518 30.2897 29.8228 30.1032 29.8228C29.1103 29.8228 28.1343 30.697 28.0302 31.7215C27.9091 32.9396 28.8391 34.1118 30.004 34.4872C30.435 34.6252 30.8806 34.6712 31.3311 34.6712C32.0552 34.6712 32.7987 34.555 33.5253 34.5187C33.6246 34.5138 33.7239 34.5114 33.8232 34.5114C34.9275 34.5114 36.1166 34.819 36.6518 35.7586C37.0999 36.5433 36.9667 37.5726 37.468 38.3233C37.9354 39.0232 38.8363 39.2896 39.6864 39.2896C39.7445 39.2896 39.8026 39.2896 39.8608 39.2848C40.7592 39.246 41.6359 38.9796 42.5344 38.9385C42.6144 38.9361 42.6943 38.9336 42.7742 38.9336C44.0069 38.9336 45.213 39.3405 46.3851 39.7425C48.2281 40.3746 50.2528 41.1593 51.1101 42.9103C51.9505 44.6225 51.391 46.7513 52.1539 48.4998C52.6068 49.5388 53.4883 50.3452 53.9291 51.389C54.5128 52.7743 54.1035 54.1693 53.6966 56.4046C53.4302 57.8698 53.2389 58.1314 53.1444 58.2476C52.5148 59.0275 51.2263 59.0807 48.6737 59.1582C47.3466 59.197 46.2665 59.2285 45.3534 59.2285C43.8568 59.2285 42.8081 59.1461 41.8491 58.8821C41.0668 58.6666 40.1223 58.3276 39.2674 57.5259C38.7273 57.0173 38.071 56.5136 38.1267 55.7846C38.2066 54.7045 39.4829 53.8423 39.1923 52.801C39.0712 52.3675 38.7055 52.0575 38.3568 51.7741C37.4438 51.033 36.5308 50.292 35.6177 49.5509C35.0631 49.1004 34.4674 48.5797 34.3802 47.8701C34.2978 47.2017 34.6926 46.5842 34.9711 45.9714C35.6976 44.3755 35.6613 42.4501 34.8718 40.8832C34.0823 39.3163 32.5565 38.1417 30.8419 37.776C30.033 37.6041 29.1951 37.6041 28.391 37.4127C25.3056 36.6765 23.5377 33.4167 20.7696 31.8692C18.9944 30.8762 18.464 30.8787 17.8319 29.9487C16.9746 28.6918 16.9939 27.1176 17.4517 24.749C18.3986 19.8594 20.2973 16.3574 20.5589 15.8804C23.2398 11.027 26.4947 8.16928 27.6088 7.2393C29.568 5.60458 31.4256 4.49054 32.8375 3.75189C33.4381 3.48549 34.0411 3.21909 34.6417 2.95269M34.6393 2.46832C34.5739 2.46832 34.5061 2.48285 34.4431 2.50949L33.1935 3.06409L32.6389 3.30869C32.6389 3.30869 32.6195 3.31838 32.6122 3.32322C30.7184 4.31133 28.9311 5.50286 27.2964 6.86634C24.5282 9.17676 21.9829 12.2961 20.1326 15.6454C19.7693 16.3042 17.907 19.8352 16.9746 24.657C16.3619 27.8223 16.713 29.1713 17.4299 30.2224C17.9457 30.978 18.4373 31.2226 19.2535 31.627C19.5901 31.7941 20.0091 32.0024 20.5322 32.293C21.622 32.9033 22.5859 33.826 23.5183 34.7197C24.906 36.0493 26.3397 37.4224 28.2796 37.8874C28.7349 37.9964 29.1902 38.0472 29.6334 38.0957C30.0209 38.1393 30.3866 38.178 30.745 38.2555C32.3071 38.5873 33.7239 39.6796 34.4431 41.106C35.1624 42.5325 35.1963 44.3198 34.5352 45.7729C34.4867 45.8818 34.4335 45.9908 34.3802 46.0998C34.1186 46.6374 33.8207 47.2453 33.9055 47.9331C34.0121 48.805 34.6635 49.3983 35.3198 49.9311L36.6906 51.0427L38.0613 52.1543C38.3859 52.4159 38.6595 52.6557 38.7346 52.9342C38.8387 53.312 38.5869 53.7213 38.2914 54.1935C38.0129 54.644 37.6956 55.155 37.6521 55.7507C37.5867 56.6347 38.2406 57.2353 38.7661 57.7173C38.8266 57.773 38.8848 57.8262 38.9453 57.8819C39.885 58.7635 40.9264 59.1316 41.7304 59.352C42.6725 59.6111 43.7236 59.7177 45.3655 59.7177C46.264 59.7177 47.3151 59.6886 48.7004 59.6474C51.3135 59.5699 52.7545 59.5264 53.5368 58.5576C53.7087 58.3445 53.9146 57.9909 54.1882 56.4967C54.2464 56.1794 54.3045 55.8815 54.3578 55.5957C54.7017 53.8157 54.9487 52.5297 54.3917 51.205C54.1471 50.6262 53.7886 50.1273 53.4423 49.6429C53.1202 49.1949 52.8175 48.7735 52.614 48.3085C52.2774 47.5384 52.2241 46.6689 52.166 45.7462C52.103 44.7242 52.0352 43.6659 51.5606 42.6996C50.6378 40.8178 48.5841 39.9823 46.5571 39.2872C45.4164 38.8949 44.1207 38.4517 42.7887 38.4517C42.7015 38.4517 42.6144 38.4517 42.5272 38.4565C42.0477 38.4783 41.5827 38.5583 41.1322 38.6357C40.6914 38.7132 40.2725 38.7835 39.8535 38.8029C39.8026 38.8029 39.7518 38.8053 39.7009 38.8053C39.3062 38.8053 38.3374 38.7326 37.8845 38.0545C37.6763 37.7445 37.5988 37.3352 37.5164 36.9017C37.4292 36.4416 37.3396 35.9645 37.0853 35.5189C36.5356 34.555 35.3828 34.0246 33.8328 34.0246C33.7239 34.0246 33.6173 34.027 33.5107 34.0319C33.2008 34.0464 32.8908 34.0755 32.588 34.1045C32.1545 34.1457 31.7452 34.1844 31.3384 34.1844C30.8758 34.1844 30.5004 34.1336 30.1589 34.0246C29.1466 33.7001 28.4249 32.7096 28.5194 31.7699C28.5969 31.0046 29.3525 30.3071 30.1081 30.3071C30.2437 30.3071 30.3745 30.3289 30.498 30.3749C30.8128 30.4888 31.0938 30.7285 31.3941 30.9804C31.5273 31.0918 31.6629 31.208 31.8082 31.317C32.5372 31.8668 33.3993 32.2034 34.3075 32.293C34.4068 32.3027 34.5085 32.3075 34.6102 32.3075C35.6371 32.3075 36.4121 31.845 36.6349 31.0991C36.8141 30.4984 36.5719 29.9075 36.4121 29.5176C35.7509 27.9071 35.068 26.2409 35.0583 24.519C35.051 23.0102 35.7291 21.1866 37.2573 20.5157C37.841 20.259 38.507 20.1839 39.2141 20.1016C40.2047 19.9878 41.2267 19.8691 42.0767 19.2273C43.6025 18.0745 43.6775 15.9021 43.2392 14.2553C42.8953 12.9621 42.3189 12.0006 41.5294 11.3951C40.9917 10.9834 40.2991 10.7485 39.6307 10.7485C39.0422 10.7485 38.507 10.9253 38.0831 11.2619C37.2258 11.9401 37.0175 13.0323 36.8359 13.9938C36.8044 14.1657 36.7705 14.3352 36.7366 14.4999C36.5453 15.3984 35.9883 16.309 35.298 16.309C35.2763 16.309 35.2545 16.309 35.2302 16.3066C34.4141 16.246 34.0702 15.069 34.0847 14.2529C34.1259 12.0466 35.3901 9.91299 37.3033 8.81833C37.4268 8.7481 37.5528 8.68029 37.6811 8.61247C38.1849 8.34365 38.7055 8.06514 39.1003 7.5832C39.6428 6.9172 39.7276 5.9509 39.3207 5.06451C38.9138 4.17813 38.1292 3.61384 37.2694 3.58962C37.2452 3.58962 37.2234 3.58962 37.1992 3.58962C36.8916 3.58962 36.6034 3.6429 36.3249 3.69618C36.0803 3.7422 35.8502 3.78579 35.6371 3.78579C35.5766 3.78579 35.5184 3.78337 35.4652 3.7761C35.2762 3.75189 35.0534 3.57025 34.9905 3.38861C34.9663 3.3208 34.9808 3.30627 34.9905 3.29416C35.1527 3.12706 35.1745 2.86792 35.0413 2.6766C34.9469 2.5434 34.7967 2.46832 34.6417 2.46832H34.6393Z" fill="#1D1D1B"/>
<path d="M48.9063 4.41791C47.2256 4.55353 45.5884 5.19531 44.2637 6.23911C43.8932 6.53215 43.5347 6.86879 43.341 7.29987C43.1472 7.73095 43.1472 8.27829 43.45 8.64156C43.9852 9.29061 45.1404 9.08475 45.6756 9.73138C46.143 10.2957 45.8694 11.1312 45.8742 11.865C45.879 12.6739 46.2835 13.4731 46.9325 13.955C47.5816 14.4394 48.4631 14.5944 49.2405 14.3667C50.1075 14.1124 50.7978 13.4077 51.1828 12.5891C51.5679 11.7705 51.672 10.8454 51.643 9.94207C51.5776 7.90048 51.7108 6.45466 50.7009 5.40117C50.4006 5.08875 49.8557 4.64798 48.9087 4.41791H48.9063Z" fill="#C4E000"/>
<path d="M48.9063 4.4179C49.8508 4.65039 50.3982 5.08874 50.6985 5.40116C51.7084 6.45465 51.5776 7.90047 51.6406 9.94207C51.6696 10.8454 51.5655 11.7705 51.1804 12.5891C50.7953 13.4077 50.1051 14.11 49.2381 14.3667C49.0032 14.437 48.7562 14.4709 48.5116 14.4709C47.9473 14.4709 47.383 14.2917 46.9301 13.955C46.2811 13.4707 45.8766 12.6739 45.8718 11.865C45.8669 11.1312 46.1406 10.2957 45.6732 9.73137C45.1356 9.08474 43.9828 9.2906 43.4475 8.64155C43.1472 8.27586 43.1448 7.73095 43.3386 7.29986C43.5323 6.86878 43.8883 6.53215 44.2613 6.23911C45.586 5.1953 47.2232 4.55352 48.9039 4.4179M48.9063 3.93111C48.8942 3.93111 48.8797 3.93111 48.8676 3.93111C47.0996 4.074 45.3559 4.75695 43.9634 5.85404C43.5977 6.14223 43.1472 6.54183 42.8978 7.09643C42.6072 7.74063 42.6774 8.46718 43.0746 8.9467C43.4427 9.39231 43.9731 9.53036 44.4405 9.65387C44.7965 9.74832 45.1331 9.83551 45.3027 10.0389C45.5134 10.2932 45.4746 10.7146 45.4286 11.2014C45.4092 11.417 45.3874 11.6398 45.3874 11.865C45.3923 12.8216 45.8742 13.771 46.6419 14.3425C47.1723 14.7373 47.8359 14.9528 48.5116 14.9528C48.807 14.9528 49.0976 14.9116 49.3762 14.8293C50.3279 14.5484 51.1465 13.8073 51.6212 12.7925C51.9966 11.9909 52.1637 11.0513 52.1273 9.92269C52.1177 9.64176 52.1128 9.37052 52.108 9.11138C52.0765 7.43064 52.0498 6.10591 51.0496 5.05968C50.5314 4.51962 49.8508 4.14181 49.0226 3.9408C48.9838 3.93111 48.9451 3.92627 48.9063 3.92627V3.93111Z" fill="#1D1D1B"/>
<path d="M56.7651 3.02533C55.6196 4.17812 54.7211 5.5755 54.1447 7.09641C53.8226 7.94889 53.7161 9.13316 54.5201 9.56424C55.484 10.0801 56.6247 8.91277 57.6878 9.16222C58.5912 9.37534 58.9569 10.5184 58.7777 11.429C58.5984 12.3396 58.0511 13.134 57.7726 14.0204C57.4941 14.9068 57.5789 16.045 58.3684 16.5342C58.5766 16.6626 58.8479 16.7328 59.0659 16.6214C59.2451 16.5318 59.3468 16.3429 59.4388 16.1661C59.9014 15.2676 60.3252 14.3376 60.9549 13.5506C61.587 12.761 62.4661 12.112 63.4711 12.0079C65.1591 11.8311 66.7188 13.352 66.9295 15.0375C67.0046 15.6333 66.9295 16.2751 66.5759 16.7595C65.9801 17.5708 64.837 17.6798 63.9192 18.0963C62.5 18.7381 61.5773 20.1839 61.1825 21.6903C60.7878 23.1967 60.8507 24.7781 60.9137 26.3353C60.9549 27.3089 60.9985 28.3091 61.386 29.2052C61.4925 29.4522 61.6378 29.6992 61.8752 29.8276C62.1682 29.985 62.5266 29.9172 62.8487 29.8349C64.0039 29.5418 65.1228 29.118 66.1812 28.5707C66.7018 28.3018 67.2395 27.9943 67.8256 28.0112C69.0994 28.0427 69.8211 29.5273 69.9059 30.7987C70.1118 33.8672 68.3753 36.9405 69.1115 39.929C69.3562 40.9268 69.8793 41.8543 70.6034 42.5833C70.739 42.7214 70.8892 42.8546 71.0756 42.9078C71.652 43.0749 72.1146 42.4356 72.3737 41.8931C73.1657 40.2366 73.885 38.8925 74.0157 38.4565C74.4105 37.1318 74.6309 36.3931 74.8803 34.9352C75.0208 34.1142 75.464 31.3558 75.4083 28.7717C75.2654 22.3103 71.9935 16.6069 70.8649 14.7808C69.8429 13.1292 67.8086 9.90814 63.9385 6.95352C61.2285 4.88529 58.6202 3.70828 56.7651 3.03259V3.02533Z" fill="#C4E000"/>
<path d="M56.7651 3.02532C58.6202 3.70101 61.2309 4.87801 63.9385 6.94624C67.8062 9.90086 69.8429 13.1195 70.8649 14.7736C71.9959 16.5996 75.2678 22.303 75.4083 28.7644C75.464 31.3485 75.0208 34.1069 74.8803 34.9279C74.6309 36.3859 74.4105 37.1245 74.0157 38.4493C73.8849 38.8852 73.1657 40.2293 72.3737 41.8858C72.1437 42.3678 71.7513 42.9272 71.2621 42.9272C71.2016 42.9272 71.1386 42.9175 71.0756 42.9006C70.8892 42.8473 70.739 42.7117 70.6034 42.576C69.8793 41.8471 69.3586 40.9195 69.1115 39.9217C68.3753 36.9356 70.1117 33.8623 69.9059 30.7915C69.8211 29.52 69.0994 28.0379 67.8256 28.004C67.811 28.004 67.7965 28.004 67.7844 28.004C67.2153 28.004 66.6897 28.3018 66.1811 28.5658C65.1228 29.1131 64.0015 29.537 62.8487 29.83C62.6695 29.876 62.4758 29.9172 62.2917 29.9172C62.1464 29.9172 62.0059 29.8905 61.8752 29.8227C61.6378 29.6968 61.4925 29.4474 61.3859 29.2003C60.9984 28.3067 60.9524 27.3065 60.9137 26.3305C60.8507 24.7757 60.7878 23.1918 61.1825 21.6854C61.5773 20.1791 62.5 18.7332 63.9192 18.0915C64.837 17.6773 65.9777 17.5659 66.5759 16.7546C66.9319 16.2702 67.0046 15.6285 66.9295 15.0327C66.7285 13.4367 65.3214 11.9885 63.7399 11.9885C63.6503 11.9885 63.5607 11.9933 63.4711 12.003C62.4661 12.1071 61.5869 12.7562 60.9549 13.5457C60.3228 14.3352 59.8989 15.2652 59.4388 16.1613C59.3468 16.3381 59.2426 16.527 59.0658 16.6166C58.9908 16.6553 58.9084 16.6723 58.8237 16.6723C58.6662 16.6723 58.504 16.6141 58.3684 16.5294C57.5788 16.0402 57.4941 14.9019 57.7726 14.0155C58.0511 13.1291 58.596 12.3348 58.7776 11.4242C58.9593 10.5136 58.5936 9.37048 57.6878 9.15736C57.5837 9.13315 57.4771 9.12104 57.3706 9.12104C56.598 9.12104 55.8012 9.69259 55.0698 9.69259C54.8809 9.69259 54.6969 9.65384 54.5201 9.55939C53.716 9.13072 53.8226 7.94403 54.1447 7.09155C54.7187 5.57065 55.6196 4.17326 56.7651 3.02048M56.7651 2.53853C56.6368 2.53853 56.5132 2.58939 56.4212 2.68142C55.2321 3.8778 54.2876 5.34542 53.6918 6.92203C53.2922 7.97552 53.2123 9.41165 54.2924 9.99047C54.5274 10.1164 54.7913 10.1818 55.0723 10.1818C55.5203 10.1818 55.9465 10.0244 56.3607 9.8718C56.7264 9.7386 57.0703 9.61024 57.373 9.61024C57.4456 9.61024 57.5135 9.61751 57.5788 9.63204C58.177 9.77251 58.4386 10.6395 58.303 11.3297C58.2109 11.7971 58.0027 12.2428 57.7847 12.715C57.6152 13.0831 57.4384 13.4634 57.3124 13.8678C56.845 15.3548 57.3778 16.4834 58.1165 16.9387C58.2763 17.038 58.5282 17.1542 58.8285 17.1542C58.9932 17.1542 59.1506 17.1179 59.2911 17.0452C59.6204 16.8781 59.7803 16.5657 59.8772 16.3768C59.9522 16.2315 60.0249 16.0862 60.1 15.9409C60.4826 15.1828 60.8435 14.466 61.3423 13.8436C61.7129 13.381 62.4879 12.5891 63.5292 12.4801C63.6019 12.4728 63.6746 12.468 63.7472 12.468C65.038 12.468 66.278 13.6668 66.4548 15.086C66.496 15.4105 66.5153 16.0208 66.1908 16.4591C65.8663 16.8999 65.2705 17.0961 64.6409 17.3019C64.3381 17.4012 64.0257 17.5054 63.7254 17.6386C62.2965 18.2852 61.1995 19.7116 60.7199 21.5522C60.3034 23.1409 60.3712 24.766 60.4366 26.3402C60.4753 27.3016 60.5214 28.3939 60.95 29.382C61.0663 29.6508 61.2649 30.031 61.6548 30.2393C61.8437 30.3386 62.0592 30.3894 62.299 30.3894C62.5387 30.3894 62.7761 30.3386 62.9747 30.2877C64.1638 29.9874 65.3214 29.5491 66.4112 28.9848L66.5323 28.9218C66.9707 28.6942 67.3848 28.4786 67.7917 28.4786H67.8207C68.8233 28.5053 69.3658 29.8591 69.4288 30.8133C69.516 32.1017 69.2302 33.4434 68.9541 34.7415C68.5884 36.4658 68.2082 38.2507 68.6466 40.0259C68.9154 41.1157 69.4748 42.111 70.2643 42.9078C70.4387 43.0822 70.6542 43.2735 70.9449 43.3583C71.0514 43.3898 71.1604 43.4043 71.2694 43.4043C71.8627 43.4043 72.4125 42.9369 72.8193 42.0844C73.1172 41.462 73.4006 40.888 73.6524 40.3819C74.0981 39.4834 74.3935 38.8876 74.488 38.5776C74.89 37.2287 75.1104 36.4876 75.3671 35.0006C75.5463 33.9568 75.9556 31.2589 75.8999 28.745C75.7594 22.4023 72.6256 16.6771 71.2839 14.5096C70.3781 13.0468 68.2591 9.62235 64.2388 6.55391C62.0277 4.8659 59.5696 3.52179 56.9371 2.56275C56.8838 2.54338 56.8257 2.53369 56.77 2.53369L56.7651 2.53853Z" fill="#1D1D1B"/>
<path d="M7.36984 23.3008C6.54642 23.4389 6.12502 23.5043 5.56801 23.3832C5.32582 23.3299 4.19483 23.0829 4.05195 22.4411C3.91632 21.8308 4.78576 21.3682 4.58475 20.8863C4.4467 20.5521 4.00593 20.7192 3.64266 20.2711C3.31087 19.8643 3.31329 19.2782 3.31571 18.8786C3.31571 18.3361 3.44407 18.2901 3.35688 18.06C3.16556 17.5538 2.5262 17.6943 1.92317 17.1591C1.28865 16.5948 1.21115 15.7326 1.18694 15.4396C1.15061 15.0448 1.07069 14.1342 1.55505 13.8025C2.27191 13.3132 3.61602 14.5096 3.9696 14.1294C4.14155 13.9453 3.92601 13.5603 3.56032 12.5334C3.56032 12.5334 3.17767 11.4581 2.94518 10.5282C2.61581 9.21068 2.32519 8.04579 2.94518 7.2926C3.33267 6.82035 4.05437 6.53942 4.6235 6.71863C5.31371 6.9366 5.57527 7.76244 5.89253 8.76507C6.05479 9.27607 6.08627 9.59091 6.30182 11.262C6.53189 13.0299 6.58275 13.4004 6.63603 13.398C6.75227 13.3932 6.83946 11.647 6.91454 10.1164C6.97024 9.01452 6.98477 8.37031 7.36499 7.57838C7.59022 7.10612 7.89537 6.49098 8.51051 6.35052C9.02394 6.23185 9.61971 6.47887 9.94423 6.88332C10.2252 7.23448 10.2179 7.60018 9.94423 9.70958C9.78681 10.9253 9.89337 12.1653 9.72869 13.3786C9.70447 13.553 9.6633 13.8364 9.83041 14.0471C10.1719 14.4806 10.9372 14.0325 11.7848 14.3353C12.4581 14.575 13.049 15.2362 13.1774 15.9312C13.3953 17.1155 12.2328 18.1763 11.8672 18.5105C10.7773 19.5058 9.61002 19.6657 9.65603 20.0653C9.70205 20.4673 10.8839 20.3922 11.0486 20.9662C11.2375 21.6249 9.89822 22.5113 9.82072 22.5622C9.14745 23.0005 8.53473 23.1047 7.36499 23.2984L7.36984 23.3008Z" fill="#FFFAF0"/>
<path d="M6.15403 23.6835C5.94575 23.6835 5.7399 23.6641 5.51951 23.6132C4.52415 23.3953 3.93807 23.0078 3.82182 22.4895C3.72979 22.0802 3.96471 21.7412 4.15603 21.4675C4.31829 21.2326 4.41274 21.0824 4.36915 20.9735C4.34735 20.9202 4.30376 20.9008 4.14634 20.8499C3.95502 20.7894 3.69346 20.7046 3.46339 20.4189C3.07832 19.9466 3.08074 19.3024 3.08316 18.8762C3.08316 18.5977 3.11707 18.433 3.13645 18.324C3.15824 18.2126 3.16066 18.2005 3.13645 18.1424C3.07348 17.9777 2.93543 17.922 2.65208 17.8202C2.39537 17.7282 2.07811 17.612 1.76812 17.3359C1.06337 16.7086 0.978605 15.769 0.951965 15.459C0.913216 15.0255 0.823609 14.0132 1.42422 13.6039C1.92554 13.2624 2.59396 13.5385 3.1316 13.7589C3.34957 13.8485 3.71526 14.001 3.80487 13.9599C3.81698 13.8921 3.69346 13.5675 3.56511 13.2236C3.49972 13.0493 3.42464 12.8458 3.33988 12.6109C3.32535 12.5673 2.95239 11.5138 2.71989 10.5814C2.38568 9.24459 2.07085 7.98282 2.76591 7.13761C3.23574 6.56848 4.06642 6.28755 4.70094 6.48856C5.50983 6.74285 5.7956 7.64619 6.12497 8.68999C6.27997 9.17678 6.31871 9.49162 6.49066 10.8212L6.54394 11.2305C6.56332 11.3831 6.58269 11.5259 6.59965 11.664C6.63113 11.1385 6.66019 10.5742 6.68199 10.1043L6.68925 9.96387C6.74011 8.94913 6.77159 8.27586 7.15666 7.47666C7.38189 7.00441 7.72579 6.28755 8.46445 6.11802C9.05052 5.98482 9.73832 6.23669 10.1379 6.73316C10.4891 7.17151 10.4673 7.59049 10.1888 9.73864C10.1113 10.3271 10.0992 10.9399 10.0871 11.5308C10.0725 12.1459 10.0604 12.7829 9.97566 13.4101C9.95386 13.5675 9.92722 13.771 10.0289 13.8993C10.1282 14.0253 10.3292 14.0204 10.678 13.9986C11.0146 13.9792 11.4312 13.9526 11.8768 14.11C12.6445 14.3837 13.2814 15.1151 13.4243 15.8876C13.6665 17.2027 12.4435 18.3191 12.039 18.6873C11.4651 19.2128 10.8742 19.5107 10.4431 19.7311C10.2372 19.8352 9.98293 19.9636 9.91511 20.0411C9.9805 20.0943 10.1912 20.1621 10.3196 20.2033C10.6974 20.322 11.1648 20.4721 11.2883 20.9032C11.5159 21.7048 10.2227 22.5961 9.96113 22.7656C9.24427 23.2306 8.59522 23.3396 7.41338 23.5382C6.90479 23.6229 6.52457 23.6859 6.15645 23.6859L6.15403 23.6835ZM1.98366 13.9211C1.87226 13.9211 1.77296 13.9429 1.69062 13.9986C1.3225 14.2505 1.39758 15.0981 1.42422 15.4178C1.44844 15.6794 1.51867 16.4786 2.08295 16.9799C2.32514 17.1954 2.57216 17.285 2.81192 17.3722C3.11949 17.4836 3.43675 17.5974 3.57964 17.9752C3.64987 18.1617 3.62565 18.2852 3.59901 18.416C3.57964 18.5177 3.553 18.6461 3.553 18.8786C3.553 19.2588 3.55058 19.7771 3.82666 20.1186C3.96955 20.2953 4.12455 20.3438 4.28681 20.3971C4.46845 20.4552 4.69367 20.5278 4.80266 20.7918C4.95281 21.1503 4.73484 21.4651 4.5411 21.7412C4.38368 21.9664 4.23595 22.1819 4.28197 22.3878C4.34978 22.6954 4.84867 22.9811 5.61397 23.1483C6.11528 23.2597 6.50035 23.2015 7.32619 23.0635C8.4814 22.8697 9.06021 22.7729 9.69231 22.3612C10.2203 22.0173 10.9202 21.3779 10.8209 21.0292C10.7676 20.8451 10.4479 20.7434 10.167 20.6538C9.82066 20.5424 9.45981 20.431 9.42106 20.0919C9.37747 19.7286 9.73106 19.5494 10.2178 19.3024C10.6247 19.0965 11.1817 18.8132 11.7097 18.3313C12.0633 18.0092 13.141 17.0259 12.9472 15.9724C12.8358 15.3669 12.3151 14.7712 11.7097 14.5581C11.3585 14.4321 11.0098 14.4539 10.6998 14.4733C10.3074 14.4975 9.90301 14.5217 9.64629 14.1924C9.42106 13.9042 9.4695 13.5433 9.49614 13.352C9.57848 12.7441 9.59059 12.1217 9.60512 11.5187C9.61723 10.9156 9.63176 10.2908 9.71168 9.67567C9.97566 7.65103 9.9805 7.30471 9.76254 7.03105C9.48403 6.68231 8.9706 6.48856 8.56858 6.58301C8.09149 6.69199 7.83235 7.16425 7.58532 7.68252C7.24385 8.39695 7.21479 8.99514 7.16393 9.98809L7.15666 10.131C6.98229 13.6281 6.94354 13.6305 6.64808 13.6402C6.46402 13.6483 6.27109 12.8668 6.06927 11.2959L6.01599 10.8866C5.84888 9.59333 5.81013 9.28576 5.66967 8.84015C5.36694 7.88353 5.12718 7.12792 4.55563 6.94871C4.10517 6.80824 3.48034 7.02378 3.13402 7.44518C2.59154 8.10634 2.8652 9.201 3.18004 10.47C3.40769 11.3806 3.78307 12.4438 3.78791 12.4535C3.87026 12.686 3.94533 12.887 4.01072 13.059C4.25775 13.7153 4.38126 14.0422 4.14634 14.2917C3.87268 14.5823 3.42464 14.3982 2.94754 14.2021C2.6206 14.0664 2.26459 13.9211 1.98366 13.9211Z" fill="black"/>
<path d="M6.41062 18.9246C6.49296 18.6049 6.6528 18.2126 6.98459 17.8929C7.74504 17.1567 8.96322 17.2439 8.95595 17.1373C8.95111 17.0453 8.05503 17.2172 7.21466 16.7474C6.99428 16.6239 6.43484 16.3115 6.32101 15.7157C6.22172 15.1974 6.51476 14.7663 6.6189 14.6162C6.70608 14.4878 7.02334 14.0253 7.62637 13.9066C8.10105 13.8146 8.28026 14.173 9.02376 14.3425C9.43789 14.437 9.79632 14.4321 10.0312 14.4103" fill="#FFFAF0"/>
<path d="M6.64311 18.9851L6.18055 18.864C6.30164 18.3966 6.51718 18.014 6.81991 17.7209C7.07904 17.4715 7.38419 17.3068 7.67965 17.1978C7.49075 17.1421 7.29458 17.0646 7.09842 16.9556C6.85866 16.82 6.22172 16.464 6.0861 15.7617C5.96743 15.1441 6.3089 14.6452 6.42273 14.4805C6.72788 14.0349 7.11779 13.7613 7.58278 13.6717C7.9291 13.6038 8.15917 13.7225 8.4062 13.8485C8.58299 13.9381 8.78158 14.0398 9.08188 14.11C9.38461 14.1802 9.69945 14.202 10.0167 14.173L10.0579 14.6477C9.68976 14.6791 9.32649 14.6525 8.97532 14.5726C8.6169 14.4902 8.37956 14.3691 8.18823 14.2723C7.96058 14.156 7.8516 14.1052 7.67481 14.1391C7.33818 14.2045 7.04756 14.4103 6.81748 14.7494C6.72303 14.885 6.47601 15.2483 6.55593 15.6697C6.65038 16.1564 7.12748 16.4228 7.33091 16.5367C7.85887 16.8321 8.42315 16.8491 8.72588 16.8588C8.939 16.866 9.17876 16.8733 9.19329 17.1179C9.21024 17.3698 8.96079 17.4061 8.72346 17.44C8.34323 17.4933 7.63364 17.595 7.14927 18.0624C6.91194 18.2925 6.73999 18.6025 6.64069 18.9827L6.64311 18.9851Z" fill="black"/>
<path d="M4.43909 15.3475C5.42719 15.6987 5.78804 16.7909 5.42477 17.4569C5.07603 18.0939 4.03222 18.3893 3.20154 17.8323" fill="#FFFAF0"/>
<path d="M4.16304 18.3651C3.78039 18.3651 3.39775 18.2489 3.0708 18.0309L3.3372 17.6362C3.6811 17.8687 4.1025 17.9462 4.49725 17.8493C4.81693 17.7718 5.08575 17.5829 5.21653 17.3431C5.35458 17.0913 5.36184 16.7474 5.23833 16.4229C5.08818 16.0281 4.7685 15.7181 4.36163 15.5752L4.52147 15.1248C5.06154 15.3161 5.48535 15.7278 5.68636 16.2533C5.86316 16.7135 5.84378 17.1954 5.63793 17.5732C5.44176 17.9341 5.06638 18.2029 4.61108 18.3143C4.46335 18.3506 4.31319 18.3676 4.16546 18.3676L4.16304 18.3651Z" fill="black"/>
<path d="M18.9414 34.0465C17.7208 33.9133 13.2888 33.2836 9.74573 29.4959C7.01876 26.58 6.268 23.3396 6.03308 21.9858C6.2244 21.8018 6.75236 21.3416 7.58305 21.1987C8.32412 21.0704 8.91262 21.2617 9.16207 21.3586C9.23473 22.0609 9.61253 24.9525 12.124 27.2412C14.7565 29.6412 17.8516 29.6557 18.5176 29.646C19.4306 29.9972 20.0578 30.8448 20.1135 31.8063C20.1668 32.7048 19.7139 33.5645 18.939 34.0465H18.9414Z" fill="#8ADFFF"/>
<path d="M18.9994 34.2983L18.917 34.2886C17.2363 34.107 12.9642 33.2908 9.57121 29.6629C7.08401 27.0014 6.14676 24.0443 5.7956 22.0294L5.7738 21.901L5.86583 21.8114C6.13223 21.5571 6.70136 21.1066 7.54173 20.9613C8.26585 20.8354 8.87131 20.9856 9.25153 21.1357L9.38958 21.189L9.40411 21.3367C9.51067 22.366 10.0047 24.9816 12.2885 27.0643C14.6691 29.2343 17.4349 29.4232 18.515 29.4038H18.561L18.6046 29.4208C19.6072 29.8058 20.295 30.7358 20.358 31.7941C20.4161 32.7822 19.9221 33.7243 19.0696 34.2547L18.9994 34.2983ZM6.29692 22.0754C6.65292 24.0201 7.57321 26.8149 9.9248 29.3287C13.1507 32.7774 17.2024 33.6008 18.8831 33.7946C19.5418 33.3514 19.9196 32.603 19.8736 31.8208C19.8252 30.9683 19.2779 30.2151 18.4738 29.8882C17.3017 29.9051 14.4366 29.6775 11.9615 27.4203C9.6584 25.323 9.08201 22.7099 8.93912 21.5353C8.61702 21.4288 8.15929 21.344 7.62407 21.436C6.99924 21.545 6.54879 21.8526 6.29692 22.073V22.0754Z" fill="#1D1D1B"/>
<path d="M84.6619 43.0361C84.7927 42.9901 85.5579 42.7068 85.8243 41.9512C85.9527 41.583 85.9624 41.1059 85.7711 40.7621C85.0445 39.4591 81.1624 39.5729 80.3777 41.135C80.3632 41.1641 80.0677 41.7768 80.3414 42.3653C80.6489 43.0264 81.5547 43.3994 82.6372 43.2783" fill="#FFFAF0"/>
<path d="M82.228 43.5375C81.2399 43.5375 80.4383 43.1379 80.1234 42.4646C79.8013 41.7696 80.1476 41.0575 80.1646 41.0285C80.6659 40.0331 82.1481 39.6529 83.2669 39.6287C84.2938 39.602 85.5435 39.8612 85.9794 40.6458C86.2312 41.0987 86.1804 41.6582 86.0496 42.0311C85.7638 42.8473 84.9767 43.1815 84.7418 43.2638L84.5844 42.8134C84.7685 42.748 85.3836 42.4913 85.6016 41.8737C85.7202 41.5322 85.7057 41.1326 85.5652 40.8783C85.294 40.394 84.3713 40.0816 83.279 40.1058C82.2159 40.1276 80.9711 40.4884 80.5932 41.2416C80.5932 41.2464 80.3317 41.7768 80.5593 42.2636C80.8257 42.8352 81.6516 43.1476 82.6106 43.0386L82.6639 43.5133C82.5162 43.5302 82.3709 43.5375 82.2304 43.5375H82.228Z" fill="black"/>
<path d="M73.3255 34.7221C74.2022 34.7487 75.9507 34.9279 77.7138 36.0541C80.7507 37.9915 81.4628 41.2174 81.5935 41.8737C81.7606 41.973 82.3855 42.3096 83.2016 42.1692C84.1195 42.0117 84.616 41.3675 84.7177 41.2271C84.5772 40.2196 83.9379 36.5336 80.6757 33.6298C77.876 31.1378 74.7737 30.6728 73.6718 30.559C73.4393 30.8302 73.0881 31.3194 72.9186 32.0145C72.5892 33.3489 73.1656 34.4436 73.3255 34.7245V34.7221Z" fill="#8ADFFF"/>
<path d="M82.8117 42.4428C82.1699 42.4428 81.6783 42.2006 81.4724 42.082L81.378 42.0263L81.3562 41.9197C81.1334 40.7984 80.3196 38.0012 77.5854 36.2575C76.0015 35.2476 74.391 34.9957 73.3182 34.9642L73.1826 34.9594L73.1147 34.8407C72.875 34.4193 72.3519 33.2908 72.6837 31.9539C72.8217 31.3921 73.1002 30.8544 73.4901 30.3991L73.5725 30.3022L73.6984 30.3144C75.229 30.4718 78.1909 31.0893 80.8403 33.4458C83.9718 36.2333 84.7661 39.7909 84.9598 41.1907L84.9744 41.29L84.9163 41.37C84.7249 41.6267 84.1824 42.2442 83.2452 42.4065C83.0951 42.4331 82.9497 42.4428 82.8117 42.4428ZM81.8091 41.7139C82.0609 41.8422 82.555 42.0311 83.1604 41.927C83.841 41.8083 84.2696 41.3942 84.4634 41.1568C84.2503 39.7449 83.4535 36.4246 80.5158 33.809C78.0407 31.6076 75.2823 30.9852 73.7759 30.8108C73.478 31.1862 73.2649 31.6173 73.1535 32.0677C72.8919 33.1285 73.2455 34.044 73.4707 34.4823C74.6017 34.5356 76.234 34.8214 77.8421 35.8458C80.6466 37.6355 81.5402 40.4642 81.8066 41.7114L81.8091 41.7139Z" fill="#1D1D1B"/>
<path d="M40.9023 27.0934C40.786 26.999 39.7204 26.1562 38.4345 26.5146C38.2577 26.563 37.4076 26.8004 36.9693 27.6335C36.4825 28.5538 36.8748 29.4886 36.9693 29.7162C37.5045 30.995 38.8292 31.3655 39.0133 31.4115" fill="#8ADFFF"/>
<path d="M38.9526 31.644C38.6837 31.5738 37.3106 31.1499 36.7463 29.8058C36.3079 28.7596 36.5089 27.9822 36.756 27.5172C37.0708 26.9215 37.6448 26.4807 38.3713 26.2797C39.7348 25.8994 40.8488 26.7325 41.0571 26.9045L40.7495 27.2799C40.6406 27.1927 39.6597 26.425 38.5021 26.7471C37.9063 26.9142 37.4389 27.2678 37.187 27.7449C36.9909 28.1178 36.831 28.7475 37.1967 29.6194C37.6714 30.7528 38.846 31.1136 39.0785 31.1742L38.955 31.644H38.9526Z" fill="#1D1D1B"/>
<path d="M49.1605 29.784C49.4245 29.1761 51.8197 23.6278 50.9478 22.2497C50.6306 21.7484 50.2213 21.6346 50.2213 21.6346C49.6231 21.4699 49.0201 21.9446 48.7561 22.1505C47.1504 23.4122 46.0969 28.6409 45.9758 29.2585" fill="#FFFAF0"/>
<path d="M49.3785 29.8785L48.9402 29.6871C50.248 26.6938 51.3111 23.2742 50.7444 22.3757C50.4853 21.9664 50.1681 21.8671 50.1535 21.8647C49.674 21.7339 49.1339 22.1577 48.9014 22.3393C47.3757 23.5381 46.3222 28.7184 46.2084 29.3045L45.741 29.2125C45.9347 28.2268 46.9809 23.2403 48.6084 21.9615C48.8966 21.7363 49.5699 21.2059 50.2843 21.4021C50.3037 21.4069 50.788 21.545 51.1513 22.119C52.0377 23.5212 50.0203 28.4108 49.381 29.876L49.3785 29.8785Z" fill="black"/>
<path d="M47.0051 29.1543L47.3878 28.2316C47.4483 28.0863 47.596 27.9991 47.7535 28.0161C48.0877 28.0524 48.4219 28.0911 48.7537 28.1275C48.8772 28.142 48.9474 27.9918 48.8602 27.9022C48.0005 27.0183 48.0126 25.7347 48.6205 25.1365C49.1121 24.6546 50.03 24.5771 50.8461 24.9912L49.1145 29.7259C48.8433 29.583 48.4849 29.428 48.0465 29.3117C47.6493 29.2076 47.2933 29.164 47.0075 29.1495L47.0051 29.1543Z" fill="black"/>
<path d="M43.215 28.1469C43.4789 27.539 45.8741 21.9906 45.0023 20.6126C44.685 20.1113 44.2757 19.9975 44.2757 19.9975C43.6775 19.8328 43.0745 20.3075 42.8105 20.5133C41.2049 21.7751 40.1514 27.0038 40.0303 27.6213" fill="#61C5FF"/>
<path d="M43.4379 28.2437L42.9923 28.05C44.2977 25.059 45.3633 21.6394 44.7965 20.7434C44.5398 20.3365 44.2202 20.2372 44.208 20.2324C43.7309 20.1016 43.1909 20.5254 42.9608 20.707C41.4351 21.9034 40.384 27.0837 40.2677 27.6698L39.7906 27.5777C39.9844 26.5896 41.0306 21.6031 42.6581 20.3244C42.9463 20.0992 43.622 19.5688 44.3364 19.7649C44.3558 19.7698 44.8401 19.9078 45.2034 20.4842C46.0922 21.8889 44.0724 26.7785 43.4331 28.2437H43.4379Z" fill="#1D1D1B"/>
<path d="M45.4019 29.5224C45.8814 29.3311 46.8937 29.0163 48.0925 29.3699C48.8142 29.583 49.3543 29.9656 49.7006 30.2659" fill="#8ADFFF"/>
<path d="M49.5407 30.45C49.0757 30.048 48.5672 29.7646 48.0223 29.6023C46.9906 29.2972 46.0775 29.5127 45.4915 29.7476L45.3098 29.2972C45.9661 29.0332 46.993 28.7935 48.1603 29.1373C48.7706 29.319 49.3397 29.6362 49.858 30.0819L49.5407 30.45Z" fill="#1D1D1B"/>
<path d="M39.4587 27.8853C39.9383 27.694 40.9506 27.3791 42.1494 27.7327C42.8711 27.9458 43.4111 28.3285 43.7575 28.6288" fill="#8ADFFF"/>
<path d="M43.5976 28.8128C43.1326 28.4108 42.624 28.1275 42.0791 27.9652C41.0474 27.66 40.1344 27.8756 39.5483 28.1105L39.3667 27.66C40.023 27.3961 41.0499 27.1563 42.2172 27.5002C42.8275 27.6818 43.3966 27.9991 43.9149 28.4447L43.5976 28.8128Z" fill="#1D1D1B"/>
<path d="M45.2979 27.8926C45.2567 27.8417 44.8693 27.3888 44.2347 27.4203C44.1887 27.4203 43.6051 27.4615 43.2636 27.9434C42.8809 28.4835 42.9923 29.3118 43.513 29.755C44.0701 30.2272 44.8063 30.0093 44.862 29.9923" fill="#8ADFFF"/>
<path d="M44.392 30.2998C44.0844 30.2998 43.6945 30.2272 43.3579 29.9414C42.7476 29.4256 42.612 28.4472 43.0673 27.8054C43.4741 27.2314 44.1498 27.183 44.2273 27.1805C44.9563 27.1418 45.4068 27.6407 45.4891 27.74L45.1137 28.05C45.0798 28.0088 44.7626 27.6407 44.2515 27.6673C44.2467 27.6673 43.743 27.6964 43.4645 28.0887C43.1569 28.5247 43.2538 29.2197 43.6727 29.5733C44.1329 29.9608 44.7674 29.7719 44.794 29.7646L44.9369 30.2296C44.8933 30.2441 44.6778 30.3047 44.3944 30.3047L44.392 30.2998Z" fill="#1D1D1B"/>
<path d="M43.2608 22.8842C43.4352 22.9399 43.8251 23.0949 44.1206 23.4824C44.6558 24.1872 44.4112 25.0396 44.3821 25.1365C44.0431 24.8822 43.5248 24.5528 42.8297 24.3131C42.0693 24.0515 41.4009 24.0055 40.9601 24.0104" fill="#61C5FF"/>
<path d="M44.5131 25.5386L44.2346 25.3303C43.7841 24.9912 43.2828 24.7273 42.75 24.5432C42.1736 24.3446 41.5706 24.2574 40.9603 24.2526L40.9554 23.7658C41.6214 23.7561 42.2778 23.8675 42.9074 24.083C43.3676 24.2405 43.8035 24.4536 44.2104 24.72C44.2346 24.4269 44.2079 24.0007 43.9246 23.6302C43.6945 23.3299 43.3942 23.1846 43.1835 23.1167L43.3337 22.6542C43.6122 22.7438 44.0069 22.9351 44.3121 23.3371C44.9054 24.1145 44.6681 25.0324 44.6124 25.2092L44.5107 25.541L44.5131 25.5386Z" fill="#1D1D1B"/>
<path d="M40.4033 30.1424C40.8634 29.8034 41.6892 30.743 43.6001 31.4284C45.6368 32.1598 47.5476 32.1162 48.9329 31.9322C48.9741 32.511 49.0152 33.0898 49.0564 33.6686C47.2473 35.7828 44.5664 36.4658 42.6822 35.5068C40.304 34.2934 39.6598 30.6898 40.4033 30.1424Z" fill="#FFFAF0"/>
<path d="M44.5252 36.1728C43.8374 36.1728 43.1714 36.0275 42.5732 35.7199C40.8973 34.865 40.006 32.884 39.885 31.4066C39.8511 30.9925 39.8559 30.2514 40.2628 29.9511C40.6406 29.6726 41.0813 29.9172 41.7473 30.2902C42.239 30.5638 42.8493 30.9053 43.6799 31.2032C45.2783 31.7772 47.0366 31.9419 48.9014 31.6948L49.1533 31.6609L49.301 33.7485L49.238 33.8236C47.9496 35.33 46.1744 36.1704 44.5276 36.1704L44.5252 36.1728ZM40.6333 30.312C40.597 30.312 40.5679 30.3192 40.5461 30.3362C40.4202 30.4282 40.3136 30.7842 40.3621 31.3679C40.4541 32.4965 41.1782 34.4727 42.7911 35.2961C44.6075 36.2236 47.1262 35.5044 48.8118 33.5887L48.7149 32.201C46.8671 32.4117 45.1209 32.2276 43.5225 31.6537C42.6555 31.3413 41.9968 30.9756 41.5173 30.7067C41.1298 30.4888 40.8077 30.3096 40.6357 30.3096L40.6333 30.312Z" fill="black"/>
<path d="M40.0376 31.0264C40.2701 31.3388 40.5147 31.61 40.7641 31.8449C43.4669 34.3879 47.7341 33.7291 49.0637 33.47" fill="#FFFAF0"/>
<path d="M46.3124 33.981C44.4113 33.981 42.2365 33.5572 40.5994 32.0169C40.3257 31.7602 40.0714 31.472 39.8438 31.1668L40.2264 30.8835C40.4371 31.1668 40.672 31.4308 40.9239 31.6706C43.3263 33.9301 47.0244 33.6201 49.0152 33.2351L49.1072 33.7049C48.3589 33.8502 47.378 33.9834 46.3124 33.9834V33.981Z" fill="black"/>
<path d="M52.9605 29.7598C52.8443 29.6653 51.7787 28.8225 50.4927 29.181C50.3159 29.2294 49.4658 29.4668 49.0275 30.2999C48.5407 31.2201 48.933 32.155 49.0275 32.3826C49.5627 33.6613 50.8874 34.0319 51.0715 34.0779" fill="#8ADFFF"/>
<path d="M51.0085 34.3128C50.7396 34.2426 49.3665 33.8188 48.8022 32.4747C48.3638 31.4284 48.5648 30.651 48.8119 30.186C49.1267 29.5903 49.7007 29.1495 50.4272 28.9485C51.7907 28.5683 52.9047 29.4014 53.113 29.5733L52.8055 29.9487C52.6965 29.8615 51.7156 29.0938 50.558 29.4159C49.9622 29.583 49.4948 29.9366 49.243 30.4137C49.0468 30.7867 48.887 31.4163 49.2526 32.2882C49.7273 33.4216 50.9019 33.7824 51.1344 33.843L51.0109 34.3128H51.0085Z" fill="#1D1D1B"/>
<path d="M48.9257 35.9354C48.5528 36.2793 47.6446 37.0252 46.2472 37.3085C44.9733 37.5677 43.9392 37.3134 43.4548 37.1608" fill="#8ADFFF"/>
<path d="M45.1404 37.6621C44.426 37.6621 43.8181 37.5314 43.3798 37.3933L43.5251 36.9307C44.1281 37.1196 45.0823 37.2989 46.1963 37.0712C47.4048 36.8266 48.2573 36.2212 48.7586 35.7562L49.088 36.1122C48.5407 36.6183 47.6107 37.2771 46.2932 37.5459C45.8863 37.6282 45.4989 37.6621 45.138 37.6621H45.1404Z" fill="#1D1D1B"/>
<path d="M53.5585 16.5827C53.3914 16.556 52.7375 16.4713 52.0885 16.8757C51.3474 17.3383 51.1658 18.0939 51.1367 18.2344C51.5387 18.5444 52.1781 19.1208 52.677 20.0338C53.3018 21.1817 53.3745 22.257 53.3745 22.7898C53.5634 22.8455 53.9751 22.94 54.4764 22.8261C55.014 22.705 55.3628 22.412 55.5057 22.274C55.4282 21.4844 55.2562 20.4842 54.8809 19.3702C54.4885 18.2053 53.992 17.2705 53.5585 16.5778V16.5827Z" fill="#61C5FF"/>
<path d="M53.9993 23.1264C53.7208 23.1264 53.4811 23.078 53.3067 23.0271L53.1323 22.9763V22.7946C53.1323 22.1504 53.0161 21.1696 52.4639 20.1549C52.0982 19.4816 51.6017 18.9028 50.989 18.4305L50.8679 18.3361L50.9018 18.1859C50.9527 17.9559 51.1779 17.1615 51.9626 16.6723C52.6407 16.2485 53.3333 16.3017 53.5997 16.3453L53.7087 16.3623L53.7668 16.4567C54.3263 17.348 54.7792 18.3046 55.1134 19.3C55.4355 20.2566 55.6486 21.2519 55.7503 22.257L55.7624 22.3757L55.6777 22.458C55.4548 22.6711 55.077 22.9472 54.5346 23.0707C54.3457 23.1143 54.1664 23.1289 54.0018 23.1289L53.9993 23.1264ZM53.6167 22.6033C53.8298 22.6445 54.1107 22.6639 54.4256 22.5936C54.7961 22.5113 55.0698 22.3369 55.2538 22.1819C55.1521 21.2544 54.9511 20.3389 54.6532 19.455C54.3432 18.5322 53.9267 17.641 53.4157 16.8103C53.159 16.7861 52.6843 16.7934 52.2193 17.084C51.7107 17.4013 51.4976 17.8808 51.4128 18.1448C52.0207 18.6388 52.5172 19.2346 52.8901 19.9199C53.4399 20.9274 53.5925 21.9058 53.6143 22.6009L53.6167 22.6033Z" fill="#1D1D1B"/>
<path d="M47.5501 20.9928C47.5573 21.0291 47.6494 21.6322 47.2013 22.0221C46.8889 22.2933 46.516 22.2836 46.4288 22.2788C46.0728 21.775 45.6054 21.1987 45.0023 20.6126C44.283 19.9151 43.5734 19.4089 42.9801 19.0432C42.9874 18.9076 43.0261 18.4208 43.4136 18.014C43.9343 17.4715 44.6439 17.5272 44.7359 17.5369C45.1961 17.9558 45.6998 18.4668 46.206 19.0796C46.7654 19.7577 47.2038 20.4116 47.5452 20.9904L47.5501 20.9928Z" fill="#61C5FF"/>
<path d="M46.482 22.5234C46.4578 22.5234 46.436 22.5234 46.4166 22.5234L46.2979 22.5162L46.2301 22.4193C45.816 21.8332 45.3462 21.2859 44.8327 20.787C44.2321 20.2057 43.5661 19.6899 42.8541 19.2515L42.733 19.1765L42.7403 19.0336C42.75 18.8253 42.8178 18.2901 43.2416 17.8469C43.8253 17.2366 44.6124 17.2802 44.7625 17.2947L44.8424 17.302L44.903 17.3553C45.4358 17.8396 45.9395 18.3676 46.3972 18.9246C46.8986 19.5325 47.3587 20.1864 47.7583 20.8669L47.7801 20.9056L47.7874 20.9492C47.8358 21.2326 47.8019 21.8187 47.3587 22.2013C47.0414 22.4774 46.6733 22.5186 46.4796 22.5186L46.482 22.5234ZM43.2392 18.9198C43.9343 19.3581 44.5833 19.8691 45.1718 20.4407C45.6755 20.9299 46.1405 21.4651 46.5547 22.0366C46.6854 22.0269 46.8768 21.9858 47.0439 21.8405C47.3345 21.5886 47.3272 21.1987 47.3175 21.0752C46.9349 20.4334 46.499 19.8158 46.0243 19.2394C45.598 18.7236 45.1331 18.232 44.6414 17.7791C44.4404 17.7742 43.9609 17.8057 43.5952 18.1884C43.3554 18.4402 43.2707 18.7333 43.2416 18.9222L43.2392 18.9198Z" fill="#1D1D1B"/>
</g>
<path d="M23.0812 39.7145C21.5281 39.7145 20.1192 40.6246 19.4806 42.0402L8.65352 66.0402C7.47417 68.6545 9.38614 71.6145 12.2541 71.6145H73.1187C74.6717 71.6145 76.0806 70.7045 76.7193 69.2889L87.5463 45.2889C88.7257 42.6746 86.8137 39.7145 83.9458 39.7145H23.0812Z" fill="#FFFBF2" stroke="black" stroke-width="1.5"/>
<mask id="path-51-outside-2_612_4683" maskUnits="userSpaceOnUse" x="7.05188" y="60.0646" width="75" height="13" fill="black">
<rect fill="white" x="7.05188" y="60.0646" width="75" height="13"/>
<path fill-rule="evenodd" clip-rule="evenodd" d="M79.1571 62.0646L76.0371 68.9805C75.5197 70.1273 74.3783 70.8646 73.1202 70.8646H12.2556C9.93218 70.8646 8.38324 68.4665 9.33866 66.3487L11.2713 62.0646H79.1571Z"/>
</mask>
<path fill-rule="evenodd" clip-rule="evenodd" d="M79.1571 62.0646L76.0371 68.9805C75.5197 70.1273 74.3783 70.8646 73.1202 70.8646H12.2556C9.93218 70.8646 8.38324 68.4665 9.33866 66.3487L11.2713 62.0646H79.1571Z" fill="#27AE5F"/>
<path d="M79.1571 62.0646L80.5244 62.6814L81.4793 60.5646H79.1571V62.0646ZM76.0371 68.9805L74.6698 68.3637V68.3637L76.0371 68.9805ZM9.33866 66.3487L7.97136 65.7318L7.97136 65.7318L9.33866 66.3487ZM11.2713 62.0646V60.5646H10.3025L9.90404 61.4477L11.2713 62.0646ZM77.7897 61.4477L74.6698 68.3637L77.4044 69.5973L80.5244 62.6814L77.7897 61.4477ZM74.6698 68.3637C74.3949 68.9729 73.7886 69.3646 73.1202 69.3646V72.3646C74.9681 72.3646 76.6445 71.2817 77.4044 69.5973L74.6698 68.3637ZM73.1202 69.3646H12.2556V72.3646H73.1202V69.3646ZM12.2556 69.3646C11.0213 69.3646 10.1984 68.0906 10.706 66.9655L7.97136 65.7318C6.56808 68.8425 8.84309 72.3646 12.2556 72.3646V69.3646ZM10.706 66.9655L12.6386 62.6814L9.90404 61.4477L7.97136 65.7318L10.706 66.9655ZM11.2713 63.5646H79.1571V60.5646H11.2713V63.5646Z" fill="black" mask="url(#path-51-outside-2_612_4683)"/>
<defs>
<clipPath id="clip0_612_4683">
<rect width="84" height="40" fill="white" transform="translate(0.899902 0.332275)"/>
</clipPath>
</defs>
</svg>
