<svg width="95" height="73" viewBox="0 0 95 73" fill="none" xmlns="http://www.w3.org/2000/svg">
<mask id="path-1-outside-1_612_5030" maskUnits="userSpaceOnUse" x="7.59998" y="18.9323" width="72" height="54" fill="black">
<rect fill="white" x="7.59998" y="18.9323" width="72" height="54"/>
<path fill-rule="evenodd" clip-rule="evenodd" d="M12.8 20.9323C11.0327 20.9323 9.59998 22.3649 9.59998 24.1322V32.1196C9.59996 32.1238 9.59995 32.128 9.59995 32.1323V67.3322C9.59995 69.0996 11.0326 70.5322 12.7999 70.5322H74.4C76.1673 70.5322 77.6 69.0996 77.6 67.3322V32.1323C77.6 30.3649 76.1673 28.9323 74.4 28.9323H48.7434L44.8756 22.4859C44.2973 21.522 43.2556 20.9323 42.1316 20.9323H12.8Z"/>
</mask>
<path fill-rule="evenodd" clip-rule="evenodd" d="M12.8 20.9323C11.0327 20.9323 9.59998 22.3649 9.59998 24.1322V32.1196C9.59996 32.1238 9.59995 32.128 9.59995 32.1323V67.3322C9.59995 69.0996 11.0326 70.5322 12.7999 70.5322H74.4C76.1673 70.5322 77.6 69.0996 77.6 67.3322V32.1323C77.6 30.3649 76.1673 28.9323 74.4 28.9323H48.7434L44.8756 22.4859C44.2973 21.522 43.2556 20.9323 42.1316 20.9323H12.8Z" fill="#FFFBF2"/>
<path d="M9.59998 32.1196L11.1 32.1254V32.1196H9.59998ZM48.7434 28.9323L47.4572 29.704L47.8941 30.4323H48.7434V28.9323ZM44.8756 22.4859L43.5893 23.2576V23.2576L44.8756 22.4859ZM11.1 24.1322C11.1 23.1934 11.8611 22.4323 12.8 22.4323V19.4323C10.2042 19.4323 8.09998 21.5365 8.09998 24.1322H11.1ZM11.1 32.1196V24.1322H8.09998V32.1196H11.1ZM11.1 32.1323C11.1 32.13 11.1 32.1277 11.1 32.1254L8.09999 32.1138C8.09996 32.12 8.09995 32.1261 8.09995 32.1323H11.1ZM11.1 67.3322V32.1323H8.09995V67.3322H11.1ZM12.7999 69.0322C11.8611 69.0322 11.1 68.2711 11.1 67.3322H8.09995C8.09995 69.928 10.2042 72.0322 12.7999 72.0322V69.0322ZM74.4 69.0322H12.7999V72.0322H74.4V69.0322ZM76.1 67.3322C76.1 68.2711 75.3388 69.0322 74.4 69.0322V72.0322C76.9957 72.0322 79.1 69.928 79.1 67.3322H76.1ZM76.1 32.1323V67.3322H79.1V32.1323H76.1ZM74.4 30.4323C75.3388 30.4323 76.1 31.1934 76.1 32.1323H79.1C79.1 29.5365 76.9957 27.4323 74.4 27.4323V30.4323ZM48.7434 30.4323H74.4V27.4323H48.7434V30.4323ZM43.5893 23.2576L47.4572 29.704L50.0296 28.1605L46.1618 21.7141L43.5893 23.2576ZM42.1316 22.4323C42.7287 22.4323 43.2821 22.7456 43.5893 23.2576L46.1618 21.7141C45.3124 20.2985 43.7825 19.4323 42.1316 19.4323V22.4323ZM12.8 22.4323H42.1316V19.4323H12.8V22.4323Z" fill="black" mask="url(#path-1-outside-1_612_5030)"/>
<g clip-path="url(#clip0_612_5030)">
<path d="M58.7082 69.5837C59.4482 70.7736 58.6609 72.3098 59.7206 73.1031C60.2356 73.4879 60.6293 73.2807 61.7008 73.5442C62.3402 73.6951 63.5271 74.074 64.6046 75.0834C65.975 76.368 67.2123 78.7212 66.5167 80.2811C65.5518 82.439 61.2746 82.2022 56.7872 81.9565C55.2628 81.8736 48.5406 81.4059 48.0522 79.106C48.0286 78.9965 48.0522 78.5051 48.0966 77.5224C48.1529 76.3354 48.2358 75.0922 48.2831 74.6453C48.3571 73.9319 48.662 70.9542 50.66 69.3232C53.1227 67.3074 57.5657 67.7426 58.7112 69.5866L58.7082 69.5837Z" fill="#FF25FF"/>
<path d="M60.8779 82.4005C63.7521 82.4005 66.055 82.0157 66.7802 80.3995C67.5054 78.7804 66.3421 76.3147 64.8029 74.8703C63.9711 74.0918 62.9233 73.5353 61.7689 73.26C61.3042 73.1475 60.9638 73.1179 60.6885 73.0943C60.3303 73.0647 60.132 73.0469 59.8952 72.8693C59.4246 72.5171 59.4039 71.9783 59.3772 71.2946C59.3535 70.7026 59.3299 70.0336 58.9539 69.4298C58.4537 68.6247 57.3792 68.0297 56.0028 67.8018C54.4163 67.5383 52.1282 67.7396 50.4706 69.0923C49.5204 69.8679 48.3187 71.4544 47.9901 74.6039C47.9427 75.0479 47.8569 76.2792 47.8007 77.5047C47.7444 78.7035 47.7326 79.0202 47.7622 79.1623C48.2624 81.5214 54.2239 82.1045 56.7665 82.2436C58.1903 82.3206 59.5903 82.3975 60.8779 82.3975V82.4005ZM58.4596 69.7376C58.7527 70.2083 58.7734 70.7736 58.7941 71.3153C58.8237 72.0523 58.8503 72.816 59.543 73.334C59.913 73.6093 60.2297 73.6389 60.6352 73.6715C60.9046 73.6951 61.2065 73.7218 61.6298 73.8224C62.6865 74.074 63.6455 74.5831 64.4033 75.2906C65.7649 76.5693 66.8571 78.7923 66.2474 80.1568C65.3653 82.1311 61.0111 81.8914 56.7991 81.6605C52.9303 81.4474 48.6739 80.6452 48.3335 79.0409C48.3187 78.9403 48.3453 78.3483 48.3838 77.5313C48.44 76.3177 48.5229 75.1011 48.5703 74.6719C48.8781 71.7119 49.9763 70.2527 50.8406 69.5452C52.0838 68.5299 54.0729 68.0711 55.9081 68.376C57.1187 68.5773 58.0482 69.0716 58.4596 69.7347V69.7376Z" fill="black"/>
<path d="M56.3756 71.0343C57.2015 70.8685 60.0253 70.2528 60.0697 69.276C60.1141 68.3407 57.6129 67.3698 55.538 67.1655C52.131 66.8281 48.6145 68.4383 48.7181 69.3648C48.7655 69.7792 49.5558 70.238 52.501 70.5518" fill="#FF25FF"/>
<path d="M56.432 71.3214C59.0013 70.8064 60.3215 70.1226 60.3599 69.2879C60.4191 68.0417 57.5627 67.0708 55.5677 66.8725C52.8445 66.6032 49.8046 67.5711 48.7834 68.61C48.5199 68.8764 48.4015 69.1399 48.4311 69.3944C48.4903 69.9036 49.0143 70.4719 52.4745 70.8389L52.5367 70.2588C49.1741 69.9006 49.0202 69.3856 49.0113 69.3264C49.0054 69.276 49.0527 69.1665 49.1978 69.0156C50.0177 68.1838 52.8179 67.1833 55.5115 67.4497C57.7433 67.6688 59.8064 68.6544 59.7798 69.2583C59.762 69.6549 58.6846 70.2706 56.3195 70.7442L56.435 71.3155L56.432 71.3214Z" fill="black"/>
<path d="M57.0714 39.2822L51.6812 42.8608V68.7519C52.2762 69.0065 53.2589 69.341 54.5139 69.3735C55.9791 69.412 57.1187 69.0213 57.7433 68.7519C57.5183 58.9277 57.2934 49.1064 57.0684 39.2822H57.0714Z" fill="#A19085"/>
<path d="M54.7063 69.6666C55.7808 69.6666 56.8671 69.4446 57.8587 69.0183L58.0393 68.9414L57.3496 38.7464L51.3882 42.7039V68.9443L51.5658 69.0213C52.5011 69.4238 53.4927 69.6399 54.508 69.6666C54.5731 69.6666 54.6412 69.6666 54.7063 69.6666ZM57.4473 68.5566C56.5208 68.9236 55.5085 69.1071 54.5199 69.0805C53.6437 69.0568 52.7853 68.8822 51.9683 68.5566V43.0147L56.7872 39.8179L57.4443 68.5566H57.4473Z" fill="black"/>
<path d="M43.0498 69.5837C43.7898 70.7736 43.0024 72.3098 44.0621 73.1031C44.5772 73.4879 44.9708 73.2807 46.0424 73.5442C46.6817 73.6951 47.8687 74.074 48.9461 75.0834C50.3166 76.368 51.5539 78.7212 50.8583 80.2811C49.8933 82.439 45.6161 82.2022 41.1288 81.9565C39.6044 81.8736 32.8822 81.4059 32.3938 79.106C32.3701 78.9965 32.3938 78.5051 32.4382 77.5224C32.4944 76.3354 32.5773 75.0922 32.6247 74.6453C32.6987 73.9319 33.0036 70.9542 35.0016 69.3232C37.4643 67.3074 41.9072 67.7426 43.0528 69.5866L43.0498 69.5837Z" fill="#FF25FF"/>
<path d="M45.2195 82.4005C48.0937 82.4005 50.3965 82.0157 51.1217 80.3995C51.8469 78.7804 50.6837 76.3147 49.1445 74.8702C48.3127 74.0918 47.2649 73.5353 46.1105 73.26C45.6487 73.1475 45.3053 73.1179 45.0301 73.0942C44.6719 73.0646 44.4736 73.0469 44.2397 72.8693C43.7691 72.517 43.7484 71.9783 43.7217 71.2946C43.6981 70.7026 43.6744 70.0336 43.2985 69.4297C42.7982 68.6246 41.7237 68.0297 40.3473 67.8017C38.7608 67.5383 36.4727 67.7366 34.8151 69.0923C33.8649 69.8678 32.6661 71.4544 32.3346 74.6009C32.2873 75.0478 32.2014 76.2792 32.1452 77.5046C32.0889 78.7034 32.0771 79.0202 32.1067 79.1622C32.6069 81.5243 38.5713 82.1045 41.111 82.2436C42.5348 82.3206 43.9349 82.3975 45.2225 82.3975L45.2195 82.4005ZM42.8012 69.7376C43.0942 70.2082 43.1149 70.7706 43.1357 71.3153C43.1623 72.0523 43.1919 72.816 43.8845 73.3369C44.2545 73.6122 44.5713 73.6418 44.9768 73.6744C45.2461 73.6981 45.5481 73.7247 45.9713 73.8254C47.0281 74.077 47.9871 74.5861 48.7449 75.2935C50.1065 76.5722 51.1987 78.7952 50.5889 80.1597C49.7069 82.1341 45.3527 81.8943 41.1406 81.6634C37.2719 81.4503 33.0154 80.6482 32.675 79.0438C32.6602 78.9432 32.6869 78.3542 32.7253 77.5372C32.7816 76.3236 32.8645 75.107 32.9118 74.6749C33.2226 71.7149 34.3178 70.2556 35.1821 69.5482C36.4253 68.5329 38.4145 68.0741 40.2497 68.3789C41.4603 68.5802 42.3897 69.0775 42.8012 69.7376Z" fill="black"/>
<path d="M40.7173 71.0343C41.5432 70.8685 44.367 70.2528 44.4114 69.276C44.4558 68.3407 41.9546 67.3698 39.8796 67.1655C36.4727 66.8281 32.9562 68.4383 33.0598 69.3648C33.1072 69.7792 33.8975 70.238 36.8427 70.5518" fill="#FF25FF"/>
<path d="M40.7736 71.3214C43.3428 70.8064 44.663 70.1226 44.7015 69.2879C44.7607 68.0417 41.9043 67.0708 39.9092 66.8725C37.186 66.6032 34.1461 67.5711 33.1249 68.61C32.8615 68.8764 32.7431 69.1399 32.7727 69.3944C32.8319 69.9036 33.3558 70.4719 36.816 70.8389L36.8782 70.2588C33.5156 69.9006 33.3617 69.3856 33.3528 69.3264C33.3469 69.276 33.3943 69.1665 33.5393 69.0156C34.3592 68.1838 37.1594 67.1833 39.853 67.4497C42.0848 67.6688 44.148 68.6544 44.1213 69.2583C44.1036 69.6549 43.0261 70.2706 40.6611 70.7442L40.7765 71.3155L40.7736 71.3214Z" fill="black"/>
<path d="M41.413 39.2822L36.0229 42.8608V68.7519C36.6178 69.0065 37.6006 69.341 38.8556 69.3735C40.3208 69.412 41.4604 69.0213 42.085 68.7519C41.86 58.9277 41.635 49.1064 41.4101 39.2822H41.413Z" fill="#A19085"/>
<path d="M39.0479 69.6666C40.1224 69.6666 41.2087 69.4446 42.2003 69.0183L42.3809 68.9414L41.6912 38.7464L35.7297 42.7039V68.9443L35.9073 69.0213C36.8427 69.4238 37.8343 69.6399 38.8496 69.6666C38.9147 69.6666 38.9828 69.6666 39.0479 69.6666ZM41.7889 68.5566C40.8624 68.9236 39.853 69.1071 38.8614 69.0805C37.9853 69.0568 37.1269 68.8822 36.3099 68.5566V43.0147L41.1288 39.8179L41.7859 68.5566H41.7889Z" fill="black"/>
<path d="M82.7346 28.5196C82.6103 28.7327 81.1273 31.1688 78.1377 31.3908C75.1274 31.6158 73.2981 29.3987 73.1471 29.2093C73.1146 30.9705 73.082 32.7317 73.0495 34.4929C75.3553 36.4376 78.5403 36.9822 81.3375 35.8989C84.2442 34.7741 86.2688 32.0686 86.553 28.9429C85.2802 28.8008 84.0074 28.6617 82.7375 28.5196H82.7346Z" fill="#A19085"/>
<path d="M78.3833 36.7395C79.4134 36.7395 80.4494 36.553 81.441 36.1682C84.4306 35.0109 86.5499 32.1841 86.843 28.9666L86.8696 28.6824L82.5806 28.2088L82.4859 28.3716C82.3349 28.6291 80.9348 30.8906 78.1169 31.1007C75.2753 31.3138 73.5615 29.2626 73.375 29.0287L72.8688 28.3953L72.7534 34.629L72.86 34.7178C74.4376 36.0469 76.4001 36.7425 78.3833 36.7425V36.7395ZM86.2303 29.1974C85.8632 32.0775 83.9274 34.5817 81.2308 35.6236C78.5727 36.6537 75.5654 36.1653 73.3424 34.3538L73.4223 29.9286C74.2067 30.6686 75.8466 31.8496 78.1583 31.6779C80.9378 31.4707 82.4711 29.4579 82.8855 28.8245L86.2303 29.1945V29.1974Z" fill="black"/>
<path d="M74.6212 8.41822C74.3252 21.0456 74.7781 33.7854 74.4821 46.4128C55.8252 46.2618 36.4165 45.9984 17.7596 45.8474C17.7685 33.1253 17.7773 20.4033 17.7862 7.68414L74.6241 8.41822H74.6212Z" fill="#D3C0B1"/>
<path d="M74.7662 46.7088L74.7722 46.4217C74.9202 40.105 74.8817 33.6522 74.8432 27.4155C74.8047 21.1818 74.7633 14.7349 74.9142 8.42711L74.9202 8.13111L17.4932 7.39111L17.4666 46.1405H17.7566C27.0836 46.2174 36.7598 46.324 46.1164 46.4246C55.473 46.5253 65.1492 46.6318 74.4791 46.7058H74.7662V46.7088ZM74.3252 8.70535C74.1831 14.9302 74.2246 21.2765 74.263 27.4185C74.3015 33.5575 74.34 39.9038 74.2009 46.1198C64.9627 46.0458 55.3871 45.9392 46.1282 45.8386C36.8664 45.7379 27.2967 45.6343 18.0556 45.5574L18.0793 7.97719L74.3282 8.70239L74.3252 8.70535Z" fill="black"/>
<path d="M71.2557 11.8548L71.1196 42.7099L21.2761 42.2422L21.3797 11.6032L71.2557 11.8548Z" fill="#0077FB"/>
<path d="M71.4067 43.0029L71.5458 11.5677L21.0926 11.3131L20.986 42.5293L71.4067 43.0029ZM70.9656 12.1419L70.8324 42.4198L21.5662 41.958L21.6668 11.8933L70.9627 12.1419H70.9656Z" fill="black"/>
<path d="M21.498 34.6172C22.3387 34.339 23.5996 33.8713 25.0382 33.1046C28.9069 31.0474 29.7091 29.1619 31.5324 28.0667C36.6651 24.9765 42.0848 32.8264 48.7212 30.6715C53.6703 29.0642 53.1641 23.8842 59.4186 20.3441C63.536 18.0116 67.9316 17.8932 71.0573 18.1803C71.078 26.3588 71.0988 34.5343 71.1224 42.7128L21.279 42.2451L21.498 34.6202V34.6172Z" fill="#00B155"/>
<path d="M71.4126 43.0059L71.3474 17.911L71.084 17.8873C66.5552 17.4729 62.5829 18.2129 59.2766 20.0895C56.0827 21.8981 54.6205 24.124 53.3329 26.0835C52.0838 27.9839 51.0063 29.6237 48.6354 30.3933C45.4622 31.4234 42.5763 30.0884 39.785 28.7979C36.8694 27.4481 34.1136 26.1753 31.3874 27.8181C30.6534 28.2591 30.091 28.8127 29.4398 29.4491C28.46 30.4111 27.2405 31.6069 24.905 32.8471C23.7891 33.4391 22.614 33.9423 21.4093 34.339L21.2139 34.4041L20.9801 42.5323L71.4155 43.0059H71.4126ZM70.7643 18.4438L70.8265 42.4139L21.578 41.9521L21.7823 34.8274C22.9485 34.4307 24.0881 33.9364 25.1744 33.3622C27.5839 32.0805 28.8359 30.8521 29.8423 29.8635C30.4669 29.2507 31.0056 28.7209 31.6805 28.3154C34.1432 26.8324 36.7628 28.0431 39.5334 29.3247C42.2921 30.6005 45.4208 32.045 48.81 30.9468C51.3763 30.1121 52.507 28.3923 53.8154 26.4032C55.0674 24.497 56.4882 22.3362 59.5607 20.5957C62.7013 18.8167 66.4664 18.0945 70.7643 18.4438Z" fill="#1D1D1B"/>
<path d="M68.7189 29.677L64.643 29.7362L64.7821 33.2823L68.8254 33.2172L68.7189 29.677Z" fill="#FFDC50"/>
<path d="M64.5039 33.5783L69.1274 33.5043L69.0031 29.381L64.3411 29.4491L64.5039 33.5783ZM68.5266 32.93L65.0634 32.9863L64.945 30.0233L68.4348 29.973L68.5236 32.933L68.5266 32.93Z" fill="black"/>
<path d="M68.4614 23.0054L64.3855 23.0646L64.5246 26.6107L68.568 26.5455L68.4614 23.0054Z" fill="#FFDC50"/>
<path d="M64.2465 26.9066L68.87 26.8326L68.7457 22.7094L64.0837 22.7774L64.2465 26.9066ZM68.2691 26.2584L64.8059 26.3146L64.6875 23.3517L68.1774 23.3014L68.2662 26.2614L68.2691 26.2584Z" fill="black"/>
<path d="M68.2987 16.132L64.2198 16.1912L64.3619 19.7403L68.4053 19.6751L68.2987 16.132Z" fill="#FFDC50"/>
<path d="M64.0806 20.0363L68.7041 19.9623L68.5798 15.839L63.9178 15.9071L64.0806 20.0363ZM68.1032 19.388L64.64 19.4443L64.5216 16.4813L68.0115 16.431L68.1003 19.391L68.1032 19.388Z" fill="black"/>
<path d="M49.994 46.2677L50.0147 49.2159C51.9328 49.5089 54.4932 49.9766 57.4858 50.7432C60.0432 51.3974 60.1764 51.5661 60.1764 51.6786C60.1616 52.4541 53.2885 53.1586 46.9985 53.0402C41.2561 52.9336 34.8625 52.1196 34.8684 51.4004C34.8684 51.1991 35.3716 51.057 37.4258 50.6012C40.5664 49.9056 43.2274 49.3876 45.2373 49.0205C45.3379 48.0911 45.4386 47.1616 45.5422 46.2352L49.994 46.2707V46.2677Z" fill="#D3C0B1"/>
<path d="M48.3808 53.3421C53.62 53.3421 59.4749 52.8241 60.3066 52.022C60.4369 51.8977 60.4665 51.7674 60.4665 51.6816C60.4724 51.3441 60.3629 51.1754 57.5568 50.4591C55.1592 49.8464 52.7202 49.3432 50.3018 48.9643L50.2811 45.9777L45.2787 45.9362L44.9709 48.7689C42.4608 49.2307 39.9004 49.7517 37.3637 50.3141C35.0223 50.8321 34.5842 50.9445 34.5783 51.3945C34.5783 51.6697 34.5694 52.1848 38.7401 52.7353C41.1554 53.055 44.2398 53.277 46.9926 53.3273C47.4484 53.3362 47.9102 53.3392 48.3808 53.3392V53.3421ZM59.7442 51.7082C58.6638 52.2321 53.0665 52.8597 47.0044 52.7472C41.259 52.6406 36.301 51.9154 35.2976 51.427C35.715 51.279 36.7184 51.057 37.488 50.8853C40.0928 50.3081 42.7154 49.7783 45.2876 49.3047L45.5007 49.2662L45.7997 46.5253L49.701 46.5578L49.7217 49.4675L49.9674 49.506C52.4449 49.8849 54.949 50.3969 57.4118 51.0274C58.8503 51.3945 59.4719 51.5987 59.7442 51.7112V51.7082Z" fill="black"/>
<path d="M10.4987 51.0837C10.4839 51.0896 10.694 51.5514 10.848 52.0398C11.0759 52.765 11.2061 53.1675 11.0463 53.5375C10.8272 54.0466 10.1435 54.2834 9.62547 54.3308C8.72859 54.4107 8.38523 53.7566 7.67779 53.9993C7.29891 54.1295 7.27227 54.3604 6.78683 54.4936C6.31323 54.6238 5.90475 54.5291 5.76267 54.4936C5.23283 54.3663 4.88947 54.0674 4.72075 53.9194C4.17315 53.4339 4.22643 53.1083 3.84755 52.9751C3.39171 52.8153 3.09867 53.2415 2.72571 53.1409C1.76963 52.8863 1.61275 50.613 1.60387 50.465C1.48843 48.5825 2.13963 44.9624 5.10259 43.8968C7.14499 43.1627 8.98611 44.107 9.20219 44.2224C9.49819 44.4799 9.94515 44.8677 10.4927 45.3324C11.7537 46.4039 11.6767 46.3062 11.804 46.4365C12.9584 47.6353 13.0383 49.2781 13.0916 50.4414C13.1449 51.581 12.9377 51.9539 12.7246 52.167C12.4434 52.4482 11.9609 52.617 11.5495 52.4897C10.7947 52.2558 10.5283 51.0748 10.5046 51.0837H10.4987Z" fill="#FFFAF0"/>
<path d="M6.28374 54.8547C6.45542 54.8547 6.65373 54.834 6.86389 54.7778C7.18653 54.689 7.3523 54.5558 7.4855 54.4492C7.58022 54.3752 7.6483 54.319 7.77262 54.2775C8.02422 54.1917 8.1959 54.2568 8.50374 54.39C8.79086 54.5143 9.15198 54.6682 9.65518 54.6238C10.2531 54.5706 11.0464 54.2834 11.3187 53.6559C11.443 53.3688 11.4341 53.0846 11.3572 52.7294C11.3927 52.7442 11.4282 52.7561 11.4637 52.7679C11.9462 52.9189 12.5501 52.7561 12.9319 52.3742C13.1894 52.1167 13.444 51.6816 13.3848 50.4295C13.3285 49.2692 13.2457 47.5139 12.0143 46.2352C11.9521 46.1701 11.9314 46.1523 11.8071 46.0517C11.668 45.9392 11.3838 45.7054 10.6823 45.1104C10.1347 44.6457 9.6907 44.2609 9.39174 44.0034L9.33846 43.9649C8.98326 43.7754 7.1007 42.8697 5.00206 43.6245C1.82302 44.767 1.19846 48.6121 1.31094 50.4858C1.33758 50.9238 1.52406 53.1261 2.64886 53.425C2.91822 53.4961 3.14613 53.4014 3.32965 53.3244C3.51021 53.2474 3.61974 53.206 3.74998 53.2534C3.85062 53.2889 3.88614 53.3392 3.98974 53.502C4.09334 53.6648 4.23542 53.8838 4.5255 54.1414C4.69126 54.2894 5.08198 54.6327 5.69174 54.7807C5.78646 54.8044 6.00254 54.8577 6.28374 54.8577V54.8547ZM7.9887 53.6559C7.86142 53.6559 7.72822 53.6766 7.58318 53.727C7.36414 53.801 7.2339 53.9046 7.12142 53.9963C7.00598 54.0881 6.91717 54.1591 6.70702 54.2183C6.3015 54.3308 5.9463 54.245 5.83086 54.2183C5.36022 54.1029 5.0583 53.8365 4.91326 53.7062C4.68238 53.502 4.57582 53.3362 4.4811 53.1882C4.35974 53.0018 4.23838 52.8094 3.94534 52.7058C3.5931 52.5814 3.30894 52.6998 3.10174 52.7886C2.96262 52.8478 2.87086 52.8834 2.79982 52.8626C2.23446 52.7117 1.94438 51.3027 1.8911 50.4502C1.7875 48.7275 2.34398 45.1992 5.19742 44.175C7.01486 43.5209 8.65174 44.2698 9.03358 44.4681C9.33254 44.7256 9.76766 45.1045 10.3034 45.5574C11.0079 46.1582 11.298 46.3921 11.4371 46.5046C11.5318 46.5815 11.5466 46.5904 11.594 46.6407C12.6744 47.7596 12.7484 49.3195 12.8017 50.4562C12.8579 51.6224 12.6181 51.8592 12.5175 51.9628C12.3251 52.1552 11.9492 52.3091 11.6384 52.2114C11.3157 52.1108 11.0375 51.729 10.8155 51.0748C10.78 50.9682 10.7445 50.8706 10.6231 50.8173L10.5047 50.767L10.3863 50.8202C10.1258 50.9386 10.2235 51.1814 10.3093 51.3945C10.3153 51.4093 10.3212 51.4241 10.3271 51.4418C10.3419 51.4833 10.3597 51.5306 10.3804 51.578C10.4425 51.7378 10.5165 51.9332 10.5787 52.1315C10.8037 52.8419 10.8984 53.1675 10.7859 53.425C10.629 53.7921 10.0637 54.0022 9.60782 54.0437C9.25262 54.0762 9.00397 53.9697 8.74053 53.8542C8.52149 53.7595 8.28174 53.6559 7.99758 53.6559H7.9887Z" fill="black"/>
<path d="M6.78681 51.2287C6.75721 51.4714 6.68025 52.3387 7.24265 53.1409C7.54752 53.576 7.92049 53.8217 8.15137 53.9489" fill="#FFFAF0"/>
<path d="M8.00933 54.2065L8.29053 53.6944C7.96493 53.5168 7.68668 53.2681 7.48244 52.9751C7.0118 52.3002 7.04141 51.5543 7.07693 51.2642L6.49677 51.1932C6.44349 51.6342 6.43461 52.4985 7.00293 53.3096C7.26045 53.6766 7.60677 53.9874 8.00933 54.2065Z" fill="black"/>
<path d="M3.86232 51.1342C3.79424 51.2378 3.5456 51.6374 3.61072 52.188C3.67584 52.7385 4.00736 53.0701 4.09912 53.1559" fill="#FFFAF0"/>
<path d="M3.90082 53.369L4.30042 52.9428C4.19682 52.8451 3.95114 52.5757 3.90378 52.1554C3.85346 51.7351 4.03106 51.4124 4.10802 51.297L3.62258 50.9744C3.5101 51.146 3.25258 51.6108 3.32658 52.2235C3.39762 52.8362 3.75578 53.2299 3.90674 53.369H3.90082Z" fill="black"/>
<path d="M5.16478 46.1109C5.00494 46.0546 4.06958 45.7083 3.74398 44.7848C3.5871 44.3349 3.57526 43.7518 3.8091 43.3314C4.6971 41.739 9.44198 41.8781 10.401 43.7873C10.4188 43.8228 10.7799 44.5717 10.4454 45.291C10.0695 46.099 8.96246 46.5549 7.63934 46.4069" fill="#FFFAF0"/>
<path d="M8.13964 46.7236C9.34732 46.7236 10.3271 46.2352 10.7119 45.4123C11.1115 44.5569 10.6793 43.6925 10.6616 43.6541C10.0518 42.4405 8.23733 41.9757 6.86981 41.9461C5.62069 41.9195 4.0874 42.2303 3.5546 43.1893C3.24676 43.7399 3.30892 44.4237 3.46876 44.8825C3.81804 45.88 4.78005 46.2885 5.06717 46.3891L5.25957 45.8385C5.03461 45.7586 4.28276 45.4419 4.01636 44.6901C3.87132 44.2727 3.88908 43.7843 4.06076 43.4765C4.39228 42.8845 5.51116 42.5056 6.855 42.5322C8.15444 42.5589 9.67588 42.9999 10.1376 43.9205C10.1406 43.9264 10.4573 44.5717 10.1791 45.1696C9.85348 45.8681 8.84708 46.25 7.67196 46.1168L7.60684 46.6969C7.7874 46.7177 7.96501 46.7265 8.13669 46.7265L8.13964 46.7236Z" fill="black"/>
<path d="M19.0236 35.9462C17.9521 35.9788 15.815 36.1978 13.6601 37.5742C9.94823 39.9422 9.07799 43.8849 8.91815 44.6871C8.71391 44.8085 7.95023 45.2199 6.95271 45.0482C5.83087 44.8558 5.22407 44.0685 5.09975 43.8968C5.27143 42.6654 6.05287 38.1603 10.04 34.6113C13.4618 31.5654 17.2535 30.9971 18.6003 30.858C18.8845 31.1895 19.3137 31.7874 19.5209 32.6369C19.9234 34.2679 19.219 35.6058 19.0236 35.9492V35.9462Z" fill="#A19085"/>
<path d="M7.42916 45.3797C8.2106 45.3797 8.81149 45.0867 9.06309 44.9387L9.17556 44.8736L9.20221 44.7463C9.47453 43.3758 10.472 39.957 13.8139 37.8229C15.7497 36.5885 17.7181 36.2807 19.0294 36.2393L19.1922 36.2333L19.2721 36.0913C19.5652 35.5762 20.2016 34.1998 19.799 32.5659C19.6303 31.8792 19.2899 31.2221 18.8163 30.6685L18.7186 30.5531L18.5676 30.5679C16.6969 30.7603 13.0768 31.5151 9.84156 34.3952C6.01724 37.8021 5.04636 42.1474 4.8066 43.8583L4.78885 43.9767L4.85988 44.0714C5.09076 44.3852 5.75381 45.14 6.89933 45.3353C7.08285 45.3679 7.26044 45.3797 7.42916 45.3797ZM8.65756 44.4977C8.34972 44.6545 7.73997 44.8884 6.99997 44.7611C6.16229 44.6161 5.64132 44.1069 5.40452 43.8169C5.66204 42.0941 6.63588 38.0301 10.2323 34.8303C13.2574 32.1367 16.6348 31.376 18.4759 31.1658C18.8459 31.6305 19.1004 32.1456 19.2396 32.708C19.5622 34.0104 19.1241 35.1293 18.8488 35.665C17.4665 35.7272 15.4715 36.0794 13.5031 37.3315C10.0754 39.5189 8.98316 42.9762 8.66052 44.5006L8.65756 44.4977Z" fill="black"/>
<path d="M10.4928 51.8947L11.0197 51.6461C10.9013 51.3974 10.8302 51.1369 10.8036 50.8676C10.7503 50.3377 10.8894 49.8967 11.0167 49.6185L10.4869 49.3757C10.2619 49.8671 10.1701 50.4029 10.2234 50.9238C10.256 51.2583 10.3477 51.5839 10.4928 51.8917V51.8947Z" fill="black"/>
<path d="M81.8762 28.0934C82.2699 29.381 84.1554 29.6622 84.5639 29.7243C84.8984 29.7747 86.8816 30.0707 87.4913 28.9991C87.6926 28.6439 87.6837 28.2473 87.6334 27.9543C88.3823 27.6079 89.3946 27.0041 90.1465 25.9207C90.6023 25.2695 90.5194 25.0771 90.9309 24.2898C92.2185 21.83 94.2461 21.3387 94.101 20.1547C94.0685 19.8853 93.9086 19.4768 93.2278 19.0269C93.2752 18.9499 93.5889 18.4231 93.3817 17.834C93.1864 17.2716 92.5973 16.8868 91.9254 16.9046C91.9728 16.7655 92.3191 15.6999 91.7774 15.1434C91.3808 14.7349 90.7148 14.8207 90.3714 14.8622C88.1396 15.1404 85.1589 17.8074 84.3034 18.5918C84.8362 16.3008 84.5047 14.3353 83.4746 13.7226C82.6488 13.2342 81.9354 13.4503 81.9354 13.4503C81.8437 13.4769 81.3168 13.6397 81.0593 14.1133C80.8609 14.4774 80.9083 14.8711 81.4825 16.7388C81.8407 17.9051 81.9532 18.1774 81.8525 18.6155C81.7193 19.1927 81.3701 19.3969 81.0297 19.8468C79.9522 21.2617 80.3281 23.2863 80.4554 23.9819C80.7337 25.4886 81.4737 26.5275 81.8881 27.0307C81.8141 27.2883 81.7489 27.676 81.8733 28.0875L81.8762 28.0934Z" fill="#FFFAF0"/>
<path d="M85.5229 30.0914C86.3724 30.0914 87.3137 29.899 87.7429 29.1442C87.9086 28.8541 87.9767 28.5107 87.9471 28.1259C88.9772 27.6168 89.7971 26.933 90.3862 26.0865C90.6674 25.681 90.7591 25.4382 90.8657 25.1541C90.9397 24.9617 91.0226 24.7426 91.1883 24.423C91.807 23.2419 92.6032 22.5315 93.2455 21.9602C93.9352 21.3446 94.4798 20.8621 94.3881 20.1162C94.3348 19.687 94.0714 19.2903 93.5978 18.9322C93.7132 18.6569 93.8227 18.2158 93.654 17.7363C93.4557 17.165 92.9229 16.7477 92.2954 16.6382C92.399 16.1646 92.4552 15.4216 91.9816 14.9362C91.4814 14.4241 90.7058 14.5218 90.3299 14.5691C88.5036 14.797 86.2422 16.4961 84.7474 17.7955C85.0552 15.7265 84.6408 14.0748 83.6196 13.471C82.6961 12.9234 81.8791 13.1602 81.8466 13.172C81.6275 13.2401 81.0829 13.4502 80.7987 13.9771C80.5442 14.4478 80.6093 14.9006 81.1983 16.8276L81.3049 17.1739C81.5772 18.053 81.6334 18.2514 81.5624 18.5562C81.4854 18.8907 81.3256 19.0654 81.1036 19.311C81.0089 19.4176 80.8994 19.536 80.7928 19.6781C79.6384 21.1966 80.035 23.3396 80.1653 24.0441C80.4198 25.4205 81.0503 26.4535 81.5683 27.1077C81.4825 27.4866 81.4914 27.8447 81.592 28.1792C81.885 29.1382 82.8944 29.7717 84.5135 30.0114C84.7977 30.0529 85.1499 30.0914 85.517 30.0914H85.5229ZM91.9698 17.1946C92.4907 17.1946 92.9554 17.4936 93.1064 17.9287C93.2633 18.3757 93.0265 18.793 92.9791 18.873L92.8311 19.1127L93.0679 19.2666C93.5238 19.5656 93.7724 19.8764 93.8109 20.1842C93.8612 20.6046 93.5208 20.9331 92.8578 21.5222C92.2184 22.0934 91.3393 22.8749 90.6733 24.1506C90.4898 24.5029 90.401 24.7367 90.321 24.9469C90.2204 25.2133 90.1464 25.4057 89.9066 25.752C89.3413 26.563 88.5362 27.2142 87.509 27.6878L87.3078 27.7826L87.3433 28.0016C87.3995 28.342 87.364 28.6291 87.2367 28.8541C86.7631 29.6858 85.1026 29.5082 84.6053 29.4342C83.2437 29.23 82.3734 28.7238 82.1544 28.0075C82.0715 27.7382 82.0774 27.4392 82.1722 27.1166L82.2136 26.9686L82.1159 26.8502C81.6275 26.2582 80.9911 25.2725 80.7454 23.9346C80.627 23.2922 80.2659 21.3416 81.2634 20.0303C81.3552 19.909 81.4499 19.8054 81.5417 19.7047C81.7814 19.4413 82.0271 19.1719 82.1366 18.6894C82.2432 18.2218 82.1485 17.9139 81.8673 17.0052L81.7607 16.6618C81.2161 14.8888 81.1746 14.5218 81.3167 14.2613C81.4973 13.9268 81.8702 13.7847 82.0212 13.7374C82.0449 13.7314 82.6339 13.5686 83.3266 13.9801C84.2323 14.5188 84.5165 16.3895 84.0192 18.5326L83.8061 19.4561L84.5017 18.8138C85.6028 17.7985 88.3822 15.4127 90.4069 15.1582C90.7088 15.1197 91.2712 15.0486 91.5672 15.3535C91.9846 15.7798 91.6856 16.7122 91.6501 16.8187L91.5169 17.2154L91.9342 17.2035C91.9342 17.2035 91.9579 17.2035 91.9698 17.2035V17.1946Z" fill="black"/>
<path d="M83.5899 18.8493C83.7172 18.8789 85.0433 19.2163 85.5406 20.4743C85.9698 21.5577 85.5998 22.866 84.6023 23.6711" fill="#FFFAF0"/>
<path d="M84.7858 23.899C85.8662 23.0258 86.2895 21.5754 85.8129 20.3678C85.2653 18.9825 83.8208 18.6036 83.658 18.5651L83.5219 19.1334C83.6551 19.166 84.8302 19.4738 85.2683 20.5809C85.6531 21.5518 85.3038 22.7298 84.4187 23.4432L84.7858 23.8961V23.899Z" fill="black"/>
<path d="M86.4849 19.8972C86.8578 20.0984 87.3847 20.4448 87.8909 21.0042C88.5184 21.6998 88.8233 22.4102 88.9742 22.8483" fill="#FFFAF0"/>
<path d="M88.696 22.943L89.2495 22.7535C89.0009 22.0283 88.6161 21.3742 88.107 20.8088C87.6837 20.3382 87.1834 19.9475 86.624 19.6426L86.3458 20.1547C86.846 20.427 87.293 20.7792 87.6748 21.1995C88.1306 21.7057 88.477 22.2918 88.699 22.943H88.696Z" fill="black"/>
<path d="M91.9253 16.9048C91.3451 17.0883 90.6732 17.3577 89.9628 17.7543C88.5627 18.5417 87.6067 19.5066 87.0087 20.2259" fill="#FFFAF0"/>
<path d="M87.2367 20.4124C88.0507 19.4326 89.0186 18.6216 90.1079 18.0088C90.7118 17.6714 91.3511 17.3932 92.0142 17.183L91.8366 16.6265C91.135 16.8485 90.4572 17.1416 89.8208 17.4997C88.6664 18.148 87.6452 19.0004 86.7868 20.0394L87.2367 20.4124Z" fill="black"/>
<path d="M93.2277 19.0269C92.5794 19.3436 91.8838 19.7225 91.1616 20.1754C90.1759 20.7911 89.3264 21.4275 88.613 22.0254" fill="#FFFAF0"/>
<path d="M88.7995 22.2503C89.5958 21.5843 90.4423 20.9716 91.3185 20.424C91.9756 20.0126 92.6594 19.6337 93.3579 19.2903L93.1004 18.7664C92.3841 19.1157 91.6826 19.5064 91.0077 19.9297C90.1078 20.4921 89.2406 21.1226 88.4266 21.8034L88.7995 22.2503Z" fill="black"/>
<path d="M40.9423 15.9426C40.8328 15.1582 39.8767 7.99796 41.3242 6.69556C41.851 6.22196 42.3602 6.22492 42.3602 6.22492C43.1002 6.23084 43.6418 6.96787 43.8786 7.29347C45.3202 9.26483 44.8377 15.6229 44.7755 16.3718" fill="#FFFAF0"/>
<path d="M45.0655 16.3984C45.1632 15.1996 45.5717 9.11977 44.1124 7.12473C43.8549 6.76953 43.2481 5.94369 42.3601 5.93481C42.3394 5.93481 41.7326 5.93481 41.1258 6.47945C39.6458 7.81145 40.3887 14.0896 40.6492 15.984L41.2264 15.9041C40.8268 13.0211 40.4361 7.88249 41.5135 6.91457C41.9427 6.52977 42.3394 6.51793 42.3542 6.51793C42.9462 6.52089 43.4286 7.18393 43.6358 7.46809C45.0034 9.33881 44.5357 15.6407 44.4794 16.3511L45.0596 16.3984H45.0655Z" fill="black"/>
<path d="M43.624 15.9189L43.4819 14.7349C43.4612 14.5484 43.3162 14.4004 43.1326 14.3678C42.736 14.3027 42.3394 14.2376 41.9457 14.1725C41.7977 14.1488 41.7651 13.9534 41.8954 13.8794C43.1711 13.1424 43.5737 11.6624 43.0675 10.7744C42.659 10.061 41.626 9.67327 40.5545 9.88639L41.0162 15.8952C41.3744 15.8182 41.8391 15.7561 42.3778 15.765C42.8692 15.7738 43.2925 15.839 43.627 15.9159L43.624 15.9189Z" fill="black"/>
<path d="M48.3097 15.984C48.2002 15.1996 47.2441 8.0394 48.6916 6.737C49.2185 6.2634 49.7276 6.26636 49.7276 6.26636C50.4676 6.27228 51.0093 7.00932 51.2461 7.33492C52.6876 9.30628 52.2051 15.6644 52.1429 16.4132" fill="#FFFAF0"/>
<path d="M52.4331 16.4399C52.5308 15.2411 52.9392 9.16122 51.48 7.16618C51.2224 6.81098 50.6156 5.98514 49.7276 5.97626C49.704 5.97626 49.1001 5.97626 48.4963 6.5209C47.0163 7.8529 47.7592 14.1311 48.0197 16.0255L48.5969 15.9455C48.1973 13.0625 47.8066 7.92394 48.884 6.95602C49.3132 6.57122 49.7099 6.55938 49.7247 6.55938C50.3167 6.56234 50.7992 7.22538 51.0064 7.50954C52.3739 9.38026 51.9062 15.6821 51.85 16.3925L52.4301 16.4399H52.4331Z" fill="black"/>
<path d="M50.9915 15.9603L50.8495 14.7763C50.8287 14.5898 50.6837 14.4418 50.5002 14.4093C50.1035 14.3442 49.7069 14.279 49.3132 14.2139C49.1652 14.1902 49.1327 13.9949 49.2629 13.9209C50.5387 13.1838 50.9412 11.7038 50.4351 10.8158C50.0266 10.1025 48.9935 9.71472 47.922 9.92784L48.3838 15.9366C48.7419 15.8597 49.2067 15.7975 49.7454 15.8064C50.2367 15.8153 50.66 15.8804 50.9945 15.9574L50.9915 15.9603Z" fill="black"/>
<path d="M45.3499 16.8604C44.8615 16.4845 43.7959 15.7948 42.304 15.8155C41.4042 15.8274 40.6612 16.0938 40.1639 16.3276" fill="#0077FB"/>
<path d="M45.1752 17.0883L45.5275 16.6295C44.8585 16.1145 43.7544 15.4988 42.3011 15.5254C41.5433 15.5373 40.7826 15.7178 40.0426 16.0642L40.2883 16.5881C40.9513 16.2773 41.6321 16.1145 42.3099 16.1056C43.5916 16.0819 44.5773 16.6325 45.1752 17.0913V17.0883Z" fill="black"/>
<path d="M52.7202 16.9016C52.2318 16.5257 51.1662 15.836 49.6744 15.8567C48.7745 15.8686 48.0316 16.135 47.5343 16.3688" fill="#0077FB"/>
<path d="M52.5425 17.1295L52.8948 16.6707C52.2258 16.1557 51.1306 15.5459 49.6684 15.5666C48.9106 15.5785 48.1499 15.759 47.4099 16.1053L47.6556 16.6293C48.3186 16.3185 48.9994 16.1557 49.6773 16.1468C50.9649 16.129 51.9476 16.6737 52.5425 17.1325V17.1295Z" fill="black"/>
<path d="M45.9536 15.2854C46.0128 15.2322 46.5486 14.7645 47.2915 14.9125C47.3448 14.9243 48.0315 15.0694 48.3512 15.6998C48.7094 16.4043 48.4341 17.3663 47.7385 17.7985C46.9955 18.2573 46.1638 17.8725 46.1016 17.8429" fill="#0077FB"/>
<path d="M46.9275 18.3135C47.2265 18.3135 47.5639 18.2484 47.8925 18.0441C48.7065 17.5409 49.035 16.4073 48.6088 15.5725C48.2299 14.8237 47.4366 14.649 47.3478 14.6313C46.4894 14.4596 45.8738 14.9687 45.7583 15.0723L46.1461 15.5015C46.1934 15.4571 46.6345 15.0782 47.2354 15.1966C47.259 15.2025 47.8333 15.3209 48.0938 15.833C48.3838 16.4043 48.147 17.2065 47.5876 17.5528C46.9719 17.9346 46.2586 17.5972 46.229 17.5824L45.9774 18.1004C46.0425 18.1329 46.4332 18.3105 46.9275 18.3105V18.3135Z" fill="black"/>
<path d="M40.2348 20.4092C41.0074 20.9124 43.6714 22.5049 47.1198 21.978C48.8159 21.7205 50.0916 21.0426 50.8701 20.5365" fill="#0077FB"/>
<path d="M45.7198 22.3746C46.1845 22.3746 46.664 22.3421 47.1643 22.2651C48.5347 22.055 49.8342 21.5547 51.03 20.7792L50.7163 20.2938C49.5915 21.0249 48.366 21.4955 47.0784 21.6938C44.0237 22.1586 41.5788 20.939 40.3948 20.1694L40.081 20.6549C41.1436 21.3446 43.1624 22.3776 45.7228 22.3776L45.7198 22.3746Z" fill="black"/>
<path d="M36.9107 17.4731C37.0646 17.3813 38.4706 16.5703 39.9299 17.2215C40.1312 17.3103 41.0932 17.7395 41.4661 18.7992C41.8805 19.9713 41.253 21.0103 41.1021 21.2619C40.2466 22.6797 38.6127 22.8869 38.3907 22.9106" fill="#0077FB"/>
<path d="M38.4203 23.1948C38.7519 23.1593 40.4479 22.9018 41.3478 21.407C42.0493 20.2466 41.9457 19.2935 41.7355 18.7015C41.4691 17.9438 40.8683 17.3222 40.0454 16.9551C38.5003 16.2654 37.038 17.0587 36.7598 17.2245L37.0558 17.7188C37.1979 17.633 38.4943 16.8959 39.8086 17.482C40.4864 17.7839 40.9748 18.2842 41.1909 18.891C41.3596 19.3675 41.4366 20.1401 40.8535 21.108C40.0927 22.369 38.6394 22.588 38.3552 22.6176L38.4174 23.1918L38.4203 23.1948Z" fill="black"/>
<path d="M49.2126 2.5397C49.1741 2.48346 48.7982 1.88554 49.0646 1.20474C49.2629 0.701541 49.7424 0.349301 50.2959 0.296021C50.9234 0.636421 51.6575 1.10114 52.4123 1.73754C53.4098 2.57522 54.1262 3.43954 54.6205 4.1381C54.585 4.3453 54.4784 4.79522 54.1173 5.22146C53.6733 5.74242 53.1257 5.90522 52.9274 5.95554C52.6136 5.40794 52.0926 4.64426 51.2757 3.90426C50.515 3.21754 49.7631 2.79426 49.2126 2.53674V2.5397Z" fill="#A19085"/>
<path d="M52.7853 6.29592L52.9984 6.24264C53.3003 6.16864 53.8775 5.96144 54.3422 5.41384C54.7152 4.97576 54.8573 4.50512 54.9106 4.19136L54.9313 4.07296L54.8602 3.97528C54.215 3.0636 53.4542 2.23776 52.6018 1.52144C51.9328 0.95904 51.2046 0.46472 50.435 0.0473604L50.3581 0.00592041L50.2693 0.0148004C49.6003 0.0799204 49.035 0.49728 48.7952 1.10704C48.4755 1.91808 48.9166 2.62848 48.9698 2.7084L49.0142 2.77648L49.0882 2.812C49.8164 3.1524 50.4854 3.5964 51.0803 4.13216C51.7138 4.70344 52.2495 5.36944 52.6758 6.1124L52.7853 6.30184V6.29592ZM54.3126 4.20912C54.2564 4.44296 54.141 4.7508 53.8982 5.03792C53.6289 5.3576 53.3062 5.52632 53.0635 5.61512C52.6284 4.90176 52.0926 4.25648 51.471 3.69408C50.8554 3.1376 50.1657 2.67584 49.4168 2.31768C49.331 2.1608 49.1622 1.75824 49.3369 1.3172C49.4878 0.93832 49.8282 0.67192 50.2397 0.60384C50.9442 0.9916 51.6102 1.4504 52.2258 1.9684C53.0102 2.62552 53.7088 3.38032 54.3097 4.21208L54.3126 4.20912Z" fill="black"/>
<path d="M38.4649 3.27079C38.0653 3.64079 37.9203 4.21207 38.0979 4.72415C38.2696 5.22439 38.7224 5.58255 39.2523 5.63879C39.8709 5.36351 40.5606 5.09415 41.3243 4.84847C42.4284 4.49623 43.4496 4.26831 44.3524 4.12327C44.3997 4.06407 44.8052 3.54903 44.6454 2.86527C44.4826 2.16079 43.8669 1.87959 43.8018 1.84999C43.124 1.84111 42.2271 1.89735 41.2118 2.14895C40.0278 2.44199 39.1013 2.89487 38.462 3.27079H38.4649Z" fill="#A19085"/>
<path d="M39.2966 5.93478L39.3677 5.90222C40.0307 5.60918 40.7174 5.34574 41.4101 5.12374C42.3809 4.81294 43.3873 4.57318 44.3967 4.41038L44.5062 4.39262L44.5773 4.30678C44.669 4.1943 45.113 3.59638 44.9295 2.79718C44.7401 1.97726 44.0533 1.63982 43.9172 1.58062L43.8639 1.55694H43.8047C42.9137 1.54806 42.0109 1.6487 41.1407 1.86182C40.1491 2.1075 39.1989 2.49526 38.3139 3.01622L38.2636 3.0547C37.7781 3.50462 37.6035 4.1943 37.8196 4.8159C38.0297 5.4227 38.5773 5.85782 39.2197 5.9259L39.2966 5.93478ZM44.1865 3.85686C43.1861 4.02262 42.1945 4.26534 41.2354 4.57318C40.5487 4.79222 39.8679 5.04974 39.2108 5.33982C38.826 5.27174 38.5033 5.00238 38.3731 4.62942C38.2369 4.23574 38.3435 3.79766 38.6425 3.50758C39.4683 3.0251 40.3563 2.66398 41.2828 2.4331C42.0849 2.23478 42.9137 2.1371 43.7337 2.14302C43.8757 2.21702 44.2487 2.45382 44.3612 2.93334C44.4589 3.35662 44.2842 3.70294 44.1865 3.85686Z" fill="black"/>
<path d="M55.1 22.5996C54.9283 22.6529 53.3713 23.1028 52.1074 22.126C51.9328 21.9898 51.101 21.3475 50.9915 20.2286C50.8701 18.9913 51.7256 18.1329 51.9298 17.9257C53.099 16.7536 54.7329 16.9401 54.9579 16.9697" fill="#0077FB"/>
<path d="M54.0255 23.0406C54.5938 23.0406 55.0378 22.9222 55.1829 22.8749L55.0141 22.3213C54.8543 22.3717 53.4217 22.7772 52.285 21.8951C51.6989 21.4422 51.3408 20.8384 51.2786 20.1961C51.2283 19.6929 51.3378 18.9262 52.1341 18.1241C53.173 17.0821 54.6353 17.2124 54.9194 17.2509L54.9934 16.6796C54.6619 16.6352 52.954 16.4813 51.7256 17.7185C50.7695 18.6805 50.6422 19.6277 50.7044 20.2553C50.7843 21.0574 51.2194 21.8004 51.9328 22.3539C52.6343 22.8956 53.4069 23.0406 54.0285 23.0406H54.0255Z" fill="black"/>
</g>
<path d="M24.5812 39.3823C23.0281 39.3823 21.6192 40.2923 20.9806 41.7079L10.1535 65.7079C8.97417 68.3222 10.8861 71.2823 13.7541 71.2823H74.6187C76.1717 71.2823 77.5806 70.3722 78.2193 68.9566L89.0463 44.9566C90.2257 42.3423 88.3137 39.3823 85.4458 39.3823H24.5812Z" fill="#FFFBF2" stroke="black" stroke-width="1.5"/>
<mask id="path-75-outside-2_612_5030" maskUnits="userSpaceOnUse" x="8.55188" y="59.7323" width="75" height="13" fill="black">
<rect fill="white" x="8.55188" y="59.7323" width="75" height="13"/>
<path fill-rule="evenodd" clip-rule="evenodd" d="M80.6571 61.7323L77.5371 68.6482C77.0197 69.795 75.8783 70.5323 74.6202 70.5323H13.7556C11.4322 70.5323 9.88324 68.1343 10.8387 66.0164L12.7713 61.7323H80.6571Z"/>
</mask>
<path fill-rule="evenodd" clip-rule="evenodd" d="M80.6571 61.7323L77.5371 68.6482C77.0197 69.795 75.8783 70.5323 74.6202 70.5323H13.7556C11.4322 70.5323 9.88324 68.1343 10.8387 66.0164L12.7713 61.7323H80.6571Z" fill="#9EDEFC"/>
<path d="M80.6571 61.7323L82.0244 62.3491L82.9793 60.2323H80.6571V61.7323ZM77.5371 68.6482L76.1698 68.0314V68.0314L77.5371 68.6482ZM10.8387 66.0164L9.47136 65.3996L9.47136 65.3996L10.8387 66.0164ZM12.7713 61.7323V60.2323H11.8025L11.404 61.1155L12.7713 61.7323ZM79.2897 61.1155L76.1698 68.0314L78.9044 69.265L82.0244 62.3491L79.2897 61.1155ZM76.1698 68.0314C75.8949 68.6406 75.2886 69.0323 74.6202 69.0323V72.0323C76.4681 72.0323 78.1445 70.9495 78.9044 69.265L76.1698 68.0314ZM74.6202 69.0323H13.7556V72.0323H74.6202V69.0323ZM13.7556 69.0323C12.5213 69.0323 11.6984 67.7583 12.206 66.6332L9.47136 65.3996C8.06808 68.5102 10.3431 72.0323 13.7556 72.0323V69.0323ZM12.206 66.6332L14.1386 62.3491L11.404 61.1155L9.47136 65.3996L12.206 66.6332ZM12.7713 63.2323H80.6571V60.2323H12.7713V63.2323Z" fill="black" mask="url(#path-75-outside-2_612_5030)"/>
<defs>
<clipPath id="clip0_612_5030">
<rect width="93.6" height="71.2" fill="white" transform="matrix(-1 0 0 1 94.3999 0)"/>
</clipPath>
</defs>
</svg>
