<svg width="83" height="73" viewBox="0 0 83 73" fill="none" xmlns="http://www.w3.org/2000/svg">
<mask id="path-1-outside-1_612_4843" maskUnits="userSpaceOnUse" x="0.0999756" y="19.5968" width="72" height="54" fill="black">
<rect fill="white" x="0.0999756" y="19.5968" width="72" height="54"/>
<path fill-rule="evenodd" clip-rule="evenodd" d="M5.29998 21.5968C3.53266 21.5968 2.09998 23.0295 2.09998 24.7968V32.7842C2.09996 32.7884 2.09995 32.7926 2.09995 32.7968V67.9968C2.09995 69.7641 3.53264 71.1968 5.29995 71.1968H66.9C68.6673 71.1968 70.1 69.7641 70.1 67.9968V32.7968C70.1 31.0295 68.6673 29.5968 66.9 29.5968H41.2434L37.3756 23.1504C36.7973 22.1866 35.7556 21.5968 34.6316 21.5968H5.29998Z"/>
</mask>
<path fill-rule="evenodd" clip-rule="evenodd" d="M5.29998 21.5968C3.53266 21.5968 2.09998 23.0295 2.09998 24.7968V32.7842C2.09996 32.7884 2.09995 32.7926 2.09995 32.7968V67.9968C2.09995 69.7641 3.53264 71.1968 5.29995 71.1968H66.9C68.6673 71.1968 70.1 69.7641 70.1 67.9968V32.7968C70.1 31.0295 68.6673 29.5968 66.9 29.5968H41.2434L37.3756 23.1504C36.7973 22.1866 35.7556 21.5968 34.6316 21.5968H5.29998Z" fill="#FFFBF2"/>
<path d="M2.09998 32.7842L3.59998 32.79V32.7842H2.09998ZM41.2434 29.5968L39.9572 30.3686L40.3941 31.0968H41.2434V29.5968ZM37.3756 23.1504L36.0893 23.9222V23.9222L37.3756 23.1504ZM3.59998 24.7968C3.59998 23.8579 4.36109 23.0968 5.29998 23.0968V20.0968C2.70424 20.0968 0.599976 22.2011 0.599976 24.7968H3.59998ZM3.59998 32.7842V24.7968H0.599976V32.7842H3.59998ZM3.59995 32.7968C3.59995 32.7945 3.59996 32.7923 3.59996 32.79L0.599987 32.7784C0.599963 32.7845 0.599951 32.7907 0.599951 32.7968H3.59995ZM3.59995 67.9968V32.7968H0.599951V67.9968H3.59995ZM5.29995 69.6968C4.36107 69.6968 3.59995 68.9357 3.59995 67.9968H0.599951C0.599951 70.5925 2.7042 72.6968 5.29995 72.6968V69.6968ZM66.9 69.6968H5.29995V72.6968H66.9V69.6968ZM68.6 67.9968C68.6 68.9357 67.8388 69.6968 66.9 69.6968V72.6968C69.4957 72.6968 71.6 70.5925 71.6 67.9968H68.6ZM68.6 32.7968V67.9968H71.6V32.7968H68.6ZM66.9 31.0968C67.8388 31.0968 68.6 31.8579 68.6 32.7968H71.6C71.6 30.2011 69.4957 28.0968 66.9 28.0968V31.0968ZM41.2434 31.0968H66.9V28.0968H41.2434V31.0968ZM36.0893 23.9222L39.9572 30.3686L42.5297 28.8251L38.6618 22.3787L36.0893 23.9222ZM34.6316 23.0968C35.2287 23.0968 35.7821 23.4101 36.0893 23.9222L38.6618 22.3787C37.8124 20.963 36.2825 20.0968 34.6316 20.0968V23.0968ZM5.29998 23.0968H34.6316V20.0968H5.29998V23.0968Z" fill="black" mask="url(#path-1-outside-1_612_4843)"/>
<g clip-path="url(#clip0_612_4843)">
<path d="M23.2701 60.0137C19.2583 60.0137 16.0061 59.1364 16.0061 58.0542C16.0061 56.972 19.2583 56.0947 23.2701 56.0947C27.2819 56.0947 30.5341 56.972 30.5341 58.0542C30.5341 59.1364 27.2819 60.0137 23.2701 60.0137Z" fill="black"/>
<path d="M23.2701 60.0877C27.383 60.0877 30.6055 59.1947 30.6055 58.0567C30.6055 56.9188 27.383 56.0258 23.2701 56.0258C19.1571 56.0258 15.9347 56.9188 15.9347 58.0567C15.9347 59.1947 19.1571 60.0877 23.2701 60.0877ZM23.2701 56.1686C27.1661 56.1686 30.46 57.031 30.46 58.0542C30.46 59.0773 27.1661 59.9397 23.2701 59.9397C19.374 59.9397 16.0801 59.0773 16.0801 58.0542C16.0801 57.031 19.374 56.1686 23.2701 56.1686Z" fill="black"/>
<path d="M48.356 60.0137C44.3443 60.0137 41.0921 59.1364 41.0921 58.0542C41.0921 56.972 44.3443 56.0947 48.356 56.0947C52.3678 56.0947 55.62 56.972 55.62 58.0542C55.62 59.1364 52.3678 60.0137 48.356 60.0137Z" fill="black"/>
<path d="M48.356 60.0877C52.4689 60.0877 55.6914 59.1947 55.6914 58.0567C55.6914 56.9188 52.4689 56.0258 48.356 56.0258C44.2431 56.0258 41.0206 56.9188 41.0206 58.0567C41.0206 59.1947 44.2431 60.0877 48.356 60.0877ZM48.356 56.1686C52.2521 56.1686 55.546 57.031 55.546 58.0542C55.546 59.0773 52.2521 59.9397 48.356 59.9397C44.4599 59.9397 41.166 59.0773 41.166 58.0542C41.166 57.031 44.4599 56.1686 48.356 56.1686Z" fill="black"/>
<path d="M71.7911 18.8588C74.1741 18.2975 75.7841 17.0218 75.7866 15.8634C75.7866 15.047 75.3835 14.6056 75.3835 14.6056C74.8783 14.057 74.0287 14.0953 73.9598 13.6539C73.9547 13.6156 73.9853 13.4906 74.0491 13.2354C74.1282 12.9267 74.1665 12.7711 74.2455 12.5083C74.3527 12.1536 74.9191 9.76802 73.947 9.09444C73.6409 8.88267 73.1918 8.84695 72.8525 8.97452C71.9518 9.30876 71.4109 10.9187 71.3165 12.0822C71.2961 12.3348 71.2833 12.7328 71.1124 12.7838C70.8674 12.8553 70.6531 12.1 69.9642 11.9112C69.9157 11.8985 69.4769 11.7837 69.0661 11.9929C68.6349 12.2123 68.5558 12.6282 68.3772 12.6001C68.2267 12.5746 68.1961 12.2608 68.0711 11.6995C68.0226 11.4877 67.8159 10.5896 67.3924 9.74505C67.1474 9.25773 67.0148 9.15312 66.9306 9.09954C66.5478 8.8546 65.9687 8.87756 65.6319 9.1225C65.267 9.3853 65.2058 9.88794 65.3053 11.6204C65.4099 13.4676 65.4609 14.3887 65.6676 15.2332C65.9738 16.4758 66.4203 17.5014 66.8413 18.2847" fill="#FFFAF0"/>
<path d="M71.8497 19.1089C74.3144 18.5272 76.0366 17.1954 76.0417 15.8661C76.0443 14.9577 75.5901 14.4551 75.5723 14.4347C75.2916 14.1285 74.9319 13.9856 74.641 13.8683C74.4496 13.7917 74.2532 13.7126 74.2175 13.6335C74.2277 13.5749 74.2634 13.4345 74.2991 13.2993C74.3782 12.9906 74.4165 12.8375 74.493 12.5849C74.5007 12.5568 75.312 9.73238 74.095 8.88785C73.7327 8.63781 73.1994 8.57658 72.7657 8.73732C71.6813 9.13789 71.1532 10.9469 71.0639 12.0644L71.0588 12.1384C71.0537 12.2073 71.0435 12.3323 71.0281 12.4318C71.0103 12.4088 70.9924 12.3884 70.9746 12.368C70.7883 12.1409 70.5077 11.7965 70.0356 11.6664C69.9387 11.6409 69.436 11.5209 68.9538 11.7659C68.7063 11.8935 68.5532 12.0721 68.4486 12.2098C68.4308 12.1307 68.4104 12.0389 68.3925 11.9521C68.3721 11.8603 68.3517 11.7557 68.3262 11.6434C68.2522 11.3066 68.0328 10.4391 67.6271 9.63032C67.3719 9.12259 67.2112 8.97205 67.0734 8.8853C66.6141 8.59189 65.9176 8.60464 65.4864 8.91592C65.0016 9.26802 64.9532 9.87271 65.0527 11.6358C65.1573 13.4958 65.2109 14.427 65.4226 15.2945C65.688 16.3763 66.0911 17.4224 66.6193 18.4073L67.0709 18.1649C66.5631 17.2183 66.1753 16.2105 65.9202 15.1721C65.7186 14.3505 65.6676 13.4345 65.563 11.6051C65.4737 10.0105 65.5196 9.52061 65.7849 9.32925C66.0477 9.13789 66.5121 9.13279 66.7979 9.31394C66.8336 9.33691 66.9433 9.4058 67.1704 9.8574C67.5505 10.6152 67.7572 11.4342 67.8286 11.7531C67.8542 11.8628 67.8746 11.9623 67.8924 12.0542C67.9868 12.5058 68.0481 12.8018 68.3415 12.8502C68.5788 12.8885 68.7165 12.7048 68.816 12.567C68.9079 12.4446 69.01 12.3093 69.1886 12.2175C69.5075 12.0542 69.8621 12.1435 69.903 12.1537C70.2168 12.2405 70.4184 12.4879 70.5816 12.687C70.7424 12.8834 70.9235 13.1028 71.1914 13.0263C71.5155 12.9319 71.5486 12.5109 71.5716 12.1716L71.5767 12.1001C71.6737 10.9188 72.2248 9.47979 72.9468 9.21189C73.2224 9.10983 73.5847 9.1481 73.8067 9.30374C74.5849 9.84209 74.1537 11.9419 74.0057 12.4318C73.9266 12.6946 73.8883 12.8502 73.8092 13.1564C73.7199 13.5085 73.697 13.6004 73.7097 13.6897C73.7684 14.0647 74.1179 14.2025 74.4547 14.3377C74.7099 14.4398 74.9982 14.5546 75.1998 14.774C75.2125 14.7868 75.5366 15.1593 75.534 15.8558C75.5314 16.9121 73.8985 18.0935 71.7349 18.6012L71.8523 19.0987L71.8497 19.1089Z" fill="black"/>
<path d="M70.9822 18.4711C71.0383 18.4609 71.893 18.3359 72.3702 18.9252C72.4391 19.0094 72.735 19.3998 72.6279 19.7596C72.3982 20.5352 70.4642 20.6118 69.4232 20.5378C68.2164 20.4536 66.2901 20.03 66.188 19.2187C66.1446 18.8615 66.4661 18.5527 66.5197 18.5017C66.9075 18.1317 67.5556 18.0629 68.196 18.3231" fill="#FFFAF0"/>
<path d="M70.1044 20.8133C71.074 20.8133 72.6227 20.678 72.8728 19.8284C73.0131 19.3589 72.6737 18.892 72.5691 18.7619C72.0053 18.0654 71.0459 18.198 70.9413 18.2159L71.023 18.7211C71.0536 18.716 71.7833 18.6037 72.1711 19.0834C72.3012 19.2441 72.4365 19.4993 72.3829 19.683C72.2374 20.1754 70.7729 20.3719 69.4436 20.2775C68.048 20.1805 66.512 19.7161 66.4431 19.1829C66.4227 19.0145 66.5605 18.8129 66.6983 18.6828C67.0095 18.3868 67.5581 18.3358 68.1015 18.5552L68.2929 18.0807C67.553 17.7821 66.8054 17.8689 66.3436 18.3128C66.2033 18.4481 65.8818 18.8078 65.9354 19.2467C66.0961 20.5428 69.2727 20.7801 69.4079 20.7903C69.5355 20.8005 69.7906 20.8133 70.1044 20.8133Z" fill="black"/>
<path d="M71.3646 12.7519L71.5065 13.8475L70.9979 13.9134L70.856 12.8178L71.3646 12.7519Z" fill="black"/>
<path d="M68.5328 12.5135C68.4614 13.2177 68.4129 13.8734 68.3823 14.4756C68.3108 15.8202 68.3593 16.134 68.5762 16.4146C68.8798 16.8101 69.4666 17.0704 70.0382 16.9428C70.6786 16.7999 71.1736 16.1978 71.2195 15.463" fill="#FFFAF0"/>
<path d="M69.7473 17.2311C69.8646 17.2311 69.9795 17.2183 70.0943 17.1928C70.8546 17.0244 71.4236 16.3176 71.4746 15.4782L70.9643 15.4476C70.926 16.0625 70.5229 16.5753 69.982 16.6953C69.4717 16.8101 68.9997 16.5498 68.7777 16.259C68.6246 16.0599 68.566 15.8329 68.6374 14.4908C68.6731 13.8402 68.7216 13.1845 68.7879 12.5415L68.2776 12.4905C68.2113 13.1436 68.1603 13.807 68.1246 14.4653C68.0506 15.8405 68.0939 16.2156 68.3721 16.5753C68.691 16.9887 69.2217 17.2336 69.7473 17.2336V17.2311Z" fill="black"/>
<path d="M59.2787 26.5592V30.0138C59.8553 30.098 63.9197 30.6262 67.3234 27.6435C70.7423 24.6481 70.7397 20.525 70.7295 19.9484C70.5127 19.7953 70.0202 19.4917 69.3186 19.4279C68.5098 19.3564 67.9 19.6473 67.6704 19.7723C67.678 20.1295 67.6882 23.1581 65.1419 25.2197C62.5904 27.2863 59.6257 26.6408 59.2787 26.5592Z" fill="#0F55CB"/>
<path d="M60.5749 30.3557C62.241 30.3557 65.045 29.9806 67.4918 27.8349C70.898 24.8497 71.0001 20.7368 70.9848 19.9407V19.8106L70.8776 19.7366C70.5612 19.5121 70.0356 19.234 69.3416 19.1727C68.515 19.0987 67.8618 19.3768 67.548 19.5478L67.4102 19.6218V19.7774C67.4255 20.3158 67.3592 23.0917 64.9787 25.0206C62.5931 26.9521 59.8579 26.4341 59.3349 26.3091L59.021 26.2351V30.2332L59.2405 30.2664C59.4573 30.2996 59.9319 30.3532 60.5749 30.3532V30.3557ZM70.4745 20.0836C70.4694 21.0863 70.2321 24.7527 67.155 27.4496C64.175 30.0597 60.6387 29.9118 59.5339 29.7893V26.873C60.5111 27.0414 63.0523 27.2429 65.3027 25.4187C67.6832 23.4898 67.9154 20.775 67.9256 19.9305C68.219 19.7927 68.7063 19.6294 69.2957 19.683C69.8034 19.7289 70.204 19.9126 70.4745 20.0836Z" fill="black"/>
<path d="M74.3271 14.0774C73.3091 13.3885 72.1941 13.2992 71.5741 13.8095C71.5027 13.8707 71.1532 14.1718 71.1149 14.6387C71.0587 15.3403 71.7323 16.1185 72.8422 16.4375" fill="#FFFAF0"/>
<path d="M72.7734 16.6851L72.9137 16.1927C71.985 15.9247 71.3216 15.2665 71.3701 14.6618C71.3981 14.3148 71.6584 14.075 71.7375 14.0112C72.2758 13.5672 73.2811 13.682 74.1818 14.2918L74.4675 13.8683C73.3602 13.1207 72.133 13.0187 71.4083 13.6157C71.2578 13.7407 70.9006 14.0903 70.8572 14.621C70.7883 15.4782 71.5921 16.3457 72.7683 16.6851H72.7734Z" fill="black"/>
<path d="M59.8629 36.9206L55.7857 40.7019C49.4199 41.253 42.5871 41.6255 35.3384 41.7199C27.975 41.8169 21.0299 41.6204 14.5646 41.2249C13.6435 37.0814 12.8296 32.4275 12.2861 27.3272C11.8141 22.8902 11.6151 18.7492 11.587 14.9706C13.3526 13.5979 15.1182 12.2227 16.8838 10.85L59.8629 36.9206Z" fill="#0077FB"/>
<path d="M31.6465 42.0006C32.8814 42.0006 34.1138 41.9929 35.3436 41.9751C42.1457 41.8858 49.0295 41.5413 55.8087 40.9545L55.8955 40.9468L60.2865 36.8747L16.8686 10.5413L11.3319 14.8481V14.9757C11.36 19.0937 11.5973 23.2602 12.0336 27.3578C12.5286 32.0193 13.2965 36.7038 14.3146 41.2836L14.3554 41.4724L14.5467 41.4852C20.211 41.8296 25.9466 42.0031 31.644 42.0031L31.6465 42.0006ZM55.6786 40.4544C48.9402 41.0361 42.0972 41.3755 35.3385 41.4648C28.5108 41.5541 21.5913 41.3933 14.7738 40.9825C13.7813 36.4818 13.0312 31.879 12.5439 27.3017C12.1152 23.2628 11.8805 19.1575 11.8473 15.0956L16.9043 11.1613L59.4394 36.964L55.676 40.4544H55.6786Z" fill="black"/>
<path d="M57.7248 9.72992C58.452 13.58 59.0745 17.8486 59.4675 22.4871C59.914 27.738 59.9931 32.5807 59.8629 36.9232C53.8441 37.5126 47.3787 37.9336 40.5179 38.0918C33.0906 38.2627 26.1073 38.1071 19.6369 37.7371C18.8561 33.3129 18.18 28.5443 17.685 23.4541C17.2538 19.0299 17.0038 14.8175 16.889 10.85C30.5009 10.4775 44.1154 10.1024 57.7274 9.72992H57.7248Z" fill="#0077FB"/>
<path d="M34.5271 38.4157C36.53 38.4157 38.5303 38.3928 40.523 38.3468C46.9603 38.1989 53.4767 37.8034 59.8885 37.1757L60.113 37.1528L60.1207 36.9282C60.2635 32.1213 60.1309 27.2532 59.7252 22.4641C59.3629 18.1955 58.776 13.8963 57.9774 9.68136L57.9366 9.46704L16.6236 10.5999L16.6313 10.855C16.7538 15.0496 17.0217 19.2952 17.4299 23.4745C17.8942 28.2457 18.5525 33.0577 19.3843 37.7779L19.42 37.9769L19.6216 37.9896C24.5612 38.2729 29.5544 38.4132 34.5271 38.4132V38.4157ZM59.6155 36.6884C53.2879 37.3033 46.8634 37.6886 40.5128 37.834C33.6545 37.9922 26.7069 37.8774 19.8538 37.4921C19.0398 32.8485 18.3969 28.1181 17.9402 23.4285C17.5422 19.3462 17.2768 15.2001 17.1518 11.1L57.5156 9.99264C58.2887 14.1209 58.8602 18.3282 59.2149 22.5075C59.6129 27.2047 59.7482 31.9733 59.6155 36.6884Z" fill="black"/>
<path d="M58.9367 17.6852L44.1459 18.124L45.2839 37.9079C47.695 37.8697 50.2235 37.7676 52.8591 37.5839C55.2958 37.4155 57.6329 37.1884 59.8628 36.9231C59.9675 33.6674 59.947 30.1413 59.7378 26.3831C59.5669 23.3035 59.2862 20.3999 58.9367 17.6852Z" fill="#8873FF"/>
<path d="M45.0442 38.1657L45.2891 38.1606C47.8099 38.1198 50.3614 38.0101 52.8771 37.8366C55.2117 37.6733 57.5718 37.4513 59.8936 37.1732L60.113 37.1477L60.1207 36.9283C60.2329 33.4226 60.1896 29.8684 59.9956 26.3679C59.8349 23.4643 59.5645 20.5327 59.1919 17.6521L59.1613 17.4225L43.8756 17.8741L45.0416 38.1657H45.0442ZM59.6155 36.6936C57.3728 36.9589 55.0943 37.1707 52.8439 37.3289C50.4201 37.4973 47.9579 37.6044 45.529 37.6478L44.4216 18.3716L58.7174 17.9481C59.072 20.7419 59.3297 23.5842 59.4879 26.3985C59.6793 29.8123 59.7226 33.2746 59.6206 36.6936H59.6155Z" fill="black"/>
<path d="M33.3918 18.4022L34.3231 38.1606L19.637 37.737C18.9889 34.7263 18.4149 31.4196 17.9888 27.8451C17.6112 24.6787 17.3994 21.691 17.2999 18.9201C22.6656 18.7492 28.0287 18.5757 33.3944 18.4047L33.3918 18.4022Z" fill="#8873FF"/>
<path d="M34.591 38.4234L33.6342 18.1394L17.0319 18.6727L17.0421 18.9304C17.1493 21.9079 17.3815 24.916 17.7336 27.8757C18.129 31.19 18.6852 34.5248 19.3869 37.7906L19.4303 37.9871L34.5935 38.4259L34.591 38.4234ZM33.1494 18.6676L34.0552 37.8978L19.8462 37.487C19.1675 34.3003 18.6291 31.0446 18.2438 27.8145C17.902 24.9543 17.6749 22.0482 17.5652 19.1676L33.1494 18.6676Z" fill="black"/>
<path d="M33.6341 23.3035H44.4624V23.8164H33.6341V23.3035Z" fill="black"/>
<path d="M33.9787 29.6235H44.8044V30.1364H33.9787V29.6235Z" fill="black"/>
<path d="M48.9888 9.96974L47.7896 0.924866L22.5941 1.48618L23.3952 10.6714L25.3165 10.6204L24.5944 3.08594L46.3506 2.44553L47.1466 10.0208L48.9888 9.96974Z" fill="#0077FB"/>
<path d="M23.1604 10.9341L25.597 10.8678L24.875 3.33336L46.1208 2.70826L46.9169 10.2835L49.277 10.2197L48.014 0.664551L22.3159 1.23607L23.1604 10.9341ZM25.0357 10.3702L23.6273 10.4085L22.8721 1.73361L47.565 1.18505L48.6952 9.71963L47.3762 9.75535L46.5801 2.18011L24.3136 2.83583L25.0357 10.3702Z" fill="black"/>
<path d="M21.7953 10.6713L20.8334 2.44549L22.5939 1.48615L23.395 10.6713H21.7953Z" fill="#8873FF"/>
<path d="M21.5657 10.9264H23.6732L22.8159 1.07275L20.5605 2.30255L21.5683 10.9264H21.5657ZM23.1145 10.4161H22.0224L21.109 2.58831L22.3745 1.89942L23.117 10.4187L23.1145 10.4161Z" fill="black"/>
<path d="M46.5061 3.93044L24.7397 4.61422L24.5943 3.08591L46.3505 2.4455L46.5061 3.93044Z" fill="#8873FF"/>
<path d="M24.5077 4.87699L46.7894 4.1779L46.5802 2.18011L24.3138 2.83584L24.5102 4.87699H24.5077ZM46.223 3.68547L24.972 4.35139L24.8751 3.33337L46.121 2.70826L46.223 3.68547Z" fill="black"/>
<path d="M26.3753 35.7545C23.1145 35.7545 20.4712 32.4338 20.4712 28.3375C20.4712 24.2411 23.1145 20.9204 26.3753 20.9204C29.636 20.9204 32.2793 24.2411 32.2793 28.3375C32.2793 32.4338 29.636 35.7545 26.3753 35.7545Z" fill="#C081FF"/>
<path d="M26.3754 36.0097C29.7713 36.0097 32.5345 32.5678 32.5345 28.335C32.5345 24.1021 29.7713 20.6602 26.3754 20.6602C22.9794 20.6602 20.2162 24.1021 20.2162 28.335C20.2162 32.5678 22.9794 36.0097 26.3754 36.0097ZM26.3754 21.1756C29.4881 21.1756 32.0217 24.3879 32.0217 28.3375C32.0217 32.2871 29.4881 35.4994 26.3754 35.4994C23.2626 35.4994 20.729 32.2871 20.729 28.3375C20.729 24.3879 23.2626 21.1756 26.3754 21.1756Z" fill="black"/>
<path d="M26.3803 31.065C25.3122 31.065 24.4463 29.9399 24.4463 28.5519C24.4463 27.1639 25.3122 26.0387 26.3803 26.0387C27.4485 26.0387 28.3143 27.1639 28.3143 28.5519C28.3143 29.9399 27.4485 31.065 26.3803 31.065Z" fill="#0077FB"/>
<path d="M26.3802 31.3176C27.587 31.3176 28.5693 30.0751 28.5693 28.5493C28.5693 27.0236 27.587 25.781 26.3802 25.781C25.1734 25.781 24.1911 27.0236 24.1911 28.5493C24.1911 30.0751 25.1734 31.3176 26.3802 31.3176ZM26.3802 26.2938C27.3064 26.2938 28.059 27.3068 28.059 28.5493C28.059 29.7919 27.3064 30.8048 26.3802 30.8048C25.454 30.8048 24.7013 29.7919 24.7013 28.5493C24.7013 27.3068 25.454 26.2938 26.3802 26.2938Z" fill="black"/>
<path d="M52.4103 34.9611C49.1496 34.9611 46.5062 31.6403 46.5062 27.544C46.5062 23.4477 49.1496 20.127 52.4103 20.127C55.671 20.127 58.3143 23.4477 58.3143 27.544C58.3143 31.6403 55.671 34.9611 52.4103 34.9611Z" fill="#C081FF"/>
<path d="M52.4101 35.2188C55.8061 35.2188 58.5693 31.7769 58.5693 27.5441C58.5693 23.3112 55.8061 19.8693 52.4101 19.8693C49.0142 19.8693 46.251 23.3112 46.251 27.5441C46.251 31.7769 49.0142 35.2188 52.4101 35.2188ZM52.4101 20.3822C55.5229 20.3822 58.0565 23.5944 58.0565 27.5441C58.0565 31.4937 55.5229 34.706 52.4101 34.706C49.2974 34.706 46.7638 31.4937 46.7638 27.5441C46.7638 23.5944 49.2974 20.3822 52.4101 20.3822Z" fill="black"/>
<path d="M52.4127 30.2716C51.3446 30.2716 50.4787 29.1464 50.4787 27.7584C50.4787 26.3704 51.3446 25.2452 52.4127 25.2452C53.4808 25.2452 54.3467 26.3704 54.3467 27.7584C54.3467 29.1464 53.4808 30.2716 52.4127 30.2716Z" fill="#0077FB"/>
<path d="M52.4127 30.5266C53.6195 30.5266 54.6018 29.2841 54.6018 27.7583C54.6018 26.2325 53.6195 24.99 52.4127 24.99C51.2058 24.99 50.2235 26.2325 50.2235 27.7583C50.2235 29.2841 51.2058 30.5266 52.4127 30.5266ZM52.4127 25.5028C53.3388 25.5028 54.0915 26.5158 54.0915 27.7583C54.0915 29.0009 53.3388 30.0138 52.4127 30.0138C51.4865 30.0138 50.7338 29.0009 50.7338 27.7583C50.7338 26.5158 51.4865 25.5028 52.4127 25.5028Z" fill="black"/>
<path d="M39.3238 27.7584C37.4158 27.7584 35.8691 27.1964 35.8691 26.5031C35.8691 25.8098 37.4158 25.2478 39.3238 25.2478C41.2317 25.2478 42.7784 25.8098 42.7784 26.5031C42.7784 27.1964 41.2317 27.7584 39.3238 27.7584Z" fill="#0F55CB"/>
<path d="M39.3238 28.016C41.1225 28.016 43.0361 27.4853 43.0361 26.503C43.0361 25.5207 41.1251 24.99 39.3238 24.99C37.5225 24.99 35.614 25.5207 35.614 26.503C35.614 27.4853 37.525 28.016 39.3238 28.016ZM39.3238 25.5028C41.2782 25.5028 42.5233 26.0948 42.5233 26.503C42.5233 26.9112 41.2782 27.5032 39.3238 27.5032C37.3694 27.5032 36.1243 26.9112 36.1243 26.503C36.1243 26.0948 37.3694 25.5028 39.3238 25.5028Z" fill="black"/>
<path d="M33.1136 20.2265C32.8967 19.4611 30.9372 12.6359 32.1976 11.1357C32.6569 10.5897 33.1621 10.5208 33.1621 10.5208C33.8995 10.4213 34.5424 11.0821 34.8231 11.373C36.5351 13.1335 36.9459 19.4457 36.9893 20.2035" fill="#FFFAF0"/>
<path d="M32.8637 20.2775L33.3612 20.155L33.3561 20.1371C32.3304 16.5345 31.5369 12.3195 32.3942 11.2989C32.7718 10.8499 33.1724 10.7784 33.1979 10.7733C33.8103 10.6917 34.392 11.2938 34.6395 11.549C36.2775 13.2355 36.6934 19.5069 36.7342 20.2162L37.2445 20.1856C37.1756 18.9966 36.7368 12.9752 35.0069 11.1918C34.7033 10.8805 33.9914 10.1482 33.1265 10.2656C32.9912 10.2886 32.4733 10.4034 31.9987 10.9698C30.7919 12.4088 32.1977 17.9582 32.8586 20.2775H32.8637Z" fill="black"/>
<path d="M35.7798 19.9943L35.4736 18.8334C35.4252 18.6522 35.2619 18.5221 35.0731 18.517C34.6699 18.5068 34.2668 18.4991 33.8637 18.4889C33.7131 18.4864 33.6545 18.2976 33.7718 18.2057C34.9378 17.2923 35.1317 15.7614 34.5041 14.9501C33.9963 14.2969 32.9145 14.0571 31.8787 14.4168L33.1799 20.3362C33.5269 20.2111 33.9785 20.081 34.5194 20.0147C35.0093 19.9535 35.4405 19.9611 35.7849 19.9892L35.7798 19.9943Z" fill="black"/>
<path d="M40.4568 19.3183C40.2399 18.5529 38.2804 11.641 39.5408 10.1408C40 9.59475 40.5052 9.52586 40.5052 9.52586C41.2426 9.42635 41.8856 10.0872 42.1662 10.378C43.8782 12.1385 44.289 18.4508 44.3324 19.2086" fill="#038DFA"/>
<path d="M40.2118 19.3896L40.7042 19.2493C39.7143 15.7717 38.8672 11.3449 39.7372 10.3065C40.12 9.84978 40.5256 9.78344 40.5435 9.78089C41.1507 9.69669 41.735 10.3014 41.9851 10.5565C43.6231 12.243 44.039 18.5145 44.0798 19.2238L44.5901 19.1932C44.5186 18.0042 44.0798 11.9802 42.3525 10.1993C42.0488 9.8855 41.3344 9.15578 40.4721 9.27315C40.4465 9.2757 39.8623 9.3599 39.3443 9.97735C38.9361 10.4621 38.2064 12.3502 40.2093 19.3896H40.2118Z" fill="black"/>
<path d="M32.5344 21.0965C33.157 20.6908 33.8152 20.4306 34.4914 20.326C35.7798 20.127 36.8412 20.5326 37.5072 20.9103L37.7598 20.4638C37.0249 20.0479 35.8487 19.5963 34.4148 19.8182C33.6647 19.9356 32.9375 20.2188 32.2563 20.6653L32.537 21.094L32.5344 21.0965Z" fill="black"/>
<path d="M39.8775 20.1066C40.5001 19.7009 41.1584 19.4407 41.8345 19.3361C43.123 19.137 44.1844 19.5427 44.8503 19.9203L45.1029 19.4738C44.3681 19.0579 43.1893 18.6063 41.758 18.8283C41.0104 18.9431 40.2832 19.2289 39.5994 19.6754L39.8801 20.104L39.8775 20.1066Z" fill="black"/>
<path d="M38.02 18.7671C38.0787 18.7135 38.6119 18.2364 39.3621 18.3767C39.4156 18.3869 40.1071 18.5273 40.4362 19.1575C40.8036 19.8617 40.5408 20.8312 39.8468 21.2726C39.1069 21.7446 38.2649 21.367 38.2012 21.3364" fill="#0077FB"/>
<path d="M39.0076 21.765C39.3112 21.765 39.6531 21.6987 39.9822 21.4894C40.7783 20.9817 41.0896 19.8591 40.6609 19.0375C40.2782 18.3078 39.4949 18.1419 39.4082 18.1241C38.5585 17.9684 37.9564 18.4762 37.8467 18.5782L38.1937 18.9533C38.2422 18.9074 38.6963 18.5094 39.3163 18.6267C39.3418 18.6318 39.9363 18.7492 40.2093 19.2748C40.5206 19.8693 40.291 20.6857 39.7092 21.0582C39.079 21.4588 38.3417 21.122 38.311 21.1067L38.0942 21.5711C38.158 21.6017 38.533 21.7675 39.0101 21.7675L39.0076 21.765Z" fill="black"/>
<path d="M41.2527 13.1284C41.0358 13.1666 40.5485 13.2865 40.1326 13.7024C39.3799 14.4551 39.5355 15.5089 39.5534 15.6288C39.9973 15.3813 40.6684 15.07 41.5333 14.8991C42.4799 14.7103 43.2836 14.7638 43.8092 14.8378" fill="#038DFA"/>
<path d="M39.3597 16.0293L39.6786 15.8507C40.2731 15.5165 40.916 15.2817 41.5845 15.1491C42.3066 15.0062 43.044 14.9858 43.7737 15.0904L43.8477 14.5826C43.0593 14.4704 42.2632 14.4908 41.485 14.6439C40.8956 14.7612 40.3241 14.9526 39.7858 15.2154C39.7934 14.8556 39.8878 14.3045 40.3139 13.8784C40.643 13.5493 41.0309 13.4243 41.2988 13.3758L41.2069 12.8732C40.8676 12.9344 40.3726 13.0951 39.9516 13.5187C39.1326 14.3377 39.2653 15.4527 39.301 15.6696L39.3597 16.0293Z" fill="black"/>
<path d="M29.9983 3.96357C30.2024 3.95846 30.9934 3.96357 31.7027 4.5504C32.5115 5.22143 32.6033 6.15015 32.6187 6.32365C32.0905 6.62727 31.2358 7.21156 30.4933 8.21938C29.5646 9.48489 29.3043 10.753 29.2176 11.3908C28.9828 11.4265 28.4777 11.4725 27.8985 11.2581C27.2759 11.026 26.9111 10.6228 26.7605 10.4366C26.98 9.51041 27.3474 8.3444 27.9725 7.07888C28.6282 5.75468 29.3707 4.71879 29.9983 3.96612V3.96357Z" fill="#0F55CB"/>
<path d="M28.817 11.6766C28.9854 11.6766 29.1334 11.6613 29.2584 11.6434L29.4473 11.6154L29.4728 11.4266C29.5774 10.6535 29.8759 9.49768 30.7 8.3725C31.2486 7.62492 31.9375 7.01258 32.7463 6.54566L32.8866 6.46402L32.8738 6.30328C32.8509 6.02262 32.7105 5.05562 31.866 4.35397C31.1363 3.74673 30.3122 3.7008 29.9933 3.70846H29.8759L29.8019 3.80031C28.9956 4.76731 28.3016 5.83381 27.7429 6.9641C27.2071 8.04846 26.7912 9.19661 26.5105 10.3754L26.4825 10.4979L26.5616 10.5948C26.7886 10.8806 27.1918 11.2684 27.8092 11.498C28.1766 11.6358 28.5236 11.6792 28.817 11.6792V11.6766ZM28.9931 11.1587C28.7226 11.1765 28.368 11.1587 27.9878 11.0158C27.5439 10.85 27.2377 10.5872 27.0412 10.3677C27.3117 9.27061 27.7021 8.20155 28.2021 7.18863C28.7252 6.12978 29.3707 5.12961 30.1183 4.21875C30.4296 4.22895 31.0138 4.3106 31.5369 4.74689C32.1135 5.22657 32.2896 5.85932 32.3406 6.18846C31.5318 6.67834 30.8403 7.3111 30.2841 8.06888C29.4626 9.18896 29.1258 10.3346 28.9905 11.1587H28.9931Z" fill="black"/>
<path d="M36.4483 10.184C36.4355 10.2248 36.2263 10.929 36.6983 11.4648C37.0274 11.8399 37.4714 11.8884 37.576 11.896C38.0786 11.3551 38.7292 10.7402 39.5432 10.1432C40.5127 9.42879 41.4389 8.93891 42.2043 8.59957C42.2196 8.43883 42.2502 7.84944 41.8522 7.30344C41.3215 6.57372 40.4642 6.52524 40.3545 6.52014C39.7371 6.94623 39.0558 7.47438 38.3542 8.12245C37.5785 8.8394 36.9509 9.54616 36.4508 10.184H36.4483Z" fill="#0F55CB"/>
<path d="M37.6757 12.1614L37.7599 12.0695C38.3493 11.4368 38.9973 10.8576 39.6913 10.3473C40.5027 9.75028 41.3804 9.23999 42.304 8.83176L42.4418 8.77052L42.4545 8.61999C42.475 8.3725 42.4801 7.73719 42.054 7.15035C41.4671 6.3441 40.5384 6.27011 40.3573 6.26245H40.2731L40.2016 6.30838C39.4898 6.80081 38.806 7.34681 38.1732 7.93365C37.4767 8.57916 36.8261 9.28081 36.2418 10.0233L36.2137 10.059L36.1984 10.1024C36.1882 10.1381 35.9305 10.9826 36.4995 11.6307C36.8669 12.0491 37.3568 12.1308 37.5481 12.1486L37.6731 12.1588L37.6757 12.1614ZM41.9519 8.43118C41.0487 8.84196 40.1863 9.3497 39.3903 9.93653C38.7065 10.4392 38.0635 11.0081 37.4767 11.6256C37.3159 11.595 37.0761 11.5133 36.8873 11.2965C36.5633 10.929 36.6475 10.4417 36.6806 10.3014C37.2419 9.59464 37.8619 8.92616 38.5253 8.31126C39.1173 7.7627 39.7577 7.24731 40.4236 6.78295C40.6634 6.80591 41.2554 6.92072 41.6432 7.45398C41.9034 7.81118 41.9519 8.19389 41.9519 8.43118Z" fill="black"/>
<path d="M44.3833 39.7705L46.3275 46.1364L42.7785 47.06L40.5919 40.1583L44.3833 39.7705Z" fill="#0F55CB"/>
<path d="M42.6074 47.3688L46.6489 46.3176L44.5644 39.495L40.2499 39.9364L42.6049 47.3688H42.6074ZM46.0034 45.9553L42.9493 46.7513L40.9311 40.3803L44.1995 40.0461L46.0034 45.9553Z" fill="black"/>
<path d="M53.9003 53.7372C54.0662 53.8979 54.2754 54.1377 54.4438 54.4694C54.7857 55.143 54.75 55.7834 54.7142 56.0717C53.7217 56.6841 51.7112 57.7378 48.9556 57.9471C45.7434 58.1894 43.2991 57.1433 42.2453 56.6152C42.2173 56.332 42.1994 55.7528 42.4903 55.1201C42.6638 54.7424 42.8908 54.4745 43.0618 54.3061C46.6746 54.1148 50.2875 53.926 53.9003 53.7346V53.7372Z" fill="#FFFAF0"/>
<path d="M47.9987 58.2379C48.3176 58.2379 48.6417 58.2252 48.9759 58.2022C51.5886 58.0058 53.6119 57.0541 54.8493 56.2912L54.954 56.2274L54.9693 56.1049C55.0203 55.6763 55.0101 55.0257 54.6707 54.3572C54.5202 54.0612 54.3212 53.7908 54.0763 53.556L53.9972 53.4795L42.9494 54.0612L42.8805 54.1301C42.6203 54.3904 42.411 54.6889 42.258 55.018C41.9645 55.6508 41.9518 56.2529 41.9926 56.6458L42.0079 56.7862L42.1329 56.85C43.4495 57.5082 45.4804 58.243 47.9987 58.243V58.2379ZM54.4717 55.9212C53.2751 56.6433 51.3717 57.5082 48.9376 57.6919C46.1693 57.8986 43.9241 57.1485 42.4927 56.4519C42.4774 56.1279 42.5131 55.689 42.7249 55.2298C42.8371 54.9848 42.9902 54.7578 43.1765 54.5588L53.7981 54C53.9665 54.176 54.1069 54.3725 54.214 54.5868C54.4641 55.0818 54.4972 55.5691 54.4717 55.9212Z" fill="black"/>
<path d="M46.3276 44.3375L47.6875 48.6137C47.2665 48.925 46.5649 49.3664 45.5979 49.6343C44.5747 49.9201 43.697 49.8869 43.1689 49.8282C42.7147 48.3714 42.2606 46.9119 41.809 45.4551C42.2861 45.5418 43.1128 45.6311 44.0925 45.4066C45.1769 45.1591 45.9347 44.6462 46.3276 44.3375Z" fill="#FFFAF0"/>
<path d="M43.8858 50.1268C44.4854 50.1268 45.0824 50.0451 45.6667 49.8819C46.4526 49.6624 47.1823 49.3052 47.8405 48.8205L47.9885 48.7107L46.4602 43.9064L46.1693 44.1335C45.5442 44.6259 44.8069 44.978 44.0338 45.154C43.3143 45.3173 42.582 45.3352 41.8523 45.2L41.4364 45.1234L42.9724 50.0605L43.1382 50.0783C43.3883 50.1064 43.6358 50.1191 43.8858 50.1191V50.1268ZM47.3864 48.5168C46.82 48.9123 46.1949 49.2057 45.5289 49.3894C44.8196 49.5859 44.0925 49.6548 43.3628 49.5935L42.1738 45.7715C42.8346 45.8455 43.498 45.8098 44.1512 45.6592C44.8783 45.4934 45.5774 45.1846 46.1949 44.7586L47.3915 48.5168H47.3864Z" fill="black"/>
<path d="M47.5881 48.3C47.7055 48.6624 47.8254 49.0272 47.9428 49.3895C48.1902 49.2824 50.0783 48.5118 51.8745 49.5043C53.5432 50.428 54.4362 52.4946 54.0024 54.5894C53.2319 55.1226 51.3464 56.2759 48.6648 56.429C45.8097 56.5897 43.7023 55.5232 42.8934 55.0588C42.8322 54.2934 42.8093 53.4208 42.8577 52.4615C42.9088 51.4817 43.0236 50.5964 43.1665 49.8284C44.6386 49.3181 46.1134 48.8078 47.5856 48.3H47.5881Z" fill="#ED9AFF"/>
<path d="M48.0906 56.7019C48.2845 56.7019 48.481 56.6968 48.68 56.6866C51.1549 56.5462 53.02 55.5843 54.1477 54.8011L54.2319 54.7424L54.2523 54.6429C54.7039 52.4716 53.7752 50.2671 51.9994 49.2823C50.4226 48.4097 48.782 48.8179 48.1034 49.0552L47.7513 47.9734L42.9443 49.6369L42.9163 49.7824C42.753 50.6601 42.6484 51.5556 42.6024 52.4486C42.5591 53.3238 42.5693 54.2066 42.6382 55.0792L42.6484 55.2144L42.7657 55.2807C43.72 55.8293 45.6259 56.7019 48.088 56.7019H48.0906ZM53.7701 54.4387C52.6883 55.1736 50.9457 56.0436 48.6494 56.1737C46.1311 56.3141 44.1563 55.4695 43.1382 54.9031C43.0796 54.0969 43.0719 53.2829 43.1127 52.4741C43.1536 51.6551 43.248 50.831 43.3908 50.0222L47.4221 48.6266L47.7844 49.7339L48.0421 49.6242C48.3738 49.4813 50.1088 48.8205 51.7494 49.7288C53.3057 50.5912 54.1273 52.515 53.7701 54.4387Z" fill="black"/>
<path d="M47.9425 49.3895C47.5802 49.6141 46.7663 50.1856 46.2483 51.2597C45.8758 52.0354 45.812 52.7447 45.8095 53.1555" fill="#ED9AFF"/>
<path d="M46.0648 53.158C46.0699 52.5405 46.2128 51.9231 46.4781 51.3719C46.9195 50.4585 47.5906 49.9074 48.0779 49.6063L47.81 49.17C47.2665 49.5068 46.5138 50.1217 46.0189 51.1474C45.7203 51.7649 45.5596 52.4563 45.5545 53.1503L46.0673 53.1554L46.0648 53.158Z" fill="black"/>
<path d="M47.8176 49.0093C47.389 49.1879 46.8073 49.4864 46.2128 49.9865C45.7356 50.3871 45.3938 50.8004 45.1565 51.1321" fill="#ED9AFF"/>
<path d="M45.3657 51.2802C45.6565 50.8719 45.9959 50.502 46.3786 50.1805C46.8404 49.7927 47.3583 49.4763 47.9171 49.2441L47.7207 48.7721C47.1134 49.0247 46.5495 49.3666 46.0495 49.7901C45.6336 50.1397 45.2636 50.5402 44.9498 50.9842L45.3657 51.2802Z" fill="black"/>
<path d="M32.8101 48.2999C32.5064 48.578 31.9961 48.9761 31.2715 49.2593C30.4066 49.5986 29.6437 49.619 29.2023 49.5986C28.8298 49.3792 28.1001 48.8817 27.5362 47.9631C26.9621 47.0293 26.8524 46.1414 26.8269 45.7102C26.9647 45.4117 27.2479 44.904 27.7837 44.4447C28.4088 43.9089 29.0569 43.7175 29.3886 43.641C29.8733 43.84 30.7306 44.2737 31.4884 45.154C32.5626 46.4042 32.7616 47.7743 32.8101 48.2999Z" fill="#FFFAF0"/>
<path d="M29.4396 49.8641C30.0979 49.8641 30.7562 49.739 31.3634 49.5018C31.9605 49.267 32.5039 48.9277 32.981 48.4914L33.0754 48.4046L33.0627 48.2771C32.9963 47.5729 32.7284 46.2104 31.6798 44.9882C31.0904 44.3019 30.3301 43.7559 29.4856 43.4064L29.4116 43.3757L29.3325 43.3936C28.8911 43.4931 28.2353 43.7227 27.6179 44.2509C27.1893 44.6183 26.8346 45.0852 26.5948 45.6031L26.5667 45.6618L26.5718 45.7256C26.6075 46.3099 26.7632 47.1952 27.3194 48.0985C27.8679 48.9889 28.5772 49.5273 29.0748 49.8207L29.1284 49.8538H29.1921C29.2738 49.8615 29.358 49.8641 29.4422 49.8641H29.4396ZM32.5422 48.198C32.1365 48.5501 31.6772 48.8282 31.1772 49.0246C30.5801 49.2594 29.9244 49.3742 29.2789 49.3487C28.8349 49.0782 28.2277 48.6011 27.7531 47.8306C27.2735 47.0524 27.1229 46.2869 27.0846 45.7613C27.2913 45.3352 27.5898 44.9474 27.947 44.6413C28.4497 44.2101 28.9829 44.0085 29.3631 43.9115C30.1056 44.2305 30.7715 44.7178 31.2894 45.3225C32.1875 46.366 32.458 47.5269 32.5371 48.198H32.5422Z" fill="black"/>
<path d="M36.553 40.3931C36.4458 41.4239 36.0937 43.4395 34.6802 45.4552C33.7591 46.7692 33.0269 47.4402 32.2819 47.9505C31.8532 47.7336 31.024 47.2437 30.3453 46.2895C29.7457 45.445 29.534 44.6234 29.4498 44.1616C29.8707 43.9728 30.5112 43.6564 31.2511 42.5873C31.9247 41.6127 32.0828 40.6559 32.1288 40.1941C33.6035 40.2604 35.0782 40.3268 36.553 40.3931Z" fill="#0F55CB"/>
<path d="M32.2998 48.249L32.4249 48.1648C33.3255 47.5499 34.0629 46.7844 34.8896 45.6057C36.2316 43.6921 36.673 41.73 36.8082 40.4211L36.8363 40.1507L31.8967 39.9287L31.8737 40.1711C31.8176 40.7401 31.6263 41.5948 31.042 42.4419C30.3123 43.4982 29.6846 43.7788 29.3478 43.9294L29.1641 44.011L29.1998 44.2075C29.3453 45.0086 29.6693 45.7792 30.1388 46.44C30.797 47.3662 31.6058 47.8969 32.1672 48.1801L32.3024 48.249H32.2998ZM36.2673 40.638C36.1066 41.8755 35.6601 43.613 34.4711 45.3097C33.5475 46.6263 32.8382 47.2437 32.2616 47.6519C31.7615 47.3815 31.1007 46.9095 30.5521 46.1415C30.1643 45.5955 29.8862 44.9653 29.7407 44.3095C30.1464 44.1131 30.769 43.7355 31.463 42.7327C32.0319 41.9086 32.2641 41.0769 32.3534 40.462L36.2673 40.638Z" fill="black"/>
<path d="M28.6155 57.2659C28.516 57.4802 28.3374 57.7813 28.0261 58.0517C27.3602 58.6309 26.5488 58.6386 26.2095 58.6411C24.6046 58.659 22.9334 56.9801 22.1093 55.6508C19.9814 52.2191 21.6067 48.0424 21.8873 47.3484C22.0608 47.2209 22.4282 46.9887 22.9487 46.9147C23.5662 46.8279 24.0484 47.0142 24.2474 47.1009C25.7043 50.4867 27.1586 53.875 28.6155 57.2608V57.2659Z" fill="#FFFAF0"/>
<path d="M26.1838 58.8988C26.1838 58.8988 26.2042 58.8988 26.2119 58.8988C26.5895 58.8937 27.4595 58.8835 28.1943 58.2456C28.4699 58.0058 28.6893 57.7123 28.8475 57.3756L28.896 57.2709L28.8501 57.1638L24.4437 46.9121L24.3519 46.8713C24.0355 46.7284 23.5278 46.5778 22.9129 46.6646C22.3771 46.7386 21.9765 46.9682 21.7341 47.1443L21.6754 47.1876L21.6473 47.254C21.1779 48.4072 19.8103 52.436 21.8872 55.7886C22.8185 57.2914 24.5534 58.8988 26.1787 58.8988H26.1838ZM28.3347 57.2582C28.2122 57.4904 28.0515 57.6919 27.8576 57.8603C27.2656 58.3757 26.5257 58.3834 26.2093 58.3885H26.1864C24.8162 58.3885 23.2114 56.9495 22.326 55.5206C20.415 52.436 21.6269 48.6981 22.0964 47.5168C22.2929 47.3815 22.5939 47.2259 22.9843 47.1723C23.4257 47.1085 23.7957 47.2004 24.0534 47.3024L28.3347 57.2607V57.2582Z" fill="black"/>
<path d="M29.0697 57.5643C27.105 58.3859 24.8802 56.4851 23.9617 55.342C21.3694 52.1145 23.1911 47.4632 23.3391 47.1034C23.7371 46.8177 24.2832 46.4834 24.9746 46.2053C25.6864 45.917 26.332 45.7792 26.8269 45.7103C27.6204 47.0065 28.4114 48.3026 29.2049 49.5987V50.4331C29.4218 50.581 30.9756 51.6884 31.1185 53.6734C31.2307 55.2145 30.473 56.975 29.0697 57.5618V57.5643Z" fill="#ED9AFF"/>
<path d="M28.0669 58.0184C28.4343 58.0184 28.8042 57.9521 29.1665 57.8016C30.7637 57.1331 31.4832 55.2118 31.371 53.658C31.2357 51.7929 29.9243 50.655 29.4574 50.3054V49.5298L29.4191 49.4685L26.9544 45.4373L26.7886 45.4602C26.1329 45.5521 25.4899 45.723 24.875 45.9705C24.278 46.2103 23.709 46.5242 23.1859 46.8992L23.1247 46.9426L23.0966 47.0115C22.9997 47.2462 22.5149 48.499 22.3618 50.1294C22.1628 52.2649 22.645 54.1249 23.7549 55.5078C24.5408 56.485 26.2859 58.0261 28.0618 58.0261L28.0669 58.0184ZM28.9701 57.3295C27.1458 58.095 25.0255 56.2579 24.1606 55.1812C21.7724 52.2088 23.311 47.8866 23.5482 47.2692C24.0228 46.9375 24.5331 46.6594 25.0689 46.4425C25.592 46.2308 26.138 46.0802 26.6967 45.9884L28.9471 49.6727V50.5682L29.0594 50.6448C29.3375 50.8361 30.7306 51.8797 30.8632 53.6937C30.9602 55.0307 30.33 56.7606 28.9701 57.3295Z" fill="black"/>
<path d="M29.205 50.4354C28.812 50.216 28.1614 49.9174 27.3067 49.8154C26.0667 49.6674 25.0895 50.0195 24.6353 50.2185" fill="#ED9AFF"/>
<path d="M29.0799 50.6575L29.33 50.211C28.7074 49.8614 28.0364 49.6446 27.3373 49.5604C26.1432 49.4175 25.1532 49.7109 24.5332 49.9839L24.7374 50.4534C25.2987 50.2084 26.1942 49.9431 27.276 50.0707C27.9088 50.1446 28.516 50.3437 29.0799 50.6575Z" fill="black"/>
<path d="M29.205 50.0708C28.8248 49.7391 28.3349 49.3666 27.7328 49.0145C27.1791 48.693 26.6586 48.4633 26.2121 48.3" fill="#ED9AFF"/>
<path d="M29.0364 50.2646L29.3732 49.8794C28.9063 49.4711 28.396 49.1088 27.8602 48.795C27.3626 48.5067 26.837 48.2592 26.2987 48.0627L26.1226 48.5424C26.6329 48.7287 27.133 48.9634 27.6025 49.2364C28.1102 49.5324 28.5924 49.8768 29.0364 50.2646Z" fill="black"/>
<path d="M11.5181 38.5816C11.7962 38.4872 12.4009 38.2397 12.8245 37.6299C13.2557 37.0099 13.2812 36.3388 13.2888 36.0123C13.3143 35.007 12.8933 34.7085 13.1332 34.2186C13.3705 33.7364 14.0594 33.4455 14.5952 33.5756C15.4167 33.7721 15.8224 34.9381 15.7255 35.7699C15.6285 36.5838 15.0799 36.7981 15.1948 37.4768C15.307 38.1529 15.9729 38.653 16.0801 38.5841C16.1617 38.5331 15.8607 38.1886 15.9704 37.8978C16.2383 37.1808 18.9275 36.9333 19.8486 38.1861C20.0578 38.4693 20.29 38.9872 20.3129 39.5588C20.3334 40.041 20.1879 40.0997 20.2466 40.5105C20.3487 41.2427 20.8437 41.3371 20.8232 41.9061C20.8105 42.2531 20.6115 42.6435 20.3129 42.8578C20.0144 43.0747 19.7261 43.0338 19.6929 43.1895C19.6547 43.3732 20.0399 43.4803 20.2466 43.8758C20.4227 44.2152 20.3793 44.5979 20.3359 44.7407C20.0859 45.57 17.6467 45.8098 15.728 45.45C14.8503 45.2842 13.2097 44.83 11.4747 43.3451" fill="#FFFAF0"/>
<path d="M17.5395 45.8685C18.9658 45.8685 20.3512 45.5751 20.5809 44.8173C20.6421 44.6157 20.688 44.1692 20.4737 43.761C20.3512 43.5237 20.1803 43.3783 20.0527 43.2686C20.1675 43.2303 20.313 43.1767 20.4635 43.067C20.8156 42.8119 21.0631 42.35 21.0784 41.9163C21.0911 41.5412 20.9304 41.3167 20.7875 41.1177C20.6625 40.9417 20.5426 40.7784 20.5018 40.4773C20.4788 40.3063 20.4967 40.2247 20.5222 40.0997C20.5502 39.9721 20.5834 39.8114 20.5706 39.5486C20.5426 38.9107 20.2874 38.3494 20.0553 38.0356C19.4276 37.1808 18.1034 36.9435 17.0675 37.0864C16.7307 37.1323 15.9219 37.2982 15.7306 37.8085C15.7101 37.8646 15.6974 37.9233 15.6923 37.9769C15.58 37.8289 15.4805 37.6426 15.4473 37.436C15.4014 37.1604 15.4958 36.9971 15.6362 36.7471C15.7663 36.5149 15.9296 36.2291 15.9806 35.8005C16.0852 34.9228 15.6821 33.5756 14.6564 33.3281C13.9905 33.1674 13.1893 33.5246 12.9036 34.1063C12.7326 34.4533 12.8117 34.7365 12.8959 35.0351C12.9648 35.2851 13.0439 35.5709 13.0337 36.0072C13.026 36.2802 13.0107 36.918 12.6152 37.4844C12.2708 37.9794 11.7835 38.2244 11.4365 38.3417L11.5998 38.8265C12.0208 38.6836 12.6101 38.3877 13.0337 37.7779C13.5185 37.0839 13.5363 36.3388 13.544 36.0199C13.5567 35.5071 13.4598 35.155 13.3883 34.8973C13.3092 34.6166 13.2812 34.4941 13.3628 34.3309C13.544 33.9609 14.1027 33.7185 14.5365 33.8257C15.1718 33.9788 15.5622 34.9815 15.4729 35.7393C15.4346 36.0633 15.3121 36.2827 15.1922 36.4919C15.034 36.7726 14.8682 37.0635 14.9447 37.5176C15.0544 38.181 15.6055 38.6811 15.876 38.8035C16.0418 38.8775 16.1566 38.8418 16.2204 38.801C16.4348 38.6632 16.3327 38.4208 16.2842 38.3035C16.2408 38.204 16.1822 38.0662 16.2128 37.9871C16.2562 37.8748 16.5368 37.6758 17.139 37.5942C17.9937 37.4742 19.1444 37.6579 19.6445 38.3392C19.8231 38.5816 20.0374 39.0485 20.0604 39.5715C20.068 39.7705 20.0451 39.8802 20.0221 39.9951C19.9915 40.1405 19.9609 40.291 19.9966 40.5487C20.0553 40.9748 20.2313 41.2198 20.3742 41.4188C20.5018 41.5948 20.5758 41.702 20.5706 41.901C20.5604 42.1817 20.3946 42.4904 20.1675 42.6562C20.0578 42.7353 19.9455 42.771 19.846 42.8042C19.6981 42.8527 19.4939 42.9165 19.4455 43.1435C19.3944 43.3859 19.5705 43.5339 19.7134 43.6538C19.8205 43.7431 19.943 43.8452 20.0221 44.0008C20.1624 44.2713 20.119 44.5851 20.0935 44.6719C19.9251 45.2255 17.8023 45.5853 15.7765 45.2026C14.3145 44.927 12.8857 44.2203 11.6406 43.1538L11.3089 43.5416C12.6203 44.6642 14.1334 45.4118 15.6821 45.7026C16.2408 45.8073 16.8966 45.8685 17.5421 45.8685H17.5395Z" fill="black"/>
<path d="M12.1739 39.8037C11.9162 38.061 11.633 37.6707 11.4135 37.6579C10.9543 37.6273 10.4032 39.2398 10.2628 40.6303C10.0562 42.6868 10.6889 44.9576 11.3472 44.9882C11.5054 44.9959 11.6253 44.8708 11.7656 44.7254C12.5872 43.8707 12.2325 42.4138 12.1713 42.1816" fill="#FFFAF0"/>
<path d="M11.3625 45.2458C11.6228 45.2458 11.7963 45.0647 11.9494 44.9039C12.8194 43.9982 12.5311 42.5413 12.4214 42.1178L11.9264 42.2453C11.9927 42.5005 12.2861 43.8145 11.5819 44.5467C11.5054 44.6258 11.3957 44.7253 11.36 44.7305C11.3345 44.7305 11.2809 44.6998 11.2094 44.6182C10.7476 44.0824 10.3496 42.3219 10.518 40.6532C10.6609 39.2346 11.1635 38.0533 11.3931 37.9181C11.4595 37.9768 11.6891 38.288 11.9187 39.8393L12.4239 39.7653C12.1203 37.7267 11.7656 37.4231 11.4289 37.4001C11.4187 37.4001 11.4084 37.4001 11.4008 37.4001C10.5996 37.4001 10.1098 39.5893 10.0077 40.6022C9.84186 42.2581 10.2144 44.2508 10.8216 44.9524C10.9798 45.1361 11.1508 45.2331 11.3345 45.2407C11.3447 45.2407 11.3523 45.2407 11.3625 45.2407V45.2458Z" fill="black"/>
<path d="M14.8351 30.9629C14.5238 30.968 9.90824 31.0905 8.32379 34.1727C8.17581 34.4584 7.49203 35.8923 7.91302 37.4104C8.00997 37.76 8.18347 38.3825 8.73458 38.8239C9.13516 39.1454 9.66075 39.3113 9.85466 39.3699C10.3726 39.5332 10.4466 39.4465 10.6915 39.5817C11.3422 39.9415 11.4468 40.8957 11.4621 41.0794C11.5539 42.1536 10.8319 42.9216 10.6915 43.0644C7.65021 41.9979 5.20848 39.7807 4.81556 37.1808C4.21852 33.2516 8.26256 28.2278 14.8351 27.84V30.9604V30.9629Z" fill="#0F55CB"/>
<path d="M10.7603 43.3604L10.8751 43.243C11.0971 43.0159 11.814 42.1867 11.7171 41.059C11.6916 40.763 11.5512 39.7654 10.8164 39.3597C10.648 39.2678 10.5281 39.25 10.4005 39.2321C10.2934 39.2168 10.1633 39.199 9.93107 39.1275C9.74737 39.0688 9.25748 38.9183 8.89518 38.6249C8.40785 38.2345 8.25222 37.6757 8.16037 37.3415C7.76745 35.9229 8.41551 34.5502 8.55074 34.29C10.0816 31.3124 14.6436 31.2206 14.8375 31.218H15.0901V27.572L14.8196 27.5873C11.3777 27.7889 8.28539 29.2891 6.33098 31.7054C4.93789 33.4276 4.29238 35.4381 4.56283 37.2216C4.95065 39.7654 7.32349 42.1561 10.6072 43.3068L10.7603 43.3604ZM14.5772 30.7154C13.5261 30.7741 9.56876 31.19 8.09403 34.0552C7.88481 34.4635 7.23164 35.9178 7.66539 37.4793C7.76744 37.8467 7.95625 38.5305 8.5737 39.0255C9.01255 39.3776 9.56876 39.5511 9.77798 39.6174C10.051 39.7016 10.2117 39.7246 10.3316 39.7399C10.4388 39.7552 10.4847 39.7603 10.5689 39.8062C11.0971 40.0971 11.194 40.9365 11.2068 41.1023C11.2731 41.8754 10.8572 42.4852 10.6174 42.7659C7.59139 41.656 5.42011 39.4618 5.06801 37.1425C4.81797 35.4994 5.42266 33.6343 6.72645 32.0243C8.54053 29.7841 11.3905 28.3681 14.5772 28.1155V30.7154Z" fill="black"/>
<path d="M17.7104 38.5255C17.5165 38.6097 17.167 38.7296 16.7256 38.7092C16.4602 38.6965 16.2408 38.6378 16.0801 38.5816" fill="#FFFAF0"/>
<path d="M16.8227 38.9668C17.1595 38.9668 17.4988 38.8953 17.8126 38.7601L17.6085 38.2906C17.3329 38.4106 17.0293 38.4667 16.7385 38.4539C16.5446 38.4437 16.3532 38.408 16.1695 38.3417L15.996 38.8239C16.2282 38.9081 16.4706 38.9566 16.7155 38.9668C16.7512 38.9668 16.7869 38.9668 16.8227 38.9668Z" fill="black"/>
<path d="M43.4599 31.2998L43.618 32.7669H35.4381V31.2998H43.4599Z" fill="#0F55CB"/>
<path d="M35.183 33.022H43.9012L43.6895 31.0447H35.183V33.022ZM43.3323 32.5118H35.6958V31.5575H43.2302L43.3323 32.5118Z" fill="black"/>
<path d="M42.0336 34.1702H43.618V35.7546H42.0336V34.1702Z" fill="#8ADFFF"/>
<path d="M41.7758 36.0098H43.873V33.9125H41.7758V36.0098ZM43.3602 35.4995H42.286V34.4253H43.3602V35.4995Z" fill="black"/>
<path d="M38.7344 34.1854H40.3188V35.7699H38.7344V34.1854Z" fill="#8ADFFF"/>
<path d="M38.4794 36.025H40.5767V33.9277H38.4794V36.025ZM40.0638 35.5147H38.9897V34.4431H40.0638V35.5147Z" fill="black"/>
<path d="M35.5911 34.1702H37.1755V35.7546H35.5911V34.1702Z" fill="#8ADFFF"/>
<path d="M35.3358 36.0098H37.4331V33.9125H35.3358V36.0098ZM36.9203 35.4995H35.8461V34.4279H36.9203V35.4995Z" fill="black"/>
</g>
<path d="M17.0812 40.0469C15.5281 40.0469 14.1192 40.9569 13.4806 42.3726L2.65352 66.3726C1.47417 68.9868 3.38614 71.9469 6.25409 71.9469H67.1187C68.6717 71.9469 70.0806 71.0368 70.7193 69.6212L81.5463 45.6212C82.7257 43.007 80.8137 40.0469 77.9458 40.0469H17.0812Z" fill="#FFFBF2" stroke="black" stroke-width="1.5"/>
<mask id="path-100-outside-2_612_4843" maskUnits="userSpaceOnUse" x="1.05188" y="60.3969" width="75" height="13" fill="black">
<rect fill="white" x="1.05188" y="60.3969" width="75" height="13"/>
<path fill-rule="evenodd" clip-rule="evenodd" d="M73.1571 62.3969L70.0371 69.3128C69.5197 70.4596 68.3783 71.1969 67.1202 71.1969H6.25558C3.93218 71.1969 2.38324 68.7988 3.33866 66.681L5.27134 62.3969H73.1571Z"/>
</mask>
<path fill-rule="evenodd" clip-rule="evenodd" d="M73.1571 62.3969L70.0371 69.3128C69.5197 70.4596 68.3783 71.1969 67.1202 71.1969H6.25558C3.93218 71.1969 2.38324 68.7988 3.33866 66.681L5.27134 62.3969H73.1571Z" fill="#8477FE"/>
<path d="M73.1571 62.3969L74.5244 63.0137L75.4793 60.8969H73.1571V62.3969ZM70.0371 69.3128L68.6698 68.6959V68.6959L70.0371 69.3128ZM3.33866 66.681L1.97136 66.0641L1.97136 66.0641L3.33866 66.681ZM5.27134 62.3969V60.8969H4.30246L3.90404 61.78L5.27134 62.3969ZM71.7897 61.78L68.6698 68.6959L71.4044 69.9296L74.5244 63.0137L71.7897 61.78ZM68.6698 68.6959C68.3949 69.3052 67.7886 69.6969 67.1202 69.6969V72.6969C68.9681 72.6969 70.6445 71.614 71.4044 69.9296L68.6698 68.6959ZM67.1202 69.6969H6.25558V72.6969H67.1202V69.6969ZM6.25558 69.6969C5.02127 69.6969 4.1984 68.4229 4.70597 67.2978L1.97136 66.0641C0.568077 69.1747 2.84309 72.6969 6.25558 72.6969V69.6969ZM4.70597 67.2978L6.63865 63.0137L3.90404 61.78L1.97136 66.0641L4.70597 67.2978ZM5.27134 63.8969H73.1571V60.8969H5.27134V63.8969Z" fill="black" mask="url(#path-100-outside-2_612_4843)"/>
<defs>
<clipPath id="clip0_612_4843">
<rect width="79.2" height="70.4" fill="white" transform="translate(3.69995 0.664551)"/>
</clipPath>
</defs>
</svg>
